G04 #@! TF.GenerationSoftware,KiCad,Pcbnew,5.0.0-rc2-dev-unknown-bf135b0~64~ubuntu16.04.1*
G04 #@! TF.CreationDate,2018-05-07T12:38:37+02:00*
G04 #@! TF.ProjectId,uwb_pcb,7577625F7063622E6B696361645F7063,rev?*
G04 #@! TF.SameCoordinates,Original*
G04 #@! TF.FileFunction,Legend,Top*
G04 #@! TF.FilePolarity,Positive*
%FSLAX46Y46*%
G04 Gerber Fmt 4.6, Leading zero omitted, Abs format (unit mm)*
G04 Created by KiCad (PCBNEW 5.0.0-rc2-dev-unknown-bf135b0~64~ubuntu16.04.1) date Mon May  7 12:38:37 2018*
%MOMM*%
%LPD*%
G01*
G04 APERTURE LIST*
%ADD10C,0.150000*%
%ADD11C,0.300000*%
%ADD12C,0.120000*%
%ADD13C,0.100000*%
%ADD14R,1.700000X1.400000*%
%ADD15O,0.300000X0.650000*%
%ADD16O,0.650000X0.300000*%
%ADD17R,1.100000X0.920000*%
%ADD18R,0.920000X1.100000*%
%ADD19R,1.850000X1.300000*%
%ADD20O,1.850000X1.300000*%
%ADD21C,3.300000*%
%ADD22R,1.560000X2.500000*%
%ADD23R,1.300000X1.850000*%
%ADD24O,1.300000X1.850000*%
%ADD25R,2.100000X0.600000*%
%ADD26R,1.800000X2.100000*%
%ADD27C,1.100000*%
%ADD28R,1.220000X1.500000*%
%ADD29R,4.300000X1.600000*%
%ADD30R,0.750000X0.450000*%
%ADD31R,1.650000X2.500000*%
%ADD32R,0.350000X1.100000*%
%ADD33R,1.100000X0.350000*%
%ADD34R,0.550000X1.550000*%
%ADD35R,1.100000X2.550000*%
%ADD36R,2.550000X1.100000*%
G04 APERTURE END LIST*
D10*
X131214285Y-34489285D02*
X131185714Y-34517857D01*
X131100000Y-34546428D01*
X131042857Y-34546428D01*
X130957142Y-34517857D01*
X130900000Y-34460714D01*
X130871428Y-34403571D01*
X130842857Y-34289285D01*
X130842857Y-34203571D01*
X130871428Y-34089285D01*
X130900000Y-34032142D01*
X130957142Y-33975000D01*
X131042857Y-33946428D01*
X131100000Y-33946428D01*
X131185714Y-33975000D01*
X131214285Y-34003571D01*
X131442857Y-34375000D02*
X131728571Y-34375000D01*
X131385714Y-34546428D02*
X131585714Y-33946428D01*
X131785714Y-34546428D01*
X131985714Y-34546428D02*
X131985714Y-33946428D01*
X132328571Y-34546428D01*
X132328571Y-33946428D01*
X130514285Y-34996428D02*
X130857142Y-34996428D01*
X130685714Y-35596428D02*
X130685714Y-34996428D01*
X131057142Y-35282142D02*
X131257142Y-35282142D01*
X131342857Y-35596428D02*
X131057142Y-35596428D01*
X131057142Y-34996428D01*
X131342857Y-34996428D01*
X131942857Y-35596428D02*
X131742857Y-35310714D01*
X131600000Y-35596428D02*
X131600000Y-34996428D01*
X131828571Y-34996428D01*
X131885714Y-35025000D01*
X131914285Y-35053571D01*
X131942857Y-35110714D01*
X131942857Y-35196428D01*
X131914285Y-35253571D01*
X131885714Y-35282142D01*
X131828571Y-35310714D01*
X131600000Y-35310714D01*
X132200000Y-35596428D02*
X132200000Y-34996428D01*
X132400000Y-35425000D01*
X132600000Y-34996428D01*
X132600000Y-35596428D01*
X94840357Y-66032142D02*
X94926071Y-66060714D01*
X94954642Y-66089285D01*
X94983214Y-66146428D01*
X94983214Y-66232142D01*
X94954642Y-66289285D01*
X94926071Y-66317857D01*
X94868928Y-66346428D01*
X94640357Y-66346428D01*
X94640357Y-65746428D01*
X94840357Y-65746428D01*
X94897500Y-65775000D01*
X94926071Y-65803571D01*
X94954642Y-65860714D01*
X94954642Y-65917857D01*
X94926071Y-65975000D01*
X94897500Y-66003571D01*
X94840357Y-66032142D01*
X94640357Y-66032142D01*
X95468928Y-66317857D02*
X95411785Y-66346428D01*
X95297500Y-66346428D01*
X95240357Y-66317857D01*
X95211785Y-66260714D01*
X95211785Y-66032142D01*
X95240357Y-65975000D01*
X95297500Y-65946428D01*
X95411785Y-65946428D01*
X95468928Y-65975000D01*
X95497500Y-66032142D01*
X95497500Y-66089285D01*
X95211785Y-66146428D01*
X95754642Y-65946428D02*
X95754642Y-66346428D01*
X95754642Y-66003571D02*
X95783214Y-65975000D01*
X95840357Y-65946428D01*
X95926071Y-65946428D01*
X95983214Y-65975000D01*
X96011785Y-66032142D01*
X96011785Y-66346428D01*
X96297500Y-65946428D02*
X96297500Y-66460714D01*
X96268928Y-66517857D01*
X96211785Y-66546428D01*
X96183214Y-66546428D01*
X96297500Y-65746428D02*
X96268928Y-65775000D01*
X96297500Y-65803571D01*
X96326071Y-65775000D01*
X96297500Y-65746428D01*
X96297500Y-65803571D01*
X96840357Y-66346428D02*
X96840357Y-66032142D01*
X96811785Y-65975000D01*
X96754642Y-65946428D01*
X96640357Y-65946428D01*
X96583214Y-65975000D01*
X96840357Y-66317857D02*
X96783214Y-66346428D01*
X96640357Y-66346428D01*
X96583214Y-66317857D01*
X96554642Y-66260714D01*
X96554642Y-66203571D01*
X96583214Y-66146428D01*
X96640357Y-66117857D01*
X96783214Y-66117857D01*
X96840357Y-66089285D01*
X97126071Y-66346428D02*
X97126071Y-65946428D01*
X97126071Y-66003571D02*
X97154642Y-65975000D01*
X97211785Y-65946428D01*
X97297500Y-65946428D01*
X97354642Y-65975000D01*
X97383214Y-66032142D01*
X97383214Y-66346428D01*
X97383214Y-66032142D02*
X97411785Y-65975000D01*
X97468928Y-65946428D01*
X97554642Y-65946428D01*
X97611785Y-65975000D01*
X97640357Y-66032142D01*
X97640357Y-66346428D01*
X97926071Y-66346428D02*
X97926071Y-65946428D01*
X97926071Y-65746428D02*
X97897500Y-65775000D01*
X97926071Y-65803571D01*
X97954642Y-65775000D01*
X97926071Y-65746428D01*
X97926071Y-65803571D01*
X98211785Y-65946428D02*
X98211785Y-66346428D01*
X98211785Y-66003571D02*
X98240357Y-65975000D01*
X98297500Y-65946428D01*
X98383214Y-65946428D01*
X98440357Y-65975000D01*
X98468928Y-66032142D01*
X98468928Y-66346428D01*
X94554642Y-66796428D02*
X94754642Y-67396428D01*
X94954642Y-66796428D01*
X95383214Y-67367857D02*
X95326071Y-67396428D01*
X95211785Y-67396428D01*
X95154642Y-67367857D01*
X95126071Y-67310714D01*
X95126071Y-67082142D01*
X95154642Y-67025000D01*
X95211785Y-66996428D01*
X95326071Y-66996428D01*
X95383214Y-67025000D01*
X95411785Y-67082142D01*
X95411785Y-67139285D01*
X95126071Y-67196428D01*
X95926071Y-67396428D02*
X95926071Y-66796428D01*
X95926071Y-67367857D02*
X95868928Y-67396428D01*
X95754642Y-67396428D01*
X95697500Y-67367857D01*
X95668928Y-67339285D01*
X95640357Y-67282142D01*
X95640357Y-67110714D01*
X95668928Y-67053571D01*
X95697500Y-67025000D01*
X95754642Y-66996428D01*
X95868928Y-66996428D01*
X95926071Y-67025000D01*
X96468928Y-67396428D02*
X96468928Y-66796428D01*
X96468928Y-67367857D02*
X96411785Y-67396428D01*
X96297500Y-67396428D01*
X96240357Y-67367857D01*
X96211785Y-67339285D01*
X96183214Y-67282142D01*
X96183214Y-67110714D01*
X96211785Y-67053571D01*
X96240357Y-67025000D01*
X96297500Y-66996428D01*
X96411785Y-66996428D01*
X96468928Y-67025000D01*
X96983214Y-67367857D02*
X96926071Y-67396428D01*
X96811785Y-67396428D01*
X96754642Y-67367857D01*
X96726071Y-67310714D01*
X96726071Y-67082142D01*
X96754642Y-67025000D01*
X96811785Y-66996428D01*
X96926071Y-66996428D01*
X96983214Y-67025000D01*
X97011785Y-67082142D01*
X97011785Y-67139285D01*
X96726071Y-67196428D01*
X97268928Y-67396428D02*
X97268928Y-66996428D01*
X97268928Y-67110714D02*
X97297500Y-67053571D01*
X97326071Y-67025000D01*
X97383214Y-66996428D01*
X97440357Y-66996428D01*
D11*
X91164285Y-52628571D02*
X91164285Y-53842857D01*
X91235714Y-53985714D01*
X91307142Y-54057142D01*
X91450000Y-54128571D01*
X91735714Y-54128571D01*
X91878571Y-54057142D01*
X91950000Y-53985714D01*
X92021428Y-53842857D01*
X92021428Y-52628571D01*
X92592857Y-52628571D02*
X92950000Y-54128571D01*
X93235714Y-53057142D01*
X93521428Y-54128571D01*
X93878571Y-52628571D01*
X94950000Y-53342857D02*
X95164285Y-53414285D01*
X95235714Y-53485714D01*
X95307142Y-53628571D01*
X95307142Y-53842857D01*
X95235714Y-53985714D01*
X95164285Y-54057142D01*
X95021428Y-54128571D01*
X94450000Y-54128571D01*
X94450000Y-52628571D01*
X94950000Y-52628571D01*
X95092857Y-52700000D01*
X95164285Y-52771428D01*
X95235714Y-52914285D01*
X95235714Y-53057142D01*
X95164285Y-53200000D01*
X95092857Y-53271428D01*
X94950000Y-53342857D01*
X94450000Y-53342857D01*
X90807142Y-55892857D02*
X91021428Y-55964285D01*
X91092857Y-56035714D01*
X91164285Y-56178571D01*
X91164285Y-56392857D01*
X91092857Y-56535714D01*
X91021428Y-56607142D01*
X90878571Y-56678571D01*
X90307142Y-56678571D01*
X90307142Y-55178571D01*
X90807142Y-55178571D01*
X90950000Y-55250000D01*
X91021428Y-55321428D01*
X91092857Y-55464285D01*
X91092857Y-55607142D01*
X91021428Y-55750000D01*
X90950000Y-55821428D01*
X90807142Y-55892857D01*
X90307142Y-55892857D01*
X92021428Y-56678571D02*
X91878571Y-56607142D01*
X91807142Y-56535714D01*
X91735714Y-56392857D01*
X91735714Y-55964285D01*
X91807142Y-55821428D01*
X91878571Y-55750000D01*
X92021428Y-55678571D01*
X92235714Y-55678571D01*
X92378571Y-55750000D01*
X92450000Y-55821428D01*
X92521428Y-55964285D01*
X92521428Y-56392857D01*
X92450000Y-56535714D01*
X92378571Y-56607142D01*
X92235714Y-56678571D01*
X92021428Y-56678571D01*
X93807142Y-56678571D02*
X93807142Y-55892857D01*
X93735714Y-55750000D01*
X93592857Y-55678571D01*
X93307142Y-55678571D01*
X93164285Y-55750000D01*
X93807142Y-56607142D02*
X93664285Y-56678571D01*
X93307142Y-56678571D01*
X93164285Y-56607142D01*
X93092857Y-56464285D01*
X93092857Y-56321428D01*
X93164285Y-56178571D01*
X93307142Y-56107142D01*
X93664285Y-56107142D01*
X93807142Y-56035714D01*
X94521428Y-56678571D02*
X94521428Y-55678571D01*
X94521428Y-55964285D02*
X94592857Y-55821428D01*
X94664285Y-55750000D01*
X94807142Y-55678571D01*
X94950000Y-55678571D01*
X96092857Y-56678571D02*
X96092857Y-55178571D01*
X96092857Y-56607142D02*
X95950000Y-56678571D01*
X95664285Y-56678571D01*
X95521428Y-56607142D01*
X95450000Y-56535714D01*
X95378571Y-56392857D01*
X95378571Y-55964285D01*
X95450000Y-55821428D01*
X95521428Y-55750000D01*
X95664285Y-55678571D01*
X95950000Y-55678571D01*
X96092857Y-55750000D01*
X91057142Y-58228571D02*
X91414285Y-59228571D01*
X91771428Y-58228571D01*
X93128571Y-59228571D02*
X92271428Y-59228571D01*
X92700000Y-59228571D02*
X92700000Y-57728571D01*
X92557142Y-57942857D01*
X92414285Y-58085714D01*
X92271428Y-58157142D01*
X93771428Y-59085714D02*
X93842857Y-59157142D01*
X93771428Y-59228571D01*
X93700000Y-59157142D01*
X93771428Y-59085714D01*
X93771428Y-59228571D01*
X94771428Y-57728571D02*
X94914285Y-57728571D01*
X95057142Y-57800000D01*
X95128571Y-57871428D01*
X95200000Y-58014285D01*
X95271428Y-58300000D01*
X95271428Y-58657142D01*
X95200000Y-58942857D01*
X95128571Y-59085714D01*
X95057142Y-59157142D01*
X94914285Y-59228571D01*
X94771428Y-59228571D01*
X94628571Y-59157142D01*
X94557142Y-59085714D01*
X94485714Y-58942857D01*
X94414285Y-58657142D01*
X94414285Y-58300000D01*
X94485714Y-58014285D01*
X94557142Y-57871428D01*
X94628571Y-57800000D01*
X94771428Y-57728571D01*
D12*
X128450000Y-42650000D02*
X128450000Y-38950000D01*
X128450000Y-38950000D02*
X123150000Y-38950000D01*
D10*
X110600000Y-56200000D02*
X110200000Y-56200000D01*
X110600000Y-56200000D02*
X110600000Y-55800000D01*
X110600000Y-53000000D02*
X110200000Y-53000000D01*
X110600000Y-53000000D02*
X110600000Y-53400000D01*
X107400000Y-53000000D02*
X107800000Y-53000000D01*
X107400000Y-53000000D02*
X107400000Y-53400000D01*
X107400000Y-56200000D02*
X107400000Y-55800000D01*
D12*
X132590000Y-54460000D02*
X137310000Y-54460000D01*
X137310000Y-54460000D02*
X137310000Y-36340000D01*
X137310000Y-36340000D02*
X132590000Y-36340000D01*
X132590000Y-36340000D02*
X132590000Y-54460000D01*
X132590000Y-52700000D02*
X132390000Y-52700000D01*
X132390000Y-52700000D02*
X132390000Y-53000000D01*
X132390000Y-53000000D02*
X132590000Y-53000000D01*
X132490000Y-52700000D02*
X132490000Y-53000000D01*
X132590000Y-51900000D02*
X133200000Y-51900000D01*
X133200000Y-51900000D02*
X133200000Y-53850000D01*
X133200000Y-53850000D02*
X136700000Y-53850000D01*
X136700000Y-53850000D02*
X136700000Y-36950000D01*
X136700000Y-36950000D02*
X133200000Y-36950000D01*
X133200000Y-36950000D02*
X133200000Y-38900000D01*
X133200000Y-38900000D02*
X132590000Y-38900000D01*
X133900000Y-54460000D02*
X133900000Y-53850000D01*
X135200000Y-54460000D02*
X135200000Y-53850000D01*
X133900000Y-36340000D02*
X133900000Y-36950000D01*
X135200000Y-36340000D02*
X135200000Y-36950000D01*
X136700000Y-51500000D02*
X136200000Y-51500000D01*
X136200000Y-51500000D02*
X136200000Y-51300000D01*
X136200000Y-51300000D02*
X136700000Y-51300000D01*
X136700000Y-51400000D02*
X136200000Y-51400000D01*
X136700000Y-49500000D02*
X136200000Y-49500000D01*
X136200000Y-49500000D02*
X136200000Y-49300000D01*
X136200000Y-49300000D02*
X136700000Y-49300000D01*
X136700000Y-49400000D02*
X136200000Y-49400000D01*
X136700000Y-47500000D02*
X136200000Y-47500000D01*
X136200000Y-47500000D02*
X136200000Y-47300000D01*
X136200000Y-47300000D02*
X136700000Y-47300000D01*
X136700000Y-47400000D02*
X136200000Y-47400000D01*
X136700000Y-45500000D02*
X136200000Y-45500000D01*
X136200000Y-45500000D02*
X136200000Y-45300000D01*
X136200000Y-45300000D02*
X136700000Y-45300000D01*
X136700000Y-45400000D02*
X136200000Y-45400000D01*
X136700000Y-43500000D02*
X136200000Y-43500000D01*
X136200000Y-43500000D02*
X136200000Y-43300000D01*
X136200000Y-43300000D02*
X136700000Y-43300000D01*
X136700000Y-43400000D02*
X136200000Y-43400000D01*
X136700000Y-41500000D02*
X136200000Y-41500000D01*
X136200000Y-41500000D02*
X136200000Y-41300000D01*
X136200000Y-41300000D02*
X136700000Y-41300000D01*
X136700000Y-41400000D02*
X136200000Y-41400000D01*
X136700000Y-39500000D02*
X136200000Y-39500000D01*
X136200000Y-39500000D02*
X136200000Y-39300000D01*
X136200000Y-39300000D02*
X136700000Y-39300000D01*
X136700000Y-39400000D02*
X136200000Y-39400000D01*
X132290000Y-53510000D02*
X132290000Y-54760000D01*
X132290000Y-54760000D02*
X133540000Y-54760000D01*
X101930000Y-60060000D02*
X106150000Y-60060000D01*
X101930000Y-56740000D02*
X101930000Y-60060000D01*
X106150000Y-56740000D02*
X101930000Y-56740000D01*
X118970926Y-56733207D02*
X114750926Y-56733207D01*
X114750926Y-56733207D02*
X114750926Y-60053207D01*
X114750926Y-60053207D02*
X118970926Y-60053207D01*
X137890000Y-54760000D02*
X139140000Y-54760000D01*
X137890000Y-53510000D02*
X137890000Y-54760000D01*
X142300000Y-47400000D02*
X141800000Y-47400000D01*
X141800000Y-47300000D02*
X142300000Y-47300000D01*
X141800000Y-47500000D02*
X141800000Y-47300000D01*
X142300000Y-47500000D02*
X141800000Y-47500000D01*
X142300000Y-49400000D02*
X141800000Y-49400000D01*
X141800000Y-49300000D02*
X142300000Y-49300000D01*
X141800000Y-49500000D02*
X141800000Y-49300000D01*
X142300000Y-49500000D02*
X141800000Y-49500000D01*
X142300000Y-51400000D02*
X141800000Y-51400000D01*
X141800000Y-51300000D02*
X142300000Y-51300000D01*
X141800000Y-51500000D02*
X141800000Y-51300000D01*
X142300000Y-51500000D02*
X141800000Y-51500000D01*
X140800000Y-44340000D02*
X140800000Y-44950000D01*
X139500000Y-44340000D02*
X139500000Y-44950000D01*
X140800000Y-54460000D02*
X140800000Y-53850000D01*
X139500000Y-54460000D02*
X139500000Y-53850000D01*
X138800000Y-46900000D02*
X138190000Y-46900000D01*
X138800000Y-44950000D02*
X138800000Y-46900000D01*
X142300000Y-44950000D02*
X138800000Y-44950000D01*
X142300000Y-53850000D02*
X142300000Y-44950000D01*
X138800000Y-53850000D02*
X142300000Y-53850000D01*
X138800000Y-51900000D02*
X138800000Y-53850000D01*
X138190000Y-51900000D02*
X138800000Y-51900000D01*
X138090000Y-52700000D02*
X138090000Y-53000000D01*
X137990000Y-53000000D02*
X138190000Y-53000000D01*
X137990000Y-52700000D02*
X137990000Y-53000000D01*
X138190000Y-52700000D02*
X137990000Y-52700000D01*
X138190000Y-44340000D02*
X138190000Y-54460000D01*
X142910000Y-44340000D02*
X138190000Y-44340000D01*
X142910000Y-54460000D02*
X142910000Y-44340000D01*
X138190000Y-54460000D02*
X142910000Y-54460000D01*
X138190000Y-43860000D02*
X142910000Y-43860000D01*
X142910000Y-43860000D02*
X142910000Y-33740000D01*
X142910000Y-33740000D02*
X138190000Y-33740000D01*
X138190000Y-33740000D02*
X138190000Y-43860000D01*
X138190000Y-42100000D02*
X137990000Y-42100000D01*
X137990000Y-42100000D02*
X137990000Y-42400000D01*
X137990000Y-42400000D02*
X138190000Y-42400000D01*
X138090000Y-42100000D02*
X138090000Y-42400000D01*
X138190000Y-41300000D02*
X138800000Y-41300000D01*
X138800000Y-41300000D02*
X138800000Y-43250000D01*
X138800000Y-43250000D02*
X142300000Y-43250000D01*
X142300000Y-43250000D02*
X142300000Y-34350000D01*
X142300000Y-34350000D02*
X138800000Y-34350000D01*
X138800000Y-34350000D02*
X138800000Y-36300000D01*
X138800000Y-36300000D02*
X138190000Y-36300000D01*
X139500000Y-43860000D02*
X139500000Y-43250000D01*
X140800000Y-43860000D02*
X140800000Y-43250000D01*
X139500000Y-33740000D02*
X139500000Y-34350000D01*
X140800000Y-33740000D02*
X140800000Y-34350000D01*
X142300000Y-40900000D02*
X141800000Y-40900000D01*
X141800000Y-40900000D02*
X141800000Y-40700000D01*
X141800000Y-40700000D02*
X142300000Y-40700000D01*
X142300000Y-40800000D02*
X141800000Y-40800000D01*
X142300000Y-38900000D02*
X141800000Y-38900000D01*
X141800000Y-38900000D02*
X141800000Y-38700000D01*
X141800000Y-38700000D02*
X142300000Y-38700000D01*
X142300000Y-38800000D02*
X141800000Y-38800000D01*
X142300000Y-36900000D02*
X141800000Y-36900000D01*
X141800000Y-36900000D02*
X141800000Y-36700000D01*
X141800000Y-36700000D02*
X142300000Y-36700000D01*
X142300000Y-36800000D02*
X141800000Y-36800000D01*
X137890000Y-42910000D02*
X137890000Y-44160000D01*
X137890000Y-44160000D02*
X139140000Y-44160000D01*
X115940000Y-33496000D02*
X115940000Y-38216000D01*
X115940000Y-38216000D02*
X130060000Y-38216000D01*
X130060000Y-38216000D02*
X130060000Y-33496000D01*
X130060000Y-33496000D02*
X115940000Y-33496000D01*
X117700000Y-33496000D02*
X117700000Y-33296000D01*
X117700000Y-33296000D02*
X117400000Y-33296000D01*
X117400000Y-33296000D02*
X117400000Y-33496000D01*
X117700000Y-33396000D02*
X117400000Y-33396000D01*
X118500000Y-33496000D02*
X118500000Y-34106000D01*
X118500000Y-34106000D02*
X116550000Y-34106000D01*
X116550000Y-34106000D02*
X116550000Y-37606000D01*
X116550000Y-37606000D02*
X129450000Y-37606000D01*
X129450000Y-37606000D02*
X129450000Y-34106000D01*
X129450000Y-34106000D02*
X127500000Y-34106000D01*
X127500000Y-34106000D02*
X127500000Y-33496000D01*
X115940000Y-34806000D02*
X116550000Y-34806000D01*
X115940000Y-36106000D02*
X116550000Y-36106000D01*
X130060000Y-34806000D02*
X129450000Y-34806000D01*
X130060000Y-36106000D02*
X129450000Y-36106000D01*
X118900000Y-37606000D02*
X118900000Y-37106000D01*
X118900000Y-37106000D02*
X119100000Y-37106000D01*
X119100000Y-37106000D02*
X119100000Y-37606000D01*
X119000000Y-37606000D02*
X119000000Y-37106000D01*
X120900000Y-37606000D02*
X120900000Y-37106000D01*
X120900000Y-37106000D02*
X121100000Y-37106000D01*
X121100000Y-37106000D02*
X121100000Y-37606000D01*
X121000000Y-37606000D02*
X121000000Y-37106000D01*
X122900000Y-37606000D02*
X122900000Y-37106000D01*
X122900000Y-37106000D02*
X123100000Y-37106000D01*
X123100000Y-37106000D02*
X123100000Y-37606000D01*
X123000000Y-37606000D02*
X123000000Y-37106000D01*
X124900000Y-37606000D02*
X124900000Y-37106000D01*
X124900000Y-37106000D02*
X125100000Y-37106000D01*
X125100000Y-37106000D02*
X125100000Y-37606000D01*
X125000000Y-37606000D02*
X125000000Y-37106000D01*
X126900000Y-37606000D02*
X126900000Y-37106000D01*
X126900000Y-37106000D02*
X127100000Y-37106000D01*
X127100000Y-37106000D02*
X127100000Y-37606000D01*
X127000000Y-37606000D02*
X127000000Y-37106000D01*
X116890000Y-33196000D02*
X115640000Y-33196000D01*
X115640000Y-33196000D02*
X115640000Y-34446000D01*
X144210000Y-57690000D02*
X144210000Y-65510000D01*
X134890000Y-63710000D02*
X134460000Y-63710000D01*
X144210000Y-57690000D02*
X142260000Y-57690000D01*
X140040000Y-57690000D02*
X136810000Y-57690000D01*
X134890000Y-59490000D02*
X134890000Y-58410000D01*
X134890000Y-64790000D02*
X134890000Y-63710000D01*
X140040000Y-65510000D02*
X136810000Y-65510000D01*
X144210000Y-65510000D02*
X142260000Y-65510000D01*
X101943000Y-52160000D02*
X104643000Y-52160000D01*
X104643000Y-52160000D02*
X104643000Y-50240000D01*
X104643000Y-50240000D02*
X101943000Y-50240000D01*
X117820926Y-65743207D02*
X117820926Y-60643207D01*
X112620926Y-65743207D02*
X112620926Y-60643207D01*
X100000000Y-65550000D02*
X100000000Y-60450000D01*
X105200000Y-65550000D02*
X105200000Y-60450000D01*
X98987000Y-55760000D02*
X101257000Y-55760000D01*
X98987000Y-54240000D02*
X98987000Y-55760000D01*
X101257000Y-54240000D02*
X98987000Y-54240000D01*
X101257000Y-52440000D02*
X98987000Y-52440000D01*
X98987000Y-52440000D02*
X98987000Y-53960000D01*
X98987000Y-53960000D02*
X101257000Y-53960000D01*
X128506000Y-60439000D02*
X128246000Y-60439000D01*
X131626000Y-63409000D02*
X131626000Y-63259000D01*
X128506000Y-63409000D02*
X131626000Y-63409000D01*
X128506000Y-60289000D02*
X131626000Y-60289000D01*
X128506000Y-63409000D02*
X128506000Y-63259000D01*
X128506000Y-60289000D02*
X128506000Y-60439000D01*
X131626000Y-60289000D02*
X131626000Y-60439000D01*
D10*
X127857000Y-44355000D02*
X126857000Y-44355000D01*
X127857000Y-54705000D02*
X126782000Y-54705000D01*
X117507000Y-54705000D02*
X118582000Y-54705000D01*
X117507000Y-44355000D02*
X118582000Y-44355000D01*
X127857000Y-44355000D02*
X127857000Y-45430000D01*
X117507000Y-44355000D02*
X117507000Y-45430000D01*
X117507000Y-54705000D02*
X117507000Y-53630000D01*
X127857000Y-54705000D02*
X127857000Y-53630000D01*
X126857000Y-44355000D02*
X126857000Y-43330000D01*
X107300000Y-64772000D02*
X107300000Y-66022000D01*
X110475000Y-64772000D02*
X110475000Y-61422000D01*
X107125000Y-64772000D02*
X107125000Y-61422000D01*
X110475000Y-64772000D02*
X110225000Y-64772000D01*
X110475000Y-61422000D02*
X110225000Y-61422000D01*
X107125000Y-61422000D02*
X107375000Y-61422000D01*
X107125000Y-64772000D02*
X107300000Y-64772000D01*
X119780426Y-64813826D02*
X119955426Y-64813826D01*
X119780426Y-61463826D02*
X120030426Y-61463826D01*
X123130426Y-61463826D02*
X122880426Y-61463826D01*
X123130426Y-64813826D02*
X122880426Y-64813826D01*
X119780426Y-64813826D02*
X119780426Y-61463826D01*
X123130426Y-64813826D02*
X123130426Y-61463826D01*
X119955426Y-64813826D02*
X119955426Y-66063826D01*
X111772000Y-48301000D02*
X111772000Y-49051000D01*
X111772000Y-49051000D02*
X110022000Y-49051000D01*
X111772000Y-36301000D02*
X111772000Y-35551000D01*
X111772000Y-35551000D02*
X110022000Y-35551000D01*
X88272000Y-49051000D02*
X88272000Y-35551000D01*
X88272000Y-35551000D02*
X98272000Y-35551000D01*
X88272000Y-49051000D02*
X98272000Y-49051000D01*
D13*
X125514285Y-40926714D02*
X125514285Y-41212428D01*
X125314285Y-40612428D02*
X125514285Y-40926714D01*
X125714285Y-40612428D01*
X126228571Y-41212428D02*
X125885714Y-41212428D01*
X126057142Y-41212428D02*
X126057142Y-40612428D01*
X126000000Y-40698142D01*
X125942857Y-40755285D01*
X125885714Y-40783857D01*
X108671428Y-54857142D02*
X109157142Y-54857142D01*
X109214285Y-54828571D01*
X109242857Y-54800000D01*
X109271428Y-54742857D01*
X109271428Y-54628571D01*
X109242857Y-54571428D01*
X109214285Y-54542857D01*
X109157142Y-54514285D01*
X108671428Y-54514285D01*
X108671428Y-53942857D02*
X108671428Y-54228571D01*
X108957142Y-54257142D01*
X108928571Y-54228571D01*
X108900000Y-54171428D01*
X108900000Y-54028571D01*
X108928571Y-53971428D01*
X108957142Y-53942857D01*
X109014285Y-53914285D01*
X109157142Y-53914285D01*
X109214285Y-53942857D01*
X109242857Y-53971428D01*
X109271428Y-54028571D01*
X109271428Y-54171428D01*
X109242857Y-54228571D01*
X109214285Y-54257142D01*
X112214285Y-50585714D02*
X112242857Y-50614285D01*
X112271428Y-50700000D01*
X112271428Y-50757142D01*
X112242857Y-50842857D01*
X112185714Y-50900000D01*
X112128571Y-50928571D01*
X112014285Y-50957142D01*
X111928571Y-50957142D01*
X111814285Y-50928571D01*
X111757142Y-50900000D01*
X111700000Y-50842857D01*
X111671428Y-50757142D01*
X111671428Y-50700000D01*
X111700000Y-50614285D01*
X111728571Y-50585714D01*
X112271428Y-50014285D02*
X112271428Y-50357142D01*
X112271428Y-50185714D02*
X111671428Y-50185714D01*
X111757142Y-50242857D01*
X111814285Y-50300000D01*
X111842857Y-50357142D01*
X111871428Y-49500000D02*
X112271428Y-49500000D01*
X111642857Y-49642857D02*
X112071428Y-49785714D01*
X112071428Y-49414285D01*
X113414285Y-55985714D02*
X113442857Y-56014285D01*
X113471428Y-56100000D01*
X113471428Y-56157142D01*
X113442857Y-56242857D01*
X113385714Y-56300000D01*
X113328571Y-56328571D01*
X113214285Y-56357142D01*
X113128571Y-56357142D01*
X113014285Y-56328571D01*
X112957142Y-56300000D01*
X112900000Y-56242857D01*
X112871428Y-56157142D01*
X112871428Y-56100000D01*
X112900000Y-56014285D01*
X112928571Y-55985714D01*
X113471428Y-55414285D02*
X113471428Y-55757142D01*
X113471428Y-55585714D02*
X112871428Y-55585714D01*
X112957142Y-55642857D01*
X113014285Y-55700000D01*
X113042857Y-55757142D01*
X112871428Y-55214285D02*
X112871428Y-54814285D01*
X113471428Y-55071428D01*
X106614285Y-52585714D02*
X106642857Y-52614285D01*
X106671428Y-52700000D01*
X106671428Y-52757142D01*
X106642857Y-52842857D01*
X106585714Y-52900000D01*
X106528571Y-52928571D01*
X106414285Y-52957142D01*
X106328571Y-52957142D01*
X106214285Y-52928571D01*
X106157142Y-52900000D01*
X106100000Y-52842857D01*
X106071428Y-52757142D01*
X106071428Y-52700000D01*
X106100000Y-52614285D01*
X106128571Y-52585714D01*
X106128571Y-52357142D02*
X106100000Y-52328571D01*
X106071428Y-52271428D01*
X106071428Y-52128571D01*
X106100000Y-52071428D01*
X106128571Y-52042857D01*
X106185714Y-52014285D01*
X106242857Y-52014285D01*
X106328571Y-52042857D01*
X106671428Y-52385714D01*
X106671428Y-52014285D01*
X106071428Y-51814285D02*
X106071428Y-51414285D01*
X106671428Y-51671428D01*
X130700000Y-51471428D02*
X130500000Y-51185714D01*
X130357142Y-51471428D02*
X130357142Y-50871428D01*
X130585714Y-50871428D01*
X130642857Y-50900000D01*
X130671428Y-50928571D01*
X130700000Y-50985714D01*
X130700000Y-51071428D01*
X130671428Y-51128571D01*
X130642857Y-51157142D01*
X130585714Y-51185714D01*
X130357142Y-51185714D01*
X131042857Y-51128571D02*
X130985714Y-51100000D01*
X130957142Y-51071428D01*
X130928571Y-51014285D01*
X130928571Y-50985714D01*
X130957142Y-50928571D01*
X130985714Y-50900000D01*
X131042857Y-50871428D01*
X131157142Y-50871428D01*
X131214285Y-50900000D01*
X131242857Y-50928571D01*
X131271428Y-50985714D01*
X131271428Y-51014285D01*
X131242857Y-51071428D01*
X131214285Y-51100000D01*
X131157142Y-51128571D01*
X131042857Y-51128571D01*
X130985714Y-51157142D01*
X130957142Y-51185714D01*
X130928571Y-51242857D01*
X130928571Y-51357142D01*
X130957142Y-51414285D01*
X130985714Y-51442857D01*
X131042857Y-51471428D01*
X131157142Y-51471428D01*
X131214285Y-51442857D01*
X131242857Y-51414285D01*
X131271428Y-51357142D01*
X131271428Y-51242857D01*
X131242857Y-51185714D01*
X131214285Y-51157142D01*
X131157142Y-51128571D01*
X130700000Y-47871428D02*
X130500000Y-47585714D01*
X130357142Y-47871428D02*
X130357142Y-47271428D01*
X130585714Y-47271428D01*
X130642857Y-47300000D01*
X130671428Y-47328571D01*
X130700000Y-47385714D01*
X130700000Y-47471428D01*
X130671428Y-47528571D01*
X130642857Y-47557142D01*
X130585714Y-47585714D01*
X130357142Y-47585714D01*
X130985714Y-47871428D02*
X131100000Y-47871428D01*
X131157142Y-47842857D01*
X131185714Y-47814285D01*
X131242857Y-47728571D01*
X131271428Y-47614285D01*
X131271428Y-47385714D01*
X131242857Y-47328571D01*
X131214285Y-47300000D01*
X131157142Y-47271428D01*
X131042857Y-47271428D01*
X130985714Y-47300000D01*
X130957142Y-47328571D01*
X130928571Y-47385714D01*
X130928571Y-47528571D01*
X130957142Y-47585714D01*
X130985714Y-47614285D01*
X131042857Y-47642857D01*
X131157142Y-47642857D01*
X131214285Y-47614285D01*
X131242857Y-47585714D01*
X131271428Y-47528571D01*
X135671428Y-53000000D02*
X136100000Y-53000000D01*
X136185714Y-53028571D01*
X136242857Y-53085714D01*
X136271428Y-53171428D01*
X136271428Y-53228571D01*
X136271428Y-52400000D02*
X136271428Y-52742857D01*
X136271428Y-52571428D02*
X135671428Y-52571428D01*
X135757142Y-52628571D01*
X135814285Y-52685714D01*
X135842857Y-52742857D01*
X136300000Y-35071428D02*
X136100000Y-34785714D01*
X135957142Y-35071428D02*
X135957142Y-34471428D01*
X136185714Y-34471428D01*
X136242857Y-34500000D01*
X136271428Y-34528571D01*
X136300000Y-34585714D01*
X136300000Y-34671428D01*
X136271428Y-34728571D01*
X136242857Y-34757142D01*
X136185714Y-34785714D01*
X135957142Y-34785714D01*
X136500000Y-34471428D02*
X136900000Y-34471428D01*
X136642857Y-35071428D01*
X107214285Y-57585714D02*
X107242857Y-57614285D01*
X107271428Y-57700000D01*
X107271428Y-57757142D01*
X107242857Y-57842857D01*
X107185714Y-57900000D01*
X107128571Y-57928571D01*
X107014285Y-57957142D01*
X106928571Y-57957142D01*
X106814285Y-57928571D01*
X106757142Y-57900000D01*
X106700000Y-57842857D01*
X106671428Y-57757142D01*
X106671428Y-57700000D01*
X106700000Y-57614285D01*
X106728571Y-57585714D01*
X106728571Y-57357142D02*
X106700000Y-57328571D01*
X106671428Y-57271428D01*
X106671428Y-57128571D01*
X106700000Y-57071428D01*
X106728571Y-57042857D01*
X106785714Y-57014285D01*
X106842857Y-57014285D01*
X106928571Y-57042857D01*
X107271428Y-57385714D01*
X107271428Y-57014285D01*
X106671428Y-56471428D02*
X106671428Y-56757142D01*
X106957142Y-56785714D01*
X106928571Y-56757142D01*
X106900000Y-56700000D01*
X106900000Y-56557142D01*
X106928571Y-56500000D01*
X106957142Y-56471428D01*
X107014285Y-56442857D01*
X107157142Y-56442857D01*
X107214285Y-56471428D01*
X107242857Y-56500000D01*
X107271428Y-56557142D01*
X107271428Y-56700000D01*
X107242857Y-56757142D01*
X107214285Y-56785714D01*
X124214285Y-61185714D02*
X124242857Y-61214285D01*
X124271428Y-61300000D01*
X124271428Y-61357142D01*
X124242857Y-61442857D01*
X124185714Y-61500000D01*
X124128571Y-61528571D01*
X124014285Y-61557142D01*
X123928571Y-61557142D01*
X123814285Y-61528571D01*
X123757142Y-61500000D01*
X123700000Y-61442857D01*
X123671428Y-61357142D01*
X123671428Y-61300000D01*
X123700000Y-61214285D01*
X123728571Y-61185714D01*
X124271428Y-60614285D02*
X124271428Y-60957142D01*
X124271428Y-60785714D02*
X123671428Y-60785714D01*
X123757142Y-60842857D01*
X123814285Y-60900000D01*
X123842857Y-60957142D01*
X123671428Y-60414285D02*
X123671428Y-60042857D01*
X123900000Y-60242857D01*
X123900000Y-60157142D01*
X123928571Y-60100000D01*
X123957142Y-60071428D01*
X124014285Y-60042857D01*
X124157142Y-60042857D01*
X124214285Y-60071428D01*
X124242857Y-60100000D01*
X124271428Y-60157142D01*
X124271428Y-60328571D01*
X124242857Y-60385714D01*
X124214285Y-60414285D01*
X130414285Y-43500000D02*
X130442857Y-43528571D01*
X130471428Y-43614285D01*
X130471428Y-43671428D01*
X130442857Y-43757142D01*
X130385714Y-43814285D01*
X130328571Y-43842857D01*
X130214285Y-43871428D01*
X130128571Y-43871428D01*
X130014285Y-43842857D01*
X129957142Y-43814285D01*
X129900000Y-43757142D01*
X129871428Y-43671428D01*
X129871428Y-43614285D01*
X129900000Y-43528571D01*
X129928571Y-43500000D01*
X129928571Y-43271428D02*
X129900000Y-43242857D01*
X129871428Y-43185714D01*
X129871428Y-43042857D01*
X129900000Y-42985714D01*
X129928571Y-42957142D01*
X129985714Y-42928571D01*
X130042857Y-42928571D01*
X130128571Y-42957142D01*
X130471428Y-43300000D01*
X130471428Y-42928571D01*
X128814285Y-57700000D02*
X128842857Y-57728571D01*
X128871428Y-57814285D01*
X128871428Y-57871428D01*
X128842857Y-57957142D01*
X128785714Y-58014285D01*
X128728571Y-58042857D01*
X128614285Y-58071428D01*
X128528571Y-58071428D01*
X128414285Y-58042857D01*
X128357142Y-58014285D01*
X128300000Y-57957142D01*
X128271428Y-57871428D01*
X128271428Y-57814285D01*
X128300000Y-57728571D01*
X128328571Y-57700000D01*
X128271428Y-57500000D02*
X128271428Y-57128571D01*
X128500000Y-57328571D01*
X128500000Y-57242857D01*
X128528571Y-57185714D01*
X128557142Y-57157142D01*
X128614285Y-57128571D01*
X128757142Y-57128571D01*
X128814285Y-57157142D01*
X128842857Y-57185714D01*
X128871428Y-57242857D01*
X128871428Y-57414285D01*
X128842857Y-57471428D01*
X128814285Y-57500000D01*
X114414285Y-46900000D02*
X114442857Y-46928571D01*
X114471428Y-47014285D01*
X114471428Y-47071428D01*
X114442857Y-47157142D01*
X114385714Y-47214285D01*
X114328571Y-47242857D01*
X114214285Y-47271428D01*
X114128571Y-47271428D01*
X114014285Y-47242857D01*
X113957142Y-47214285D01*
X113900000Y-47157142D01*
X113871428Y-47071428D01*
X113871428Y-47014285D01*
X113900000Y-46928571D01*
X113928571Y-46900000D01*
X114071428Y-46385714D02*
X114471428Y-46385714D01*
X113842857Y-46528571D02*
X114271428Y-46671428D01*
X114271428Y-46300000D01*
X131014285Y-40486000D02*
X131042857Y-40514571D01*
X131071428Y-40600285D01*
X131071428Y-40657428D01*
X131042857Y-40743142D01*
X130985714Y-40800285D01*
X130928571Y-40828857D01*
X130814285Y-40857428D01*
X130728571Y-40857428D01*
X130614285Y-40828857D01*
X130557142Y-40800285D01*
X130500000Y-40743142D01*
X130471428Y-40657428D01*
X130471428Y-40600285D01*
X130500000Y-40514571D01*
X130528571Y-40486000D01*
X130471428Y-39943142D02*
X130471428Y-40228857D01*
X130757142Y-40257428D01*
X130728571Y-40228857D01*
X130700000Y-40171714D01*
X130700000Y-40028857D01*
X130728571Y-39971714D01*
X130757142Y-39943142D01*
X130814285Y-39914571D01*
X130957142Y-39914571D01*
X131014285Y-39943142D01*
X131042857Y-39971714D01*
X131071428Y-40028857D01*
X131071428Y-40171714D01*
X131042857Y-40228857D01*
X131014285Y-40257428D01*
X114500000Y-51014285D02*
X114471428Y-51042857D01*
X114385714Y-51071428D01*
X114328571Y-51071428D01*
X114242857Y-51042857D01*
X114185714Y-50985714D01*
X114157142Y-50928571D01*
X114128571Y-50814285D01*
X114128571Y-50728571D01*
X114157142Y-50614285D01*
X114185714Y-50557142D01*
X114242857Y-50500000D01*
X114328571Y-50471428D01*
X114385714Y-50471428D01*
X114471428Y-50500000D01*
X114500000Y-50528571D01*
X115014285Y-50471428D02*
X114900000Y-50471428D01*
X114842857Y-50500000D01*
X114814285Y-50528571D01*
X114757142Y-50614285D01*
X114728571Y-50728571D01*
X114728571Y-50957142D01*
X114757142Y-51014285D01*
X114785714Y-51042857D01*
X114842857Y-51071428D01*
X114957142Y-51071428D01*
X115014285Y-51042857D01*
X115042857Y-51014285D01*
X115071428Y-50957142D01*
X115071428Y-50814285D01*
X115042857Y-50757142D01*
X115014285Y-50728571D01*
X114957142Y-50700000D01*
X114842857Y-50700000D01*
X114785714Y-50728571D01*
X114757142Y-50757142D01*
X114728571Y-50814285D01*
X124814285Y-57700000D02*
X124842857Y-57728571D01*
X124871428Y-57814285D01*
X124871428Y-57871428D01*
X124842857Y-57957142D01*
X124785714Y-58014285D01*
X124728571Y-58042857D01*
X124614285Y-58071428D01*
X124528571Y-58071428D01*
X124414285Y-58042857D01*
X124357142Y-58014285D01*
X124300000Y-57957142D01*
X124271428Y-57871428D01*
X124271428Y-57814285D01*
X124300000Y-57728571D01*
X124328571Y-57700000D01*
X124271428Y-57500000D02*
X124271428Y-57100000D01*
X124871428Y-57357142D01*
X119500000Y-39014285D02*
X119471428Y-39042857D01*
X119385714Y-39071428D01*
X119328571Y-39071428D01*
X119242857Y-39042857D01*
X119185714Y-38985714D01*
X119157142Y-38928571D01*
X119128571Y-38814285D01*
X119128571Y-38728571D01*
X119157142Y-38614285D01*
X119185714Y-38557142D01*
X119242857Y-38500000D01*
X119328571Y-38471428D01*
X119385714Y-38471428D01*
X119471428Y-38500000D01*
X119500000Y-38528571D01*
X119842857Y-38728571D02*
X119785714Y-38700000D01*
X119757142Y-38671428D01*
X119728571Y-38614285D01*
X119728571Y-38585714D01*
X119757142Y-38528571D01*
X119785714Y-38500000D01*
X119842857Y-38471428D01*
X119957142Y-38471428D01*
X120014285Y-38500000D01*
X120042857Y-38528571D01*
X120071428Y-38585714D01*
X120071428Y-38614285D01*
X120042857Y-38671428D01*
X120014285Y-38700000D01*
X119957142Y-38728571D01*
X119842857Y-38728571D01*
X119785714Y-38757142D01*
X119757142Y-38785714D01*
X119728571Y-38842857D01*
X119728571Y-38957142D01*
X119757142Y-39014285D01*
X119785714Y-39042857D01*
X119842857Y-39071428D01*
X119957142Y-39071428D01*
X120014285Y-39042857D01*
X120042857Y-39014285D01*
X120071428Y-38957142D01*
X120071428Y-38842857D01*
X120042857Y-38785714D01*
X120014285Y-38757142D01*
X119957142Y-38728571D01*
X119534000Y-42614285D02*
X119505428Y-42642857D01*
X119419714Y-42671428D01*
X119362571Y-42671428D01*
X119276857Y-42642857D01*
X119219714Y-42585714D01*
X119191142Y-42528571D01*
X119162571Y-42414285D01*
X119162571Y-42328571D01*
X119191142Y-42214285D01*
X119219714Y-42157142D01*
X119276857Y-42100000D01*
X119362571Y-42071428D01*
X119419714Y-42071428D01*
X119505428Y-42100000D01*
X119534000Y-42128571D01*
X119819714Y-42671428D02*
X119934000Y-42671428D01*
X119991142Y-42642857D01*
X120019714Y-42614285D01*
X120076857Y-42528571D01*
X120105428Y-42414285D01*
X120105428Y-42185714D01*
X120076857Y-42128571D01*
X120048285Y-42100000D01*
X119991142Y-42071428D01*
X119876857Y-42071428D01*
X119819714Y-42100000D01*
X119791142Y-42128571D01*
X119762571Y-42185714D01*
X119762571Y-42328571D01*
X119791142Y-42385714D01*
X119819714Y-42414285D01*
X119876857Y-42442857D01*
X119991142Y-42442857D01*
X120048285Y-42414285D01*
X120076857Y-42385714D01*
X120105428Y-42328571D01*
X115814285Y-40585714D02*
X115842857Y-40614285D01*
X115871428Y-40700000D01*
X115871428Y-40757142D01*
X115842857Y-40842857D01*
X115785714Y-40900000D01*
X115728571Y-40928571D01*
X115614285Y-40957142D01*
X115528571Y-40957142D01*
X115414285Y-40928571D01*
X115357142Y-40900000D01*
X115300000Y-40842857D01*
X115271428Y-40757142D01*
X115271428Y-40700000D01*
X115300000Y-40614285D01*
X115328571Y-40585714D01*
X115871428Y-40014285D02*
X115871428Y-40357142D01*
X115871428Y-40185714D02*
X115271428Y-40185714D01*
X115357142Y-40242857D01*
X115414285Y-40300000D01*
X115442857Y-40357142D01*
X115271428Y-39642857D02*
X115271428Y-39585714D01*
X115300000Y-39528571D01*
X115328571Y-39500000D01*
X115385714Y-39471428D01*
X115500000Y-39442857D01*
X115642857Y-39442857D01*
X115757142Y-39471428D01*
X115814285Y-39500000D01*
X115842857Y-39528571D01*
X115871428Y-39585714D01*
X115871428Y-39642857D01*
X115842857Y-39700000D01*
X115814285Y-39728571D01*
X115757142Y-39757142D01*
X115642857Y-39785714D01*
X115500000Y-39785714D01*
X115385714Y-39757142D01*
X115328571Y-39728571D01*
X115300000Y-39700000D01*
X115271428Y-39642857D01*
X121614285Y-42614285D02*
X121585714Y-42642857D01*
X121500000Y-42671428D01*
X121442857Y-42671428D01*
X121357142Y-42642857D01*
X121300000Y-42585714D01*
X121271428Y-42528571D01*
X121242857Y-42414285D01*
X121242857Y-42328571D01*
X121271428Y-42214285D01*
X121300000Y-42157142D01*
X121357142Y-42100000D01*
X121442857Y-42071428D01*
X121500000Y-42071428D01*
X121585714Y-42100000D01*
X121614285Y-42128571D01*
X122185714Y-42671428D02*
X121842857Y-42671428D01*
X122014285Y-42671428D02*
X122014285Y-42071428D01*
X121957142Y-42157142D01*
X121900000Y-42214285D01*
X121842857Y-42242857D01*
X122757142Y-42671428D02*
X122414285Y-42671428D01*
X122585714Y-42671428D02*
X122585714Y-42071428D01*
X122528571Y-42157142D01*
X122471428Y-42214285D01*
X122414285Y-42242857D01*
X107214285Y-59385714D02*
X107242857Y-59414285D01*
X107271428Y-59500000D01*
X107271428Y-59557142D01*
X107242857Y-59642857D01*
X107185714Y-59700000D01*
X107128571Y-59728571D01*
X107014285Y-59757142D01*
X106928571Y-59757142D01*
X106814285Y-59728571D01*
X106757142Y-59700000D01*
X106700000Y-59642857D01*
X106671428Y-59557142D01*
X106671428Y-59500000D01*
X106700000Y-59414285D01*
X106728571Y-59385714D01*
X106728571Y-59157142D02*
X106700000Y-59128571D01*
X106671428Y-59071428D01*
X106671428Y-58928571D01*
X106700000Y-58871428D01*
X106728571Y-58842857D01*
X106785714Y-58814285D01*
X106842857Y-58814285D01*
X106928571Y-58842857D01*
X107271428Y-59185714D01*
X107271428Y-58814285D01*
X106871428Y-58300000D02*
X107271428Y-58300000D01*
X106642857Y-58442857D02*
X107071428Y-58585714D01*
X107071428Y-58214285D01*
X106414285Y-65785714D02*
X106442857Y-65814285D01*
X106471428Y-65900000D01*
X106471428Y-65957142D01*
X106442857Y-66042857D01*
X106385714Y-66100000D01*
X106328571Y-66128571D01*
X106214285Y-66157142D01*
X106128571Y-66157142D01*
X106014285Y-66128571D01*
X105957142Y-66100000D01*
X105900000Y-66042857D01*
X105871428Y-65957142D01*
X105871428Y-65900000D01*
X105900000Y-65814285D01*
X105928571Y-65785714D01*
X105928571Y-65557142D02*
X105900000Y-65528571D01*
X105871428Y-65471428D01*
X105871428Y-65328571D01*
X105900000Y-65271428D01*
X105928571Y-65242857D01*
X105985714Y-65214285D01*
X106042857Y-65214285D01*
X106128571Y-65242857D01*
X106471428Y-65585714D01*
X106471428Y-65214285D01*
X105871428Y-65014285D02*
X105871428Y-64642857D01*
X106100000Y-64842857D01*
X106100000Y-64757142D01*
X106128571Y-64700000D01*
X106157142Y-64671428D01*
X106214285Y-64642857D01*
X106357142Y-64642857D01*
X106414285Y-64671428D01*
X106442857Y-64700000D01*
X106471428Y-64757142D01*
X106471428Y-64928571D01*
X106442857Y-64985714D01*
X106414285Y-65014285D01*
X111414285Y-65985714D02*
X111442857Y-66014285D01*
X111471428Y-66100000D01*
X111471428Y-66157142D01*
X111442857Y-66242857D01*
X111385714Y-66300000D01*
X111328571Y-66328571D01*
X111214285Y-66357142D01*
X111128571Y-66357142D01*
X111014285Y-66328571D01*
X110957142Y-66300000D01*
X110900000Y-66242857D01*
X110871428Y-66157142D01*
X110871428Y-66100000D01*
X110900000Y-66014285D01*
X110928571Y-65985714D01*
X110928571Y-65757142D02*
X110900000Y-65728571D01*
X110871428Y-65671428D01*
X110871428Y-65528571D01*
X110900000Y-65471428D01*
X110928571Y-65442857D01*
X110985714Y-65414285D01*
X111042857Y-65414285D01*
X111128571Y-65442857D01*
X111471428Y-65785714D01*
X111471428Y-65414285D01*
X110928571Y-65185714D02*
X110900000Y-65157142D01*
X110871428Y-65100000D01*
X110871428Y-64957142D01*
X110900000Y-64900000D01*
X110928571Y-64871428D01*
X110985714Y-64842857D01*
X111042857Y-64842857D01*
X111128571Y-64871428D01*
X111471428Y-65214285D01*
X111471428Y-64842857D01*
X121235211Y-59057492D02*
X121206640Y-59086064D01*
X121120926Y-59114635D01*
X121063783Y-59114635D01*
X120978068Y-59086064D01*
X120920926Y-59028921D01*
X120892354Y-58971778D01*
X120863783Y-58857492D01*
X120863783Y-58771778D01*
X120892354Y-58657492D01*
X120920926Y-58600349D01*
X120978068Y-58543207D01*
X121063783Y-58514635D01*
X121120926Y-58514635D01*
X121206640Y-58543207D01*
X121235211Y-58571778D01*
X121463783Y-58571778D02*
X121492354Y-58543207D01*
X121549497Y-58514635D01*
X121692354Y-58514635D01*
X121749497Y-58543207D01*
X121778068Y-58571778D01*
X121806640Y-58628921D01*
X121806640Y-58686064D01*
X121778068Y-58771778D01*
X121435211Y-59114635D01*
X121806640Y-59114635D01*
X122178068Y-58514635D02*
X122235211Y-58514635D01*
X122292354Y-58543207D01*
X122320926Y-58571778D01*
X122349497Y-58628921D01*
X122378068Y-58743207D01*
X122378068Y-58886064D01*
X122349497Y-59000349D01*
X122320926Y-59057492D01*
X122292354Y-59086064D01*
X122235211Y-59114635D01*
X122178068Y-59114635D01*
X122120926Y-59086064D01*
X122092354Y-59057492D01*
X122063783Y-59000349D01*
X122035211Y-58886064D01*
X122035211Y-58743207D01*
X122063783Y-58628921D01*
X122092354Y-58571778D01*
X122120926Y-58543207D01*
X122178068Y-58514635D01*
X121235211Y-57757492D02*
X121206640Y-57786064D01*
X121120926Y-57814635D01*
X121063783Y-57814635D01*
X120978068Y-57786064D01*
X120920926Y-57728921D01*
X120892354Y-57671778D01*
X120863783Y-57557492D01*
X120863783Y-57471778D01*
X120892354Y-57357492D01*
X120920926Y-57300349D01*
X120978068Y-57243207D01*
X121063783Y-57214635D01*
X121120926Y-57214635D01*
X121206640Y-57243207D01*
X121235211Y-57271778D01*
X121806640Y-57814635D02*
X121463783Y-57814635D01*
X121635211Y-57814635D02*
X121635211Y-57214635D01*
X121578068Y-57300349D01*
X121520926Y-57357492D01*
X121463783Y-57386064D01*
X122092354Y-57814635D02*
X122206640Y-57814635D01*
X122263783Y-57786064D01*
X122292354Y-57757492D01*
X122349497Y-57671778D01*
X122378068Y-57557492D01*
X122378068Y-57328921D01*
X122349497Y-57271778D01*
X122320926Y-57243207D01*
X122263783Y-57214635D01*
X122149497Y-57214635D01*
X122092354Y-57243207D01*
X122063783Y-57271778D01*
X122035211Y-57328921D01*
X122035211Y-57471778D01*
X122063783Y-57528921D01*
X122092354Y-57557492D01*
X122149497Y-57586064D01*
X122263783Y-57586064D01*
X122320926Y-57557492D01*
X122349497Y-57528921D01*
X122378068Y-57471778D01*
X125782285Y-62234714D02*
X125810857Y-62263285D01*
X125839428Y-62349000D01*
X125839428Y-62406142D01*
X125810857Y-62491857D01*
X125753714Y-62549000D01*
X125696571Y-62577571D01*
X125582285Y-62606142D01*
X125496571Y-62606142D01*
X125382285Y-62577571D01*
X125325142Y-62549000D01*
X125268000Y-62491857D01*
X125239428Y-62406142D01*
X125239428Y-62349000D01*
X125268000Y-62263285D01*
X125296571Y-62234714D01*
X125839428Y-61663285D02*
X125839428Y-62006142D01*
X125839428Y-61834714D02*
X125239428Y-61834714D01*
X125325142Y-61891857D01*
X125382285Y-61949000D01*
X125410857Y-62006142D01*
X125496571Y-61320428D02*
X125468000Y-61377571D01*
X125439428Y-61406142D01*
X125382285Y-61434714D01*
X125353714Y-61434714D01*
X125296571Y-61406142D01*
X125268000Y-61377571D01*
X125239428Y-61320428D01*
X125239428Y-61206142D01*
X125268000Y-61149000D01*
X125296571Y-61120428D01*
X125353714Y-61091857D01*
X125382285Y-61091857D01*
X125439428Y-61120428D01*
X125468000Y-61149000D01*
X125496571Y-61206142D01*
X125496571Y-61320428D01*
X125525142Y-61377571D01*
X125553714Y-61406142D01*
X125610857Y-61434714D01*
X125725142Y-61434714D01*
X125782285Y-61406142D01*
X125810857Y-61377571D01*
X125839428Y-61320428D01*
X125839428Y-61206142D01*
X125810857Y-61149000D01*
X125782285Y-61120428D01*
X125725142Y-61091857D01*
X125610857Y-61091857D01*
X125553714Y-61120428D01*
X125525142Y-61149000D01*
X125496571Y-61206142D01*
X130226285Y-66053285D02*
X130197714Y-66081857D01*
X130112000Y-66110428D01*
X130054857Y-66110428D01*
X129969142Y-66081857D01*
X129912000Y-66024714D01*
X129883428Y-65967571D01*
X129854857Y-65853285D01*
X129854857Y-65767571D01*
X129883428Y-65653285D01*
X129912000Y-65596142D01*
X129969142Y-65539000D01*
X130054857Y-65510428D01*
X130112000Y-65510428D01*
X130197714Y-65539000D01*
X130226285Y-65567571D01*
X130797714Y-66110428D02*
X130454857Y-66110428D01*
X130626285Y-66110428D02*
X130626285Y-65510428D01*
X130569142Y-65596142D01*
X130512000Y-65653285D01*
X130454857Y-65681857D01*
X131312000Y-65510428D02*
X131197714Y-65510428D01*
X131140571Y-65539000D01*
X131112000Y-65567571D01*
X131054857Y-65653285D01*
X131026285Y-65767571D01*
X131026285Y-65996142D01*
X131054857Y-66053285D01*
X131083428Y-66081857D01*
X131140571Y-66110428D01*
X131254857Y-66110428D01*
X131312000Y-66081857D01*
X131340571Y-66053285D01*
X131369142Y-65996142D01*
X131369142Y-65853285D01*
X131340571Y-65796142D01*
X131312000Y-65767571D01*
X131254857Y-65739000D01*
X131140571Y-65739000D01*
X131083428Y-65767571D01*
X131054857Y-65796142D01*
X131026285Y-65853285D01*
X119014285Y-65985714D02*
X119042857Y-66014285D01*
X119071428Y-66100000D01*
X119071428Y-66157142D01*
X119042857Y-66242857D01*
X118985714Y-66300000D01*
X118928571Y-66328571D01*
X118814285Y-66357142D01*
X118728571Y-66357142D01*
X118614285Y-66328571D01*
X118557142Y-66300000D01*
X118500000Y-66242857D01*
X118471428Y-66157142D01*
X118471428Y-66100000D01*
X118500000Y-66014285D01*
X118528571Y-65985714D01*
X119071428Y-65414285D02*
X119071428Y-65757142D01*
X119071428Y-65585714D02*
X118471428Y-65585714D01*
X118557142Y-65642857D01*
X118614285Y-65700000D01*
X118642857Y-65757142D01*
X118471428Y-64871428D02*
X118471428Y-65157142D01*
X118757142Y-65185714D01*
X118728571Y-65157142D01*
X118700000Y-65100000D01*
X118700000Y-64957142D01*
X118728571Y-64900000D01*
X118757142Y-64871428D01*
X118814285Y-64842857D01*
X118957142Y-64842857D01*
X119014285Y-64871428D01*
X119042857Y-64900000D01*
X119071428Y-64957142D01*
X119071428Y-65100000D01*
X119042857Y-65157142D01*
X119014285Y-65185714D01*
X116614285Y-54900000D02*
X116642857Y-54928571D01*
X116671428Y-55014285D01*
X116671428Y-55071428D01*
X116642857Y-55157142D01*
X116585714Y-55214285D01*
X116528571Y-55242857D01*
X116414285Y-55271428D01*
X116328571Y-55271428D01*
X116214285Y-55242857D01*
X116157142Y-55214285D01*
X116100000Y-55157142D01*
X116071428Y-55071428D01*
X116071428Y-55014285D01*
X116100000Y-54928571D01*
X116128571Y-54900000D01*
X116671428Y-54328571D02*
X116671428Y-54671428D01*
X116671428Y-54500000D02*
X116071428Y-54500000D01*
X116157142Y-54557142D01*
X116214285Y-54614285D01*
X116242857Y-54671428D01*
X108214285Y-52214285D02*
X108185714Y-52242857D01*
X108100000Y-52271428D01*
X108042857Y-52271428D01*
X107957142Y-52242857D01*
X107900000Y-52185714D01*
X107871428Y-52128571D01*
X107842857Y-52014285D01*
X107842857Y-51928571D01*
X107871428Y-51814285D01*
X107900000Y-51757142D01*
X107957142Y-51700000D01*
X108042857Y-51671428D01*
X108100000Y-51671428D01*
X108185714Y-51700000D01*
X108214285Y-51728571D01*
X108785714Y-52271428D02*
X108442857Y-52271428D01*
X108614285Y-52271428D02*
X108614285Y-51671428D01*
X108557142Y-51757142D01*
X108500000Y-51814285D01*
X108442857Y-51842857D01*
X109014285Y-51728571D02*
X109042857Y-51700000D01*
X109100000Y-51671428D01*
X109242857Y-51671428D01*
X109300000Y-51700000D01*
X109328571Y-51728571D01*
X109357142Y-51785714D01*
X109357142Y-51842857D01*
X109328571Y-51928571D01*
X108985714Y-52271428D01*
X109357142Y-52271428D01*
X104614285Y-58785714D02*
X104642857Y-58814285D01*
X104671428Y-58900000D01*
X104671428Y-58957142D01*
X104642857Y-59042857D01*
X104585714Y-59100000D01*
X104528571Y-59128571D01*
X104414285Y-59157142D01*
X104328571Y-59157142D01*
X104214285Y-59128571D01*
X104157142Y-59100000D01*
X104100000Y-59042857D01*
X104071428Y-58957142D01*
X104071428Y-58900000D01*
X104100000Y-58814285D01*
X104128571Y-58785714D01*
X104128571Y-58557142D02*
X104100000Y-58528571D01*
X104071428Y-58471428D01*
X104071428Y-58328571D01*
X104100000Y-58271428D01*
X104128571Y-58242857D01*
X104185714Y-58214285D01*
X104242857Y-58214285D01*
X104328571Y-58242857D01*
X104671428Y-58585714D01*
X104671428Y-58214285D01*
X104071428Y-57700000D02*
X104071428Y-57814285D01*
X104100000Y-57871428D01*
X104128571Y-57900000D01*
X104214285Y-57957142D01*
X104328571Y-57985714D01*
X104557142Y-57985714D01*
X104614285Y-57957142D01*
X104642857Y-57928571D01*
X104671428Y-57871428D01*
X104671428Y-57757142D01*
X104642857Y-57700000D01*
X104614285Y-57671428D01*
X104557142Y-57642857D01*
X104414285Y-57642857D01*
X104357142Y-57671428D01*
X104328571Y-57700000D01*
X104300000Y-57757142D01*
X104300000Y-57871428D01*
X104328571Y-57928571D01*
X104357142Y-57957142D01*
X104414285Y-57985714D01*
X117414285Y-58185714D02*
X117442857Y-58214285D01*
X117471428Y-58300000D01*
X117471428Y-58357142D01*
X117442857Y-58442857D01*
X117385714Y-58500000D01*
X117328571Y-58528571D01*
X117214285Y-58557142D01*
X117128571Y-58557142D01*
X117014285Y-58528571D01*
X116957142Y-58500000D01*
X116900000Y-58442857D01*
X116871428Y-58357142D01*
X116871428Y-58300000D01*
X116900000Y-58214285D01*
X116928571Y-58185714D01*
X116928571Y-57957142D02*
X116900000Y-57928571D01*
X116871428Y-57871428D01*
X116871428Y-57728571D01*
X116900000Y-57671428D01*
X116928571Y-57642857D01*
X116985714Y-57614285D01*
X117042857Y-57614285D01*
X117128571Y-57642857D01*
X117471428Y-57985714D01*
X117471428Y-57614285D01*
X117471428Y-57042857D02*
X117471428Y-57385714D01*
X117471428Y-57214285D02*
X116871428Y-57214285D01*
X116957142Y-57271428D01*
X117014285Y-57328571D01*
X117042857Y-57385714D01*
X141271428Y-52800000D02*
X141700000Y-52800000D01*
X141785714Y-52828571D01*
X141842857Y-52885714D01*
X141871428Y-52971428D01*
X141871428Y-53028571D01*
X141471428Y-52257142D02*
X141871428Y-52257142D01*
X141242857Y-52400000D02*
X141671428Y-52542857D01*
X141671428Y-52171428D01*
X141471428Y-42400000D02*
X141900000Y-42400000D01*
X141985714Y-42428571D01*
X142042857Y-42485714D01*
X142071428Y-42571428D01*
X142071428Y-42628571D01*
X141471428Y-42171428D02*
X141471428Y-41800000D01*
X141700000Y-42000000D01*
X141700000Y-41914285D01*
X141728571Y-41857142D01*
X141757142Y-41828571D01*
X141814285Y-41800000D01*
X141957142Y-41800000D01*
X142014285Y-41828571D01*
X142042857Y-41857142D01*
X142071428Y-41914285D01*
X142071428Y-42085714D01*
X142042857Y-42142857D01*
X142014285Y-42171428D01*
X128157142Y-37271428D02*
X128157142Y-36671428D01*
X128385714Y-36671428D01*
X128442857Y-36700000D01*
X128471428Y-36728571D01*
X128500000Y-36785714D01*
X128500000Y-36871428D01*
X128471428Y-36928571D01*
X128442857Y-36957142D01*
X128385714Y-36985714D01*
X128157142Y-36985714D01*
X129071428Y-37271428D02*
X128728571Y-37271428D01*
X128900000Y-37271428D02*
X128900000Y-36671428D01*
X128842857Y-36757142D01*
X128785714Y-36814285D01*
X128728571Y-36842857D01*
X138471428Y-61800000D02*
X138900000Y-61800000D01*
X138985714Y-61828571D01*
X139042857Y-61885714D01*
X139071428Y-61971428D01*
X139071428Y-62028571D01*
X138528571Y-61542857D02*
X138500000Y-61514285D01*
X138471428Y-61457142D01*
X138471428Y-61314285D01*
X138500000Y-61257142D01*
X138528571Y-61228571D01*
X138585714Y-61200000D01*
X138642857Y-61200000D01*
X138728571Y-61228571D01*
X139071428Y-61571428D01*
X139071428Y-61200000D01*
X100357142Y-51271428D02*
X100357142Y-50671428D01*
X100500000Y-50671428D01*
X100585714Y-50700000D01*
X100642857Y-50757142D01*
X100671428Y-50814285D01*
X100700000Y-50928571D01*
X100700000Y-51014285D01*
X100671428Y-51128571D01*
X100642857Y-51185714D01*
X100585714Y-51242857D01*
X100500000Y-51271428D01*
X100357142Y-51271428D01*
X101271428Y-51271428D02*
X100928571Y-51271428D01*
X101100000Y-51271428D02*
X101100000Y-50671428D01*
X101042857Y-50757142D01*
X100985714Y-50814285D01*
X100928571Y-50842857D01*
X115471428Y-63293207D02*
X115471428Y-63578921D01*
X114871428Y-63578921D01*
X115471428Y-62778921D02*
X115471428Y-63121778D01*
X115471428Y-62950349D02*
X114871428Y-62950349D01*
X114957142Y-63007492D01*
X115014285Y-63064635D01*
X115042857Y-63121778D01*
X102871428Y-63100000D02*
X102871428Y-63385714D01*
X102271428Y-63385714D01*
X102328571Y-62928571D02*
X102300000Y-62900000D01*
X102271428Y-62842857D01*
X102271428Y-62700000D01*
X102300000Y-62642857D01*
X102328571Y-62614285D01*
X102385714Y-62585714D01*
X102442857Y-62585714D01*
X102528571Y-62614285D01*
X102871428Y-62957142D01*
X102871428Y-62585714D01*
X97557142Y-55271428D02*
X97557142Y-54671428D01*
X97700000Y-54671428D01*
X97785714Y-54700000D01*
X97842857Y-54757142D01*
X97871428Y-54814285D01*
X97900000Y-54928571D01*
X97900000Y-55014285D01*
X97871428Y-55128571D01*
X97842857Y-55185714D01*
X97785714Y-55242857D01*
X97700000Y-55271428D01*
X97557142Y-55271428D01*
X98100000Y-54671428D02*
X98471428Y-54671428D01*
X98271428Y-54900000D01*
X98357142Y-54900000D01*
X98414285Y-54928571D01*
X98442857Y-54957142D01*
X98471428Y-55014285D01*
X98471428Y-55157142D01*
X98442857Y-55214285D01*
X98414285Y-55242857D01*
X98357142Y-55271428D01*
X98185714Y-55271428D01*
X98128571Y-55242857D01*
X98100000Y-55214285D01*
X97557142Y-53471428D02*
X97557142Y-52871428D01*
X97700000Y-52871428D01*
X97785714Y-52900000D01*
X97842857Y-52957142D01*
X97871428Y-53014285D01*
X97900000Y-53128571D01*
X97900000Y-53214285D01*
X97871428Y-53328571D01*
X97842857Y-53385714D01*
X97785714Y-53442857D01*
X97700000Y-53471428D01*
X97557142Y-53471428D01*
X98128571Y-52928571D02*
X98157142Y-52900000D01*
X98214285Y-52871428D01*
X98357142Y-52871428D01*
X98414285Y-52900000D01*
X98442857Y-52928571D01*
X98471428Y-52985714D01*
X98471428Y-53042857D01*
X98442857Y-53128571D01*
X98100000Y-53471428D01*
X98471428Y-53471428D01*
X129608857Y-59471428D02*
X129608857Y-59957142D01*
X129637428Y-60014285D01*
X129666000Y-60042857D01*
X129723142Y-60071428D01*
X129837428Y-60071428D01*
X129894571Y-60042857D01*
X129923142Y-60014285D01*
X129951714Y-59957142D01*
X129951714Y-59471428D01*
X130208857Y-59528571D02*
X130237428Y-59500000D01*
X130294571Y-59471428D01*
X130437428Y-59471428D01*
X130494571Y-59500000D01*
X130523142Y-59528571D01*
X130551714Y-59585714D01*
X130551714Y-59642857D01*
X130523142Y-59728571D01*
X130180285Y-60071428D01*
X130551714Y-60071428D01*
X122671428Y-49657142D02*
X123157142Y-49657142D01*
X123214285Y-49628571D01*
X123242857Y-49600000D01*
X123271428Y-49542857D01*
X123271428Y-49428571D01*
X123242857Y-49371428D01*
X123214285Y-49342857D01*
X123157142Y-49314285D01*
X122671428Y-49314285D01*
X123271428Y-48714285D02*
X123271428Y-49057142D01*
X123271428Y-48885714D02*
X122671428Y-48885714D01*
X122757142Y-48942857D01*
X122814285Y-49000000D01*
X122842857Y-49057142D01*
X108471428Y-63457142D02*
X108957142Y-63457142D01*
X109014285Y-63428571D01*
X109042857Y-63400000D01*
X109071428Y-63342857D01*
X109071428Y-63228571D01*
X109042857Y-63171428D01*
X109014285Y-63142857D01*
X108957142Y-63114285D01*
X108471428Y-63114285D01*
X108671428Y-62571428D02*
X109071428Y-62571428D01*
X108442857Y-62714285D02*
X108871428Y-62857142D01*
X108871428Y-62485714D01*
X121071428Y-63657142D02*
X121557142Y-63657142D01*
X121614285Y-63628571D01*
X121642857Y-63600000D01*
X121671428Y-63542857D01*
X121671428Y-63428571D01*
X121642857Y-63371428D01*
X121614285Y-63342857D01*
X121557142Y-63314285D01*
X121071428Y-63314285D01*
X121071428Y-63085714D02*
X121071428Y-62714285D01*
X121300000Y-62914285D01*
X121300000Y-62828571D01*
X121328571Y-62771428D01*
X121357142Y-62742857D01*
X121414285Y-62714285D01*
X121557142Y-62714285D01*
X121614285Y-62742857D01*
X121642857Y-62771428D01*
X121671428Y-62828571D01*
X121671428Y-63000000D01*
X121642857Y-63057142D01*
X121614285Y-63085714D01*
X101471428Y-43128571D02*
X100871428Y-43128571D01*
X100871428Y-42985714D01*
X100900000Y-42900000D01*
X100957142Y-42842857D01*
X101014285Y-42814285D01*
X101128571Y-42785714D01*
X101214285Y-42785714D01*
X101328571Y-42814285D01*
X101385714Y-42842857D01*
X101442857Y-42900000D01*
X101471428Y-42985714D01*
X101471428Y-43128571D01*
X100871428Y-42585714D02*
X101471428Y-42442857D01*
X101042857Y-42328571D01*
X101471428Y-42214285D01*
X100871428Y-42071428D01*
X101471428Y-41842857D02*
X100871428Y-41842857D01*
X101300000Y-41642857D01*
X100871428Y-41442857D01*
X101471428Y-41442857D01*
X101471428Y-40842857D02*
X101471428Y-41185714D01*
X101471428Y-41014285D02*
X100871428Y-41014285D01*
X100957142Y-41071428D01*
X101014285Y-41128571D01*
X101042857Y-41185714D01*
X99300000Y-56671428D02*
X99100000Y-56385714D01*
X98957142Y-56671428D02*
X98957142Y-56071428D01*
X99185714Y-56071428D01*
X99242857Y-56100000D01*
X99271428Y-56128571D01*
X99300000Y-56185714D01*
X99300000Y-56271428D01*
X99271428Y-56328571D01*
X99242857Y-56357142D01*
X99185714Y-56385714D01*
X98957142Y-56385714D01*
X99500000Y-56071428D02*
X99871428Y-56071428D01*
X99671428Y-56300000D01*
X99757142Y-56300000D01*
X99814285Y-56328571D01*
X99842857Y-56357142D01*
X99871428Y-56414285D01*
X99871428Y-56557142D01*
X99842857Y-56614285D01*
X99814285Y-56642857D01*
X99757142Y-56671428D01*
X99585714Y-56671428D01*
X99528571Y-56642857D01*
X99500000Y-56614285D01*
X105671428Y-52500000D02*
X105385714Y-52700000D01*
X105671428Y-52842857D02*
X105071428Y-52842857D01*
X105071428Y-52614285D01*
X105100000Y-52557142D01*
X105128571Y-52528571D01*
X105185714Y-52500000D01*
X105271428Y-52500000D01*
X105328571Y-52528571D01*
X105357142Y-52557142D01*
X105385714Y-52614285D01*
X105385714Y-52842857D01*
X105271428Y-51985714D02*
X105671428Y-51985714D01*
X105042857Y-52128571D02*
X105471428Y-52271428D01*
X105471428Y-51900000D01*
X103405000Y-56271428D02*
X103205000Y-55985714D01*
X103062142Y-56271428D02*
X103062142Y-55671428D01*
X103290714Y-55671428D01*
X103347857Y-55700000D01*
X103376428Y-55728571D01*
X103405000Y-55785714D01*
X103405000Y-55871428D01*
X103376428Y-55928571D01*
X103347857Y-55957142D01*
X103290714Y-55985714D01*
X103062142Y-55985714D01*
X103947857Y-55671428D02*
X103662142Y-55671428D01*
X103633571Y-55957142D01*
X103662142Y-55928571D01*
X103719285Y-55900000D01*
X103862142Y-55900000D01*
X103919285Y-55928571D01*
X103947857Y-55957142D01*
X103976428Y-56014285D01*
X103976428Y-56157142D01*
X103947857Y-56214285D01*
X103919285Y-56242857D01*
X103862142Y-56271428D01*
X103719285Y-56271428D01*
X103662142Y-56242857D01*
X103633571Y-56214285D01*
X100900000Y-56671428D02*
X100700000Y-56385714D01*
X100557142Y-56671428D02*
X100557142Y-56071428D01*
X100785714Y-56071428D01*
X100842857Y-56100000D01*
X100871428Y-56128571D01*
X100900000Y-56185714D01*
X100900000Y-56271428D01*
X100871428Y-56328571D01*
X100842857Y-56357142D01*
X100785714Y-56385714D01*
X100557142Y-56385714D01*
X101414285Y-56071428D02*
X101300000Y-56071428D01*
X101242857Y-56100000D01*
X101214285Y-56128571D01*
X101157142Y-56214285D01*
X101128571Y-56328571D01*
X101128571Y-56557142D01*
X101157142Y-56614285D01*
X101185714Y-56642857D01*
X101242857Y-56671428D01*
X101357142Y-56671428D01*
X101414285Y-56642857D01*
X101442857Y-56614285D01*
X101471428Y-56557142D01*
X101471428Y-56414285D01*
X101442857Y-56357142D01*
X101414285Y-56328571D01*
X101357142Y-56300000D01*
X101242857Y-56300000D01*
X101185714Y-56328571D01*
X101157142Y-56357142D01*
X101128571Y-56414285D01*
X111071428Y-58700000D02*
X110785714Y-58900000D01*
X111071428Y-59042857D02*
X110471428Y-59042857D01*
X110471428Y-58814285D01*
X110500000Y-58757142D01*
X110528571Y-58728571D01*
X110585714Y-58700000D01*
X110671428Y-58700000D01*
X110728571Y-58728571D01*
X110757142Y-58757142D01*
X110785714Y-58814285D01*
X110785714Y-59042857D01*
X111071428Y-58128571D02*
X111071428Y-58471428D01*
X111071428Y-58300000D02*
X110471428Y-58300000D01*
X110557142Y-58357142D01*
X110614285Y-58414285D01*
X110642857Y-58471428D01*
X114471428Y-56700000D02*
X114185714Y-56900000D01*
X114471428Y-57042857D02*
X113871428Y-57042857D01*
X113871428Y-56814285D01*
X113900000Y-56757142D01*
X113928571Y-56728571D01*
X113985714Y-56700000D01*
X114071428Y-56700000D01*
X114128571Y-56728571D01*
X114157142Y-56757142D01*
X114185714Y-56814285D01*
X114185714Y-57042857D01*
X113928571Y-56471428D02*
X113900000Y-56442857D01*
X113871428Y-56385714D01*
X113871428Y-56242857D01*
X113900000Y-56185714D01*
X113928571Y-56157142D01*
X113985714Y-56128571D01*
X114042857Y-56128571D01*
X114128571Y-56157142D01*
X114471428Y-56500000D01*
X114471428Y-56128571D01*
%LPC*%
D14*
X127450000Y-39800000D03*
X124150000Y-39800000D03*
X124150000Y-41800000D03*
X127450000Y-41800000D03*
D15*
X108000000Y-56100000D03*
X108400000Y-56100000D03*
X108800000Y-56100000D03*
X109200000Y-56100000D03*
X109600000Y-56100000D03*
X110000000Y-56100000D03*
D16*
X110500000Y-55600000D03*
X110500000Y-55200000D03*
X110500000Y-54800000D03*
X110500000Y-54400000D03*
X110500000Y-54000000D03*
X110500000Y-53600000D03*
D15*
X110000000Y-53100000D03*
X109600000Y-53100000D03*
X109200000Y-53100000D03*
X108800000Y-53100000D03*
X108400000Y-53100000D03*
X108000000Y-53100000D03*
D16*
X107500000Y-53600000D03*
X107500000Y-54000000D03*
X107500000Y-54400000D03*
X107500000Y-54800000D03*
X107500000Y-55200000D03*
X107500000Y-55600000D03*
D17*
X112000000Y-53400000D03*
X112000000Y-51800000D03*
X112000000Y-54800000D03*
X112000000Y-56400000D03*
X106000000Y-55400000D03*
X106000000Y-53800000D03*
D18*
X131600000Y-50000000D03*
X130000000Y-50000000D03*
X130000000Y-48600000D03*
X131600000Y-48600000D03*
D19*
X134400000Y-52400000D03*
D20*
X134400000Y-50400000D03*
X134400000Y-48400000D03*
X134400000Y-46400000D03*
X134400000Y-44400000D03*
X134400000Y-42400000D03*
X134400000Y-40400000D03*
X134400000Y-38400000D03*
D18*
X133600000Y-34800000D03*
X135200000Y-34800000D03*
D21*
X91400000Y-64000000D03*
D18*
X108000000Y-57400000D03*
X109600000Y-57400000D03*
D17*
X124020926Y-63993207D03*
X124020926Y-62393207D03*
X130200000Y-46400000D03*
X130200000Y-44800000D03*
X127400000Y-56800000D03*
X127400000Y-58400000D03*
X115400000Y-46000000D03*
X115400000Y-47600000D03*
X129540000Y-41186000D03*
X129540000Y-39586000D03*
D18*
X115400000Y-52000000D03*
X113800000Y-52000000D03*
D17*
X125800000Y-58400000D03*
X125800000Y-56800000D03*
D18*
X120400000Y-39800000D03*
X118800000Y-39800000D03*
X118834000Y-41402000D03*
X120434000Y-41402000D03*
D17*
X116800000Y-41200000D03*
X116800000Y-39600000D03*
X122174000Y-39548000D03*
X122174000Y-41148000D03*
D18*
X109600000Y-59000000D03*
X108000000Y-59000000D03*
D17*
X106200000Y-63800000D03*
X106200000Y-62200000D03*
X111400000Y-62600000D03*
X111400000Y-64200000D03*
D18*
X122420926Y-57393207D03*
X120820926Y-57393207D03*
X122420926Y-58993207D03*
X120820926Y-58993207D03*
D17*
X127018000Y-62649000D03*
X127018000Y-61049000D03*
D18*
X131412000Y-64389000D03*
X129812000Y-64389000D03*
D17*
X118820926Y-62393207D03*
X118820926Y-63993207D03*
X115200000Y-55000000D03*
X115200000Y-53400000D03*
D18*
X107800000Y-51000000D03*
X109400000Y-51000000D03*
D22*
X105880000Y-58400000D03*
X102920000Y-58400000D03*
X115740926Y-58393207D03*
X118700926Y-58393207D03*
D20*
X140000000Y-46400000D03*
X140000000Y-48400000D03*
X140000000Y-50400000D03*
D19*
X140000000Y-52400000D03*
X140000000Y-41800000D03*
D20*
X140000000Y-39800000D03*
X140000000Y-37800000D03*
X140000000Y-35800000D03*
D23*
X118000000Y-35306000D03*
D24*
X120000000Y-35306000D03*
X122000000Y-35306000D03*
X124000000Y-35306000D03*
X126000000Y-35306000D03*
X128000000Y-35306000D03*
D25*
X135600000Y-63200000D03*
X135600000Y-62400000D03*
X135600000Y-61600000D03*
X135600000Y-60800000D03*
X135600000Y-60000000D03*
D26*
X135700000Y-66050000D03*
X141150000Y-66050000D03*
X135700000Y-57150000D03*
X141150000Y-57150000D03*
D27*
X138300000Y-63800000D03*
X138300000Y-59400000D03*
D28*
X103823000Y-51200000D03*
X102063000Y-51200000D03*
D29*
X115220926Y-61393207D03*
X115220926Y-64993207D03*
X102600000Y-64800000D03*
X102600000Y-61200000D03*
D18*
X101257000Y-55000000D03*
X99657000Y-55000000D03*
X99657000Y-53200000D03*
X101257000Y-53200000D03*
D30*
X128516000Y-60874000D03*
X128516000Y-61524000D03*
X128516000Y-62174000D03*
X128516000Y-62824000D03*
X131616000Y-62824000D03*
X131616000Y-62174000D03*
X131616000Y-61524000D03*
X131616000Y-60874000D03*
D31*
X130066000Y-61849000D03*
D32*
X126432000Y-43830000D03*
X125932000Y-43830000D03*
X125432000Y-43830000D03*
X124932000Y-43830000D03*
X124432000Y-43830000D03*
X123932000Y-43830000D03*
X123432000Y-43830000D03*
X122932000Y-43830000D03*
X122432000Y-43830000D03*
X121932000Y-43830000D03*
X121432000Y-43830000D03*
X120932000Y-43830000D03*
X120432000Y-43830000D03*
X119932000Y-43830000D03*
X119432000Y-43830000D03*
X118932000Y-43830000D03*
D33*
X116982000Y-45780000D03*
X116982000Y-46280000D03*
X116982000Y-46780000D03*
X116982000Y-47280000D03*
X116982000Y-47780000D03*
X116982000Y-48280000D03*
X116982000Y-48780000D03*
X116982000Y-49280000D03*
X116982000Y-49780000D03*
X116982000Y-50280000D03*
X116982000Y-50780000D03*
X116982000Y-51280000D03*
X116982000Y-51780000D03*
X116982000Y-52280000D03*
X116982000Y-52780000D03*
X116982000Y-53280000D03*
D32*
X118932000Y-55230000D03*
X119432000Y-55230000D03*
X119932000Y-55230000D03*
X120432000Y-55230000D03*
X120932000Y-55230000D03*
X121432000Y-55230000D03*
X121932000Y-55230000D03*
X122432000Y-55230000D03*
X122932000Y-55230000D03*
X123432000Y-55230000D03*
X123932000Y-55230000D03*
X124432000Y-55230000D03*
X124932000Y-55230000D03*
X125432000Y-55230000D03*
X125932000Y-55230000D03*
X126432000Y-55230000D03*
D33*
X128382000Y-53280000D03*
X128382000Y-52780000D03*
X128382000Y-52280000D03*
X128382000Y-51780000D03*
X128382000Y-51280000D03*
X128382000Y-50780000D03*
X128382000Y-50280000D03*
X128382000Y-49780000D03*
X128382000Y-49280000D03*
X128382000Y-48780000D03*
X128382000Y-48280000D03*
X128382000Y-47780000D03*
X128382000Y-47280000D03*
X128382000Y-46780000D03*
X128382000Y-46280000D03*
X128382000Y-45780000D03*
D34*
X107825000Y-60897000D03*
X108475000Y-60897000D03*
X109125000Y-60897000D03*
X109775000Y-60897000D03*
X109775000Y-65297000D03*
X109125000Y-65297000D03*
X108475000Y-65297000D03*
X107825000Y-65297000D03*
X120480426Y-65338826D03*
X121130426Y-65338826D03*
X121780426Y-65338826D03*
X122430426Y-65338826D03*
X122430426Y-60938826D03*
X121780426Y-60938826D03*
X121130426Y-60938826D03*
X120480426Y-60938826D03*
D35*
X99223200Y-48601000D03*
X100623200Y-48601000D03*
X102023200Y-48601000D03*
X103423200Y-48601000D03*
X104823200Y-48601000D03*
X106223200Y-48601000D03*
X107623200Y-48601000D03*
X109023200Y-48601000D03*
D36*
X111318200Y-47201000D03*
X111318200Y-45801000D03*
X111318200Y-44401000D03*
X111318200Y-43001000D03*
X111318200Y-41601000D03*
X111318200Y-40201000D03*
X111318200Y-38801000D03*
X111318200Y-37401000D03*
D35*
X109022000Y-36001000D03*
X107622000Y-36001000D03*
X106223200Y-36001000D03*
X104823200Y-36001000D03*
X103423200Y-36001000D03*
X102023200Y-36001000D03*
X100623200Y-36001000D03*
X99223200Y-36001000D03*
D17*
X99400000Y-57600000D03*
X99400000Y-59200000D03*
D18*
X104305000Y-53200000D03*
X102705000Y-53200000D03*
X102705000Y-55000000D03*
X104305000Y-55000000D03*
D17*
X101000000Y-57600000D03*
X101000000Y-59200000D03*
X112000000Y-57800000D03*
X112000000Y-59400000D03*
X113793207Y-57779074D03*
X113793207Y-59379074D03*
M02*
