G04 #@! TF.GenerationSoftware,KiCad,Pcbnew,5.0.0-rc2-dev-unknown-bf135b0~64~ubuntu16.04.1*
G04 #@! TF.CreationDate,2018-05-07T12:38:37+02:00*
G04 #@! TF.ProjectId,uwb_pcb,7577625F7063622E6B696361645F7063,rev?*
G04 #@! TF.SameCoordinates,Original*
G04 #@! TF.FileFunction,Soldermask,Top*
G04 #@! TF.FilePolarity,Negative*
%FSLAX46Y46*%
G04 Gerber Fmt 4.6, Leading zero omitted, Abs format (unit mm)*
G04 Created by KiCad (PCBNEW 5.0.0-rc2-dev-unknown-bf135b0~64~ubuntu16.04.1) date Mon May  7 12:38:37 2018*
%MOMM*%
%LPD*%
G01*
G04 APERTURE LIST*
%ADD10R,1.700000X1.400000*%
%ADD11O,0.300000X0.650000*%
%ADD12O,0.650000X0.300000*%
%ADD13R,1.100000X0.920000*%
%ADD14R,0.920000X1.100000*%
%ADD15R,1.850000X1.300000*%
%ADD16O,1.850000X1.300000*%
%ADD17C,3.300000*%
%ADD18R,1.560000X2.500000*%
%ADD19R,1.300000X1.850000*%
%ADD20O,1.300000X1.850000*%
%ADD21R,2.100000X0.600000*%
%ADD22R,1.800000X2.100000*%
%ADD23C,1.100000*%
%ADD24R,1.220000X1.500000*%
%ADD25R,4.300000X1.600000*%
%ADD26R,0.750000X0.450000*%
%ADD27R,1.650000X2.500000*%
%ADD28R,0.350000X1.100000*%
%ADD29R,1.100000X0.350000*%
%ADD30R,0.550000X1.550000*%
%ADD31R,1.100000X2.550000*%
%ADD32R,2.550000X1.100000*%
G04 APERTURE END LIST*
D10*
X127450000Y-39800000D03*
X124150000Y-39800000D03*
X124150000Y-41800000D03*
X127450000Y-41800000D03*
D11*
X108000000Y-56100000D03*
X108400000Y-56100000D03*
X108800000Y-56100000D03*
X109200000Y-56100000D03*
X109600000Y-56100000D03*
X110000000Y-56100000D03*
D12*
X110500000Y-55600000D03*
X110500000Y-55200000D03*
X110500000Y-54800000D03*
X110500000Y-54400000D03*
X110500000Y-54000000D03*
X110500000Y-53600000D03*
D11*
X110000000Y-53100000D03*
X109600000Y-53100000D03*
X109200000Y-53100000D03*
X108800000Y-53100000D03*
X108400000Y-53100000D03*
X108000000Y-53100000D03*
D12*
X107500000Y-53600000D03*
X107500000Y-54000000D03*
X107500000Y-54400000D03*
X107500000Y-54800000D03*
X107500000Y-55200000D03*
X107500000Y-55600000D03*
D13*
X112000000Y-53400000D03*
X112000000Y-51800000D03*
X112000000Y-54800000D03*
X112000000Y-56400000D03*
X106000000Y-55400000D03*
X106000000Y-53800000D03*
D14*
X131600000Y-50000000D03*
X130000000Y-50000000D03*
X130000000Y-48600000D03*
X131600000Y-48600000D03*
D15*
X134400000Y-52400000D03*
D16*
X134400000Y-50400000D03*
X134400000Y-48400000D03*
X134400000Y-46400000D03*
X134400000Y-44400000D03*
X134400000Y-42400000D03*
X134400000Y-40400000D03*
X134400000Y-38400000D03*
D14*
X133600000Y-34800000D03*
X135200000Y-34800000D03*
D17*
X91400000Y-64000000D03*
D14*
X108000000Y-57400000D03*
X109600000Y-57400000D03*
D13*
X124020926Y-63993207D03*
X124020926Y-62393207D03*
X130200000Y-46400000D03*
X130200000Y-44800000D03*
X127400000Y-56800000D03*
X127400000Y-58400000D03*
X115400000Y-46000000D03*
X115400000Y-47600000D03*
X129540000Y-41186000D03*
X129540000Y-39586000D03*
D14*
X115400000Y-52000000D03*
X113800000Y-52000000D03*
D13*
X125800000Y-58400000D03*
X125800000Y-56800000D03*
D14*
X120400000Y-39800000D03*
X118800000Y-39800000D03*
X118834000Y-41402000D03*
X120434000Y-41402000D03*
D13*
X116800000Y-41200000D03*
X116800000Y-39600000D03*
X122174000Y-39548000D03*
X122174000Y-41148000D03*
D14*
X109600000Y-59000000D03*
X108000000Y-59000000D03*
D13*
X106200000Y-63800000D03*
X106200000Y-62200000D03*
X111400000Y-62600000D03*
X111400000Y-64200000D03*
D14*
X122420926Y-57393207D03*
X120820926Y-57393207D03*
X122420926Y-58993207D03*
X120820926Y-58993207D03*
D13*
X127018000Y-62649000D03*
X127018000Y-61049000D03*
D14*
X131412000Y-64389000D03*
X129812000Y-64389000D03*
D13*
X118820926Y-62393207D03*
X118820926Y-63993207D03*
X115200000Y-55000000D03*
X115200000Y-53400000D03*
D14*
X107800000Y-51000000D03*
X109400000Y-51000000D03*
D18*
X105880000Y-58400000D03*
X102920000Y-58400000D03*
X115740926Y-58393207D03*
X118700926Y-58393207D03*
D16*
X140000000Y-46400000D03*
X140000000Y-48400000D03*
X140000000Y-50400000D03*
D15*
X140000000Y-52400000D03*
X140000000Y-41800000D03*
D16*
X140000000Y-39800000D03*
X140000000Y-37800000D03*
X140000000Y-35800000D03*
D19*
X118000000Y-35306000D03*
D20*
X120000000Y-35306000D03*
X122000000Y-35306000D03*
X124000000Y-35306000D03*
X126000000Y-35306000D03*
X128000000Y-35306000D03*
D21*
X135600000Y-63200000D03*
X135600000Y-62400000D03*
X135600000Y-61600000D03*
X135600000Y-60800000D03*
X135600000Y-60000000D03*
D22*
X135700000Y-66050000D03*
X141150000Y-66050000D03*
X135700000Y-57150000D03*
X141150000Y-57150000D03*
D23*
X138300000Y-63800000D03*
X138300000Y-59400000D03*
D24*
X103823000Y-51200000D03*
X102063000Y-51200000D03*
D25*
X115220926Y-61393207D03*
X115220926Y-64993207D03*
X102600000Y-64800000D03*
X102600000Y-61200000D03*
D14*
X101257000Y-55000000D03*
X99657000Y-55000000D03*
X99657000Y-53200000D03*
X101257000Y-53200000D03*
D26*
X128516000Y-60874000D03*
X128516000Y-61524000D03*
X128516000Y-62174000D03*
X128516000Y-62824000D03*
X131616000Y-62824000D03*
X131616000Y-62174000D03*
X131616000Y-61524000D03*
X131616000Y-60874000D03*
D27*
X130066000Y-61849000D03*
D28*
X126432000Y-43830000D03*
X125932000Y-43830000D03*
X125432000Y-43830000D03*
X124932000Y-43830000D03*
X124432000Y-43830000D03*
X123932000Y-43830000D03*
X123432000Y-43830000D03*
X122932000Y-43830000D03*
X122432000Y-43830000D03*
X121932000Y-43830000D03*
X121432000Y-43830000D03*
X120932000Y-43830000D03*
X120432000Y-43830000D03*
X119932000Y-43830000D03*
X119432000Y-43830000D03*
X118932000Y-43830000D03*
D29*
X116982000Y-45780000D03*
X116982000Y-46280000D03*
X116982000Y-46780000D03*
X116982000Y-47280000D03*
X116982000Y-47780000D03*
X116982000Y-48280000D03*
X116982000Y-48780000D03*
X116982000Y-49280000D03*
X116982000Y-49780000D03*
X116982000Y-50280000D03*
X116982000Y-50780000D03*
X116982000Y-51280000D03*
X116982000Y-51780000D03*
X116982000Y-52280000D03*
X116982000Y-52780000D03*
X116982000Y-53280000D03*
D28*
X118932000Y-55230000D03*
X119432000Y-55230000D03*
X119932000Y-55230000D03*
X120432000Y-55230000D03*
X120932000Y-55230000D03*
X121432000Y-55230000D03*
X121932000Y-55230000D03*
X122432000Y-55230000D03*
X122932000Y-55230000D03*
X123432000Y-55230000D03*
X123932000Y-55230000D03*
X124432000Y-55230000D03*
X124932000Y-55230000D03*
X125432000Y-55230000D03*
X125932000Y-55230000D03*
X126432000Y-55230000D03*
D29*
X128382000Y-53280000D03*
X128382000Y-52780000D03*
X128382000Y-52280000D03*
X128382000Y-51780000D03*
X128382000Y-51280000D03*
X128382000Y-50780000D03*
X128382000Y-50280000D03*
X128382000Y-49780000D03*
X128382000Y-49280000D03*
X128382000Y-48780000D03*
X128382000Y-48280000D03*
X128382000Y-47780000D03*
X128382000Y-47280000D03*
X128382000Y-46780000D03*
X128382000Y-46280000D03*
X128382000Y-45780000D03*
D30*
X107825000Y-60897000D03*
X108475000Y-60897000D03*
X109125000Y-60897000D03*
X109775000Y-60897000D03*
X109775000Y-65297000D03*
X109125000Y-65297000D03*
X108475000Y-65297000D03*
X107825000Y-65297000D03*
X120480426Y-65338826D03*
X121130426Y-65338826D03*
X121780426Y-65338826D03*
X122430426Y-65338826D03*
X122430426Y-60938826D03*
X121780426Y-60938826D03*
X121130426Y-60938826D03*
X120480426Y-60938826D03*
D31*
X99223200Y-48601000D03*
X100623200Y-48601000D03*
X102023200Y-48601000D03*
X103423200Y-48601000D03*
X104823200Y-48601000D03*
X106223200Y-48601000D03*
X107623200Y-48601000D03*
X109023200Y-48601000D03*
D32*
X111318200Y-47201000D03*
X111318200Y-45801000D03*
X111318200Y-44401000D03*
X111318200Y-43001000D03*
X111318200Y-41601000D03*
X111318200Y-40201000D03*
X111318200Y-38801000D03*
X111318200Y-37401000D03*
D31*
X109022000Y-36001000D03*
X107622000Y-36001000D03*
X106223200Y-36001000D03*
X104823200Y-36001000D03*
X103423200Y-36001000D03*
X102023200Y-36001000D03*
X100623200Y-36001000D03*
X99223200Y-36001000D03*
D13*
X99400000Y-57600000D03*
X99400000Y-59200000D03*
D14*
X104305000Y-53200000D03*
X102705000Y-53200000D03*
X102705000Y-55000000D03*
X104305000Y-55000000D03*
D13*
X101000000Y-57600000D03*
X101000000Y-59200000D03*
X112000000Y-57800000D03*
X112000000Y-59400000D03*
X113793207Y-57779074D03*
X113793207Y-59379074D03*
M02*
