M48
METRIC,TZ
T1C0.300
T2C0.750
%
G90
G05
T1
X99.4Y-46.6
X101.481Y-63.57
X102.Y-37.8
X102.8Y-56.6
X103.6Y-38.4
X103.6Y-44.
X104.Y-58.2
X105.237Y-40.812
X105.4Y-50.8
X106.Y-37.8
X106.025Y-40.793
X106.4Y-56.4
X106.6Y-51.
X106.8Y-60.8
X107.33Y-41.52
X107.4Y-56.4
X107.6Y-37.8
X108.Y-43.8
X108.014Y-41.894
X108.754Y-42.24
X108.8Y-44.4
X109.066Y-43.172
X109.596Y-42.6
X110.4Y-50.6
X110.6Y-58.
X110.8Y-60.8
X111.6Y-65.4
X112.8Y-48.8
X113.Y-35.77
X113.529Y-36.998
X113.663Y-50.97
X114.Y-63.6
X114.2Y-36.318
X115.703Y-38.503
X116.4Y-42.6
X116.8Y-55.6
X117.003Y-44.197
X117.2Y-58.8
X117.6Y-42.6
X118.252Y-43.492
X118.53Y-47.588
X118.8Y-48.4
X119.2Y-61.
X119.8Y-45.
X120.167Y-54.003
X120.6Y-37.
X120.77Y-47.8
X120.945Y-53.916
X121.Y-50.
X121.6Y-46.6
X121.724Y-53.879
X122.Y-50.
X122.2Y-42.6
X122.4Y-46.4
X122.434Y-54.202
X122.751Y-45.633
X122.8Y-37.6
X123.097Y-49.07
X123.4Y-45.2
X123.4Y-60.8
X123.6Y-51.6
X123.944Y-37.698
X124.4Y-52.
X124.4Y-53.886
X124.6Y-57.2
X124.652Y-37.37
X125.171Y-53.765
X125.2Y-64.
X125.8Y-63.2
X125.826Y-52.772
X126.Y-54.
X126.Y-59.6
X126.6Y-38.6
X126.8Y-37.37
X126.999Y-47.175
X127.289Y-46.393
X127.4Y-59.8
X128.Y-36.8
X128.Y-37.6
X128.8Y-42.8
X129.8Y-65.6
X130.Y-57.8
X130.8Y-37.
X131.025Y-59.375
X131.4Y-46.4
X131.6Y-58.8
X131.652Y-59.839
X131.8Y-56.
X132.4Y-57.6
X132.8Y-54.
X133.4Y-63.8
X133.8Y-54.
X136.Y-38.8
X137.6Y-61.4
X137.6Y-62.2
X140.6Y-59.2
T2
X140.Y-46.4
X140.Y-48.4
X140.Y-50.4
X140.Y-52.4
X140.Y-35.8
X140.Y-37.8
X140.Y-39.8
X140.Y-41.8
X134.4Y-38.4
X134.4Y-40.4
X134.4Y-42.4
X134.4Y-44.4
X134.4Y-46.4
X134.4Y-48.4
X134.4Y-50.4
X134.4Y-52.4
X118.Y-35.306
X120.Y-35.306
X122.Y-35.306
X124.Y-35.306
X126.Y-35.306
X128.Y-35.306
T0
M30
