G04 #@! TF.GenerationSoftware,KiCad,Pcbnew,5.0.0-rc2-dev-unknown-bf135b0~64~ubuntu16.04.1*
G04 #@! TF.CreationDate,2018-05-07T12:38:37+02:00*
G04 #@! TF.ProjectId,uwb_pcb,7577625F7063622E6B696361645F7063,rev?*
G04 #@! TF.SameCoordinates,Original*
G04 #@! TF.FileFunction,Copper,L2,Bot,Signal*
G04 #@! TF.FilePolarity,Positive*
%FSLAX46Y46*%
G04 Gerber Fmt 4.6, Leading zero omitted, Abs format (unit mm)*
G04 Created by KiCad (PCBNEW 5.0.0-rc2-dev-unknown-bf135b0~64~ubuntu16.04.1) date Mon May  7 12:38:37 2018*
%MOMM*%
%LPD*%
G01*
G04 APERTURE LIST*
%ADD10R,1.750000X1.200000*%
%ADD11O,1.750000X1.200000*%
%ADD12R,1.200000X1.750000*%
%ADD13O,1.200000X1.750000*%
%ADD14C,0.600000*%
%ADD15C,0.400000*%
%ADD16C,0.500000*%
%ADD17C,0.180000*%
%ADD18C,0.250000*%
%ADD19C,0.254000*%
G04 APERTURE END LIST*
D10*
X134400000Y-52400000D03*
D11*
X134400000Y-50400000D03*
X134400000Y-48400000D03*
X134400000Y-46400000D03*
X134400000Y-44400000D03*
X134400000Y-42400000D03*
X134400000Y-40400000D03*
X134400000Y-38400000D03*
X140000000Y-46400000D03*
X140000000Y-48400000D03*
X140000000Y-50400000D03*
D10*
X140000000Y-52400000D03*
X140000000Y-41800000D03*
D11*
X140000000Y-39800000D03*
X140000000Y-37800000D03*
X140000000Y-35800000D03*
D12*
X118000000Y-35306000D03*
D13*
X120000000Y-35306000D03*
X122000000Y-35306000D03*
X124000000Y-35306000D03*
X126000000Y-35306000D03*
X128000000Y-35306000D03*
D14*
X106800000Y-60800000D03*
X110800000Y-60800000D03*
X119200000Y-61000000D03*
X123400000Y-60800000D03*
X103600000Y-38400000D03*
X140600000Y-59200000D03*
X129800000Y-65600000D03*
X124600000Y-57200000D03*
X113529455Y-36998482D03*
X116800000Y-55600000D03*
X115703058Y-38503058D03*
X110400000Y-50600000D03*
X113662835Y-50970010D03*
X123096942Y-49069979D03*
X128800000Y-42800000D03*
X126600000Y-38600000D03*
X111600000Y-65400000D03*
X114000000Y-63600000D03*
X133400000Y-63800000D03*
X127400000Y-59800000D03*
X117200000Y-58800000D03*
X102800000Y-56600000D03*
X106600000Y-51000000D03*
X101481004Y-63570010D03*
X131800000Y-56000000D03*
X132400000Y-57600000D03*
X110600000Y-58000000D03*
X104000000Y-58200000D03*
X99400000Y-46600000D03*
X123400000Y-45200000D03*
X117600000Y-42600000D03*
X106024900Y-40793250D03*
X103600000Y-44000000D03*
X122750991Y-45632672D03*
X122400000Y-46400000D03*
X108000000Y-43800000D03*
X121600000Y-46600000D03*
X108800000Y-44400000D03*
X112800000Y-48800000D03*
X109065828Y-43171845D03*
X109596426Y-42600107D03*
X120167336Y-54003130D03*
X108754325Y-42240097D03*
X120944718Y-53916475D03*
X108014335Y-41894005D03*
X121723818Y-53878779D03*
X118529989Y-47588212D03*
X107329795Y-41520075D03*
X107600000Y-37799966D03*
X114200227Y-36318474D03*
X106000000Y-37800000D03*
X113000000Y-35770010D03*
X118800000Y-48400000D03*
X105237471Y-40811937D03*
X102000000Y-37800000D03*
X120770010Y-47800000D03*
X125200000Y-64000000D03*
X122200000Y-42599994D03*
X119800000Y-45000000D03*
X128000000Y-37600000D03*
X123943744Y-37697591D03*
X126800000Y-37370010D03*
X124651635Y-37370010D03*
X118252205Y-43491994D03*
X130800000Y-37000000D03*
X128000000Y-36800000D03*
X122800000Y-37600000D03*
X120600000Y-37000000D03*
X116400000Y-42600000D03*
X117003058Y-44196942D03*
X123600000Y-51600021D03*
X124400000Y-52000000D03*
X125825840Y-52771914D03*
X105400000Y-50800000D03*
X122433845Y-54201705D03*
X137600000Y-62200000D03*
X124400021Y-53886200D03*
X137600000Y-61400000D03*
X125170609Y-53765318D03*
X126000000Y-54000000D03*
X131400000Y-46399990D03*
X130000000Y-57800000D03*
X126000000Y-59600000D03*
X125800000Y-63200000D03*
X126999300Y-47174990D03*
X131025327Y-59374673D03*
X127289435Y-46392652D03*
X132800000Y-54000000D03*
X131600000Y-58800000D03*
X136000000Y-38800000D03*
X133800000Y-54000000D03*
X131652297Y-59838706D03*
X107400000Y-56400000D03*
X121000000Y-50000000D03*
X122000000Y-50000000D03*
X106400000Y-56400000D03*
D15*
X106800000Y-60800000D02*
X110800000Y-60800000D01*
X119200000Y-61000000D02*
X123200000Y-61000000D01*
X123200000Y-61000000D02*
X123400000Y-60800000D01*
X104024264Y-38400000D02*
X104297472Y-38673208D01*
X104297472Y-38673208D02*
X111854729Y-38673208D01*
X111854729Y-38673208D02*
X113229456Y-37298481D01*
X113229456Y-37298481D02*
X113529455Y-36998482D01*
X103600000Y-38400000D02*
X104024264Y-38400000D01*
D16*
X140600000Y-59200000D02*
X140600000Y-64600000D01*
X140600000Y-64600000D02*
X139000000Y-66200000D01*
X139000000Y-66200000D02*
X130400000Y-66200000D01*
X130400000Y-66200000D02*
X129800000Y-65600000D01*
D17*
X119200000Y-61000000D02*
X119200000Y-58000000D01*
X119200000Y-58000000D02*
X116800000Y-55600000D01*
D15*
X110800000Y-60800000D02*
X113000000Y-60800000D01*
X117200000Y-57600000D02*
X119200000Y-59600000D01*
X119200000Y-59600000D02*
X119200000Y-61000000D01*
X116200000Y-57600000D02*
X117200000Y-57600000D01*
X113000000Y-60800000D02*
X116200000Y-57600000D01*
X124600000Y-59600000D02*
X124600000Y-57200000D01*
X123400000Y-60800000D02*
X124600000Y-59600000D01*
D16*
X129500001Y-65300001D02*
X124500001Y-65300001D01*
X129800000Y-65600000D02*
X129500001Y-65300001D01*
X123400000Y-64200000D02*
X123400000Y-60800000D01*
X124500001Y-65300001D02*
X123400000Y-64200000D01*
X135775000Y-52400000D02*
X140000000Y-52400000D01*
X134400000Y-52400000D02*
X135775000Y-52400000D01*
D15*
X115403059Y-38203059D02*
X115703058Y-38503058D01*
X113529455Y-36998482D02*
X114198482Y-36998482D01*
X114198482Y-36998482D02*
X115403059Y-38203059D01*
D18*
X113362836Y-50670011D02*
X113662835Y-50970010D01*
X113292825Y-50600000D02*
X113362836Y-50670011D01*
X110400000Y-50600000D02*
X113292825Y-50600000D01*
X122595011Y-50300391D02*
X123096942Y-49798460D01*
X123795011Y-56395011D02*
X123795011Y-53236382D01*
X123096942Y-49494243D02*
X123096942Y-49069979D01*
X123096942Y-49798460D02*
X123096942Y-49494243D01*
X123795011Y-53236382D02*
X122595011Y-52036382D01*
X124600000Y-57200000D02*
X123795011Y-56395011D01*
X122595011Y-52036382D02*
X122595011Y-50300391D01*
D17*
X128800000Y-40800000D02*
X126600000Y-38600000D01*
X128800000Y-42800000D02*
X128800000Y-40800000D01*
D15*
X112200000Y-65400000D02*
X114000000Y-63600000D01*
X111600000Y-65400000D02*
X112200000Y-65400000D01*
D16*
X133400000Y-63800000D02*
X129400000Y-59800000D01*
X129400000Y-59800000D02*
X127400000Y-59800000D01*
D15*
X114000000Y-62000000D02*
X114000000Y-63600000D01*
X117200000Y-58800000D02*
X114000000Y-62000000D01*
X141600000Y-37125000D02*
X140275000Y-35800000D01*
X141600000Y-42800000D02*
X141600000Y-37125000D01*
X140000000Y-48400000D02*
X138725000Y-48400000D01*
X138400000Y-48075000D02*
X138400000Y-46000000D01*
X140275000Y-35800000D02*
X140000000Y-35800000D01*
X138725000Y-48400000D02*
X138400000Y-48075000D01*
X138400000Y-46000000D02*
X141600000Y-42800000D01*
D16*
X102800000Y-54800000D02*
X106600000Y-51000000D01*
X102800000Y-56600000D02*
X102800000Y-54800000D01*
X102800000Y-62251014D02*
X101781003Y-63270011D01*
X102800000Y-56600000D02*
X102800000Y-62251014D01*
X101781003Y-63270011D02*
X101481004Y-63570010D01*
X138800000Y-50400000D02*
X140000000Y-50400000D01*
X137200000Y-48800000D02*
X138800000Y-50400000D01*
X137200000Y-41200000D02*
X137200000Y-48800000D01*
X134400000Y-38400000D02*
X137200000Y-41200000D01*
D18*
X131800000Y-56000000D02*
X131800000Y-57000000D01*
X131800000Y-57000000D02*
X132400000Y-57600000D01*
D15*
X110600000Y-58000000D02*
X110200000Y-58400000D01*
X104200000Y-58400000D02*
X104000000Y-58200000D01*
X110200000Y-58400000D02*
X104200000Y-58400000D01*
D17*
X117343217Y-39143217D02*
X123100001Y-44900001D01*
X104456783Y-39143217D02*
X117343217Y-39143217D01*
X99400000Y-44200000D02*
X104456783Y-39143217D01*
X123100001Y-44900001D02*
X123400000Y-45200000D01*
X99400000Y-46600000D02*
X99400000Y-44200000D01*
X106449164Y-40793250D02*
X106024900Y-40793250D01*
X115590055Y-40590055D02*
X106652359Y-40590055D01*
X106652359Y-40590055D02*
X106449164Y-40793250D01*
X117600000Y-42600000D02*
X115590055Y-40590055D01*
X106603541Y-39510023D02*
X117052606Y-39510023D01*
X122750991Y-45208408D02*
X122750991Y-45632672D01*
X103600000Y-44000000D02*
X103600000Y-40509132D01*
X117052606Y-39510023D02*
X122750991Y-45208408D01*
X103600000Y-40509132D02*
X104605904Y-39503228D01*
X106596745Y-39503228D02*
X106603541Y-39510023D01*
X104605904Y-39503228D02*
X106596745Y-39503228D01*
X122400000Y-46400000D02*
X122100001Y-46100001D01*
X106781736Y-43800000D02*
X107575736Y-43800000D01*
X104833437Y-39863237D02*
X104307459Y-40389215D01*
X106454419Y-39870033D02*
X106447623Y-39863237D01*
X107575736Y-43800000D02*
X108000000Y-43800000D01*
X122100001Y-46100001D02*
X122100001Y-45300001D01*
X116670034Y-39870034D02*
X106454419Y-39870033D01*
X122100001Y-45300001D02*
X116670034Y-39870034D01*
X106447623Y-39863237D02*
X104833437Y-39863237D01*
X104307459Y-40389215D02*
X104307460Y-41325724D01*
X104307460Y-41325724D02*
X106781736Y-43800000D01*
X121600000Y-45490868D02*
X116339176Y-40230044D01*
X121600000Y-46600000D02*
X121600000Y-45490868D01*
X105580945Y-42090077D02*
X107123033Y-42090077D01*
X108800000Y-43975736D02*
X108800000Y-44400000D01*
X108800000Y-43767044D02*
X108800000Y-43975736D01*
X107123033Y-42090077D02*
X108800000Y-43767044D01*
X104667470Y-41176602D02*
X105580945Y-42090077D01*
X104667470Y-40538336D02*
X104667470Y-41176602D01*
X106298502Y-40223248D02*
X104982558Y-40223248D01*
X106305298Y-40230044D02*
X106298502Y-40223248D01*
X104982558Y-40223248D02*
X104667470Y-40538336D01*
X116339176Y-40230044D02*
X106305298Y-40230044D01*
X109365827Y-43471844D02*
X109065828Y-43171845D01*
X112800000Y-46906017D02*
X109365827Y-43471844D01*
X112800000Y-48800000D02*
X112800000Y-46906017D01*
X109596426Y-42600107D02*
X120167336Y-53171017D01*
X120167336Y-53171017D02*
X120167336Y-53578866D01*
X120167336Y-53578866D02*
X120167336Y-54003130D01*
X120944718Y-53492211D02*
X120944718Y-53916475D01*
X120944718Y-52737059D02*
X120944718Y-53492211D01*
X108754325Y-42240097D02*
X108964325Y-42030097D01*
X110237756Y-42030097D02*
X120944718Y-52737059D01*
X108964325Y-42030097D02*
X110237756Y-42030097D01*
X108014335Y-41894005D02*
X107989798Y-41869468D01*
X121423819Y-52183507D02*
X121423819Y-53578780D01*
X108172593Y-41670088D02*
X110910400Y-41670088D01*
X107989798Y-41852883D02*
X108172593Y-41670088D01*
X107989798Y-41869468D02*
X107989798Y-41852883D01*
X121423819Y-53578780D02*
X121723818Y-53878779D01*
X110910400Y-41670088D02*
X121423819Y-52183507D01*
X107300443Y-41490723D02*
X107329795Y-41520075D01*
X118529989Y-47588212D02*
X112251854Y-41310077D01*
X112251854Y-41310077D02*
X107451736Y-41310077D01*
X107451736Y-41310077D02*
X107300443Y-41461370D01*
X107300443Y-41461370D02*
X107300443Y-41490723D01*
X113775963Y-36318474D02*
X114200227Y-36318474D01*
X113694437Y-36400000D02*
X113775963Y-36318474D01*
X108999966Y-36400000D02*
X113694437Y-36400000D01*
X107600000Y-37799966D02*
X108999966Y-36400000D01*
X108029990Y-35770010D02*
X112575736Y-35770010D01*
X112575736Y-35770010D02*
X113000000Y-35770010D01*
X106000000Y-37800000D02*
X108029990Y-35770010D01*
X105825534Y-41400000D02*
X105537470Y-41111936D01*
X106600000Y-41400000D02*
X105825534Y-41400000D01*
X107049934Y-40950066D02*
X106600000Y-41400000D01*
X112950066Y-40950066D02*
X107049934Y-40950066D01*
X119099999Y-47099999D02*
X112950066Y-40950066D01*
X119099999Y-48100001D02*
X119099999Y-47099999D01*
X105537470Y-41111936D02*
X105237471Y-40811937D01*
X118800000Y-48400000D02*
X119099999Y-48100001D01*
X122505055Y-47800000D02*
X121194274Y-47800000D01*
X123970001Y-46335054D02*
X122505055Y-47800000D01*
X123970001Y-44726399D02*
X123970001Y-46335054D01*
X122413607Y-43170005D02*
X123970001Y-44726399D01*
X102000000Y-37800000D02*
X104600000Y-35200000D01*
X121194274Y-47800000D02*
X120770010Y-47800000D01*
X104600000Y-35200000D02*
X113956394Y-35200000D01*
X113956394Y-35200000D02*
X121926399Y-43170005D01*
X121926399Y-43170005D02*
X122413607Y-43170005D01*
D16*
X140275000Y-46400000D02*
X140000000Y-46400000D01*
X141600000Y-47725000D02*
X140275000Y-46400000D01*
X141600000Y-53400000D02*
X141600000Y-47725000D01*
X139800000Y-55200000D02*
X141600000Y-53400000D01*
X139800000Y-64400000D02*
X139800000Y-55200000D01*
X131000000Y-64000000D02*
X132400000Y-65400000D01*
X132400000Y-65400000D02*
X138800000Y-65400000D01*
X125200000Y-64000000D02*
X131000000Y-64000000D01*
X138800000Y-65400000D02*
X139800000Y-64400000D01*
D17*
X120000000Y-35306000D02*
X120000000Y-39800000D01*
X122200000Y-42175730D02*
X122200000Y-42599994D01*
X120000000Y-39800000D02*
X122200000Y-42000000D01*
X122200000Y-42000000D02*
X122200000Y-42175730D01*
X128299999Y-37899999D02*
X128000000Y-37600000D01*
X130800000Y-40400000D02*
X128299999Y-37899999D01*
X134400000Y-40400000D02*
X130800000Y-40400000D01*
X119800000Y-45000000D02*
X120200000Y-45400000D01*
X124330012Y-46484175D02*
X124330012Y-44577278D01*
X120466929Y-48466929D02*
X122347258Y-48466929D01*
X120200000Y-48200000D02*
X120466929Y-48466929D01*
X123943744Y-44191010D02*
X123943744Y-38121855D01*
X120200000Y-45400000D02*
X120200000Y-48200000D01*
X122347258Y-48466929D02*
X124330012Y-46484175D01*
X124330012Y-44577278D02*
X123943744Y-44191010D01*
X123943744Y-38121855D02*
X123943744Y-37697591D01*
X131829990Y-42400000D02*
X127099999Y-37670009D01*
X127099999Y-37670009D02*
X126800000Y-37370010D01*
X134400000Y-42400000D02*
X131829990Y-42400000D01*
X124651635Y-44389769D02*
X124690023Y-44428157D01*
X118252205Y-44852205D02*
X118252205Y-43916258D01*
X119600000Y-46200000D02*
X118252205Y-44852205D01*
X122496379Y-48826940D02*
X120226940Y-48826940D01*
X120226940Y-48826940D02*
X119600000Y-48200000D01*
X118252205Y-43916258D02*
X118252205Y-43491994D01*
X124651635Y-37370010D02*
X124651635Y-44389769D01*
X124690023Y-46633296D02*
X122496379Y-48826940D01*
X124690023Y-44428157D02*
X124690023Y-46633296D01*
X119600000Y-48200000D02*
X119600000Y-46200000D01*
X128200000Y-37000000D02*
X128000000Y-36800000D01*
X130800000Y-37000000D02*
X128200000Y-37000000D01*
X122200000Y-37000000D02*
X120600000Y-37000000D01*
X122800000Y-37600000D02*
X122200000Y-37000000D01*
X116400000Y-43593884D02*
X116703059Y-43896943D01*
X116400000Y-42600000D02*
X116400000Y-43593884D01*
X116703059Y-43896943D02*
X117003058Y-44196942D01*
X126501757Y-44679979D02*
X125600000Y-45581736D01*
X133345000Y-46400000D02*
X132145000Y-47600000D01*
X125600000Y-49600021D02*
X123899999Y-51300022D01*
X134400000Y-46400000D02*
X133345000Y-46400000D01*
X132145000Y-47600000D02*
X131200000Y-47600000D01*
X128279979Y-44679979D02*
X126501757Y-44679979D01*
X123899999Y-51300022D02*
X123600000Y-51600021D01*
X125600000Y-45581736D02*
X125600000Y-49600021D01*
X131200000Y-47600000D02*
X128279979Y-44679979D01*
X126000000Y-50400000D02*
X126000000Y-45690868D01*
X126000000Y-45690868D02*
X126650878Y-45039990D01*
X126650878Y-45039990D02*
X128039990Y-45039990D01*
X131400000Y-48400000D02*
X133345000Y-48400000D01*
X128039990Y-45039990D02*
X131400000Y-48400000D01*
X124400000Y-52000000D02*
X126000000Y-50400000D01*
X133345000Y-48400000D02*
X134400000Y-48400000D01*
X132600000Y-50400000D02*
X127600000Y-45400000D01*
X126125839Y-52471915D02*
X125825840Y-52771914D01*
X126400000Y-45800000D02*
X126400000Y-52197754D01*
X126400000Y-52197754D02*
X126125839Y-52471915D01*
X127600000Y-45400000D02*
X126800000Y-45400000D01*
X126800000Y-45400000D02*
X126400000Y-45800000D01*
X134400000Y-50400000D02*
X132600000Y-50400000D01*
X115250879Y-54239989D02*
X118749121Y-54239989D01*
X109600000Y-54800000D02*
X114690868Y-54800000D01*
X106000000Y-50200000D02*
X107200000Y-50200000D01*
X108000000Y-53200000D02*
X109600000Y-54800000D01*
X114690868Y-54800000D02*
X115250879Y-54239989D01*
X118749121Y-54239989D02*
X119149122Y-54639990D01*
X121995560Y-54639990D02*
X122133846Y-54501704D01*
X119149122Y-54639990D02*
X121995560Y-54639990D01*
X122133846Y-54501704D02*
X122433845Y-54201705D01*
X105400000Y-50800000D02*
X106000000Y-50200000D01*
X107200000Y-50200000D02*
X108000000Y-51000000D01*
X108000000Y-51000000D02*
X108000000Y-53200000D01*
X124700020Y-54364614D02*
X124700020Y-54186199D01*
X137600000Y-62200000D02*
X132535406Y-62200000D01*
X132535406Y-62200000D02*
X124700020Y-54364614D01*
X124700020Y-54186199D02*
X124400021Y-53886200D01*
X137600000Y-61400000D02*
X132244538Y-61400000D01*
X132244538Y-61400000D02*
X125170609Y-54326071D01*
X125170609Y-54326071D02*
X125170609Y-54189582D01*
X125170609Y-54189582D02*
X125170609Y-53765318D01*
X122000000Y-35581000D02*
X122000000Y-35306000D01*
X122990022Y-51872764D02*
X122990022Y-50464009D01*
X124948430Y-36600000D02*
X123019000Y-36600000D01*
X125221637Y-48232394D02*
X125221637Y-36873207D01*
X126000000Y-54000000D02*
X126000000Y-53751107D01*
X125444210Y-53195317D02*
X124312575Y-53195317D01*
X122990022Y-50464009D02*
X125221637Y-48232394D01*
X126000000Y-53751107D02*
X125444210Y-53195317D01*
X123019000Y-36600000D02*
X122000000Y-35581000D01*
X124312575Y-53195317D02*
X122990022Y-51872764D01*
X125221637Y-36873207D02*
X124948430Y-36600000D01*
X131399990Y-46400000D02*
X131400000Y-46399990D01*
X130600000Y-46400000D02*
X131399990Y-46400000D01*
X126000000Y-41800000D02*
X130600000Y-46400000D01*
X126000000Y-35306000D02*
X126000000Y-41800000D01*
X126000000Y-63000000D02*
X125800000Y-63200000D01*
X126000000Y-59600000D02*
X126000000Y-63000000D01*
X130000000Y-57800000D02*
X126999300Y-54799300D01*
X126999300Y-54799300D02*
X126999300Y-47599254D01*
X126999300Y-47599254D02*
X126999300Y-47174990D01*
X127589434Y-46692651D02*
X127289435Y-46392652D01*
X131025327Y-57825327D02*
X127589434Y-54389434D01*
X127589434Y-54389434D02*
X127589434Y-46692651D01*
X131025327Y-59374673D02*
X131025327Y-57825327D01*
X136299999Y-39099999D02*
X136000000Y-38800000D01*
X140000000Y-39800000D02*
X137000000Y-39800000D01*
X137000000Y-39800000D02*
X136299999Y-39099999D01*
X133099999Y-54299999D02*
X133099999Y-57743605D01*
X132024264Y-58800000D02*
X131600000Y-58800000D01*
X132043604Y-58800000D02*
X132024264Y-58800000D01*
X132800000Y-54000000D02*
X133099999Y-54299999D01*
X133099999Y-57743605D02*
X132043604Y-58800000D01*
X131952296Y-59538707D02*
X131652297Y-59838706D01*
X133800000Y-54000000D02*
X133800000Y-57691003D01*
X133800000Y-57691003D02*
X131952296Y-59538707D01*
X122800000Y-55200000D02*
X123003855Y-54996145D01*
X123003855Y-53712987D02*
X121800000Y-52509132D01*
X118600000Y-54600000D02*
X119200000Y-55200000D01*
X121800000Y-52509132D02*
X121800000Y-50800000D01*
X107400000Y-56400000D02*
X113600000Y-56400000D01*
X121800000Y-50800000D02*
X121299999Y-50299999D01*
X119200000Y-55200000D02*
X122800000Y-55200000D01*
X121299999Y-50299999D02*
X121000000Y-50000000D01*
X123003855Y-54996145D02*
X123003855Y-53712987D01*
X115400000Y-54600000D02*
X118600000Y-54600000D01*
X113600000Y-56400000D02*
X115400000Y-54600000D01*
X122000000Y-50424264D02*
X122200000Y-50624264D01*
X122000000Y-50000000D02*
X122000000Y-50424264D01*
X122200000Y-50624264D02*
X122200000Y-52400000D01*
X122200000Y-52400000D02*
X123400000Y-53600000D01*
X123400000Y-53600000D02*
X123400000Y-55200000D01*
X123400000Y-55200000D02*
X123000000Y-55600000D01*
X123000000Y-55600000D02*
X119000000Y-55600000D01*
X119000000Y-55600000D02*
X118400000Y-55000000D01*
X118400000Y-55000000D02*
X115600000Y-55000000D01*
X115600000Y-55000000D02*
X113800000Y-56800000D01*
X113800000Y-56800000D02*
X108600000Y-56800000D01*
X108600000Y-56800000D02*
X108200000Y-57200000D01*
X107200000Y-57200000D02*
X106400000Y-56400000D01*
X108200000Y-57200000D02*
X107200000Y-57200000D01*
D19*
G36*
X142998000Y-67498000D02*
X98927000Y-67498000D01*
X98927000Y-65328397D01*
X110873000Y-65328397D01*
X110873000Y-65471603D01*
X110900938Y-65612058D01*
X110955741Y-65744364D01*
X111035302Y-65863436D01*
X111136564Y-65964698D01*
X111255636Y-66044259D01*
X111387942Y-66099062D01*
X111528397Y-66127000D01*
X111671603Y-66127000D01*
X111812058Y-66099062D01*
X111944364Y-66044259D01*
X111970194Y-66027000D01*
X112169206Y-66027000D01*
X112200000Y-66030033D01*
X112230794Y-66027000D01*
X112322913Y-66017927D01*
X112441103Y-65982075D01*
X112550028Y-65923853D01*
X112645501Y-65845501D01*
X112665138Y-65821573D01*
X114181589Y-64305123D01*
X114212058Y-64299062D01*
X114344364Y-64244259D01*
X114463436Y-64164698D01*
X114564698Y-64063436D01*
X114644259Y-63944364D01*
X114699062Y-63812058D01*
X114727000Y-63671603D01*
X114727000Y-63528397D01*
X114699062Y-63387942D01*
X114644259Y-63255636D01*
X114627000Y-63229806D01*
X114627000Y-62259711D01*
X117381589Y-59505123D01*
X117412058Y-59499062D01*
X117544364Y-59444259D01*
X117663436Y-59364698D01*
X117764698Y-59263436D01*
X117844259Y-59144364D01*
X117899062Y-59012058D01*
X117927000Y-58871603D01*
X117927000Y-58728397D01*
X117899062Y-58587942D01*
X117844259Y-58455636D01*
X117764698Y-58336564D01*
X117663436Y-58235302D01*
X117544364Y-58155741D01*
X117412058Y-58100938D01*
X117271603Y-58073000D01*
X117128397Y-58073000D01*
X116987942Y-58100938D01*
X116855636Y-58155741D01*
X116736564Y-58235302D01*
X116635302Y-58336564D01*
X116555741Y-58455636D01*
X116500938Y-58587942D01*
X116494877Y-58618411D01*
X113578427Y-61534862D01*
X113554499Y-61554499D01*
X113476147Y-61649973D01*
X113417925Y-61758898D01*
X113395766Y-61831949D01*
X113382073Y-61877088D01*
X113369967Y-62000000D01*
X113373000Y-62030794D01*
X113373001Y-63229805D01*
X113355741Y-63255636D01*
X113300938Y-63387942D01*
X113294877Y-63418411D01*
X111952267Y-64761022D01*
X111944364Y-64755741D01*
X111812058Y-64700938D01*
X111671603Y-64673000D01*
X111528397Y-64673000D01*
X111387942Y-64700938D01*
X111255636Y-64755741D01*
X111136564Y-64835302D01*
X111035302Y-64936564D01*
X110955741Y-65055636D01*
X110900938Y-65187942D01*
X110873000Y-65328397D01*
X98927000Y-65328397D01*
X98927000Y-47155134D01*
X98936564Y-47164698D01*
X99055636Y-47244259D01*
X99187942Y-47299062D01*
X99328397Y-47327000D01*
X99471603Y-47327000D01*
X99612058Y-47299062D01*
X99744364Y-47244259D01*
X99863436Y-47164698D01*
X99964698Y-47063436D01*
X100044259Y-46944364D01*
X100099062Y-46812058D01*
X100127000Y-46671603D01*
X100127000Y-46528397D01*
X100099062Y-46387942D01*
X100044259Y-46255636D01*
X99964698Y-46136564D01*
X99917000Y-46088866D01*
X99917000Y-44414147D01*
X103083001Y-41248147D01*
X103083000Y-43488866D01*
X103035302Y-43536564D01*
X102955741Y-43655636D01*
X102900938Y-43787942D01*
X102873000Y-43928397D01*
X102873000Y-44071603D01*
X102900938Y-44212058D01*
X102955741Y-44344364D01*
X103035302Y-44463436D01*
X103136564Y-44564698D01*
X103255636Y-44644259D01*
X103387942Y-44699062D01*
X103528397Y-44727000D01*
X103671603Y-44727000D01*
X103812058Y-44699062D01*
X103944364Y-44644259D01*
X104063436Y-44564698D01*
X104164698Y-44463436D01*
X104244259Y-44344364D01*
X104299062Y-44212058D01*
X104327000Y-44071603D01*
X104327000Y-43928397D01*
X104299062Y-43787942D01*
X104244259Y-43655636D01*
X104164698Y-43536564D01*
X104117000Y-43488866D01*
X104117000Y-41866411D01*
X106398203Y-44147615D01*
X106414393Y-44167343D01*
X106474173Y-44216402D01*
X106493117Y-44231949D01*
X106582931Y-44279956D01*
X106604653Y-44286545D01*
X106680386Y-44309519D01*
X106756343Y-44317000D01*
X106756345Y-44317000D01*
X106781736Y-44319501D01*
X106807127Y-44317000D01*
X107488866Y-44317000D01*
X107536564Y-44364698D01*
X107655636Y-44444259D01*
X107787942Y-44499062D01*
X107928397Y-44527000D01*
X108071603Y-44527000D01*
X108083547Y-44524624D01*
X108100938Y-44612058D01*
X108155741Y-44744364D01*
X108235302Y-44863436D01*
X108336564Y-44964698D01*
X108455636Y-45044259D01*
X108587942Y-45099062D01*
X108728397Y-45127000D01*
X108871603Y-45127000D01*
X109012058Y-45099062D01*
X109144364Y-45044259D01*
X109263436Y-44964698D01*
X109364698Y-44863436D01*
X109444259Y-44744364D01*
X109499062Y-44612058D01*
X109527000Y-44471603D01*
X109527000Y-44364164D01*
X112283001Y-47120166D01*
X112283000Y-48288866D01*
X112235302Y-48336564D01*
X112155741Y-48455636D01*
X112100938Y-48587942D01*
X112073000Y-48728397D01*
X112073000Y-48871603D01*
X112100938Y-49012058D01*
X112155741Y-49144364D01*
X112235302Y-49263436D01*
X112336564Y-49364698D01*
X112455636Y-49444259D01*
X112587942Y-49499062D01*
X112728397Y-49527000D01*
X112871603Y-49527000D01*
X113012058Y-49499062D01*
X113144364Y-49444259D01*
X113263436Y-49364698D01*
X113364698Y-49263436D01*
X113444259Y-49144364D01*
X113499062Y-49012058D01*
X113527000Y-48871603D01*
X113527000Y-48728397D01*
X113499062Y-48587942D01*
X113444259Y-48455636D01*
X113364698Y-48336564D01*
X113317000Y-48288866D01*
X113317000Y-47051828D01*
X119650336Y-53385165D01*
X119650336Y-53491996D01*
X119602638Y-53539694D01*
X119523077Y-53658766D01*
X119468274Y-53791072D01*
X119440336Y-53931527D01*
X119440336Y-54074733D01*
X119449935Y-54122990D01*
X119363270Y-54122990D01*
X119132659Y-53892380D01*
X119116464Y-53872646D01*
X119037740Y-53808040D01*
X118947925Y-53760033D01*
X118850471Y-53730470D01*
X118774514Y-53722989D01*
X118774512Y-53722989D01*
X118749121Y-53720488D01*
X118723730Y-53722989D01*
X115276269Y-53722989D01*
X115250878Y-53720488D01*
X115225487Y-53722989D01*
X115225486Y-53722989D01*
X115149529Y-53730470D01*
X115052075Y-53760033D01*
X115010266Y-53782380D01*
X114962259Y-53808040D01*
X114949910Y-53818175D01*
X114883536Y-53872646D01*
X114867345Y-53892375D01*
X114476721Y-54283000D01*
X109814148Y-54283000D01*
X108517000Y-52985853D01*
X108517000Y-51025391D01*
X108519501Y-51000000D01*
X108517000Y-50974607D01*
X108509519Y-50898650D01*
X108479956Y-50801196D01*
X108431949Y-50711381D01*
X108367343Y-50632657D01*
X108347614Y-50616466D01*
X107583538Y-49852391D01*
X107567343Y-49832657D01*
X107488619Y-49768051D01*
X107398804Y-49720044D01*
X107301350Y-49690481D01*
X107225393Y-49683000D01*
X107225391Y-49683000D01*
X107200000Y-49680499D01*
X107174609Y-49683000D01*
X106025390Y-49683000D01*
X105999999Y-49680499D01*
X105974608Y-49683000D01*
X105974607Y-49683000D01*
X105898650Y-49690481D01*
X105801196Y-49720044D01*
X105795666Y-49723000D01*
X105711380Y-49768051D01*
X105696214Y-49780498D01*
X105632657Y-49832657D01*
X105616466Y-49852386D01*
X105395852Y-50073000D01*
X105328397Y-50073000D01*
X105187942Y-50100938D01*
X105055636Y-50155741D01*
X104936564Y-50235302D01*
X104835302Y-50336564D01*
X104755741Y-50455636D01*
X104700938Y-50587942D01*
X104673000Y-50728397D01*
X104673000Y-50871603D01*
X104700938Y-51012058D01*
X104755741Y-51144364D01*
X104835302Y-51263436D01*
X104936564Y-51364698D01*
X105055636Y-51444259D01*
X105156528Y-51486050D01*
X102344800Y-54297778D01*
X102318974Y-54318973D01*
X102297779Y-54344799D01*
X102297776Y-54344802D01*
X102234372Y-54422060D01*
X102171508Y-54539671D01*
X102132796Y-54667286D01*
X102119726Y-54800000D01*
X102123001Y-54833254D01*
X102123000Y-56334679D01*
X102100938Y-56387942D01*
X102073000Y-56528397D01*
X102073000Y-56671603D01*
X102100938Y-56812058D01*
X102123000Y-56865320D01*
X102123001Y-61970591D01*
X101189903Y-62903689D01*
X101136640Y-62925751D01*
X101017568Y-63005312D01*
X100916306Y-63106574D01*
X100836745Y-63225646D01*
X100781942Y-63357952D01*
X100754004Y-63498407D01*
X100754004Y-63641613D01*
X100781942Y-63782068D01*
X100836745Y-63914374D01*
X100916306Y-64033446D01*
X101017568Y-64134708D01*
X101136640Y-64214269D01*
X101268946Y-64269072D01*
X101409401Y-64297010D01*
X101552607Y-64297010D01*
X101693062Y-64269072D01*
X101825368Y-64214269D01*
X101944440Y-64134708D01*
X102045702Y-64033446D01*
X102125263Y-63914374D01*
X102147325Y-63861111D01*
X103255196Y-62753240D01*
X103281027Y-62732041D01*
X103365628Y-62628955D01*
X103428492Y-62511344D01*
X103467204Y-62383729D01*
X103477000Y-62284266D01*
X103477000Y-62284257D01*
X103480274Y-62251015D01*
X103477000Y-62217773D01*
X103477000Y-58705134D01*
X103536564Y-58764698D01*
X103655636Y-58844259D01*
X103787942Y-58899062D01*
X103829944Y-58907417D01*
X103849972Y-58923853D01*
X103958897Y-58982075D01*
X104077087Y-59017927D01*
X104200000Y-59030033D01*
X104230794Y-59027000D01*
X110169206Y-59027000D01*
X110200000Y-59030033D01*
X110230794Y-59027000D01*
X110322913Y-59017927D01*
X110441103Y-58982075D01*
X110550028Y-58923853D01*
X110645501Y-58845501D01*
X110665138Y-58821573D01*
X110781588Y-58705123D01*
X110812058Y-58699062D01*
X110944364Y-58644259D01*
X111063436Y-58564698D01*
X111164698Y-58463436D01*
X111244259Y-58344364D01*
X111299062Y-58212058D01*
X111327000Y-58071603D01*
X111327000Y-57928397D01*
X111299062Y-57787942D01*
X111244259Y-57655636D01*
X111164698Y-57536564D01*
X111063436Y-57435302D01*
X110944364Y-57355741D01*
X110850835Y-57317000D01*
X113774609Y-57317000D01*
X113800000Y-57319501D01*
X113825391Y-57317000D01*
X113825393Y-57317000D01*
X113901350Y-57309519D01*
X113998804Y-57279956D01*
X114088619Y-57231949D01*
X114167343Y-57167343D01*
X114183538Y-57147609D01*
X115814148Y-55517000D01*
X118185853Y-55517000D01*
X118616466Y-55947614D01*
X118632657Y-55967343D01*
X118681292Y-56007256D01*
X118711380Y-56031949D01*
X118755696Y-56055636D01*
X118801196Y-56079956D01*
X118898650Y-56109519D01*
X118974607Y-56117000D01*
X118974608Y-56117000D01*
X118999999Y-56119501D01*
X119025390Y-56117000D01*
X122974609Y-56117000D01*
X123000000Y-56119501D01*
X123025391Y-56117000D01*
X123025393Y-56117000D01*
X123101350Y-56109519D01*
X123198804Y-56079956D01*
X123288619Y-56031949D01*
X123367343Y-55967343D01*
X123383538Y-55947609D01*
X123747614Y-55583534D01*
X123767343Y-55567343D01*
X123817961Y-55505664D01*
X123831949Y-55488620D01*
X123879955Y-55398805D01*
X123879956Y-55398804D01*
X123909519Y-55301350D01*
X123917000Y-55225393D01*
X123917000Y-55225392D01*
X123919501Y-55200001D01*
X123917000Y-55174610D01*
X123917000Y-54431313D01*
X123936585Y-54450898D01*
X124055657Y-54530459D01*
X124187963Y-54585262D01*
X124236948Y-54595006D01*
X124268071Y-54653233D01*
X124332677Y-54731957D01*
X124352411Y-54748152D01*
X128727258Y-59123000D01*
X127665320Y-59123000D01*
X127612058Y-59100938D01*
X127471603Y-59073000D01*
X127328397Y-59073000D01*
X127187942Y-59100938D01*
X127055636Y-59155741D01*
X126936564Y-59235302D01*
X126835302Y-59336564D01*
X126755741Y-59455636D01*
X126726547Y-59526117D01*
X126699062Y-59387942D01*
X126644259Y-59255636D01*
X126564698Y-59136564D01*
X126463436Y-59035302D01*
X126344364Y-58955741D01*
X126212058Y-58900938D01*
X126071603Y-58873000D01*
X125928397Y-58873000D01*
X125787942Y-58900938D01*
X125655636Y-58955741D01*
X125536564Y-59035302D01*
X125435302Y-59136564D01*
X125355741Y-59255636D01*
X125300938Y-59387942D01*
X125273000Y-59528397D01*
X125273000Y-59671603D01*
X125300938Y-59812058D01*
X125355741Y-59944364D01*
X125435302Y-60063436D01*
X125483000Y-60111134D01*
X125483001Y-62544406D01*
X125455636Y-62555741D01*
X125336564Y-62635302D01*
X125235302Y-62736564D01*
X125155741Y-62855636D01*
X125100938Y-62987942D01*
X125073000Y-63128397D01*
X125073000Y-63271603D01*
X125075376Y-63283547D01*
X124987942Y-63300938D01*
X124855636Y-63355741D01*
X124736564Y-63435302D01*
X124635302Y-63536564D01*
X124555741Y-63655636D01*
X124500938Y-63787942D01*
X124473000Y-63928397D01*
X124473000Y-64071603D01*
X124500938Y-64212058D01*
X124555741Y-64344364D01*
X124635302Y-64463436D01*
X124736564Y-64564698D01*
X124855636Y-64644259D01*
X124987942Y-64699062D01*
X125128397Y-64727000D01*
X125271603Y-64727000D01*
X125412058Y-64699062D01*
X125465320Y-64677000D01*
X130719578Y-64677000D01*
X131897778Y-65855201D01*
X131918973Y-65881027D01*
X132022059Y-65965628D01*
X132139670Y-66028492D01*
X132267285Y-66067204D01*
X132366748Y-66077000D01*
X132366755Y-66077000D01*
X132400000Y-66080274D01*
X132433245Y-66077000D01*
X138766755Y-66077000D01*
X138800000Y-66080274D01*
X138833245Y-66077000D01*
X138833252Y-66077000D01*
X138932715Y-66067204D01*
X139060330Y-66028492D01*
X139177941Y-65965628D01*
X139281027Y-65881027D01*
X139302226Y-65855196D01*
X140255205Y-64902218D01*
X140281026Y-64881027D01*
X140302218Y-64855205D01*
X140302224Y-64855199D01*
X140365628Y-64777941D01*
X140428492Y-64660330D01*
X140467204Y-64532715D01*
X140480275Y-64400000D01*
X140477000Y-64366748D01*
X140477000Y-55480422D01*
X142055200Y-53902222D01*
X142081026Y-53881027D01*
X142102308Y-53855096D01*
X142165627Y-53777942D01*
X142165628Y-53777941D01*
X142228492Y-53660330D01*
X142267204Y-53532715D01*
X142277000Y-53433252D01*
X142277000Y-53433243D01*
X142280274Y-53400001D01*
X142277000Y-53366759D01*
X142277000Y-47758245D01*
X142280274Y-47725000D01*
X142277000Y-47691755D01*
X142277000Y-47691748D01*
X142267204Y-47592285D01*
X142228492Y-47464670D01*
X142165628Y-47347059D01*
X142136347Y-47311380D01*
X142102224Y-47269801D01*
X142102222Y-47269799D01*
X142081027Y-47243973D01*
X142055201Y-47222778D01*
X141300285Y-46467863D01*
X141306969Y-46400000D01*
X141287140Y-46198673D01*
X141228415Y-46005083D01*
X141133051Y-45826669D01*
X141004712Y-45670288D01*
X140848331Y-45541949D01*
X140669917Y-45446585D01*
X140476327Y-45387860D01*
X140325451Y-45373000D01*
X139913711Y-45373000D01*
X142021579Y-43265133D01*
X142045501Y-43245501D01*
X142123853Y-43150028D01*
X142182075Y-43041103D01*
X142217927Y-42922913D01*
X142227000Y-42830794D01*
X142227000Y-42830793D01*
X142230033Y-42800001D01*
X142227000Y-42769209D01*
X142227000Y-37155794D01*
X142230033Y-37125000D01*
X142217927Y-37002087D01*
X142208373Y-36970591D01*
X142182075Y-36883897D01*
X142123853Y-36774972D01*
X142045501Y-36679499D01*
X142021578Y-36659866D01*
X141293945Y-35932234D01*
X141306969Y-35800000D01*
X141287140Y-35598673D01*
X141228415Y-35405083D01*
X141133051Y-35226669D01*
X141004712Y-35070288D01*
X140848331Y-34941949D01*
X140669917Y-34846585D01*
X140476327Y-34787860D01*
X140325451Y-34773000D01*
X139674549Y-34773000D01*
X139523673Y-34787860D01*
X139330083Y-34846585D01*
X139151669Y-34941949D01*
X138995288Y-35070288D01*
X138866949Y-35226669D01*
X138771585Y-35405083D01*
X138712860Y-35598673D01*
X138693031Y-35800000D01*
X138712860Y-36001327D01*
X138771585Y-36194917D01*
X138866949Y-36373331D01*
X138995288Y-36529712D01*
X139151669Y-36658051D01*
X139330083Y-36753415D01*
X139483653Y-36800000D01*
X139330083Y-36846585D01*
X139151669Y-36941949D01*
X138995288Y-37070288D01*
X138866949Y-37226669D01*
X138771585Y-37405083D01*
X138712860Y-37598673D01*
X138693031Y-37800000D01*
X138712860Y-38001327D01*
X138771585Y-38194917D01*
X138866949Y-38373331D01*
X138995288Y-38529712D01*
X139151669Y-38658051D01*
X139330083Y-38753415D01*
X139483653Y-38800000D01*
X139330083Y-38846585D01*
X139151669Y-38941949D01*
X138995288Y-39070288D01*
X138866949Y-39226669D01*
X138836840Y-39283000D01*
X137214148Y-39283000D01*
X136727000Y-38795853D01*
X136727000Y-38728397D01*
X136699062Y-38587942D01*
X136644259Y-38455636D01*
X136564698Y-38336564D01*
X136463436Y-38235302D01*
X136344364Y-38155741D01*
X136212058Y-38100938D01*
X136071603Y-38073000D01*
X135928397Y-38073000D01*
X135787942Y-38100938D01*
X135672054Y-38148941D01*
X135628415Y-38005083D01*
X135533051Y-37826669D01*
X135404712Y-37670288D01*
X135248331Y-37541949D01*
X135069917Y-37446585D01*
X134876327Y-37387860D01*
X134725451Y-37373000D01*
X134074549Y-37373000D01*
X133923673Y-37387860D01*
X133730083Y-37446585D01*
X133551669Y-37541949D01*
X133395288Y-37670288D01*
X133266949Y-37826669D01*
X133171585Y-38005083D01*
X133112860Y-38198673D01*
X133093031Y-38400000D01*
X133112860Y-38601327D01*
X133171585Y-38794917D01*
X133266949Y-38973331D01*
X133395288Y-39129712D01*
X133551669Y-39258051D01*
X133730083Y-39353415D01*
X133883653Y-39400000D01*
X133730083Y-39446585D01*
X133551669Y-39541949D01*
X133395288Y-39670288D01*
X133266949Y-39826669D01*
X133236840Y-39883000D01*
X131014148Y-39883000D01*
X128727000Y-37595853D01*
X128727000Y-37528397D01*
X128724733Y-37517000D01*
X130288866Y-37517000D01*
X130336564Y-37564698D01*
X130455636Y-37644259D01*
X130587942Y-37699062D01*
X130728397Y-37727000D01*
X130871603Y-37727000D01*
X131012058Y-37699062D01*
X131144364Y-37644259D01*
X131263436Y-37564698D01*
X131364698Y-37463436D01*
X131444259Y-37344364D01*
X131499062Y-37212058D01*
X131527000Y-37071603D01*
X131527000Y-36928397D01*
X131499062Y-36787942D01*
X131444259Y-36655636D01*
X131364698Y-36536564D01*
X131263436Y-36435302D01*
X131144364Y-36355741D01*
X131012058Y-36300938D01*
X130871603Y-36273000D01*
X130728397Y-36273000D01*
X130587942Y-36300938D01*
X130455636Y-36355741D01*
X130336564Y-36435302D01*
X130288866Y-36483000D01*
X128655594Y-36483000D01*
X128644259Y-36455636D01*
X128611982Y-36407330D01*
X128729712Y-36310712D01*
X128858051Y-36154331D01*
X128953415Y-35975916D01*
X129012140Y-35782326D01*
X129027000Y-35631450D01*
X129027000Y-34980549D01*
X129012140Y-34829673D01*
X128953415Y-34636083D01*
X128858051Y-34457669D01*
X128729712Y-34301288D01*
X128573331Y-34172949D01*
X128394916Y-34077585D01*
X128201326Y-34018860D01*
X128030145Y-34002000D01*
X142998001Y-34002000D01*
X142998000Y-67498000D01*
X142998000Y-67498000D01*
G37*
X142998000Y-67498000D02*
X98927000Y-67498000D01*
X98927000Y-65328397D01*
X110873000Y-65328397D01*
X110873000Y-65471603D01*
X110900938Y-65612058D01*
X110955741Y-65744364D01*
X111035302Y-65863436D01*
X111136564Y-65964698D01*
X111255636Y-66044259D01*
X111387942Y-66099062D01*
X111528397Y-66127000D01*
X111671603Y-66127000D01*
X111812058Y-66099062D01*
X111944364Y-66044259D01*
X111970194Y-66027000D01*
X112169206Y-66027000D01*
X112200000Y-66030033D01*
X112230794Y-66027000D01*
X112322913Y-66017927D01*
X112441103Y-65982075D01*
X112550028Y-65923853D01*
X112645501Y-65845501D01*
X112665138Y-65821573D01*
X114181589Y-64305123D01*
X114212058Y-64299062D01*
X114344364Y-64244259D01*
X114463436Y-64164698D01*
X114564698Y-64063436D01*
X114644259Y-63944364D01*
X114699062Y-63812058D01*
X114727000Y-63671603D01*
X114727000Y-63528397D01*
X114699062Y-63387942D01*
X114644259Y-63255636D01*
X114627000Y-63229806D01*
X114627000Y-62259711D01*
X117381589Y-59505123D01*
X117412058Y-59499062D01*
X117544364Y-59444259D01*
X117663436Y-59364698D01*
X117764698Y-59263436D01*
X117844259Y-59144364D01*
X117899062Y-59012058D01*
X117927000Y-58871603D01*
X117927000Y-58728397D01*
X117899062Y-58587942D01*
X117844259Y-58455636D01*
X117764698Y-58336564D01*
X117663436Y-58235302D01*
X117544364Y-58155741D01*
X117412058Y-58100938D01*
X117271603Y-58073000D01*
X117128397Y-58073000D01*
X116987942Y-58100938D01*
X116855636Y-58155741D01*
X116736564Y-58235302D01*
X116635302Y-58336564D01*
X116555741Y-58455636D01*
X116500938Y-58587942D01*
X116494877Y-58618411D01*
X113578427Y-61534862D01*
X113554499Y-61554499D01*
X113476147Y-61649973D01*
X113417925Y-61758898D01*
X113395766Y-61831949D01*
X113382073Y-61877088D01*
X113369967Y-62000000D01*
X113373000Y-62030794D01*
X113373001Y-63229805D01*
X113355741Y-63255636D01*
X113300938Y-63387942D01*
X113294877Y-63418411D01*
X111952267Y-64761022D01*
X111944364Y-64755741D01*
X111812058Y-64700938D01*
X111671603Y-64673000D01*
X111528397Y-64673000D01*
X111387942Y-64700938D01*
X111255636Y-64755741D01*
X111136564Y-64835302D01*
X111035302Y-64936564D01*
X110955741Y-65055636D01*
X110900938Y-65187942D01*
X110873000Y-65328397D01*
X98927000Y-65328397D01*
X98927000Y-47155134D01*
X98936564Y-47164698D01*
X99055636Y-47244259D01*
X99187942Y-47299062D01*
X99328397Y-47327000D01*
X99471603Y-47327000D01*
X99612058Y-47299062D01*
X99744364Y-47244259D01*
X99863436Y-47164698D01*
X99964698Y-47063436D01*
X100044259Y-46944364D01*
X100099062Y-46812058D01*
X100127000Y-46671603D01*
X100127000Y-46528397D01*
X100099062Y-46387942D01*
X100044259Y-46255636D01*
X99964698Y-46136564D01*
X99917000Y-46088866D01*
X99917000Y-44414147D01*
X103083001Y-41248147D01*
X103083000Y-43488866D01*
X103035302Y-43536564D01*
X102955741Y-43655636D01*
X102900938Y-43787942D01*
X102873000Y-43928397D01*
X102873000Y-44071603D01*
X102900938Y-44212058D01*
X102955741Y-44344364D01*
X103035302Y-44463436D01*
X103136564Y-44564698D01*
X103255636Y-44644259D01*
X103387942Y-44699062D01*
X103528397Y-44727000D01*
X103671603Y-44727000D01*
X103812058Y-44699062D01*
X103944364Y-44644259D01*
X104063436Y-44564698D01*
X104164698Y-44463436D01*
X104244259Y-44344364D01*
X104299062Y-44212058D01*
X104327000Y-44071603D01*
X104327000Y-43928397D01*
X104299062Y-43787942D01*
X104244259Y-43655636D01*
X104164698Y-43536564D01*
X104117000Y-43488866D01*
X104117000Y-41866411D01*
X106398203Y-44147615D01*
X106414393Y-44167343D01*
X106474173Y-44216402D01*
X106493117Y-44231949D01*
X106582931Y-44279956D01*
X106604653Y-44286545D01*
X106680386Y-44309519D01*
X106756343Y-44317000D01*
X106756345Y-44317000D01*
X106781736Y-44319501D01*
X106807127Y-44317000D01*
X107488866Y-44317000D01*
X107536564Y-44364698D01*
X107655636Y-44444259D01*
X107787942Y-44499062D01*
X107928397Y-44527000D01*
X108071603Y-44527000D01*
X108083547Y-44524624D01*
X108100938Y-44612058D01*
X108155741Y-44744364D01*
X108235302Y-44863436D01*
X108336564Y-44964698D01*
X108455636Y-45044259D01*
X108587942Y-45099062D01*
X108728397Y-45127000D01*
X108871603Y-45127000D01*
X109012058Y-45099062D01*
X109144364Y-45044259D01*
X109263436Y-44964698D01*
X109364698Y-44863436D01*
X109444259Y-44744364D01*
X109499062Y-44612058D01*
X109527000Y-44471603D01*
X109527000Y-44364164D01*
X112283001Y-47120166D01*
X112283000Y-48288866D01*
X112235302Y-48336564D01*
X112155741Y-48455636D01*
X112100938Y-48587942D01*
X112073000Y-48728397D01*
X112073000Y-48871603D01*
X112100938Y-49012058D01*
X112155741Y-49144364D01*
X112235302Y-49263436D01*
X112336564Y-49364698D01*
X112455636Y-49444259D01*
X112587942Y-49499062D01*
X112728397Y-49527000D01*
X112871603Y-49527000D01*
X113012058Y-49499062D01*
X113144364Y-49444259D01*
X113263436Y-49364698D01*
X113364698Y-49263436D01*
X113444259Y-49144364D01*
X113499062Y-49012058D01*
X113527000Y-48871603D01*
X113527000Y-48728397D01*
X113499062Y-48587942D01*
X113444259Y-48455636D01*
X113364698Y-48336564D01*
X113317000Y-48288866D01*
X113317000Y-47051828D01*
X119650336Y-53385165D01*
X119650336Y-53491996D01*
X119602638Y-53539694D01*
X119523077Y-53658766D01*
X119468274Y-53791072D01*
X119440336Y-53931527D01*
X119440336Y-54074733D01*
X119449935Y-54122990D01*
X119363270Y-54122990D01*
X119132659Y-53892380D01*
X119116464Y-53872646D01*
X119037740Y-53808040D01*
X118947925Y-53760033D01*
X118850471Y-53730470D01*
X118774514Y-53722989D01*
X118774512Y-53722989D01*
X118749121Y-53720488D01*
X118723730Y-53722989D01*
X115276269Y-53722989D01*
X115250878Y-53720488D01*
X115225487Y-53722989D01*
X115225486Y-53722989D01*
X115149529Y-53730470D01*
X115052075Y-53760033D01*
X115010266Y-53782380D01*
X114962259Y-53808040D01*
X114949910Y-53818175D01*
X114883536Y-53872646D01*
X114867345Y-53892375D01*
X114476721Y-54283000D01*
X109814148Y-54283000D01*
X108517000Y-52985853D01*
X108517000Y-51025391D01*
X108519501Y-51000000D01*
X108517000Y-50974607D01*
X108509519Y-50898650D01*
X108479956Y-50801196D01*
X108431949Y-50711381D01*
X108367343Y-50632657D01*
X108347614Y-50616466D01*
X107583538Y-49852391D01*
X107567343Y-49832657D01*
X107488619Y-49768051D01*
X107398804Y-49720044D01*
X107301350Y-49690481D01*
X107225393Y-49683000D01*
X107225391Y-49683000D01*
X107200000Y-49680499D01*
X107174609Y-49683000D01*
X106025390Y-49683000D01*
X105999999Y-49680499D01*
X105974608Y-49683000D01*
X105974607Y-49683000D01*
X105898650Y-49690481D01*
X105801196Y-49720044D01*
X105795666Y-49723000D01*
X105711380Y-49768051D01*
X105696214Y-49780498D01*
X105632657Y-49832657D01*
X105616466Y-49852386D01*
X105395852Y-50073000D01*
X105328397Y-50073000D01*
X105187942Y-50100938D01*
X105055636Y-50155741D01*
X104936564Y-50235302D01*
X104835302Y-50336564D01*
X104755741Y-50455636D01*
X104700938Y-50587942D01*
X104673000Y-50728397D01*
X104673000Y-50871603D01*
X104700938Y-51012058D01*
X104755741Y-51144364D01*
X104835302Y-51263436D01*
X104936564Y-51364698D01*
X105055636Y-51444259D01*
X105156528Y-51486050D01*
X102344800Y-54297778D01*
X102318974Y-54318973D01*
X102297779Y-54344799D01*
X102297776Y-54344802D01*
X102234372Y-54422060D01*
X102171508Y-54539671D01*
X102132796Y-54667286D01*
X102119726Y-54800000D01*
X102123001Y-54833254D01*
X102123000Y-56334679D01*
X102100938Y-56387942D01*
X102073000Y-56528397D01*
X102073000Y-56671603D01*
X102100938Y-56812058D01*
X102123000Y-56865320D01*
X102123001Y-61970591D01*
X101189903Y-62903689D01*
X101136640Y-62925751D01*
X101017568Y-63005312D01*
X100916306Y-63106574D01*
X100836745Y-63225646D01*
X100781942Y-63357952D01*
X100754004Y-63498407D01*
X100754004Y-63641613D01*
X100781942Y-63782068D01*
X100836745Y-63914374D01*
X100916306Y-64033446D01*
X101017568Y-64134708D01*
X101136640Y-64214269D01*
X101268946Y-64269072D01*
X101409401Y-64297010D01*
X101552607Y-64297010D01*
X101693062Y-64269072D01*
X101825368Y-64214269D01*
X101944440Y-64134708D01*
X102045702Y-64033446D01*
X102125263Y-63914374D01*
X102147325Y-63861111D01*
X103255196Y-62753240D01*
X103281027Y-62732041D01*
X103365628Y-62628955D01*
X103428492Y-62511344D01*
X103467204Y-62383729D01*
X103477000Y-62284266D01*
X103477000Y-62284257D01*
X103480274Y-62251015D01*
X103477000Y-62217773D01*
X103477000Y-58705134D01*
X103536564Y-58764698D01*
X103655636Y-58844259D01*
X103787942Y-58899062D01*
X103829944Y-58907417D01*
X103849972Y-58923853D01*
X103958897Y-58982075D01*
X104077087Y-59017927D01*
X104200000Y-59030033D01*
X104230794Y-59027000D01*
X110169206Y-59027000D01*
X110200000Y-59030033D01*
X110230794Y-59027000D01*
X110322913Y-59017927D01*
X110441103Y-58982075D01*
X110550028Y-58923853D01*
X110645501Y-58845501D01*
X110665138Y-58821573D01*
X110781588Y-58705123D01*
X110812058Y-58699062D01*
X110944364Y-58644259D01*
X111063436Y-58564698D01*
X111164698Y-58463436D01*
X111244259Y-58344364D01*
X111299062Y-58212058D01*
X111327000Y-58071603D01*
X111327000Y-57928397D01*
X111299062Y-57787942D01*
X111244259Y-57655636D01*
X111164698Y-57536564D01*
X111063436Y-57435302D01*
X110944364Y-57355741D01*
X110850835Y-57317000D01*
X113774609Y-57317000D01*
X113800000Y-57319501D01*
X113825391Y-57317000D01*
X113825393Y-57317000D01*
X113901350Y-57309519D01*
X113998804Y-57279956D01*
X114088619Y-57231949D01*
X114167343Y-57167343D01*
X114183538Y-57147609D01*
X115814148Y-55517000D01*
X118185853Y-55517000D01*
X118616466Y-55947614D01*
X118632657Y-55967343D01*
X118681292Y-56007256D01*
X118711380Y-56031949D01*
X118755696Y-56055636D01*
X118801196Y-56079956D01*
X118898650Y-56109519D01*
X118974607Y-56117000D01*
X118974608Y-56117000D01*
X118999999Y-56119501D01*
X119025390Y-56117000D01*
X122974609Y-56117000D01*
X123000000Y-56119501D01*
X123025391Y-56117000D01*
X123025393Y-56117000D01*
X123101350Y-56109519D01*
X123198804Y-56079956D01*
X123288619Y-56031949D01*
X123367343Y-55967343D01*
X123383538Y-55947609D01*
X123747614Y-55583534D01*
X123767343Y-55567343D01*
X123817961Y-55505664D01*
X123831949Y-55488620D01*
X123879955Y-55398805D01*
X123879956Y-55398804D01*
X123909519Y-55301350D01*
X123917000Y-55225393D01*
X123917000Y-55225392D01*
X123919501Y-55200001D01*
X123917000Y-55174610D01*
X123917000Y-54431313D01*
X123936585Y-54450898D01*
X124055657Y-54530459D01*
X124187963Y-54585262D01*
X124236948Y-54595006D01*
X124268071Y-54653233D01*
X124332677Y-54731957D01*
X124352411Y-54748152D01*
X128727258Y-59123000D01*
X127665320Y-59123000D01*
X127612058Y-59100938D01*
X127471603Y-59073000D01*
X127328397Y-59073000D01*
X127187942Y-59100938D01*
X127055636Y-59155741D01*
X126936564Y-59235302D01*
X126835302Y-59336564D01*
X126755741Y-59455636D01*
X126726547Y-59526117D01*
X126699062Y-59387942D01*
X126644259Y-59255636D01*
X126564698Y-59136564D01*
X126463436Y-59035302D01*
X126344364Y-58955741D01*
X126212058Y-58900938D01*
X126071603Y-58873000D01*
X125928397Y-58873000D01*
X125787942Y-58900938D01*
X125655636Y-58955741D01*
X125536564Y-59035302D01*
X125435302Y-59136564D01*
X125355741Y-59255636D01*
X125300938Y-59387942D01*
X125273000Y-59528397D01*
X125273000Y-59671603D01*
X125300938Y-59812058D01*
X125355741Y-59944364D01*
X125435302Y-60063436D01*
X125483000Y-60111134D01*
X125483001Y-62544406D01*
X125455636Y-62555741D01*
X125336564Y-62635302D01*
X125235302Y-62736564D01*
X125155741Y-62855636D01*
X125100938Y-62987942D01*
X125073000Y-63128397D01*
X125073000Y-63271603D01*
X125075376Y-63283547D01*
X124987942Y-63300938D01*
X124855636Y-63355741D01*
X124736564Y-63435302D01*
X124635302Y-63536564D01*
X124555741Y-63655636D01*
X124500938Y-63787942D01*
X124473000Y-63928397D01*
X124473000Y-64071603D01*
X124500938Y-64212058D01*
X124555741Y-64344364D01*
X124635302Y-64463436D01*
X124736564Y-64564698D01*
X124855636Y-64644259D01*
X124987942Y-64699062D01*
X125128397Y-64727000D01*
X125271603Y-64727000D01*
X125412058Y-64699062D01*
X125465320Y-64677000D01*
X130719578Y-64677000D01*
X131897778Y-65855201D01*
X131918973Y-65881027D01*
X132022059Y-65965628D01*
X132139670Y-66028492D01*
X132267285Y-66067204D01*
X132366748Y-66077000D01*
X132366755Y-66077000D01*
X132400000Y-66080274D01*
X132433245Y-66077000D01*
X138766755Y-66077000D01*
X138800000Y-66080274D01*
X138833245Y-66077000D01*
X138833252Y-66077000D01*
X138932715Y-66067204D01*
X139060330Y-66028492D01*
X139177941Y-65965628D01*
X139281027Y-65881027D01*
X139302226Y-65855196D01*
X140255205Y-64902218D01*
X140281026Y-64881027D01*
X140302218Y-64855205D01*
X140302224Y-64855199D01*
X140365628Y-64777941D01*
X140428492Y-64660330D01*
X140467204Y-64532715D01*
X140480275Y-64400000D01*
X140477000Y-64366748D01*
X140477000Y-55480422D01*
X142055200Y-53902222D01*
X142081026Y-53881027D01*
X142102308Y-53855096D01*
X142165627Y-53777942D01*
X142165628Y-53777941D01*
X142228492Y-53660330D01*
X142267204Y-53532715D01*
X142277000Y-53433252D01*
X142277000Y-53433243D01*
X142280274Y-53400001D01*
X142277000Y-53366759D01*
X142277000Y-47758245D01*
X142280274Y-47725000D01*
X142277000Y-47691755D01*
X142277000Y-47691748D01*
X142267204Y-47592285D01*
X142228492Y-47464670D01*
X142165628Y-47347059D01*
X142136347Y-47311380D01*
X142102224Y-47269801D01*
X142102222Y-47269799D01*
X142081027Y-47243973D01*
X142055201Y-47222778D01*
X141300285Y-46467863D01*
X141306969Y-46400000D01*
X141287140Y-46198673D01*
X141228415Y-46005083D01*
X141133051Y-45826669D01*
X141004712Y-45670288D01*
X140848331Y-45541949D01*
X140669917Y-45446585D01*
X140476327Y-45387860D01*
X140325451Y-45373000D01*
X139913711Y-45373000D01*
X142021579Y-43265133D01*
X142045501Y-43245501D01*
X142123853Y-43150028D01*
X142182075Y-43041103D01*
X142217927Y-42922913D01*
X142227000Y-42830794D01*
X142227000Y-42830793D01*
X142230033Y-42800001D01*
X142227000Y-42769209D01*
X142227000Y-37155794D01*
X142230033Y-37125000D01*
X142217927Y-37002087D01*
X142208373Y-36970591D01*
X142182075Y-36883897D01*
X142123853Y-36774972D01*
X142045501Y-36679499D01*
X142021578Y-36659866D01*
X141293945Y-35932234D01*
X141306969Y-35800000D01*
X141287140Y-35598673D01*
X141228415Y-35405083D01*
X141133051Y-35226669D01*
X141004712Y-35070288D01*
X140848331Y-34941949D01*
X140669917Y-34846585D01*
X140476327Y-34787860D01*
X140325451Y-34773000D01*
X139674549Y-34773000D01*
X139523673Y-34787860D01*
X139330083Y-34846585D01*
X139151669Y-34941949D01*
X138995288Y-35070288D01*
X138866949Y-35226669D01*
X138771585Y-35405083D01*
X138712860Y-35598673D01*
X138693031Y-35800000D01*
X138712860Y-36001327D01*
X138771585Y-36194917D01*
X138866949Y-36373331D01*
X138995288Y-36529712D01*
X139151669Y-36658051D01*
X139330083Y-36753415D01*
X139483653Y-36800000D01*
X139330083Y-36846585D01*
X139151669Y-36941949D01*
X138995288Y-37070288D01*
X138866949Y-37226669D01*
X138771585Y-37405083D01*
X138712860Y-37598673D01*
X138693031Y-37800000D01*
X138712860Y-38001327D01*
X138771585Y-38194917D01*
X138866949Y-38373331D01*
X138995288Y-38529712D01*
X139151669Y-38658051D01*
X139330083Y-38753415D01*
X139483653Y-38800000D01*
X139330083Y-38846585D01*
X139151669Y-38941949D01*
X138995288Y-39070288D01*
X138866949Y-39226669D01*
X138836840Y-39283000D01*
X137214148Y-39283000D01*
X136727000Y-38795853D01*
X136727000Y-38728397D01*
X136699062Y-38587942D01*
X136644259Y-38455636D01*
X136564698Y-38336564D01*
X136463436Y-38235302D01*
X136344364Y-38155741D01*
X136212058Y-38100938D01*
X136071603Y-38073000D01*
X135928397Y-38073000D01*
X135787942Y-38100938D01*
X135672054Y-38148941D01*
X135628415Y-38005083D01*
X135533051Y-37826669D01*
X135404712Y-37670288D01*
X135248331Y-37541949D01*
X135069917Y-37446585D01*
X134876327Y-37387860D01*
X134725451Y-37373000D01*
X134074549Y-37373000D01*
X133923673Y-37387860D01*
X133730083Y-37446585D01*
X133551669Y-37541949D01*
X133395288Y-37670288D01*
X133266949Y-37826669D01*
X133171585Y-38005083D01*
X133112860Y-38198673D01*
X133093031Y-38400000D01*
X133112860Y-38601327D01*
X133171585Y-38794917D01*
X133266949Y-38973331D01*
X133395288Y-39129712D01*
X133551669Y-39258051D01*
X133730083Y-39353415D01*
X133883653Y-39400000D01*
X133730083Y-39446585D01*
X133551669Y-39541949D01*
X133395288Y-39670288D01*
X133266949Y-39826669D01*
X133236840Y-39883000D01*
X131014148Y-39883000D01*
X128727000Y-37595853D01*
X128727000Y-37528397D01*
X128724733Y-37517000D01*
X130288866Y-37517000D01*
X130336564Y-37564698D01*
X130455636Y-37644259D01*
X130587942Y-37699062D01*
X130728397Y-37727000D01*
X130871603Y-37727000D01*
X131012058Y-37699062D01*
X131144364Y-37644259D01*
X131263436Y-37564698D01*
X131364698Y-37463436D01*
X131444259Y-37344364D01*
X131499062Y-37212058D01*
X131527000Y-37071603D01*
X131527000Y-36928397D01*
X131499062Y-36787942D01*
X131444259Y-36655636D01*
X131364698Y-36536564D01*
X131263436Y-36435302D01*
X131144364Y-36355741D01*
X131012058Y-36300938D01*
X130871603Y-36273000D01*
X130728397Y-36273000D01*
X130587942Y-36300938D01*
X130455636Y-36355741D01*
X130336564Y-36435302D01*
X130288866Y-36483000D01*
X128655594Y-36483000D01*
X128644259Y-36455636D01*
X128611982Y-36407330D01*
X128729712Y-36310712D01*
X128858051Y-36154331D01*
X128953415Y-35975916D01*
X129012140Y-35782326D01*
X129027000Y-35631450D01*
X129027000Y-34980549D01*
X129012140Y-34829673D01*
X128953415Y-34636083D01*
X128858051Y-34457669D01*
X128729712Y-34301288D01*
X128573331Y-34172949D01*
X128394916Y-34077585D01*
X128201326Y-34018860D01*
X128030145Y-34002000D01*
X142998001Y-34002000D01*
X142998000Y-67498000D01*
G36*
X136523000Y-41480423D02*
X136523001Y-48766745D01*
X136519726Y-48800000D01*
X136532796Y-48932714D01*
X136571508Y-49060329D01*
X136634372Y-49177940D01*
X136697776Y-49255198D01*
X136697779Y-49255201D01*
X136718974Y-49281027D01*
X136744800Y-49302222D01*
X138297778Y-50855201D01*
X138318973Y-50881027D01*
X138344799Y-50902222D01*
X138344801Y-50902224D01*
X138422059Y-50965628D01*
X138539670Y-51028492D01*
X138667285Y-51067204D01*
X138800000Y-51080275D01*
X138833252Y-51077000D01*
X138952028Y-51077000D01*
X138995288Y-51129712D01*
X139151669Y-51258051D01*
X139330083Y-51353415D01*
X139394646Y-51373000D01*
X139082944Y-51373000D01*
X139000449Y-51389409D01*
X138922740Y-51421597D01*
X138852803Y-51468327D01*
X138793328Y-51527803D01*
X138746598Y-51597739D01*
X138714409Y-51675449D01*
X138698000Y-51757944D01*
X138698000Y-52220250D01*
X138804750Y-52327000D01*
X139927000Y-52327000D01*
X139927000Y-52307000D01*
X140073000Y-52307000D01*
X140073000Y-52327000D01*
X140093000Y-52327000D01*
X140093000Y-52473000D01*
X140073000Y-52473000D01*
X140073000Y-53320250D01*
X140179750Y-53427000D01*
X140615578Y-53427000D01*
X139344800Y-54697778D01*
X139318974Y-54718973D01*
X139297779Y-54744799D01*
X139297776Y-54744802D01*
X139234372Y-54822060D01*
X139171508Y-54939671D01*
X139132796Y-55067286D01*
X139119726Y-55200000D01*
X139123001Y-55233255D01*
X139123001Y-58964533D01*
X139121496Y-58960901D01*
X139020048Y-58809072D01*
X138890928Y-58679952D01*
X138739099Y-58578504D01*
X138570396Y-58508624D01*
X138391301Y-58473000D01*
X138208699Y-58473000D01*
X138029604Y-58508624D01*
X137860901Y-58578504D01*
X137709072Y-58679952D01*
X137579952Y-58809072D01*
X137478504Y-58960901D01*
X137408624Y-59129604D01*
X137373000Y-59308699D01*
X137373000Y-59491301D01*
X137408624Y-59670396D01*
X137478504Y-59839099D01*
X137579952Y-59990928D01*
X137709072Y-60120048D01*
X137860901Y-60221496D01*
X138029604Y-60291376D01*
X138208699Y-60327000D01*
X138391301Y-60327000D01*
X138570396Y-60291376D01*
X138739099Y-60221496D01*
X138890928Y-60120048D01*
X139020048Y-59990928D01*
X139121496Y-59839099D01*
X139123000Y-59835467D01*
X139123000Y-63364532D01*
X139121496Y-63360901D01*
X139020048Y-63209072D01*
X138890928Y-63079952D01*
X138739099Y-62978504D01*
X138570396Y-62908624D01*
X138391301Y-62873000D01*
X138208699Y-62873000D01*
X138029604Y-62908624D01*
X137860901Y-62978504D01*
X137709072Y-63079952D01*
X137579952Y-63209072D01*
X137478504Y-63360901D01*
X137408624Y-63529604D01*
X137373000Y-63708699D01*
X137373000Y-63891301D01*
X137408624Y-64070396D01*
X137478504Y-64239099D01*
X137579952Y-64390928D01*
X137709072Y-64520048D01*
X137860901Y-64621496D01*
X138029604Y-64691376D01*
X138188590Y-64723000D01*
X132680423Y-64723000D01*
X131502226Y-63544804D01*
X131481027Y-63518973D01*
X131377941Y-63434372D01*
X131260330Y-63371508D01*
X131132715Y-63332796D01*
X131033252Y-63323000D01*
X131033245Y-63323000D01*
X131000000Y-63319726D01*
X130966755Y-63323000D01*
X126516777Y-63323000D01*
X126527000Y-63271603D01*
X126527000Y-63128397D01*
X126513526Y-63060661D01*
X126517000Y-63025393D01*
X126517000Y-63025391D01*
X126519501Y-63000000D01*
X126517000Y-62974609D01*
X126517000Y-60111134D01*
X126564698Y-60063436D01*
X126644259Y-59944364D01*
X126673453Y-59873883D01*
X126700938Y-60012058D01*
X126755741Y-60144364D01*
X126835302Y-60263436D01*
X126936564Y-60364698D01*
X127055636Y-60444259D01*
X127187942Y-60499062D01*
X127328397Y-60527000D01*
X127471603Y-60527000D01*
X127612058Y-60499062D01*
X127665320Y-60477000D01*
X129119578Y-60477000D01*
X132733679Y-64091101D01*
X132755741Y-64144364D01*
X132835302Y-64263436D01*
X132936564Y-64364698D01*
X133055636Y-64444259D01*
X133187942Y-64499062D01*
X133328397Y-64527000D01*
X133471603Y-64527000D01*
X133612058Y-64499062D01*
X133744364Y-64444259D01*
X133863436Y-64364698D01*
X133964698Y-64263436D01*
X134044259Y-64144364D01*
X134099062Y-64012058D01*
X134127000Y-63871603D01*
X134127000Y-63728397D01*
X134099062Y-63587942D01*
X134044259Y-63455636D01*
X133964698Y-63336564D01*
X133863436Y-63235302D01*
X133744364Y-63155741D01*
X133691101Y-63133679D01*
X133274422Y-62717000D01*
X137088866Y-62717000D01*
X137136564Y-62764698D01*
X137255636Y-62844259D01*
X137387942Y-62899062D01*
X137528397Y-62927000D01*
X137671603Y-62927000D01*
X137812058Y-62899062D01*
X137944364Y-62844259D01*
X138063436Y-62764698D01*
X138164698Y-62663436D01*
X138244259Y-62544364D01*
X138299062Y-62412058D01*
X138327000Y-62271603D01*
X138327000Y-62128397D01*
X138299062Y-61987942D01*
X138244259Y-61855636D01*
X138207084Y-61800000D01*
X138244259Y-61744364D01*
X138299062Y-61612058D01*
X138327000Y-61471603D01*
X138327000Y-61328397D01*
X138299062Y-61187942D01*
X138244259Y-61055636D01*
X138164698Y-60936564D01*
X138063436Y-60835302D01*
X137944364Y-60755741D01*
X137812058Y-60700938D01*
X137671603Y-60673000D01*
X137528397Y-60673000D01*
X137387942Y-60700938D01*
X137255636Y-60755741D01*
X137136564Y-60835302D01*
X137088866Y-60883000D01*
X132458686Y-60883000D01*
X132033821Y-60458135D01*
X132115733Y-60403404D01*
X132216995Y-60302142D01*
X132296556Y-60183070D01*
X132351359Y-60050764D01*
X132379297Y-59910309D01*
X132379297Y-59842853D01*
X134147614Y-58074536D01*
X134167343Y-58058346D01*
X134216207Y-57998804D01*
X134231949Y-57979623D01*
X134260249Y-57926676D01*
X134279956Y-57889807D01*
X134309519Y-57792353D01*
X134317000Y-57716396D01*
X134317000Y-57716395D01*
X134319501Y-57691004D01*
X134317000Y-57665613D01*
X134317000Y-54511134D01*
X134364698Y-54463436D01*
X134444259Y-54344364D01*
X134499062Y-54212058D01*
X134527000Y-54071603D01*
X134527000Y-53928397D01*
X134499062Y-53787942D01*
X134444259Y-53655636D01*
X134364698Y-53536564D01*
X134263436Y-53435302D01*
X134232571Y-53414679D01*
X134327000Y-53320250D01*
X134327000Y-52473000D01*
X134473000Y-52473000D01*
X134473000Y-53320250D01*
X134579750Y-53427000D01*
X135317056Y-53427000D01*
X135399551Y-53410591D01*
X135477260Y-53378403D01*
X135547197Y-53331673D01*
X135606672Y-53272197D01*
X135653402Y-53202261D01*
X135685591Y-53124551D01*
X135702000Y-53042056D01*
X135702000Y-52579750D01*
X138698000Y-52579750D01*
X138698000Y-53042056D01*
X138714409Y-53124551D01*
X138746598Y-53202261D01*
X138793328Y-53272197D01*
X138852803Y-53331673D01*
X138922740Y-53378403D01*
X139000449Y-53410591D01*
X139082944Y-53427000D01*
X139820250Y-53427000D01*
X139927000Y-53320250D01*
X139927000Y-52473000D01*
X138804750Y-52473000D01*
X138698000Y-52579750D01*
X135702000Y-52579750D01*
X135595250Y-52473000D01*
X134473000Y-52473000D01*
X134327000Y-52473000D01*
X133204750Y-52473000D01*
X133098000Y-52579750D01*
X133098000Y-53042056D01*
X133114409Y-53124551D01*
X133146598Y-53202261D01*
X133193328Y-53272197D01*
X133252803Y-53331673D01*
X133322740Y-53378403D01*
X133383842Y-53403712D01*
X133336564Y-53435302D01*
X133300000Y-53471866D01*
X133263436Y-53435302D01*
X133144364Y-53355741D01*
X133012058Y-53300938D01*
X132871603Y-53273000D01*
X132728397Y-53273000D01*
X132587942Y-53300938D01*
X132455636Y-53355741D01*
X132336564Y-53435302D01*
X132235302Y-53536564D01*
X132155741Y-53655636D01*
X132100938Y-53787942D01*
X132073000Y-53928397D01*
X132073000Y-54071603D01*
X132100938Y-54212058D01*
X132155741Y-54344364D01*
X132235302Y-54463436D01*
X132336564Y-54564698D01*
X132455636Y-54644259D01*
X132582999Y-54697015D01*
X132583000Y-56895158D01*
X132471603Y-56873000D01*
X132453645Y-56873000D01*
X132352000Y-56771355D01*
X132352000Y-56476134D01*
X132364698Y-56463436D01*
X132444259Y-56344364D01*
X132499062Y-56212058D01*
X132527000Y-56071603D01*
X132527000Y-55928397D01*
X132499062Y-55787942D01*
X132444259Y-55655636D01*
X132364698Y-55536564D01*
X132263436Y-55435302D01*
X132144364Y-55355741D01*
X132012058Y-55300938D01*
X131871603Y-55273000D01*
X131728397Y-55273000D01*
X131587942Y-55300938D01*
X131455636Y-55355741D01*
X131336564Y-55435302D01*
X131235302Y-55536564D01*
X131155741Y-55655636D01*
X131100938Y-55787942D01*
X131073000Y-55928397D01*
X131073000Y-56071603D01*
X131100938Y-56212058D01*
X131155741Y-56344364D01*
X131235302Y-56463436D01*
X131248000Y-56476134D01*
X131248001Y-56972885D01*
X131245330Y-57000000D01*
X131255989Y-57108210D01*
X131287552Y-57212262D01*
X131338444Y-57307474D01*
X131338810Y-57308158D01*
X131407790Y-57392211D01*
X131428851Y-57409495D01*
X131673000Y-57653645D01*
X131673000Y-57671603D01*
X131700938Y-57812058D01*
X131755741Y-57944364D01*
X131835302Y-58063436D01*
X131915758Y-58143892D01*
X131812058Y-58100938D01*
X131671603Y-58073000D01*
X131542327Y-58073000D01*
X131542327Y-57850717D01*
X131544828Y-57825326D01*
X131537852Y-57754500D01*
X131534846Y-57723977D01*
X131505283Y-57626523D01*
X131473650Y-57567342D01*
X131457276Y-57536707D01*
X131420749Y-57492199D01*
X131392670Y-57457984D01*
X131372942Y-57441794D01*
X128106434Y-54175287D01*
X128106434Y-46718042D01*
X128108935Y-46692651D01*
X128106258Y-46665471D01*
X128103192Y-46634339D01*
X132216467Y-50747615D01*
X132232657Y-50767343D01*
X132311381Y-50831949D01*
X132401196Y-50879956D01*
X132498650Y-50909519D01*
X132574607Y-50917000D01*
X132574609Y-50917000D01*
X132600000Y-50919501D01*
X132625391Y-50917000D01*
X133236840Y-50917000D01*
X133266949Y-50973331D01*
X133395288Y-51129712D01*
X133551669Y-51258051D01*
X133730083Y-51353415D01*
X133794646Y-51373000D01*
X133482944Y-51373000D01*
X133400449Y-51389409D01*
X133322740Y-51421597D01*
X133252803Y-51468327D01*
X133193328Y-51527803D01*
X133146598Y-51597739D01*
X133114409Y-51675449D01*
X133098000Y-51757944D01*
X133098000Y-52220250D01*
X133204750Y-52327000D01*
X134327000Y-52327000D01*
X134327000Y-52307000D01*
X134473000Y-52307000D01*
X134473000Y-52327000D01*
X135595250Y-52327000D01*
X135702000Y-52220250D01*
X135702000Y-51757944D01*
X135685591Y-51675449D01*
X135653402Y-51597739D01*
X135606672Y-51527803D01*
X135547197Y-51468327D01*
X135477260Y-51421597D01*
X135399551Y-51389409D01*
X135317056Y-51373000D01*
X135005354Y-51373000D01*
X135069917Y-51353415D01*
X135248331Y-51258051D01*
X135404712Y-51129712D01*
X135533051Y-50973331D01*
X135628415Y-50794917D01*
X135687140Y-50601327D01*
X135706969Y-50400000D01*
X135687140Y-50198673D01*
X135628415Y-50005083D01*
X135533051Y-49826669D01*
X135404712Y-49670288D01*
X135248331Y-49541949D01*
X135069917Y-49446585D01*
X134916347Y-49400000D01*
X135069917Y-49353415D01*
X135248331Y-49258051D01*
X135404712Y-49129712D01*
X135533051Y-48973331D01*
X135628415Y-48794917D01*
X135687140Y-48601327D01*
X135706969Y-48400000D01*
X135687140Y-48198673D01*
X135628415Y-48005083D01*
X135533051Y-47826669D01*
X135404712Y-47670288D01*
X135248331Y-47541949D01*
X135069917Y-47446585D01*
X134916347Y-47400000D01*
X135069917Y-47353415D01*
X135248331Y-47258051D01*
X135404712Y-47129712D01*
X135533051Y-46973331D01*
X135628415Y-46794917D01*
X135687140Y-46601327D01*
X135706969Y-46400000D01*
X135687140Y-46198673D01*
X135628415Y-46005083D01*
X135533051Y-45826669D01*
X135404712Y-45670288D01*
X135248331Y-45541949D01*
X135069917Y-45446585D01*
X134916347Y-45400000D01*
X135069917Y-45353415D01*
X135248331Y-45258051D01*
X135404712Y-45129712D01*
X135533051Y-44973331D01*
X135628415Y-44794917D01*
X135687140Y-44601327D01*
X135706969Y-44400000D01*
X135687140Y-44198673D01*
X135628415Y-44005083D01*
X135533051Y-43826669D01*
X135404712Y-43670288D01*
X135248331Y-43541949D01*
X135069917Y-43446585D01*
X134916347Y-43400000D01*
X135069917Y-43353415D01*
X135248331Y-43258051D01*
X135404712Y-43129712D01*
X135533051Y-42973331D01*
X135628415Y-42794917D01*
X135687140Y-42601327D01*
X135706969Y-42400000D01*
X135687140Y-42198673D01*
X135628415Y-42005083D01*
X135533051Y-41826669D01*
X135404712Y-41670288D01*
X135248331Y-41541949D01*
X135069917Y-41446585D01*
X134916347Y-41400000D01*
X135069917Y-41353415D01*
X135248331Y-41258051D01*
X135404712Y-41129712D01*
X135533051Y-40973331D01*
X135628415Y-40794917D01*
X135677077Y-40634500D01*
X136523000Y-41480423D01*
X136523000Y-41480423D01*
G37*
X136523000Y-41480423D02*
X136523001Y-48766745D01*
X136519726Y-48800000D01*
X136532796Y-48932714D01*
X136571508Y-49060329D01*
X136634372Y-49177940D01*
X136697776Y-49255198D01*
X136697779Y-49255201D01*
X136718974Y-49281027D01*
X136744800Y-49302222D01*
X138297778Y-50855201D01*
X138318973Y-50881027D01*
X138344799Y-50902222D01*
X138344801Y-50902224D01*
X138422059Y-50965628D01*
X138539670Y-51028492D01*
X138667285Y-51067204D01*
X138800000Y-51080275D01*
X138833252Y-51077000D01*
X138952028Y-51077000D01*
X138995288Y-51129712D01*
X139151669Y-51258051D01*
X139330083Y-51353415D01*
X139394646Y-51373000D01*
X139082944Y-51373000D01*
X139000449Y-51389409D01*
X138922740Y-51421597D01*
X138852803Y-51468327D01*
X138793328Y-51527803D01*
X138746598Y-51597739D01*
X138714409Y-51675449D01*
X138698000Y-51757944D01*
X138698000Y-52220250D01*
X138804750Y-52327000D01*
X139927000Y-52327000D01*
X139927000Y-52307000D01*
X140073000Y-52307000D01*
X140073000Y-52327000D01*
X140093000Y-52327000D01*
X140093000Y-52473000D01*
X140073000Y-52473000D01*
X140073000Y-53320250D01*
X140179750Y-53427000D01*
X140615578Y-53427000D01*
X139344800Y-54697778D01*
X139318974Y-54718973D01*
X139297779Y-54744799D01*
X139297776Y-54744802D01*
X139234372Y-54822060D01*
X139171508Y-54939671D01*
X139132796Y-55067286D01*
X139119726Y-55200000D01*
X139123001Y-55233255D01*
X139123001Y-58964533D01*
X139121496Y-58960901D01*
X139020048Y-58809072D01*
X138890928Y-58679952D01*
X138739099Y-58578504D01*
X138570396Y-58508624D01*
X138391301Y-58473000D01*
X138208699Y-58473000D01*
X138029604Y-58508624D01*
X137860901Y-58578504D01*
X137709072Y-58679952D01*
X137579952Y-58809072D01*
X137478504Y-58960901D01*
X137408624Y-59129604D01*
X137373000Y-59308699D01*
X137373000Y-59491301D01*
X137408624Y-59670396D01*
X137478504Y-59839099D01*
X137579952Y-59990928D01*
X137709072Y-60120048D01*
X137860901Y-60221496D01*
X138029604Y-60291376D01*
X138208699Y-60327000D01*
X138391301Y-60327000D01*
X138570396Y-60291376D01*
X138739099Y-60221496D01*
X138890928Y-60120048D01*
X139020048Y-59990928D01*
X139121496Y-59839099D01*
X139123000Y-59835467D01*
X139123000Y-63364532D01*
X139121496Y-63360901D01*
X139020048Y-63209072D01*
X138890928Y-63079952D01*
X138739099Y-62978504D01*
X138570396Y-62908624D01*
X138391301Y-62873000D01*
X138208699Y-62873000D01*
X138029604Y-62908624D01*
X137860901Y-62978504D01*
X137709072Y-63079952D01*
X137579952Y-63209072D01*
X137478504Y-63360901D01*
X137408624Y-63529604D01*
X137373000Y-63708699D01*
X137373000Y-63891301D01*
X137408624Y-64070396D01*
X137478504Y-64239099D01*
X137579952Y-64390928D01*
X137709072Y-64520048D01*
X137860901Y-64621496D01*
X138029604Y-64691376D01*
X138188590Y-64723000D01*
X132680423Y-64723000D01*
X131502226Y-63544804D01*
X131481027Y-63518973D01*
X131377941Y-63434372D01*
X131260330Y-63371508D01*
X131132715Y-63332796D01*
X131033252Y-63323000D01*
X131033245Y-63323000D01*
X131000000Y-63319726D01*
X130966755Y-63323000D01*
X126516777Y-63323000D01*
X126527000Y-63271603D01*
X126527000Y-63128397D01*
X126513526Y-63060661D01*
X126517000Y-63025393D01*
X126517000Y-63025391D01*
X126519501Y-63000000D01*
X126517000Y-62974609D01*
X126517000Y-60111134D01*
X126564698Y-60063436D01*
X126644259Y-59944364D01*
X126673453Y-59873883D01*
X126700938Y-60012058D01*
X126755741Y-60144364D01*
X126835302Y-60263436D01*
X126936564Y-60364698D01*
X127055636Y-60444259D01*
X127187942Y-60499062D01*
X127328397Y-60527000D01*
X127471603Y-60527000D01*
X127612058Y-60499062D01*
X127665320Y-60477000D01*
X129119578Y-60477000D01*
X132733679Y-64091101D01*
X132755741Y-64144364D01*
X132835302Y-64263436D01*
X132936564Y-64364698D01*
X133055636Y-64444259D01*
X133187942Y-64499062D01*
X133328397Y-64527000D01*
X133471603Y-64527000D01*
X133612058Y-64499062D01*
X133744364Y-64444259D01*
X133863436Y-64364698D01*
X133964698Y-64263436D01*
X134044259Y-64144364D01*
X134099062Y-64012058D01*
X134127000Y-63871603D01*
X134127000Y-63728397D01*
X134099062Y-63587942D01*
X134044259Y-63455636D01*
X133964698Y-63336564D01*
X133863436Y-63235302D01*
X133744364Y-63155741D01*
X133691101Y-63133679D01*
X133274422Y-62717000D01*
X137088866Y-62717000D01*
X137136564Y-62764698D01*
X137255636Y-62844259D01*
X137387942Y-62899062D01*
X137528397Y-62927000D01*
X137671603Y-62927000D01*
X137812058Y-62899062D01*
X137944364Y-62844259D01*
X138063436Y-62764698D01*
X138164698Y-62663436D01*
X138244259Y-62544364D01*
X138299062Y-62412058D01*
X138327000Y-62271603D01*
X138327000Y-62128397D01*
X138299062Y-61987942D01*
X138244259Y-61855636D01*
X138207084Y-61800000D01*
X138244259Y-61744364D01*
X138299062Y-61612058D01*
X138327000Y-61471603D01*
X138327000Y-61328397D01*
X138299062Y-61187942D01*
X138244259Y-61055636D01*
X138164698Y-60936564D01*
X138063436Y-60835302D01*
X137944364Y-60755741D01*
X137812058Y-60700938D01*
X137671603Y-60673000D01*
X137528397Y-60673000D01*
X137387942Y-60700938D01*
X137255636Y-60755741D01*
X137136564Y-60835302D01*
X137088866Y-60883000D01*
X132458686Y-60883000D01*
X132033821Y-60458135D01*
X132115733Y-60403404D01*
X132216995Y-60302142D01*
X132296556Y-60183070D01*
X132351359Y-60050764D01*
X132379297Y-59910309D01*
X132379297Y-59842853D01*
X134147614Y-58074536D01*
X134167343Y-58058346D01*
X134216207Y-57998804D01*
X134231949Y-57979623D01*
X134260249Y-57926676D01*
X134279956Y-57889807D01*
X134309519Y-57792353D01*
X134317000Y-57716396D01*
X134317000Y-57716395D01*
X134319501Y-57691004D01*
X134317000Y-57665613D01*
X134317000Y-54511134D01*
X134364698Y-54463436D01*
X134444259Y-54344364D01*
X134499062Y-54212058D01*
X134527000Y-54071603D01*
X134527000Y-53928397D01*
X134499062Y-53787942D01*
X134444259Y-53655636D01*
X134364698Y-53536564D01*
X134263436Y-53435302D01*
X134232571Y-53414679D01*
X134327000Y-53320250D01*
X134327000Y-52473000D01*
X134473000Y-52473000D01*
X134473000Y-53320250D01*
X134579750Y-53427000D01*
X135317056Y-53427000D01*
X135399551Y-53410591D01*
X135477260Y-53378403D01*
X135547197Y-53331673D01*
X135606672Y-53272197D01*
X135653402Y-53202261D01*
X135685591Y-53124551D01*
X135702000Y-53042056D01*
X135702000Y-52579750D01*
X138698000Y-52579750D01*
X138698000Y-53042056D01*
X138714409Y-53124551D01*
X138746598Y-53202261D01*
X138793328Y-53272197D01*
X138852803Y-53331673D01*
X138922740Y-53378403D01*
X139000449Y-53410591D01*
X139082944Y-53427000D01*
X139820250Y-53427000D01*
X139927000Y-53320250D01*
X139927000Y-52473000D01*
X138804750Y-52473000D01*
X138698000Y-52579750D01*
X135702000Y-52579750D01*
X135595250Y-52473000D01*
X134473000Y-52473000D01*
X134327000Y-52473000D01*
X133204750Y-52473000D01*
X133098000Y-52579750D01*
X133098000Y-53042056D01*
X133114409Y-53124551D01*
X133146598Y-53202261D01*
X133193328Y-53272197D01*
X133252803Y-53331673D01*
X133322740Y-53378403D01*
X133383842Y-53403712D01*
X133336564Y-53435302D01*
X133300000Y-53471866D01*
X133263436Y-53435302D01*
X133144364Y-53355741D01*
X133012058Y-53300938D01*
X132871603Y-53273000D01*
X132728397Y-53273000D01*
X132587942Y-53300938D01*
X132455636Y-53355741D01*
X132336564Y-53435302D01*
X132235302Y-53536564D01*
X132155741Y-53655636D01*
X132100938Y-53787942D01*
X132073000Y-53928397D01*
X132073000Y-54071603D01*
X132100938Y-54212058D01*
X132155741Y-54344364D01*
X132235302Y-54463436D01*
X132336564Y-54564698D01*
X132455636Y-54644259D01*
X132582999Y-54697015D01*
X132583000Y-56895158D01*
X132471603Y-56873000D01*
X132453645Y-56873000D01*
X132352000Y-56771355D01*
X132352000Y-56476134D01*
X132364698Y-56463436D01*
X132444259Y-56344364D01*
X132499062Y-56212058D01*
X132527000Y-56071603D01*
X132527000Y-55928397D01*
X132499062Y-55787942D01*
X132444259Y-55655636D01*
X132364698Y-55536564D01*
X132263436Y-55435302D01*
X132144364Y-55355741D01*
X132012058Y-55300938D01*
X131871603Y-55273000D01*
X131728397Y-55273000D01*
X131587942Y-55300938D01*
X131455636Y-55355741D01*
X131336564Y-55435302D01*
X131235302Y-55536564D01*
X131155741Y-55655636D01*
X131100938Y-55787942D01*
X131073000Y-55928397D01*
X131073000Y-56071603D01*
X131100938Y-56212058D01*
X131155741Y-56344364D01*
X131235302Y-56463436D01*
X131248000Y-56476134D01*
X131248001Y-56972885D01*
X131245330Y-57000000D01*
X131255989Y-57108210D01*
X131287552Y-57212262D01*
X131338444Y-57307474D01*
X131338810Y-57308158D01*
X131407790Y-57392211D01*
X131428851Y-57409495D01*
X131673000Y-57653645D01*
X131673000Y-57671603D01*
X131700938Y-57812058D01*
X131755741Y-57944364D01*
X131835302Y-58063436D01*
X131915758Y-58143892D01*
X131812058Y-58100938D01*
X131671603Y-58073000D01*
X131542327Y-58073000D01*
X131542327Y-57850717D01*
X131544828Y-57825326D01*
X131537852Y-57754500D01*
X131534846Y-57723977D01*
X131505283Y-57626523D01*
X131473650Y-57567342D01*
X131457276Y-57536707D01*
X131420749Y-57492199D01*
X131392670Y-57457984D01*
X131372942Y-57441794D01*
X128106434Y-54175287D01*
X128106434Y-46718042D01*
X128108935Y-46692651D01*
X128106258Y-46665471D01*
X128103192Y-46634339D01*
X132216467Y-50747615D01*
X132232657Y-50767343D01*
X132311381Y-50831949D01*
X132401196Y-50879956D01*
X132498650Y-50909519D01*
X132574607Y-50917000D01*
X132574609Y-50917000D01*
X132600000Y-50919501D01*
X132625391Y-50917000D01*
X133236840Y-50917000D01*
X133266949Y-50973331D01*
X133395288Y-51129712D01*
X133551669Y-51258051D01*
X133730083Y-51353415D01*
X133794646Y-51373000D01*
X133482944Y-51373000D01*
X133400449Y-51389409D01*
X133322740Y-51421597D01*
X133252803Y-51468327D01*
X133193328Y-51527803D01*
X133146598Y-51597739D01*
X133114409Y-51675449D01*
X133098000Y-51757944D01*
X133098000Y-52220250D01*
X133204750Y-52327000D01*
X134327000Y-52327000D01*
X134327000Y-52307000D01*
X134473000Y-52307000D01*
X134473000Y-52327000D01*
X135595250Y-52327000D01*
X135702000Y-52220250D01*
X135702000Y-51757944D01*
X135685591Y-51675449D01*
X135653402Y-51597739D01*
X135606672Y-51527803D01*
X135547197Y-51468327D01*
X135477260Y-51421597D01*
X135399551Y-51389409D01*
X135317056Y-51373000D01*
X135005354Y-51373000D01*
X135069917Y-51353415D01*
X135248331Y-51258051D01*
X135404712Y-51129712D01*
X135533051Y-50973331D01*
X135628415Y-50794917D01*
X135687140Y-50601327D01*
X135706969Y-50400000D01*
X135687140Y-50198673D01*
X135628415Y-50005083D01*
X135533051Y-49826669D01*
X135404712Y-49670288D01*
X135248331Y-49541949D01*
X135069917Y-49446585D01*
X134916347Y-49400000D01*
X135069917Y-49353415D01*
X135248331Y-49258051D01*
X135404712Y-49129712D01*
X135533051Y-48973331D01*
X135628415Y-48794917D01*
X135687140Y-48601327D01*
X135706969Y-48400000D01*
X135687140Y-48198673D01*
X135628415Y-48005083D01*
X135533051Y-47826669D01*
X135404712Y-47670288D01*
X135248331Y-47541949D01*
X135069917Y-47446585D01*
X134916347Y-47400000D01*
X135069917Y-47353415D01*
X135248331Y-47258051D01*
X135404712Y-47129712D01*
X135533051Y-46973331D01*
X135628415Y-46794917D01*
X135687140Y-46601327D01*
X135706969Y-46400000D01*
X135687140Y-46198673D01*
X135628415Y-46005083D01*
X135533051Y-45826669D01*
X135404712Y-45670288D01*
X135248331Y-45541949D01*
X135069917Y-45446585D01*
X134916347Y-45400000D01*
X135069917Y-45353415D01*
X135248331Y-45258051D01*
X135404712Y-45129712D01*
X135533051Y-44973331D01*
X135628415Y-44794917D01*
X135687140Y-44601327D01*
X135706969Y-44400000D01*
X135687140Y-44198673D01*
X135628415Y-44005083D01*
X135533051Y-43826669D01*
X135404712Y-43670288D01*
X135248331Y-43541949D01*
X135069917Y-43446585D01*
X134916347Y-43400000D01*
X135069917Y-43353415D01*
X135248331Y-43258051D01*
X135404712Y-43129712D01*
X135533051Y-42973331D01*
X135628415Y-42794917D01*
X135687140Y-42601327D01*
X135706969Y-42400000D01*
X135687140Y-42198673D01*
X135628415Y-42005083D01*
X135533051Y-41826669D01*
X135404712Y-41670288D01*
X135248331Y-41541949D01*
X135069917Y-41446585D01*
X134916347Y-41400000D01*
X135069917Y-41353415D01*
X135248331Y-41258051D01*
X135404712Y-41129712D01*
X135533051Y-40973331D01*
X135628415Y-40794917D01*
X135677077Y-40634500D01*
X136523000Y-41480423D01*
G36*
X124704637Y-48018246D02*
X122727000Y-49995884D01*
X122727000Y-49928397D01*
X122699062Y-49787942D01*
X122644259Y-49655636D01*
X122564698Y-49536564D01*
X122463436Y-49435302D01*
X122344364Y-49355741D01*
X122315874Y-49343940D01*
X122470988Y-49343940D01*
X122496379Y-49346441D01*
X122521770Y-49343940D01*
X122521772Y-49343940D01*
X122597729Y-49336459D01*
X122695183Y-49306896D01*
X122784998Y-49258889D01*
X122863722Y-49194283D01*
X122879917Y-49174549D01*
X124704637Y-47349830D01*
X124704637Y-48018246D01*
X124704637Y-48018246D01*
G37*
X124704637Y-48018246D02*
X122727000Y-49995884D01*
X122727000Y-49928397D01*
X122699062Y-49787942D01*
X122644259Y-49655636D01*
X122564698Y-49536564D01*
X122463436Y-49435302D01*
X122344364Y-49355741D01*
X122315874Y-49343940D01*
X122470988Y-49343940D01*
X122496379Y-49346441D01*
X122521770Y-49343940D01*
X122521772Y-49343940D01*
X122597729Y-49336459D01*
X122695183Y-49306896D01*
X122784998Y-49258889D01*
X122863722Y-49194283D01*
X122879917Y-49174549D01*
X124704637Y-47349830D01*
X124704637Y-48018246D01*
G36*
X126587942Y-38069072D02*
X126728397Y-38097010D01*
X126795853Y-38097010D01*
X131446457Y-42747615D01*
X131462647Y-42767343D01*
X131502442Y-42800001D01*
X131541370Y-42831949D01*
X131589377Y-42857609D01*
X131631186Y-42879956D01*
X131728640Y-42909519D01*
X131804597Y-42917000D01*
X131804598Y-42917000D01*
X131829989Y-42919501D01*
X131855380Y-42917000D01*
X133236840Y-42917000D01*
X133266949Y-42973331D01*
X133395288Y-43129712D01*
X133551669Y-43258051D01*
X133730083Y-43353415D01*
X133883653Y-43400000D01*
X133730083Y-43446585D01*
X133551669Y-43541949D01*
X133395288Y-43670288D01*
X133266949Y-43826669D01*
X133171585Y-44005083D01*
X133112860Y-44198673D01*
X133093031Y-44400000D01*
X133112860Y-44601327D01*
X133171585Y-44794917D01*
X133266949Y-44973331D01*
X133395288Y-45129712D01*
X133551669Y-45258051D01*
X133730083Y-45353415D01*
X133883653Y-45400000D01*
X133730083Y-45446585D01*
X133551669Y-45541949D01*
X133395288Y-45670288D01*
X133266949Y-45826669D01*
X133230749Y-45894395D01*
X133146196Y-45920044D01*
X133115308Y-45936554D01*
X133056380Y-45968051D01*
X133026292Y-45992744D01*
X132977657Y-46032657D01*
X132961466Y-46052386D01*
X131930853Y-47083000D01*
X131650811Y-47083000D01*
X131744364Y-47044249D01*
X131863436Y-46964688D01*
X131964698Y-46863426D01*
X132044259Y-46744354D01*
X132099062Y-46612048D01*
X132127000Y-46471593D01*
X132127000Y-46328387D01*
X132099062Y-46187932D01*
X132044259Y-46055626D01*
X131964698Y-45936554D01*
X131863436Y-45835292D01*
X131744364Y-45755731D01*
X131612058Y-45700928D01*
X131471603Y-45672990D01*
X131328397Y-45672990D01*
X131187942Y-45700928D01*
X131055636Y-45755731D01*
X130936564Y-45835292D01*
X130888856Y-45883000D01*
X130814148Y-45883000D01*
X126517000Y-41585853D01*
X126517000Y-38039687D01*
X126587942Y-38069072D01*
X126587942Y-38069072D01*
G37*
X126587942Y-38069072D02*
X126728397Y-38097010D01*
X126795853Y-38097010D01*
X131446457Y-42747615D01*
X131462647Y-42767343D01*
X131502442Y-42800001D01*
X131541370Y-42831949D01*
X131589377Y-42857609D01*
X131631186Y-42879956D01*
X131728640Y-42909519D01*
X131804597Y-42917000D01*
X131804598Y-42917000D01*
X131829989Y-42919501D01*
X131855380Y-42917000D01*
X133236840Y-42917000D01*
X133266949Y-42973331D01*
X133395288Y-43129712D01*
X133551669Y-43258051D01*
X133730083Y-43353415D01*
X133883653Y-43400000D01*
X133730083Y-43446585D01*
X133551669Y-43541949D01*
X133395288Y-43670288D01*
X133266949Y-43826669D01*
X133171585Y-44005083D01*
X133112860Y-44198673D01*
X133093031Y-44400000D01*
X133112860Y-44601327D01*
X133171585Y-44794917D01*
X133266949Y-44973331D01*
X133395288Y-45129712D01*
X133551669Y-45258051D01*
X133730083Y-45353415D01*
X133883653Y-45400000D01*
X133730083Y-45446585D01*
X133551669Y-45541949D01*
X133395288Y-45670288D01*
X133266949Y-45826669D01*
X133230749Y-45894395D01*
X133146196Y-45920044D01*
X133115308Y-45936554D01*
X133056380Y-45968051D01*
X133026292Y-45992744D01*
X132977657Y-46032657D01*
X132961466Y-46052386D01*
X131930853Y-47083000D01*
X131650811Y-47083000D01*
X131744364Y-47044249D01*
X131863436Y-46964688D01*
X131964698Y-46863426D01*
X132044259Y-46744354D01*
X132099062Y-46612048D01*
X132127000Y-46471593D01*
X132127000Y-46328387D01*
X132099062Y-46187932D01*
X132044259Y-46055626D01*
X131964698Y-45936554D01*
X131863436Y-45835292D01*
X131744364Y-45755731D01*
X131612058Y-45700928D01*
X131471603Y-45672990D01*
X131328397Y-45672990D01*
X131187942Y-45700928D01*
X131055636Y-45755731D01*
X130936564Y-45835292D01*
X130888856Y-45883000D01*
X130814148Y-45883000D01*
X126517000Y-41585853D01*
X126517000Y-38039687D01*
X126587942Y-38069072D01*
G36*
X138866949Y-40373331D02*
X138995288Y-40529712D01*
X139151669Y-40658051D01*
X139330083Y-40753415D01*
X139394646Y-40773000D01*
X139082944Y-40773000D01*
X139000449Y-40789409D01*
X138922740Y-40821597D01*
X138852803Y-40868327D01*
X138793328Y-40927803D01*
X138746598Y-40997739D01*
X138714409Y-41075449D01*
X138698000Y-41157944D01*
X138698000Y-41620250D01*
X138804750Y-41727000D01*
X139927000Y-41727000D01*
X139927000Y-41707000D01*
X140073000Y-41707000D01*
X140073000Y-41727000D01*
X140093000Y-41727000D01*
X140093000Y-41873000D01*
X140073000Y-41873000D01*
X140073000Y-42720250D01*
X140179750Y-42827000D01*
X140686288Y-42827000D01*
X137978423Y-45534866D01*
X137954500Y-45554499D01*
X137877000Y-45648934D01*
X137877000Y-41979750D01*
X138698000Y-41979750D01*
X138698000Y-42442056D01*
X138714409Y-42524551D01*
X138746598Y-42602261D01*
X138793328Y-42672197D01*
X138852803Y-42731673D01*
X138922740Y-42778403D01*
X139000449Y-42810591D01*
X139082944Y-42827000D01*
X139820250Y-42827000D01*
X139927000Y-42720250D01*
X139927000Y-41873000D01*
X138804750Y-41873000D01*
X138698000Y-41979750D01*
X137877000Y-41979750D01*
X137877000Y-41233245D01*
X137880274Y-41200000D01*
X137877000Y-41166755D01*
X137877000Y-41166748D01*
X137867204Y-41067285D01*
X137828492Y-40939670D01*
X137765628Y-40822059D01*
X137764770Y-40821013D01*
X137702224Y-40744801D01*
X137702218Y-40744795D01*
X137681026Y-40718973D01*
X137655206Y-40697783D01*
X137274423Y-40317000D01*
X138836840Y-40317000D01*
X138866949Y-40373331D01*
X138866949Y-40373331D01*
G37*
X138866949Y-40373331D02*
X138995288Y-40529712D01*
X139151669Y-40658051D01*
X139330083Y-40753415D01*
X139394646Y-40773000D01*
X139082944Y-40773000D01*
X139000449Y-40789409D01*
X138922740Y-40821597D01*
X138852803Y-40868327D01*
X138793328Y-40927803D01*
X138746598Y-40997739D01*
X138714409Y-41075449D01*
X138698000Y-41157944D01*
X138698000Y-41620250D01*
X138804750Y-41727000D01*
X139927000Y-41727000D01*
X139927000Y-41707000D01*
X140073000Y-41707000D01*
X140073000Y-41727000D01*
X140093000Y-41727000D01*
X140093000Y-41873000D01*
X140073000Y-41873000D01*
X140073000Y-42720250D01*
X140179750Y-42827000D01*
X140686288Y-42827000D01*
X137978423Y-45534866D01*
X137954500Y-45554499D01*
X137877000Y-45648934D01*
X137877000Y-41979750D01*
X138698000Y-41979750D01*
X138698000Y-42442056D01*
X138714409Y-42524551D01*
X138746598Y-42602261D01*
X138793328Y-42672197D01*
X138852803Y-42731673D01*
X138922740Y-42778403D01*
X139000449Y-42810591D01*
X139082944Y-42827000D01*
X139820250Y-42827000D01*
X139927000Y-42720250D01*
X139927000Y-41873000D01*
X138804750Y-41873000D01*
X138698000Y-41979750D01*
X137877000Y-41979750D01*
X137877000Y-41233245D01*
X137880274Y-41200000D01*
X137877000Y-41166755D01*
X137877000Y-41166748D01*
X137867204Y-41067285D01*
X137828492Y-40939670D01*
X137765628Y-40822059D01*
X137764770Y-40821013D01*
X137702224Y-40744801D01*
X137702218Y-40744795D01*
X137681026Y-40718973D01*
X137655206Y-40697783D01*
X137274423Y-40317000D01*
X138836840Y-40317000D01*
X138866949Y-40373331D01*
G36*
X117316293Y-34010178D02*
X117235804Y-34034595D01*
X117161624Y-34074245D01*
X117096605Y-34127605D01*
X117043245Y-34192624D01*
X117003595Y-34266804D01*
X116979178Y-34347293D01*
X116970934Y-34431000D01*
X116970934Y-36181000D01*
X116979178Y-36264707D01*
X117003595Y-36345196D01*
X117043245Y-36419376D01*
X117096605Y-36484395D01*
X117161624Y-36537755D01*
X117235804Y-36577405D01*
X117316293Y-36601822D01*
X117400000Y-36610066D01*
X118600000Y-36610066D01*
X118683707Y-36601822D01*
X118764196Y-36577405D01*
X118838376Y-36537755D01*
X118903395Y-36484395D01*
X118956755Y-36419376D01*
X118996405Y-36345196D01*
X119020822Y-36264707D01*
X119029066Y-36181000D01*
X119029066Y-35918165D01*
X119046585Y-35975917D01*
X119141950Y-36154331D01*
X119270289Y-36310712D01*
X119426670Y-36439051D01*
X119483000Y-36469160D01*
X119483001Y-39774599D01*
X119480499Y-39800000D01*
X119489622Y-39892620D01*
X119490482Y-39901350D01*
X119511727Y-39971383D01*
X119520045Y-39998804D01*
X119558739Y-40071198D01*
X114339932Y-34852391D01*
X114323737Y-34832657D01*
X114245013Y-34768051D01*
X114155198Y-34720044D01*
X114057744Y-34690481D01*
X113981787Y-34683000D01*
X113981785Y-34683000D01*
X113956394Y-34680499D01*
X113931003Y-34683000D01*
X104625390Y-34683000D01*
X104599999Y-34680499D01*
X104574608Y-34683000D01*
X104574607Y-34683000D01*
X104498650Y-34690481D01*
X104401196Y-34720044D01*
X104359387Y-34742391D01*
X104311380Y-34768051D01*
X104287243Y-34787860D01*
X104232657Y-34832657D01*
X104216467Y-34852385D01*
X101995853Y-37073000D01*
X101928397Y-37073000D01*
X101787942Y-37100938D01*
X101655636Y-37155741D01*
X101536564Y-37235302D01*
X101435302Y-37336564D01*
X101355741Y-37455636D01*
X101300938Y-37587942D01*
X101273000Y-37728397D01*
X101273000Y-37871603D01*
X101300938Y-38012058D01*
X101355741Y-38144364D01*
X101435302Y-38263436D01*
X101536564Y-38364698D01*
X101655636Y-38444259D01*
X101787942Y-38499062D01*
X101928397Y-38527000D01*
X102071603Y-38527000D01*
X102212058Y-38499062D01*
X102344364Y-38444259D01*
X102463436Y-38364698D01*
X102564698Y-38263436D01*
X102644259Y-38144364D01*
X102699062Y-38012058D01*
X102727000Y-37871603D01*
X102727000Y-37804147D01*
X104814148Y-35717000D01*
X107351852Y-35717000D01*
X105995853Y-37073000D01*
X105928397Y-37073000D01*
X105787942Y-37100938D01*
X105655636Y-37155741D01*
X105536564Y-37235302D01*
X105435302Y-37336564D01*
X105355741Y-37455636D01*
X105300938Y-37587942D01*
X105273000Y-37728397D01*
X105273000Y-37871603D01*
X105300938Y-38012058D01*
X105355741Y-38144364D01*
X105435302Y-38263436D01*
X105536564Y-38364698D01*
X105655636Y-38444259D01*
X105787942Y-38499062D01*
X105928397Y-38527000D01*
X106071603Y-38527000D01*
X106212058Y-38499062D01*
X106344364Y-38444259D01*
X106463436Y-38364698D01*
X106564698Y-38263436D01*
X106644259Y-38144364D01*
X106699062Y-38012058D01*
X106727000Y-37871603D01*
X106727000Y-37804147D01*
X106890435Y-37640713D01*
X106873000Y-37728363D01*
X106873000Y-37871569D01*
X106900938Y-38012024D01*
X106955741Y-38144330D01*
X107035302Y-38263402D01*
X107136564Y-38364664D01*
X107255636Y-38444225D01*
X107387942Y-38499028D01*
X107528397Y-38526966D01*
X107671603Y-38526966D01*
X107812058Y-38499028D01*
X107944364Y-38444225D01*
X108063436Y-38364664D01*
X108164698Y-38263402D01*
X108244259Y-38144330D01*
X108299062Y-38012024D01*
X108327000Y-37871569D01*
X108327000Y-37804113D01*
X109214114Y-36917000D01*
X113669046Y-36917000D01*
X113694437Y-36919501D01*
X113719828Y-36917000D01*
X113719830Y-36917000D01*
X113778736Y-36911198D01*
X113855863Y-36962733D01*
X113988169Y-37017536D01*
X114128624Y-37045474D01*
X114271830Y-37045474D01*
X114412285Y-37017536D01*
X114544591Y-36962733D01*
X114663663Y-36883172D01*
X114764925Y-36781910D01*
X114781841Y-36756594D01*
X116651464Y-38626217D01*
X104482173Y-38626217D01*
X104456782Y-38623716D01*
X104431391Y-38626217D01*
X104431390Y-38626217D01*
X104355433Y-38633698D01*
X104257979Y-38663261D01*
X104216170Y-38685608D01*
X104168163Y-38711268D01*
X104147292Y-38728397D01*
X104089440Y-38775874D01*
X104073250Y-38795602D01*
X99052386Y-43816467D01*
X99032658Y-43832657D01*
X99016310Y-43852578D01*
X98968051Y-43911381D01*
X98930646Y-43981362D01*
X98927000Y-43988184D01*
X98927000Y-34002000D01*
X117399330Y-34002000D01*
X117316293Y-34010178D01*
X117316293Y-34010178D01*
G37*
X117316293Y-34010178D02*
X117235804Y-34034595D01*
X117161624Y-34074245D01*
X117096605Y-34127605D01*
X117043245Y-34192624D01*
X117003595Y-34266804D01*
X116979178Y-34347293D01*
X116970934Y-34431000D01*
X116970934Y-36181000D01*
X116979178Y-36264707D01*
X117003595Y-36345196D01*
X117043245Y-36419376D01*
X117096605Y-36484395D01*
X117161624Y-36537755D01*
X117235804Y-36577405D01*
X117316293Y-36601822D01*
X117400000Y-36610066D01*
X118600000Y-36610066D01*
X118683707Y-36601822D01*
X118764196Y-36577405D01*
X118838376Y-36537755D01*
X118903395Y-36484395D01*
X118956755Y-36419376D01*
X118996405Y-36345196D01*
X119020822Y-36264707D01*
X119029066Y-36181000D01*
X119029066Y-35918165D01*
X119046585Y-35975917D01*
X119141950Y-36154331D01*
X119270289Y-36310712D01*
X119426670Y-36439051D01*
X119483000Y-36469160D01*
X119483001Y-39774599D01*
X119480499Y-39800000D01*
X119489622Y-39892620D01*
X119490482Y-39901350D01*
X119511727Y-39971383D01*
X119520045Y-39998804D01*
X119558739Y-40071198D01*
X114339932Y-34852391D01*
X114323737Y-34832657D01*
X114245013Y-34768051D01*
X114155198Y-34720044D01*
X114057744Y-34690481D01*
X113981787Y-34683000D01*
X113981785Y-34683000D01*
X113956394Y-34680499D01*
X113931003Y-34683000D01*
X104625390Y-34683000D01*
X104599999Y-34680499D01*
X104574608Y-34683000D01*
X104574607Y-34683000D01*
X104498650Y-34690481D01*
X104401196Y-34720044D01*
X104359387Y-34742391D01*
X104311380Y-34768051D01*
X104287243Y-34787860D01*
X104232657Y-34832657D01*
X104216467Y-34852385D01*
X101995853Y-37073000D01*
X101928397Y-37073000D01*
X101787942Y-37100938D01*
X101655636Y-37155741D01*
X101536564Y-37235302D01*
X101435302Y-37336564D01*
X101355741Y-37455636D01*
X101300938Y-37587942D01*
X101273000Y-37728397D01*
X101273000Y-37871603D01*
X101300938Y-38012058D01*
X101355741Y-38144364D01*
X101435302Y-38263436D01*
X101536564Y-38364698D01*
X101655636Y-38444259D01*
X101787942Y-38499062D01*
X101928397Y-38527000D01*
X102071603Y-38527000D01*
X102212058Y-38499062D01*
X102344364Y-38444259D01*
X102463436Y-38364698D01*
X102564698Y-38263436D01*
X102644259Y-38144364D01*
X102699062Y-38012058D01*
X102727000Y-37871603D01*
X102727000Y-37804147D01*
X104814148Y-35717000D01*
X107351852Y-35717000D01*
X105995853Y-37073000D01*
X105928397Y-37073000D01*
X105787942Y-37100938D01*
X105655636Y-37155741D01*
X105536564Y-37235302D01*
X105435302Y-37336564D01*
X105355741Y-37455636D01*
X105300938Y-37587942D01*
X105273000Y-37728397D01*
X105273000Y-37871603D01*
X105300938Y-38012058D01*
X105355741Y-38144364D01*
X105435302Y-38263436D01*
X105536564Y-38364698D01*
X105655636Y-38444259D01*
X105787942Y-38499062D01*
X105928397Y-38527000D01*
X106071603Y-38527000D01*
X106212058Y-38499062D01*
X106344364Y-38444259D01*
X106463436Y-38364698D01*
X106564698Y-38263436D01*
X106644259Y-38144364D01*
X106699062Y-38012058D01*
X106727000Y-37871603D01*
X106727000Y-37804147D01*
X106890435Y-37640713D01*
X106873000Y-37728363D01*
X106873000Y-37871569D01*
X106900938Y-38012024D01*
X106955741Y-38144330D01*
X107035302Y-38263402D01*
X107136564Y-38364664D01*
X107255636Y-38444225D01*
X107387942Y-38499028D01*
X107528397Y-38526966D01*
X107671603Y-38526966D01*
X107812058Y-38499028D01*
X107944364Y-38444225D01*
X108063436Y-38364664D01*
X108164698Y-38263402D01*
X108244259Y-38144330D01*
X108299062Y-38012024D01*
X108327000Y-37871569D01*
X108327000Y-37804113D01*
X109214114Y-36917000D01*
X113669046Y-36917000D01*
X113694437Y-36919501D01*
X113719828Y-36917000D01*
X113719830Y-36917000D01*
X113778736Y-36911198D01*
X113855863Y-36962733D01*
X113988169Y-37017536D01*
X114128624Y-37045474D01*
X114271830Y-37045474D01*
X114412285Y-37017536D01*
X114544591Y-36962733D01*
X114663663Y-36883172D01*
X114764925Y-36781910D01*
X114781841Y-36756594D01*
X116651464Y-38626217D01*
X104482173Y-38626217D01*
X104456782Y-38623716D01*
X104431391Y-38626217D01*
X104431390Y-38626217D01*
X104355433Y-38633698D01*
X104257979Y-38663261D01*
X104216170Y-38685608D01*
X104168163Y-38711268D01*
X104147292Y-38728397D01*
X104089440Y-38775874D01*
X104073250Y-38795602D01*
X99052386Y-43816467D01*
X99032658Y-43832657D01*
X99016310Y-43852578D01*
X98968051Y-43911381D01*
X98930646Y-43981362D01*
X98927000Y-43988184D01*
X98927000Y-34002000D01*
X117399330Y-34002000D01*
X117316293Y-34010178D01*
G36*
X125798673Y-34018860D02*
X125605083Y-34077585D01*
X125426669Y-34172949D01*
X125270288Y-34301288D01*
X125141949Y-34457669D01*
X125046585Y-34636084D01*
X124998882Y-34793340D01*
X124993025Y-34759045D01*
X124920889Y-34570541D01*
X124813363Y-34399732D01*
X124674580Y-34253182D01*
X124509873Y-34136524D01*
X124325572Y-34054240D01*
X124232353Y-34030630D01*
X124073000Y-34113650D01*
X124073000Y-35233000D01*
X124093000Y-35233000D01*
X124093000Y-35379000D01*
X124073000Y-35379000D01*
X124073000Y-35399000D01*
X123927000Y-35399000D01*
X123927000Y-35379000D01*
X123907000Y-35379000D01*
X123907000Y-35233000D01*
X123927000Y-35233000D01*
X123927000Y-34113650D01*
X123767647Y-34030630D01*
X123674428Y-34054240D01*
X123490127Y-34136524D01*
X123325420Y-34253182D01*
X123186637Y-34399732D01*
X123079111Y-34570541D01*
X123006975Y-34759045D01*
X123001119Y-34793340D01*
X122953415Y-34636083D01*
X122858051Y-34457669D01*
X122729712Y-34301288D01*
X122573331Y-34172949D01*
X122394916Y-34077585D01*
X122201326Y-34018860D01*
X122030145Y-34002000D01*
X125969855Y-34002000D01*
X125798673Y-34018860D01*
X125798673Y-34018860D01*
G37*
X125798673Y-34018860D02*
X125605083Y-34077585D01*
X125426669Y-34172949D01*
X125270288Y-34301288D01*
X125141949Y-34457669D01*
X125046585Y-34636084D01*
X124998882Y-34793340D01*
X124993025Y-34759045D01*
X124920889Y-34570541D01*
X124813363Y-34399732D01*
X124674580Y-34253182D01*
X124509873Y-34136524D01*
X124325572Y-34054240D01*
X124232353Y-34030630D01*
X124073000Y-34113650D01*
X124073000Y-35233000D01*
X124093000Y-35233000D01*
X124093000Y-35379000D01*
X124073000Y-35379000D01*
X124073000Y-35399000D01*
X123927000Y-35399000D01*
X123927000Y-35379000D01*
X123907000Y-35379000D01*
X123907000Y-35233000D01*
X123927000Y-35233000D01*
X123927000Y-34113650D01*
X123767647Y-34030630D01*
X123674428Y-34054240D01*
X123490127Y-34136524D01*
X123325420Y-34253182D01*
X123186637Y-34399732D01*
X123079111Y-34570541D01*
X123006975Y-34759045D01*
X123001119Y-34793340D01*
X122953415Y-34636083D01*
X122858051Y-34457669D01*
X122729712Y-34301288D01*
X122573331Y-34172949D01*
X122394916Y-34077585D01*
X122201326Y-34018860D01*
X122030145Y-34002000D01*
X125969855Y-34002000D01*
X125798673Y-34018860D01*
M02*
