G04 #@! TF.GenerationSoftware,KiCad,Pcbnew,5.0.0-rc2-dev-unknown-bf135b0~64~ubuntu16.04.1*
G04 #@! TF.CreationDate,2018-05-07T12:38:37+02:00*
G04 #@! TF.ProjectId,uwb_pcb,7577625F7063622E6B696361645F7063,rev?*
G04 #@! TF.SameCoordinates,Original*
G04 #@! TF.FileFunction,Legend,Bot*
G04 #@! TF.FilePolarity,Positive*
%FSLAX46Y46*%
G04 Gerber Fmt 4.6, Leading zero omitted, Abs format (unit mm)*
G04 Created by KiCad (PCBNEW 5.0.0-rc2-dev-unknown-bf135b0~64~ubuntu16.04.1) date Mon May  7 12:38:37 2018*
%MOMM*%
%LPD*%
G01*
G04 APERTURE LIST*
%ADD10C,0.300000*%
%ADD11C,0.200000*%
%ADD12C,0.150000*%
%ADD13R,1.850000X1.300000*%
%ADD14O,1.850000X1.300000*%
%ADD15C,3.300000*%
%ADD16R,1.300000X1.850000*%
%ADD17O,1.300000X1.850000*%
%ADD18C,1.100000*%
G04 APERTURE END LIST*
D10*
X100650000Y-38192857D02*
X100650000Y-38907142D01*
X101078571Y-38050000D02*
X99578571Y-38550000D01*
X101078571Y-39050000D01*
X101078571Y-39550000D02*
X99578571Y-39550000D01*
X101078571Y-40407142D01*
X99578571Y-40407142D01*
X99578571Y-40907142D02*
X99578571Y-41764285D01*
X101078571Y-41335714D02*
X99578571Y-41335714D01*
X100292857Y-42264285D02*
X100292857Y-42764285D01*
X101078571Y-42978571D02*
X101078571Y-42264285D01*
X99578571Y-42264285D01*
X99578571Y-42978571D01*
X101078571Y-43621428D02*
X99578571Y-43621428D01*
X101078571Y-44478571D01*
X99578571Y-44478571D01*
X101078571Y-45192857D02*
X99578571Y-45192857D01*
X101078571Y-46049999D01*
X99578571Y-46049999D01*
X100650000Y-46692857D02*
X100650000Y-47407142D01*
X101078571Y-46549999D02*
X99578571Y-47049999D01*
X101078571Y-47549999D01*
D11*
X89400000Y-33800000D02*
X87800000Y-35400000D01*
X87800000Y-39200000D02*
X93200000Y-33800000D01*
X97000000Y-33800000D02*
X87800000Y-43000000D01*
X87800000Y-47000000D02*
X98800000Y-36000000D01*
X98800000Y-39800000D02*
X87800000Y-50800000D01*
X91200000Y-51200000D02*
X98800000Y-43600000D01*
X95000000Y-51200000D02*
X98800000Y-47400000D01*
X98800000Y-33800000D02*
X98800000Y-51200000D01*
X87800000Y-33800000D02*
X98800000Y-33800000D01*
X87800000Y-51200000D02*
X87800000Y-33800000D01*
X98800000Y-51200000D02*
X87800000Y-51200000D01*
D10*
X142021428Y-63492857D02*
X140807142Y-63492857D01*
X140664285Y-63421428D01*
X140592857Y-63350000D01*
X140521428Y-63207142D01*
X140521428Y-62921428D01*
X140592857Y-62778571D01*
X140664285Y-62707142D01*
X140807142Y-62635714D01*
X142021428Y-62635714D01*
X140592857Y-61992857D02*
X140521428Y-61778571D01*
X140521428Y-61421428D01*
X140592857Y-61278571D01*
X140664285Y-61207142D01*
X140807142Y-61135714D01*
X140950000Y-61135714D01*
X141092857Y-61207142D01*
X141164285Y-61278571D01*
X141235714Y-61421428D01*
X141307142Y-61707142D01*
X141378571Y-61850000D01*
X141450000Y-61921428D01*
X141592857Y-61992857D01*
X141735714Y-61992857D01*
X141878571Y-61921428D01*
X141950000Y-61850000D01*
X142021428Y-61707142D01*
X142021428Y-61350000D01*
X141950000Y-61135714D01*
X141307142Y-59992857D02*
X141235714Y-59778571D01*
X141164285Y-59707142D01*
X141021428Y-59635714D01*
X140807142Y-59635714D01*
X140664285Y-59707142D01*
X140592857Y-59778571D01*
X140521428Y-59921428D01*
X140521428Y-60492857D01*
X142021428Y-60492857D01*
X142021428Y-59992857D01*
X141950000Y-59850000D01*
X141878571Y-59778571D01*
X141735714Y-59707142D01*
X141592857Y-59707142D01*
X141450000Y-59778571D01*
X141378571Y-59850000D01*
X141307142Y-59992857D01*
X141307142Y-60492857D01*
D12*
X118271428Y-38040357D02*
X117671428Y-38040357D01*
X118271428Y-38383214D01*
X117671428Y-38383214D01*
X118214285Y-39011785D02*
X118242857Y-38983214D01*
X118271428Y-38897500D01*
X118271428Y-38840357D01*
X118242857Y-38754642D01*
X118185714Y-38697500D01*
X118128571Y-38668928D01*
X118014285Y-38640357D01*
X117928571Y-38640357D01*
X117814285Y-38668928D01*
X117757142Y-38697500D01*
X117700000Y-38754642D01*
X117671428Y-38840357D01*
X117671428Y-38897500D01*
X117700000Y-38983214D01*
X117728571Y-39011785D01*
X120271428Y-38040357D02*
X119671428Y-38040357D01*
X120271428Y-38383214D01*
X119671428Y-38383214D01*
X120271428Y-39011785D02*
X119985714Y-38811785D01*
X120271428Y-38668928D02*
X119671428Y-38668928D01*
X119671428Y-38897500D01*
X119700000Y-38954642D01*
X119728571Y-38983214D01*
X119785714Y-39011785D01*
X119871428Y-39011785D01*
X119928571Y-38983214D01*
X119957142Y-38954642D01*
X119985714Y-38897500D01*
X119985714Y-38668928D01*
X120242857Y-39240357D02*
X120271428Y-39326071D01*
X120271428Y-39468928D01*
X120242857Y-39526071D01*
X120214285Y-39554642D01*
X120157142Y-39583214D01*
X120100000Y-39583214D01*
X120042857Y-39554642D01*
X120014285Y-39526071D01*
X119985714Y-39468928D01*
X119957142Y-39354642D01*
X119928571Y-39297500D01*
X119900000Y-39268928D01*
X119842857Y-39240357D01*
X119785714Y-39240357D01*
X119728571Y-39268928D01*
X119700000Y-39297500D01*
X119671428Y-39354642D01*
X119671428Y-39497500D01*
X119700000Y-39583214D01*
X119671428Y-39754642D02*
X119671428Y-40097500D01*
X120271428Y-39926071D02*
X119671428Y-39926071D01*
X122242857Y-38011785D02*
X122271428Y-38097500D01*
X122271428Y-38240357D01*
X122242857Y-38297500D01*
X122214285Y-38326071D01*
X122157142Y-38354642D01*
X122100000Y-38354642D01*
X122042857Y-38326071D01*
X122014285Y-38297500D01*
X121985714Y-38240357D01*
X121957142Y-38126071D01*
X121928571Y-38068928D01*
X121900000Y-38040357D01*
X121842857Y-38011785D01*
X121785714Y-38011785D01*
X121728571Y-38040357D01*
X121700000Y-38068928D01*
X121671428Y-38126071D01*
X121671428Y-38268928D01*
X121700000Y-38354642D01*
X121671428Y-38554642D02*
X122271428Y-38697500D01*
X121842857Y-38811785D01*
X122271428Y-38926071D01*
X121671428Y-39068928D01*
X122271428Y-39297500D02*
X121671428Y-39297500D01*
X121671428Y-39440357D01*
X121700000Y-39526071D01*
X121757142Y-39583214D01*
X121814285Y-39611785D01*
X121928571Y-39640357D01*
X122014285Y-39640357D01*
X122128571Y-39611785D01*
X122185714Y-39583214D01*
X122242857Y-39526071D01*
X122271428Y-39440357D01*
X122271428Y-39297500D01*
X122271428Y-39897500D02*
X121671428Y-39897500D01*
X121671428Y-40297500D02*
X121671428Y-40411785D01*
X121700000Y-40468928D01*
X121757142Y-40526071D01*
X121871428Y-40554642D01*
X122071428Y-40554642D01*
X122185714Y-40526071D01*
X122242857Y-40468928D01*
X122271428Y-40411785D01*
X122271428Y-40297500D01*
X122242857Y-40240357D01*
X122185714Y-40183214D01*
X122071428Y-40154642D01*
X121871428Y-40154642D01*
X121757142Y-40183214D01*
X121700000Y-40240357D01*
X121671428Y-40297500D01*
X123900000Y-38354642D02*
X123871428Y-38297500D01*
X123871428Y-38211785D01*
X123900000Y-38126071D01*
X123957142Y-38068928D01*
X124014285Y-38040357D01*
X124128571Y-38011785D01*
X124214285Y-38011785D01*
X124328571Y-38040357D01*
X124385714Y-38068928D01*
X124442857Y-38126071D01*
X124471428Y-38211785D01*
X124471428Y-38268928D01*
X124442857Y-38354642D01*
X124414285Y-38383214D01*
X124214285Y-38383214D01*
X124214285Y-38268928D01*
X124471428Y-38640357D02*
X123871428Y-38640357D01*
X124471428Y-38983214D01*
X123871428Y-38983214D01*
X124471428Y-39268928D02*
X123871428Y-39268928D01*
X123871428Y-39411785D01*
X123900000Y-39497500D01*
X123957142Y-39554642D01*
X124014285Y-39583214D01*
X124128571Y-39611785D01*
X124214285Y-39611785D01*
X124328571Y-39583214D01*
X124385714Y-39554642D01*
X124442857Y-39497500D01*
X124471428Y-39411785D01*
X124471428Y-39268928D01*
X126442857Y-38011785D02*
X126471428Y-38097500D01*
X126471428Y-38240357D01*
X126442857Y-38297500D01*
X126414285Y-38326071D01*
X126357142Y-38354642D01*
X126300000Y-38354642D01*
X126242857Y-38326071D01*
X126214285Y-38297500D01*
X126185714Y-38240357D01*
X126157142Y-38126071D01*
X126128571Y-38068928D01*
X126100000Y-38040357D01*
X126042857Y-38011785D01*
X125985714Y-38011785D01*
X125928571Y-38040357D01*
X125900000Y-38068928D01*
X125871428Y-38126071D01*
X125871428Y-38268928D01*
X125900000Y-38354642D01*
X125871428Y-38554642D02*
X126471428Y-38697500D01*
X126042857Y-38811785D01*
X126471428Y-38926071D01*
X125871428Y-39068928D01*
X126414285Y-39640357D02*
X126442857Y-39611785D01*
X126471428Y-39526071D01*
X126471428Y-39468928D01*
X126442857Y-39383214D01*
X126385714Y-39326071D01*
X126328571Y-39297500D01*
X126214285Y-39268928D01*
X126128571Y-39268928D01*
X126014285Y-39297500D01*
X125957142Y-39326071D01*
X125900000Y-39383214D01*
X125871428Y-39468928D01*
X125871428Y-39526071D01*
X125900000Y-39611785D01*
X125928571Y-39640357D01*
X126471428Y-40183214D02*
X126471428Y-39897500D01*
X125871428Y-39897500D01*
X126471428Y-40383214D02*
X125871428Y-40383214D01*
X126471428Y-40726071D02*
X126128571Y-40468928D01*
X125871428Y-40726071D02*
X126214285Y-40383214D01*
X127871428Y-37983214D02*
X127871428Y-38354642D01*
X128100000Y-38154642D01*
X128100000Y-38240357D01*
X128128571Y-38297500D01*
X128157142Y-38326071D01*
X128214285Y-38354642D01*
X128357142Y-38354642D01*
X128414285Y-38326071D01*
X128442857Y-38297500D01*
X128471428Y-38240357D01*
X128471428Y-38068928D01*
X128442857Y-38011785D01*
X128414285Y-37983214D01*
X128414285Y-38611785D02*
X128442857Y-38640357D01*
X128471428Y-38611785D01*
X128442857Y-38583214D01*
X128414285Y-38611785D01*
X128471428Y-38611785D01*
X127871428Y-38840357D02*
X127871428Y-39211785D01*
X128100000Y-39011785D01*
X128100000Y-39097500D01*
X128128571Y-39154642D01*
X128157142Y-39183214D01*
X128214285Y-39211785D01*
X128357142Y-39211785D01*
X128414285Y-39183214D01*
X128442857Y-39154642D01*
X128471428Y-39097500D01*
X128471428Y-38926071D01*
X128442857Y-38868928D01*
X128414285Y-38840357D01*
X127871428Y-39383214D02*
X128471428Y-39583214D01*
X127871428Y-39783214D01*
D10*
X133835714Y-36007142D02*
X133621428Y-36078571D01*
X133264285Y-36078571D01*
X133121428Y-36007142D01*
X133050000Y-35935714D01*
X132978571Y-35792857D01*
X132978571Y-35650000D01*
X133050000Y-35507142D01*
X133121428Y-35435714D01*
X133264285Y-35364285D01*
X133550000Y-35292857D01*
X133692857Y-35221428D01*
X133764285Y-35150000D01*
X133835714Y-35007142D01*
X133835714Y-34864285D01*
X133764285Y-34721428D01*
X133692857Y-34650000D01*
X133550000Y-34578571D01*
X133192857Y-34578571D01*
X132978571Y-34650000D01*
X132478571Y-34578571D02*
X132121428Y-36078571D01*
X131835714Y-35007142D01*
X131550000Y-36078571D01*
X131192857Y-34578571D01*
X130621428Y-36078571D02*
X130621428Y-34578571D01*
X130264285Y-34578571D01*
X130050000Y-34650000D01*
X129907142Y-34792857D01*
X129835714Y-34935714D01*
X129764285Y-35221428D01*
X129764285Y-35435714D01*
X129835714Y-35721428D01*
X129907142Y-35864285D01*
X130050000Y-36007142D01*
X130264285Y-36078571D01*
X130621428Y-36078571D01*
D12*
X133159642Y-50671428D02*
X133159642Y-50071428D01*
X132931071Y-50071428D01*
X132873928Y-50100000D01*
X132845357Y-50128571D01*
X132816785Y-50185714D01*
X132816785Y-50271428D01*
X132845357Y-50328571D01*
X132873928Y-50357142D01*
X132931071Y-50385714D01*
X133159642Y-50385714D01*
X132359642Y-50357142D02*
X132273928Y-50385714D01*
X132245357Y-50414285D01*
X132216785Y-50471428D01*
X132216785Y-50557142D01*
X132245357Y-50614285D01*
X132273928Y-50642857D01*
X132331071Y-50671428D01*
X132559642Y-50671428D01*
X132559642Y-50071428D01*
X132359642Y-50071428D01*
X132302500Y-50100000D01*
X132273928Y-50128571D01*
X132245357Y-50185714D01*
X132245357Y-50242857D01*
X132273928Y-50300000D01*
X132302500Y-50328571D01*
X132359642Y-50357142D01*
X132559642Y-50357142D01*
X131645357Y-50671428D02*
X131988214Y-50671428D01*
X131816785Y-50671428D02*
X131816785Y-50071428D01*
X131873928Y-50157142D01*
X131931071Y-50214285D01*
X131988214Y-50242857D01*
X131416785Y-50128571D02*
X131388214Y-50100000D01*
X131331071Y-50071428D01*
X131188214Y-50071428D01*
X131131071Y-50100000D01*
X131102500Y-50128571D01*
X131073928Y-50185714D01*
X131073928Y-50242857D01*
X131102500Y-50328571D01*
X131445357Y-50671428D01*
X131073928Y-50671428D01*
X133159642Y-48671428D02*
X133159642Y-48071428D01*
X132931071Y-48071428D01*
X132873928Y-48100000D01*
X132845357Y-48128571D01*
X132816785Y-48185714D01*
X132816785Y-48271428D01*
X132845357Y-48328571D01*
X132873928Y-48357142D01*
X132931071Y-48385714D01*
X133159642Y-48385714D01*
X132359642Y-48357142D02*
X132273928Y-48385714D01*
X132245357Y-48414285D01*
X132216785Y-48471428D01*
X132216785Y-48557142D01*
X132245357Y-48614285D01*
X132273928Y-48642857D01*
X132331071Y-48671428D01*
X132559642Y-48671428D01*
X132559642Y-48071428D01*
X132359642Y-48071428D01*
X132302500Y-48100000D01*
X132273928Y-48128571D01*
X132245357Y-48185714D01*
X132245357Y-48242857D01*
X132273928Y-48300000D01*
X132302500Y-48328571D01*
X132359642Y-48357142D01*
X132559642Y-48357142D01*
X131645357Y-48671428D02*
X131988214Y-48671428D01*
X131816785Y-48671428D02*
X131816785Y-48071428D01*
X131873928Y-48157142D01*
X131931071Y-48214285D01*
X131988214Y-48242857D01*
X131073928Y-48671428D02*
X131416785Y-48671428D01*
X131245357Y-48671428D02*
X131245357Y-48071428D01*
X131302500Y-48157142D01*
X131359642Y-48214285D01*
X131416785Y-48242857D01*
X133159642Y-46671428D02*
X133159642Y-46071428D01*
X132931071Y-46071428D01*
X132873928Y-46100000D01*
X132845357Y-46128571D01*
X132816785Y-46185714D01*
X132816785Y-46271428D01*
X132845357Y-46328571D01*
X132873928Y-46357142D01*
X132931071Y-46385714D01*
X133159642Y-46385714D01*
X132359642Y-46357142D02*
X132273928Y-46385714D01*
X132245357Y-46414285D01*
X132216785Y-46471428D01*
X132216785Y-46557142D01*
X132245357Y-46614285D01*
X132273928Y-46642857D01*
X132331071Y-46671428D01*
X132559642Y-46671428D01*
X132559642Y-46071428D01*
X132359642Y-46071428D01*
X132302500Y-46100000D01*
X132273928Y-46128571D01*
X132245357Y-46185714D01*
X132245357Y-46242857D01*
X132273928Y-46300000D01*
X132302500Y-46328571D01*
X132359642Y-46357142D01*
X132559642Y-46357142D01*
X131645357Y-46671428D02*
X131988214Y-46671428D01*
X131816785Y-46671428D02*
X131816785Y-46071428D01*
X131873928Y-46157142D01*
X131931071Y-46214285D01*
X131988214Y-46242857D01*
X131273928Y-46071428D02*
X131216785Y-46071428D01*
X131159642Y-46100000D01*
X131131071Y-46128571D01*
X131102500Y-46185714D01*
X131073928Y-46300000D01*
X131073928Y-46442857D01*
X131102500Y-46557142D01*
X131131071Y-46614285D01*
X131159642Y-46642857D01*
X131216785Y-46671428D01*
X131273928Y-46671428D01*
X131331071Y-46642857D01*
X131359642Y-46614285D01*
X131388214Y-46557142D01*
X131416785Y-46442857D01*
X131416785Y-46300000D01*
X131388214Y-46185714D01*
X131359642Y-46128571D01*
X131331071Y-46100000D01*
X131273928Y-46071428D01*
X133159642Y-44671428D02*
X133159642Y-44071428D01*
X132931071Y-44071428D01*
X132873928Y-44100000D01*
X132845357Y-44128571D01*
X132816785Y-44185714D01*
X132816785Y-44271428D01*
X132845357Y-44328571D01*
X132873928Y-44357142D01*
X132931071Y-44385714D01*
X133159642Y-44385714D01*
X132588214Y-44500000D02*
X132302500Y-44500000D01*
X132645357Y-44671428D02*
X132445357Y-44071428D01*
X132245357Y-44671428D01*
X132102500Y-44071428D02*
X131731071Y-44071428D01*
X131931071Y-44300000D01*
X131845357Y-44300000D01*
X131788214Y-44328571D01*
X131759642Y-44357142D01*
X131731071Y-44414285D01*
X131731071Y-44557142D01*
X131759642Y-44614285D01*
X131788214Y-44642857D01*
X131845357Y-44671428D01*
X132016785Y-44671428D01*
X132073928Y-44642857D01*
X132102500Y-44614285D01*
X133159642Y-42671428D02*
X133159642Y-42071428D01*
X132931071Y-42071428D01*
X132873928Y-42100000D01*
X132845357Y-42128571D01*
X132816785Y-42185714D01*
X132816785Y-42271428D01*
X132845357Y-42328571D01*
X132873928Y-42357142D01*
X132931071Y-42385714D01*
X133159642Y-42385714D01*
X132588214Y-42500000D02*
X132302500Y-42500000D01*
X132645357Y-42671428D02*
X132445357Y-42071428D01*
X132245357Y-42671428D01*
X132073928Y-42128571D02*
X132045357Y-42100000D01*
X131988214Y-42071428D01*
X131845357Y-42071428D01*
X131788214Y-42100000D01*
X131759642Y-42128571D01*
X131731071Y-42185714D01*
X131731071Y-42242857D01*
X131759642Y-42328571D01*
X132102500Y-42671428D01*
X131731071Y-42671428D01*
X133159642Y-40671428D02*
X133159642Y-40071428D01*
X132931071Y-40071428D01*
X132873928Y-40100000D01*
X132845357Y-40128571D01*
X132816785Y-40185714D01*
X132816785Y-40271428D01*
X132845357Y-40328571D01*
X132873928Y-40357142D01*
X132931071Y-40385714D01*
X133159642Y-40385714D01*
X132588214Y-40500000D02*
X132302500Y-40500000D01*
X132645357Y-40671428D02*
X132445357Y-40071428D01*
X132245357Y-40671428D01*
X131931071Y-40071428D02*
X131873928Y-40071428D01*
X131816785Y-40100000D01*
X131788214Y-40128571D01*
X131759642Y-40185714D01*
X131731071Y-40300000D01*
X131731071Y-40442857D01*
X131759642Y-40557142D01*
X131788214Y-40614285D01*
X131816785Y-40642857D01*
X131873928Y-40671428D01*
X131931071Y-40671428D01*
X131988214Y-40642857D01*
X132016785Y-40614285D01*
X132045357Y-40557142D01*
X132073928Y-40442857D01*
X132073928Y-40300000D01*
X132045357Y-40185714D01*
X132016785Y-40128571D01*
X131988214Y-40100000D01*
X131931071Y-40071428D01*
X133216785Y-38071428D02*
X132845357Y-38071428D01*
X133045357Y-38300000D01*
X132959642Y-38300000D01*
X132902500Y-38328571D01*
X132873928Y-38357142D01*
X132845357Y-38414285D01*
X132845357Y-38557142D01*
X132873928Y-38614285D01*
X132902500Y-38642857D01*
X132959642Y-38671428D01*
X133131071Y-38671428D01*
X133188214Y-38642857D01*
X133216785Y-38614285D01*
X132588214Y-38614285D02*
X132559642Y-38642857D01*
X132588214Y-38671428D01*
X132616785Y-38642857D01*
X132588214Y-38614285D01*
X132588214Y-38671428D01*
X132359642Y-38071428D02*
X131988214Y-38071428D01*
X132188214Y-38300000D01*
X132102500Y-38300000D01*
X132045357Y-38328571D01*
X132016785Y-38357142D01*
X131988214Y-38414285D01*
X131988214Y-38557142D01*
X132016785Y-38614285D01*
X132045357Y-38642857D01*
X132102500Y-38671428D01*
X132273928Y-38671428D01*
X132331071Y-38642857D01*
X132359642Y-38614285D01*
X131816785Y-38071428D02*
X131616785Y-38671428D01*
X131416785Y-38071428D01*
X132845357Y-52100000D02*
X132902500Y-52071428D01*
X132988214Y-52071428D01*
X133073928Y-52100000D01*
X133131071Y-52157142D01*
X133159642Y-52214285D01*
X133188214Y-52328571D01*
X133188214Y-52414285D01*
X133159642Y-52528571D01*
X133131071Y-52585714D01*
X133073928Y-52642857D01*
X132988214Y-52671428D01*
X132931071Y-52671428D01*
X132845357Y-52642857D01*
X132816785Y-52614285D01*
X132816785Y-52414285D01*
X132931071Y-52414285D01*
X132559642Y-52671428D02*
X132559642Y-52071428D01*
X132216785Y-52671428D01*
X132216785Y-52071428D01*
X131931071Y-52671428D02*
X131931071Y-52071428D01*
X131788214Y-52071428D01*
X131702500Y-52100000D01*
X131645357Y-52157142D01*
X131616785Y-52214285D01*
X131588214Y-52328571D01*
X131588214Y-52414285D01*
X131616785Y-52528571D01*
X131645357Y-52585714D01*
X131702500Y-52642857D01*
X131788214Y-52671428D01*
X131931071Y-52671428D01*
D10*
X135150000Y-57500000D02*
X135221428Y-57642857D01*
X135221428Y-57857142D01*
X135150000Y-58071428D01*
X135007142Y-58214285D01*
X134864285Y-58285714D01*
X134578571Y-58357142D01*
X134364285Y-58357142D01*
X134078571Y-58285714D01*
X133935714Y-58214285D01*
X133792857Y-58071428D01*
X133721428Y-57857142D01*
X133721428Y-57714285D01*
X133792857Y-57500000D01*
X133864285Y-57428571D01*
X134364285Y-57428571D01*
X134364285Y-57714285D01*
X133721428Y-56785714D02*
X135221428Y-56785714D01*
X135221428Y-56214285D01*
X135150000Y-56071428D01*
X135078571Y-56000000D01*
X134935714Y-55928571D01*
X134721428Y-55928571D01*
X134578571Y-56000000D01*
X134507142Y-56071428D01*
X134435714Y-56214285D01*
X134435714Y-56785714D01*
X133721428Y-55285714D02*
X135221428Y-55285714D01*
X135221428Y-54285714D02*
X135221428Y-54000000D01*
X135150000Y-53857142D01*
X135007142Y-53714285D01*
X134721428Y-53642857D01*
X134221428Y-53642857D01*
X133935714Y-53714285D01*
X133792857Y-53857142D01*
X133721428Y-54000000D01*
X133721428Y-54285714D01*
X133792857Y-54428571D01*
X133935714Y-54571428D01*
X134221428Y-54642857D01*
X134721428Y-54642857D01*
X135007142Y-54571428D01*
X135150000Y-54428571D01*
X135221428Y-54285714D01*
D12*
X138416785Y-40014285D02*
X138445357Y-40042857D01*
X138531071Y-40071428D01*
X138588214Y-40071428D01*
X138673928Y-40042857D01*
X138731071Y-39985714D01*
X138759642Y-39928571D01*
X138788214Y-39814285D01*
X138788214Y-39728571D01*
X138759642Y-39614285D01*
X138731071Y-39557142D01*
X138673928Y-39500000D01*
X138588214Y-39471428D01*
X138531071Y-39471428D01*
X138445357Y-39500000D01*
X138416785Y-39528571D01*
X138188214Y-39900000D02*
X137902500Y-39900000D01*
X138245357Y-40071428D02*
X138045357Y-39471428D01*
X137845357Y-40071428D01*
X137645357Y-40071428D02*
X137645357Y-39471428D01*
X137302500Y-40071428D01*
X137302500Y-39471428D01*
X136731071Y-40071428D02*
X137016785Y-40071428D01*
X137016785Y-39471428D01*
X138416785Y-38014285D02*
X138445357Y-38042857D01*
X138531071Y-38071428D01*
X138588214Y-38071428D01*
X138673928Y-38042857D01*
X138731071Y-37985714D01*
X138759642Y-37928571D01*
X138788214Y-37814285D01*
X138788214Y-37728571D01*
X138759642Y-37614285D01*
X138731071Y-37557142D01*
X138673928Y-37500000D01*
X138588214Y-37471428D01*
X138531071Y-37471428D01*
X138445357Y-37500000D01*
X138416785Y-37528571D01*
X138188214Y-37900000D02*
X137902500Y-37900000D01*
X138245357Y-38071428D02*
X138045357Y-37471428D01*
X137845357Y-38071428D01*
X137645357Y-38071428D02*
X137645357Y-37471428D01*
X137302500Y-38071428D01*
X137302500Y-37471428D01*
X137016785Y-38071428D02*
X137016785Y-37471428D01*
X137016785Y-37757142D02*
X136673928Y-37757142D01*
X136673928Y-38071428D02*
X136673928Y-37471428D01*
X138473928Y-35471428D02*
X138759642Y-35471428D01*
X138788214Y-35757142D01*
X138759642Y-35728571D01*
X138702500Y-35700000D01*
X138559642Y-35700000D01*
X138502500Y-35728571D01*
X138473928Y-35757142D01*
X138445357Y-35814285D01*
X138445357Y-35957142D01*
X138473928Y-36014285D01*
X138502500Y-36042857D01*
X138559642Y-36071428D01*
X138702500Y-36071428D01*
X138759642Y-36042857D01*
X138788214Y-36014285D01*
X138273928Y-35471428D02*
X138073928Y-36071428D01*
X137873928Y-35471428D01*
X138445357Y-41500000D02*
X138502500Y-41471428D01*
X138588214Y-41471428D01*
X138673928Y-41500000D01*
X138731071Y-41557142D01*
X138759642Y-41614285D01*
X138788214Y-41728571D01*
X138788214Y-41814285D01*
X138759642Y-41928571D01*
X138731071Y-41985714D01*
X138673928Y-42042857D01*
X138588214Y-42071428D01*
X138531071Y-42071428D01*
X138445357Y-42042857D01*
X138416785Y-42014285D01*
X138416785Y-41814285D01*
X138531071Y-41814285D01*
X138159642Y-42071428D02*
X138159642Y-41471428D01*
X137816785Y-42071428D01*
X137816785Y-41471428D01*
X137531071Y-42071428D02*
X137531071Y-41471428D01*
X137388214Y-41471428D01*
X137302500Y-41500000D01*
X137245357Y-41557142D01*
X137216785Y-41614285D01*
X137188214Y-41728571D01*
X137188214Y-41814285D01*
X137216785Y-41928571D01*
X137245357Y-41985714D01*
X137302500Y-42042857D01*
X137388214Y-42071428D01*
X137531071Y-42071428D01*
X138445357Y-52100000D02*
X138502500Y-52071428D01*
X138588214Y-52071428D01*
X138673928Y-52100000D01*
X138731071Y-52157142D01*
X138759642Y-52214285D01*
X138788214Y-52328571D01*
X138788214Y-52414285D01*
X138759642Y-52528571D01*
X138731071Y-52585714D01*
X138673928Y-52642857D01*
X138588214Y-52671428D01*
X138531071Y-52671428D01*
X138445357Y-52642857D01*
X138416785Y-52614285D01*
X138416785Y-52414285D01*
X138531071Y-52414285D01*
X138159642Y-52671428D02*
X138159642Y-52071428D01*
X137816785Y-52671428D01*
X137816785Y-52071428D01*
X137531071Y-52671428D02*
X137531071Y-52071428D01*
X137388214Y-52071428D01*
X137302500Y-52100000D01*
X137245357Y-52157142D01*
X137216785Y-52214285D01*
X137188214Y-52328571D01*
X137188214Y-52414285D01*
X137216785Y-52528571D01*
X137245357Y-52585714D01*
X137302500Y-52642857D01*
X137388214Y-52671428D01*
X137531071Y-52671428D01*
X138816785Y-50071428D02*
X138445357Y-50071428D01*
X138645357Y-50300000D01*
X138559642Y-50300000D01*
X138502500Y-50328571D01*
X138473928Y-50357142D01*
X138445357Y-50414285D01*
X138445357Y-50557142D01*
X138473928Y-50614285D01*
X138502500Y-50642857D01*
X138559642Y-50671428D01*
X138731071Y-50671428D01*
X138788214Y-50642857D01*
X138816785Y-50614285D01*
X138188214Y-50614285D02*
X138159642Y-50642857D01*
X138188214Y-50671428D01*
X138216785Y-50642857D01*
X138188214Y-50614285D01*
X138188214Y-50671428D01*
X137959642Y-50071428D02*
X137588214Y-50071428D01*
X137788214Y-50300000D01*
X137702500Y-50300000D01*
X137645357Y-50328571D01*
X137616785Y-50357142D01*
X137588214Y-50414285D01*
X137588214Y-50557142D01*
X137616785Y-50614285D01*
X137645357Y-50642857D01*
X137702500Y-50671428D01*
X137873928Y-50671428D01*
X137931071Y-50642857D01*
X137959642Y-50614285D01*
X137416785Y-50071428D02*
X137216785Y-50671428D01*
X137016785Y-50071428D01*
X138473928Y-48071428D02*
X138759642Y-48071428D01*
X138788214Y-48357142D01*
X138759642Y-48328571D01*
X138702500Y-48300000D01*
X138559642Y-48300000D01*
X138502500Y-48328571D01*
X138473928Y-48357142D01*
X138445357Y-48414285D01*
X138445357Y-48557142D01*
X138473928Y-48614285D01*
X138502500Y-48642857D01*
X138559642Y-48671428D01*
X138702500Y-48671428D01*
X138759642Y-48642857D01*
X138788214Y-48614285D01*
X138273928Y-48071428D02*
X138073928Y-48671428D01*
X137873928Y-48071428D01*
X138502500Y-46071428D02*
X138616785Y-46071428D01*
X138673928Y-46100000D01*
X138702500Y-46128571D01*
X138759642Y-46214285D01*
X138788214Y-46328571D01*
X138788214Y-46557142D01*
X138759642Y-46614285D01*
X138731071Y-46642857D01*
X138673928Y-46671428D01*
X138559642Y-46671428D01*
X138502500Y-46642857D01*
X138473928Y-46614285D01*
X138445357Y-46557142D01*
X138445357Y-46414285D01*
X138473928Y-46357142D01*
X138502500Y-46328571D01*
X138559642Y-46300000D01*
X138673928Y-46300000D01*
X138731071Y-46328571D01*
X138759642Y-46357142D01*
X138788214Y-46414285D01*
X138188214Y-46442857D02*
X137731071Y-46442857D01*
X137502500Y-46071428D02*
X137131071Y-46071428D01*
X137331071Y-46300000D01*
X137245357Y-46300000D01*
X137188214Y-46328571D01*
X137159642Y-46357142D01*
X137131071Y-46414285D01*
X137131071Y-46557142D01*
X137159642Y-46614285D01*
X137188214Y-46642857D01*
X137245357Y-46671428D01*
X137416785Y-46671428D01*
X137473928Y-46642857D01*
X137502500Y-46614285D01*
X136759642Y-46071428D02*
X136702500Y-46071428D01*
X136645357Y-46100000D01*
X136616785Y-46128571D01*
X136588214Y-46185714D01*
X136559642Y-46300000D01*
X136559642Y-46442857D01*
X136588214Y-46557142D01*
X136616785Y-46614285D01*
X136645357Y-46642857D01*
X136702500Y-46671428D01*
X136759642Y-46671428D01*
X136816785Y-46642857D01*
X136845357Y-46614285D01*
X136873928Y-46557142D01*
X136902500Y-46442857D01*
X136902500Y-46300000D01*
X136873928Y-46185714D01*
X136845357Y-46128571D01*
X136816785Y-46100000D01*
X136759642Y-46071428D01*
X136388214Y-46071428D02*
X136188214Y-46671428D01*
X135988214Y-46071428D01*
D10*
X141321428Y-52664285D02*
X142821428Y-52664285D01*
X142821428Y-52092857D01*
X142750000Y-51950000D01*
X142678571Y-51878571D01*
X142535714Y-51807142D01*
X142321428Y-51807142D01*
X142178571Y-51878571D01*
X142107142Y-51950000D01*
X142035714Y-52092857D01*
X142035714Y-52664285D01*
X142821428Y-50878571D02*
X142821428Y-50592857D01*
X142750000Y-50450000D01*
X142607142Y-50307142D01*
X142321428Y-50235714D01*
X141821428Y-50235714D01*
X141535714Y-50307142D01*
X141392857Y-50450000D01*
X141321428Y-50592857D01*
X141321428Y-50878571D01*
X141392857Y-51021428D01*
X141535714Y-51164285D01*
X141821428Y-51235714D01*
X142321428Y-51235714D01*
X142607142Y-51164285D01*
X142750000Y-51021428D01*
X142821428Y-50878571D01*
X142821428Y-49735714D02*
X141321428Y-49378571D01*
X142392857Y-49092857D01*
X141321428Y-48807142D01*
X142821428Y-48450000D01*
X142107142Y-47878571D02*
X142107142Y-47378571D01*
X141321428Y-47164285D02*
X141321428Y-47878571D01*
X142821428Y-47878571D01*
X142821428Y-47164285D01*
X141321428Y-45664285D02*
X142035714Y-46164285D01*
X141321428Y-46521428D02*
X142821428Y-46521428D01*
X142821428Y-45950000D01*
X142750000Y-45807142D01*
X142678571Y-45735714D01*
X142535714Y-45664285D01*
X142321428Y-45664285D01*
X142178571Y-45735714D01*
X142107142Y-45807142D01*
X142035714Y-45950000D01*
X142035714Y-46521428D01*
X141464285Y-39964285D02*
X141392857Y-40035714D01*
X141321428Y-40250000D01*
X141321428Y-40392857D01*
X141392857Y-40607142D01*
X141535714Y-40750000D01*
X141678571Y-40821428D01*
X141964285Y-40892857D01*
X142178571Y-40892857D01*
X142464285Y-40821428D01*
X142607142Y-40750000D01*
X142750000Y-40607142D01*
X142821428Y-40392857D01*
X142821428Y-40250000D01*
X142750000Y-40035714D01*
X142678571Y-39964285D01*
X141750000Y-39392857D02*
X141750000Y-38678571D01*
X141321428Y-39535714D02*
X142821428Y-39035714D01*
X141321428Y-38535714D01*
X141321428Y-38035714D02*
X142821428Y-38035714D01*
X141321428Y-37178571D01*
X142821428Y-37178571D01*
%LPC*%
D13*
X134400000Y-52400000D03*
D14*
X134400000Y-50400000D03*
X134400000Y-48400000D03*
X134400000Y-46400000D03*
X134400000Y-44400000D03*
X134400000Y-42400000D03*
X134400000Y-40400000D03*
X134400000Y-38400000D03*
D15*
X91400000Y-64000000D03*
D14*
X140000000Y-46400000D03*
X140000000Y-48400000D03*
X140000000Y-50400000D03*
D13*
X140000000Y-52400000D03*
X140000000Y-41800000D03*
D14*
X140000000Y-39800000D03*
X140000000Y-37800000D03*
X140000000Y-35800000D03*
D16*
X118000000Y-35306000D03*
D17*
X120000000Y-35306000D03*
X122000000Y-35306000D03*
X124000000Y-35306000D03*
X126000000Y-35306000D03*
X128000000Y-35306000D03*
D18*
X138300000Y-63800000D03*
X138300000Y-59400000D03*
M02*
