G04 ================== begin FILE IDENTIFICATION RECORD ==================*
G04 Layout Name:  CC2538_CC2592EM_shield.BRD*
G04 Film Name:    paste_bottom*
G04 File Format:  Gerber RS274X*
G04 File Origin:  Cadence Allegro 16.6-S019*
G04 Origin Date:  Tue Nov 26 15:06:45 2013*
G04 *
G04 Layer:  PIN/FILMMASKBOTTOM*
G04 Layer:  BOARD GEOMETRY/OUTLINE*
G04 *
G04 Offset:    (0.000 0.000)*
G04 Mirror:    No*
G04 Mode:      Positive*
G04 Rotation:  0*
G04 FullContactRelief:  No*
G04 UndefLineWidth:     0.020*
G04 ================== end FILE IDENTIFICATION RECORD ====================*
%FSLAX44Y44*MOMM*%
%IR0*IPPOS*OFA0.00000B0.00000*MIA0B0*SFA1.00000B1.00000*%
%ADD10O,2.05X.65*%
%ADD11C,.02*%
G75*
%LPD*%
G75*
G54D10*
X1126040Y985700D03*
X1100000D03*
X1126040Y998400D03*
Y1011100D03*
Y1023800D03*
Y1036500D03*
X1100000Y998400D03*
Y1011100D03*
Y1023800D03*
Y1036500D03*
X1126040Y1049200D03*
Y1061900D03*
Y1074600D03*
X1100000Y1049200D03*
Y1061900D03*
Y1074600D03*
X1126040Y1087300D03*
Y1100000D03*
X1100000Y1087300D03*
Y1100000D03*
X1430840Y985700D03*
X1404800D03*
X1430840Y998400D03*
Y1011100D03*
Y1023800D03*
Y1036500D03*
X1404800Y998400D03*
Y1011100D03*
Y1023800D03*
Y1036500D03*
X1430840Y1049200D03*
Y1061900D03*
Y1074600D03*
X1404800Y1049200D03*
Y1061900D03*
Y1074600D03*
X1430840Y1087300D03*
Y1100000D03*
X1404800Y1087300D03*
Y1100000D03*
G54D11*
G01X1054000Y900000D02*
X1127500D01*
Y917500D01*
X1214500D01*
Y900000D01*
X1470000D01*
Y1467500D01*
X1054000D01*
Y900000D01*
M02*
