G04 ================== begin FILE IDENTIFICATION RECORD ==================*
G04 Layout Name:  CC2538_CC2592EM_shield.BRD*
G04 Film Name:    soldmask_top*
G04 File Format:  Gerber RS274X*
G04 File Origin:  Cadence Allegro 16.6-S019*
G04 Origin Date:  Tue Nov 26 15:06:45 2013*
G04 *
G04 Layer:  PIN/SOLDERMASK_TOP*
G04 Layer:  BOARD GEOMETRY/OUTLINE*
G04 *
G04 Offset:    (0.000 0.000)*
G04 Mirror:    No*
G04 Mode:      Positive*
G04 Rotation:  0*
G04 FullContactRelief:  No*
G04 UndefLineWidth:     0.020*
G04 ================== end FILE IDENTIFICATION RECORD ====================*
%FSLAX44Y44*MOMM*%
%IR0*IPPOS*OFA0.00000B0.00000*MIA0B0*SFA1.00000B1.00000*%
%AMMACRO13*
4,1,41,0.0,-1.075,
.538,-1.075,
.631328,-1.066747,
.721806,-1.042414,
.806683,-1.002739,
.883381,-.948927,
.94957,-.882615,
1.003239,-.805817,
1.042756,-.720866,
1.066921,-.630343,
1.075,-.538,
1.075,.538,
1.066747,.631328,
1.042414,.721806,
1.002739,.806683,
.948927,.883381,
.882615,.94957,
.805817,1.003239,
.720866,1.042756,
.630343,1.066921,
.538,1.075,
-.538,1.075,
-.631328,1.066747,
-.721806,1.042414,
-.806683,1.002739,
-.883381,.948927,
-.94957,.882615,
-1.003239,.805817,
-1.042756,.720866,
-1.066921,.630343,
-1.075,.538,
-1.075,-.538,
-1.066747,-.631328,
-1.042414,-.721806,
-1.002739,-.806683,
-.948927,-.883381,
-.882615,-.94957,
-.805817,-1.003239,
-.720866,-1.042756,
-.630343,-1.066921,
-.538,-1.075,
0.0,-1.075,
0.0*
%
%ADD13MACRO13*%
%AMMACRO37*
4,1,6,1.405,1.64,
1.405,-1.64,
-1.405,-1.64,
-1.405,-.49,
.255,-.49,
.255,1.64,
1.405,1.64,
0.0*
%
%ADD37MACRO37*%
%AMMACRO33*
4,1,41,1.975,0.0,
1.975,.288,
1.970545,.337916,
1.957491,.386301,
1.936232,.431683,
1.907416,.472684,
1.871918,.508059,
1.830817,.536732,
1.785361,.557833,
1.736931,.570719,
1.688,.575,
-1.688,.575,
-1.737916,.570545,
-1.786301,.557491,
-1.831683,.536232,
-1.872684,.507416,
-1.908059,.471918,
-1.936732,.430817,
-1.957833,.385361,
-1.970719,.336931,
-1.975,.288,
-1.975,-.288,
-1.970545,-.337916,
-1.957491,-.386301,
-1.936232,-.431683,
-1.907416,-.472684,
-1.871918,-.508059,
-1.830817,-.536732,
-1.785361,-.557833,
-1.736931,-.570719,
-1.688,-.575,
1.688,-.575,
1.737916,-.570545,
1.786301,-.557491,
1.831683,-.536232,
1.872684,-.507416,
1.908059,-.471918,
1.936732,-.430817,
1.957833,-.385361,
1.970719,-.336931,
1.975,-.288,
1.975,0.0,
0.0*
%
%ADD33MACRO33*%
%AMMACRO22*
4,1,41,0.0,.775,
-.231,.775,
-.26458,.771989,
-.297127,.763193,
-.327652,.748879,
-.355228,.729481,
-.379017,.70559,
-.398295,.677931,
-.412478,.647344,
-.421134,.61476,
-.424,.582,
-.424,-.582,
-.420989,-.61558,
-.412193,-.648127,
-.397879,-.678652,
-.378481,-.706228,
-.35459,-.730017,
-.326931,-.749295,
-.296344,-.763478,
-.26376,-.772134,
-.231,-.775,
.231,-.775,
.26458,-.771989,
.297127,-.763193,
.327652,-.748879,
.355228,-.729481,
.379017,-.70559,
.398295,-.677931,
.412478,-.647344,
.421134,-.61476,
.424,-.582,
.424,.582,
.420989,.61558,
.412193,.648127,
.397879,.678652,
.378481,.706228,
.35459,.730017,
.326931,.749295,
.296344,.763478,
.26376,.772134,
.231,.775,
0.0,.775,
0.0*
%
%ADD22MACRO22*%
%ADD35O,1.1X.45*%
%AMMACRO24*
4,1,41,0.0,-1.975,
.288,-1.975,
.337916,-1.970545,
.386301,-1.957491,
.431683,-1.936232,
.472684,-1.907416,
.508059,-1.871918,
.536732,-1.830817,
.557833,-1.785361,
.570719,-1.736931,
.575,-1.688,
.575,1.688,
.570545,1.737916,
.557491,1.786301,
.536232,1.831683,
.507416,1.872684,
.471918,1.908059,
.430817,1.936732,
.385361,1.957833,
.336931,1.970719,
.288,1.975,
-.288,1.975,
-.337916,1.970545,
-.386301,1.957491,
-.431683,1.936232,
-.472684,1.907416,
-.508059,1.871918,
-.536732,1.830817,
-.557833,1.785361,
-.570719,1.736931,
-.575,1.688,
-.575,-1.688,
-.570545,-1.737916,
-.557491,-1.786301,
-.536232,-1.831683,
-.507416,-1.872684,
-.471918,-1.908059,
-.430817,-1.936732,
-.385361,-1.957833,
-.336931,-1.970719,
-.288,-1.975,
0.0,-1.975,
0.0*
%
%ADD24MACRO24*%
%ADD32O,.45X1.1*%
%AMMACRO26*
4,1,40,.325,.16,
.325,-.16,
.322569,-.187784,
.315351,-.214723,
.303564,-.24,
.287567,-.262846,
.267846,-.282567,
.245,-.298564,
.219723,-.310351,
.192784,-.317569,
.165,-.32,
-.165,-.32,
-.192784,-.317569,
-.219723,-.310351,
-.245,-.298564,
-.267846,-.282567,
-.287567,-.262846,
-.303564,-.24,
-.315351,-.214723,
-.322569,-.187784,
-.325,-.16,
-.325,.16,
-.322569,.187784,
-.315351,.214723,
-.303564,.24,
-.287567,.262846,
-.267846,.282567,
-.245,.298564,
-.219723,.310351,
-.192784,.317569,
-.165,.32,
.165,.32,
.192784,.317569,
.219723,.310351,
.245,.298564,
.267846,.282567,
.287567,.262846,
.303564,.24,
.315351,.214723,
.322569,.187784,
.325,.16,
0.0*
%
%ADD26MACRO26*%
%AMMACRO19*
4,1,40,.16,-.325,
-.16,-.325,
-.187784,-.322569,
-.214723,-.315351,
-.24,-.303564,
-.262846,-.287567,
-.282567,-.267846,
-.298564,-.245,
-.310351,-.219723,
-.317569,-.192784,
-.32,-.165,
-.32,.165,
-.317569,.192784,
-.310351,.219723,
-.298564,.245,
-.282567,.267846,
-.262846,.287567,
-.24,.303564,
-.214723,.315351,
-.187784,.322569,
-.16,.325,
.16,.325,
.187784,.322569,
.214723,.315351,
.24,.303564,
.262846,.287567,
.282567,.267846,
.298564,.245,
.310351,.219723,
.317569,.192784,
.32,.165,
.32,-.165,
.317569,-.192784,
.310351,-.219723,
.298564,-.245,
.282567,-.267846,
.262846,-.287567,
.24,-.303564,
.214723,-.315351,
.187784,-.322569,
.16,-.325,
0.0*
%
%ADD19MACRO19*%
%ADD36O,.701X1.151*%
%ADD12C,1.6*%
%ADD34R,2.4X2.4*%
%ADD14C,1.951*%
%AMMACRO40*
4,1,45,0.0,.549,
-.249,.549,
-.292374,.545439,
-.334471,.534399,
-.374011,.516218,
-.409793,.491447,
-.44073,.460838,
-.465882,.425322,
-.484485,.385979,
-.495973,.344002,
-.499997,.300669,
-.5,.3,
-.5,-.3,
-.496092,-.343344,
-.484716,-.385351,
-.466219,-.424744,
-.441162,-.460327,
-.410307,-.491019,
-.374591,-.515886,
-.3351,-.534173,
-.293033,-.545325,
-.249669,-.549003,
-.249,-.549,
.249,-.549,
.292374,-.545439,
.334471,-.534399,
.374011,-.516218,
.409793,-.491447,
.44073,-.460838,
.465882,-.425322,
.484485,-.385979,
.495973,-.344002,
.499997,-.300669,
.5,-.3,
.5,.3,
.496092,.343344,
.484716,.385351,
.466219,.424744,
.441162,.460327,
.410307,.491019,
.374591,.515886,
.3351,.534173,
.293033,.545325,
.249669,.549003,
.249,.549,
0.0,.549,
0.0*
%
%ADD40MACRO40*%
%ADD11C,1.699*%
%AMMACRO41*
4,1,44,-.574,-.274,
-.574,.274,
-.569948,.321648,
-.557684,.367868,
-.53758,.411256,
-.510247,.450494,
-.476515,.484389,
-.437411,.511913,
-.394121,.532227,
-.347961,.544716,
-.300334,.548999,
-.3,.549,
.3,.549,
.347632,.544774,
.393808,.532342,
.437122,.51208,
.47626,.484604,
.510033,.45075,
.537413,.411545,
.55757,.368181,
.569891,.321976,
.574001,.274334,
.574,.274,
.574,-.274,
.569948,-.321648,
.557684,-.367868,
.53758,-.411256,
.510247,-.450494,
.476515,-.484389,
.437411,-.511913,
.394121,-.532227,
.347961,-.544716,
.300334,-.548999,
.3,-.549,
-.3,-.549,
-.347632,-.544774,
-.393808,-.532342,
-.437122,-.51208,
-.47626,-.484604,
-.510033,-.45075,
-.537413,-.411545,
-.55757,-.368181,
-.569891,-.321976,
-.574001,-.274334,
-.574,-.274,
0.0*
%
%ADD41MACRO41*%
%AMMACRO28*
4,1,44,-.274,.574,
.274,.574,
.321648,.569948,
.367868,.557684,
.411256,.53758,
.450494,.510247,
.484389,.476515,
.511913,.437411,
.532227,.394121,
.544716,.347961,
.548999,.300334,
.549,.3,
.549,-.3,
.544774,-.347632,
.532342,-.393808,
.51208,-.437122,
.484604,-.47626,
.45075,-.510033,
.411545,-.537413,
.368181,-.55757,
.321976,-.569891,
.274334,-.574001,
.274,-.574,
-.274,-.574,
-.321648,-.569948,
-.367868,-.557684,
-.411256,-.53758,
-.450494,-.510247,
-.484389,-.476515,
-.511913,-.437411,
-.532227,-.394121,
-.544716,-.347961,
-.548999,-.300334,
-.549,-.3,
-.549,.3,
-.544774,.347632,
-.532342,.393808,
-.51208,.437122,
-.484604,.47626,
-.45075,.510033,
-.411545,.537413,
-.368181,.55757,
-.321976,.569891,
-.274334,.574001,
-.274,.574,
0.0*
%
%ADD28MACRO28*%
%ADD31R,6.749X6.749*%
%AMMACRO39*
4,1,41,-1.8,0.0,
-1.8,-.319,
-1.795684,-.367835,
-1.782953,-.415178,
-1.762195,-.459592,
-1.734039,-.499726,
-1.699343,-.534361,
-1.659158,-.562445,
-1.614708,-.583124,
-1.567342,-.595771,
-1.519,-.6,
1.519,-.6,
1.567835,-.595684,
1.615178,-.582953,
1.659592,-.562195,
1.699726,-.534039,
1.734361,-.499343,
1.762445,-.459158,
1.783124,-.414708,
1.795771,-.367342,
1.8,-.319,
1.8,.319,
1.795684,.367835,
1.782953,.415178,
1.762195,.459592,
1.734039,.499726,
1.699343,.534361,
1.659158,.562445,
1.614708,.583124,
1.567342,.595771,
1.519,.6,
-1.519,.6,
-1.567835,.595684,
-1.615178,.582953,
-1.659592,.562195,
-1.699726,.534039,
-1.734361,.499343,
-1.762445,.459158,
-1.783124,.414708,
-1.795771,.367342,
-1.8,.319,
-1.8,0.0,
0.0*
%
%ADD39MACRO39*%
%AMMACRO23*
4,1,6,-1.405,1.64,
-1.405,-1.64,
1.405,-1.64,
1.405,-.49,
-.255,-.49,
-.255,1.64,
-1.405,1.64,
0.0*
%
%ADD23MACRO23*%
%AMMACRO15*
4,1,45,-1.025,0.0,
-1.025,-.531,
-1.017542,-.616743,
-.995309,-.699888,
-.958975,-.777908,
-.909645,-.848435,
-.848818,-.909324,
-.778342,-.958725,
-.700357,-.995138,
-.617235,-1.017455,
-.5315,-1.025,
-.531,-1.025,
.531,-1.025,
.616743,-1.017542,
.699888,-.995309,
.777908,-.958975,
.848435,-.909645,
.909324,-.848818,
.958725,-.778342,
.995138,-.700357,
1.017455,-.617235,
1.025,-.5315,
1.025,-.531,
1.025,.531,
1.017542,.616743,
.995309,.699888,
.958975,.777908,
.909645,.848435,
.848818,.909324,
.778342,.958725,
.700357,.995138,
.617235,1.017455,
.5315,1.025,
.531,1.025,
-.531,1.025,
-.616743,1.017542,
-.699888,.995309,
-.777908,.958975,
-.848435,.909645,
-.909324,.848818,
-.958725,.778342,
-.995138,.700357,
-1.017455,.617235,
-1.025,.5315,
-1.025,.531,
-1.025,0.0,
0.0*
%
%ADD15MACRO15*%
%AMMACRO16*
4,1,45,-.8,0.0,
-.8,-.381,
-.794821,-.440695,
-.779355,-.498585,
-.754071,-.552908,
-.719738,-.602017,
-.6774,-.644417,
-.628342,-.678821,
-.574054,-.704184,
-.516188,-.719734,
-.4565,-.725,
-.456,-.725,
.456,-.725,
.515695,-.719821,
.573585,-.704355,
.627908,-.679071,
.677017,-.644738,
.719417,-.6024,
.753821,-.553342,
.779184,-.499054,
.794734,-.441188,
.8,-.3815,
.8,-.381,
.8,.381,
.794821,.440695,
.779355,.498585,
.754071,.552908,
.719738,.602017,
.6774,.644417,
.628342,.678821,
.574054,.704184,
.516188,.719734,
.4565,.725,
.456,.725,
-.456,.725,
-.515695,.719821,
-.573585,.704355,
-.627908,.679071,
-.677017,.644738,
-.719417,.6024,
-.753821,.553342,
-.779184,.499054,
-.794734,.441188,
-.8,.3815,
-.8,.381,
-.8,0.0,
0.0*
%
%ADD16MACRO16*%
%AMMACRO25*
4,1,6,-1.405,-1.64,
-1.405,1.64,
1.405,1.64,
1.405,.49,
-.255,.49,
-.255,-1.64,
-1.405,-1.64,
0.0*
%
%ADD25MACRO25*%
%AMMACRO18*
4,1,45,0.0,-.75,
.156,-.75,
.176625,-.748239,
.19663,-.742924,
.215408,-.734216,
.23239,-.722378,
.247057,-.707773,
.258966,-.690842,
.267753,-.6721,
.273153,-.652117,
.275,-.6315,
.275,-.631,
.275,.631,
.273239,.651625,
.267924,.67163,
.259216,.690408,
.247378,.70739,
.232773,.722057,
.215842,.733966,
.1971,.742753,
.177117,.748153,
.1565,.75,
.156,.75,
-.156,.75,
-.176625,.748239,
-.19663,.742924,
-.215408,.734216,
-.23239,.722378,
-.247057,.707773,
-.258966,.690842,
-.267753,.6721,
-.273153,.652117,
-.275,.6315,
-.275,.631,
-.275,-.631,
-.273239,-.651625,
-.267924,-.67163,
-.259216,-.690408,
-.247378,-.70739,
-.232773,-.722057,
-.215842,-.733966,
-.1971,-.742753,
-.177117,-.748153,
-.1565,-.75,
-.156,-.75,
0.0,-.75,
0.0*
%
%ADD18MACRO18*%
%AMMACRO17*
4,1,45,-.875,0.0,
-.875,-.406,
-.869441,-.470037,
-.852847,-.532135,
-.825722,-.590408,
-.78889,-.643086,
-.743469,-.688568,
-.690842,-.725472,
-.632605,-.752676,
-.570529,-.769354,
-.5065,-.775,
-.506,-.775,
.506,-.775,
.570037,-.769441,
.632135,-.752847,
.690408,-.725722,
.743086,-.68889,
.788568,-.643469,
.825472,-.590842,
.852676,-.532605,
.869354,-.470529,
.875,-.4065,
.875,-.406,
.875,.406,
.869441,.470037,
.852847,.532135,
.825722,.590408,
.78889,.643086,
.743469,.688568,
.690842,.725472,
.632605,.752676,
.570529,.769354,
.5065,.775,
.506,.775,
-.506,.775,
-.570037,.769441,
-.632135,.752847,
-.690408,.725722,
-.743086,.68889,
-.788568,.643469,
-.825472,.590842,
-.852676,.532605,
-.869354,.470529,
-.875,.4065,
-.875,.406,
-.875,0.0,
0.0*
%
%ADD17MACRO17*%
%AMMACRO21*
4,1,40,-.325,-.16,
-.325,.16,
-.322569,.187784,
-.315351,.214723,
-.303564,.24,
-.287567,.262846,
-.267846,.282567,
-.245,.298564,
-.219723,.310351,
-.192784,.317569,
-.165,.32,
.165,.32,
.192784,.317569,
.219723,.310351,
.245,.298564,
.267846,.282567,
.287567,.262846,
.303564,.24,
.315351,.214723,
.322569,.187784,
.325,.16,
.325,-.16,
.322569,-.187784,
.315351,-.214723,
.303564,-.24,
.287567,-.262846,
.267846,-.282567,
.245,-.298564,
.219723,-.310351,
.192784,-.317569,
.165,-.32,
-.165,-.32,
-.192784,-.317569,
-.219723,-.310351,
-.245,-.298564,
-.267846,-.282567,
-.287567,-.262846,
-.303564,-.24,
-.315351,-.214723,
-.322569,-.187784,
-.325,-.16,
0.0*
%
%ADD21MACRO21*%
%AMMACRO20*
4,1,40,-.16,.325,
.16,.325,
.187784,.322569,
.214723,.315351,
.24,.303564,
.262846,.287567,
.282567,.267846,
.298564,.245,
.310351,.219723,
.317569,.192784,
.32,.165,
.32,-.165,
.317569,-.192784,
.310351,-.219723,
.298564,-.245,
.282567,-.267846,
.262846,-.287567,
.24,-.303564,
.214723,-.315351,
.187784,-.322569,
.16,-.325,
-.16,-.325,
-.187784,-.322569,
-.214723,-.315351,
-.24,-.303564,
-.262846,-.287567,
-.282567,-.267846,
-.298564,-.245,
-.310351,-.219723,
-.317569,-.192784,
-.32,-.165,
-.32,.165,
-.317569,.192784,
-.310351,.219723,
-.298564,.245,
-.282567,.267846,
-.262846,.287567,
-.24,.303564,
-.214723,.315351,
-.187784,.322569,
-.16,.325,
0.0*
%
%ADD20MACRO20*%
%ADD10O,1.15X1.15*%
%ADD30O,.95X.399*%
%ADD29O,.399X.95*%
%AMMACRO38*
4,1,6,1.405,-1.64,
1.405,1.64,
-1.405,1.64,
-1.405,.49,
.255,.49,
.255,-1.64,
1.405,-1.64,
0.0*
%
%ADD38MACRO38*%
%AMMACRO27*
4,1,44,.574,.274,
.574,-.274,
.569948,-.321648,
.557684,-.367868,
.53758,-.411256,
.510247,-.450494,
.476515,-.484389,
.437411,-.511913,
.394121,-.532227,
.347961,-.544716,
.300334,-.548999,
.3,-.549,
-.3,-.549,
-.347632,-.544774,
-.393808,-.532342,
-.437122,-.51208,
-.47626,-.484604,
-.510033,-.45075,
-.537413,-.411545,
-.55757,-.368181,
-.569891,-.321976,
-.574001,-.274334,
-.574,-.274,
-.574,.274,
-.569948,.321648,
-.557684,.367868,
-.53758,.411256,
-.510247,.450494,
-.476515,.484389,
-.437411,.511913,
-.394121,.532227,
-.347961,.544716,
-.300334,.548999,
-.3,.549,
.3,.549,
.347632,.544774,
.393808,.532342,
.437122,.51208,
.47626,.484604,
.510033,.45075,
.537413,.411545,
.55757,.368181,
.569891,.321976,
.574001,.274334,
.574,.274,
0.0*
%
%ADD27MACRO27*%
%ADD42C,.02*%
G75*
%LPD*%
G75*
G54D10*
X1069500Y1381500D03*
X1084200Y924800D03*
X1435000Y928300D03*
G54D20*
X1164800Y1012700D03*
Y1004700D03*
X1159000Y1161000D03*
Y1153000D03*
X1145300Y1205000D03*
X1158200Y1183400D03*
Y1175400D03*
X1145300Y1213000D03*
X1173300Y988100D03*
Y996100D03*
X1168000Y1161000D03*
Y1153000D03*
X1180000Y1205200D03*
X1167000Y1183300D03*
Y1175300D03*
X1180000Y1213200D03*
X1209000Y1282500D03*
Y1274500D03*
X1226000Y1282500D03*
Y1274500D03*
X1214500Y1317500D03*
Y1309500D03*
X1232500Y1317500D03*
Y1309500D03*
X1223500Y1317500D03*
Y1309500D03*
X1286500Y1226000D03*
Y1218000D03*
X1272100Y1226000D03*
Y1218000D03*
X1258500Y1317500D03*
Y1309500D03*
Y1335500D03*
Y1343500D03*
Y1367500D03*
Y1359500D03*
X1299900Y1226000D03*
Y1218000D03*
X1348000Y1239000D03*
Y1231000D03*
X1401900Y1189100D03*
Y1181100D03*
G54D11*
X1113020Y969820D03*
Y1115880D03*
X1417820Y969820D03*
Y1115880D03*
G54D30*
X1225880Y1164190D03*
Y1159190D03*
Y1154210D03*
Y1149210D03*
Y1144200D03*
Y1139200D03*
Y1134200D03*
Y1129190D03*
Y1194190D03*
Y1189190D03*
Y1184210D03*
Y1179210D03*
Y1174200D03*
Y1169200D03*
X1304900Y1129190D03*
Y1134200D03*
Y1139200D03*
Y1144200D03*
Y1149210D03*
Y1154210D03*
Y1159190D03*
Y1164190D03*
Y1169200D03*
Y1174200D03*
Y1179210D03*
Y1184210D03*
Y1189190D03*
Y1194190D03*
G54D21*
X1148700Y1087400D03*
X1156700D03*
X1148800Y1099800D03*
X1156800D03*
X1180400Y974200D03*
X1188400D03*
X1205000Y1118500D03*
Y1127000D03*
X1205200Y1194100D03*
X1213000Y1118500D03*
Y1127000D03*
X1213200Y1194100D03*
X1251500Y1227000D03*
X1224900Y1223400D03*
X1232900D03*
X1224900Y1214800D03*
X1232900D03*
X1250500Y1300500D03*
Y1326500D03*
Y1386500D03*
X1259500Y1227000D03*
X1258500Y1300500D03*
Y1326500D03*
Y1386500D03*
X1317700Y1203300D03*
X1325700D03*
X1303500Y1272000D03*
X1311500D03*
X1303500Y1263000D03*
X1311500D03*
X1303500Y1281000D03*
X1311500D03*
G54D12*
X1089700Y1163000D03*
Y1188400D03*
G54D31*
X1265400Y1161700D03*
G54D40*
X1338000Y1231000D03*
Y1245500D03*
X1326490Y1231000D03*
Y1245500D03*
G54D22*
X1155200Y1205000D03*
X1170200D03*
G54D13*
X1089000Y1309500D03*
Y1365500D03*
X1145000Y1309500D03*
Y1365500D03*
G54D23*
X1174800Y1250650D03*
G54D41*
X1361900Y971500D03*
Y987500D03*
G54D14*
X1117000Y1337500D03*
G54D32*
X1245500Y1252500D03*
Y1289500D03*
X1265000Y1252500D03*
X1258500D03*
X1252000D03*
Y1289500D03*
X1258500D03*
X1265000D03*
G54D42*
G01X1054000Y900000D02*
X1127500D01*
Y917500D01*
X1214500D01*
Y900000D01*
X1470000D01*
Y1467500D01*
X1054000D01*
Y900000D01*
G54D15*
X1158870Y931950D03*
X1182870D03*
G54D24*
X1166500Y1307300D03*
X1291600D03*
G54D33*
X1229100Y1240000D03*
Y1374600D03*
G54D25*
X1174800Y1363950D03*
G54D16*
X1136620Y931950D03*
X1205120D03*
G54D34*
X1255250Y1271000D03*
G54D17*
X1138870Y956450D03*
X1202870D03*
G54D26*
X1204000Y1205400D03*
X1212000D03*
X1249500Y1309500D03*
X1241500D03*
X1250500Y1359500D03*
X1293000Y1281500D03*
X1285000D03*
X1266500Y1351500D03*
X1258500D03*
Y1359500D03*
X1326000Y1120200D03*
X1318000D03*
X1325900Y1174200D03*
X1317900D03*
X1325700Y1194800D03*
X1317700D03*
X1334000Y1256000D03*
X1326000D03*
G54D35*
X1236750Y1261250D03*
Y1267750D03*
Y1274250D03*
Y1280750D03*
X1273750D03*
Y1274250D03*
Y1267750D03*
Y1261250D03*
G54D27*
X1252100Y930400D03*
Y914400D03*
X1337300Y1026400D03*
Y1042400D03*
X1361800Y1018600D03*
Y1002600D03*
X1368300Y1123300D03*
Y1139300D03*
G54D18*
X1164400Y958700D03*
X1157900D03*
X1183900D03*
X1177400D03*
X1170900D03*
G54D36*
X1266100Y914200D03*
X1275600D03*
X1285100D03*
Y941200D03*
X1266100D03*
G54D28*
X1250100Y954600D03*
X1266100D03*
X1308500Y1026400D03*
X1324500D03*
G54D19*
X1147500Y988100D03*
X1156200D03*
X1164700D03*
X1147500Y996100D03*
X1156200D03*
X1164700D03*
X1217500Y1266500D03*
Y1274500D03*
X1277800Y1101300D03*
Y1109300D03*
G54D37*
X1283300Y1250650D03*
G54D38*
Y1363950D03*
G54D29*
X1232890Y1122210D03*
X1237890D03*
X1242900D03*
X1247900D03*
Y1201200D03*
X1242900D03*
X1237890D03*
X1232890D03*
X1252880Y1122210D03*
X1257880D03*
X1262890D03*
X1267890D03*
X1272890D03*
X1277900D03*
X1282900D03*
X1287880D03*
X1292890D03*
Y1201200D03*
X1287880D03*
X1282900D03*
X1277900D03*
X1272890D03*
X1267890D03*
X1262890D03*
X1257880D03*
X1252880D03*
X1297890Y1122210D03*
Y1201200D03*
G54D39*
X1326800Y921200D03*
Y946600D03*
X1381300Y921200D03*
Y946600D03*
M02*
