G04 ================== begin FILE IDENTIFICATION RECORD ==================*
G04 Layout Name:  CC2538_CC2592EM_shield.BRD*
G04 Film Name:    soldmask_bottom*
G04 File Format:  Gerber RS274X*
G04 File Origin:  Cadence Allegro 16.6-S019*
G04 Origin Date:  Tue Nov 26 15:06:45 2013*
G04 *
G04 Layer:  VIA CLASS/SOLDERMASK_BOTTOM*
G04 Layer:  PIN/SOLDERMASK_BOTTOM*
G04 Layer:  BOARD GEOMETRY/OUTLINE*
G04 *
G04 Offset:    (0.000 0.000)*
G04 Mirror:    No*
G04 Mode:      Positive*
G04 Rotation:  0*
G04 FullContactRelief:  No*
G04 UndefLineWidth:     0.020*
G04 ================== end FILE IDENTIFICATION RECORD ====================*
%FSLAX44Y44*MOMM*%
%IR0*IPPOS*OFA0.00000B0.00000*MIA0B0*SFA1.00000B1.00000*%
%ADD12O,2.2X.8*%
%ADD13C,1.6*%
%ADD11C,1.699*%
%ADD10O,1.15X1.15*%
%ADD14C,.6*%
%ADD15C,.02*%
G75*
%LPD*%
G75*
G54D10*
X1069500Y1381500D03*
X1083600Y924000D03*
X1435300Y929200D03*
G54D11*
X1113020Y969820D03*
Y1115880D03*
X1417820Y969820D03*
Y1115880D03*
G54D12*
X1126040Y985700D03*
X1100000D03*
X1126040Y998400D03*
Y1011100D03*
Y1023800D03*
Y1036500D03*
X1100000Y998400D03*
Y1011100D03*
Y1023800D03*
Y1036500D03*
X1126040Y1049200D03*
Y1061900D03*
Y1074600D03*
X1100000Y1049200D03*
Y1061900D03*
Y1074600D03*
X1126040Y1087300D03*
Y1100000D03*
X1100000Y1087300D03*
Y1100000D03*
X1430840Y985700D03*
X1404800D03*
X1430840Y998400D03*
Y1011100D03*
Y1023800D03*
Y1036500D03*
X1404800Y998400D03*
Y1011100D03*
Y1023800D03*
Y1036500D03*
X1430840Y1049200D03*
Y1061900D03*
Y1074600D03*
X1404800Y1049200D03*
Y1061900D03*
Y1074600D03*
X1430840Y1087300D03*
Y1100000D03*
X1404800Y1087300D03*
Y1100000D03*
G54D13*
X1089700Y1163000D03*
Y1188400D03*
G54D14*
X1240430Y1136790D03*
X1240460Y1146750D03*
X1250380Y1156790D03*
X1240380D03*
X1250460Y1146750D03*
X1250430Y1136790D03*
X1240460Y1166900D03*
X1250460D03*
X1250450Y1176830D03*
X1240450D03*
X1240440Y1186750D03*
X1250440D03*
X1247960Y1263900D03*
X1247950Y1270830D03*
X1247940Y1278250D03*
X1270430Y1136790D03*
X1260380Y1156790D03*
X1260460Y1146750D03*
X1270460D03*
X1290480Y1146730D03*
X1280480D03*
X1280400Y1156770D03*
X1290400D03*
X1270380Y1156790D03*
X1280450Y1136770D03*
X1290450D03*
X1260430Y1136790D03*
X1260460Y1166900D03*
X1290470Y1166880D03*
X1280470D03*
X1270460Y1166900D03*
X1280470Y1176810D03*
X1290470D03*
X1270450Y1176830D03*
X1260450D03*
X1260440Y1186750D03*
X1270440D03*
X1290460Y1186730D03*
X1280460D03*
X1262460Y1263900D03*
X1262450Y1270830D03*
X1262440Y1278250D03*
X1254960Y1263900D03*
X1254950Y1270830D03*
X1254940Y1278250D03*
G54D15*
G01X1054000Y900000D02*
X1127500D01*
Y917500D01*
X1214500D01*
Y900000D01*
X1470000D01*
Y1467500D01*
X1054000D01*
Y900000D01*
M02*
