G04 #@! TF.GenerationSoftware,KiCad,Pcbnew,5.99.0-unknown-9339afc~100~ubuntu16.04.1*
G04 #@! TF.CreationDate,2019-10-23T14:24:21+02:00*
G04 #@! TF.ProjectId,f9p_board,6639705f-626f-4617-9264-2e6b69636164,rev?*
G04 #@! TF.SameCoordinates,Original*
G04 #@! TF.FileFunction,Legend,Bot*
G04 #@! TF.FilePolarity,Positive*
%FSLAX46Y46*%
G04 Gerber Fmt 4.6, Leading zero omitted, Abs format (unit mm)*
G04 Created by KiCad (PCBNEW 5.99.0-unknown-9339afc~100~ubuntu16.04.1) date 2019-10-23 14:24:21*
%MOMM*%
%LPD*%
G04 APERTURE LIST*
%ADD10C,0.150000*%
%ADD11C,0.120000*%
%ADD12C,0.127000*%
G04 APERTURE END LIST*
D10*
X78335833Y-90553166D02*
X78335833Y-91053166D01*
X78369166Y-91153166D01*
X78435833Y-91219833D01*
X78535833Y-91253166D01*
X78602500Y-91253166D01*
X77902500Y-91253166D02*
X77969166Y-91219833D01*
X78002500Y-91186500D01*
X78035833Y-91119833D01*
X78035833Y-90919833D01*
X78002500Y-90853166D01*
X77969166Y-90819833D01*
X77902500Y-90786500D01*
X77802500Y-90786500D01*
X77735833Y-90819833D01*
X77702500Y-90853166D01*
X77669166Y-90919833D01*
X77669166Y-91119833D01*
X77702500Y-91186500D01*
X77735833Y-91219833D01*
X77802500Y-91253166D01*
X77902500Y-91253166D01*
X77102500Y-91219833D02*
X77169166Y-91253166D01*
X77302500Y-91253166D01*
X77369166Y-91219833D01*
X77402500Y-91153166D01*
X77402500Y-90886500D01*
X77369166Y-90819833D01*
X77302500Y-90786500D01*
X77169166Y-90786500D01*
X77102500Y-90819833D01*
X77069166Y-90886500D01*
X77069166Y-90953166D01*
X77402500Y-91019833D01*
X76669166Y-91253166D02*
X76735833Y-91219833D01*
X76769166Y-91153166D01*
X76769166Y-90553166D01*
X75902500Y-91219833D02*
X75802500Y-91253166D01*
X75635833Y-91253166D01*
X75569166Y-91219833D01*
X75535833Y-91186500D01*
X75502500Y-91119833D01*
X75502500Y-91053166D01*
X75535833Y-90986500D01*
X75569166Y-90953166D01*
X75635833Y-90919833D01*
X75769166Y-90886500D01*
X75835833Y-90853166D01*
X75869166Y-90819833D01*
X75902500Y-90753166D01*
X75902500Y-90686500D01*
X75869166Y-90619833D01*
X75835833Y-90586500D01*
X75769166Y-90553166D01*
X75602500Y-90553166D01*
X75502500Y-90586500D01*
X75269166Y-90786500D02*
X75102500Y-91253166D01*
X74935833Y-90786500D01*
X74402500Y-91219833D02*
X74469166Y-91253166D01*
X74602500Y-91253166D01*
X74669166Y-91219833D01*
X74702500Y-91153166D01*
X74702500Y-90886500D01*
X74669166Y-90819833D01*
X74602500Y-90786500D01*
X74469166Y-90786500D01*
X74402500Y-90819833D01*
X74369166Y-90886500D01*
X74369166Y-90953166D01*
X74702500Y-91019833D01*
X74069166Y-90786500D02*
X74069166Y-91253166D01*
X74069166Y-90853166D02*
X74035833Y-90819833D01*
X73969166Y-90786500D01*
X73869166Y-90786500D01*
X73802500Y-90819833D01*
X73769166Y-90886500D01*
X73769166Y-91253166D01*
X73469166Y-91219833D02*
X73402500Y-91253166D01*
X73269166Y-91253166D01*
X73202500Y-91219833D01*
X73169166Y-91153166D01*
X73169166Y-91119833D01*
X73202500Y-91053166D01*
X73269166Y-91019833D01*
X73369166Y-91019833D01*
X73435833Y-90986500D01*
X73469166Y-90919833D01*
X73469166Y-90886500D01*
X73435833Y-90819833D01*
X73369166Y-90786500D01*
X73269166Y-90786500D01*
X73202500Y-90819833D01*
X72902500Y-91219833D02*
X72835833Y-91253166D01*
X72702500Y-91253166D01*
X72635833Y-91219833D01*
X72602500Y-91153166D01*
X72602500Y-91119833D01*
X72635833Y-91053166D01*
X72702500Y-91019833D01*
X72802500Y-91019833D01*
X72869166Y-90986500D01*
X72902500Y-90919833D01*
X72902500Y-90886500D01*
X72869166Y-90819833D01*
X72802500Y-90786500D01*
X72702500Y-90786500D01*
X72635833Y-90819833D01*
X72202500Y-91253166D02*
X72269166Y-91219833D01*
X72302500Y-91186500D01*
X72335833Y-91119833D01*
X72335833Y-90919833D01*
X72302500Y-90853166D01*
X72269166Y-90819833D01*
X72202500Y-90786500D01*
X72102500Y-90786500D01*
X72035833Y-90819833D01*
X72002500Y-90853166D01*
X71969166Y-90919833D01*
X71969166Y-91119833D01*
X72002500Y-91186500D01*
X72035833Y-91219833D01*
X72102500Y-91253166D01*
X72202500Y-91253166D01*
X71669166Y-90786500D02*
X71669166Y-91253166D01*
X71669166Y-90853166D02*
X71635833Y-90819833D01*
X71569166Y-90786500D01*
X71469166Y-90786500D01*
X71402500Y-90819833D01*
X71369166Y-90886500D01*
X71369166Y-91253166D01*
X78302500Y-92013500D02*
X78202500Y-92046833D01*
X78169166Y-92080166D01*
X78135833Y-92146833D01*
X78135833Y-92246833D01*
X78169166Y-92313500D01*
X78202500Y-92346833D01*
X78269166Y-92380166D01*
X78535833Y-92380166D01*
X78535833Y-91680166D01*
X78302500Y-91680166D01*
X78235833Y-91713500D01*
X78202500Y-91746833D01*
X78169166Y-91813500D01*
X78169166Y-91880166D01*
X78202500Y-91946833D01*
X78235833Y-91980166D01*
X78302500Y-92013500D01*
X78535833Y-92013500D01*
X77569166Y-92346833D02*
X77635833Y-92380166D01*
X77769166Y-92380166D01*
X77835833Y-92346833D01*
X77869166Y-92280166D01*
X77869166Y-92013500D01*
X77835833Y-91946833D01*
X77769166Y-91913500D01*
X77635833Y-91913500D01*
X77569166Y-91946833D01*
X77535833Y-92013500D01*
X77535833Y-92080166D01*
X77869166Y-92146833D01*
X77235833Y-91913500D02*
X77235833Y-92380166D01*
X77235833Y-91980166D02*
X77202500Y-91946833D01*
X77135833Y-91913500D01*
X77035833Y-91913500D01*
X76969166Y-91946833D01*
X76935833Y-92013500D01*
X76935833Y-92380166D01*
X76602500Y-91913500D02*
X76602500Y-92513500D01*
X76635833Y-92580166D01*
X76702500Y-92613500D01*
X76735833Y-92613500D01*
X76602500Y-91680166D02*
X76635833Y-91713500D01*
X76602500Y-91746833D01*
X76569166Y-91713500D01*
X76602500Y-91680166D01*
X76602500Y-91746833D01*
X75969166Y-92380166D02*
X75969166Y-92013500D01*
X76002500Y-91946833D01*
X76069166Y-91913500D01*
X76202500Y-91913500D01*
X76269166Y-91946833D01*
X75969166Y-92346833D02*
X76035833Y-92380166D01*
X76202500Y-92380166D01*
X76269166Y-92346833D01*
X76302500Y-92280166D01*
X76302500Y-92213500D01*
X76269166Y-92146833D01*
X76202500Y-92113500D01*
X76035833Y-92113500D01*
X75969166Y-92080166D01*
X75635833Y-92380166D02*
X75635833Y-91913500D01*
X75635833Y-91980166D02*
X75602500Y-91946833D01*
X75535833Y-91913500D01*
X75435833Y-91913500D01*
X75369166Y-91946833D01*
X75335833Y-92013500D01*
X75335833Y-92380166D01*
X75335833Y-92013500D02*
X75302500Y-91946833D01*
X75235833Y-91913500D01*
X75135833Y-91913500D01*
X75069166Y-91946833D01*
X75035833Y-92013500D01*
X75035833Y-92380166D01*
X74702500Y-92380166D02*
X74702500Y-91913500D01*
X74702500Y-91680166D02*
X74735833Y-91713500D01*
X74702500Y-91746833D01*
X74669166Y-91713500D01*
X74702500Y-91680166D01*
X74702500Y-91746833D01*
X74369166Y-91913500D02*
X74369166Y-92380166D01*
X74369166Y-91980166D02*
X74335833Y-91946833D01*
X74269166Y-91913500D01*
X74169166Y-91913500D01*
X74102500Y-91946833D01*
X74069166Y-92013500D01*
X74069166Y-92380166D01*
X73302500Y-91680166D02*
X73069166Y-92380166D01*
X72835833Y-91680166D01*
X72335833Y-92346833D02*
X72402500Y-92380166D01*
X72535833Y-92380166D01*
X72602500Y-92346833D01*
X72635833Y-92280166D01*
X72635833Y-92013500D01*
X72602500Y-91946833D01*
X72535833Y-91913500D01*
X72402500Y-91913500D01*
X72335833Y-91946833D01*
X72302500Y-92013500D01*
X72302500Y-92080166D01*
X72635833Y-92146833D01*
X71702500Y-92380166D02*
X71702500Y-91680166D01*
X71702500Y-92346833D02*
X71769166Y-92380166D01*
X71902500Y-92380166D01*
X71969166Y-92346833D01*
X72002500Y-92313500D01*
X72035833Y-92246833D01*
X72035833Y-92046833D01*
X72002500Y-91980166D01*
X71969166Y-91946833D01*
X71902500Y-91913500D01*
X71769166Y-91913500D01*
X71702500Y-91946833D01*
X71069166Y-92380166D02*
X71069166Y-91680166D01*
X71069166Y-92346833D02*
X71135833Y-92380166D01*
X71269166Y-92380166D01*
X71335833Y-92346833D01*
X71369166Y-92313500D01*
X71402500Y-92246833D01*
X71402500Y-92046833D01*
X71369166Y-91980166D01*
X71335833Y-91946833D01*
X71269166Y-91913500D01*
X71135833Y-91913500D01*
X71069166Y-91946833D01*
X70469166Y-92346833D02*
X70535833Y-92380166D01*
X70669166Y-92380166D01*
X70735833Y-92346833D01*
X70769166Y-92280166D01*
X70769166Y-92013500D01*
X70735833Y-91946833D01*
X70669166Y-91913500D01*
X70535833Y-91913500D01*
X70469166Y-91946833D01*
X70435833Y-92013500D01*
X70435833Y-92080166D01*
X70769166Y-92146833D01*
X70135833Y-92380166D02*
X70135833Y-91913500D01*
X70135833Y-92046833D02*
X70102500Y-91980166D01*
X70069166Y-91946833D01*
X70002500Y-91913500D01*
X69935833Y-91913500D01*
X64366666Y-55052142D02*
X64414285Y-55099761D01*
X64557142Y-55147380D01*
X64652380Y-55147380D01*
X64795238Y-55099761D01*
X64890476Y-55004523D01*
X64938095Y-54909285D01*
X64985714Y-54718809D01*
X64985714Y-54575952D01*
X64938095Y-54385476D01*
X64890476Y-54290238D01*
X64795238Y-54195000D01*
X64652380Y-54147380D01*
X64557142Y-54147380D01*
X64414285Y-54195000D01*
X64366666Y-54242619D01*
X63509523Y-55147380D02*
X63509523Y-54623571D01*
X63557142Y-54528333D01*
X63652380Y-54480714D01*
X63842857Y-54480714D01*
X63938095Y-54528333D01*
X63509523Y-55099761D02*
X63604761Y-55147380D01*
X63842857Y-55147380D01*
X63938095Y-55099761D01*
X63985714Y-55004523D01*
X63985714Y-54909285D01*
X63938095Y-54814047D01*
X63842857Y-54766428D01*
X63604761Y-54766428D01*
X63509523Y-54718809D01*
X63033333Y-55147380D02*
X63033333Y-54480714D01*
X63033333Y-54671190D02*
X62985714Y-54575952D01*
X62938095Y-54528333D01*
X62842857Y-54480714D01*
X62747619Y-54480714D01*
X61842857Y-55052142D02*
X61890476Y-55099761D01*
X62033333Y-55147380D01*
X62128571Y-55147380D01*
X62271428Y-55099761D01*
X62366666Y-55004523D01*
X62414285Y-54909285D01*
X62461904Y-54718809D01*
X62461904Y-54575952D01*
X62414285Y-54385476D01*
X62366666Y-54290238D01*
X62271428Y-54195000D01*
X62128571Y-54147380D01*
X62033333Y-54147380D01*
X61890476Y-54195000D01*
X61842857Y-54242619D01*
X61271428Y-55147380D02*
X61366666Y-55099761D01*
X61414285Y-55052142D01*
X61461904Y-54956904D01*
X61461904Y-54671190D01*
X61414285Y-54575952D01*
X61366666Y-54528333D01*
X61271428Y-54480714D01*
X61128571Y-54480714D01*
X61033333Y-54528333D01*
X60985714Y-54575952D01*
X60938095Y-54671190D01*
X60938095Y-54956904D01*
X60985714Y-55052142D01*
X61033333Y-55099761D01*
X61128571Y-55147380D01*
X61271428Y-55147380D01*
X60509523Y-54480714D02*
X60509523Y-55147380D01*
X60509523Y-54575952D02*
X60461904Y-54528333D01*
X60366666Y-54480714D01*
X60223809Y-54480714D01*
X60128571Y-54528333D01*
X60080952Y-54623571D01*
X60080952Y-55147380D01*
X59747619Y-54480714D02*
X59366666Y-54480714D01*
X59604761Y-54147380D02*
X59604761Y-55004523D01*
X59557142Y-55099761D01*
X59461904Y-55147380D01*
X59366666Y-55147380D01*
X59033333Y-55147380D02*
X59033333Y-54480714D01*
X59033333Y-54671190D02*
X58985714Y-54575952D01*
X58938095Y-54528333D01*
X58842857Y-54480714D01*
X58747619Y-54480714D01*
X58271428Y-55147380D02*
X58366666Y-55099761D01*
X58414285Y-55052142D01*
X58461904Y-54956904D01*
X58461904Y-54671190D01*
X58414285Y-54575952D01*
X58366666Y-54528333D01*
X58271428Y-54480714D01*
X58128571Y-54480714D01*
X58033333Y-54528333D01*
X57985714Y-54575952D01*
X57938095Y-54671190D01*
X57938095Y-54956904D01*
X57985714Y-55052142D01*
X58033333Y-55099761D01*
X58128571Y-55147380D01*
X58271428Y-55147380D01*
X57366666Y-55147380D02*
X57461904Y-55099761D01*
X57509523Y-55004523D01*
X57509523Y-54147380D01*
X56842857Y-55147380D02*
X56938095Y-55099761D01*
X56985714Y-55004523D01*
X56985714Y-54147380D01*
X56080952Y-55099761D02*
X56176190Y-55147380D01*
X56366666Y-55147380D01*
X56461904Y-55099761D01*
X56509523Y-55004523D01*
X56509523Y-54623571D01*
X56461904Y-54528333D01*
X56366666Y-54480714D01*
X56176190Y-54480714D01*
X56080952Y-54528333D01*
X56033333Y-54623571D01*
X56033333Y-54718809D01*
X56509523Y-54814047D01*
X55604761Y-55147380D02*
X55604761Y-54480714D01*
X55604761Y-54671190D02*
X55557142Y-54575952D01*
X55509523Y-54528333D01*
X55414285Y-54480714D01*
X55319047Y-54480714D01*
X61628571Y-56090714D02*
X61390476Y-56757380D01*
X61152380Y-56090714D01*
X60247619Y-56757380D02*
X60819047Y-56757380D01*
X60533333Y-56757380D02*
X60533333Y-55757380D01*
X60628571Y-55900238D01*
X60723809Y-55995476D01*
X60819047Y-56043095D01*
X59819047Y-56662142D02*
X59771428Y-56709761D01*
X59819047Y-56757380D01*
X59866666Y-56709761D01*
X59819047Y-56662142D01*
X59819047Y-56757380D01*
X59152380Y-55757380D02*
X59057142Y-55757380D01*
X58961904Y-55805000D01*
X58914285Y-55852619D01*
X58866666Y-55947857D01*
X58819047Y-56138333D01*
X58819047Y-56376428D01*
X58866666Y-56566904D01*
X58914285Y-56662142D01*
X58961904Y-56709761D01*
X59057142Y-56757380D01*
X59152380Y-56757380D01*
X59247619Y-56709761D01*
X59295238Y-56662142D01*
X59342857Y-56566904D01*
X59390476Y-56376428D01*
X59390476Y-56138333D01*
X59342857Y-55947857D01*
X59295238Y-55852619D01*
X59247619Y-55805000D01*
X59152380Y-55757380D01*
X69335833Y-59383333D02*
X69369166Y-59350000D01*
X69435833Y-59250000D01*
X69469166Y-59183333D01*
X69502500Y-59083333D01*
X69535833Y-58916666D01*
X69535833Y-58783333D01*
X69502500Y-58616666D01*
X69469166Y-58516666D01*
X69435833Y-58450000D01*
X69369166Y-58350000D01*
X69335833Y-58316666D01*
X68669166Y-59116666D02*
X68902500Y-58783333D01*
X69069166Y-59116666D02*
X69069166Y-58416666D01*
X68802500Y-58416666D01*
X68735833Y-58450000D01*
X68702500Y-58483333D01*
X68669166Y-58550000D01*
X68669166Y-58650000D01*
X68702500Y-58716666D01*
X68735833Y-58750000D01*
X68802500Y-58783333D01*
X69069166Y-58783333D01*
X68435833Y-58416666D02*
X67969166Y-59116666D01*
X67969166Y-58416666D02*
X68435833Y-59116666D01*
X67769166Y-59383333D02*
X67735833Y-59350000D01*
X67669166Y-59250000D01*
X67635833Y-59183333D01*
X67602500Y-59083333D01*
X67569166Y-58916666D01*
X67569166Y-58783333D01*
X67602500Y-58616666D01*
X67635833Y-58516666D01*
X67669166Y-58450000D01*
X67735833Y-58350000D01*
X67769166Y-58316666D01*
X69335833Y-55683333D02*
X69369166Y-55650000D01*
X69435833Y-55550000D01*
X69469166Y-55483333D01*
X69502500Y-55383333D01*
X69535833Y-55216666D01*
X69535833Y-55083333D01*
X69502500Y-54916666D01*
X69469166Y-54816666D01*
X69435833Y-54750000D01*
X69369166Y-54650000D01*
X69335833Y-54616666D01*
X69169166Y-54716666D02*
X68769166Y-54716666D01*
X68969166Y-55416666D02*
X68969166Y-54716666D01*
X68602500Y-54716666D02*
X68135833Y-55416666D01*
X68135833Y-54716666D02*
X68602500Y-55416666D01*
X67935833Y-55683333D02*
X67902500Y-55650000D01*
X67835833Y-55550000D01*
X67802500Y-55483333D01*
X67769166Y-55383333D01*
X67735833Y-55216666D01*
X67735833Y-55083333D01*
X67769166Y-54916666D01*
X67802500Y-54816666D01*
X67835833Y-54750000D01*
X67902500Y-54650000D01*
X67935833Y-54616666D01*
X102616666Y-58097500D02*
X102616666Y-57764166D01*
X102950000Y-57730833D01*
X102916666Y-57764166D01*
X102883333Y-57830833D01*
X102883333Y-57997500D01*
X102916666Y-58064166D01*
X102950000Y-58097500D01*
X103016666Y-58130833D01*
X103183333Y-58130833D01*
X103250000Y-58097500D01*
X103283333Y-58064166D01*
X103316666Y-57997500D01*
X103316666Y-57830833D01*
X103283333Y-57764166D01*
X103250000Y-57730833D01*
X102616666Y-58330833D02*
X103316666Y-58564166D01*
X102616666Y-58797500D01*
X105150000Y-58164166D02*
X105183333Y-58130833D01*
X105216666Y-58030833D01*
X105216666Y-57964166D01*
X105183333Y-57864166D01*
X105116666Y-57797500D01*
X105050000Y-57764166D01*
X104916666Y-57730833D01*
X104816666Y-57730833D01*
X104683333Y-57764166D01*
X104616666Y-57797500D01*
X104550000Y-57864166D01*
X104516666Y-57964166D01*
X104516666Y-58030833D01*
X104550000Y-58130833D01*
X104583333Y-58164166D01*
X105016666Y-58430833D02*
X105016666Y-58764166D01*
X105216666Y-58364166D02*
X104516666Y-58597500D01*
X105216666Y-58830833D01*
X105216666Y-59064166D02*
X104516666Y-59064166D01*
X105216666Y-59464166D01*
X104516666Y-59464166D01*
X105216666Y-59797500D02*
X104516666Y-59797500D01*
X104850000Y-59797500D02*
X104850000Y-60197500D01*
X105216666Y-60197500D02*
X104516666Y-60197500D01*
X107250000Y-58164166D02*
X107283333Y-58130833D01*
X107316666Y-58030833D01*
X107316666Y-57964166D01*
X107283333Y-57864166D01*
X107216666Y-57797500D01*
X107150000Y-57764166D01*
X107016666Y-57730833D01*
X106916666Y-57730833D01*
X106783333Y-57764166D01*
X106716666Y-57797500D01*
X106650000Y-57864166D01*
X106616666Y-57964166D01*
X106616666Y-58030833D01*
X106650000Y-58130833D01*
X106683333Y-58164166D01*
X107116666Y-58430833D02*
X107116666Y-58764166D01*
X107316666Y-58364166D02*
X106616666Y-58597500D01*
X107316666Y-58830833D01*
X107316666Y-59064166D02*
X106616666Y-59064166D01*
X107316666Y-59464166D01*
X106616666Y-59464166D01*
X107316666Y-60130833D02*
X107316666Y-59797500D01*
X106616666Y-59797500D01*
X108650000Y-58130833D02*
X108616666Y-58064166D01*
X108616666Y-57964166D01*
X108650000Y-57864166D01*
X108716666Y-57797500D01*
X108783333Y-57764166D01*
X108916666Y-57730833D01*
X109016666Y-57730833D01*
X109150000Y-57764166D01*
X109216666Y-57797500D01*
X109283333Y-57864166D01*
X109316666Y-57964166D01*
X109316666Y-58030833D01*
X109283333Y-58130833D01*
X109250000Y-58164166D01*
X109016666Y-58164166D01*
X109016666Y-58030833D01*
X109316666Y-58464166D02*
X108616666Y-58464166D01*
X109316666Y-58864166D01*
X108616666Y-58864166D01*
X109316666Y-59197500D02*
X108616666Y-59197500D01*
X108616666Y-59364166D01*
X108650000Y-59464166D01*
X108716666Y-59530833D01*
X108783333Y-59564166D01*
X108916666Y-59597500D01*
X109016666Y-59597500D01*
X109150000Y-59564166D01*
X109216666Y-59530833D01*
X109283333Y-59464166D01*
X109316666Y-59364166D01*
X109316666Y-59197500D01*
X72069166Y-56650000D02*
X72135833Y-56616666D01*
X72235833Y-56616666D01*
X72335833Y-56650000D01*
X72402500Y-56716666D01*
X72435833Y-56783333D01*
X72469166Y-56916666D01*
X72469166Y-57016666D01*
X72435833Y-57150000D01*
X72402500Y-57216666D01*
X72335833Y-57283333D01*
X72235833Y-57316666D01*
X72169166Y-57316666D01*
X72069166Y-57283333D01*
X72035833Y-57250000D01*
X72035833Y-57016666D01*
X72169166Y-57016666D01*
X71735833Y-57316666D02*
X71735833Y-56616666D01*
X71335833Y-57316666D01*
X71335833Y-56616666D01*
X71002500Y-57316666D02*
X71002500Y-56616666D01*
X70835833Y-56616666D01*
X70735833Y-56650000D01*
X70669166Y-56716666D01*
X70635833Y-56783333D01*
X70602500Y-56916666D01*
X70602500Y-57016666D01*
X70635833Y-57150000D01*
X70669166Y-57216666D01*
X70735833Y-57283333D01*
X70835833Y-57316666D01*
X71002500Y-57316666D01*
X76869166Y-57283333D02*
X76769166Y-57316666D01*
X76602500Y-57316666D01*
X76535833Y-57283333D01*
X76502500Y-57250000D01*
X76469166Y-57183333D01*
X76469166Y-57116666D01*
X76502500Y-57050000D01*
X76535833Y-57016666D01*
X76602500Y-56983333D01*
X76735833Y-56950000D01*
X76802500Y-56916666D01*
X76835833Y-56883333D01*
X76869166Y-56816666D01*
X76869166Y-56750000D01*
X76835833Y-56683333D01*
X76802500Y-56650000D01*
X76735833Y-56616666D01*
X76569166Y-56616666D01*
X76469166Y-56650000D01*
X74202500Y-56616666D02*
X74535833Y-56616666D01*
X74569166Y-56950000D01*
X74535833Y-56916666D01*
X74469166Y-56883333D01*
X74302500Y-56883333D01*
X74235833Y-56916666D01*
X74202500Y-56950000D01*
X74169166Y-57016666D01*
X74169166Y-57183333D01*
X74202500Y-57250000D01*
X74235833Y-57283333D01*
X74302500Y-57316666D01*
X74469166Y-57316666D01*
X74535833Y-57283333D01*
X74569166Y-57250000D01*
X73969166Y-56616666D02*
X73735833Y-57316666D01*
X73502500Y-56616666D01*
X48516666Y-63469166D02*
X48483333Y-63369166D01*
X48483333Y-63202500D01*
X48516666Y-63135833D01*
X48550000Y-63102500D01*
X48616666Y-63069166D01*
X48683333Y-63069166D01*
X48750000Y-63102500D01*
X48783333Y-63135833D01*
X48816666Y-63202500D01*
X48850000Y-63335833D01*
X48883333Y-63402500D01*
X48916666Y-63435833D01*
X48983333Y-63469166D01*
X49050000Y-63469166D01*
X49116666Y-63435833D01*
X49150000Y-63402500D01*
X49183333Y-63335833D01*
X49183333Y-63169166D01*
X49150000Y-63069166D01*
X49283333Y-65602500D02*
X49283333Y-65935833D01*
X48950000Y-65969166D01*
X48983333Y-65935833D01*
X49016666Y-65869166D01*
X49016666Y-65702500D01*
X48983333Y-65635833D01*
X48950000Y-65602500D01*
X48883333Y-65569166D01*
X48716666Y-65569166D01*
X48650000Y-65602500D01*
X48616666Y-65635833D01*
X48583333Y-65702500D01*
X48583333Y-65869166D01*
X48616666Y-65935833D01*
X48650000Y-65969166D01*
X49283333Y-65369166D02*
X48583333Y-65135833D01*
X49283333Y-64902500D01*
X49250000Y-68569166D02*
X49283333Y-68635833D01*
X49283333Y-68735833D01*
X49250000Y-68835833D01*
X49183333Y-68902500D01*
X49116666Y-68935833D01*
X48983333Y-68969166D01*
X48883333Y-68969166D01*
X48750000Y-68935833D01*
X48683333Y-68902500D01*
X48616666Y-68835833D01*
X48583333Y-68735833D01*
X48583333Y-68669166D01*
X48616666Y-68569166D01*
X48650000Y-68535833D01*
X48883333Y-68535833D01*
X48883333Y-68669166D01*
X48583333Y-68235833D02*
X49283333Y-68235833D01*
X48583333Y-67835833D01*
X49283333Y-67835833D01*
X48583333Y-67502500D02*
X49283333Y-67502500D01*
X49283333Y-67335833D01*
X49250000Y-67235833D01*
X49183333Y-67169166D01*
X49116666Y-67135833D01*
X48983333Y-67102500D01*
X48883333Y-67102500D01*
X48750000Y-67135833D01*
X48683333Y-67169166D01*
X48616666Y-67235833D01*
X48583333Y-67335833D01*
X48583333Y-67502500D01*
X61483333Y-86702500D02*
X61483333Y-86235833D01*
X60783333Y-86535833D01*
X61050000Y-85969166D02*
X61050000Y-85435833D01*
X61483333Y-84802500D02*
X61483333Y-84935833D01*
X61450000Y-85002500D01*
X61416666Y-85035833D01*
X61316666Y-85102500D01*
X61183333Y-85135833D01*
X60916666Y-85135833D01*
X60850000Y-85102500D01*
X60816666Y-85069166D01*
X60783333Y-85002500D01*
X60783333Y-84869166D01*
X60816666Y-84802500D01*
X60850000Y-84769166D01*
X60916666Y-84735833D01*
X61083333Y-84735833D01*
X61150000Y-84769166D01*
X61183333Y-84802500D01*
X61216666Y-84869166D01*
X61216666Y-85002500D01*
X61183333Y-85069166D01*
X61150000Y-85102500D01*
X61083333Y-85135833D01*
X61483333Y-84302500D02*
X61483333Y-84235833D01*
X61450000Y-84169166D01*
X61416666Y-84135833D01*
X61350000Y-84102500D01*
X61216666Y-84069166D01*
X61050000Y-84069166D01*
X60916666Y-84102500D01*
X60850000Y-84135833D01*
X60816666Y-84169166D01*
X60783333Y-84235833D01*
X60783333Y-84302500D01*
X60816666Y-84369166D01*
X60850000Y-84402500D01*
X60916666Y-84435833D01*
X61050000Y-84469166D01*
X61216666Y-84469166D01*
X61350000Y-84435833D01*
X61416666Y-84402500D01*
X61450000Y-84369166D01*
X61483333Y-84302500D01*
X61483333Y-83869166D02*
X60783333Y-83635833D01*
X61483333Y-83402500D01*
X56350000Y-86269166D02*
X56383333Y-86335833D01*
X56383333Y-86435833D01*
X56350000Y-86535833D01*
X56283333Y-86602500D01*
X56216666Y-86635833D01*
X56083333Y-86669166D01*
X55983333Y-86669166D01*
X55850000Y-86635833D01*
X55783333Y-86602500D01*
X55716666Y-86535833D01*
X55683333Y-86435833D01*
X55683333Y-86369166D01*
X55716666Y-86269166D01*
X55750000Y-86235833D01*
X55983333Y-86235833D01*
X55983333Y-86369166D01*
X55683333Y-85935833D02*
X56383333Y-85935833D01*
X55683333Y-85535833D01*
X56383333Y-85535833D01*
X55683333Y-85202500D02*
X56383333Y-85202500D01*
X56383333Y-85035833D01*
X56350000Y-84935833D01*
X56283333Y-84869166D01*
X56216666Y-84835833D01*
X56083333Y-84802500D01*
X55983333Y-84802500D01*
X55850000Y-84835833D01*
X55783333Y-84869166D01*
X55716666Y-84935833D01*
X55683333Y-85035833D01*
X55683333Y-85202500D01*
X116235833Y-83716666D02*
X116235833Y-83016666D01*
X115969166Y-83016666D01*
X115902500Y-83050000D01*
X115869166Y-83083333D01*
X115835833Y-83150000D01*
X115835833Y-83250000D01*
X115869166Y-83316666D01*
X115902500Y-83350000D01*
X115969166Y-83383333D01*
X116235833Y-83383333D01*
X115602500Y-83016666D02*
X115435833Y-83716666D01*
X115302500Y-83216666D01*
X115169166Y-83716666D01*
X115002500Y-83016666D01*
X114335833Y-83716666D02*
X114569166Y-83383333D01*
X114735833Y-83716666D02*
X114735833Y-83016666D01*
X114469166Y-83016666D01*
X114402500Y-83050000D01*
X114369166Y-83083333D01*
X114335833Y-83150000D01*
X114335833Y-83250000D01*
X114369166Y-83316666D01*
X114402500Y-83350000D01*
X114469166Y-83383333D01*
X114735833Y-83383333D01*
X114202500Y-83783333D02*
X113669166Y-83783333D01*
X113369166Y-83016666D02*
X113235833Y-83016666D01*
X113169166Y-83050000D01*
X113102500Y-83116666D01*
X113069166Y-83250000D01*
X113069166Y-83483333D01*
X113102500Y-83616666D01*
X113169166Y-83683333D01*
X113235833Y-83716666D01*
X113369166Y-83716666D01*
X113435833Y-83683333D01*
X113502500Y-83616666D01*
X113535833Y-83483333D01*
X113535833Y-83250000D01*
X113502500Y-83116666D01*
X113435833Y-83050000D01*
X113369166Y-83016666D01*
X112535833Y-83350000D02*
X112769166Y-83350000D01*
X112769166Y-83716666D02*
X112769166Y-83016666D01*
X112435833Y-83016666D01*
X111935833Y-83350000D02*
X112169166Y-83350000D01*
X112169166Y-83716666D02*
X112169166Y-83016666D01*
X111835833Y-83016666D01*
X115869166Y-81150000D02*
X115935833Y-81116666D01*
X116035833Y-81116666D01*
X116135833Y-81150000D01*
X116202500Y-81216666D01*
X116235833Y-81283333D01*
X116269166Y-81416666D01*
X116269166Y-81516666D01*
X116235833Y-81650000D01*
X116202500Y-81716666D01*
X116135833Y-81783333D01*
X116035833Y-81816666D01*
X115969166Y-81816666D01*
X115869166Y-81783333D01*
X115835833Y-81750000D01*
X115835833Y-81516666D01*
X115969166Y-81516666D01*
X115535833Y-81816666D02*
X115535833Y-81116666D01*
X115135833Y-81816666D01*
X115135833Y-81116666D01*
X114802500Y-81816666D02*
X114802500Y-81116666D01*
X114635833Y-81116666D01*
X114535833Y-81150000D01*
X114469166Y-81216666D01*
X114435833Y-81283333D01*
X114402500Y-81416666D01*
X114402500Y-81516666D01*
X114435833Y-81650000D01*
X114469166Y-81716666D01*
X114535833Y-81783333D01*
X114635833Y-81816666D01*
X114802500Y-81816666D01*
X116335833Y-76116666D02*
X116102500Y-76816666D01*
X115869166Y-76116666D01*
X115235833Y-76750000D02*
X115269166Y-76783333D01*
X115369166Y-76816666D01*
X115435833Y-76816666D01*
X115535833Y-76783333D01*
X115602500Y-76716666D01*
X115635833Y-76650000D01*
X115669166Y-76516666D01*
X115669166Y-76416666D01*
X115635833Y-76283333D01*
X115602500Y-76216666D01*
X115535833Y-76150000D01*
X115435833Y-76116666D01*
X115369166Y-76116666D01*
X115269166Y-76150000D01*
X115235833Y-76183333D01*
X114535833Y-76750000D02*
X114569166Y-76783333D01*
X114669166Y-76816666D01*
X114735833Y-76816666D01*
X114835833Y-76783333D01*
X114902500Y-76716666D01*
X114935833Y-76650000D01*
X114969166Y-76516666D01*
X114969166Y-76416666D01*
X114935833Y-76283333D01*
X114902500Y-76216666D01*
X114835833Y-76150000D01*
X114735833Y-76116666D01*
X114669166Y-76116666D01*
X114569166Y-76150000D01*
X114535833Y-76183333D01*
X116269166Y-74783333D02*
X116169166Y-74816666D01*
X116002500Y-74816666D01*
X115935833Y-74783333D01*
X115902500Y-74750000D01*
X115869166Y-74683333D01*
X115869166Y-74616666D01*
X115902500Y-74550000D01*
X115935833Y-74516666D01*
X116002500Y-74483333D01*
X116135833Y-74450000D01*
X116202500Y-74416666D01*
X116235833Y-74383333D01*
X116269166Y-74316666D01*
X116269166Y-74250000D01*
X116235833Y-74183333D01*
X116202500Y-74150000D01*
X116135833Y-74116666D01*
X115969166Y-74116666D01*
X115869166Y-74150000D01*
X115635833Y-74116666D02*
X115469166Y-74816666D01*
X115335833Y-74316666D01*
X115202500Y-74816666D01*
X115035833Y-74116666D01*
X114369166Y-74750000D02*
X114402500Y-74783333D01*
X114502500Y-74816666D01*
X114569166Y-74816666D01*
X114669166Y-74783333D01*
X114735833Y-74716666D01*
X114769166Y-74650000D01*
X114802500Y-74516666D01*
X114802500Y-74416666D01*
X114769166Y-74283333D01*
X114735833Y-74216666D01*
X114669166Y-74150000D01*
X114569166Y-74116666D01*
X114502500Y-74116666D01*
X114402500Y-74150000D01*
X114369166Y-74183333D01*
X113735833Y-74816666D02*
X114069166Y-74816666D01*
X114069166Y-74116666D01*
X113502500Y-74816666D02*
X113502500Y-74116666D01*
X113102500Y-74816666D02*
X113402500Y-74416666D01*
X113102500Y-74116666D02*
X113502500Y-74516666D01*
X115869166Y-72150000D02*
X115935833Y-72116666D01*
X116035833Y-72116666D01*
X116135833Y-72150000D01*
X116202500Y-72216666D01*
X116235833Y-72283333D01*
X116269166Y-72416666D01*
X116269166Y-72516666D01*
X116235833Y-72650000D01*
X116202500Y-72716666D01*
X116135833Y-72783333D01*
X116035833Y-72816666D01*
X115969166Y-72816666D01*
X115869166Y-72783333D01*
X115835833Y-72750000D01*
X115835833Y-72516666D01*
X115969166Y-72516666D01*
X115535833Y-72816666D02*
X115535833Y-72116666D01*
X115135833Y-72816666D01*
X115135833Y-72116666D01*
X114802500Y-72816666D02*
X114802500Y-72116666D01*
X114635833Y-72116666D01*
X114535833Y-72150000D01*
X114469166Y-72216666D01*
X114435833Y-72283333D01*
X114402500Y-72416666D01*
X114402500Y-72516666D01*
X114435833Y-72650000D01*
X114469166Y-72716666D01*
X114535833Y-72783333D01*
X114635833Y-72816666D01*
X114802500Y-72816666D01*
X116169166Y-70883333D02*
X116069166Y-70916666D01*
X115902500Y-70916666D01*
X115835833Y-70883333D01*
X115802500Y-70850000D01*
X115769166Y-70783333D01*
X115769166Y-70716666D01*
X115802500Y-70650000D01*
X115835833Y-70616666D01*
X115902500Y-70583333D01*
X116035833Y-70550000D01*
X116102500Y-70516666D01*
X116135833Y-70483333D01*
X116169166Y-70416666D01*
X116169166Y-70350000D01*
X116135833Y-70283333D01*
X116102500Y-70250000D01*
X116035833Y-70216666D01*
X115869166Y-70216666D01*
X115769166Y-70250000D01*
X115535833Y-70216666D02*
X115369166Y-70916666D01*
X115235833Y-70416666D01*
X115102500Y-70916666D01*
X114935833Y-70216666D01*
X114669166Y-70916666D02*
X114669166Y-70216666D01*
X114502500Y-70216666D01*
X114402500Y-70250000D01*
X114335833Y-70316666D01*
X114302500Y-70383333D01*
X114269166Y-70516666D01*
X114269166Y-70616666D01*
X114302500Y-70750000D01*
X114335833Y-70816666D01*
X114402500Y-70883333D01*
X114502500Y-70916666D01*
X114669166Y-70916666D01*
X113969166Y-70916666D02*
X113969166Y-70216666D01*
X113502500Y-70216666D02*
X113369166Y-70216666D01*
X113302500Y-70250000D01*
X113235833Y-70316666D01*
X113202500Y-70450000D01*
X113202500Y-70683333D01*
X113235833Y-70816666D01*
X113302500Y-70883333D01*
X113369166Y-70916666D01*
X113502500Y-70916666D01*
X113569166Y-70883333D01*
X113635833Y-70816666D01*
X113669166Y-70683333D01*
X113669166Y-70450000D01*
X113635833Y-70316666D01*
X113569166Y-70250000D01*
X113502500Y-70216666D01*
X116135833Y-68716666D02*
X116135833Y-68016666D01*
X115735833Y-68716666D01*
X115735833Y-68016666D01*
X115002500Y-68716666D02*
X115235833Y-68383333D01*
X115402500Y-68716666D02*
X115402500Y-68016666D01*
X115135833Y-68016666D01*
X115069166Y-68050000D01*
X115035833Y-68083333D01*
X115002500Y-68150000D01*
X115002500Y-68250000D01*
X115035833Y-68316666D01*
X115069166Y-68350000D01*
X115135833Y-68383333D01*
X115402500Y-68383333D01*
X114735833Y-68683333D02*
X114635833Y-68716666D01*
X114469166Y-68716666D01*
X114402500Y-68683333D01*
X114369166Y-68650000D01*
X114335833Y-68583333D01*
X114335833Y-68516666D01*
X114369166Y-68450000D01*
X114402500Y-68416666D01*
X114469166Y-68383333D01*
X114602500Y-68350000D01*
X114669166Y-68316666D01*
X114702500Y-68283333D01*
X114735833Y-68216666D01*
X114735833Y-68150000D01*
X114702500Y-68083333D01*
X114669166Y-68050000D01*
X114602500Y-68016666D01*
X114435833Y-68016666D01*
X114335833Y-68050000D01*
X114135833Y-68016666D02*
X113735833Y-68016666D01*
X113935833Y-68716666D02*
X113935833Y-68016666D01*
X112633333Y-93016666D02*
X112500000Y-93016666D01*
X112433333Y-93050000D01*
X112366666Y-93116666D01*
X112333333Y-93250000D01*
X112333333Y-93483333D01*
X112366666Y-93616666D01*
X112433333Y-93683333D01*
X112500000Y-93716666D01*
X112633333Y-93716666D01*
X112700000Y-93683333D01*
X112766666Y-93616666D01*
X112800000Y-93483333D01*
X112800000Y-93250000D01*
X112766666Y-93116666D01*
X112700000Y-93050000D01*
X112633333Y-93016666D01*
X112033333Y-93716666D02*
X112033333Y-93016666D01*
X111633333Y-93716666D01*
X111633333Y-93016666D01*
X101566666Y-93016666D02*
X101433333Y-93016666D01*
X101366666Y-93050000D01*
X101300000Y-93116666D01*
X101266666Y-93250000D01*
X101266666Y-93483333D01*
X101300000Y-93616666D01*
X101366666Y-93683333D01*
X101433333Y-93716666D01*
X101566666Y-93716666D01*
X101633333Y-93683333D01*
X101700000Y-93616666D01*
X101733333Y-93483333D01*
X101733333Y-93250000D01*
X101700000Y-93116666D01*
X101633333Y-93050000D01*
X101566666Y-93016666D01*
X100733333Y-93350000D02*
X100966666Y-93350000D01*
X100966666Y-93716666D02*
X100966666Y-93016666D01*
X100633333Y-93016666D01*
X100133333Y-93350000D02*
X100366666Y-93350000D01*
X100366666Y-93716666D02*
X100366666Y-93016666D01*
X100033333Y-93016666D01*
X88666666Y-93016666D02*
X88533333Y-93016666D01*
X88466666Y-93050000D01*
X88400000Y-93116666D01*
X88366666Y-93250000D01*
X88366666Y-93483333D01*
X88400000Y-93616666D01*
X88466666Y-93683333D01*
X88533333Y-93716666D01*
X88666666Y-93716666D01*
X88733333Y-93683333D01*
X88800000Y-93616666D01*
X88833333Y-93483333D01*
X88833333Y-93250000D01*
X88800000Y-93116666D01*
X88733333Y-93050000D01*
X88666666Y-93016666D01*
X87833333Y-93350000D02*
X88066666Y-93350000D01*
X88066666Y-93716666D02*
X88066666Y-93016666D01*
X87733333Y-93016666D01*
X87233333Y-93350000D02*
X87466666Y-93350000D01*
X87466666Y-93716666D02*
X87466666Y-93016666D01*
X87133333Y-93016666D01*
X99033333Y-93016666D02*
X98900000Y-93016666D01*
X98833333Y-93050000D01*
X98766666Y-93116666D01*
X98733333Y-93250000D01*
X98733333Y-93483333D01*
X98766666Y-93616666D01*
X98833333Y-93683333D01*
X98900000Y-93716666D01*
X99033333Y-93716666D01*
X99100000Y-93683333D01*
X99166666Y-93616666D01*
X99200000Y-93483333D01*
X99200000Y-93250000D01*
X99166666Y-93116666D01*
X99100000Y-93050000D01*
X99033333Y-93016666D01*
X98433333Y-93716666D02*
X98433333Y-93016666D01*
X98033333Y-93716666D01*
X98033333Y-93016666D01*
D11*
X107410000Y-70087221D02*
X107410000Y-70412779D01*
X106390000Y-70087221D02*
X106390000Y-70412779D01*
X50110000Y-71337221D02*
X50110000Y-71662779D01*
X49090000Y-71337221D02*
X49090000Y-71662779D01*
X48610000Y-71337221D02*
X48610000Y-71662779D01*
X47590000Y-71337221D02*
X47590000Y-71662779D01*
X102900000Y-92420000D02*
X102900000Y-91630000D01*
X109800000Y-91630000D02*
X109800000Y-92420000D01*
X107950000Y-90580000D02*
X106250000Y-90580000D01*
X109200000Y-93430000D02*
X103500000Y-93430000D01*
X106450000Y-94720000D02*
X106450000Y-93430000D01*
X107550000Y-94930000D02*
X106650000Y-94930000D01*
X107750000Y-93430000D02*
X107750000Y-94720000D01*
X106450000Y-94720000D02*
X106650000Y-94930000D01*
X107750000Y-94720000D02*
X107550000Y-94930000D01*
X104950000Y-90580000D02*
X104750000Y-90580000D01*
X60537221Y-69840000D02*
X60862779Y-69840000D01*
X60537221Y-70860000D02*
X60862779Y-70860000D01*
X60940000Y-67937779D02*
X60940000Y-67612221D01*
X61960000Y-67937779D02*
X61960000Y-67612221D01*
X57160000Y-67337221D02*
X57160000Y-67662779D01*
X56140000Y-67337221D02*
X56140000Y-67662779D01*
X58760000Y-67337221D02*
X58760000Y-67662779D01*
X57740000Y-67337221D02*
X57740000Y-67662779D01*
X55560000Y-67337221D02*
X55560000Y-67662779D01*
X54540000Y-67337221D02*
X54540000Y-67662779D01*
X59737221Y-72390000D02*
X60062779Y-72390000D01*
X59737221Y-73410000D02*
X60062779Y-73410000D01*
X95010000Y-81462779D02*
X95010000Y-81137221D01*
X93990000Y-81462779D02*
X93990000Y-81137221D01*
D10*
X78450000Y-56800000D02*
X78450000Y-55550000D01*
X78450000Y-55550000D02*
X79700000Y-55550000D01*
X78450000Y-73050000D02*
X78450000Y-71800000D01*
X78450000Y-71800000D02*
X78450000Y-73050000D01*
X78450000Y-73050000D02*
X79700000Y-73050000D01*
X100950000Y-73050000D02*
X100950000Y-71800000D01*
X100950000Y-73050000D02*
X99700000Y-73050000D01*
X99700000Y-73050000D02*
X100950000Y-73050000D01*
X100950000Y-55550000D02*
X99700000Y-55550000D01*
X100950000Y-56800000D02*
X100950000Y-55550000D01*
X100950000Y-55550000D02*
X100950000Y-56800000D01*
D11*
X108110000Y-82262779D02*
X108110000Y-81937221D01*
X107090000Y-82262779D02*
X107090000Y-81937221D01*
X106510000Y-82262779D02*
X106510000Y-81937221D01*
X105490000Y-82262779D02*
X105490000Y-81937221D01*
X83262779Y-53790000D02*
X82937221Y-53790000D01*
X83262779Y-54810000D02*
X82937221Y-54810000D01*
X89362779Y-53790000D02*
X89037221Y-53790000D01*
X89362779Y-54810000D02*
X89037221Y-54810000D01*
X86362779Y-53790000D02*
X86037221Y-53790000D01*
X86362779Y-54810000D02*
X86037221Y-54810000D01*
X93562779Y-74710000D02*
X93237221Y-74710000D01*
X93562779Y-73690000D02*
X93237221Y-73690000D01*
X87037221Y-73690000D02*
X87362779Y-73690000D01*
X87037221Y-74710000D02*
X87362779Y-74710000D01*
X90462779Y-74710000D02*
X90137221Y-74710000D01*
X90462779Y-73690000D02*
X90137221Y-73690000D01*
X91950000Y-90480000D02*
X91750000Y-90480000D01*
X94750000Y-94620000D02*
X94550000Y-94830000D01*
X93450000Y-94620000D02*
X93650000Y-94830000D01*
X94750000Y-93330000D02*
X94750000Y-94620000D01*
X94550000Y-94830000D02*
X93650000Y-94830000D01*
X93450000Y-94620000D02*
X93450000Y-93330000D01*
X96200000Y-93330000D02*
X90500000Y-93330000D01*
X94950000Y-90480000D02*
X93250000Y-90480000D01*
X96800000Y-91530000D02*
X96800000Y-92320000D01*
X89900000Y-92320000D02*
X89900000Y-91530000D01*
X103890000Y-70512779D02*
X103890000Y-70187221D01*
X104910000Y-70512779D02*
X104910000Y-70187221D01*
X100237221Y-79810000D02*
X100562779Y-79810000D01*
X100237221Y-78790000D02*
X100562779Y-78790000D01*
X106962779Y-79810000D02*
X106637221Y-79810000D01*
X106962779Y-78790000D02*
X106637221Y-78790000D01*
X87676000Y-81462779D02*
X87676000Y-81137221D01*
X88696000Y-81462779D02*
X88696000Y-81137221D01*
X89276000Y-81462779D02*
X89276000Y-81137221D01*
X90296000Y-81462779D02*
X90296000Y-81137221D01*
X83962779Y-74710000D02*
X83637221Y-74710000D01*
X83962779Y-73690000D02*
X83637221Y-73690000D01*
D12*
X90700000Y-78700000D02*
G75*
G03X90700000Y-78700000I-100000J0D01*
G01*
D11*
X94896000Y-77862779D02*
X94896000Y-77537221D01*
X93876000Y-77862779D02*
X93876000Y-77537221D01*
X90324000Y-77862779D02*
X90324000Y-77537221D01*
X89304000Y-77862779D02*
X89304000Y-77537221D01*
D10*
X105720000Y-69800000D02*
X105753333Y-69766666D01*
X105786666Y-69666666D01*
X105786666Y-69600000D01*
X105753333Y-69500000D01*
X105686666Y-69433333D01*
X105620000Y-69400000D01*
X105486666Y-69366666D01*
X105386666Y-69366666D01*
X105253333Y-69400000D01*
X105186666Y-69433333D01*
X105120000Y-69500000D01*
X105086666Y-69600000D01*
X105086666Y-69666666D01*
X105120000Y-69766666D01*
X105153333Y-69800000D01*
X105320000Y-70400000D02*
X105786666Y-70400000D01*
X105053333Y-70233333D02*
X105553333Y-70066666D01*
X105553333Y-70500000D01*
X105086666Y-70900000D02*
X105086666Y-70966666D01*
X105120000Y-71033333D01*
X105153333Y-71066666D01*
X105220000Y-71100000D01*
X105353333Y-71133333D01*
X105520000Y-71133333D01*
X105653333Y-71100000D01*
X105720000Y-71066666D01*
X105753333Y-71033333D01*
X105786666Y-70966666D01*
X105786666Y-70900000D01*
X105753333Y-70833333D01*
X105720000Y-70800000D01*
X105653333Y-70766666D01*
X105520000Y-70733333D01*
X105353333Y-70733333D01*
X105220000Y-70766666D01*
X105153333Y-70800000D01*
X105120000Y-70833333D01*
X105086666Y-70900000D01*
X50991666Y-70950000D02*
X50658333Y-70716666D01*
X50991666Y-70550000D02*
X50291666Y-70550000D01*
X50291666Y-70816666D01*
X50325000Y-70883333D01*
X50358333Y-70916666D01*
X50425000Y-70950000D01*
X50525000Y-70950000D01*
X50591666Y-70916666D01*
X50625000Y-70883333D01*
X50658333Y-70816666D01*
X50658333Y-70550000D01*
X50358333Y-71216666D02*
X50325000Y-71250000D01*
X50291666Y-71316666D01*
X50291666Y-71483333D01*
X50325000Y-71550000D01*
X50358333Y-71583333D01*
X50425000Y-71616666D01*
X50491666Y-71616666D01*
X50591666Y-71583333D01*
X50991666Y-71183333D01*
X50991666Y-71616666D01*
X50358333Y-71883333D02*
X50325000Y-71916666D01*
X50291666Y-71983333D01*
X50291666Y-72150000D01*
X50325000Y-72216666D01*
X50358333Y-72250000D01*
X50425000Y-72283333D01*
X50491666Y-72283333D01*
X50591666Y-72250000D01*
X50991666Y-71850000D01*
X50991666Y-72283333D01*
X46986666Y-71050000D02*
X46653333Y-70816666D01*
X46986666Y-70650000D02*
X46286666Y-70650000D01*
X46286666Y-70916666D01*
X46320000Y-70983333D01*
X46353333Y-71016666D01*
X46420000Y-71050000D01*
X46520000Y-71050000D01*
X46586666Y-71016666D01*
X46620000Y-70983333D01*
X46653333Y-70916666D01*
X46653333Y-70650000D01*
X46353333Y-71316666D02*
X46320000Y-71350000D01*
X46286666Y-71416666D01*
X46286666Y-71583333D01*
X46320000Y-71650000D01*
X46353333Y-71683333D01*
X46420000Y-71716666D01*
X46486666Y-71716666D01*
X46586666Y-71683333D01*
X46986666Y-71283333D01*
X46986666Y-71716666D01*
X46986666Y-72383333D02*
X46986666Y-71983333D01*
X46986666Y-72183333D02*
X46286666Y-72183333D01*
X46386666Y-72116666D01*
X46453333Y-72050000D01*
X46486666Y-71983333D01*
X107233333Y-87583333D02*
X107133333Y-87616666D01*
X106966666Y-87616666D01*
X106900000Y-87583333D01*
X106866666Y-87550000D01*
X106833333Y-87483333D01*
X106833333Y-87416666D01*
X106866666Y-87350000D01*
X106900000Y-87316666D01*
X106966666Y-87283333D01*
X107100000Y-87250000D01*
X107166666Y-87216666D01*
X107200000Y-87183333D01*
X107233333Y-87116666D01*
X107233333Y-87050000D01*
X107200000Y-86983333D01*
X107166666Y-86950000D01*
X107100000Y-86916666D01*
X106933333Y-86916666D01*
X106833333Y-86950000D01*
X106600000Y-86916666D02*
X106433333Y-87616666D01*
X106300000Y-87116666D01*
X106166666Y-87616666D01*
X106000000Y-86916666D01*
X105766666Y-86983333D02*
X105733333Y-86950000D01*
X105666666Y-86916666D01*
X105500000Y-86916666D01*
X105433333Y-86950000D01*
X105400000Y-86983333D01*
X105366666Y-87050000D01*
X105366666Y-87116666D01*
X105400000Y-87216666D01*
X105800000Y-87616666D01*
X105366666Y-87616666D01*
X60975000Y-71916666D02*
X61208333Y-71583333D01*
X61375000Y-71916666D02*
X61375000Y-71216666D01*
X61108333Y-71216666D01*
X61041666Y-71250000D01*
X61008333Y-71283333D01*
X60975000Y-71350000D01*
X60975000Y-71450000D01*
X61008333Y-71516666D01*
X61041666Y-71550000D01*
X61108333Y-71583333D01*
X61375000Y-71583333D01*
X60708333Y-71283333D02*
X60675000Y-71250000D01*
X60608333Y-71216666D01*
X60441666Y-71216666D01*
X60375000Y-71250000D01*
X60341666Y-71283333D01*
X60308333Y-71350000D01*
X60308333Y-71416666D01*
X60341666Y-71516666D01*
X60741666Y-71916666D01*
X60308333Y-71916666D01*
X59875000Y-71216666D02*
X59808333Y-71216666D01*
X59741666Y-71250000D01*
X59708333Y-71283333D01*
X59675000Y-71350000D01*
X59641666Y-71483333D01*
X59641666Y-71650000D01*
X59675000Y-71783333D01*
X59708333Y-71850000D01*
X59741666Y-71883333D01*
X59808333Y-71916666D01*
X59875000Y-71916666D01*
X59941666Y-71883333D01*
X59975000Y-71850000D01*
X60008333Y-71783333D01*
X60041666Y-71650000D01*
X60041666Y-71483333D01*
X60008333Y-71350000D01*
X59975000Y-71283333D01*
X59941666Y-71250000D01*
X59875000Y-71216666D01*
X63196666Y-67325000D02*
X62863333Y-67091666D01*
X63196666Y-66925000D02*
X62496666Y-66925000D01*
X62496666Y-67191666D01*
X62530000Y-67258333D01*
X62563333Y-67291666D01*
X62630000Y-67325000D01*
X62730000Y-67325000D01*
X62796666Y-67291666D01*
X62830000Y-67258333D01*
X62863333Y-67191666D01*
X62863333Y-66925000D01*
X63196666Y-67991666D02*
X63196666Y-67591666D01*
X63196666Y-67791666D02*
X62496666Y-67791666D01*
X62596666Y-67725000D01*
X62663333Y-67658333D01*
X62696666Y-67591666D01*
X63196666Y-68325000D02*
X63196666Y-68458333D01*
X63163333Y-68525000D01*
X63130000Y-68558333D01*
X63030000Y-68625000D01*
X62896666Y-68658333D01*
X62630000Y-68658333D01*
X62563333Y-68625000D01*
X62530000Y-68591666D01*
X62496666Y-68525000D01*
X62496666Y-68391666D01*
X62530000Y-68325000D01*
X62563333Y-68291666D01*
X62630000Y-68258333D01*
X62796666Y-68258333D01*
X62863333Y-68291666D01*
X62896666Y-68325000D01*
X62930000Y-68391666D01*
X62930000Y-68525000D01*
X62896666Y-68591666D01*
X62863333Y-68625000D01*
X62796666Y-68658333D01*
X56950000Y-70150000D02*
X56983333Y-70116666D01*
X57016666Y-70016666D01*
X57016666Y-69950000D01*
X56983333Y-69850000D01*
X56916666Y-69783333D01*
X56850000Y-69750000D01*
X56716666Y-69716666D01*
X56616666Y-69716666D01*
X56483333Y-69750000D01*
X56416666Y-69783333D01*
X56350000Y-69850000D01*
X56316666Y-69950000D01*
X56316666Y-70016666D01*
X56350000Y-70116666D01*
X56383333Y-70150000D01*
X56316666Y-70383333D02*
X56316666Y-70816666D01*
X56583333Y-70583333D01*
X56583333Y-70683333D01*
X56616666Y-70750000D01*
X56650000Y-70783333D01*
X56716666Y-70816666D01*
X56883333Y-70816666D01*
X56950000Y-70783333D01*
X56983333Y-70750000D01*
X57016666Y-70683333D01*
X57016666Y-70483333D01*
X56983333Y-70416666D01*
X56950000Y-70383333D01*
X56316666Y-71050000D02*
X56316666Y-71516666D01*
X57016666Y-71216666D01*
X59250000Y-67850000D02*
X59216666Y-67883333D01*
X59183333Y-67983333D01*
X59183333Y-68050000D01*
X59216666Y-68150000D01*
X59283333Y-68216666D01*
X59350000Y-68250000D01*
X59483333Y-68283333D01*
X59583333Y-68283333D01*
X59716666Y-68250000D01*
X59783333Y-68216666D01*
X59850000Y-68150000D01*
X59883333Y-68050000D01*
X59883333Y-67983333D01*
X59850000Y-67883333D01*
X59816666Y-67850000D01*
X59883333Y-67616666D02*
X59883333Y-67183333D01*
X59616666Y-67416666D01*
X59616666Y-67316666D01*
X59583333Y-67250000D01*
X59550000Y-67216666D01*
X59483333Y-67183333D01*
X59316666Y-67183333D01*
X59250000Y-67216666D01*
X59216666Y-67250000D01*
X59183333Y-67316666D01*
X59183333Y-67516666D01*
X59216666Y-67583333D01*
X59250000Y-67616666D01*
X59883333Y-66583333D02*
X59883333Y-66716666D01*
X59850000Y-66783333D01*
X59816666Y-66816666D01*
X59716666Y-66883333D01*
X59583333Y-66916666D01*
X59316666Y-66916666D01*
X59250000Y-66883333D01*
X59216666Y-66850000D01*
X59183333Y-66783333D01*
X59183333Y-66650000D01*
X59216666Y-66583333D01*
X59250000Y-66550000D01*
X59316666Y-66516666D01*
X59483333Y-66516666D01*
X59550000Y-66550000D01*
X59583333Y-66583333D01*
X59616666Y-66650000D01*
X59616666Y-66783333D01*
X59583333Y-66850000D01*
X59550000Y-66883333D01*
X59483333Y-66916666D01*
X53370000Y-67950000D02*
X53336666Y-67983333D01*
X53303333Y-68083333D01*
X53303333Y-68150000D01*
X53336666Y-68250000D01*
X53403333Y-68316666D01*
X53470000Y-68350000D01*
X53603333Y-68383333D01*
X53703333Y-68383333D01*
X53836666Y-68350000D01*
X53903333Y-68316666D01*
X53970000Y-68250000D01*
X54003333Y-68150000D01*
X54003333Y-68083333D01*
X53970000Y-67983333D01*
X53936666Y-67950000D01*
X54003333Y-67716666D02*
X54003333Y-67283333D01*
X53736666Y-67516666D01*
X53736666Y-67416666D01*
X53703333Y-67350000D01*
X53670000Y-67316666D01*
X53603333Y-67283333D01*
X53436666Y-67283333D01*
X53370000Y-67316666D01*
X53336666Y-67350000D01*
X53303333Y-67416666D01*
X53303333Y-67616666D01*
X53336666Y-67683333D01*
X53370000Y-67716666D01*
X54003333Y-66650000D02*
X54003333Y-66983333D01*
X53670000Y-67016666D01*
X53703333Y-66983333D01*
X53736666Y-66916666D01*
X53736666Y-66750000D01*
X53703333Y-66683333D01*
X53670000Y-66650000D01*
X53603333Y-66616666D01*
X53436666Y-66616666D01*
X53370000Y-66650000D01*
X53336666Y-66683333D01*
X53303333Y-66750000D01*
X53303333Y-66916666D01*
X53336666Y-66983333D01*
X53370000Y-67016666D01*
X60350000Y-74580000D02*
X60383333Y-74613333D01*
X60483333Y-74646666D01*
X60550000Y-74646666D01*
X60650000Y-74613333D01*
X60716666Y-74546666D01*
X60750000Y-74480000D01*
X60783333Y-74346666D01*
X60783333Y-74246666D01*
X60750000Y-74113333D01*
X60716666Y-74046666D01*
X60650000Y-73980000D01*
X60550000Y-73946666D01*
X60483333Y-73946666D01*
X60383333Y-73980000D01*
X60350000Y-74013333D01*
X60116666Y-73946666D02*
X59683333Y-73946666D01*
X59916666Y-74213333D01*
X59816666Y-74213333D01*
X59750000Y-74246666D01*
X59716666Y-74280000D01*
X59683333Y-74346666D01*
X59683333Y-74513333D01*
X59716666Y-74580000D01*
X59750000Y-74613333D01*
X59816666Y-74646666D01*
X60016666Y-74646666D01*
X60083333Y-74613333D01*
X60116666Y-74580000D01*
X59450000Y-73946666D02*
X59016666Y-73946666D01*
X59250000Y-74213333D01*
X59150000Y-74213333D01*
X59083333Y-74246666D01*
X59050000Y-74280000D01*
X59016666Y-74346666D01*
X59016666Y-74513333D01*
X59050000Y-74580000D01*
X59083333Y-74613333D01*
X59150000Y-74646666D01*
X59350000Y-74646666D01*
X59416666Y-74613333D01*
X59450000Y-74580000D01*
X96180000Y-80850000D02*
X96213333Y-80816666D01*
X96246666Y-80716666D01*
X96246666Y-80650000D01*
X96213333Y-80550000D01*
X96146666Y-80483333D01*
X96080000Y-80450000D01*
X95946666Y-80416666D01*
X95846666Y-80416666D01*
X95713333Y-80450000D01*
X95646666Y-80483333D01*
X95580000Y-80550000D01*
X95546666Y-80650000D01*
X95546666Y-80716666D01*
X95580000Y-80816666D01*
X95613333Y-80850000D01*
X95613333Y-81116666D02*
X95580000Y-81150000D01*
X95546666Y-81216666D01*
X95546666Y-81383333D01*
X95580000Y-81450000D01*
X95613333Y-81483333D01*
X95680000Y-81516666D01*
X95746666Y-81516666D01*
X95846666Y-81483333D01*
X96246666Y-81083333D01*
X96246666Y-81516666D01*
X95546666Y-81950000D02*
X95546666Y-82016666D01*
X95580000Y-82083333D01*
X95613333Y-82116666D01*
X95680000Y-82150000D01*
X95813333Y-82183333D01*
X95980000Y-82183333D01*
X96113333Y-82150000D01*
X96180000Y-82116666D01*
X96213333Y-82083333D01*
X96246666Y-82016666D01*
X96246666Y-81950000D01*
X96213333Y-81883333D01*
X96180000Y-81850000D01*
X96113333Y-81816666D01*
X95980000Y-81783333D01*
X95813333Y-81783333D01*
X95680000Y-81816666D01*
X95613333Y-81850000D01*
X95580000Y-81883333D01*
X95546666Y-81950000D01*
X101266666Y-56016666D02*
X101833333Y-56016666D01*
X101900000Y-56050000D01*
X101933333Y-56083333D01*
X101966666Y-56150000D01*
X101966666Y-56283333D01*
X101933333Y-56350000D01*
X101900000Y-56383333D01*
X101833333Y-56416666D01*
X101266666Y-56416666D01*
X101966666Y-57116666D02*
X101966666Y-56716666D01*
X101966666Y-56916666D02*
X101266666Y-56916666D01*
X101366666Y-56850000D01*
X101433333Y-56783333D01*
X101466666Y-56716666D01*
X80964285Y-56902380D02*
X81535714Y-56902380D01*
X81250000Y-56902380D02*
X81250000Y-55902380D01*
X81345238Y-56045238D01*
X81440476Y-56140476D01*
X81535714Y-56188095D01*
X82450000Y-55302380D02*
X82450000Y-55540476D01*
X82688095Y-55445238D02*
X82450000Y-55540476D01*
X82211904Y-55445238D01*
X82592857Y-55730952D02*
X82450000Y-55540476D01*
X82307142Y-55730952D01*
X109116666Y-81650000D02*
X108783333Y-81416666D01*
X109116666Y-81250000D02*
X108416666Y-81250000D01*
X108416666Y-81516666D01*
X108450000Y-81583333D01*
X108483333Y-81616666D01*
X108550000Y-81650000D01*
X108650000Y-81650000D01*
X108716666Y-81616666D01*
X108750000Y-81583333D01*
X108783333Y-81516666D01*
X108783333Y-81250000D01*
X109116666Y-82316666D02*
X109116666Y-81916666D01*
X109116666Y-82116666D02*
X108416666Y-82116666D01*
X108516666Y-82050000D01*
X108583333Y-81983333D01*
X108616666Y-81916666D01*
X108650000Y-82916666D02*
X109116666Y-82916666D01*
X108383333Y-82750000D02*
X108883333Y-82583333D01*
X108883333Y-83016666D01*
X105116666Y-81650000D02*
X104783333Y-81416666D01*
X105116666Y-81250000D02*
X104416666Y-81250000D01*
X104416666Y-81516666D01*
X104450000Y-81583333D01*
X104483333Y-81616666D01*
X104550000Y-81650000D01*
X104650000Y-81650000D01*
X104716666Y-81616666D01*
X104750000Y-81583333D01*
X104783333Y-81516666D01*
X104783333Y-81250000D01*
X105116666Y-82316666D02*
X105116666Y-81916666D01*
X105116666Y-82116666D02*
X104416666Y-82116666D01*
X104516666Y-82050000D01*
X104583333Y-81983333D01*
X104616666Y-81916666D01*
X104416666Y-82550000D02*
X104416666Y-82983333D01*
X104683333Y-82750000D01*
X104683333Y-82850000D01*
X104716666Y-82916666D01*
X104750000Y-82950000D01*
X104816666Y-82983333D01*
X104983333Y-82983333D01*
X105050000Y-82950000D01*
X105083333Y-82916666D01*
X105116666Y-82850000D01*
X105116666Y-82650000D01*
X105083333Y-82583333D01*
X105050000Y-82550000D01*
X80916666Y-53916666D02*
X81250000Y-53916666D01*
X81250000Y-53216666D01*
X80716666Y-53283333D02*
X80683333Y-53250000D01*
X80616666Y-53216666D01*
X80450000Y-53216666D01*
X80383333Y-53250000D01*
X80350000Y-53283333D01*
X80316666Y-53350000D01*
X80316666Y-53416666D01*
X80350000Y-53516666D01*
X80750000Y-53916666D01*
X80316666Y-53916666D01*
X92250000Y-55316666D02*
X92483333Y-54983333D01*
X92650000Y-55316666D02*
X92650000Y-54616666D01*
X92383333Y-54616666D01*
X92316666Y-54650000D01*
X92283333Y-54683333D01*
X92250000Y-54750000D01*
X92250000Y-54850000D01*
X92283333Y-54916666D01*
X92316666Y-54950000D01*
X92383333Y-54983333D01*
X92650000Y-54983333D01*
X91583333Y-55316666D02*
X91983333Y-55316666D01*
X91783333Y-55316666D02*
X91783333Y-54616666D01*
X91850000Y-54716666D01*
X91916666Y-54783333D01*
X91983333Y-54816666D01*
X91316666Y-54683333D02*
X91283333Y-54650000D01*
X91216666Y-54616666D01*
X91050000Y-54616666D01*
X90983333Y-54650000D01*
X90950000Y-54683333D01*
X90916666Y-54750000D01*
X90916666Y-54816666D01*
X90950000Y-54916666D01*
X91350000Y-55316666D01*
X90916666Y-55316666D01*
X86650000Y-55750000D02*
X86683333Y-55783333D01*
X86783333Y-55816666D01*
X86850000Y-55816666D01*
X86950000Y-55783333D01*
X87016666Y-55716666D01*
X87050000Y-55650000D01*
X87083333Y-55516666D01*
X87083333Y-55416666D01*
X87050000Y-55283333D01*
X87016666Y-55216666D01*
X86950000Y-55150000D01*
X86850000Y-55116666D01*
X86783333Y-55116666D01*
X86683333Y-55150000D01*
X86650000Y-55183333D01*
X86383333Y-55183333D02*
X86350000Y-55150000D01*
X86283333Y-55116666D01*
X86116666Y-55116666D01*
X86050000Y-55150000D01*
X86016666Y-55183333D01*
X85983333Y-55250000D01*
X85983333Y-55316666D01*
X86016666Y-55416666D01*
X86416666Y-55816666D01*
X85983333Y-55816666D01*
X85716666Y-55183333D02*
X85683333Y-55150000D01*
X85616666Y-55116666D01*
X85450000Y-55116666D01*
X85383333Y-55150000D01*
X85350000Y-55183333D01*
X85316666Y-55250000D01*
X85316666Y-55316666D01*
X85350000Y-55416666D01*
X85750000Y-55816666D01*
X85316666Y-55816666D01*
X94975000Y-75750000D02*
X95008333Y-75783333D01*
X95108333Y-75816666D01*
X95175000Y-75816666D01*
X95275000Y-75783333D01*
X95341666Y-75716666D01*
X95375000Y-75650000D01*
X95408333Y-75516666D01*
X95408333Y-75416666D01*
X95375000Y-75283333D01*
X95341666Y-75216666D01*
X95275000Y-75150000D01*
X95175000Y-75116666D01*
X95108333Y-75116666D01*
X95008333Y-75150000D01*
X94975000Y-75183333D01*
X94708333Y-75183333D02*
X94675000Y-75150000D01*
X94608333Y-75116666D01*
X94441666Y-75116666D01*
X94375000Y-75150000D01*
X94341666Y-75183333D01*
X94308333Y-75250000D01*
X94308333Y-75316666D01*
X94341666Y-75416666D01*
X94741666Y-75816666D01*
X94308333Y-75816666D01*
X93675000Y-75116666D02*
X94008333Y-75116666D01*
X94041666Y-75450000D01*
X94008333Y-75416666D01*
X93941666Y-75383333D01*
X93775000Y-75383333D01*
X93708333Y-75416666D01*
X93675000Y-75450000D01*
X93641666Y-75516666D01*
X93641666Y-75683333D01*
X93675000Y-75750000D01*
X93708333Y-75783333D01*
X93775000Y-75816666D01*
X93941666Y-75816666D01*
X94008333Y-75783333D01*
X94041666Y-75750000D01*
X87575000Y-75725000D02*
X87608333Y-75758333D01*
X87708333Y-75791666D01*
X87775000Y-75791666D01*
X87875000Y-75758333D01*
X87941666Y-75691666D01*
X87975000Y-75625000D01*
X88008333Y-75491666D01*
X88008333Y-75391666D01*
X87975000Y-75258333D01*
X87941666Y-75191666D01*
X87875000Y-75125000D01*
X87775000Y-75091666D01*
X87708333Y-75091666D01*
X87608333Y-75125000D01*
X87575000Y-75158333D01*
X87308333Y-75158333D02*
X87275000Y-75125000D01*
X87208333Y-75091666D01*
X87041666Y-75091666D01*
X86975000Y-75125000D01*
X86941666Y-75158333D01*
X86908333Y-75225000D01*
X86908333Y-75291666D01*
X86941666Y-75391666D01*
X87341666Y-75791666D01*
X86908333Y-75791666D01*
X86308333Y-75325000D02*
X86308333Y-75791666D01*
X86475000Y-75058333D02*
X86641666Y-75558333D01*
X86208333Y-75558333D01*
X90575000Y-75725000D02*
X90608333Y-75758333D01*
X90708333Y-75791666D01*
X90775000Y-75791666D01*
X90875000Y-75758333D01*
X90941666Y-75691666D01*
X90975000Y-75625000D01*
X91008333Y-75491666D01*
X91008333Y-75391666D01*
X90975000Y-75258333D01*
X90941666Y-75191666D01*
X90875000Y-75125000D01*
X90775000Y-75091666D01*
X90708333Y-75091666D01*
X90608333Y-75125000D01*
X90575000Y-75158333D01*
X90308333Y-75158333D02*
X90275000Y-75125000D01*
X90208333Y-75091666D01*
X90041666Y-75091666D01*
X89975000Y-75125000D01*
X89941666Y-75158333D01*
X89908333Y-75225000D01*
X89908333Y-75291666D01*
X89941666Y-75391666D01*
X90341666Y-75791666D01*
X89908333Y-75791666D01*
X89675000Y-75091666D02*
X89241666Y-75091666D01*
X89475000Y-75358333D01*
X89375000Y-75358333D01*
X89308333Y-75391666D01*
X89275000Y-75425000D01*
X89241666Y-75491666D01*
X89241666Y-75658333D01*
X89275000Y-75725000D01*
X89308333Y-75758333D01*
X89375000Y-75791666D01*
X89575000Y-75791666D01*
X89641666Y-75758333D01*
X89675000Y-75725000D01*
X94133333Y-87783333D02*
X94033333Y-87816666D01*
X93866666Y-87816666D01*
X93800000Y-87783333D01*
X93766666Y-87750000D01*
X93733333Y-87683333D01*
X93733333Y-87616666D01*
X93766666Y-87550000D01*
X93800000Y-87516666D01*
X93866666Y-87483333D01*
X94000000Y-87450000D01*
X94066666Y-87416666D01*
X94100000Y-87383333D01*
X94133333Y-87316666D01*
X94133333Y-87250000D01*
X94100000Y-87183333D01*
X94066666Y-87150000D01*
X94000000Y-87116666D01*
X93833333Y-87116666D01*
X93733333Y-87150000D01*
X93500000Y-87116666D02*
X93333333Y-87816666D01*
X93200000Y-87316666D01*
X93066666Y-87816666D01*
X92900000Y-87116666D01*
X92266666Y-87816666D02*
X92666666Y-87816666D01*
X92466666Y-87816666D02*
X92466666Y-87116666D01*
X92533333Y-87216666D01*
X92600000Y-87283333D01*
X92666666Y-87316666D01*
X103450000Y-70400000D02*
X103483333Y-70366666D01*
X103516666Y-70266666D01*
X103516666Y-70200000D01*
X103483333Y-70100000D01*
X103416666Y-70033333D01*
X103350000Y-70000000D01*
X103216666Y-69966666D01*
X103116666Y-69966666D01*
X102983333Y-70000000D01*
X102916666Y-70033333D01*
X102850000Y-70100000D01*
X102816666Y-70200000D01*
X102816666Y-70266666D01*
X102850000Y-70366666D01*
X102883333Y-70400000D01*
X102883333Y-70666666D02*
X102850000Y-70700000D01*
X102816666Y-70766666D01*
X102816666Y-70933333D01*
X102850000Y-71000000D01*
X102883333Y-71033333D01*
X102950000Y-71066666D01*
X103016666Y-71066666D01*
X103116666Y-71033333D01*
X103516666Y-70633333D01*
X103516666Y-71066666D01*
X103516666Y-71733333D02*
X103516666Y-71333333D01*
X103516666Y-71533333D02*
X102816666Y-71533333D01*
X102916666Y-71466666D01*
X102983333Y-71400000D01*
X103016666Y-71333333D01*
X100850000Y-80980000D02*
X100883333Y-81013333D01*
X100983333Y-81046666D01*
X101050000Y-81046666D01*
X101150000Y-81013333D01*
X101216666Y-80946666D01*
X101250000Y-80880000D01*
X101283333Y-80746666D01*
X101283333Y-80646666D01*
X101250000Y-80513333D01*
X101216666Y-80446666D01*
X101150000Y-80380000D01*
X101050000Y-80346666D01*
X100983333Y-80346666D01*
X100883333Y-80380000D01*
X100850000Y-80413333D01*
X100183333Y-81046666D02*
X100583333Y-81046666D01*
X100383333Y-81046666D02*
X100383333Y-80346666D01*
X100450000Y-80446666D01*
X100516666Y-80513333D01*
X100583333Y-80546666D01*
X99583333Y-80346666D02*
X99716666Y-80346666D01*
X99783333Y-80380000D01*
X99816666Y-80413333D01*
X99883333Y-80513333D01*
X99916666Y-80646666D01*
X99916666Y-80913333D01*
X99883333Y-80980000D01*
X99850000Y-81013333D01*
X99783333Y-81046666D01*
X99650000Y-81046666D01*
X99583333Y-81013333D01*
X99550000Y-80980000D01*
X99516666Y-80913333D01*
X99516666Y-80746666D01*
X99550000Y-80680000D01*
X99583333Y-80646666D01*
X99650000Y-80613333D01*
X99783333Y-80613333D01*
X99850000Y-80646666D01*
X99883333Y-80680000D01*
X99916666Y-80746666D01*
X107250000Y-80850000D02*
X107283333Y-80883333D01*
X107383333Y-80916666D01*
X107450000Y-80916666D01*
X107550000Y-80883333D01*
X107616666Y-80816666D01*
X107650000Y-80750000D01*
X107683333Y-80616666D01*
X107683333Y-80516666D01*
X107650000Y-80383333D01*
X107616666Y-80316666D01*
X107550000Y-80250000D01*
X107450000Y-80216666D01*
X107383333Y-80216666D01*
X107283333Y-80250000D01*
X107250000Y-80283333D01*
X106583333Y-80916666D02*
X106983333Y-80916666D01*
X106783333Y-80916666D02*
X106783333Y-80216666D01*
X106850000Y-80316666D01*
X106916666Y-80383333D01*
X106983333Y-80416666D01*
X105916666Y-80916666D02*
X106316666Y-80916666D01*
X106116666Y-80916666D02*
X106116666Y-80216666D01*
X106183333Y-80316666D01*
X106250000Y-80383333D01*
X106316666Y-80416666D01*
X87102666Y-81383333D02*
X86769333Y-81150000D01*
X87102666Y-80983333D02*
X86402666Y-80983333D01*
X86402666Y-81250000D01*
X86436000Y-81316666D01*
X86469333Y-81350000D01*
X86536000Y-81383333D01*
X86636000Y-81383333D01*
X86702666Y-81350000D01*
X86736000Y-81316666D01*
X86769333Y-81250000D01*
X86769333Y-80983333D01*
X86402666Y-82016666D02*
X86402666Y-81683333D01*
X86736000Y-81650000D01*
X86702666Y-81683333D01*
X86669333Y-81750000D01*
X86669333Y-81916666D01*
X86702666Y-81983333D01*
X86736000Y-82016666D01*
X86802666Y-82050000D01*
X86969333Y-82050000D01*
X87036000Y-82016666D01*
X87069333Y-81983333D01*
X87102666Y-81916666D01*
X87102666Y-81750000D01*
X87069333Y-81683333D01*
X87036000Y-81650000D01*
X91302666Y-81583333D02*
X90969333Y-81350000D01*
X91302666Y-81183333D02*
X90602666Y-81183333D01*
X90602666Y-81450000D01*
X90636000Y-81516666D01*
X90669333Y-81550000D01*
X90736000Y-81583333D01*
X90836000Y-81583333D01*
X90902666Y-81550000D01*
X90936000Y-81516666D01*
X90969333Y-81450000D01*
X90969333Y-81183333D01*
X90836000Y-82183333D02*
X91302666Y-82183333D01*
X90569333Y-82016666D02*
X91069333Y-81850000D01*
X91069333Y-82283333D01*
X83941666Y-75866666D02*
X84175000Y-75533333D01*
X84341666Y-75866666D02*
X84341666Y-75166666D01*
X84075000Y-75166666D01*
X84008333Y-75200000D01*
X83975000Y-75233333D01*
X83941666Y-75300000D01*
X83941666Y-75400000D01*
X83975000Y-75466666D01*
X84008333Y-75500000D01*
X84075000Y-75533333D01*
X84341666Y-75533333D01*
X83708333Y-75166666D02*
X83275000Y-75166666D01*
X83508333Y-75433333D01*
X83408333Y-75433333D01*
X83341666Y-75466666D01*
X83308333Y-75500000D01*
X83275000Y-75566666D01*
X83275000Y-75733333D01*
X83308333Y-75800000D01*
X83341666Y-75833333D01*
X83408333Y-75866666D01*
X83608333Y-75866666D01*
X83675000Y-75833333D01*
X83708333Y-75800000D01*
X91758333Y-79016666D02*
X91758333Y-79583333D01*
X91725000Y-79650000D01*
X91691666Y-79683333D01*
X91625000Y-79716666D01*
X91491666Y-79716666D01*
X91425000Y-79683333D01*
X91391666Y-79650000D01*
X91358333Y-79583333D01*
X91358333Y-79016666D01*
X90725000Y-79250000D02*
X90725000Y-79716666D01*
X90891666Y-78983333D02*
X91058333Y-79483333D01*
X90625000Y-79483333D01*
X96025000Y-77658333D02*
X96058333Y-77625000D01*
X96091666Y-77525000D01*
X96091666Y-77458333D01*
X96058333Y-77358333D01*
X95991666Y-77291666D01*
X95925000Y-77258333D01*
X95791666Y-77225000D01*
X95691666Y-77225000D01*
X95558333Y-77258333D01*
X95491666Y-77291666D01*
X95425000Y-77358333D01*
X95391666Y-77458333D01*
X95391666Y-77525000D01*
X95425000Y-77625000D01*
X95458333Y-77658333D01*
X95391666Y-77891666D02*
X95391666Y-78358333D01*
X96091666Y-78058333D01*
X88800000Y-77533333D02*
X88833333Y-77500000D01*
X88866666Y-77400000D01*
X88866666Y-77333333D01*
X88833333Y-77233333D01*
X88766666Y-77166666D01*
X88700000Y-77133333D01*
X88566666Y-77100000D01*
X88466666Y-77100000D01*
X88333333Y-77133333D01*
X88266666Y-77166666D01*
X88200000Y-77233333D01*
X88166666Y-77333333D01*
X88166666Y-77400000D01*
X88200000Y-77500000D01*
X88233333Y-77533333D01*
X88166666Y-78133333D02*
X88166666Y-78000000D01*
X88200000Y-77933333D01*
X88233333Y-77900000D01*
X88333333Y-77833333D01*
X88466666Y-77800000D01*
X88733333Y-77800000D01*
X88800000Y-77833333D01*
X88833333Y-77866666D01*
X88866666Y-77933333D01*
X88866666Y-78066666D01*
X88833333Y-78133333D01*
X88800000Y-78166666D01*
X88733333Y-78200000D01*
X88566666Y-78200000D01*
X88500000Y-78166666D01*
X88466666Y-78133333D01*
X88433333Y-78066666D01*
X88433333Y-77933333D01*
X88466666Y-77866666D01*
X88500000Y-77833333D01*
X88566666Y-77800000D01*
M02*
