G04 #@! TF.GenerationSoftware,KiCad,Pcbnew,5.99.0-unknown-9339afc~100~ubuntu16.04.1*
G04 #@! TF.CreationDate,2019-10-23T14:24:21+02:00*
G04 #@! TF.ProjectId,f9p_board,6639705f-626f-4617-9264-2e6b69636164,rev?*
G04 #@! TF.SameCoordinates,Original*
G04 #@! TF.FileFunction,Paste,Top*
G04 #@! TF.FilePolarity,Positive*
%FSLAX46Y46*%
G04 Gerber Fmt 4.6, Leading zero omitted, Abs format (unit mm)*
G04 Created by KiCad (PCBNEW 5.99.0-unknown-9339afc~100~ubuntu16.04.1) date 2019-10-23 14:24:21*
%MOMM*%
%LPD*%
G04 APERTURE LIST*
%ADD10C,0.100000*%
%ADD11R,2.900000X5.400000*%
%ADD12R,0.800000X1.000000*%
%ADD13R,1.500000X0.700000*%
%ADD14C,0.875000*%
%ADD15C,1.250000*%
%ADD16R,0.450000X0.700000*%
%ADD17R,1.400000X1.390000*%
%ADD18R,4.860000X3.360000*%
%ADD19R,1.000000X1.000000*%
%ADD20R,1.050000X2.200000*%
%ADD21R,1.000000X0.600000*%
%ADD22R,0.350000X0.650000*%
%ADD23R,0.250000X0.675000*%
%ADD24R,0.675000X0.250000*%
%ADD25R,1.300000X1.600000*%
%ADD26R,1.450000X0.450000*%
%ADD27C,0.300000*%
%ADD28R,4.200000X1.500000*%
%ADD29R,2.000000X1.700000*%
%ADD30R,0.500000X2.000000*%
%ADD31C,1.325000*%
G04 APERTURE END LIST*
D10*
G36*
X65416000Y-70560000D02*
G01*
X62336000Y-70560000D01*
X62336000Y-68440000D01*
X65416000Y-68440000D01*
X65416000Y-70560000D01*
X65416000Y-70560000D01*
G37*
D11*
X55600000Y-61000000D03*
X65500000Y-61000000D03*
D12*
X80220000Y-79400000D03*
X80220000Y-72100000D03*
X82430000Y-72100000D03*
X82430000Y-79400000D03*
D13*
X79570000Y-73500000D03*
X79570000Y-75000000D03*
X79570000Y-78000000D03*
D10*
G36*
X90589962Y-68291651D02*
G01*
X90660930Y-68339070D01*
X90708349Y-68410038D01*
X90725000Y-68493750D01*
X90725000Y-69006250D01*
X90708349Y-69089962D01*
X90660930Y-69160930D01*
X90589962Y-69208349D01*
X90506250Y-69225000D01*
X90068750Y-69225000D01*
X89985038Y-69208349D01*
X89914070Y-69160930D01*
X89866651Y-69089962D01*
X89850000Y-69006250D01*
X89850000Y-68493750D01*
X89866651Y-68410038D01*
X89914070Y-68339070D01*
X89985038Y-68291651D01*
X90068750Y-68275000D01*
X90506250Y-68275000D01*
X90589962Y-68291651D01*
X90589962Y-68291651D01*
G37*
D14*
X90287500Y-68750000D03*
D10*
G36*
X89014962Y-68291651D02*
G01*
X89085930Y-68339070D01*
X89133349Y-68410038D01*
X89150000Y-68493750D01*
X89150000Y-69006250D01*
X89133349Y-69089962D01*
X89085930Y-69160930D01*
X89014962Y-69208349D01*
X88931250Y-69225000D01*
X88493750Y-69225000D01*
X88410038Y-69208349D01*
X88339070Y-69160930D01*
X88291651Y-69089962D01*
X88275000Y-69006250D01*
X88275000Y-68493750D01*
X88291651Y-68410038D01*
X88339070Y-68339070D01*
X88410038Y-68291651D01*
X88493750Y-68275000D01*
X88931250Y-68275000D01*
X89014962Y-68291651D01*
X89014962Y-68291651D01*
G37*
D14*
X88712500Y-68750000D03*
D10*
G36*
X90589962Y-66741651D02*
G01*
X90660930Y-66789070D01*
X90708349Y-66860038D01*
X90725000Y-66943750D01*
X90725000Y-67456250D01*
X90708349Y-67539962D01*
X90660930Y-67610930D01*
X90589962Y-67658349D01*
X90506250Y-67675000D01*
X90068750Y-67675000D01*
X89985038Y-67658349D01*
X89914070Y-67610930D01*
X89866651Y-67539962D01*
X89850000Y-67456250D01*
X89850000Y-66943750D01*
X89866651Y-66860038D01*
X89914070Y-66789070D01*
X89985038Y-66741651D01*
X90068750Y-66725000D01*
X90506250Y-66725000D01*
X90589962Y-66741651D01*
X90589962Y-66741651D01*
G37*
D14*
X90287500Y-67200000D03*
D10*
G36*
X89014962Y-66741651D02*
G01*
X89085930Y-66789070D01*
X89133349Y-66860038D01*
X89150000Y-66943750D01*
X89150000Y-67456250D01*
X89133349Y-67539962D01*
X89085930Y-67610930D01*
X89014962Y-67658349D01*
X88931250Y-67675000D01*
X88493750Y-67675000D01*
X88410038Y-67658349D01*
X88339070Y-67610930D01*
X88291651Y-67539962D01*
X88275000Y-67456250D01*
X88275000Y-66943750D01*
X88291651Y-66860038D01*
X88339070Y-66789070D01*
X88410038Y-66741651D01*
X88493750Y-66725000D01*
X88931250Y-66725000D01*
X89014962Y-66741651D01*
X89014962Y-66741651D01*
G37*
D14*
X88712500Y-67200000D03*
D10*
G36*
X60370671Y-79244030D02*
G01*
X60451777Y-79298223D01*
X60505970Y-79379329D01*
X60525000Y-79475000D01*
X60525000Y-80725000D01*
X60505970Y-80820671D01*
X60451777Y-80901777D01*
X60370671Y-80955970D01*
X60275000Y-80975000D01*
X59525000Y-80975000D01*
X59429329Y-80955970D01*
X59348223Y-80901777D01*
X59294030Y-80820671D01*
X59275000Y-80725000D01*
X59275000Y-79475000D01*
X59294030Y-79379329D01*
X59348223Y-79298223D01*
X59429329Y-79244030D01*
X59525000Y-79225000D01*
X60275000Y-79225000D01*
X60370671Y-79244030D01*
X60370671Y-79244030D01*
G37*
D15*
X59900000Y-80100000D03*
D10*
G36*
X57570671Y-79244030D02*
G01*
X57651777Y-79298223D01*
X57705970Y-79379329D01*
X57725000Y-79475000D01*
X57725000Y-80725000D01*
X57705970Y-80820671D01*
X57651777Y-80901777D01*
X57570671Y-80955970D01*
X57475000Y-80975000D01*
X56725000Y-80975000D01*
X56629329Y-80955970D01*
X56548223Y-80901777D01*
X56494030Y-80820671D01*
X56475000Y-80725000D01*
X56475000Y-79475000D01*
X56494030Y-79379329D01*
X56548223Y-79298223D01*
X56629329Y-79244030D01*
X56725000Y-79225000D01*
X57475000Y-79225000D01*
X57570671Y-79244030D01*
X57570671Y-79244030D01*
G37*
D15*
X57100000Y-80100000D03*
D16*
X66000000Y-89750000D03*
X65350000Y-87750000D03*
X66650000Y-87750000D03*
D10*
G36*
X61889962Y-83391651D02*
G01*
X61960930Y-83439070D01*
X62008349Y-83510038D01*
X62025000Y-83593750D01*
X62025000Y-84106250D01*
X62008349Y-84189962D01*
X61960930Y-84260930D01*
X61889962Y-84308349D01*
X61806250Y-84325000D01*
X61368750Y-84325000D01*
X61285038Y-84308349D01*
X61214070Y-84260930D01*
X61166651Y-84189962D01*
X61150000Y-84106250D01*
X61150000Y-83593750D01*
X61166651Y-83510038D01*
X61214070Y-83439070D01*
X61285038Y-83391651D01*
X61368750Y-83375000D01*
X61806250Y-83375000D01*
X61889962Y-83391651D01*
X61889962Y-83391651D01*
G37*
D14*
X61587500Y-83850000D03*
D10*
G36*
X60314962Y-83391651D02*
G01*
X60385930Y-83439070D01*
X60433349Y-83510038D01*
X60450000Y-83593750D01*
X60450000Y-84106250D01*
X60433349Y-84189962D01*
X60385930Y-84260930D01*
X60314962Y-84308349D01*
X60231250Y-84325000D01*
X59793750Y-84325000D01*
X59710038Y-84308349D01*
X59639070Y-84260930D01*
X59591651Y-84189962D01*
X59575000Y-84106250D01*
X59575000Y-83593750D01*
X59591651Y-83510038D01*
X59639070Y-83439070D01*
X59710038Y-83391651D01*
X59793750Y-83375000D01*
X60231250Y-83375000D01*
X60314962Y-83391651D01*
X60314962Y-83391651D01*
G37*
D14*
X60012500Y-83850000D03*
D17*
X59894000Y-68580000D03*
X59894000Y-70420000D03*
D18*
X63876000Y-69500000D03*
D10*
G36*
X63489962Y-81891651D02*
G01*
X63560930Y-81939070D01*
X63608349Y-82010038D01*
X63625000Y-82093750D01*
X63625000Y-82531250D01*
X63608349Y-82614962D01*
X63560930Y-82685930D01*
X63489962Y-82733349D01*
X63406250Y-82750000D01*
X62893750Y-82750000D01*
X62810038Y-82733349D01*
X62739070Y-82685930D01*
X62691651Y-82614962D01*
X62675000Y-82531250D01*
X62675000Y-82093750D01*
X62691651Y-82010038D01*
X62739070Y-81939070D01*
X62810038Y-81891651D01*
X62893750Y-81875000D01*
X63406250Y-81875000D01*
X63489962Y-81891651D01*
X63489962Y-81891651D01*
G37*
D14*
X63150000Y-82312500D03*
D10*
G36*
X63489962Y-83466651D02*
G01*
X63560930Y-83514070D01*
X63608349Y-83585038D01*
X63625000Y-83668750D01*
X63625000Y-84106250D01*
X63608349Y-84189962D01*
X63560930Y-84260930D01*
X63489962Y-84308349D01*
X63406250Y-84325000D01*
X62893750Y-84325000D01*
X62810038Y-84308349D01*
X62739070Y-84260930D01*
X62691651Y-84189962D01*
X62675000Y-84106250D01*
X62675000Y-83668750D01*
X62691651Y-83585038D01*
X62739070Y-83514070D01*
X62810038Y-83466651D01*
X62893750Y-83450000D01*
X63406250Y-83450000D01*
X63489962Y-83466651D01*
X63489962Y-83466651D01*
G37*
D14*
X63150000Y-83887500D03*
D10*
G36*
X65239962Y-77766651D02*
G01*
X65310930Y-77814070D01*
X65358349Y-77885038D01*
X65375000Y-77968750D01*
X65375000Y-78406250D01*
X65358349Y-78489962D01*
X65310930Y-78560930D01*
X65239962Y-78608349D01*
X65156250Y-78625000D01*
X64643750Y-78625000D01*
X64560038Y-78608349D01*
X64489070Y-78560930D01*
X64441651Y-78489962D01*
X64425000Y-78406250D01*
X64425000Y-77968750D01*
X64441651Y-77885038D01*
X64489070Y-77814070D01*
X64560038Y-77766651D01*
X64643750Y-77750000D01*
X65156250Y-77750000D01*
X65239962Y-77766651D01*
X65239962Y-77766651D01*
G37*
D14*
X64900000Y-78187500D03*
D10*
G36*
X65239962Y-76191651D02*
G01*
X65310930Y-76239070D01*
X65358349Y-76310038D01*
X65375000Y-76393750D01*
X65375000Y-76831250D01*
X65358349Y-76914962D01*
X65310930Y-76985930D01*
X65239962Y-77033349D01*
X65156250Y-77050000D01*
X64643750Y-77050000D01*
X64560038Y-77033349D01*
X64489070Y-76985930D01*
X64441651Y-76914962D01*
X64425000Y-76831250D01*
X64425000Y-76393750D01*
X64441651Y-76310038D01*
X64489070Y-76239070D01*
X64560038Y-76191651D01*
X64643750Y-76175000D01*
X65156250Y-76175000D01*
X65239962Y-76191651D01*
X65239962Y-76191651D01*
G37*
D14*
X64900000Y-76612500D03*
D10*
G36*
X60289962Y-77741651D02*
G01*
X60360930Y-77789070D01*
X60408349Y-77860038D01*
X60425000Y-77943750D01*
X60425000Y-78456250D01*
X60408349Y-78539962D01*
X60360930Y-78610930D01*
X60289962Y-78658349D01*
X60206250Y-78675000D01*
X59768750Y-78675000D01*
X59685038Y-78658349D01*
X59614070Y-78610930D01*
X59566651Y-78539962D01*
X59550000Y-78456250D01*
X59550000Y-77943750D01*
X59566651Y-77860038D01*
X59614070Y-77789070D01*
X59685038Y-77741651D01*
X59768750Y-77725000D01*
X60206250Y-77725000D01*
X60289962Y-77741651D01*
X60289962Y-77741651D01*
G37*
D14*
X59987500Y-78200000D03*
D10*
G36*
X58714962Y-77741651D02*
G01*
X58785930Y-77789070D01*
X58833349Y-77860038D01*
X58850000Y-77943750D01*
X58850000Y-78456250D01*
X58833349Y-78539962D01*
X58785930Y-78610930D01*
X58714962Y-78658349D01*
X58631250Y-78675000D01*
X58193750Y-78675000D01*
X58110038Y-78658349D01*
X58039070Y-78610930D01*
X57991651Y-78539962D01*
X57975000Y-78456250D01*
X57975000Y-77943750D01*
X57991651Y-77860038D01*
X58039070Y-77789070D01*
X58110038Y-77741651D01*
X58193750Y-77725000D01*
X58631250Y-77725000D01*
X58714962Y-77741651D01*
X58714962Y-77741651D01*
G37*
D14*
X58412500Y-78200000D03*
D10*
G36*
X62014962Y-76141651D02*
G01*
X62085930Y-76189070D01*
X62133349Y-76260038D01*
X62150000Y-76343750D01*
X62150000Y-76856250D01*
X62133349Y-76939962D01*
X62085930Y-77010930D01*
X62014962Y-77058349D01*
X61931250Y-77075000D01*
X61493750Y-77075000D01*
X61410038Y-77058349D01*
X61339070Y-77010930D01*
X61291651Y-76939962D01*
X61275000Y-76856250D01*
X61275000Y-76343750D01*
X61291651Y-76260038D01*
X61339070Y-76189070D01*
X61410038Y-76141651D01*
X61493750Y-76125000D01*
X61931250Y-76125000D01*
X62014962Y-76141651D01*
X62014962Y-76141651D01*
G37*
D14*
X61712500Y-76600000D03*
D10*
G36*
X63589962Y-76141651D02*
G01*
X63660930Y-76189070D01*
X63708349Y-76260038D01*
X63725000Y-76343750D01*
X63725000Y-76856250D01*
X63708349Y-76939962D01*
X63660930Y-77010930D01*
X63589962Y-77058349D01*
X63506250Y-77075000D01*
X63068750Y-77075000D01*
X62985038Y-77058349D01*
X62914070Y-77010930D01*
X62866651Y-76939962D01*
X62850000Y-76856250D01*
X62850000Y-76343750D01*
X62866651Y-76260038D01*
X62914070Y-76189070D01*
X62985038Y-76141651D01*
X63068750Y-76125000D01*
X63506250Y-76125000D01*
X63589962Y-76141651D01*
X63589962Y-76141651D01*
G37*
D14*
X63287500Y-76600000D03*
D10*
G36*
X62014962Y-77741651D02*
G01*
X62085930Y-77789070D01*
X62133349Y-77860038D01*
X62150000Y-77943750D01*
X62150000Y-78456250D01*
X62133349Y-78539962D01*
X62085930Y-78610930D01*
X62014962Y-78658349D01*
X61931250Y-78675000D01*
X61493750Y-78675000D01*
X61410038Y-78658349D01*
X61339070Y-78610930D01*
X61291651Y-78539962D01*
X61275000Y-78456250D01*
X61275000Y-77943750D01*
X61291651Y-77860038D01*
X61339070Y-77789070D01*
X61410038Y-77741651D01*
X61493750Y-77725000D01*
X61931250Y-77725000D01*
X62014962Y-77741651D01*
X62014962Y-77741651D01*
G37*
D14*
X61712500Y-78200000D03*
D10*
G36*
X63589962Y-77741651D02*
G01*
X63660930Y-77789070D01*
X63708349Y-77860038D01*
X63725000Y-77943750D01*
X63725000Y-78456250D01*
X63708349Y-78539962D01*
X63660930Y-78610930D01*
X63589962Y-78658349D01*
X63506250Y-78675000D01*
X63068750Y-78675000D01*
X62985038Y-78658349D01*
X62914070Y-78610930D01*
X62866651Y-78539962D01*
X62850000Y-78456250D01*
X62850000Y-77943750D01*
X62866651Y-77860038D01*
X62914070Y-77789070D01*
X62985038Y-77741651D01*
X63068750Y-77725000D01*
X63506250Y-77725000D01*
X63589962Y-77741651D01*
X63589962Y-77741651D01*
G37*
D14*
X63287500Y-78200000D03*
D10*
G36*
X56320671Y-69894030D02*
G01*
X56401777Y-69948223D01*
X56455970Y-70029329D01*
X56475000Y-70125000D01*
X56475000Y-70875000D01*
X56455970Y-70970671D01*
X56401777Y-71051777D01*
X56320671Y-71105970D01*
X56225000Y-71125000D01*
X54975000Y-71125000D01*
X54879329Y-71105970D01*
X54798223Y-71051777D01*
X54744030Y-70970671D01*
X54725000Y-70875000D01*
X54725000Y-70125000D01*
X54744030Y-70029329D01*
X54798223Y-69948223D01*
X54879329Y-69894030D01*
X54975000Y-69875000D01*
X56225000Y-69875000D01*
X56320671Y-69894030D01*
X56320671Y-69894030D01*
G37*
D15*
X55600000Y-70500000D03*
D10*
G36*
X56320671Y-72694030D02*
G01*
X56401777Y-72748223D01*
X56455970Y-72829329D01*
X56475000Y-72925000D01*
X56475000Y-73675000D01*
X56455970Y-73770671D01*
X56401777Y-73851777D01*
X56320671Y-73905970D01*
X56225000Y-73925000D01*
X54975000Y-73925000D01*
X54879329Y-73905970D01*
X54798223Y-73851777D01*
X54744030Y-73770671D01*
X54725000Y-73675000D01*
X54725000Y-72925000D01*
X54744030Y-72829329D01*
X54798223Y-72748223D01*
X54879329Y-72694030D01*
X54975000Y-72675000D01*
X56225000Y-72675000D01*
X56320671Y-72694030D01*
X56320671Y-72694030D01*
G37*
D15*
X55600000Y-73300000D03*
D10*
G36*
X53920671Y-69894030D02*
G01*
X54001777Y-69948223D01*
X54055970Y-70029329D01*
X54075000Y-70125000D01*
X54075000Y-70875000D01*
X54055970Y-70970671D01*
X54001777Y-71051777D01*
X53920671Y-71105970D01*
X53825000Y-71125000D01*
X52575000Y-71125000D01*
X52479329Y-71105970D01*
X52398223Y-71051777D01*
X52344030Y-70970671D01*
X52325000Y-70875000D01*
X52325000Y-70125000D01*
X52344030Y-70029329D01*
X52398223Y-69948223D01*
X52479329Y-69894030D01*
X52575000Y-69875000D01*
X53825000Y-69875000D01*
X53920671Y-69894030D01*
X53920671Y-69894030D01*
G37*
D15*
X53200000Y-70500000D03*
D10*
G36*
X53920671Y-72694030D02*
G01*
X54001777Y-72748223D01*
X54055970Y-72829329D01*
X54075000Y-72925000D01*
X54075000Y-73675000D01*
X54055970Y-73770671D01*
X54001777Y-73851777D01*
X53920671Y-73905970D01*
X53825000Y-73925000D01*
X52575000Y-73925000D01*
X52479329Y-73905970D01*
X52398223Y-73851777D01*
X52344030Y-73770671D01*
X52325000Y-73675000D01*
X52325000Y-72925000D01*
X52344030Y-72829329D01*
X52398223Y-72748223D01*
X52479329Y-72694030D01*
X52575000Y-72675000D01*
X53825000Y-72675000D01*
X53920671Y-72694030D01*
X53920671Y-72694030D01*
G37*
D15*
X53200000Y-73300000D03*
D10*
G36*
X48870671Y-72144030D02*
G01*
X48951777Y-72198223D01*
X49005970Y-72279329D01*
X49025000Y-72375000D01*
X49025000Y-73625000D01*
X49005970Y-73720671D01*
X48951777Y-73801777D01*
X48870671Y-73855970D01*
X48775000Y-73875000D01*
X48025000Y-73875000D01*
X47929329Y-73855970D01*
X47848223Y-73801777D01*
X47794030Y-73720671D01*
X47775000Y-73625000D01*
X47775000Y-72375000D01*
X47794030Y-72279329D01*
X47848223Y-72198223D01*
X47929329Y-72144030D01*
X48025000Y-72125000D01*
X48775000Y-72125000D01*
X48870671Y-72144030D01*
X48870671Y-72144030D01*
G37*
D15*
X48400000Y-73000000D03*
D10*
G36*
X51670671Y-72144030D02*
G01*
X51751777Y-72198223D01*
X51805970Y-72279329D01*
X51825000Y-72375000D01*
X51825000Y-73625000D01*
X51805970Y-73720671D01*
X51751777Y-73801777D01*
X51670671Y-73855970D01*
X51575000Y-73875000D01*
X50825000Y-73875000D01*
X50729329Y-73855970D01*
X50648223Y-73801777D01*
X50594030Y-73720671D01*
X50575000Y-73625000D01*
X50575000Y-72375000D01*
X50594030Y-72279329D01*
X50648223Y-72198223D01*
X50729329Y-72144030D01*
X50825000Y-72125000D01*
X51575000Y-72125000D01*
X51670671Y-72144030D01*
X51670671Y-72144030D01*
G37*
D15*
X51200000Y-73000000D03*
D10*
G36*
X60289962Y-76141651D02*
G01*
X60360930Y-76189070D01*
X60408349Y-76260038D01*
X60425000Y-76343750D01*
X60425000Y-76856250D01*
X60408349Y-76939962D01*
X60360930Y-77010930D01*
X60289962Y-77058349D01*
X60206250Y-77075000D01*
X59768750Y-77075000D01*
X59685038Y-77058349D01*
X59614070Y-77010930D01*
X59566651Y-76939962D01*
X59550000Y-76856250D01*
X59550000Y-76343750D01*
X59566651Y-76260038D01*
X59614070Y-76189070D01*
X59685038Y-76141651D01*
X59768750Y-76125000D01*
X60206250Y-76125000D01*
X60289962Y-76141651D01*
X60289962Y-76141651D01*
G37*
D14*
X59987500Y-76600000D03*
D10*
G36*
X58714962Y-76141651D02*
G01*
X58785930Y-76189070D01*
X58833349Y-76260038D01*
X58850000Y-76343750D01*
X58850000Y-76856250D01*
X58833349Y-76939962D01*
X58785930Y-77010930D01*
X58714962Y-77058349D01*
X58631250Y-77075000D01*
X58193750Y-77075000D01*
X58110038Y-77058349D01*
X58039070Y-77010930D01*
X57991651Y-76939962D01*
X57975000Y-76856250D01*
X57975000Y-76343750D01*
X57991651Y-76260038D01*
X58039070Y-76189070D01*
X58110038Y-76141651D01*
X58193750Y-76125000D01*
X58631250Y-76125000D01*
X58714962Y-76141651D01*
X58714962Y-76141651D01*
G37*
D14*
X58412500Y-76600000D03*
D19*
X83800000Y-56700000D03*
X83800000Y-59700000D03*
D20*
X82325000Y-58200000D03*
X85275000Y-58200000D03*
D10*
G36*
X112539962Y-66441651D02*
G01*
X112610930Y-66489070D01*
X112658349Y-66560038D01*
X112675000Y-66643750D01*
X112675000Y-67156250D01*
X112658349Y-67239962D01*
X112610930Y-67310930D01*
X112539962Y-67358349D01*
X112456250Y-67375000D01*
X112018750Y-67375000D01*
X111935038Y-67358349D01*
X111864070Y-67310930D01*
X111816651Y-67239962D01*
X111800000Y-67156250D01*
X111800000Y-66643750D01*
X111816651Y-66560038D01*
X111864070Y-66489070D01*
X111935038Y-66441651D01*
X112018750Y-66425000D01*
X112456250Y-66425000D01*
X112539962Y-66441651D01*
X112539962Y-66441651D01*
G37*
D14*
X112237500Y-66900000D03*
D10*
G36*
X110964962Y-66441651D02*
G01*
X111035930Y-66489070D01*
X111083349Y-66560038D01*
X111100000Y-66643750D01*
X111100000Y-67156250D01*
X111083349Y-67239962D01*
X111035930Y-67310930D01*
X110964962Y-67358349D01*
X110881250Y-67375000D01*
X110443750Y-67375000D01*
X110360038Y-67358349D01*
X110289070Y-67310930D01*
X110241651Y-67239962D01*
X110225000Y-67156250D01*
X110225000Y-66643750D01*
X110241651Y-66560038D01*
X110289070Y-66489070D01*
X110360038Y-66441651D01*
X110443750Y-66425000D01*
X110881250Y-66425000D01*
X110964962Y-66441651D01*
X110964962Y-66441651D01*
G37*
D14*
X110662500Y-66900000D03*
D10*
G36*
X97639962Y-56584271D02*
G01*
X97710930Y-56631690D01*
X97758349Y-56702658D01*
X97775000Y-56786370D01*
X97775000Y-57223870D01*
X97758349Y-57307582D01*
X97710930Y-57378550D01*
X97639962Y-57425969D01*
X97556250Y-57442620D01*
X97043750Y-57442620D01*
X96960038Y-57425969D01*
X96889070Y-57378550D01*
X96841651Y-57307582D01*
X96825000Y-57223870D01*
X96825000Y-56786370D01*
X96841651Y-56702658D01*
X96889070Y-56631690D01*
X96960038Y-56584271D01*
X97043750Y-56567620D01*
X97556250Y-56567620D01*
X97639962Y-56584271D01*
X97639962Y-56584271D01*
G37*
D14*
X97300000Y-57005120D03*
D10*
G36*
X97639962Y-55009271D02*
G01*
X97710930Y-55056690D01*
X97758349Y-55127658D01*
X97775000Y-55211370D01*
X97775000Y-55648870D01*
X97758349Y-55732582D01*
X97710930Y-55803550D01*
X97639962Y-55850969D01*
X97556250Y-55867620D01*
X97043750Y-55867620D01*
X96960038Y-55850969D01*
X96889070Y-55803550D01*
X96841651Y-55732582D01*
X96825000Y-55648870D01*
X96825000Y-55211370D01*
X96841651Y-55127658D01*
X96889070Y-55056690D01*
X96960038Y-55009271D01*
X97043750Y-54992620D01*
X97556250Y-54992620D01*
X97639962Y-55009271D01*
X97639962Y-55009271D01*
G37*
D14*
X97300000Y-55430120D03*
D10*
G36*
X99339962Y-56566651D02*
G01*
X99410930Y-56614070D01*
X99458349Y-56685038D01*
X99475000Y-56768750D01*
X99475000Y-57206250D01*
X99458349Y-57289962D01*
X99410930Y-57360930D01*
X99339962Y-57408349D01*
X99256250Y-57425000D01*
X98743750Y-57425000D01*
X98660038Y-57408349D01*
X98589070Y-57360930D01*
X98541651Y-57289962D01*
X98525000Y-57206250D01*
X98525000Y-56768750D01*
X98541651Y-56685038D01*
X98589070Y-56614070D01*
X98660038Y-56566651D01*
X98743750Y-56550000D01*
X99256250Y-56550000D01*
X99339962Y-56566651D01*
X99339962Y-56566651D01*
G37*
D14*
X99000000Y-56987500D03*
D10*
G36*
X99339962Y-54991651D02*
G01*
X99410930Y-55039070D01*
X99458349Y-55110038D01*
X99475000Y-55193750D01*
X99475000Y-55631250D01*
X99458349Y-55714962D01*
X99410930Y-55785930D01*
X99339962Y-55833349D01*
X99256250Y-55850000D01*
X98743750Y-55850000D01*
X98660038Y-55833349D01*
X98589070Y-55785930D01*
X98541651Y-55714962D01*
X98525000Y-55631250D01*
X98525000Y-55193750D01*
X98541651Y-55110038D01*
X98589070Y-55039070D01*
X98660038Y-54991651D01*
X98743750Y-54975000D01*
X99256250Y-54975000D01*
X99339962Y-54991651D01*
X99339962Y-54991651D01*
G37*
D14*
X99000000Y-55412500D03*
D10*
G36*
X98139962Y-81391651D02*
G01*
X98210930Y-81439070D01*
X98258349Y-81510038D01*
X98275000Y-81593750D01*
X98275000Y-82031250D01*
X98258349Y-82114962D01*
X98210930Y-82185930D01*
X98139962Y-82233349D01*
X98056250Y-82250000D01*
X97543750Y-82250000D01*
X97460038Y-82233349D01*
X97389070Y-82185930D01*
X97341651Y-82114962D01*
X97325000Y-82031250D01*
X97325000Y-81593750D01*
X97341651Y-81510038D01*
X97389070Y-81439070D01*
X97460038Y-81391651D01*
X97543750Y-81375000D01*
X98056250Y-81375000D01*
X98139962Y-81391651D01*
X98139962Y-81391651D01*
G37*
D14*
X97800000Y-81812500D03*
D10*
G36*
X98139962Y-82966651D02*
G01*
X98210930Y-83014070D01*
X98258349Y-83085038D01*
X98275000Y-83168750D01*
X98275000Y-83606250D01*
X98258349Y-83689962D01*
X98210930Y-83760930D01*
X98139962Y-83808349D01*
X98056250Y-83825000D01*
X97543750Y-83825000D01*
X97460038Y-83808349D01*
X97389070Y-83760930D01*
X97341651Y-83689962D01*
X97325000Y-83606250D01*
X97325000Y-83168750D01*
X97341651Y-83085038D01*
X97389070Y-83014070D01*
X97460038Y-82966651D01*
X97543750Y-82950000D01*
X98056250Y-82950000D01*
X98139962Y-82966651D01*
X98139962Y-82966651D01*
G37*
D14*
X97800000Y-83387500D03*
D10*
G36*
X98139962Y-79866651D02*
G01*
X98210930Y-79914070D01*
X98258349Y-79985038D01*
X98275000Y-80068750D01*
X98275000Y-80506250D01*
X98258349Y-80589962D01*
X98210930Y-80660930D01*
X98139962Y-80708349D01*
X98056250Y-80725000D01*
X97543750Y-80725000D01*
X97460038Y-80708349D01*
X97389070Y-80660930D01*
X97341651Y-80589962D01*
X97325000Y-80506250D01*
X97325000Y-80068750D01*
X97341651Y-79985038D01*
X97389070Y-79914070D01*
X97460038Y-79866651D01*
X97543750Y-79850000D01*
X98056250Y-79850000D01*
X98139962Y-79866651D01*
X98139962Y-79866651D01*
G37*
D14*
X97800000Y-80287500D03*
D10*
G36*
X98139962Y-78291651D02*
G01*
X98210930Y-78339070D01*
X98258349Y-78410038D01*
X98275000Y-78493750D01*
X98275000Y-78931250D01*
X98258349Y-79014962D01*
X98210930Y-79085930D01*
X98139962Y-79133349D01*
X98056250Y-79150000D01*
X97543750Y-79150000D01*
X97460038Y-79133349D01*
X97389070Y-79085930D01*
X97341651Y-79014962D01*
X97325000Y-78931250D01*
X97325000Y-78493750D01*
X97341651Y-78410038D01*
X97389070Y-78339070D01*
X97460038Y-78291651D01*
X97543750Y-78275000D01*
X98056250Y-78275000D01*
X98139962Y-78291651D01*
X98139962Y-78291651D01*
G37*
D14*
X97800000Y-78712500D03*
D10*
G36*
X92139962Y-81666651D02*
G01*
X92210930Y-81714070D01*
X92258349Y-81785038D01*
X92275000Y-81868750D01*
X92275000Y-82306250D01*
X92258349Y-82389962D01*
X92210930Y-82460930D01*
X92139962Y-82508349D01*
X92056250Y-82525000D01*
X91543750Y-82525000D01*
X91460038Y-82508349D01*
X91389070Y-82460930D01*
X91341651Y-82389962D01*
X91325000Y-82306250D01*
X91325000Y-81868750D01*
X91341651Y-81785038D01*
X91389070Y-81714070D01*
X91460038Y-81666651D01*
X91543750Y-81650000D01*
X92056250Y-81650000D01*
X92139962Y-81666651D01*
X92139962Y-81666651D01*
G37*
D14*
X91800000Y-82087500D03*
D10*
G36*
X92139962Y-80091651D02*
G01*
X92210930Y-80139070D01*
X92258349Y-80210038D01*
X92275000Y-80293750D01*
X92275000Y-80731250D01*
X92258349Y-80814962D01*
X92210930Y-80885930D01*
X92139962Y-80933349D01*
X92056250Y-80950000D01*
X91543750Y-80950000D01*
X91460038Y-80933349D01*
X91389070Y-80885930D01*
X91341651Y-80814962D01*
X91325000Y-80731250D01*
X91325000Y-80293750D01*
X91341651Y-80210038D01*
X91389070Y-80139070D01*
X91460038Y-80091651D01*
X91543750Y-80075000D01*
X92056250Y-80075000D01*
X92139962Y-80091651D01*
X92139962Y-80091651D01*
G37*
D14*
X91800000Y-80512500D03*
D10*
G36*
X107239962Y-60541651D02*
G01*
X107310930Y-60589070D01*
X107358349Y-60660038D01*
X107375000Y-60743750D01*
X107375000Y-61256250D01*
X107358349Y-61339962D01*
X107310930Y-61410930D01*
X107239962Y-61458349D01*
X107156250Y-61475000D01*
X106718750Y-61475000D01*
X106635038Y-61458349D01*
X106564070Y-61410930D01*
X106516651Y-61339962D01*
X106500000Y-61256250D01*
X106500000Y-60743750D01*
X106516651Y-60660038D01*
X106564070Y-60589070D01*
X106635038Y-60541651D01*
X106718750Y-60525000D01*
X107156250Y-60525000D01*
X107239962Y-60541651D01*
X107239962Y-60541651D01*
G37*
D14*
X106937500Y-61000000D03*
D10*
G36*
X105664962Y-60541651D02*
G01*
X105735930Y-60589070D01*
X105783349Y-60660038D01*
X105800000Y-60743750D01*
X105800000Y-61256250D01*
X105783349Y-61339962D01*
X105735930Y-61410930D01*
X105664962Y-61458349D01*
X105581250Y-61475000D01*
X105143750Y-61475000D01*
X105060038Y-61458349D01*
X104989070Y-61410930D01*
X104941651Y-61339962D01*
X104925000Y-61256250D01*
X104925000Y-60743750D01*
X104941651Y-60660038D01*
X104989070Y-60589070D01*
X105060038Y-60541651D01*
X105143750Y-60525000D01*
X105581250Y-60525000D01*
X105664962Y-60541651D01*
X105664962Y-60541651D01*
G37*
D14*
X105362500Y-61000000D03*
D10*
G36*
X108689962Y-63666651D02*
G01*
X108760930Y-63714070D01*
X108808349Y-63785038D01*
X108825000Y-63868750D01*
X108825000Y-64306250D01*
X108808349Y-64389962D01*
X108760930Y-64460930D01*
X108689962Y-64508349D01*
X108606250Y-64525000D01*
X108093750Y-64525000D01*
X108010038Y-64508349D01*
X107939070Y-64460930D01*
X107891651Y-64389962D01*
X107875000Y-64306250D01*
X107875000Y-63868750D01*
X107891651Y-63785038D01*
X107939070Y-63714070D01*
X108010038Y-63666651D01*
X108093750Y-63650000D01*
X108606250Y-63650000D01*
X108689962Y-63666651D01*
X108689962Y-63666651D01*
G37*
D14*
X108350000Y-64087500D03*
D10*
G36*
X108689962Y-62091651D02*
G01*
X108760930Y-62139070D01*
X108808349Y-62210038D01*
X108825000Y-62293750D01*
X108825000Y-62731250D01*
X108808349Y-62814962D01*
X108760930Y-62885930D01*
X108689962Y-62933349D01*
X108606250Y-62950000D01*
X108093750Y-62950000D01*
X108010038Y-62933349D01*
X107939070Y-62885930D01*
X107891651Y-62814962D01*
X107875000Y-62731250D01*
X107875000Y-62293750D01*
X107891651Y-62210038D01*
X107939070Y-62139070D01*
X108010038Y-62091651D01*
X108093750Y-62075000D01*
X108606250Y-62075000D01*
X108689962Y-62091651D01*
X108689962Y-62091651D01*
G37*
D14*
X108350000Y-62512500D03*
D21*
X110300000Y-63687500D03*
X110300000Y-62912500D03*
X111500000Y-62912500D03*
X111500000Y-63687500D03*
D22*
X109925000Y-61750000D03*
X110575000Y-61750000D03*
X111225000Y-61750000D03*
X111875000Y-61750000D03*
X111875000Y-64850000D03*
X111225000Y-64850000D03*
X110575000Y-64850000D03*
X109925000Y-64850000D03*
D23*
X95250000Y-82562500D03*
X94750000Y-82562500D03*
X94250000Y-82562500D03*
X93750000Y-82562500D03*
X93750000Y-80037500D03*
X94250000Y-80037500D03*
X94750000Y-80037500D03*
X95250000Y-80037500D03*
D24*
X93487500Y-81800000D03*
X93487500Y-81300000D03*
X93487500Y-80800000D03*
X95512500Y-81800000D03*
X95512500Y-80800000D03*
X95512500Y-81300000D03*
D10*
G36*
X112514962Y-79316651D02*
G01*
X112585930Y-79364070D01*
X112633349Y-79435038D01*
X112650000Y-79518750D01*
X112650000Y-80031250D01*
X112633349Y-80114962D01*
X112585930Y-80185930D01*
X112514962Y-80233349D01*
X112431250Y-80250000D01*
X111993750Y-80250000D01*
X111910038Y-80233349D01*
X111839070Y-80185930D01*
X111791651Y-80114962D01*
X111775000Y-80031250D01*
X111775000Y-79518750D01*
X111791651Y-79435038D01*
X111839070Y-79364070D01*
X111910038Y-79316651D01*
X111993750Y-79300000D01*
X112431250Y-79300000D01*
X112514962Y-79316651D01*
X112514962Y-79316651D01*
G37*
D14*
X112212500Y-79775000D03*
D10*
G36*
X110939962Y-79316651D02*
G01*
X111010930Y-79364070D01*
X111058349Y-79435038D01*
X111075000Y-79518750D01*
X111075000Y-80031250D01*
X111058349Y-80114962D01*
X111010930Y-80185930D01*
X110939962Y-80233349D01*
X110856250Y-80250000D01*
X110418750Y-80250000D01*
X110335038Y-80233349D01*
X110264070Y-80185930D01*
X110216651Y-80114962D01*
X110200000Y-80031250D01*
X110200000Y-79518750D01*
X110216651Y-79435038D01*
X110264070Y-79364070D01*
X110335038Y-79316651D01*
X110418750Y-79300000D01*
X110856250Y-79300000D01*
X110939962Y-79316651D01*
X110939962Y-79316651D01*
G37*
D14*
X110637500Y-79775000D03*
D10*
G36*
X104589962Y-65541651D02*
G01*
X104660930Y-65589070D01*
X104708349Y-65660038D01*
X104725000Y-65743750D01*
X104725000Y-66256250D01*
X104708349Y-66339962D01*
X104660930Y-66410930D01*
X104589962Y-66458349D01*
X104506250Y-66475000D01*
X104068750Y-66475000D01*
X103985038Y-66458349D01*
X103914070Y-66410930D01*
X103866651Y-66339962D01*
X103850000Y-66256250D01*
X103850000Y-65743750D01*
X103866651Y-65660038D01*
X103914070Y-65589070D01*
X103985038Y-65541651D01*
X104068750Y-65525000D01*
X104506250Y-65525000D01*
X104589962Y-65541651D01*
X104589962Y-65541651D01*
G37*
D14*
X104287500Y-66000000D03*
D10*
G36*
X103014962Y-65541651D02*
G01*
X103085930Y-65589070D01*
X103133349Y-65660038D01*
X103150000Y-65743750D01*
X103150000Y-66256250D01*
X103133349Y-66339962D01*
X103085930Y-66410930D01*
X103014962Y-66458349D01*
X102931250Y-66475000D01*
X102493750Y-66475000D01*
X102410038Y-66458349D01*
X102339070Y-66410930D01*
X102291651Y-66339962D01*
X102275000Y-66256250D01*
X102275000Y-65743750D01*
X102291651Y-65660038D01*
X102339070Y-65589070D01*
X102410038Y-65541651D01*
X102493750Y-65525000D01*
X102931250Y-65525000D01*
X103014962Y-65541651D01*
X103014962Y-65541651D01*
G37*
D14*
X102712500Y-66000000D03*
D10*
G36*
X113539962Y-71266651D02*
G01*
X113610930Y-71314070D01*
X113658349Y-71385038D01*
X113675000Y-71468750D01*
X113675000Y-71906250D01*
X113658349Y-71989962D01*
X113610930Y-72060930D01*
X113539962Y-72108349D01*
X113456250Y-72125000D01*
X112943750Y-72125000D01*
X112860038Y-72108349D01*
X112789070Y-72060930D01*
X112741651Y-71989962D01*
X112725000Y-71906250D01*
X112725000Y-71468750D01*
X112741651Y-71385038D01*
X112789070Y-71314070D01*
X112860038Y-71266651D01*
X112943750Y-71250000D01*
X113456250Y-71250000D01*
X113539962Y-71266651D01*
X113539962Y-71266651D01*
G37*
D14*
X113200000Y-71687500D03*
D10*
G36*
X113539962Y-69691651D02*
G01*
X113610930Y-69739070D01*
X113658349Y-69810038D01*
X113675000Y-69893750D01*
X113675000Y-70331250D01*
X113658349Y-70414962D01*
X113610930Y-70485930D01*
X113539962Y-70533349D01*
X113456250Y-70550000D01*
X112943750Y-70550000D01*
X112860038Y-70533349D01*
X112789070Y-70485930D01*
X112741651Y-70414962D01*
X112725000Y-70331250D01*
X112725000Y-69893750D01*
X112741651Y-69810038D01*
X112789070Y-69739070D01*
X112860038Y-69691651D01*
X112943750Y-69675000D01*
X113456250Y-69675000D01*
X113539962Y-69691651D01*
X113539962Y-69691651D01*
G37*
D14*
X113200000Y-70112500D03*
D10*
G36*
X98039962Y-69391651D02*
G01*
X98110930Y-69439070D01*
X98158349Y-69510038D01*
X98175000Y-69593750D01*
X98175000Y-70031250D01*
X98158349Y-70114962D01*
X98110930Y-70185930D01*
X98039962Y-70233349D01*
X97956250Y-70250000D01*
X97443750Y-70250000D01*
X97360038Y-70233349D01*
X97289070Y-70185930D01*
X97241651Y-70114962D01*
X97225000Y-70031250D01*
X97225000Y-69593750D01*
X97241651Y-69510038D01*
X97289070Y-69439070D01*
X97360038Y-69391651D01*
X97443750Y-69375000D01*
X97956250Y-69375000D01*
X98039962Y-69391651D01*
X98039962Y-69391651D01*
G37*
D14*
X97700000Y-69812500D03*
D10*
G36*
X98039962Y-70966651D02*
G01*
X98110930Y-71014070D01*
X98158349Y-71085038D01*
X98175000Y-71168750D01*
X98175000Y-71606250D01*
X98158349Y-71689962D01*
X98110930Y-71760930D01*
X98039962Y-71808349D01*
X97956250Y-71825000D01*
X97443750Y-71825000D01*
X97360038Y-71808349D01*
X97289070Y-71760930D01*
X97241651Y-71689962D01*
X97225000Y-71606250D01*
X97225000Y-71168750D01*
X97241651Y-71085038D01*
X97289070Y-71014070D01*
X97360038Y-70966651D01*
X97443750Y-70950000D01*
X97956250Y-70950000D01*
X98039962Y-70966651D01*
X98039962Y-70966651D01*
G37*
D14*
X97700000Y-71387500D03*
D10*
G36*
X109439962Y-65491651D02*
G01*
X109510930Y-65539070D01*
X109558349Y-65610038D01*
X109575000Y-65693750D01*
X109575000Y-66206250D01*
X109558349Y-66289962D01*
X109510930Y-66360930D01*
X109439962Y-66408349D01*
X109356250Y-66425000D01*
X108918750Y-66425000D01*
X108835038Y-66408349D01*
X108764070Y-66360930D01*
X108716651Y-66289962D01*
X108700000Y-66206250D01*
X108700000Y-65693750D01*
X108716651Y-65610038D01*
X108764070Y-65539070D01*
X108835038Y-65491651D01*
X108918750Y-65475000D01*
X109356250Y-65475000D01*
X109439962Y-65491651D01*
X109439962Y-65491651D01*
G37*
D14*
X109137500Y-65950000D03*
D10*
G36*
X107864962Y-65491651D02*
G01*
X107935930Y-65539070D01*
X107983349Y-65610038D01*
X108000000Y-65693750D01*
X108000000Y-66206250D01*
X107983349Y-66289962D01*
X107935930Y-66360930D01*
X107864962Y-66408349D01*
X107781250Y-66425000D01*
X107343750Y-66425000D01*
X107260038Y-66408349D01*
X107189070Y-66360930D01*
X107141651Y-66289962D01*
X107125000Y-66206250D01*
X107125000Y-65693750D01*
X107141651Y-65610038D01*
X107189070Y-65539070D01*
X107260038Y-65491651D01*
X107343750Y-65475000D01*
X107781250Y-65475000D01*
X107864962Y-65491651D01*
X107864962Y-65491651D01*
G37*
D14*
X107562500Y-65950000D03*
D10*
G36*
X98139962Y-75191651D02*
G01*
X98210930Y-75239070D01*
X98258349Y-75310038D01*
X98275000Y-75393750D01*
X98275000Y-75831250D01*
X98258349Y-75914962D01*
X98210930Y-75985930D01*
X98139962Y-76033349D01*
X98056250Y-76050000D01*
X97543750Y-76050000D01*
X97460038Y-76033349D01*
X97389070Y-75985930D01*
X97341651Y-75914962D01*
X97325000Y-75831250D01*
X97325000Y-75393750D01*
X97341651Y-75310038D01*
X97389070Y-75239070D01*
X97460038Y-75191651D01*
X97543750Y-75175000D01*
X98056250Y-75175000D01*
X98139962Y-75191651D01*
X98139962Y-75191651D01*
G37*
D14*
X97800000Y-75612500D03*
D10*
G36*
X98139962Y-76766651D02*
G01*
X98210930Y-76814070D01*
X98258349Y-76885038D01*
X98275000Y-76968750D01*
X98275000Y-77406250D01*
X98258349Y-77489962D01*
X98210930Y-77560930D01*
X98139962Y-77608349D01*
X98056250Y-77625000D01*
X97543750Y-77625000D01*
X97460038Y-77608349D01*
X97389070Y-77560930D01*
X97341651Y-77489962D01*
X97325000Y-77406250D01*
X97325000Y-76968750D01*
X97341651Y-76885038D01*
X97389070Y-76814070D01*
X97460038Y-76766651D01*
X97543750Y-76750000D01*
X98056250Y-76750000D01*
X98139962Y-76766651D01*
X98139962Y-76766651D01*
G37*
D14*
X97800000Y-77187500D03*
D25*
X100250000Y-61990000D03*
X100250000Y-65290000D03*
X98250000Y-65290000D03*
X98250000Y-61990000D03*
D10*
G36*
X98764962Y-59371651D02*
G01*
X98835930Y-59419070D01*
X98883349Y-59490038D01*
X98900000Y-59573750D01*
X98900000Y-60086250D01*
X98883349Y-60169962D01*
X98835930Y-60240930D01*
X98764962Y-60288349D01*
X98681250Y-60305000D01*
X98243750Y-60305000D01*
X98160038Y-60288349D01*
X98089070Y-60240930D01*
X98041651Y-60169962D01*
X98025000Y-60086250D01*
X98025000Y-59573750D01*
X98041651Y-59490038D01*
X98089070Y-59419070D01*
X98160038Y-59371651D01*
X98243750Y-59355000D01*
X98681250Y-59355000D01*
X98764962Y-59371651D01*
X98764962Y-59371651D01*
G37*
D14*
X98462500Y-59830000D03*
D10*
G36*
X100339962Y-59371651D02*
G01*
X100410930Y-59419070D01*
X100458349Y-59490038D01*
X100475000Y-59573750D01*
X100475000Y-60086250D01*
X100458349Y-60169962D01*
X100410930Y-60240930D01*
X100339962Y-60288349D01*
X100256250Y-60305000D01*
X99818750Y-60305000D01*
X99735038Y-60288349D01*
X99664070Y-60240930D01*
X99616651Y-60169962D01*
X99600000Y-60086250D01*
X99600000Y-59573750D01*
X99616651Y-59490038D01*
X99664070Y-59419070D01*
X99735038Y-59371651D01*
X99818750Y-59355000D01*
X100256250Y-59355000D01*
X100339962Y-59371651D01*
X100339962Y-59371651D01*
G37*
D14*
X100037500Y-59830000D03*
D10*
G36*
X100339962Y-66991651D02*
G01*
X100410930Y-67039070D01*
X100458349Y-67110038D01*
X100475000Y-67193750D01*
X100475000Y-67706250D01*
X100458349Y-67789962D01*
X100410930Y-67860930D01*
X100339962Y-67908349D01*
X100256250Y-67925000D01*
X99818750Y-67925000D01*
X99735038Y-67908349D01*
X99664070Y-67860930D01*
X99616651Y-67789962D01*
X99600000Y-67706250D01*
X99600000Y-67193750D01*
X99616651Y-67110038D01*
X99664070Y-67039070D01*
X99735038Y-66991651D01*
X99818750Y-66975000D01*
X100256250Y-66975000D01*
X100339962Y-66991651D01*
X100339962Y-66991651D01*
G37*
D14*
X100037500Y-67450000D03*
D10*
G36*
X98764962Y-66991651D02*
G01*
X98835930Y-67039070D01*
X98883349Y-67110038D01*
X98900000Y-67193750D01*
X98900000Y-67706250D01*
X98883349Y-67789962D01*
X98835930Y-67860930D01*
X98764962Y-67908349D01*
X98681250Y-67925000D01*
X98243750Y-67925000D01*
X98160038Y-67908349D01*
X98089070Y-67860930D01*
X98041651Y-67789962D01*
X98025000Y-67706250D01*
X98025000Y-67193750D01*
X98041651Y-67110038D01*
X98089070Y-67039070D01*
X98160038Y-66991651D01*
X98243750Y-66975000D01*
X98681250Y-66975000D01*
X98764962Y-66991651D01*
X98764962Y-66991651D01*
G37*
D14*
X98462500Y-67450000D03*
D10*
G36*
X107314962Y-81341651D02*
G01*
X107385930Y-81389070D01*
X107433349Y-81460038D01*
X107450000Y-81543750D01*
X107450000Y-82056250D01*
X107433349Y-82139962D01*
X107385930Y-82210930D01*
X107314962Y-82258349D01*
X107231250Y-82275000D01*
X106793750Y-82275000D01*
X106710038Y-82258349D01*
X106639070Y-82210930D01*
X106591651Y-82139962D01*
X106575000Y-82056250D01*
X106575000Y-81543750D01*
X106591651Y-81460038D01*
X106639070Y-81389070D01*
X106710038Y-81341651D01*
X106793750Y-81325000D01*
X107231250Y-81325000D01*
X107314962Y-81341651D01*
X107314962Y-81341651D01*
G37*
D14*
X107012500Y-81800000D03*
D10*
G36*
X108889962Y-81341651D02*
G01*
X108960930Y-81389070D01*
X109008349Y-81460038D01*
X109025000Y-81543750D01*
X109025000Y-82056250D01*
X109008349Y-82139962D01*
X108960930Y-82210930D01*
X108889962Y-82258349D01*
X108806250Y-82275000D01*
X108368750Y-82275000D01*
X108285038Y-82258349D01*
X108214070Y-82210930D01*
X108166651Y-82139962D01*
X108150000Y-82056250D01*
X108150000Y-81543750D01*
X108166651Y-81460038D01*
X108214070Y-81389070D01*
X108285038Y-81341651D01*
X108368750Y-81325000D01*
X108806250Y-81325000D01*
X108889962Y-81341651D01*
X108889962Y-81341651D01*
G37*
D14*
X108587500Y-81800000D03*
D10*
G36*
X107314962Y-82941651D02*
G01*
X107385930Y-82989070D01*
X107433349Y-83060038D01*
X107450000Y-83143750D01*
X107450000Y-83656250D01*
X107433349Y-83739962D01*
X107385930Y-83810930D01*
X107314962Y-83858349D01*
X107231250Y-83875000D01*
X106793750Y-83875000D01*
X106710038Y-83858349D01*
X106639070Y-83810930D01*
X106591651Y-83739962D01*
X106575000Y-83656250D01*
X106575000Y-83143750D01*
X106591651Y-83060038D01*
X106639070Y-82989070D01*
X106710038Y-82941651D01*
X106793750Y-82925000D01*
X107231250Y-82925000D01*
X107314962Y-82941651D01*
X107314962Y-82941651D01*
G37*
D14*
X107012500Y-83400000D03*
D10*
G36*
X108889962Y-82941651D02*
G01*
X108960930Y-82989070D01*
X109008349Y-83060038D01*
X109025000Y-83143750D01*
X109025000Y-83656250D01*
X109008349Y-83739962D01*
X108960930Y-83810930D01*
X108889962Y-83858349D01*
X108806250Y-83875000D01*
X108368750Y-83875000D01*
X108285038Y-83858349D01*
X108214070Y-83810930D01*
X108166651Y-83739962D01*
X108150000Y-83656250D01*
X108150000Y-83143750D01*
X108166651Y-83060038D01*
X108214070Y-82989070D01*
X108285038Y-82941651D01*
X108368750Y-82925000D01*
X108806250Y-82925000D01*
X108889962Y-82941651D01*
X108889962Y-82941651D01*
G37*
D14*
X108587500Y-83400000D03*
D10*
G36*
X110814962Y-81341651D02*
G01*
X110885930Y-81389070D01*
X110933349Y-81460038D01*
X110950000Y-81543750D01*
X110950000Y-82056250D01*
X110933349Y-82139962D01*
X110885930Y-82210930D01*
X110814962Y-82258349D01*
X110731250Y-82275000D01*
X110293750Y-82275000D01*
X110210038Y-82258349D01*
X110139070Y-82210930D01*
X110091651Y-82139962D01*
X110075000Y-82056250D01*
X110075000Y-81543750D01*
X110091651Y-81460038D01*
X110139070Y-81389070D01*
X110210038Y-81341651D01*
X110293750Y-81325000D01*
X110731250Y-81325000D01*
X110814962Y-81341651D01*
X110814962Y-81341651D01*
G37*
D14*
X110512500Y-81800000D03*
D10*
G36*
X112389962Y-81341651D02*
G01*
X112460930Y-81389070D01*
X112508349Y-81460038D01*
X112525000Y-81543750D01*
X112525000Y-82056250D01*
X112508349Y-82139962D01*
X112460930Y-82210930D01*
X112389962Y-82258349D01*
X112306250Y-82275000D01*
X111868750Y-82275000D01*
X111785038Y-82258349D01*
X111714070Y-82210930D01*
X111666651Y-82139962D01*
X111650000Y-82056250D01*
X111650000Y-81543750D01*
X111666651Y-81460038D01*
X111714070Y-81389070D01*
X111785038Y-81341651D01*
X111868750Y-81325000D01*
X112306250Y-81325000D01*
X112389962Y-81341651D01*
X112389962Y-81341651D01*
G37*
D14*
X112087500Y-81800000D03*
D10*
G36*
X110814962Y-82941651D02*
G01*
X110885930Y-82989070D01*
X110933349Y-83060038D01*
X110950000Y-83143750D01*
X110950000Y-83656250D01*
X110933349Y-83739962D01*
X110885930Y-83810930D01*
X110814962Y-83858349D01*
X110731250Y-83875000D01*
X110293750Y-83875000D01*
X110210038Y-83858349D01*
X110139070Y-83810930D01*
X110091651Y-83739962D01*
X110075000Y-83656250D01*
X110075000Y-83143750D01*
X110091651Y-83060038D01*
X110139070Y-82989070D01*
X110210038Y-82941651D01*
X110293750Y-82925000D01*
X110731250Y-82925000D01*
X110814962Y-82941651D01*
X110814962Y-82941651D01*
G37*
D14*
X110512500Y-83400000D03*
D10*
G36*
X112389962Y-82941651D02*
G01*
X112460930Y-82989070D01*
X112508349Y-83060038D01*
X112525000Y-83143750D01*
X112525000Y-83656250D01*
X112508349Y-83739962D01*
X112460930Y-83810930D01*
X112389962Y-83858349D01*
X112306250Y-83875000D01*
X111868750Y-83875000D01*
X111785038Y-83858349D01*
X111714070Y-83810930D01*
X111666651Y-83739962D01*
X111650000Y-83656250D01*
X111650000Y-83143750D01*
X111666651Y-83060038D01*
X111714070Y-82989070D01*
X111785038Y-82941651D01*
X111868750Y-82925000D01*
X112306250Y-82925000D01*
X112389962Y-82941651D01*
X112389962Y-82941651D01*
G37*
D14*
X112087500Y-83400000D03*
D26*
X73300000Y-64237500D03*
X73300000Y-64887500D03*
X73300000Y-65537500D03*
X73300000Y-66187500D03*
X68900000Y-66187500D03*
X68900000Y-65537500D03*
X68900000Y-64887500D03*
X68900000Y-64237500D03*
D10*
G36*
X111953701Y-69655709D02*
G01*
X111978033Y-69671967D01*
X111994291Y-69696299D01*
X112000000Y-69725000D01*
X112000000Y-69875000D01*
X111994291Y-69903701D01*
X111978033Y-69928033D01*
X111953701Y-69944291D01*
X111925000Y-69950000D01*
X110525000Y-69950000D01*
X110496299Y-69944291D01*
X110471967Y-69928033D01*
X110455709Y-69903701D01*
X110450000Y-69875000D01*
X110450000Y-69725000D01*
X110455709Y-69696299D01*
X110471967Y-69671967D01*
X110496299Y-69655709D01*
X110525000Y-69650000D01*
X111925000Y-69650000D01*
X111953701Y-69655709D01*
X111953701Y-69655709D01*
G37*
D27*
X111225000Y-69800000D03*
D10*
G36*
X111953701Y-70155709D02*
G01*
X111978033Y-70171967D01*
X111994291Y-70196299D01*
X112000000Y-70225000D01*
X112000000Y-70375000D01*
X111994291Y-70403701D01*
X111978033Y-70428033D01*
X111953701Y-70444291D01*
X111925000Y-70450000D01*
X110525000Y-70450000D01*
X110496299Y-70444291D01*
X110471967Y-70428033D01*
X110455709Y-70403701D01*
X110450000Y-70375000D01*
X110450000Y-70225000D01*
X110455709Y-70196299D01*
X110471967Y-70171967D01*
X110496299Y-70155709D01*
X110525000Y-70150000D01*
X111925000Y-70150000D01*
X111953701Y-70155709D01*
X111953701Y-70155709D01*
G37*
D27*
X111225000Y-70300000D03*
D10*
G36*
X111953701Y-70655709D02*
G01*
X111978033Y-70671967D01*
X111994291Y-70696299D01*
X112000000Y-70725000D01*
X112000000Y-70875000D01*
X111994291Y-70903701D01*
X111978033Y-70928033D01*
X111953701Y-70944291D01*
X111925000Y-70950000D01*
X110525000Y-70950000D01*
X110496299Y-70944291D01*
X110471967Y-70928033D01*
X110455709Y-70903701D01*
X110450000Y-70875000D01*
X110450000Y-70725000D01*
X110455709Y-70696299D01*
X110471967Y-70671967D01*
X110496299Y-70655709D01*
X110525000Y-70650000D01*
X111925000Y-70650000D01*
X111953701Y-70655709D01*
X111953701Y-70655709D01*
G37*
D27*
X111225000Y-70800000D03*
D10*
G36*
X111953701Y-71155709D02*
G01*
X111978033Y-71171967D01*
X111994291Y-71196299D01*
X112000000Y-71225000D01*
X112000000Y-71375000D01*
X111994291Y-71403701D01*
X111978033Y-71428033D01*
X111953701Y-71444291D01*
X111925000Y-71450000D01*
X110525000Y-71450000D01*
X110496299Y-71444291D01*
X110471967Y-71428033D01*
X110455709Y-71403701D01*
X110450000Y-71375000D01*
X110450000Y-71225000D01*
X110455709Y-71196299D01*
X110471967Y-71171967D01*
X110496299Y-71155709D01*
X110525000Y-71150000D01*
X111925000Y-71150000D01*
X111953701Y-71155709D01*
X111953701Y-71155709D01*
G37*
D27*
X111225000Y-71300000D03*
D10*
G36*
X111953701Y-71655709D02*
G01*
X111978033Y-71671967D01*
X111994291Y-71696299D01*
X112000000Y-71725000D01*
X112000000Y-71875000D01*
X111994291Y-71903701D01*
X111978033Y-71928033D01*
X111953701Y-71944291D01*
X111925000Y-71950000D01*
X110525000Y-71950000D01*
X110496299Y-71944291D01*
X110471967Y-71928033D01*
X110455709Y-71903701D01*
X110450000Y-71875000D01*
X110450000Y-71725000D01*
X110455709Y-71696299D01*
X110471967Y-71671967D01*
X110496299Y-71655709D01*
X110525000Y-71650000D01*
X111925000Y-71650000D01*
X111953701Y-71655709D01*
X111953701Y-71655709D01*
G37*
D27*
X111225000Y-71800000D03*
D10*
G36*
X111953701Y-72155709D02*
G01*
X111978033Y-72171967D01*
X111994291Y-72196299D01*
X112000000Y-72225000D01*
X112000000Y-72375000D01*
X111994291Y-72403701D01*
X111978033Y-72428033D01*
X111953701Y-72444291D01*
X111925000Y-72450000D01*
X110525000Y-72450000D01*
X110496299Y-72444291D01*
X110471967Y-72428033D01*
X110455709Y-72403701D01*
X110450000Y-72375000D01*
X110450000Y-72225000D01*
X110455709Y-72196299D01*
X110471967Y-72171967D01*
X110496299Y-72155709D01*
X110525000Y-72150000D01*
X111925000Y-72150000D01*
X111953701Y-72155709D01*
X111953701Y-72155709D01*
G37*
D27*
X111225000Y-72300000D03*
D10*
G36*
X111953701Y-72655709D02*
G01*
X111978033Y-72671967D01*
X111994291Y-72696299D01*
X112000000Y-72725000D01*
X112000000Y-72875000D01*
X111994291Y-72903701D01*
X111978033Y-72928033D01*
X111953701Y-72944291D01*
X111925000Y-72950000D01*
X110525000Y-72950000D01*
X110496299Y-72944291D01*
X110471967Y-72928033D01*
X110455709Y-72903701D01*
X110450000Y-72875000D01*
X110450000Y-72725000D01*
X110455709Y-72696299D01*
X110471967Y-72671967D01*
X110496299Y-72655709D01*
X110525000Y-72650000D01*
X111925000Y-72650000D01*
X111953701Y-72655709D01*
X111953701Y-72655709D01*
G37*
D27*
X111225000Y-72800000D03*
D10*
G36*
X111953701Y-73155709D02*
G01*
X111978033Y-73171967D01*
X111994291Y-73196299D01*
X112000000Y-73225000D01*
X112000000Y-73375000D01*
X111994291Y-73403701D01*
X111978033Y-73428033D01*
X111953701Y-73444291D01*
X111925000Y-73450000D01*
X110525000Y-73450000D01*
X110496299Y-73444291D01*
X110471967Y-73428033D01*
X110455709Y-73403701D01*
X110450000Y-73375000D01*
X110450000Y-73225000D01*
X110455709Y-73196299D01*
X110471967Y-73171967D01*
X110496299Y-73155709D01*
X110525000Y-73150000D01*
X111925000Y-73150000D01*
X111953701Y-73155709D01*
X111953701Y-73155709D01*
G37*
D27*
X111225000Y-73300000D03*
D10*
G36*
X111953701Y-73655709D02*
G01*
X111978033Y-73671967D01*
X111994291Y-73696299D01*
X112000000Y-73725000D01*
X112000000Y-73875000D01*
X111994291Y-73903701D01*
X111978033Y-73928033D01*
X111953701Y-73944291D01*
X111925000Y-73950000D01*
X110525000Y-73950000D01*
X110496299Y-73944291D01*
X110471967Y-73928033D01*
X110455709Y-73903701D01*
X110450000Y-73875000D01*
X110450000Y-73725000D01*
X110455709Y-73696299D01*
X110471967Y-73671967D01*
X110496299Y-73655709D01*
X110525000Y-73650000D01*
X111925000Y-73650000D01*
X111953701Y-73655709D01*
X111953701Y-73655709D01*
G37*
D27*
X111225000Y-73800000D03*
D10*
G36*
X111953701Y-74155709D02*
G01*
X111978033Y-74171967D01*
X111994291Y-74196299D01*
X112000000Y-74225000D01*
X112000000Y-74375000D01*
X111994291Y-74403701D01*
X111978033Y-74428033D01*
X111953701Y-74444291D01*
X111925000Y-74450000D01*
X110525000Y-74450000D01*
X110496299Y-74444291D01*
X110471967Y-74428033D01*
X110455709Y-74403701D01*
X110450000Y-74375000D01*
X110450000Y-74225000D01*
X110455709Y-74196299D01*
X110471967Y-74171967D01*
X110496299Y-74155709D01*
X110525000Y-74150000D01*
X111925000Y-74150000D01*
X111953701Y-74155709D01*
X111953701Y-74155709D01*
G37*
D27*
X111225000Y-74300000D03*
D10*
G36*
X111953701Y-74655709D02*
G01*
X111978033Y-74671967D01*
X111994291Y-74696299D01*
X112000000Y-74725000D01*
X112000000Y-74875000D01*
X111994291Y-74903701D01*
X111978033Y-74928033D01*
X111953701Y-74944291D01*
X111925000Y-74950000D01*
X110525000Y-74950000D01*
X110496299Y-74944291D01*
X110471967Y-74928033D01*
X110455709Y-74903701D01*
X110450000Y-74875000D01*
X110450000Y-74725000D01*
X110455709Y-74696299D01*
X110471967Y-74671967D01*
X110496299Y-74655709D01*
X110525000Y-74650000D01*
X111925000Y-74650000D01*
X111953701Y-74655709D01*
X111953701Y-74655709D01*
G37*
D27*
X111225000Y-74800000D03*
D10*
G36*
X111953701Y-75155709D02*
G01*
X111978033Y-75171967D01*
X111994291Y-75196299D01*
X112000000Y-75225000D01*
X112000000Y-75375000D01*
X111994291Y-75403701D01*
X111978033Y-75428033D01*
X111953701Y-75444291D01*
X111925000Y-75450000D01*
X110525000Y-75450000D01*
X110496299Y-75444291D01*
X110471967Y-75428033D01*
X110455709Y-75403701D01*
X110450000Y-75375000D01*
X110450000Y-75225000D01*
X110455709Y-75196299D01*
X110471967Y-75171967D01*
X110496299Y-75155709D01*
X110525000Y-75150000D01*
X111925000Y-75150000D01*
X111953701Y-75155709D01*
X111953701Y-75155709D01*
G37*
D27*
X111225000Y-75300000D03*
D10*
G36*
X111953701Y-75655709D02*
G01*
X111978033Y-75671967D01*
X111994291Y-75696299D01*
X112000000Y-75725000D01*
X112000000Y-75875000D01*
X111994291Y-75903701D01*
X111978033Y-75928033D01*
X111953701Y-75944291D01*
X111925000Y-75950000D01*
X110525000Y-75950000D01*
X110496299Y-75944291D01*
X110471967Y-75928033D01*
X110455709Y-75903701D01*
X110450000Y-75875000D01*
X110450000Y-75725000D01*
X110455709Y-75696299D01*
X110471967Y-75671967D01*
X110496299Y-75655709D01*
X110525000Y-75650000D01*
X111925000Y-75650000D01*
X111953701Y-75655709D01*
X111953701Y-75655709D01*
G37*
D27*
X111225000Y-75800000D03*
D10*
G36*
X111953701Y-76155709D02*
G01*
X111978033Y-76171967D01*
X111994291Y-76196299D01*
X112000000Y-76225000D01*
X112000000Y-76375000D01*
X111994291Y-76403701D01*
X111978033Y-76428033D01*
X111953701Y-76444291D01*
X111925000Y-76450000D01*
X110525000Y-76450000D01*
X110496299Y-76444291D01*
X110471967Y-76428033D01*
X110455709Y-76403701D01*
X110450000Y-76375000D01*
X110450000Y-76225000D01*
X110455709Y-76196299D01*
X110471967Y-76171967D01*
X110496299Y-76155709D01*
X110525000Y-76150000D01*
X111925000Y-76150000D01*
X111953701Y-76155709D01*
X111953701Y-76155709D01*
G37*
D27*
X111225000Y-76300000D03*
D10*
G36*
X111953701Y-76655709D02*
G01*
X111978033Y-76671967D01*
X111994291Y-76696299D01*
X112000000Y-76725000D01*
X112000000Y-76875000D01*
X111994291Y-76903701D01*
X111978033Y-76928033D01*
X111953701Y-76944291D01*
X111925000Y-76950000D01*
X110525000Y-76950000D01*
X110496299Y-76944291D01*
X110471967Y-76928033D01*
X110455709Y-76903701D01*
X110450000Y-76875000D01*
X110450000Y-76725000D01*
X110455709Y-76696299D01*
X110471967Y-76671967D01*
X110496299Y-76655709D01*
X110525000Y-76650000D01*
X111925000Y-76650000D01*
X111953701Y-76655709D01*
X111953701Y-76655709D01*
G37*
D27*
X111225000Y-76800000D03*
D10*
G36*
X111953701Y-77155709D02*
G01*
X111978033Y-77171967D01*
X111994291Y-77196299D01*
X112000000Y-77225000D01*
X112000000Y-77375000D01*
X111994291Y-77403701D01*
X111978033Y-77428033D01*
X111953701Y-77444291D01*
X111925000Y-77450000D01*
X110525000Y-77450000D01*
X110496299Y-77444291D01*
X110471967Y-77428033D01*
X110455709Y-77403701D01*
X110450000Y-77375000D01*
X110450000Y-77225000D01*
X110455709Y-77196299D01*
X110471967Y-77171967D01*
X110496299Y-77155709D01*
X110525000Y-77150000D01*
X111925000Y-77150000D01*
X111953701Y-77155709D01*
X111953701Y-77155709D01*
G37*
D27*
X111225000Y-77300000D03*
D10*
G36*
X109403701Y-78455709D02*
G01*
X109428033Y-78471967D01*
X109444291Y-78496299D01*
X109450000Y-78525000D01*
X109450000Y-79925000D01*
X109444291Y-79953701D01*
X109428033Y-79978033D01*
X109403701Y-79994291D01*
X109375000Y-80000000D01*
X109225000Y-80000000D01*
X109196299Y-79994291D01*
X109171967Y-79978033D01*
X109155709Y-79953701D01*
X109150000Y-79925000D01*
X109150000Y-78525000D01*
X109155709Y-78496299D01*
X109171967Y-78471967D01*
X109196299Y-78455709D01*
X109225000Y-78450000D01*
X109375000Y-78450000D01*
X109403701Y-78455709D01*
X109403701Y-78455709D01*
G37*
D27*
X109300000Y-79225000D03*
D10*
G36*
X108903701Y-78455709D02*
G01*
X108928033Y-78471967D01*
X108944291Y-78496299D01*
X108950000Y-78525000D01*
X108950000Y-79925000D01*
X108944291Y-79953701D01*
X108928033Y-79978033D01*
X108903701Y-79994291D01*
X108875000Y-80000000D01*
X108725000Y-80000000D01*
X108696299Y-79994291D01*
X108671967Y-79978033D01*
X108655709Y-79953701D01*
X108650000Y-79925000D01*
X108650000Y-78525000D01*
X108655709Y-78496299D01*
X108671967Y-78471967D01*
X108696299Y-78455709D01*
X108725000Y-78450000D01*
X108875000Y-78450000D01*
X108903701Y-78455709D01*
X108903701Y-78455709D01*
G37*
D27*
X108800000Y-79225000D03*
D10*
G36*
X108403701Y-78455709D02*
G01*
X108428033Y-78471967D01*
X108444291Y-78496299D01*
X108450000Y-78525000D01*
X108450000Y-79925000D01*
X108444291Y-79953701D01*
X108428033Y-79978033D01*
X108403701Y-79994291D01*
X108375000Y-80000000D01*
X108225000Y-80000000D01*
X108196299Y-79994291D01*
X108171967Y-79978033D01*
X108155709Y-79953701D01*
X108150000Y-79925000D01*
X108150000Y-78525000D01*
X108155709Y-78496299D01*
X108171967Y-78471967D01*
X108196299Y-78455709D01*
X108225000Y-78450000D01*
X108375000Y-78450000D01*
X108403701Y-78455709D01*
X108403701Y-78455709D01*
G37*
D27*
X108300000Y-79225000D03*
D10*
G36*
X107903701Y-78455709D02*
G01*
X107928033Y-78471967D01*
X107944291Y-78496299D01*
X107950000Y-78525000D01*
X107950000Y-79925000D01*
X107944291Y-79953701D01*
X107928033Y-79978033D01*
X107903701Y-79994291D01*
X107875000Y-80000000D01*
X107725000Y-80000000D01*
X107696299Y-79994291D01*
X107671967Y-79978033D01*
X107655709Y-79953701D01*
X107650000Y-79925000D01*
X107650000Y-78525000D01*
X107655709Y-78496299D01*
X107671967Y-78471967D01*
X107696299Y-78455709D01*
X107725000Y-78450000D01*
X107875000Y-78450000D01*
X107903701Y-78455709D01*
X107903701Y-78455709D01*
G37*
D27*
X107800000Y-79225000D03*
D10*
G36*
X107403701Y-78455709D02*
G01*
X107428033Y-78471967D01*
X107444291Y-78496299D01*
X107450000Y-78525000D01*
X107450000Y-79925000D01*
X107444291Y-79953701D01*
X107428033Y-79978033D01*
X107403701Y-79994291D01*
X107375000Y-80000000D01*
X107225000Y-80000000D01*
X107196299Y-79994291D01*
X107171967Y-79978033D01*
X107155709Y-79953701D01*
X107150000Y-79925000D01*
X107150000Y-78525000D01*
X107155709Y-78496299D01*
X107171967Y-78471967D01*
X107196299Y-78455709D01*
X107225000Y-78450000D01*
X107375000Y-78450000D01*
X107403701Y-78455709D01*
X107403701Y-78455709D01*
G37*
D27*
X107300000Y-79225000D03*
D10*
G36*
X106903701Y-78455709D02*
G01*
X106928033Y-78471967D01*
X106944291Y-78496299D01*
X106950000Y-78525000D01*
X106950000Y-79925000D01*
X106944291Y-79953701D01*
X106928033Y-79978033D01*
X106903701Y-79994291D01*
X106875000Y-80000000D01*
X106725000Y-80000000D01*
X106696299Y-79994291D01*
X106671967Y-79978033D01*
X106655709Y-79953701D01*
X106650000Y-79925000D01*
X106650000Y-78525000D01*
X106655709Y-78496299D01*
X106671967Y-78471967D01*
X106696299Y-78455709D01*
X106725000Y-78450000D01*
X106875000Y-78450000D01*
X106903701Y-78455709D01*
X106903701Y-78455709D01*
G37*
D27*
X106800000Y-79225000D03*
D10*
G36*
X106403701Y-78455709D02*
G01*
X106428033Y-78471967D01*
X106444291Y-78496299D01*
X106450000Y-78525000D01*
X106450000Y-79925000D01*
X106444291Y-79953701D01*
X106428033Y-79978033D01*
X106403701Y-79994291D01*
X106375000Y-80000000D01*
X106225000Y-80000000D01*
X106196299Y-79994291D01*
X106171967Y-79978033D01*
X106155709Y-79953701D01*
X106150000Y-79925000D01*
X106150000Y-78525000D01*
X106155709Y-78496299D01*
X106171967Y-78471967D01*
X106196299Y-78455709D01*
X106225000Y-78450000D01*
X106375000Y-78450000D01*
X106403701Y-78455709D01*
X106403701Y-78455709D01*
G37*
D27*
X106300000Y-79225000D03*
D10*
G36*
X105903701Y-78455709D02*
G01*
X105928033Y-78471967D01*
X105944291Y-78496299D01*
X105950000Y-78525000D01*
X105950000Y-79925000D01*
X105944291Y-79953701D01*
X105928033Y-79978033D01*
X105903701Y-79994291D01*
X105875000Y-80000000D01*
X105725000Y-80000000D01*
X105696299Y-79994291D01*
X105671967Y-79978033D01*
X105655709Y-79953701D01*
X105650000Y-79925000D01*
X105650000Y-78525000D01*
X105655709Y-78496299D01*
X105671967Y-78471967D01*
X105696299Y-78455709D01*
X105725000Y-78450000D01*
X105875000Y-78450000D01*
X105903701Y-78455709D01*
X105903701Y-78455709D01*
G37*
D27*
X105800000Y-79225000D03*
D10*
G36*
X105403701Y-78455709D02*
G01*
X105428033Y-78471967D01*
X105444291Y-78496299D01*
X105450000Y-78525000D01*
X105450000Y-79925000D01*
X105444291Y-79953701D01*
X105428033Y-79978033D01*
X105403701Y-79994291D01*
X105375000Y-80000000D01*
X105225000Y-80000000D01*
X105196299Y-79994291D01*
X105171967Y-79978033D01*
X105155709Y-79953701D01*
X105150000Y-79925000D01*
X105150000Y-78525000D01*
X105155709Y-78496299D01*
X105171967Y-78471967D01*
X105196299Y-78455709D01*
X105225000Y-78450000D01*
X105375000Y-78450000D01*
X105403701Y-78455709D01*
X105403701Y-78455709D01*
G37*
D27*
X105300000Y-79225000D03*
D10*
G36*
X104903701Y-78455709D02*
G01*
X104928033Y-78471967D01*
X104944291Y-78496299D01*
X104950000Y-78525000D01*
X104950000Y-79925000D01*
X104944291Y-79953701D01*
X104928033Y-79978033D01*
X104903701Y-79994291D01*
X104875000Y-80000000D01*
X104725000Y-80000000D01*
X104696299Y-79994291D01*
X104671967Y-79978033D01*
X104655709Y-79953701D01*
X104650000Y-79925000D01*
X104650000Y-78525000D01*
X104655709Y-78496299D01*
X104671967Y-78471967D01*
X104696299Y-78455709D01*
X104725000Y-78450000D01*
X104875000Y-78450000D01*
X104903701Y-78455709D01*
X104903701Y-78455709D01*
G37*
D27*
X104800000Y-79225000D03*
D10*
G36*
X104403701Y-78455709D02*
G01*
X104428033Y-78471967D01*
X104444291Y-78496299D01*
X104450000Y-78525000D01*
X104450000Y-79925000D01*
X104444291Y-79953701D01*
X104428033Y-79978033D01*
X104403701Y-79994291D01*
X104375000Y-80000000D01*
X104225000Y-80000000D01*
X104196299Y-79994291D01*
X104171967Y-79978033D01*
X104155709Y-79953701D01*
X104150000Y-79925000D01*
X104150000Y-78525000D01*
X104155709Y-78496299D01*
X104171967Y-78471967D01*
X104196299Y-78455709D01*
X104225000Y-78450000D01*
X104375000Y-78450000D01*
X104403701Y-78455709D01*
X104403701Y-78455709D01*
G37*
D27*
X104300000Y-79225000D03*
D10*
G36*
X103903701Y-78455709D02*
G01*
X103928033Y-78471967D01*
X103944291Y-78496299D01*
X103950000Y-78525000D01*
X103950000Y-79925000D01*
X103944291Y-79953701D01*
X103928033Y-79978033D01*
X103903701Y-79994291D01*
X103875000Y-80000000D01*
X103725000Y-80000000D01*
X103696299Y-79994291D01*
X103671967Y-79978033D01*
X103655709Y-79953701D01*
X103650000Y-79925000D01*
X103650000Y-78525000D01*
X103655709Y-78496299D01*
X103671967Y-78471967D01*
X103696299Y-78455709D01*
X103725000Y-78450000D01*
X103875000Y-78450000D01*
X103903701Y-78455709D01*
X103903701Y-78455709D01*
G37*
D27*
X103800000Y-79225000D03*
D10*
G36*
X103403701Y-78455709D02*
G01*
X103428033Y-78471967D01*
X103444291Y-78496299D01*
X103450000Y-78525000D01*
X103450000Y-79925000D01*
X103444291Y-79953701D01*
X103428033Y-79978033D01*
X103403701Y-79994291D01*
X103375000Y-80000000D01*
X103225000Y-80000000D01*
X103196299Y-79994291D01*
X103171967Y-79978033D01*
X103155709Y-79953701D01*
X103150000Y-79925000D01*
X103150000Y-78525000D01*
X103155709Y-78496299D01*
X103171967Y-78471967D01*
X103196299Y-78455709D01*
X103225000Y-78450000D01*
X103375000Y-78450000D01*
X103403701Y-78455709D01*
X103403701Y-78455709D01*
G37*
D27*
X103300000Y-79225000D03*
D10*
G36*
X102903701Y-78455709D02*
G01*
X102928033Y-78471967D01*
X102944291Y-78496299D01*
X102950000Y-78525000D01*
X102950000Y-79925000D01*
X102944291Y-79953701D01*
X102928033Y-79978033D01*
X102903701Y-79994291D01*
X102875000Y-80000000D01*
X102725000Y-80000000D01*
X102696299Y-79994291D01*
X102671967Y-79978033D01*
X102655709Y-79953701D01*
X102650000Y-79925000D01*
X102650000Y-78525000D01*
X102655709Y-78496299D01*
X102671967Y-78471967D01*
X102696299Y-78455709D01*
X102725000Y-78450000D01*
X102875000Y-78450000D01*
X102903701Y-78455709D01*
X102903701Y-78455709D01*
G37*
D27*
X102800000Y-79225000D03*
D10*
G36*
X102403701Y-78455709D02*
G01*
X102428033Y-78471967D01*
X102444291Y-78496299D01*
X102450000Y-78525000D01*
X102450000Y-79925000D01*
X102444291Y-79953701D01*
X102428033Y-79978033D01*
X102403701Y-79994291D01*
X102375000Y-80000000D01*
X102225000Y-80000000D01*
X102196299Y-79994291D01*
X102171967Y-79978033D01*
X102155709Y-79953701D01*
X102150000Y-79925000D01*
X102150000Y-78525000D01*
X102155709Y-78496299D01*
X102171967Y-78471967D01*
X102196299Y-78455709D01*
X102225000Y-78450000D01*
X102375000Y-78450000D01*
X102403701Y-78455709D01*
X102403701Y-78455709D01*
G37*
D27*
X102300000Y-79225000D03*
D10*
G36*
X101903701Y-78455709D02*
G01*
X101928033Y-78471967D01*
X101944291Y-78496299D01*
X101950000Y-78525000D01*
X101950000Y-79925000D01*
X101944291Y-79953701D01*
X101928033Y-79978033D01*
X101903701Y-79994291D01*
X101875000Y-80000000D01*
X101725000Y-80000000D01*
X101696299Y-79994291D01*
X101671967Y-79978033D01*
X101655709Y-79953701D01*
X101650000Y-79925000D01*
X101650000Y-78525000D01*
X101655709Y-78496299D01*
X101671967Y-78471967D01*
X101696299Y-78455709D01*
X101725000Y-78450000D01*
X101875000Y-78450000D01*
X101903701Y-78455709D01*
X101903701Y-78455709D01*
G37*
D27*
X101800000Y-79225000D03*
D10*
G36*
X100603701Y-77155709D02*
G01*
X100628033Y-77171967D01*
X100644291Y-77196299D01*
X100650000Y-77225000D01*
X100650000Y-77375000D01*
X100644291Y-77403701D01*
X100628033Y-77428033D01*
X100603701Y-77444291D01*
X100575000Y-77450000D01*
X99175000Y-77450000D01*
X99146299Y-77444291D01*
X99121967Y-77428033D01*
X99105709Y-77403701D01*
X99100000Y-77375000D01*
X99100000Y-77225000D01*
X99105709Y-77196299D01*
X99121967Y-77171967D01*
X99146299Y-77155709D01*
X99175000Y-77150000D01*
X100575000Y-77150000D01*
X100603701Y-77155709D01*
X100603701Y-77155709D01*
G37*
D27*
X99875000Y-77300000D03*
D10*
G36*
X100603701Y-76655709D02*
G01*
X100628033Y-76671967D01*
X100644291Y-76696299D01*
X100650000Y-76725000D01*
X100650000Y-76875000D01*
X100644291Y-76903701D01*
X100628033Y-76928033D01*
X100603701Y-76944291D01*
X100575000Y-76950000D01*
X99175000Y-76950000D01*
X99146299Y-76944291D01*
X99121967Y-76928033D01*
X99105709Y-76903701D01*
X99100000Y-76875000D01*
X99100000Y-76725000D01*
X99105709Y-76696299D01*
X99121967Y-76671967D01*
X99146299Y-76655709D01*
X99175000Y-76650000D01*
X100575000Y-76650000D01*
X100603701Y-76655709D01*
X100603701Y-76655709D01*
G37*
D27*
X99875000Y-76800000D03*
D10*
G36*
X100603701Y-76155709D02*
G01*
X100628033Y-76171967D01*
X100644291Y-76196299D01*
X100650000Y-76225000D01*
X100650000Y-76375000D01*
X100644291Y-76403701D01*
X100628033Y-76428033D01*
X100603701Y-76444291D01*
X100575000Y-76450000D01*
X99175000Y-76450000D01*
X99146299Y-76444291D01*
X99121967Y-76428033D01*
X99105709Y-76403701D01*
X99100000Y-76375000D01*
X99100000Y-76225000D01*
X99105709Y-76196299D01*
X99121967Y-76171967D01*
X99146299Y-76155709D01*
X99175000Y-76150000D01*
X100575000Y-76150000D01*
X100603701Y-76155709D01*
X100603701Y-76155709D01*
G37*
D27*
X99875000Y-76300000D03*
D10*
G36*
X100603701Y-75655709D02*
G01*
X100628033Y-75671967D01*
X100644291Y-75696299D01*
X100650000Y-75725000D01*
X100650000Y-75875000D01*
X100644291Y-75903701D01*
X100628033Y-75928033D01*
X100603701Y-75944291D01*
X100575000Y-75950000D01*
X99175000Y-75950000D01*
X99146299Y-75944291D01*
X99121967Y-75928033D01*
X99105709Y-75903701D01*
X99100000Y-75875000D01*
X99100000Y-75725000D01*
X99105709Y-75696299D01*
X99121967Y-75671967D01*
X99146299Y-75655709D01*
X99175000Y-75650000D01*
X100575000Y-75650000D01*
X100603701Y-75655709D01*
X100603701Y-75655709D01*
G37*
D27*
X99875000Y-75800000D03*
D10*
G36*
X100603701Y-75155709D02*
G01*
X100628033Y-75171967D01*
X100644291Y-75196299D01*
X100650000Y-75225000D01*
X100650000Y-75375000D01*
X100644291Y-75403701D01*
X100628033Y-75428033D01*
X100603701Y-75444291D01*
X100575000Y-75450000D01*
X99175000Y-75450000D01*
X99146299Y-75444291D01*
X99121967Y-75428033D01*
X99105709Y-75403701D01*
X99100000Y-75375000D01*
X99100000Y-75225000D01*
X99105709Y-75196299D01*
X99121967Y-75171967D01*
X99146299Y-75155709D01*
X99175000Y-75150000D01*
X100575000Y-75150000D01*
X100603701Y-75155709D01*
X100603701Y-75155709D01*
G37*
D27*
X99875000Y-75300000D03*
D10*
G36*
X100603701Y-74655709D02*
G01*
X100628033Y-74671967D01*
X100644291Y-74696299D01*
X100650000Y-74725000D01*
X100650000Y-74875000D01*
X100644291Y-74903701D01*
X100628033Y-74928033D01*
X100603701Y-74944291D01*
X100575000Y-74950000D01*
X99175000Y-74950000D01*
X99146299Y-74944291D01*
X99121967Y-74928033D01*
X99105709Y-74903701D01*
X99100000Y-74875000D01*
X99100000Y-74725000D01*
X99105709Y-74696299D01*
X99121967Y-74671967D01*
X99146299Y-74655709D01*
X99175000Y-74650000D01*
X100575000Y-74650000D01*
X100603701Y-74655709D01*
X100603701Y-74655709D01*
G37*
D27*
X99875000Y-74800000D03*
D10*
G36*
X100603701Y-74155709D02*
G01*
X100628033Y-74171967D01*
X100644291Y-74196299D01*
X100650000Y-74225000D01*
X100650000Y-74375000D01*
X100644291Y-74403701D01*
X100628033Y-74428033D01*
X100603701Y-74444291D01*
X100575000Y-74450000D01*
X99175000Y-74450000D01*
X99146299Y-74444291D01*
X99121967Y-74428033D01*
X99105709Y-74403701D01*
X99100000Y-74375000D01*
X99100000Y-74225000D01*
X99105709Y-74196299D01*
X99121967Y-74171967D01*
X99146299Y-74155709D01*
X99175000Y-74150000D01*
X100575000Y-74150000D01*
X100603701Y-74155709D01*
X100603701Y-74155709D01*
G37*
D27*
X99875000Y-74300000D03*
D10*
G36*
X100603701Y-73655709D02*
G01*
X100628033Y-73671967D01*
X100644291Y-73696299D01*
X100650000Y-73725000D01*
X100650000Y-73875000D01*
X100644291Y-73903701D01*
X100628033Y-73928033D01*
X100603701Y-73944291D01*
X100575000Y-73950000D01*
X99175000Y-73950000D01*
X99146299Y-73944291D01*
X99121967Y-73928033D01*
X99105709Y-73903701D01*
X99100000Y-73875000D01*
X99100000Y-73725000D01*
X99105709Y-73696299D01*
X99121967Y-73671967D01*
X99146299Y-73655709D01*
X99175000Y-73650000D01*
X100575000Y-73650000D01*
X100603701Y-73655709D01*
X100603701Y-73655709D01*
G37*
D27*
X99875000Y-73800000D03*
D10*
G36*
X100603701Y-73155709D02*
G01*
X100628033Y-73171967D01*
X100644291Y-73196299D01*
X100650000Y-73225000D01*
X100650000Y-73375000D01*
X100644291Y-73403701D01*
X100628033Y-73428033D01*
X100603701Y-73444291D01*
X100575000Y-73450000D01*
X99175000Y-73450000D01*
X99146299Y-73444291D01*
X99121967Y-73428033D01*
X99105709Y-73403701D01*
X99100000Y-73375000D01*
X99100000Y-73225000D01*
X99105709Y-73196299D01*
X99121967Y-73171967D01*
X99146299Y-73155709D01*
X99175000Y-73150000D01*
X100575000Y-73150000D01*
X100603701Y-73155709D01*
X100603701Y-73155709D01*
G37*
D27*
X99875000Y-73300000D03*
D10*
G36*
X100603701Y-72655709D02*
G01*
X100628033Y-72671967D01*
X100644291Y-72696299D01*
X100650000Y-72725000D01*
X100650000Y-72875000D01*
X100644291Y-72903701D01*
X100628033Y-72928033D01*
X100603701Y-72944291D01*
X100575000Y-72950000D01*
X99175000Y-72950000D01*
X99146299Y-72944291D01*
X99121967Y-72928033D01*
X99105709Y-72903701D01*
X99100000Y-72875000D01*
X99100000Y-72725000D01*
X99105709Y-72696299D01*
X99121967Y-72671967D01*
X99146299Y-72655709D01*
X99175000Y-72650000D01*
X100575000Y-72650000D01*
X100603701Y-72655709D01*
X100603701Y-72655709D01*
G37*
D27*
X99875000Y-72800000D03*
D10*
G36*
X100603701Y-72155709D02*
G01*
X100628033Y-72171967D01*
X100644291Y-72196299D01*
X100650000Y-72225000D01*
X100650000Y-72375000D01*
X100644291Y-72403701D01*
X100628033Y-72428033D01*
X100603701Y-72444291D01*
X100575000Y-72450000D01*
X99175000Y-72450000D01*
X99146299Y-72444291D01*
X99121967Y-72428033D01*
X99105709Y-72403701D01*
X99100000Y-72375000D01*
X99100000Y-72225000D01*
X99105709Y-72196299D01*
X99121967Y-72171967D01*
X99146299Y-72155709D01*
X99175000Y-72150000D01*
X100575000Y-72150000D01*
X100603701Y-72155709D01*
X100603701Y-72155709D01*
G37*
D27*
X99875000Y-72300000D03*
D10*
G36*
X100603701Y-71655709D02*
G01*
X100628033Y-71671967D01*
X100644291Y-71696299D01*
X100650000Y-71725000D01*
X100650000Y-71875000D01*
X100644291Y-71903701D01*
X100628033Y-71928033D01*
X100603701Y-71944291D01*
X100575000Y-71950000D01*
X99175000Y-71950000D01*
X99146299Y-71944291D01*
X99121967Y-71928033D01*
X99105709Y-71903701D01*
X99100000Y-71875000D01*
X99100000Y-71725000D01*
X99105709Y-71696299D01*
X99121967Y-71671967D01*
X99146299Y-71655709D01*
X99175000Y-71650000D01*
X100575000Y-71650000D01*
X100603701Y-71655709D01*
X100603701Y-71655709D01*
G37*
D27*
X99875000Y-71800000D03*
D10*
G36*
X100603701Y-71155709D02*
G01*
X100628033Y-71171967D01*
X100644291Y-71196299D01*
X100650000Y-71225000D01*
X100650000Y-71375000D01*
X100644291Y-71403701D01*
X100628033Y-71428033D01*
X100603701Y-71444291D01*
X100575000Y-71450000D01*
X99175000Y-71450000D01*
X99146299Y-71444291D01*
X99121967Y-71428033D01*
X99105709Y-71403701D01*
X99100000Y-71375000D01*
X99100000Y-71225000D01*
X99105709Y-71196299D01*
X99121967Y-71171967D01*
X99146299Y-71155709D01*
X99175000Y-71150000D01*
X100575000Y-71150000D01*
X100603701Y-71155709D01*
X100603701Y-71155709D01*
G37*
D27*
X99875000Y-71300000D03*
D10*
G36*
X100603701Y-70655709D02*
G01*
X100628033Y-70671967D01*
X100644291Y-70696299D01*
X100650000Y-70725000D01*
X100650000Y-70875000D01*
X100644291Y-70903701D01*
X100628033Y-70928033D01*
X100603701Y-70944291D01*
X100575000Y-70950000D01*
X99175000Y-70950000D01*
X99146299Y-70944291D01*
X99121967Y-70928033D01*
X99105709Y-70903701D01*
X99100000Y-70875000D01*
X99100000Y-70725000D01*
X99105709Y-70696299D01*
X99121967Y-70671967D01*
X99146299Y-70655709D01*
X99175000Y-70650000D01*
X100575000Y-70650000D01*
X100603701Y-70655709D01*
X100603701Y-70655709D01*
G37*
D27*
X99875000Y-70800000D03*
D10*
G36*
X100603701Y-70155709D02*
G01*
X100628033Y-70171967D01*
X100644291Y-70196299D01*
X100650000Y-70225000D01*
X100650000Y-70375000D01*
X100644291Y-70403701D01*
X100628033Y-70428033D01*
X100603701Y-70444291D01*
X100575000Y-70450000D01*
X99175000Y-70450000D01*
X99146299Y-70444291D01*
X99121967Y-70428033D01*
X99105709Y-70403701D01*
X99100000Y-70375000D01*
X99100000Y-70225000D01*
X99105709Y-70196299D01*
X99121967Y-70171967D01*
X99146299Y-70155709D01*
X99175000Y-70150000D01*
X100575000Y-70150000D01*
X100603701Y-70155709D01*
X100603701Y-70155709D01*
G37*
D27*
X99875000Y-70300000D03*
D10*
G36*
X100603701Y-69655709D02*
G01*
X100628033Y-69671967D01*
X100644291Y-69696299D01*
X100650000Y-69725000D01*
X100650000Y-69875000D01*
X100644291Y-69903701D01*
X100628033Y-69928033D01*
X100603701Y-69944291D01*
X100575000Y-69950000D01*
X99175000Y-69950000D01*
X99146299Y-69944291D01*
X99121967Y-69928033D01*
X99105709Y-69903701D01*
X99100000Y-69875000D01*
X99100000Y-69725000D01*
X99105709Y-69696299D01*
X99121967Y-69671967D01*
X99146299Y-69655709D01*
X99175000Y-69650000D01*
X100575000Y-69650000D01*
X100603701Y-69655709D01*
X100603701Y-69655709D01*
G37*
D27*
X99875000Y-69800000D03*
D10*
G36*
X101903701Y-67105709D02*
G01*
X101928033Y-67121967D01*
X101944291Y-67146299D01*
X101950000Y-67175000D01*
X101950000Y-68575000D01*
X101944291Y-68603701D01*
X101928033Y-68628033D01*
X101903701Y-68644291D01*
X101875000Y-68650000D01*
X101725000Y-68650000D01*
X101696299Y-68644291D01*
X101671967Y-68628033D01*
X101655709Y-68603701D01*
X101650000Y-68575000D01*
X101650000Y-67175000D01*
X101655709Y-67146299D01*
X101671967Y-67121967D01*
X101696299Y-67105709D01*
X101725000Y-67100000D01*
X101875000Y-67100000D01*
X101903701Y-67105709D01*
X101903701Y-67105709D01*
G37*
D27*
X101800000Y-67875000D03*
D10*
G36*
X102403701Y-67105709D02*
G01*
X102428033Y-67121967D01*
X102444291Y-67146299D01*
X102450000Y-67175000D01*
X102450000Y-68575000D01*
X102444291Y-68603701D01*
X102428033Y-68628033D01*
X102403701Y-68644291D01*
X102375000Y-68650000D01*
X102225000Y-68650000D01*
X102196299Y-68644291D01*
X102171967Y-68628033D01*
X102155709Y-68603701D01*
X102150000Y-68575000D01*
X102150000Y-67175000D01*
X102155709Y-67146299D01*
X102171967Y-67121967D01*
X102196299Y-67105709D01*
X102225000Y-67100000D01*
X102375000Y-67100000D01*
X102403701Y-67105709D01*
X102403701Y-67105709D01*
G37*
D27*
X102300000Y-67875000D03*
D10*
G36*
X102903701Y-67105709D02*
G01*
X102928033Y-67121967D01*
X102944291Y-67146299D01*
X102950000Y-67175000D01*
X102950000Y-68575000D01*
X102944291Y-68603701D01*
X102928033Y-68628033D01*
X102903701Y-68644291D01*
X102875000Y-68650000D01*
X102725000Y-68650000D01*
X102696299Y-68644291D01*
X102671967Y-68628033D01*
X102655709Y-68603701D01*
X102650000Y-68575000D01*
X102650000Y-67175000D01*
X102655709Y-67146299D01*
X102671967Y-67121967D01*
X102696299Y-67105709D01*
X102725000Y-67100000D01*
X102875000Y-67100000D01*
X102903701Y-67105709D01*
X102903701Y-67105709D01*
G37*
D27*
X102800000Y-67875000D03*
D10*
G36*
X103403701Y-67105709D02*
G01*
X103428033Y-67121967D01*
X103444291Y-67146299D01*
X103450000Y-67175000D01*
X103450000Y-68575000D01*
X103444291Y-68603701D01*
X103428033Y-68628033D01*
X103403701Y-68644291D01*
X103375000Y-68650000D01*
X103225000Y-68650000D01*
X103196299Y-68644291D01*
X103171967Y-68628033D01*
X103155709Y-68603701D01*
X103150000Y-68575000D01*
X103150000Y-67175000D01*
X103155709Y-67146299D01*
X103171967Y-67121967D01*
X103196299Y-67105709D01*
X103225000Y-67100000D01*
X103375000Y-67100000D01*
X103403701Y-67105709D01*
X103403701Y-67105709D01*
G37*
D27*
X103300000Y-67875000D03*
D10*
G36*
X103903701Y-67105709D02*
G01*
X103928033Y-67121967D01*
X103944291Y-67146299D01*
X103950000Y-67175000D01*
X103950000Y-68575000D01*
X103944291Y-68603701D01*
X103928033Y-68628033D01*
X103903701Y-68644291D01*
X103875000Y-68650000D01*
X103725000Y-68650000D01*
X103696299Y-68644291D01*
X103671967Y-68628033D01*
X103655709Y-68603701D01*
X103650000Y-68575000D01*
X103650000Y-67175000D01*
X103655709Y-67146299D01*
X103671967Y-67121967D01*
X103696299Y-67105709D01*
X103725000Y-67100000D01*
X103875000Y-67100000D01*
X103903701Y-67105709D01*
X103903701Y-67105709D01*
G37*
D27*
X103800000Y-67875000D03*
D10*
G36*
X104403701Y-67105709D02*
G01*
X104428033Y-67121967D01*
X104444291Y-67146299D01*
X104450000Y-67175000D01*
X104450000Y-68575000D01*
X104444291Y-68603701D01*
X104428033Y-68628033D01*
X104403701Y-68644291D01*
X104375000Y-68650000D01*
X104225000Y-68650000D01*
X104196299Y-68644291D01*
X104171967Y-68628033D01*
X104155709Y-68603701D01*
X104150000Y-68575000D01*
X104150000Y-67175000D01*
X104155709Y-67146299D01*
X104171967Y-67121967D01*
X104196299Y-67105709D01*
X104225000Y-67100000D01*
X104375000Y-67100000D01*
X104403701Y-67105709D01*
X104403701Y-67105709D01*
G37*
D27*
X104300000Y-67875000D03*
D10*
G36*
X104903701Y-67105709D02*
G01*
X104928033Y-67121967D01*
X104944291Y-67146299D01*
X104950000Y-67175000D01*
X104950000Y-68575000D01*
X104944291Y-68603701D01*
X104928033Y-68628033D01*
X104903701Y-68644291D01*
X104875000Y-68650000D01*
X104725000Y-68650000D01*
X104696299Y-68644291D01*
X104671967Y-68628033D01*
X104655709Y-68603701D01*
X104650000Y-68575000D01*
X104650000Y-67175000D01*
X104655709Y-67146299D01*
X104671967Y-67121967D01*
X104696299Y-67105709D01*
X104725000Y-67100000D01*
X104875000Y-67100000D01*
X104903701Y-67105709D01*
X104903701Y-67105709D01*
G37*
D27*
X104800000Y-67875000D03*
D10*
G36*
X105403701Y-67105709D02*
G01*
X105428033Y-67121967D01*
X105444291Y-67146299D01*
X105450000Y-67175000D01*
X105450000Y-68575000D01*
X105444291Y-68603701D01*
X105428033Y-68628033D01*
X105403701Y-68644291D01*
X105375000Y-68650000D01*
X105225000Y-68650000D01*
X105196299Y-68644291D01*
X105171967Y-68628033D01*
X105155709Y-68603701D01*
X105150000Y-68575000D01*
X105150000Y-67175000D01*
X105155709Y-67146299D01*
X105171967Y-67121967D01*
X105196299Y-67105709D01*
X105225000Y-67100000D01*
X105375000Y-67100000D01*
X105403701Y-67105709D01*
X105403701Y-67105709D01*
G37*
D27*
X105300000Y-67875000D03*
D10*
G36*
X105903701Y-67105709D02*
G01*
X105928033Y-67121967D01*
X105944291Y-67146299D01*
X105950000Y-67175000D01*
X105950000Y-68575000D01*
X105944291Y-68603701D01*
X105928033Y-68628033D01*
X105903701Y-68644291D01*
X105875000Y-68650000D01*
X105725000Y-68650000D01*
X105696299Y-68644291D01*
X105671967Y-68628033D01*
X105655709Y-68603701D01*
X105650000Y-68575000D01*
X105650000Y-67175000D01*
X105655709Y-67146299D01*
X105671967Y-67121967D01*
X105696299Y-67105709D01*
X105725000Y-67100000D01*
X105875000Y-67100000D01*
X105903701Y-67105709D01*
X105903701Y-67105709D01*
G37*
D27*
X105800000Y-67875000D03*
D10*
G36*
X106403701Y-67105709D02*
G01*
X106428033Y-67121967D01*
X106444291Y-67146299D01*
X106450000Y-67175000D01*
X106450000Y-68575000D01*
X106444291Y-68603701D01*
X106428033Y-68628033D01*
X106403701Y-68644291D01*
X106375000Y-68650000D01*
X106225000Y-68650000D01*
X106196299Y-68644291D01*
X106171967Y-68628033D01*
X106155709Y-68603701D01*
X106150000Y-68575000D01*
X106150000Y-67175000D01*
X106155709Y-67146299D01*
X106171967Y-67121967D01*
X106196299Y-67105709D01*
X106225000Y-67100000D01*
X106375000Y-67100000D01*
X106403701Y-67105709D01*
X106403701Y-67105709D01*
G37*
D27*
X106300000Y-67875000D03*
D10*
G36*
X106903701Y-67105709D02*
G01*
X106928033Y-67121967D01*
X106944291Y-67146299D01*
X106950000Y-67175000D01*
X106950000Y-68575000D01*
X106944291Y-68603701D01*
X106928033Y-68628033D01*
X106903701Y-68644291D01*
X106875000Y-68650000D01*
X106725000Y-68650000D01*
X106696299Y-68644291D01*
X106671967Y-68628033D01*
X106655709Y-68603701D01*
X106650000Y-68575000D01*
X106650000Y-67175000D01*
X106655709Y-67146299D01*
X106671967Y-67121967D01*
X106696299Y-67105709D01*
X106725000Y-67100000D01*
X106875000Y-67100000D01*
X106903701Y-67105709D01*
X106903701Y-67105709D01*
G37*
D27*
X106800000Y-67875000D03*
D10*
G36*
X107403701Y-67105709D02*
G01*
X107428033Y-67121967D01*
X107444291Y-67146299D01*
X107450000Y-67175000D01*
X107450000Y-68575000D01*
X107444291Y-68603701D01*
X107428033Y-68628033D01*
X107403701Y-68644291D01*
X107375000Y-68650000D01*
X107225000Y-68650000D01*
X107196299Y-68644291D01*
X107171967Y-68628033D01*
X107155709Y-68603701D01*
X107150000Y-68575000D01*
X107150000Y-67175000D01*
X107155709Y-67146299D01*
X107171967Y-67121967D01*
X107196299Y-67105709D01*
X107225000Y-67100000D01*
X107375000Y-67100000D01*
X107403701Y-67105709D01*
X107403701Y-67105709D01*
G37*
D27*
X107300000Y-67875000D03*
D10*
G36*
X107903701Y-67105709D02*
G01*
X107928033Y-67121967D01*
X107944291Y-67146299D01*
X107950000Y-67175000D01*
X107950000Y-68575000D01*
X107944291Y-68603701D01*
X107928033Y-68628033D01*
X107903701Y-68644291D01*
X107875000Y-68650000D01*
X107725000Y-68650000D01*
X107696299Y-68644291D01*
X107671967Y-68628033D01*
X107655709Y-68603701D01*
X107650000Y-68575000D01*
X107650000Y-67175000D01*
X107655709Y-67146299D01*
X107671967Y-67121967D01*
X107696299Y-67105709D01*
X107725000Y-67100000D01*
X107875000Y-67100000D01*
X107903701Y-67105709D01*
X107903701Y-67105709D01*
G37*
D27*
X107800000Y-67875000D03*
D10*
G36*
X108403701Y-67105709D02*
G01*
X108428033Y-67121967D01*
X108444291Y-67146299D01*
X108450000Y-67175000D01*
X108450000Y-68575000D01*
X108444291Y-68603701D01*
X108428033Y-68628033D01*
X108403701Y-68644291D01*
X108375000Y-68650000D01*
X108225000Y-68650000D01*
X108196299Y-68644291D01*
X108171967Y-68628033D01*
X108155709Y-68603701D01*
X108150000Y-68575000D01*
X108150000Y-67175000D01*
X108155709Y-67146299D01*
X108171967Y-67121967D01*
X108196299Y-67105709D01*
X108225000Y-67100000D01*
X108375000Y-67100000D01*
X108403701Y-67105709D01*
X108403701Y-67105709D01*
G37*
D27*
X108300000Y-67875000D03*
D10*
G36*
X108903701Y-67105709D02*
G01*
X108928033Y-67121967D01*
X108944291Y-67146299D01*
X108950000Y-67175000D01*
X108950000Y-68575000D01*
X108944291Y-68603701D01*
X108928033Y-68628033D01*
X108903701Y-68644291D01*
X108875000Y-68650000D01*
X108725000Y-68650000D01*
X108696299Y-68644291D01*
X108671967Y-68628033D01*
X108655709Y-68603701D01*
X108650000Y-68575000D01*
X108650000Y-67175000D01*
X108655709Y-67146299D01*
X108671967Y-67121967D01*
X108696299Y-67105709D01*
X108725000Y-67100000D01*
X108875000Y-67100000D01*
X108903701Y-67105709D01*
X108903701Y-67105709D01*
G37*
D27*
X108800000Y-67875000D03*
D10*
G36*
X109403701Y-67105709D02*
G01*
X109428033Y-67121967D01*
X109444291Y-67146299D01*
X109450000Y-67175000D01*
X109450000Y-68575000D01*
X109444291Y-68603701D01*
X109428033Y-68628033D01*
X109403701Y-68644291D01*
X109375000Y-68650000D01*
X109225000Y-68650000D01*
X109196299Y-68644291D01*
X109171967Y-68628033D01*
X109155709Y-68603701D01*
X109150000Y-68575000D01*
X109150000Y-67175000D01*
X109155709Y-67146299D01*
X109171967Y-67121967D01*
X109196299Y-67105709D01*
X109225000Y-67100000D01*
X109375000Y-67100000D01*
X109403701Y-67105709D01*
X109403701Y-67105709D01*
G37*
D27*
X109300000Y-67875000D03*
D10*
G36*
X69189962Y-62066651D02*
G01*
X69260930Y-62114070D01*
X69308349Y-62185038D01*
X69325000Y-62268750D01*
X69325000Y-62706250D01*
X69308349Y-62789962D01*
X69260930Y-62860930D01*
X69189962Y-62908349D01*
X69106250Y-62925000D01*
X68593750Y-62925000D01*
X68510038Y-62908349D01*
X68439070Y-62860930D01*
X68391651Y-62789962D01*
X68375000Y-62706250D01*
X68375000Y-62268750D01*
X68391651Y-62185038D01*
X68439070Y-62114070D01*
X68510038Y-62066651D01*
X68593750Y-62050000D01*
X69106250Y-62050000D01*
X69189962Y-62066651D01*
X69189962Y-62066651D01*
G37*
D14*
X68850000Y-62487500D03*
D10*
G36*
X69189962Y-60491651D02*
G01*
X69260930Y-60539070D01*
X69308349Y-60610038D01*
X69325000Y-60693750D01*
X69325000Y-61131250D01*
X69308349Y-61214962D01*
X69260930Y-61285930D01*
X69189962Y-61333349D01*
X69106250Y-61350000D01*
X68593750Y-61350000D01*
X68510038Y-61333349D01*
X68439070Y-61285930D01*
X68391651Y-61214962D01*
X68375000Y-61131250D01*
X68375000Y-60693750D01*
X68391651Y-60610038D01*
X68439070Y-60539070D01*
X68510038Y-60491651D01*
X68593750Y-60475000D01*
X69106250Y-60475000D01*
X69189962Y-60491651D01*
X69189962Y-60491651D01*
G37*
D14*
X68850000Y-60912500D03*
D10*
G36*
X78589962Y-60941651D02*
G01*
X78660930Y-60989070D01*
X78708349Y-61060038D01*
X78725000Y-61143750D01*
X78725000Y-61656250D01*
X78708349Y-61739962D01*
X78660930Y-61810930D01*
X78589962Y-61858349D01*
X78506250Y-61875000D01*
X78068750Y-61875000D01*
X77985038Y-61858349D01*
X77914070Y-61810930D01*
X77866651Y-61739962D01*
X77850000Y-61656250D01*
X77850000Y-61143750D01*
X77866651Y-61060038D01*
X77914070Y-60989070D01*
X77985038Y-60941651D01*
X78068750Y-60925000D01*
X78506250Y-60925000D01*
X78589962Y-60941651D01*
X78589962Y-60941651D01*
G37*
D14*
X78287500Y-61400000D03*
D10*
G36*
X77014962Y-60941651D02*
G01*
X77085930Y-60989070D01*
X77133349Y-61060038D01*
X77150000Y-61143750D01*
X77150000Y-61656250D01*
X77133349Y-61739962D01*
X77085930Y-61810930D01*
X77014962Y-61858349D01*
X76931250Y-61875000D01*
X76493750Y-61875000D01*
X76410038Y-61858349D01*
X76339070Y-61810930D01*
X76291651Y-61739962D01*
X76275000Y-61656250D01*
X76275000Y-61143750D01*
X76291651Y-61060038D01*
X76339070Y-60989070D01*
X76410038Y-60941651D01*
X76493750Y-60925000D01*
X76931250Y-60925000D01*
X77014962Y-60941651D01*
X77014962Y-60941651D01*
G37*
D14*
X76712500Y-61400000D03*
D28*
X78750000Y-66850000D03*
X78750000Y-63250000D03*
D29*
X109750000Y-91650000D03*
X109750000Y-86200000D03*
X100850000Y-91650000D03*
X100850000Y-86200000D03*
D30*
X106900000Y-86100000D03*
X106100000Y-86100000D03*
X105300000Y-86100000D03*
X104500000Y-86100000D03*
X103700000Y-86100000D03*
D29*
X96650000Y-91650000D03*
X96650000Y-86200000D03*
X87750000Y-91650000D03*
X87750000Y-86200000D03*
D30*
X93800000Y-86100000D03*
X93000000Y-86100000D03*
X92200000Y-86100000D03*
X91400000Y-86100000D03*
X90600000Y-86100000D03*
D10*
G36*
X73914962Y-62091651D02*
G01*
X73985930Y-62139070D01*
X74033349Y-62210038D01*
X74050000Y-62293750D01*
X74050000Y-62806250D01*
X74033349Y-62889962D01*
X73985930Y-62960930D01*
X73914962Y-63008349D01*
X73831250Y-63025000D01*
X73393750Y-63025000D01*
X73310038Y-63008349D01*
X73239070Y-62960930D01*
X73191651Y-62889962D01*
X73175000Y-62806250D01*
X73175000Y-62293750D01*
X73191651Y-62210038D01*
X73239070Y-62139070D01*
X73310038Y-62091651D01*
X73393750Y-62075000D01*
X73831250Y-62075000D01*
X73914962Y-62091651D01*
X73914962Y-62091651D01*
G37*
D14*
X73612500Y-62550000D03*
D10*
G36*
X75489962Y-62091651D02*
G01*
X75560930Y-62139070D01*
X75608349Y-62210038D01*
X75625000Y-62293750D01*
X75625000Y-62806250D01*
X75608349Y-62889962D01*
X75560930Y-62960930D01*
X75489962Y-63008349D01*
X75406250Y-63025000D01*
X74968750Y-63025000D01*
X74885038Y-63008349D01*
X74814070Y-62960930D01*
X74766651Y-62889962D01*
X74750000Y-62806250D01*
X74750000Y-62293750D01*
X74766651Y-62210038D01*
X74814070Y-62139070D01*
X74885038Y-62091651D01*
X74968750Y-62075000D01*
X75406250Y-62075000D01*
X75489962Y-62091651D01*
X75489962Y-62091651D01*
G37*
D14*
X75187500Y-62550000D03*
D10*
G36*
X84320671Y-66094030D02*
G01*
X84401777Y-66148223D01*
X84455970Y-66229329D01*
X84475000Y-66324999D01*
X84475000Y-67150001D01*
X84455970Y-67245671D01*
X84401777Y-67326777D01*
X84320671Y-67380970D01*
X84225001Y-67400000D01*
X82374999Y-67400000D01*
X82279329Y-67380970D01*
X82198223Y-67326777D01*
X82144030Y-67245671D01*
X82125000Y-67150001D01*
X82125000Y-66324999D01*
X82144030Y-66229329D01*
X82198223Y-66148223D01*
X82279329Y-66094030D01*
X82374999Y-66075000D01*
X84225001Y-66075000D01*
X84320671Y-66094030D01*
X84320671Y-66094030D01*
G37*
D31*
X83300000Y-66737500D03*
D10*
G36*
X84320671Y-63019030D02*
G01*
X84401777Y-63073223D01*
X84455970Y-63154329D01*
X84475000Y-63249999D01*
X84475000Y-64075001D01*
X84455970Y-64170671D01*
X84401777Y-64251777D01*
X84320671Y-64305970D01*
X84225001Y-64325000D01*
X82374999Y-64325000D01*
X82279329Y-64305970D01*
X82198223Y-64251777D01*
X82144030Y-64170671D01*
X82125000Y-64075001D01*
X82125000Y-63249999D01*
X82144030Y-63154329D01*
X82198223Y-63073223D01*
X82279329Y-63019030D01*
X82374999Y-63000000D01*
X84225001Y-63000000D01*
X84320671Y-63019030D01*
X84320671Y-63019030D01*
G37*
D31*
X83300000Y-63662500D03*
D10*
G36*
X75439962Y-65579151D02*
G01*
X75510930Y-65626570D01*
X75558349Y-65697538D01*
X75575000Y-65781250D01*
X75575000Y-66218750D01*
X75558349Y-66302462D01*
X75510930Y-66373430D01*
X75439962Y-66420849D01*
X75356250Y-66437500D01*
X74843750Y-66437500D01*
X74760038Y-66420849D01*
X74689070Y-66373430D01*
X74641651Y-66302462D01*
X74625000Y-66218750D01*
X74625000Y-65781250D01*
X74641651Y-65697538D01*
X74689070Y-65626570D01*
X74760038Y-65579151D01*
X74843750Y-65562500D01*
X75356250Y-65562500D01*
X75439962Y-65579151D01*
X75439962Y-65579151D01*
G37*
D14*
X75100000Y-66000000D03*
D10*
G36*
X75439962Y-64004151D02*
G01*
X75510930Y-64051570D01*
X75558349Y-64122538D01*
X75575000Y-64206250D01*
X75575000Y-64643750D01*
X75558349Y-64727462D01*
X75510930Y-64798430D01*
X75439962Y-64845849D01*
X75356250Y-64862500D01*
X74843750Y-64862500D01*
X74760038Y-64845849D01*
X74689070Y-64798430D01*
X74641651Y-64727462D01*
X74625000Y-64643750D01*
X74625000Y-64206250D01*
X74641651Y-64122538D01*
X74689070Y-64051570D01*
X74760038Y-64004151D01*
X74843750Y-63987500D01*
X75356250Y-63987500D01*
X75439962Y-64004151D01*
X75439962Y-64004151D01*
G37*
D14*
X75100000Y-64425000D03*
D10*
G36*
X72439962Y-62091651D02*
G01*
X72510930Y-62139070D01*
X72558349Y-62210038D01*
X72575000Y-62293750D01*
X72575000Y-62806250D01*
X72558349Y-62889962D01*
X72510930Y-62960930D01*
X72439962Y-63008349D01*
X72356250Y-63025000D01*
X71918750Y-63025000D01*
X71835038Y-63008349D01*
X71764070Y-62960930D01*
X71716651Y-62889962D01*
X71700000Y-62806250D01*
X71700000Y-62293750D01*
X71716651Y-62210038D01*
X71764070Y-62139070D01*
X71835038Y-62091651D01*
X71918750Y-62075000D01*
X72356250Y-62075000D01*
X72439962Y-62091651D01*
X72439962Y-62091651D01*
G37*
D14*
X72137500Y-62550000D03*
D10*
G36*
X70864962Y-62091651D02*
G01*
X70935930Y-62139070D01*
X70983349Y-62210038D01*
X71000000Y-62293750D01*
X71000000Y-62806250D01*
X70983349Y-62889962D01*
X70935930Y-62960930D01*
X70864962Y-63008349D01*
X70781250Y-63025000D01*
X70343750Y-63025000D01*
X70260038Y-63008349D01*
X70189070Y-62960930D01*
X70141651Y-62889962D01*
X70125000Y-62806250D01*
X70125000Y-62293750D01*
X70141651Y-62210038D01*
X70189070Y-62139070D01*
X70260038Y-62091651D01*
X70343750Y-62075000D01*
X70781250Y-62075000D01*
X70864962Y-62091651D01*
X70864962Y-62091651D01*
G37*
D14*
X70562500Y-62550000D03*
D10*
G36*
X72839962Y-67404151D02*
G01*
X72910930Y-67451570D01*
X72958349Y-67522538D01*
X72975000Y-67606250D01*
X72975000Y-68118750D01*
X72958349Y-68202462D01*
X72910930Y-68273430D01*
X72839962Y-68320849D01*
X72756250Y-68337500D01*
X72318750Y-68337500D01*
X72235038Y-68320849D01*
X72164070Y-68273430D01*
X72116651Y-68202462D01*
X72100000Y-68118750D01*
X72100000Y-67606250D01*
X72116651Y-67522538D01*
X72164070Y-67451570D01*
X72235038Y-67404151D01*
X72318750Y-67387500D01*
X72756250Y-67387500D01*
X72839962Y-67404151D01*
X72839962Y-67404151D01*
G37*
D14*
X72537500Y-67862500D03*
D10*
G36*
X71264962Y-67404151D02*
G01*
X71335930Y-67451570D01*
X71383349Y-67522538D01*
X71400000Y-67606250D01*
X71400000Y-68118750D01*
X71383349Y-68202462D01*
X71335930Y-68273430D01*
X71264962Y-68320849D01*
X71181250Y-68337500D01*
X70743750Y-68337500D01*
X70660038Y-68320849D01*
X70589070Y-68273430D01*
X70541651Y-68202462D01*
X70525000Y-68118750D01*
X70525000Y-67606250D01*
X70541651Y-67522538D01*
X70589070Y-67451570D01*
X70660038Y-67404151D01*
X70743750Y-67387500D01*
X71181250Y-67387500D01*
X71264962Y-67404151D01*
X71264962Y-67404151D01*
G37*
D14*
X70962500Y-67862500D03*
M02*
