M48
INCH
T1C0.0118
T2C0.0295
T3C0.0362
T4C0.0394
T5C0.0512
T6C0.0906
%
G90
G05
T1
X1.8406Y-2.8051
X1.8406Y-2.8465
X1.8406Y-2.8839
X1.8406Y-2.9232
X1.8701Y-2.4134
X1.8976Y-2.4134
X1.9193Y-2.9921
X1.9193Y-3.0217
X1.9193Y-3.0512
X1.9252Y-2.4134
X1.9252Y-2.4409
X1.9252Y-2.4685
X1.9528Y-2.4134
X1.9528Y-2.7323
X1.9764Y-3.3583
X1.9803Y-2.4134
X1.9803Y-2.7323
X2.0079Y-2.7323
X2.0207Y-3.4016
X2.0276Y-2.7756
X2.0354Y-2.7323
X2.063Y-2.4606
X2.063Y-2.4921
X2.063Y-2.6496
X2.063Y-2.6772
X2.063Y-2.7047
X2.065Y-3.4469
X2.1358Y-2.7264
X2.1457Y-2.5492
X2.1457Y-2.5787
X2.1654Y-2.7264
X2.1752Y-2.5492
X2.1752Y-2.5787
X2.1949Y-2.7264
X2.2047Y-2.5492
X2.2047Y-2.5787
X2.2087Y-2.9331
X2.2244Y-2.7264
X2.2323Y-2.9567
X2.2343Y-2.5492
X2.2343Y-2.5787
X2.252Y-2.8189
X2.2539Y-2.7264
X2.2559Y-3.0157
X2.2598Y-2.7795
X2.2638Y-2.313
X2.2638Y-2.3425
X2.2638Y-2.372
X2.2638Y-2.4016
X2.2638Y-2.4311
X2.2638Y-2.4606
X2.2638Y-2.4902
X2.2638Y-2.5197
X2.2638Y-2.5492
X2.2638Y-2.5787
X2.2835Y-2.7264
X2.2835Y-2.7559
X2.2933Y-2.313
X2.2933Y-2.3425
X2.2933Y-2.372
X2.2933Y-2.4016
X2.2933Y-2.4311
X2.2933Y-2.4606
X2.2933Y-2.4902
X2.2933Y-2.5197
X2.2933Y-2.5492
X2.2933Y-2.5787
X2.311Y-3.122
X2.311Y-3.1496
X2.311Y-3.1772
X2.313Y-2.7264
X2.313Y-2.7559
X2.313Y-2.7854
X2.3228Y-2.313
X2.3228Y-2.3425
X2.3228Y-2.372
X2.3228Y-2.4016
X2.3228Y-2.4311
X2.3228Y-2.4606
X2.3228Y-2.4902
X2.3228Y-2.5197
X2.3228Y-2.5492
X2.3228Y-2.5787
X2.3346Y-2.9882
X2.3524Y-2.313
X2.3524Y-2.3425
X2.3524Y-2.372
X2.3524Y-2.4016
X2.3524Y-2.4311
X2.3524Y-2.4606
X2.3524Y-2.4902
X2.3524Y-2.5197
X2.3524Y-2.5492
X2.3524Y-2.5787
X2.3898Y-2.9882
X2.4606Y-2.8701
X2.4606Y-2.9685
X2.5433Y-3.2835
X2.6083Y-3.4055
X2.7205Y-3.4646
X2.7264Y-2.687
X2.8087Y-3.3232
X2.8169Y-2.5217
X2.8189Y-2.4016
X2.8677Y-3.3232
X2.9107Y-2.7094
X2.9268Y-3.3232
X2.9567Y-3.1063
X2.9858Y-3.3232
X2.9921Y-3.1496
X3.0039Y-3.1063
X3.0079Y-3.0433
X3.0197Y-3.1496
X3.0433Y-3.1063
X3.0449Y-3.3232
X3.0492Y-2.9823
X3.0512Y-2.6969
X3.0512Y-2.7264
X3.0512Y-2.7559
X3.0512Y-2.7854
X3.0512Y-2.8327
X3.0748Y-3.0748
X3.1496Y-2.1358
X3.1496Y-2.1654
X3.1496Y-2.1949
X3.1496Y-2.2244
X3.1906Y-2.4229
X3.1969Y-2.3425
X3.1969Y-2.748
X3.1969Y-2.7953
X3.1988Y-2.1358
X3.1988Y-2.1654
X3.1988Y-2.1949
X3.1988Y-2.2244
X3.2338Y-2.9587
X3.2677Y-3.6024
X3.2835Y-2.6969
X3.2874Y-2.2913
X3.2972Y-3.5728
X3.3012Y-2.7794
X3.3073Y-3.4939
X3.3073Y-3.5333
X3.3346Y-2.3661
X3.3346Y-3.063
X3.3366Y-3.2677
X3.3366Y-3.3071
X3.3366Y-3.3465
X3.3386Y-2.7795
X3.3661Y-2.3661
X3.3661Y-2.6969
X3.3705Y-3.0394
X3.3937Y-3.1496
X3.4173Y-3.1496
X3.4488Y-2.3661
X3.4488Y-2.4488
X3.4509Y-2.7717
X3.4547Y-3.4941
X3.4744Y-3.0079
X3.4961Y-2.9567
X3.5272Y-3.3941
X3.5315Y-2.3661
X3.5315Y-2.4488
X3.5315Y-2.5315
X3.5403Y-3.2786
X3.5669Y-3.0079
X3.5669Y-3.4449
X3.5748Y-3.2323
X3.5906Y-2.8819
X3.5906Y-3.2953
X3.6024Y-2.1299
X3.6142Y-2.3661
X3.6142Y-2.4488
X3.6142Y-2.5315
X3.6142Y-2.6142
X3.6142Y-2.7756
X3.6339Y-3.122
X3.6378Y-2.1299
X3.6417Y-3.2835
X3.6417Y-3.2835
X3.6417Y-3.311
X3.6417Y-3.4882
X3.6496Y-3.2047
X3.6575Y-2.9646
X3.6732Y-2.1299
X3.6969Y-2.3661
X3.6969Y-2.4488
X3.6969Y-2.5315
X3.6969Y-2.6142
X3.7028Y-3.5512
X3.7717Y-3.1496
X3.7756Y-2.2913
X3.7795Y-2.3661
X3.7795Y-2.4488
X3.7795Y-2.5315
X3.7795Y-2.6142
X3.7824Y-3.2488
X3.8031Y-2.9528
X3.8051Y-3.4783
X3.8071Y-3.2756
X3.8091Y-3.0925
X3.815Y-2.7756
X3.8575Y-2.6209
X3.8642Y-2.9213
X3.8701Y-2.2953
X3.9173Y-3.0787
X3.9705Y-3.4803
X3.9961Y-2.5945
X4.0083Y-2.4406
X4.0093Y-2.9116
X4.0196Y-2.9546
X4.0228Y-2.7862
X4.0236Y-3.0547
X4.04Y-2.7323
X4.0535Y-2.4406
X4.0591Y-3.2441
X4.0737Y-2.76
X4.0787Y-3.3091
X4.0787Y-2.9638
X4.0835Y-2.9951
X4.0841Y-3.4542
X4.1024Y-2.4409
X4.1024Y-3.2854
X4.1142Y-3.2047
X4.1295Y-2.976
X4.1329Y-2.4675
X4.1476Y-3.311
X4.1535Y-3.4843
X4.1554Y-2.7265
X4.1575Y-2.7677
X4.1594Y-2.498
X4.1594Y-2.8012
X4.1594Y-2.8799
X4.1634Y-2.9724
X4.1772Y-3.063
X4.1811Y-3.3189
X4.1831Y-2.9528
X4.189Y-2.5276
X4.1986Y-3.0094
X4.2037Y-2.9321
X4.2073Y-3.0504
X4.2234Y-2.9124
X4.2362Y-3.063
X4.2415Y-3.166
X4.2598Y-2.7343
X4.2618Y-3.0295
X4.2697Y-3.3268
X4.2795Y-3.1752
X4.2814Y-2.7859
X4.2815Y-2.5551
X4.2854Y-2.872
X4.2874Y-3.0512
X4.2933Y-2.748
X4.3051Y-2.8169
X4.3091Y-2.8976
X4.3209Y-3.4843
X4.3452Y-2.5937
X4.3819Y-2.6752
X4.4094Y-2.5896
X4.4351Y-2.8851
X4.437Y-2.9843
X4.4528Y-2.4941
X4.4545Y-2.7205
X4.4606Y-2.4094
X4.4606Y-3.0079
X4.4705Y-2.6378
X4.5098Y-2.7756
X4.5984Y-3.3937
X4.628Y-3.3937
X4.6841Y-3.3081
X4.6969Y-2.9213
X4.6969Y-3.0394
T2
X4.6299Y-3.2047
X4.6299Y-3.2835
X4.6299Y-2.6181
X4.6299Y-2.6969
X4.6299Y-2.7756
X4.6299Y-2.8543
X4.6299Y-2.9331
X4.6299Y-3.0118
X4.0551Y-2.2087
X4.1339Y-2.2087
X4.2126Y-2.2087
X4.2913Y-2.2087
T3
X2.7992Y-3.2165
X2.8976Y-3.2165
X2.9764Y-3.2165
X3.0748Y-3.2165
T4
X2.8236Y-2.1693
X2.9236Y-2.1693
X3.0236Y-2.1693
X1.997Y-2.4793
X1.997Y-2.5793
X1.997Y-2.6793
X2.7264Y-2.9134
X2.9232Y-2.9134
X1.8996Y-3.1437
X2.0965Y-3.1437
X2.8236Y-2.315
X2.9236Y-2.315
X3.0236Y-2.315
X1.8524Y-2.4793
X1.8524Y-2.5793
X1.8524Y-2.6793
T5
X2.2087Y-3.5079
X2.4055Y-3.5079
T6
X2.6783Y-3.3232
X3.1957Y-3.3232
T0
M30
