G04 #@! TF.GenerationSoftware,KiCad,Pcbnew,5.99.0-unknown-9339afc~100~ubuntu16.04.1*
G04 #@! TF.CreationDate,2019-10-14T14:32:33+02:00*
G04 #@! TF.ProjectId,f9p_board,6639705f-626f-4617-9264-2e6b69636164,rev?*
G04 #@! TF.SameCoordinates,Original*
G04 #@! TF.FileFunction,Copper,L2,Inr*
G04 #@! TF.FilePolarity,Positive*
%FSLAX46Y46*%
G04 Gerber Fmt 4.6, Leading zero omitted, Abs format (unit mm)*
G04 Created by KiCad (PCBNEW 5.99.0-unknown-9339afc~100~ubuntu16.04.1) date 2019-10-14 14:32:33*
%MOMM*%
%LPD*%
G04 APERTURE LIST*
%ADD10O,1.200000X1.750000*%
%ADD11C,0.100000*%
%ADD12C,1.200000*%
%ADD13O,1.700000X1.700000*%
%ADD14R,1.700000X1.700000*%
%ADD15C,2.000000*%
%ADD16R,2.000000X2.000000*%
%ADD17O,1.750000X1.200000*%
%ADD18C,1.600000*%
%ADD19R,1.600000X1.600000*%
%ADD20C,3.000000*%
%ADD21C,2.600000*%
%ADD22R,2.600000X2.600000*%
%ADD23C,0.600000*%
%ADD24C,0.600000*%
%ADD25C,0.200000*%
%ADD26C,0.250000*%
%ADD27C,0.254000*%
G04 APERTURE END LIST*
D10*
X103000000Y-56100000D03*
X105000000Y-56100000D03*
X107000000Y-56100000D03*
D11*
G36*
X109445671Y-55244030D02*
G01*
X109526777Y-55298223D01*
X109580970Y-55379329D01*
X109600000Y-55474999D01*
X109600000Y-56725001D01*
X109580970Y-56820671D01*
X109526777Y-56901777D01*
X109445671Y-56955970D01*
X109350001Y-56975000D01*
X108649999Y-56975000D01*
X108554329Y-56955970D01*
X108473223Y-56901777D01*
X108419030Y-56820671D01*
X108400000Y-56725001D01*
X108400000Y-55474999D01*
X108419030Y-55379329D01*
X108473223Y-55298223D01*
X108554329Y-55244030D01*
X108649999Y-55225000D01*
X109350001Y-55225000D01*
X109445671Y-55244030D01*
X109445671Y-55244030D01*
G37*
D12*
X109000000Y-56100000D03*
D13*
X71720000Y-58800000D03*
X74260000Y-58800000D03*
D14*
X76800000Y-58800000D03*
D13*
X71720000Y-55100000D03*
X74260000Y-55100000D03*
D14*
X76800000Y-55100000D03*
D13*
X50725000Y-68055000D03*
X50725000Y-65515000D03*
D14*
X50725000Y-62975000D03*
D13*
X47050000Y-68055000D03*
X47050000Y-65515000D03*
D14*
X47050000Y-62975000D03*
D15*
X74250000Y-74000000D03*
D16*
X69250000Y-74000000D03*
D15*
X48250000Y-79850000D03*
D16*
X53250000Y-79850000D03*
D17*
X117600000Y-83400000D03*
D11*
G36*
X118320671Y-80819030D02*
G01*
X118401777Y-80873223D01*
X118455970Y-80954329D01*
X118475000Y-81049999D01*
X118475000Y-81750001D01*
X118455970Y-81845671D01*
X118401777Y-81926777D01*
X118320671Y-81980970D01*
X118225001Y-82000000D01*
X116974999Y-82000000D01*
X116879329Y-81980970D01*
X116798223Y-81926777D01*
X116744030Y-81845671D01*
X116725000Y-81750001D01*
X116725000Y-81049999D01*
X116744030Y-80954329D01*
X116798223Y-80873223D01*
X116879329Y-80819030D01*
X116974999Y-80800000D01*
X118225001Y-80800000D01*
X118320671Y-80819030D01*
X118320671Y-80819030D01*
G37*
D12*
X117600000Y-81400000D03*
D18*
X78100000Y-81700000D03*
X75600000Y-81700000D03*
X73600000Y-81700000D03*
D19*
X71100000Y-81700000D03*
D20*
X68030000Y-84410000D03*
X81170000Y-84410000D03*
D21*
X61100000Y-89100000D03*
D22*
X56100000Y-89100000D03*
D17*
X117600000Y-76500000D03*
X117600000Y-74500000D03*
X117600000Y-72500000D03*
X117600000Y-70500000D03*
X117600000Y-68500000D03*
D11*
G36*
X118320671Y-65919030D02*
G01*
X118401777Y-65973223D01*
X118455970Y-66054329D01*
X118475000Y-66149999D01*
X118475000Y-66850001D01*
X118455970Y-66945671D01*
X118401777Y-67026777D01*
X118320671Y-67080970D01*
X118225001Y-67100000D01*
X116974999Y-67100000D01*
X116879329Y-67080970D01*
X116798223Y-67026777D01*
X116744030Y-66945671D01*
X116725000Y-66850001D01*
X116725000Y-66149999D01*
X116744030Y-66054329D01*
X116798223Y-65973223D01*
X116879329Y-65919030D01*
X116974999Y-65900000D01*
X118225001Y-65900000D01*
X118320671Y-65919030D01*
X118320671Y-65919030D01*
G37*
D12*
X117600000Y-66500000D03*
D23*
X88250000Y-76400000D03*
X85500000Y-68500000D03*
X83400000Y-68500000D03*
X91800000Y-66400000D03*
X93900000Y-66400000D03*
X96000000Y-66400000D03*
X89700000Y-64300000D03*
X91800000Y-64300000D03*
X93900000Y-64300000D03*
X96000000Y-64300000D03*
X87600000Y-62200000D03*
X89700000Y-62200000D03*
X91800000Y-62200000D03*
X93900000Y-62200000D03*
X96000000Y-62200000D03*
X96000000Y-60100000D03*
X93900000Y-60100000D03*
X91800000Y-60100000D03*
X89700000Y-60100000D03*
X87600000Y-60100000D03*
X85500000Y-60100000D03*
X77300000Y-78900000D03*
X76300000Y-78900000D03*
X75100000Y-78900000D03*
X78100000Y-78100000D03*
X77500011Y-71949990D03*
X77450000Y-75750000D03*
X108750000Y-64900000D03*
X112000023Y-65775000D03*
X110366817Y-65880371D03*
X71600000Y-61000000D03*
X71550000Y-64050000D03*
X81041445Y-61542158D03*
X109350000Y-71550000D03*
X108850000Y-72950000D03*
X66250000Y-86500000D03*
X56700000Y-76000000D03*
X64600000Y-83400000D03*
X62500012Y-72906348D03*
X50300000Y-61300000D03*
X47500000Y-61300000D03*
X49600000Y-61300000D03*
X48200000Y-61300000D03*
X48900000Y-61300000D03*
X49600000Y-69400000D03*
X50300000Y-69400000D03*
X51000000Y-69400000D03*
X51700000Y-69400000D03*
X52400000Y-69400000D03*
X52400000Y-68700000D03*
X52400000Y-68000000D03*
X52400000Y-62500000D03*
X52400000Y-63300000D03*
X52400000Y-67300000D03*
X48900000Y-62700000D03*
X48900000Y-62000000D03*
X46750000Y-72300013D03*
X62575000Y-75075000D03*
X59750000Y-64000000D03*
X59750000Y-64750000D03*
X59750000Y-65500000D03*
X57500000Y-61000000D03*
X57500000Y-60250000D03*
X59000000Y-59500000D03*
X58250000Y-59500000D03*
X59750000Y-61000000D03*
X58250000Y-60250000D03*
X59750000Y-59500000D03*
X58250000Y-61000000D03*
X59000000Y-61000000D03*
X59750000Y-60250000D03*
X57500000Y-59500000D03*
X59000000Y-60250000D03*
X57500000Y-61750000D03*
X58250000Y-62500000D03*
X59750000Y-61750000D03*
X58250000Y-61750000D03*
X59000000Y-61750000D03*
X59750000Y-62500000D03*
X57500000Y-63250000D03*
X59000000Y-63250000D03*
X59750000Y-63250000D03*
X57500000Y-62500000D03*
X59000000Y-62500000D03*
X58250000Y-63250000D03*
X57500000Y-64000000D03*
X59000000Y-58750000D03*
X59000000Y-64000000D03*
X57500000Y-58750000D03*
X58250000Y-58750000D03*
X59750000Y-58750000D03*
X58250000Y-64000000D03*
X54500000Y-64750000D03*
X55250000Y-64750000D03*
X56750000Y-64750000D03*
X56000000Y-64750000D03*
X58250000Y-64750000D03*
X59000000Y-64750000D03*
X57500000Y-64750000D03*
X59000000Y-65500000D03*
X58250000Y-65500000D03*
X57500000Y-65500000D03*
X56750000Y-65500000D03*
X56000000Y-65500000D03*
X55250000Y-65500000D03*
X54500000Y-65500000D03*
X58000000Y-70750000D03*
X58750000Y-70750000D03*
X58000000Y-70000000D03*
X58750000Y-70000000D03*
X54250000Y-69250000D03*
X55000000Y-69250000D03*
X55750000Y-69250000D03*
X56500000Y-69250000D03*
X57250000Y-69250000D03*
X58000000Y-69250000D03*
X58750000Y-69250000D03*
X46750000Y-74250000D03*
X46750000Y-73250000D03*
X46750000Y-71250000D03*
X92500000Y-88600000D03*
X105500000Y-88500000D03*
X81200000Y-69800000D03*
X81200000Y-71000000D03*
X81200000Y-59500000D03*
X90600000Y-87500000D03*
X91200000Y-83700000D03*
X89924272Y-83275728D03*
X92500000Y-83400000D03*
X92500000Y-83400000D03*
X92500000Y-84100000D03*
X103735436Y-87735498D03*
X84800000Y-70600002D03*
X83850002Y-70597495D03*
X95800000Y-80000000D03*
X92700000Y-81400000D03*
X99500000Y-78200000D03*
X96600000Y-75000000D03*
X76399989Y-77300011D03*
X85610234Y-77199990D03*
X76000000Y-80000000D03*
X76700000Y-80000000D03*
X86200000Y-80000000D03*
X86800000Y-80000000D03*
X84700000Y-77800000D03*
X83500000Y-58200000D03*
X84700000Y-60100000D03*
X95900000Y-58200000D03*
X98300000Y-58300000D03*
X91200000Y-73200000D03*
X91800000Y-70500000D03*
X69100000Y-88000000D03*
X89589999Y-86210001D03*
X88800000Y-75100000D03*
X92300000Y-79300000D03*
X90600000Y-76400000D03*
X103600015Y-75279802D03*
X106644466Y-76439432D03*
X103721890Y-76076529D03*
X104888517Y-75591173D03*
X90800000Y-82100000D03*
X96700000Y-83200000D03*
X96072247Y-82518751D03*
X103100000Y-82400000D03*
X92900000Y-75300000D03*
X58222500Y-72077500D03*
X102098267Y-75047186D03*
X101836852Y-73954027D03*
X106100000Y-77800000D03*
X107600000Y-77800000D03*
X106866410Y-77480838D03*
X101500000Y-65900000D03*
X106400000Y-64200000D03*
X108200000Y-69450000D03*
X108747258Y-70761033D03*
X105600000Y-70300000D03*
X105547360Y-69254096D03*
X102614844Y-69400000D03*
X113300000Y-61200000D03*
X104200000Y-83450000D03*
X103600000Y-84050000D03*
X105350000Y-84100000D03*
X106200000Y-84300000D03*
X108900010Y-77500000D03*
X108250000Y-76950000D03*
X112652573Y-73280625D03*
X113145304Y-69100010D03*
X103472140Y-70103470D03*
X113100000Y-63350000D03*
X111300000Y-67950000D03*
X114550000Y-70500000D03*
X113550000Y-67000000D03*
X109050000Y-69800000D03*
X102180271Y-70769729D03*
X77500000Y-70750000D03*
X77500000Y-70000000D03*
X77500000Y-69250000D03*
X77500000Y-68500000D03*
X80000000Y-56500000D03*
X81250000Y-56500000D03*
X80000000Y-55750000D03*
X80000000Y-55000000D03*
X80000000Y-54250000D03*
X81250000Y-54250000D03*
X81250000Y-55750000D03*
X81250000Y-55000000D03*
X71340000Y-84410000D03*
X72840000Y-84410000D03*
X74340000Y-84410000D03*
X75840000Y-84410000D03*
X77340000Y-84410000D03*
X94050000Y-90200000D03*
X96650000Y-88350000D03*
X87750000Y-88750000D03*
X100850000Y-88400000D03*
X109750000Y-88500000D03*
X116800000Y-86200000D03*
X117550000Y-86200000D03*
X118975010Y-84024990D03*
X119300000Y-77200000D03*
X119300000Y-74200000D03*
X52450000Y-87550000D03*
X51325000Y-86400000D03*
X50200000Y-85300000D03*
X48750000Y-77500000D03*
X48750000Y-76750000D03*
X48750000Y-76000000D03*
X51500000Y-70500000D03*
X52250000Y-70500000D03*
X84750000Y-85000000D03*
X84750000Y-84000000D03*
X84750000Y-83000000D03*
X83000000Y-91500000D03*
X83750000Y-90750000D03*
X84005000Y-89745000D03*
X84005000Y-88745000D03*
X73931250Y-68818750D03*
X91500000Y-54100000D03*
X92400000Y-54100000D03*
X93300000Y-54100000D03*
X105650000Y-63450000D03*
X104975000Y-62675000D03*
X104200000Y-62000000D03*
X102960000Y-61990000D03*
X101810000Y-61990000D03*
X105750000Y-75500000D03*
X106250000Y-75000000D03*
X106775000Y-74475000D03*
X107275000Y-73975000D03*
X96900000Y-70499972D03*
X97980264Y-66569736D03*
X87652785Y-70400000D03*
X82139576Y-75150000D03*
X98150000Y-74200000D03*
X109450000Y-73600000D03*
X69250000Y-68250000D03*
X102200021Y-77588770D03*
X96750000Y-78550000D03*
X105650000Y-71150000D03*
X105650000Y-73150000D03*
X104500000Y-81400000D03*
X112700000Y-75800000D03*
X108700000Y-80650000D03*
X107734608Y-80417030D03*
X113300000Y-76400000D03*
X108450000Y-84500000D03*
D24*
X103000000Y-58000000D02*
X103000000Y-56100000D01*
X76000000Y-80000000D02*
X76700000Y-80000000D01*
X86800000Y-80000000D02*
X86200000Y-80000000D01*
D25*
X58550000Y-73250000D02*
X59850010Y-71949990D01*
X46750000Y-73250000D02*
X58550000Y-73250000D01*
X77075747Y-71949990D02*
X77500011Y-71949990D01*
X59850010Y-71949990D02*
X77075747Y-71949990D01*
X65750000Y-75750000D02*
X77025736Y-75750000D01*
X64250000Y-74250000D02*
X65750000Y-75750000D01*
X46750000Y-74250000D02*
X64250000Y-74250000D01*
X77025736Y-75750000D02*
X77450000Y-75750000D01*
X111300000Y-67950000D02*
X108750000Y-65400000D01*
X108750000Y-65400000D02*
X108750000Y-64900000D01*
X90702976Y-71203690D02*
X81341444Y-61842157D01*
X81341444Y-61842157D02*
X81041445Y-61542158D01*
X101063440Y-71203690D02*
X90702976Y-71203690D01*
X104288515Y-74428765D02*
X101063440Y-71203690D01*
X104288515Y-75879175D02*
X104288515Y-74428765D01*
X106644466Y-76439432D02*
X104848772Y-76439432D01*
X104848772Y-76439432D02*
X104288515Y-75879175D01*
X48799999Y-63674999D02*
X48799999Y-69200001D01*
X48799999Y-69200001D02*
X47049999Y-70950001D01*
X48100000Y-62975000D02*
X48799999Y-63674999D01*
X47049999Y-70950001D02*
X46750000Y-71250000D01*
X47050000Y-62975000D02*
X48100000Y-62975000D01*
X56700000Y-79500000D02*
X56700000Y-76000000D01*
X117600000Y-84200000D02*
X115589999Y-86210001D01*
X117600000Y-83400000D02*
X117600000Y-84200000D01*
X65200000Y-88000000D02*
X56700000Y-79500000D01*
X115589999Y-86210001D02*
X89589999Y-86210001D01*
D24*
X71100000Y-80300000D02*
X71400000Y-80000000D01*
X71100000Y-81700000D02*
X71100000Y-80300000D01*
X71400000Y-80000000D02*
X76000000Y-80000000D01*
X92500000Y-83400000D02*
X92500000Y-84100000D01*
D25*
X64600000Y-83400000D02*
X70699989Y-77300011D01*
X70699989Y-77300011D02*
X76399989Y-77300011D01*
X85610234Y-71410236D02*
X84800000Y-70600002D01*
X85610234Y-77199990D02*
X85610234Y-71410236D01*
X84700000Y-71447493D02*
X83850002Y-70597495D01*
X84700000Y-77800000D02*
X84700000Y-71447493D01*
X69100000Y-88000000D02*
X65200000Y-88000000D01*
D24*
X92500000Y-82615998D02*
X92500000Y-82975736D01*
X92500000Y-82975736D02*
X92500000Y-83400000D01*
X89884002Y-80000000D02*
X92500000Y-82615998D01*
X86800000Y-80000000D02*
X89884002Y-80000000D01*
D25*
X106866410Y-77480838D02*
X108147248Y-76200000D01*
X108147248Y-69502752D02*
X108200000Y-69450000D01*
X108147248Y-76200000D02*
X108147248Y-69502752D01*
D24*
X93300003Y-84200003D02*
X103449997Y-84200003D01*
X103900001Y-83749999D02*
X104200000Y-83450000D01*
X92500000Y-83400000D02*
X93300003Y-84200003D01*
X103449997Y-84200003D02*
X103900001Y-83749999D01*
X104200000Y-83450000D02*
X103600000Y-84050000D01*
X103600000Y-84050000D02*
X104236811Y-83413189D01*
X104236811Y-83413189D02*
X105350000Y-82300000D01*
X105350000Y-82300000D02*
X112000000Y-82300000D01*
X112000000Y-82300000D02*
X115400000Y-78900000D01*
X115400000Y-78900000D02*
X115400000Y-72600000D01*
X115400000Y-72600000D02*
X115400000Y-68850000D01*
X115400000Y-68850000D02*
X113550000Y-67000000D01*
X113550000Y-67000000D02*
X113550000Y-65900000D01*
X113550000Y-65900000D02*
X107650000Y-60000000D01*
X103000000Y-59475000D02*
X103000000Y-58000000D01*
X103525000Y-60000000D02*
X103000000Y-59475000D01*
X107650000Y-60000000D02*
X103525000Y-60000000D01*
D25*
X111300000Y-68700000D02*
X111300000Y-67950000D01*
X109050000Y-69800000D02*
X110200000Y-69800000D01*
X110200000Y-69800000D02*
X111300000Y-68700000D01*
X112052572Y-72992624D02*
X114545196Y-70500000D01*
X108250000Y-76950000D02*
X108250000Y-76795196D01*
X108250000Y-76795196D02*
X112052572Y-72992624D01*
X104888517Y-74326519D02*
X104888517Y-75166909D01*
X104888517Y-75166909D02*
X104888517Y-75591173D01*
X81200000Y-59500000D02*
X90061998Y-59500000D01*
D26*
X102614844Y-69400000D02*
X102614844Y-70335156D01*
X102614844Y-70335156D02*
X102180271Y-70769729D01*
D25*
X90061998Y-59500000D02*
X104888517Y-74326519D01*
X108700000Y-80520887D02*
X108700000Y-80650000D01*
X112700000Y-75800000D02*
X112700000Y-76520887D01*
X112700000Y-76520887D02*
X108700000Y-80520887D01*
X107300000Y-63450000D02*
X105650000Y-63450000D01*
X108750000Y-64900000D02*
X107300000Y-63450000D01*
D27*
G36*
X71225292Y-53695200D02*
G01*
X70995671Y-53798637D01*
X70786760Y-53939284D01*
X70604534Y-54113119D01*
X70454203Y-54315172D01*
X70340064Y-54539666D01*
X70265382Y-54780181D01*
X70239957Y-54972000D01*
X71592000Y-54972000D01*
X71592000Y-53626000D01*
X74172706Y-53626000D01*
X74002717Y-53640872D01*
X73753250Y-53707716D01*
X73519181Y-53816864D01*
X73307622Y-53965000D01*
X73125000Y-54147622D01*
X72992658Y-54336625D01*
X72923390Y-54222474D01*
X72758331Y-54032261D01*
X72563584Y-53872578D01*
X72344716Y-53747991D01*
X72105169Y-53661040D01*
X71848000Y-53626953D01*
X71848000Y-56599978D01*
X72214708Y-56504800D01*
X72444329Y-56401363D01*
X72653240Y-56260716D01*
X72835466Y-56086881D01*
X72985797Y-55884828D01*
X72995002Y-55866723D01*
X73125000Y-56052378D01*
X73307622Y-56235000D01*
X73519181Y-56383136D01*
X73753250Y-56492284D01*
X74002717Y-56559128D01*
X74195566Y-56576000D01*
X74324434Y-56576000D01*
X74517283Y-56559128D01*
X74766750Y-56492284D01*
X75000819Y-56383136D01*
X75212378Y-56235000D01*
X75351051Y-56096327D01*
X75395831Y-56263450D01*
X75541407Y-56436942D01*
X75732593Y-56547322D01*
X75938976Y-56583713D01*
X77666588Y-56583713D01*
X77963450Y-56504169D01*
X78136942Y-56358593D01*
X78247322Y-56167407D01*
X78283713Y-55961024D01*
X78283713Y-54233412D01*
X78204169Y-53936551D01*
X78058593Y-53763058D01*
X77867407Y-53652678D01*
X77716109Y-53626000D01*
X119374000Y-53626000D01*
X119374001Y-93374000D01*
X45626000Y-93374000D01*
X45626000Y-90128437D01*
X46772500Y-90128437D01*
X46810540Y-90429555D01*
X46889095Y-90722724D01*
X47006710Y-91002521D01*
X47161210Y-91263765D01*
X47349735Y-91501625D01*
X47568798Y-91711698D01*
X47814343Y-91890098D01*
X48081830Y-92033522D01*
X48366305Y-92139318D01*
X48662507Y-92205527D01*
X48964954Y-92230924D01*
X49268049Y-92215040D01*
X49566185Y-92158168D01*
X49853843Y-92061359D01*
X50125702Y-91926407D01*
X50125969Y-91926225D01*
X90768459Y-91926225D01*
X90789790Y-92143776D01*
X90854431Y-92352595D01*
X90959739Y-92544149D01*
X91101414Y-92710618D01*
X91273669Y-92845198D01*
X91469467Y-92942392D01*
X91680809Y-92998232D01*
X91899062Y-93010434D01*
X92115312Y-92978501D01*
X92320723Y-92903737D01*
X92506906Y-92789197D01*
X92666254Y-92639559D01*
X92792259Y-92460936D01*
X92879773Y-92260624D01*
X92925268Y-92046589D01*
X92925688Y-91926225D01*
X93768459Y-91926225D01*
X93789790Y-92143776D01*
X93854431Y-92352595D01*
X93959739Y-92544149D01*
X94101414Y-92710618D01*
X94273669Y-92845198D01*
X94469467Y-92942392D01*
X94680809Y-92998232D01*
X94899062Y-93010434D01*
X95115312Y-92978501D01*
X95320723Y-92903737D01*
X95506906Y-92789197D01*
X95666254Y-92639559D01*
X95792259Y-92460936D01*
X95879773Y-92260624D01*
X95925268Y-92046589D01*
X95925339Y-92026225D01*
X103768459Y-92026225D01*
X103789790Y-92243776D01*
X103854431Y-92452595D01*
X103959739Y-92644149D01*
X104101414Y-92810618D01*
X104273669Y-92945198D01*
X104469467Y-93042392D01*
X104680809Y-93098232D01*
X104899062Y-93110434D01*
X105115312Y-93078501D01*
X105320723Y-93003737D01*
X105506906Y-92889197D01*
X105666254Y-92739559D01*
X105792259Y-92560936D01*
X105879773Y-92360624D01*
X105925268Y-92146589D01*
X105925688Y-92026225D01*
X106768459Y-92026225D01*
X106789790Y-92243776D01*
X106854431Y-92452595D01*
X106959739Y-92644149D01*
X107101414Y-92810618D01*
X107273669Y-92945198D01*
X107469467Y-93042392D01*
X107680809Y-93098232D01*
X107899062Y-93110434D01*
X108115312Y-93078501D01*
X108320723Y-93003737D01*
X108506906Y-92889197D01*
X108666254Y-92739559D01*
X108792259Y-92560936D01*
X108879773Y-92360624D01*
X108925268Y-92146589D01*
X108926056Y-91920920D01*
X108882056Y-91706573D01*
X108795942Y-91505656D01*
X108671187Y-91326157D01*
X108512888Y-91175410D01*
X108327509Y-91059573D01*
X108122625Y-90983376D01*
X107906604Y-90949935D01*
X107688271Y-90960614D01*
X107476544Y-91014975D01*
X107280072Y-91110801D01*
X107106882Y-91244176D01*
X106964049Y-91409649D01*
X106857405Y-91600466D01*
X106791309Y-91808828D01*
X106768459Y-92026225D01*
X105925688Y-92026225D01*
X105926056Y-91920920D01*
X105882056Y-91706573D01*
X105795942Y-91505656D01*
X105671187Y-91326157D01*
X105512888Y-91175410D01*
X105327509Y-91059573D01*
X105122625Y-90983376D01*
X104906604Y-90949935D01*
X104688271Y-90960614D01*
X104476544Y-91014975D01*
X104280072Y-91110801D01*
X104106882Y-91244176D01*
X103964049Y-91409649D01*
X103857405Y-91600466D01*
X103791309Y-91808828D01*
X103768459Y-92026225D01*
X95925339Y-92026225D01*
X95926056Y-91820920D01*
X95882056Y-91606573D01*
X95795942Y-91405656D01*
X95671187Y-91226157D01*
X95512888Y-91075410D01*
X95327509Y-90959573D01*
X95122625Y-90883376D01*
X94906604Y-90849935D01*
X94688271Y-90860614D01*
X94476544Y-90914975D01*
X94280072Y-91010801D01*
X94106882Y-91144176D01*
X93964049Y-91309649D01*
X93857405Y-91500466D01*
X93791309Y-91708828D01*
X93768459Y-91926225D01*
X92925688Y-91926225D01*
X92926056Y-91820920D01*
X92882056Y-91606573D01*
X92795942Y-91405656D01*
X92671187Y-91226157D01*
X92512888Y-91075410D01*
X92327509Y-90959573D01*
X92122625Y-90883376D01*
X91906604Y-90849935D01*
X91688271Y-90860614D01*
X91476544Y-90914975D01*
X91280072Y-91010801D01*
X91106882Y-91144176D01*
X90964049Y-91309649D01*
X90857405Y-91500466D01*
X90791309Y-91708828D01*
X90768459Y-91926225D01*
X50125969Y-91926225D01*
X50376730Y-91755809D01*
X50602283Y-91552721D01*
X50798187Y-91320900D01*
X50960816Y-91064637D01*
X51087162Y-90788673D01*
X51174887Y-90498116D01*
X51222470Y-90197686D01*
X51226123Y-89848901D01*
X51184841Y-89547541D01*
X51103222Y-89255211D01*
X51091447Y-89228000D01*
X54158163Y-89228000D01*
X54158163Y-90416588D01*
X54238795Y-90717512D01*
X54386185Y-90893165D01*
X54579814Y-91004956D01*
X54788976Y-91041837D01*
X55972000Y-91041837D01*
X55972000Y-89228000D01*
X56228000Y-89228000D01*
X56228000Y-91041837D01*
X57416588Y-91041837D01*
X57717512Y-90961205D01*
X57893165Y-90813815D01*
X58004956Y-90620186D01*
X58041837Y-90411024D01*
X58041837Y-89228000D01*
X56228000Y-89228000D01*
X55972000Y-89228000D01*
X54158163Y-89228000D01*
X51091447Y-89228000D01*
X51075428Y-89190981D01*
X59170750Y-89190981D01*
X59205389Y-89475143D01*
X59281649Y-89751064D01*
X59397856Y-90012682D01*
X59551455Y-90254249D01*
X59739073Y-90470461D01*
X59956589Y-90656565D01*
X60199223Y-90808475D01*
X60461646Y-90922852D01*
X60738093Y-90997184D01*
X61022490Y-91029839D01*
X61308589Y-91020097D01*
X61590107Y-90968176D01*
X61860858Y-90875212D01*
X62114893Y-90743252D01*
X62346633Y-90575192D01*
X62550987Y-90374724D01*
X62723465Y-90146253D01*
X62733158Y-90128437D01*
X113772500Y-90128437D01*
X113810540Y-90429555D01*
X113889095Y-90722724D01*
X114006710Y-91002521D01*
X114161210Y-91263765D01*
X114349735Y-91501625D01*
X114568798Y-91711698D01*
X114814343Y-91890098D01*
X115081830Y-92033522D01*
X115366305Y-92139318D01*
X115662507Y-92205527D01*
X115964954Y-92230924D01*
X116268049Y-92215040D01*
X116566185Y-92158168D01*
X116853843Y-92061359D01*
X117125702Y-91926407D01*
X117376730Y-91755809D01*
X117602283Y-91552721D01*
X117798187Y-91320900D01*
X117960816Y-91064637D01*
X118087162Y-90788673D01*
X118174887Y-90498116D01*
X118222470Y-90197686D01*
X118226123Y-89848901D01*
X118184841Y-89547541D01*
X118103222Y-89255211D01*
X117982683Y-88976661D01*
X117825455Y-88717048D01*
X117634450Y-88481176D01*
X117413199Y-88273408D01*
X117165799Y-88097590D01*
X116896826Y-87956974D01*
X116611258Y-87854163D01*
X116314379Y-87791059D01*
X116011682Y-87768831D01*
X115708771Y-87787889D01*
X115411247Y-87847880D01*
X115124618Y-87947694D01*
X114854187Y-88085486D01*
X114604958Y-88258705D01*
X114381545Y-88464144D01*
X114188080Y-88698003D01*
X114028143Y-88955955D01*
X113904693Y-89233226D01*
X113820016Y-89524687D01*
X113775679Y-89824942D01*
X113772500Y-90128437D01*
X62733158Y-90128437D01*
X62860279Y-89894797D01*
X62958423Y-89625881D01*
X63016072Y-89343786D01*
X63026452Y-88960191D01*
X62984142Y-88675390D01*
X62900685Y-88401561D01*
X62777670Y-88143074D01*
X62617800Y-87905610D01*
X62424585Y-87694384D01*
X62202273Y-87514037D01*
X61955745Y-87368531D01*
X61690418Y-87261063D01*
X61412120Y-87193992D01*
X61126966Y-87168794D01*
X60841220Y-87186021D01*
X60561158Y-87245294D01*
X60292934Y-87345312D01*
X60042440Y-87483878D01*
X59815178Y-87657947D01*
X59616141Y-87863696D01*
X59449703Y-88096604D01*
X59319519Y-88351554D01*
X59228448Y-88622947D01*
X59178493Y-88904821D01*
X59170750Y-89190981D01*
X51075428Y-89190981D01*
X50982683Y-88976661D01*
X50825455Y-88717048D01*
X50634450Y-88481176D01*
X50413199Y-88273408D01*
X50165799Y-88097590D01*
X49896826Y-87956974D01*
X49611258Y-87854163D01*
X49314379Y-87791059D01*
X49286014Y-87788976D01*
X54158163Y-87788976D01*
X54158163Y-88972000D01*
X55972000Y-88972000D01*
X55972000Y-87158163D01*
X56228000Y-87158163D01*
X56228000Y-88972000D01*
X58041837Y-88972000D01*
X58041837Y-87783412D01*
X57961205Y-87482489D01*
X57813815Y-87306835D01*
X57620186Y-87195044D01*
X57411024Y-87158163D01*
X56228000Y-87158163D01*
X55972000Y-87158163D01*
X54783412Y-87158163D01*
X54482489Y-87238795D01*
X54306835Y-87386185D01*
X54195044Y-87579814D01*
X54158163Y-87788976D01*
X49286014Y-87788976D01*
X49011682Y-87768831D01*
X48708771Y-87787889D01*
X48411247Y-87847880D01*
X48124618Y-87947694D01*
X47854187Y-88085486D01*
X47604958Y-88258705D01*
X47381545Y-88464144D01*
X47188080Y-88698003D01*
X47028143Y-88955955D01*
X46904693Y-89233226D01*
X46820016Y-89524687D01*
X46775679Y-89824942D01*
X46772500Y-90128437D01*
X45626000Y-90128437D01*
X45626000Y-81109459D01*
X47171560Y-81109459D01*
X47526235Y-81320887D01*
X47770711Y-81417682D01*
X48027520Y-81474145D01*
X48290052Y-81488822D01*
X48551554Y-81461338D01*
X48805297Y-81392397D01*
X49044754Y-81283775D01*
X49319930Y-81100949D01*
X48250000Y-80031019D01*
X47171560Y-81109459D01*
X45626000Y-81109459D01*
X45626000Y-79832834D01*
X46610778Y-79832834D01*
X46629120Y-80095135D01*
X46689163Y-80351130D01*
X46789362Y-80594232D01*
X46993282Y-80925699D01*
X48068981Y-79850000D01*
X48431019Y-79850000D01*
X49493509Y-80912489D01*
X49618577Y-80752410D01*
X49745250Y-80521992D01*
X49833454Y-80274286D01*
X49881040Y-80015010D01*
X49884138Y-79719185D01*
X49841992Y-79458970D01*
X49758994Y-79209470D01*
X49637175Y-78976450D01*
X49534334Y-78838976D01*
X51616287Y-78838976D01*
X51616287Y-80866588D01*
X51695831Y-81163450D01*
X51841407Y-81336942D01*
X52032593Y-81447322D01*
X52238976Y-81483713D01*
X54266588Y-81483713D01*
X54563450Y-81404169D01*
X54736942Y-81258593D01*
X54847322Y-81067407D01*
X54883713Y-80861024D01*
X54883713Y-78833412D01*
X54804169Y-78536551D01*
X54658593Y-78363058D01*
X54467407Y-78252678D01*
X54261024Y-78216287D01*
X52233412Y-78216287D01*
X51936551Y-78295831D01*
X51763058Y-78441407D01*
X51652678Y-78632593D01*
X51616287Y-78838976D01*
X49534334Y-78838976D01*
X49494838Y-78786181D01*
X48431019Y-79850000D01*
X48068981Y-79850000D01*
X46996927Y-78777946D01*
X46805269Y-79075342D01*
X46700000Y-79316292D01*
X46634608Y-79570973D01*
X46610778Y-79832834D01*
X45626000Y-79832834D01*
X45626000Y-78607089D01*
X47188108Y-78607089D01*
X48250000Y-79668981D01*
X49317194Y-78601786D01*
X49074606Y-78433183D01*
X48837477Y-78319571D01*
X48585233Y-78245331D01*
X48324364Y-78212375D01*
X48061582Y-78221552D01*
X47803648Y-78272625D01*
X47557197Y-78364278D01*
X47328570Y-78494157D01*
X47188108Y-78607089D01*
X45626000Y-78607089D01*
X45626000Y-75990212D01*
X55765353Y-75990212D01*
X55797152Y-76241918D01*
X55895467Y-76475800D01*
X55974001Y-76574886D01*
X55974000Y-79557648D01*
X55974001Y-79557654D01*
X55974001Y-79614986D01*
X55991874Y-79669995D01*
X56000926Y-79727141D01*
X56027190Y-79778686D01*
X56045067Y-79833706D01*
X56079068Y-79880505D01*
X56105332Y-79932050D01*
X56268296Y-80095015D01*
X56268300Y-80095017D01*
X64619444Y-88446162D01*
X64767949Y-88594668D01*
X64819494Y-88620932D01*
X64866293Y-88654933D01*
X64921312Y-88672810D01*
X64972857Y-88699074D01*
X65030003Y-88708126D01*
X65085012Y-88725999D01*
X65142345Y-88725999D01*
X65142351Y-88726000D01*
X68523763Y-88726000D01*
X68658308Y-88823752D01*
X68896102Y-88912187D01*
X69148918Y-88933416D01*
X69398130Y-88885877D01*
X69625378Y-88773070D01*
X69813918Y-88603308D01*
X69949861Y-88389096D01*
X70023384Y-88145575D01*
X70026231Y-87873795D01*
X69957823Y-87628787D01*
X69826397Y-87411776D01*
X69641453Y-87238102D01*
X69416617Y-87120561D01*
X69168455Y-87067813D01*
X68915251Y-87083742D01*
X68675656Y-87167179D01*
X68521959Y-87274000D01*
X66773505Y-87274000D01*
X66775378Y-87273070D01*
X66963918Y-87103308D01*
X67099861Y-86889096D01*
X67173384Y-86645575D01*
X67176231Y-86373795D01*
X67173982Y-86365739D01*
X67368948Y-86444511D01*
X67658530Y-86516711D01*
X67955343Y-86547908D01*
X68253609Y-86537492D01*
X68547522Y-86485667D01*
X68831363Y-86393441D01*
X69099606Y-86262611D01*
X69459106Y-86020125D01*
X69448674Y-86009693D01*
X79751326Y-86009693D01*
X79973768Y-86183486D01*
X80232231Y-86332710D01*
X80508948Y-86444511D01*
X80798530Y-86516711D01*
X81095343Y-86547908D01*
X81393609Y-86537492D01*
X81687522Y-86485667D01*
X81971363Y-86393441D01*
X82239606Y-86262611D01*
X82332114Y-86200213D01*
X88655352Y-86200213D01*
X88687151Y-86451919D01*
X88785466Y-86685801D01*
X88943055Y-86884629D01*
X89148307Y-87033753D01*
X89386101Y-87122188D01*
X89638917Y-87143417D01*
X89754926Y-87121287D01*
X89702416Y-87239228D01*
X89665353Y-87490212D01*
X89693886Y-87716062D01*
X89609190Y-87737808D01*
X89403589Y-87838086D01*
X89222350Y-87977659D01*
X89072880Y-88150824D01*
X88961281Y-88350506D01*
X88892113Y-88568550D01*
X88868201Y-88796049D01*
X88890524Y-89023710D01*
X88958168Y-89242231D01*
X89068370Y-89442688D01*
X89216628Y-89616892D01*
X89396888Y-89757726D01*
X89601784Y-89859437D01*
X89822947Y-89917871D01*
X90051342Y-89930640D01*
X90277640Y-89897224D01*
X90492597Y-89818986D01*
X90687431Y-89699122D01*
X90854185Y-89542531D01*
X90986045Y-89355607D01*
X91077626Y-89145988D01*
X91125232Y-88922016D01*
X91126056Y-88685842D01*
X91106426Y-88590212D01*
X91565353Y-88590212D01*
X91597152Y-88841918D01*
X91695467Y-89075800D01*
X91853056Y-89274628D01*
X92058308Y-89423752D01*
X92296102Y-89512187D01*
X92548918Y-89533416D01*
X92798130Y-89485877D01*
X93025378Y-89373070D01*
X93213918Y-89203308D01*
X93302776Y-89063290D01*
X93358168Y-89242231D01*
X93468370Y-89442688D01*
X93616628Y-89616892D01*
X93796888Y-89757726D01*
X94001784Y-89859437D01*
X94222947Y-89917871D01*
X94451342Y-89930640D01*
X94677640Y-89897224D01*
X94892597Y-89818986D01*
X95087431Y-89699122D01*
X95254185Y-89542531D01*
X95386045Y-89355607D01*
X95477626Y-89145988D01*
X95525232Y-88922016D01*
X95526056Y-88685842D01*
X95480014Y-88461544D01*
X95389899Y-88251290D01*
X95259348Y-88063451D01*
X95093692Y-87905698D01*
X94899699Y-87784478D01*
X94685293Y-87704741D01*
X94459234Y-87669746D01*
X94230756Y-87680921D01*
X94009190Y-87737808D01*
X93803589Y-87838086D01*
X93622350Y-87977659D01*
X93472880Y-88150824D01*
X93381638Y-88314082D01*
X93357823Y-88228787D01*
X93226397Y-88011776D01*
X93041453Y-87838102D01*
X92816617Y-87720561D01*
X92568455Y-87667813D01*
X92315251Y-87683742D01*
X92075656Y-87767179D01*
X91867325Y-87911972D01*
X91705607Y-88107456D01*
X91602416Y-88339228D01*
X91565353Y-88590212D01*
X91106426Y-88590212D01*
X91080014Y-88461544D01*
X91021364Y-88324703D01*
X91125378Y-88273070D01*
X91313918Y-88103308D01*
X91449861Y-87889096D01*
X91523384Y-87645575D01*
X91526231Y-87373795D01*
X91457823Y-87128787D01*
X91341068Y-86936001D01*
X103263145Y-86936001D01*
X103102761Y-87047470D01*
X102941043Y-87242954D01*
X102837852Y-87474726D01*
X102802542Y-87713839D01*
X102709190Y-87737808D01*
X102503589Y-87838086D01*
X102322350Y-87977659D01*
X102172880Y-88150824D01*
X102061281Y-88350506D01*
X101992113Y-88568550D01*
X101968201Y-88796049D01*
X101990524Y-89023710D01*
X102058168Y-89242231D01*
X102168370Y-89442688D01*
X102316628Y-89616892D01*
X102496888Y-89757726D01*
X102701784Y-89859437D01*
X102922947Y-89917871D01*
X103151342Y-89930640D01*
X103377640Y-89897224D01*
X103592597Y-89818986D01*
X103787431Y-89699122D01*
X103954185Y-89542531D01*
X104086045Y-89355607D01*
X104177626Y-89145988D01*
X104225232Y-88922016D01*
X104226056Y-88685842D01*
X104196246Y-88540620D01*
X104260814Y-88508568D01*
X104281200Y-88490212D01*
X104565353Y-88490212D01*
X104597152Y-88741918D01*
X104695467Y-88975800D01*
X104853056Y-89174628D01*
X105058308Y-89323752D01*
X105296102Y-89412187D01*
X105548918Y-89433416D01*
X105798130Y-89385877D01*
X106025378Y-89273070D01*
X106213918Y-89103308D01*
X106349861Y-88889096D01*
X106370592Y-88820432D01*
X106390524Y-89023710D01*
X106458168Y-89242231D01*
X106568370Y-89442688D01*
X106716628Y-89616892D01*
X106896888Y-89757726D01*
X107101784Y-89859437D01*
X107322947Y-89917871D01*
X107551342Y-89930640D01*
X107777640Y-89897224D01*
X107992597Y-89818986D01*
X108187431Y-89699122D01*
X108354185Y-89542531D01*
X108486045Y-89355607D01*
X108577626Y-89145988D01*
X108625232Y-88922016D01*
X108626056Y-88685842D01*
X108580014Y-88461544D01*
X108489899Y-88251290D01*
X108359348Y-88063451D01*
X108193692Y-87905698D01*
X107999699Y-87784478D01*
X107785293Y-87704741D01*
X107559234Y-87669746D01*
X107330756Y-87680921D01*
X107109190Y-87737808D01*
X106903589Y-87838086D01*
X106722350Y-87977659D01*
X106572880Y-88150824D01*
X106461281Y-88350506D01*
X106425286Y-88463975D01*
X106426231Y-88373795D01*
X106357823Y-88128787D01*
X106226397Y-87911776D01*
X106041453Y-87738102D01*
X105816617Y-87620561D01*
X105568455Y-87567813D01*
X105315251Y-87583742D01*
X105075656Y-87667179D01*
X104867325Y-87811972D01*
X104705607Y-88007456D01*
X104602416Y-88239228D01*
X104565353Y-88490212D01*
X104281200Y-88490212D01*
X104449354Y-88338806D01*
X104585297Y-88124594D01*
X104658820Y-87881073D01*
X104661667Y-87609293D01*
X104593259Y-87364285D01*
X104461833Y-87147274D01*
X104276889Y-86973600D01*
X104204968Y-86936001D01*
X115647648Y-86936001D01*
X115647654Y-86936000D01*
X115704985Y-86936000D01*
X115759995Y-86918126D01*
X115817141Y-86909075D01*
X115868688Y-86882810D01*
X115923705Y-86864934D01*
X115970501Y-86830935D01*
X116022050Y-86804669D01*
X116185014Y-86641705D01*
X116185016Y-86641701D01*
X118146749Y-84679969D01*
X118194668Y-84632051D01*
X118220933Y-84580504D01*
X118224915Y-84575023D01*
X118332368Y-84543501D01*
X118540346Y-84436384D01*
X118724319Y-84291872D01*
X118877644Y-84115180D01*
X118994793Y-83912682D01*
X119071536Y-83691684D01*
X119105105Y-83460162D01*
X119094288Y-83226470D01*
X119039477Y-82999038D01*
X118942649Y-82786075D01*
X118807296Y-82595263D01*
X118699236Y-82491817D01*
X118807279Y-82422382D01*
X118973745Y-82230270D01*
X119079343Y-81999042D01*
X119114224Y-81756442D01*
X119114224Y-81528000D01*
X116085776Y-81528000D01*
X116085776Y-81760976D01*
X116162691Y-82114549D01*
X116302618Y-82332279D01*
X116491352Y-82495818D01*
X116475681Y-82508128D01*
X116322356Y-82684820D01*
X116205207Y-82887318D01*
X116128464Y-83108316D01*
X116094895Y-83339838D01*
X116105712Y-83573530D01*
X116160523Y-83800962D01*
X116257351Y-84013925D01*
X116392704Y-84204737D01*
X116482544Y-84290739D01*
X115289282Y-85484001D01*
X90169680Y-85484001D01*
X90131452Y-85448103D01*
X89906616Y-85330562D01*
X89658454Y-85277814D01*
X89405250Y-85293743D01*
X89165655Y-85377180D01*
X88957324Y-85521973D01*
X88795606Y-85717457D01*
X88692415Y-85949229D01*
X88655352Y-86200213D01*
X82332114Y-86200213D01*
X82599106Y-86020125D01*
X81170000Y-84591019D01*
X79751326Y-86009693D01*
X69448674Y-86009693D01*
X67848981Y-84410000D01*
X68211019Y-84410000D01*
X69627322Y-85826303D01*
X69760658Y-85667396D01*
X69918811Y-85414299D01*
X70040200Y-85141653D01*
X70122464Y-84854767D01*
X70164000Y-84559224D01*
X70164000Y-84410000D01*
X79030789Y-84410000D01*
X79051608Y-84707721D01*
X79113658Y-84999646D01*
X79215734Y-85280095D01*
X79355846Y-85543609D01*
X79566052Y-85832929D01*
X80988981Y-84410000D01*
X81351019Y-84410000D01*
X82767322Y-85826303D01*
X82900658Y-85667396D01*
X83058811Y-85414299D01*
X83180200Y-85141653D01*
X83262464Y-84854767D01*
X83304000Y-84559224D01*
X83304000Y-84260776D01*
X83262464Y-83965233D01*
X83180200Y-83678347D01*
X83058811Y-83405701D01*
X82900658Y-83152604D01*
X82767322Y-82993697D01*
X81351019Y-84410000D01*
X80988981Y-84410000D01*
X79566052Y-82987071D01*
X79355846Y-83276391D01*
X79215734Y-83539905D01*
X79113658Y-83820354D01*
X79051608Y-84112279D01*
X79030789Y-84410000D01*
X70164000Y-84410000D01*
X70164000Y-84260776D01*
X70122464Y-83965233D01*
X70040200Y-83678347D01*
X69918811Y-83405701D01*
X69760658Y-83152604D01*
X69627322Y-82993697D01*
X68211019Y-84410000D01*
X67848981Y-84410000D01*
X66426052Y-82987071D01*
X66215846Y-83276391D01*
X66075734Y-83539905D01*
X65973658Y-83820354D01*
X65911608Y-84112279D01*
X65890789Y-84410000D01*
X65911608Y-84707721D01*
X65973658Y-84999646D01*
X66075734Y-85280095D01*
X66215846Y-85543609D01*
X66237148Y-85572928D01*
X66065251Y-85583742D01*
X65825656Y-85667179D01*
X65617325Y-85811972D01*
X65455607Y-86007456D01*
X65352416Y-86239228D01*
X65315353Y-86490212D01*
X65347152Y-86741918D01*
X65445467Y-86975800D01*
X65603056Y-87174628D01*
X65739830Y-87274000D01*
X65500718Y-87274000D01*
X57426000Y-79199283D01*
X57426000Y-76584270D01*
X57549861Y-76389096D01*
X57623384Y-76145575D01*
X57626231Y-75873795D01*
X57557823Y-75628787D01*
X57426397Y-75411776D01*
X57241453Y-75238102D01*
X57016617Y-75120561D01*
X56768455Y-75067813D01*
X56515251Y-75083742D01*
X56275656Y-75167179D01*
X56067325Y-75311972D01*
X55905607Y-75507456D01*
X55802416Y-75739228D01*
X55765353Y-75990212D01*
X45626000Y-75990212D01*
X45626000Y-68489425D01*
X45715961Y-68717222D01*
X45846610Y-68932526D01*
X46011669Y-69122739D01*
X46206416Y-69282422D01*
X46425284Y-69407009D01*
X46664831Y-69493960D01*
X46922000Y-69528047D01*
X46922000Y-67927000D01*
X47178000Y-67927000D01*
X47178000Y-69554978D01*
X47502537Y-69470745D01*
X46644528Y-70328755D01*
X46565251Y-70333742D01*
X46325656Y-70417179D01*
X46117325Y-70561972D01*
X45955607Y-70757456D01*
X45852416Y-70989228D01*
X45815353Y-71240212D01*
X45847152Y-71491918D01*
X45945467Y-71725800D01*
X45983486Y-71773768D01*
X45955607Y-71807469D01*
X45852416Y-72039241D01*
X45815353Y-72290225D01*
X45847152Y-72541931D01*
X45945467Y-72775813D01*
X45946726Y-72777402D01*
X45852416Y-72989228D01*
X45815353Y-73240212D01*
X45847152Y-73491918D01*
X45945467Y-73725800D01*
X45963242Y-73748227D01*
X45955608Y-73757455D01*
X45852416Y-73989228D01*
X45815353Y-74240212D01*
X45847152Y-74491918D01*
X45945467Y-74725800D01*
X46103056Y-74924628D01*
X46308308Y-75073752D01*
X46546102Y-75162187D01*
X46798918Y-75183416D01*
X47048130Y-75135877D01*
X47275378Y-75023070D01*
X47327654Y-74976000D01*
X61653527Y-74976000D01*
X61640353Y-75065212D01*
X61672152Y-75316918D01*
X61770467Y-75550800D01*
X61928056Y-75749628D01*
X62133308Y-75898752D01*
X62371102Y-75987187D01*
X62623918Y-76008416D01*
X62873130Y-75960877D01*
X63100378Y-75848070D01*
X63288918Y-75678308D01*
X63424861Y-75464096D01*
X63498384Y-75220575D01*
X63500946Y-74976000D01*
X63949282Y-74976000D01*
X65276361Y-76303081D01*
X65276368Y-76303087D01*
X65317949Y-76344668D01*
X65369491Y-76370930D01*
X65416293Y-76404933D01*
X65471312Y-76422810D01*
X65522857Y-76449074D01*
X65580003Y-76458126D01*
X65635012Y-76475999D01*
X65692345Y-76475999D01*
X65692351Y-76476000D01*
X75962969Y-76476000D01*
X75821948Y-76574011D01*
X70642340Y-76574011D01*
X70642334Y-76574012D01*
X70585001Y-76574012D01*
X70529992Y-76591885D01*
X70472846Y-76600937D01*
X70421301Y-76627201D01*
X70366282Y-76645078D01*
X70319483Y-76679079D01*
X70267938Y-76705343D01*
X70220020Y-76753262D01*
X64494528Y-82478755D01*
X64415251Y-82483742D01*
X64175656Y-82567179D01*
X63967325Y-82711972D01*
X63805607Y-82907456D01*
X63702416Y-83139228D01*
X63665353Y-83390212D01*
X63697152Y-83641918D01*
X63795467Y-83875800D01*
X63953056Y-84074628D01*
X64158308Y-84223752D01*
X64396102Y-84312187D01*
X64648918Y-84333416D01*
X64898130Y-84285877D01*
X65125378Y-84173070D01*
X65313918Y-84003308D01*
X65449861Y-83789096D01*
X65523384Y-83545575D01*
X65523831Y-83502886D01*
X66216410Y-82810307D01*
X66611326Y-82810307D01*
X68030000Y-84228981D01*
X69459106Y-82799875D01*
X69099606Y-82557389D01*
X68831363Y-82426559D01*
X68547522Y-82334333D01*
X68253609Y-82282508D01*
X67955343Y-82272092D01*
X67658530Y-82303289D01*
X67368948Y-82375489D01*
X67092231Y-82487290D01*
X66833768Y-82636514D01*
X66611326Y-82810307D01*
X66216410Y-82810307D01*
X68137741Y-80888976D01*
X69666287Y-80888976D01*
X69666287Y-82516588D01*
X69745831Y-82813450D01*
X69891407Y-82986942D01*
X70082593Y-83097322D01*
X70288976Y-83133713D01*
X71916588Y-83133713D01*
X72213450Y-83054169D01*
X72386942Y-82908593D01*
X72497322Y-82717407D01*
X72513797Y-82623975D01*
X72587814Y-82712186D01*
X72778956Y-82872573D01*
X72995045Y-82997331D01*
X73229514Y-83082671D01*
X73475241Y-83125999D01*
X73724759Y-83125999D01*
X73970486Y-83082671D01*
X74204955Y-82997331D01*
X74421044Y-82872573D01*
X74600000Y-82722411D01*
X74778956Y-82872573D01*
X74995045Y-82997331D01*
X75229514Y-83082671D01*
X75475241Y-83125999D01*
X75724759Y-83125999D01*
X75970486Y-83082671D01*
X76204955Y-82997331D01*
X76421044Y-82872573D01*
X76488443Y-82816018D01*
X77165001Y-82816018D01*
X77491651Y-83004609D01*
X77727436Y-83090429D01*
X77974541Y-83134000D01*
X78225459Y-83134000D01*
X78472564Y-83090429D01*
X78708349Y-83004609D01*
X79034999Y-82816018D01*
X79029288Y-82810307D01*
X79751326Y-82810307D01*
X81170000Y-84228981D01*
X82599106Y-82799875D01*
X82239606Y-82557389D01*
X81971363Y-82426559D01*
X81687522Y-82334333D01*
X81393609Y-82282508D01*
X81095343Y-82272092D01*
X80798530Y-82303289D01*
X80508948Y-82375489D01*
X80232231Y-82487290D01*
X79973768Y-82636514D01*
X79751326Y-82810307D01*
X79029288Y-82810307D01*
X78100000Y-81881019D01*
X77165001Y-82816018D01*
X76488443Y-82816018D01*
X76612186Y-82712186D01*
X76772573Y-82521044D01*
X76845381Y-82394935D01*
X76983982Y-82634999D01*
X77918981Y-81700000D01*
X78281019Y-81700000D01*
X79216018Y-82634999D01*
X79404609Y-82308349D01*
X79490429Y-82072564D01*
X79534000Y-81825459D01*
X79534000Y-81574541D01*
X79490429Y-81327436D01*
X79404609Y-81091651D01*
X79216018Y-80765001D01*
X78281019Y-81700000D01*
X77918981Y-81700000D01*
X79034999Y-80583982D01*
X78708349Y-80395391D01*
X78472564Y-80309571D01*
X78225459Y-80266000D01*
X77974541Y-80266000D01*
X77727436Y-80309571D01*
X77554912Y-80372366D01*
X77579513Y-80290884D01*
X77614272Y-80194335D01*
X77616075Y-80169783D01*
X77623384Y-80145575D01*
X77624304Y-80057736D01*
X77632854Y-79941310D01*
X77625886Y-79906752D01*
X77626231Y-79873795D01*
X77601070Y-79783680D01*
X77582706Y-79692608D01*
X77567078Y-79661937D01*
X77557823Y-79628788D01*
X77509700Y-79549326D01*
X77467526Y-79466556D01*
X77444229Y-79441221D01*
X77426397Y-79411776D01*
X77358673Y-79348179D01*
X77295799Y-79279803D01*
X77266545Y-79261665D01*
X77241453Y-79238102D01*
X77159119Y-79195058D01*
X77076154Y-79143618D01*
X77050148Y-79138090D01*
X77016617Y-79120561D01*
X76768455Y-79067813D01*
X76670116Y-79074000D01*
X76097564Y-79074000D01*
X76068455Y-79067813D01*
X75970116Y-79074000D01*
X71420564Y-79074000D01*
X71312036Y-79069451D01*
X71231051Y-79088446D01*
X71148642Y-79099734D01*
X71108068Y-79117292D01*
X71060428Y-79128465D01*
X71016851Y-79156765D01*
X70915801Y-79200493D01*
X70718635Y-79360156D01*
X70690024Y-79400416D01*
X70459765Y-79630674D01*
X70379804Y-79704201D01*
X70335973Y-79774894D01*
X70285679Y-79841154D01*
X70269405Y-79882258D01*
X70243620Y-79923845D01*
X70232817Y-79974667D01*
X70192283Y-80077044D01*
X70169176Y-80296897D01*
X69986551Y-80345831D01*
X69813058Y-80491407D01*
X69702678Y-80682593D01*
X69666287Y-80888976D01*
X68137741Y-80888976D01*
X71000707Y-78026011D01*
X75823752Y-78026011D01*
X75958297Y-78123763D01*
X76196091Y-78212198D01*
X76448907Y-78233427D01*
X76698119Y-78185888D01*
X76925367Y-78073081D01*
X77113907Y-77903319D01*
X77249850Y-77689107D01*
X77323373Y-77445586D01*
X77325461Y-77246225D01*
X80248459Y-77246225D01*
X80269790Y-77463776D01*
X80334431Y-77672595D01*
X80439739Y-77864149D01*
X80581414Y-78030618D01*
X80753669Y-78165198D01*
X80949467Y-78262392D01*
X81160809Y-78318232D01*
X81379062Y-78330434D01*
X81595312Y-78298501D01*
X81800723Y-78223737D01*
X81986906Y-78109197D01*
X82146254Y-77959559D01*
X82272259Y-77780936D01*
X82359773Y-77580624D01*
X82405268Y-77366589D01*
X82406056Y-77140920D01*
X82362056Y-76926573D01*
X82275942Y-76725656D01*
X82151187Y-76546157D01*
X81992888Y-76395410D01*
X81807509Y-76279573D01*
X81602625Y-76203376D01*
X81386604Y-76169935D01*
X81168271Y-76180614D01*
X80956544Y-76234975D01*
X80760072Y-76330801D01*
X80586882Y-76464176D01*
X80444049Y-76629649D01*
X80337405Y-76820466D01*
X80271309Y-77028828D01*
X80248459Y-77246225D01*
X77325461Y-77246225D01*
X77326220Y-77173806D01*
X77257812Y-76928798D01*
X77126386Y-76711787D01*
X76941442Y-76538113D01*
X76822630Y-76476000D01*
X76873763Y-76476000D01*
X77008308Y-76573752D01*
X77246102Y-76662187D01*
X77498918Y-76683416D01*
X77748130Y-76635877D01*
X77975378Y-76523070D01*
X78163918Y-76353308D01*
X78299861Y-76139096D01*
X78373384Y-75895575D01*
X78376231Y-75623795D01*
X78307823Y-75378787D01*
X78176397Y-75161776D01*
X77991453Y-74988102D01*
X77766617Y-74870561D01*
X77518455Y-74817813D01*
X77265251Y-74833742D01*
X77025656Y-74917179D01*
X76871959Y-75024000D01*
X75523580Y-75024000D01*
X75618577Y-74902410D01*
X75745250Y-74671992D01*
X75833454Y-74424286D01*
X75866134Y-74246225D01*
X80248459Y-74246225D01*
X80269790Y-74463776D01*
X80334431Y-74672595D01*
X80439739Y-74864149D01*
X80581414Y-75030618D01*
X80753669Y-75165198D01*
X80949467Y-75262392D01*
X81160809Y-75318232D01*
X81227893Y-75321983D01*
X81236728Y-75391918D01*
X81335043Y-75625800D01*
X81492632Y-75824628D01*
X81697884Y-75973752D01*
X81935678Y-76062187D01*
X82188494Y-76083416D01*
X82437706Y-76035877D01*
X82664954Y-75923070D01*
X82853494Y-75753308D01*
X82989437Y-75539096D01*
X83062960Y-75295575D01*
X83065807Y-75023795D01*
X82997399Y-74778787D01*
X82865973Y-74561776D01*
X82681029Y-74388102D01*
X82456193Y-74270561D01*
X82405641Y-74259816D01*
X82406056Y-74140920D01*
X82362056Y-73926573D01*
X82275942Y-73725656D01*
X82151187Y-73546157D01*
X81992888Y-73395410D01*
X81807509Y-73279573D01*
X81602625Y-73203376D01*
X81386604Y-73169935D01*
X81168271Y-73180614D01*
X80956544Y-73234975D01*
X80760072Y-73330801D01*
X80586882Y-73464176D01*
X80444049Y-73629649D01*
X80337405Y-73820466D01*
X80271309Y-74028828D01*
X80248459Y-74246225D01*
X75866134Y-74246225D01*
X75881040Y-74165010D01*
X75884138Y-73869185D01*
X75841992Y-73608970D01*
X75758994Y-73359470D01*
X75637175Y-73126450D01*
X75494838Y-72936181D01*
X74250000Y-74181020D01*
X72996927Y-72927946D01*
X72805269Y-73225342D01*
X72700000Y-73466292D01*
X72634608Y-73720973D01*
X72610778Y-73982834D01*
X72629120Y-74245135D01*
X72689163Y-74501130D01*
X72789362Y-74744232D01*
X72927140Y-74968187D01*
X72975317Y-75024000D01*
X70881425Y-75024000D01*
X70883713Y-75011024D01*
X70883713Y-72983412D01*
X70804169Y-72686551D01*
X70795307Y-72675990D01*
X73288977Y-72675990D01*
X73188108Y-72757089D01*
X74250000Y-73818981D01*
X75317194Y-72751786D01*
X75208138Y-72675990D01*
X76923774Y-72675990D01*
X77058319Y-72773742D01*
X77296113Y-72862177D01*
X77548929Y-72883406D01*
X77798141Y-72835867D01*
X78025389Y-72723060D01*
X78213929Y-72553298D01*
X78349872Y-72339086D01*
X78423395Y-72095565D01*
X78426242Y-71823785D01*
X78357834Y-71578777D01*
X78226408Y-71361766D01*
X78041464Y-71188092D01*
X77816628Y-71070551D01*
X77568466Y-71017803D01*
X77315262Y-71033732D01*
X77075667Y-71117169D01*
X76921970Y-71223990D01*
X59735022Y-71223990D01*
X59680005Y-71241866D01*
X59622868Y-71250916D01*
X59571322Y-71277180D01*
X59516304Y-71295057D01*
X59469505Y-71329058D01*
X59417959Y-71355322D01*
X59075296Y-71697986D01*
X58948897Y-71489276D01*
X58763953Y-71315602D01*
X58539117Y-71198061D01*
X58290955Y-71145313D01*
X58037751Y-71161242D01*
X57798156Y-71244679D01*
X57589825Y-71389472D01*
X57428107Y-71584956D01*
X57324916Y-71816728D01*
X57287853Y-72067712D01*
X57319652Y-72319418D01*
X57405650Y-72524000D01*
X47649710Y-72524000D01*
X47673384Y-72445588D01*
X47676231Y-72173808D01*
X47607823Y-71928800D01*
X47514159Y-71774141D01*
X47599861Y-71639096D01*
X47673384Y-71395575D01*
X47673831Y-71352886D01*
X49236505Y-69790212D01*
X80265353Y-69790212D01*
X80297152Y-70041918D01*
X80395467Y-70275800D01*
X80494197Y-70400368D01*
X80405607Y-70507456D01*
X80302416Y-70739228D01*
X80265353Y-70990212D01*
X80297152Y-71241918D01*
X80395467Y-71475800D01*
X80553056Y-71674628D01*
X80758308Y-71823752D01*
X80996102Y-71912187D01*
X81248918Y-71933416D01*
X81498130Y-71885877D01*
X81725378Y-71773070D01*
X81913918Y-71603308D01*
X82049861Y-71389096D01*
X82123384Y-71145575D01*
X82126231Y-70873795D01*
X82057823Y-70628787D01*
X82032945Y-70587707D01*
X82915355Y-70587707D01*
X82947154Y-70839413D01*
X83045469Y-71073295D01*
X83203058Y-71272123D01*
X83408310Y-71421247D01*
X83646105Y-71509682D01*
X83743663Y-71517874D01*
X83974001Y-71748213D01*
X83974000Y-77224782D01*
X83905607Y-77307456D01*
X83802416Y-77539228D01*
X83765353Y-77790212D01*
X83797152Y-78041918D01*
X83895467Y-78275800D01*
X84053056Y-78474628D01*
X84258308Y-78623752D01*
X84496102Y-78712187D01*
X84748918Y-78733416D01*
X84998130Y-78685877D01*
X85225378Y-78573070D01*
X85413918Y-78403308D01*
X85549861Y-78189096D01*
X85568961Y-78125833D01*
X85659152Y-78133406D01*
X85908364Y-78085867D01*
X86135612Y-77973060D01*
X86324152Y-77803298D01*
X86460095Y-77589086D01*
X86533618Y-77345565D01*
X86536465Y-77073785D01*
X86468057Y-76828777D01*
X86336631Y-76611767D01*
X86336234Y-76611394D01*
X86336234Y-75090212D01*
X87865353Y-75090212D01*
X87897152Y-75341918D01*
X87995467Y-75575800D01*
X88153056Y-75774628D01*
X88358308Y-75923752D01*
X88596102Y-76012187D01*
X88848918Y-76033416D01*
X89098130Y-75985877D01*
X89325378Y-75873070D01*
X89513918Y-75703308D01*
X89649861Y-75489096D01*
X89709907Y-75290212D01*
X91965353Y-75290212D01*
X91997152Y-75541918D01*
X92095467Y-75775800D01*
X92253056Y-75974628D01*
X92458308Y-76123752D01*
X92696102Y-76212187D01*
X92948918Y-76233416D01*
X93198130Y-76185877D01*
X93425378Y-76073070D01*
X93613918Y-75903308D01*
X93749861Y-75689096D01*
X93823384Y-75445575D01*
X93826231Y-75173795D01*
X93757823Y-74928787D01*
X93626397Y-74711776D01*
X93441453Y-74538102D01*
X93216617Y-74420561D01*
X92968455Y-74367813D01*
X92715251Y-74383742D01*
X92475656Y-74467179D01*
X92267325Y-74611972D01*
X92105607Y-74807456D01*
X92002416Y-75039228D01*
X91965353Y-75290212D01*
X89709907Y-75290212D01*
X89723384Y-75245575D01*
X89726231Y-74973795D01*
X89657823Y-74728787D01*
X89526397Y-74511776D01*
X89341453Y-74338102D01*
X89116617Y-74220561D01*
X88973835Y-74190212D01*
X97215353Y-74190212D01*
X97247152Y-74441918D01*
X97345467Y-74675800D01*
X97503056Y-74874628D01*
X97708308Y-75023752D01*
X97946102Y-75112187D01*
X98198918Y-75133416D01*
X98448130Y-75085877D01*
X98675378Y-74973070D01*
X98863918Y-74803308D01*
X98999861Y-74589096D01*
X99073384Y-74345575D01*
X99076231Y-74073795D01*
X99007823Y-73828787D01*
X98876397Y-73611776D01*
X98691453Y-73438102D01*
X98466617Y-73320561D01*
X98218455Y-73267813D01*
X97965251Y-73283742D01*
X97725656Y-73367179D01*
X97517325Y-73511972D01*
X97355607Y-73707456D01*
X97252416Y-73939228D01*
X97215353Y-74190212D01*
X88973835Y-74190212D01*
X88868455Y-74167813D01*
X88615251Y-74183742D01*
X88375656Y-74267179D01*
X88167325Y-74411972D01*
X88005607Y-74607456D01*
X87902416Y-74839228D01*
X87865353Y-75090212D01*
X86336234Y-75090212D01*
X86336234Y-71352587D01*
X86336233Y-71352581D01*
X86336233Y-71295249D01*
X86318359Y-71240239D01*
X86309308Y-71183094D01*
X86283043Y-71131547D01*
X86265167Y-71076530D01*
X86231166Y-71029731D01*
X86204902Y-70978185D01*
X85725965Y-70499248D01*
X85726231Y-70473796D01*
X85657823Y-70228789D01*
X85526397Y-70011778D01*
X85341453Y-69838104D01*
X85116617Y-69720563D01*
X84868455Y-69667815D01*
X84615251Y-69683744D01*
X84375656Y-69767181D01*
X84326258Y-69801513D01*
X84166619Y-69718056D01*
X83918457Y-69665308D01*
X83665253Y-69681237D01*
X83425658Y-69764674D01*
X83217327Y-69909467D01*
X83055609Y-70104951D01*
X82952418Y-70336723D01*
X82915355Y-70587707D01*
X82032945Y-70587707D01*
X81926397Y-70411776D01*
X81915211Y-70401271D01*
X82049861Y-70189096D01*
X82123384Y-69945575D01*
X82126231Y-69673795D01*
X82057823Y-69428787D01*
X81926397Y-69211776D01*
X81741453Y-69038102D01*
X81516617Y-68920561D01*
X81268455Y-68867813D01*
X81015251Y-68883742D01*
X80775656Y-68967179D01*
X80567325Y-69111972D01*
X80405607Y-69307456D01*
X80302416Y-69539228D01*
X80265353Y-69790212D01*
X49236505Y-69790212D01*
X49346748Y-69679970D01*
X49394667Y-69632052D01*
X49420931Y-69580506D01*
X49454932Y-69533707D01*
X49472809Y-69478689D01*
X49499073Y-69427143D01*
X49508123Y-69370006D01*
X49525999Y-69314989D01*
X49525999Y-68937584D01*
X49686669Y-69122739D01*
X49881416Y-69282422D01*
X50100284Y-69407009D01*
X50339831Y-69493960D01*
X50597000Y-69528047D01*
X50597000Y-68183000D01*
X50853000Y-68183000D01*
X50853000Y-69554978D01*
X51219708Y-69459800D01*
X51449329Y-69356363D01*
X51658240Y-69215716D01*
X51840466Y-69041881D01*
X51990797Y-68839828D01*
X52104936Y-68615334D01*
X52179618Y-68374819D01*
X52197459Y-68240212D01*
X68315353Y-68240212D01*
X68347152Y-68491918D01*
X68445467Y-68725800D01*
X68603056Y-68924628D01*
X68808308Y-69073752D01*
X69046102Y-69162187D01*
X69298918Y-69183416D01*
X69548130Y-69135877D01*
X69775378Y-69023070D01*
X69963918Y-68853308D01*
X70099861Y-68639096D01*
X70173384Y-68395575D01*
X70176231Y-68123795D01*
X70107823Y-67878787D01*
X69976397Y-67661776D01*
X69791453Y-67488102D01*
X69566617Y-67370561D01*
X69318455Y-67317813D01*
X69065251Y-67333742D01*
X68825656Y-67417179D01*
X68617325Y-67561972D01*
X68455607Y-67757456D01*
X68352416Y-67989228D01*
X68315353Y-68240212D01*
X52197459Y-68240212D01*
X52205043Y-68183000D01*
X50853000Y-68183000D01*
X50597000Y-68183000D01*
X50597000Y-67927000D01*
X52214487Y-67927000D01*
X52151544Y-67627017D01*
X52059039Y-67392778D01*
X51928390Y-67177474D01*
X51763331Y-66987261D01*
X51568584Y-66827578D01*
X51488707Y-66782109D01*
X51677378Y-66650000D01*
X51860000Y-66467378D01*
X52008136Y-66255819D01*
X52117284Y-66021750D01*
X52184128Y-65772283D01*
X52206637Y-65515000D01*
X52184128Y-65257717D01*
X52117284Y-65008250D01*
X52008136Y-64774181D01*
X51984351Y-64740212D01*
X53565353Y-64740212D01*
X53597152Y-64991918D01*
X53653181Y-65125207D01*
X53602416Y-65239228D01*
X53565353Y-65490212D01*
X53597152Y-65741918D01*
X53695467Y-65975800D01*
X53853056Y-66174628D01*
X54058308Y-66323752D01*
X54296102Y-66412187D01*
X54548918Y-66433416D01*
X54798130Y-66385877D01*
X54874037Y-66348197D01*
X55046102Y-66412187D01*
X55298918Y-66433416D01*
X55548130Y-66385877D01*
X55624037Y-66348197D01*
X55796102Y-66412187D01*
X56048918Y-66433416D01*
X56298130Y-66385877D01*
X56374037Y-66348197D01*
X56546102Y-66412187D01*
X56798918Y-66433416D01*
X57048130Y-66385877D01*
X57124037Y-66348197D01*
X57296102Y-66412187D01*
X57548918Y-66433416D01*
X57798130Y-66385877D01*
X57874037Y-66348197D01*
X58046102Y-66412187D01*
X58298918Y-66433416D01*
X58548130Y-66385877D01*
X58624037Y-66348197D01*
X58796102Y-66412187D01*
X59048918Y-66433416D01*
X59298130Y-66385877D01*
X59374037Y-66348197D01*
X59546102Y-66412187D01*
X59798918Y-66433416D01*
X60048130Y-66385877D01*
X60275378Y-66273070D01*
X60463918Y-66103308D01*
X60599861Y-65889096D01*
X60673384Y-65645575D01*
X60676231Y-65373795D01*
X60607823Y-65128787D01*
X60604587Y-65123443D01*
X60673384Y-64895575D01*
X60676231Y-64623795D01*
X60607823Y-64378787D01*
X60604587Y-64373443D01*
X60673384Y-64145575D01*
X60676231Y-63873795D01*
X60607823Y-63628787D01*
X60604587Y-63623443D01*
X60673384Y-63395575D01*
X60676231Y-63123795D01*
X60607823Y-62878787D01*
X60604587Y-62873443D01*
X60673384Y-62645575D01*
X60676231Y-62373795D01*
X60607823Y-62128787D01*
X60604587Y-62123443D01*
X60673384Y-61895575D01*
X60676231Y-61623795D01*
X60650705Y-61532370D01*
X80106798Y-61532370D01*
X80138597Y-61784076D01*
X80236912Y-62017958D01*
X80394501Y-62216786D01*
X80599753Y-62365910D01*
X80837548Y-62454345D01*
X80935107Y-62462537D01*
X88019123Y-69546554D01*
X87969402Y-69520561D01*
X87721240Y-69467813D01*
X87468036Y-69483742D01*
X87228441Y-69567179D01*
X87020110Y-69711972D01*
X86858392Y-69907456D01*
X86755201Y-70139228D01*
X86718138Y-70390212D01*
X86749937Y-70641918D01*
X86848252Y-70875800D01*
X87005841Y-71074628D01*
X87211093Y-71223752D01*
X87448887Y-71312187D01*
X87701703Y-71333416D01*
X87950915Y-71285877D01*
X88178163Y-71173070D01*
X88366703Y-71003308D01*
X88502646Y-70789096D01*
X88576169Y-70545575D01*
X88579016Y-70273795D01*
X88514192Y-70041624D01*
X90122420Y-71649852D01*
X90270925Y-71798358D01*
X90322470Y-71824622D01*
X90369269Y-71858623D01*
X90424288Y-71876500D01*
X90475833Y-71902764D01*
X90532979Y-71911816D01*
X90587988Y-71929689D01*
X90645321Y-71929689D01*
X90645327Y-71929690D01*
X100762723Y-71929690D01*
X101857857Y-73024825D01*
X101652103Y-73037769D01*
X101412508Y-73121206D01*
X101204177Y-73265999D01*
X101042459Y-73461483D01*
X100939268Y-73693255D01*
X100902205Y-73944239D01*
X100934004Y-74195945D01*
X101032319Y-74429827D01*
X101189908Y-74628655D01*
X101251121Y-74673129D01*
X101200683Y-74786414D01*
X101163620Y-75037398D01*
X101195419Y-75289104D01*
X101293734Y-75522986D01*
X101451323Y-75721814D01*
X101656575Y-75870938D01*
X101894369Y-75959373D01*
X102147185Y-75980602D01*
X102396397Y-75933063D01*
X102623645Y-75820256D01*
X102768016Y-75690264D01*
X102795482Y-75755602D01*
X102831087Y-75800525D01*
X102824306Y-75815756D01*
X102787243Y-76066741D01*
X102819042Y-76318447D01*
X102917357Y-76552329D01*
X103074946Y-76751157D01*
X103280198Y-76900281D01*
X103517992Y-76988716D01*
X103770808Y-77009945D01*
X104020020Y-76962406D01*
X104237212Y-76854591D01*
X104416721Y-77034100D01*
X104468266Y-77060364D01*
X104515065Y-77094365D01*
X104570085Y-77112242D01*
X104621630Y-77138506D01*
X104678776Y-77147558D01*
X104733785Y-77165431D01*
X104791117Y-77165431D01*
X104791123Y-77165432D01*
X105993151Y-77165432D01*
X105968826Y-77220066D01*
X105931763Y-77471050D01*
X105963562Y-77722756D01*
X106061877Y-77956638D01*
X106219466Y-78155466D01*
X106424718Y-78304590D01*
X106662512Y-78393025D01*
X106904482Y-78413343D01*
X106953056Y-78474628D01*
X107158308Y-78623752D01*
X107396102Y-78712187D01*
X107648918Y-78733416D01*
X107898130Y-78685877D01*
X108125378Y-78573070D01*
X108313918Y-78403308D01*
X108394042Y-78277053D01*
X108458318Y-78323752D01*
X108696112Y-78412187D01*
X108948928Y-78433416D01*
X109198140Y-78385877D01*
X109425388Y-78273070D01*
X109613928Y-78103308D01*
X109749871Y-77889096D01*
X109823394Y-77645575D01*
X109826241Y-77373795D01*
X109757833Y-77128787D01*
X109626407Y-76911776D01*
X109441463Y-76738102D01*
X109370769Y-76701144D01*
X112069938Y-74001976D01*
X112210881Y-74104377D01*
X112448675Y-74192812D01*
X112701491Y-74214041D01*
X112950703Y-74166502D01*
X113177951Y-74053695D01*
X113366491Y-73883933D01*
X113502434Y-73669721D01*
X113575957Y-73426200D01*
X113578804Y-73154420D01*
X113510396Y-72909412D01*
X113379174Y-72692739D01*
X114474000Y-71597913D01*
X114474000Y-72663859D01*
X114474001Y-72663866D01*
X114474000Y-78516440D01*
X111616440Y-81374000D01*
X109279876Y-81374000D01*
X109413918Y-81253308D01*
X109549861Y-81039096D01*
X109623384Y-80795575D01*
X109625198Y-80622406D01*
X112978976Y-77268629D01*
X113096102Y-77312187D01*
X113348918Y-77333416D01*
X113598130Y-77285877D01*
X113825378Y-77173070D01*
X114013918Y-77003308D01*
X114149861Y-76789096D01*
X114223384Y-76545575D01*
X114226231Y-76273795D01*
X114157823Y-76028787D01*
X114026397Y-75811776D01*
X113841453Y-75638102D01*
X113616617Y-75520561D01*
X113581354Y-75513066D01*
X113557823Y-75428787D01*
X113426397Y-75211776D01*
X113241453Y-75038102D01*
X113016617Y-74920561D01*
X112768455Y-74867813D01*
X112515251Y-74883742D01*
X112275656Y-74967179D01*
X112067325Y-75111972D01*
X111905607Y-75307456D01*
X111802416Y-75539228D01*
X111765353Y-75790212D01*
X111797152Y-76041918D01*
X111895467Y-76275800D01*
X111905593Y-76288576D01*
X108431135Y-79763035D01*
X108401832Y-79773239D01*
X108276061Y-79655132D01*
X108051225Y-79537591D01*
X107803063Y-79484843D01*
X107549859Y-79500772D01*
X107310264Y-79584209D01*
X107101933Y-79729002D01*
X106940215Y-79924486D01*
X106837024Y-80156258D01*
X106799961Y-80407242D01*
X106831760Y-80658948D01*
X106930075Y-80892830D01*
X107087664Y-81091658D01*
X107292916Y-81240782D01*
X107530710Y-81329217D01*
X107783526Y-81350446D01*
X108032738Y-81302907D01*
X108034964Y-81301802D01*
X108053055Y-81324628D01*
X108121010Y-81374000D01*
X105370564Y-81374000D01*
X105262036Y-81369451D01*
X105181051Y-81388446D01*
X105098642Y-81399734D01*
X105058068Y-81417292D01*
X105010428Y-81428465D01*
X104966851Y-81456765D01*
X104865801Y-81500493D01*
X104668635Y-81660156D01*
X104640024Y-81700416D01*
X104025803Y-82314637D01*
X104026231Y-82273795D01*
X103957823Y-82028787D01*
X103826397Y-81811776D01*
X103641453Y-81638102D01*
X103416617Y-81520561D01*
X103168455Y-81467813D01*
X102915251Y-81483742D01*
X102675656Y-81567179D01*
X102467325Y-81711972D01*
X102305607Y-81907456D01*
X102202416Y-82139228D01*
X102165353Y-82390212D01*
X102197152Y-82641918D01*
X102295467Y-82875800D01*
X102453056Y-83074628D01*
X102658308Y-83223752D01*
X102793429Y-83274003D01*
X97624134Y-83274003D01*
X97626231Y-83073795D01*
X97557823Y-82828787D01*
X97426397Y-82611776D01*
X97241453Y-82438102D01*
X97016617Y-82320561D01*
X96975966Y-82311921D01*
X96930070Y-82147538D01*
X96798644Y-81930527D01*
X96613700Y-81756853D01*
X96388864Y-81639312D01*
X96140702Y-81586564D01*
X95887498Y-81602493D01*
X95647903Y-81685930D01*
X95439572Y-81830723D01*
X95277854Y-82026207D01*
X95174663Y-82257979D01*
X95137600Y-82508963D01*
X95169399Y-82760669D01*
X95267714Y-82994551D01*
X95425303Y-83193379D01*
X95536273Y-83274003D01*
X93683563Y-83274003D01*
X93426000Y-83016440D01*
X93426000Y-82636562D01*
X93430549Y-82528034D01*
X93411554Y-82447049D01*
X93400266Y-82364640D01*
X93382708Y-82324066D01*
X93371535Y-82276427D01*
X93343236Y-82232850D01*
X93299507Y-82131799D01*
X93139844Y-81934632D01*
X93099585Y-81906023D01*
X90553345Y-79359783D01*
X90489372Y-79290212D01*
X91365353Y-79290212D01*
X91397152Y-79541918D01*
X91495467Y-79775800D01*
X91653056Y-79974628D01*
X91858308Y-80123752D01*
X92096102Y-80212187D01*
X92348918Y-80233416D01*
X92598130Y-80185877D01*
X92825378Y-80073070D01*
X93013918Y-79903308D01*
X93149861Y-79689096D01*
X93223384Y-79445575D01*
X93226231Y-79173795D01*
X93157823Y-78928787D01*
X93026397Y-78711776D01*
X92843700Y-78540212D01*
X95815353Y-78540212D01*
X95847152Y-78791918D01*
X95945467Y-79025800D01*
X96103056Y-79224628D01*
X96308308Y-79373752D01*
X96546102Y-79462187D01*
X96798918Y-79483416D01*
X97048130Y-79435877D01*
X97275378Y-79323070D01*
X97463918Y-79153308D01*
X97599861Y-78939096D01*
X97673384Y-78695575D01*
X97676231Y-78423795D01*
X97611013Y-78190212D01*
X98565353Y-78190212D01*
X98597152Y-78441918D01*
X98695467Y-78675800D01*
X98853056Y-78874628D01*
X99058308Y-79023752D01*
X99296102Y-79112187D01*
X99548918Y-79133416D01*
X99798130Y-79085877D01*
X100025378Y-78973070D01*
X100213918Y-78803308D01*
X100349861Y-78589096D01*
X100423384Y-78345575D01*
X100426231Y-78073795D01*
X100357823Y-77828787D01*
X100226397Y-77611776D01*
X100041453Y-77438102D01*
X99816617Y-77320561D01*
X99568455Y-77267813D01*
X99315251Y-77283742D01*
X99075656Y-77367179D01*
X98867325Y-77511972D01*
X98705607Y-77707456D01*
X98602416Y-77939228D01*
X98565353Y-78190212D01*
X97611013Y-78190212D01*
X97607823Y-78178787D01*
X97476397Y-77961776D01*
X97291453Y-77788102D01*
X97066617Y-77670561D01*
X96818455Y-77617813D01*
X96565251Y-77633742D01*
X96325656Y-77717179D01*
X96117325Y-77861972D01*
X95955607Y-78057456D01*
X95852416Y-78289228D01*
X95815353Y-78540212D01*
X92843700Y-78540212D01*
X92841453Y-78538102D01*
X92616617Y-78420561D01*
X92368455Y-78367813D01*
X92115251Y-78383742D01*
X91875656Y-78467179D01*
X91667325Y-78611972D01*
X91505607Y-78807456D01*
X91402416Y-79039228D01*
X91365353Y-79290212D01*
X90489372Y-79290212D01*
X90479800Y-79279803D01*
X90409099Y-79235966D01*
X90342848Y-79185678D01*
X90301748Y-79169406D01*
X90260158Y-79143619D01*
X90209330Y-79132815D01*
X90106958Y-79092283D01*
X89854643Y-79065764D01*
X89805953Y-79074000D01*
X86897564Y-79074000D01*
X86868455Y-79067813D01*
X86770116Y-79074000D01*
X86297564Y-79074000D01*
X86268455Y-79067813D01*
X86170116Y-79074000D01*
X86136505Y-79074000D01*
X86107961Y-79077910D01*
X86015251Y-79083742D01*
X85982742Y-79095063D01*
X85948641Y-79099734D01*
X85863376Y-79136632D01*
X85775655Y-79167179D01*
X85747394Y-79186822D01*
X85715801Y-79200492D01*
X85643602Y-79258959D01*
X85567324Y-79311972D01*
X85545381Y-79338498D01*
X85518636Y-79360155D01*
X85464823Y-79435875D01*
X85405608Y-79507455D01*
X85391607Y-79538901D01*
X85371667Y-79566960D01*
X85340198Y-79654370D01*
X85302416Y-79739227D01*
X85297388Y-79773277D01*
X85285727Y-79805666D01*
X85278923Y-79898324D01*
X85265353Y-79990212D01*
X85269667Y-80024358D01*
X85267146Y-80058691D01*
X85285511Y-80149766D01*
X85297152Y-80241917D01*
X85310489Y-80273646D01*
X85317294Y-80307393D01*
X85359469Y-80390165D01*
X85395466Y-80475800D01*
X85416848Y-80502777D01*
X85432474Y-80533444D01*
X85495347Y-80601818D01*
X85553055Y-80674628D01*
X85580905Y-80694862D01*
X85604202Y-80720197D01*
X85683154Y-80769150D01*
X85758308Y-80823753D01*
X85790573Y-80835752D01*
X85823846Y-80856382D01*
X85875665Y-80867396D01*
X85996102Y-80912187D01*
X86145376Y-80924722D01*
X86151400Y-80926000D01*
X86160601Y-80926000D01*
X86248918Y-80933416D01*
X86287795Y-80926000D01*
X86760601Y-80926000D01*
X86848918Y-80933416D01*
X86887795Y-80926000D01*
X89500442Y-80926000D01*
X90085420Y-81510979D01*
X90005607Y-81607456D01*
X89902416Y-81839228D01*
X89865353Y-82090212D01*
X89897152Y-82341918D01*
X89900279Y-82349357D01*
X89739523Y-82359470D01*
X89499928Y-82442907D01*
X89291597Y-82587700D01*
X89129879Y-82783184D01*
X89026688Y-83014956D01*
X88989625Y-83265940D01*
X89021424Y-83517646D01*
X89119739Y-83751528D01*
X89277328Y-83950356D01*
X89482580Y-84099480D01*
X89720374Y-84187915D01*
X89973190Y-84209144D01*
X90222402Y-84161605D01*
X90360652Y-84092978D01*
X90395467Y-84175800D01*
X90553056Y-84374628D01*
X90758308Y-84523752D01*
X90996102Y-84612187D01*
X91248918Y-84633416D01*
X91498130Y-84585877D01*
X91664902Y-84503090D01*
X91695468Y-84575804D01*
X91698533Y-84579671D01*
X91700491Y-84584196D01*
X91777224Y-84678952D01*
X91853051Y-84774623D01*
X91857055Y-84777533D01*
X91860162Y-84781369D01*
X91959542Y-84851995D01*
X92058303Y-84923749D01*
X92062938Y-84925473D01*
X92066966Y-84928335D01*
X92181704Y-84969643D01*
X92296100Y-85012186D01*
X92301019Y-85012599D01*
X92305668Y-85014273D01*
X92427447Y-85023216D01*
X92548925Y-85033417D01*
X92553765Y-85032493D01*
X92558685Y-85032855D01*
X92678347Y-85008726D01*
X92798133Y-84985877D01*
X92801485Y-84984213D01*
X92841155Y-85014324D01*
X92882257Y-85030598D01*
X92923850Y-85056385D01*
X92974674Y-85067188D01*
X93077046Y-85107720D01*
X93329362Y-85134239D01*
X93378052Y-85126003D01*
X103429433Y-85126003D01*
X103537959Y-85130552D01*
X103618939Y-85111559D01*
X103701355Y-85100269D01*
X103741927Y-85082712D01*
X103789569Y-85071537D01*
X103833144Y-85043238D01*
X103934196Y-84999511D01*
X104131362Y-84839847D01*
X104159975Y-84799584D01*
X104236945Y-84722614D01*
X104313917Y-84653309D01*
X104327233Y-84632327D01*
X104497609Y-84461951D01*
X104545467Y-84575800D01*
X104703056Y-84774628D01*
X104908308Y-84923752D01*
X105146102Y-85012187D01*
X105398918Y-85033416D01*
X105585091Y-84997902D01*
X105758308Y-85123752D01*
X105996102Y-85212187D01*
X106248918Y-85233416D01*
X106498130Y-85185877D01*
X106725378Y-85073070D01*
X106913918Y-84903308D01*
X107049861Y-84689096D01*
X107109907Y-84490212D01*
X107515353Y-84490212D01*
X107547152Y-84741918D01*
X107645467Y-84975800D01*
X107803056Y-85174628D01*
X108008308Y-85323752D01*
X108246102Y-85412187D01*
X108498918Y-85433416D01*
X108748130Y-85385877D01*
X108975378Y-85273070D01*
X109163918Y-85103308D01*
X109299861Y-84889096D01*
X109373384Y-84645575D01*
X109376231Y-84373795D01*
X109307823Y-84128787D01*
X109176397Y-83911776D01*
X108991453Y-83738102D01*
X108766617Y-83620561D01*
X108518455Y-83567813D01*
X108265251Y-83583742D01*
X108025656Y-83667179D01*
X107817325Y-83811972D01*
X107655607Y-84007456D01*
X107552416Y-84239228D01*
X107515353Y-84490212D01*
X107109907Y-84490212D01*
X107123384Y-84445575D01*
X107126231Y-84173795D01*
X107057823Y-83928787D01*
X106926397Y-83711776D01*
X106741453Y-83538102D01*
X106516617Y-83420561D01*
X106268455Y-83367813D01*
X106015250Y-83383742D01*
X105960396Y-83402845D01*
X105891453Y-83338102D01*
X105714150Y-83245411D01*
X105733561Y-83226000D01*
X111979436Y-83226000D01*
X112087962Y-83230549D01*
X112168942Y-83211556D01*
X112251358Y-83200266D01*
X112291930Y-83182709D01*
X112339572Y-83171534D01*
X112383147Y-83143235D01*
X112484199Y-83099508D01*
X112681365Y-82939844D01*
X112709981Y-82899578D01*
X114566002Y-81043558D01*
X116085776Y-81043558D01*
X116085776Y-81272000D01*
X117472000Y-81272000D01*
X117472000Y-80160776D01*
X117728000Y-80160776D01*
X117728000Y-81272000D01*
X119114224Y-81272000D01*
X119114224Y-81039024D01*
X119037309Y-80685451D01*
X118897382Y-80467721D01*
X118705270Y-80301255D01*
X118474042Y-80195657D01*
X118231442Y-80160776D01*
X117728000Y-80160776D01*
X117472000Y-80160776D01*
X116964024Y-80160776D01*
X116610451Y-80237691D01*
X116392721Y-80377618D01*
X116226255Y-80569730D01*
X116120657Y-80800958D01*
X116085776Y-81043558D01*
X114566002Y-81043558D01*
X116040217Y-79569344D01*
X116120197Y-79495799D01*
X116164031Y-79425102D01*
X116214321Y-79358848D01*
X116230595Y-79317746D01*
X116256382Y-79276153D01*
X116267185Y-79225329D01*
X116307717Y-79122957D01*
X116334236Y-78870641D01*
X116326000Y-78821951D01*
X116326000Y-77210702D01*
X116392704Y-77304737D01*
X116561695Y-77466511D01*
X116758229Y-77593412D01*
X116978102Y-77682023D01*
X117281408Y-77726000D01*
X117933434Y-77726000D01*
X118107885Y-77709356D01*
X118332368Y-77643501D01*
X118540346Y-77536384D01*
X118724319Y-77391872D01*
X118877644Y-77215180D01*
X118994793Y-77012682D01*
X119071536Y-76791684D01*
X119105105Y-76560162D01*
X119094288Y-76326470D01*
X119039477Y-76099038D01*
X118942649Y-75886075D01*
X118807296Y-75695263D01*
X118638305Y-75533489D01*
X118586564Y-75500080D01*
X118724319Y-75391872D01*
X118877644Y-75215180D01*
X118994793Y-75012682D01*
X119071536Y-74791684D01*
X119105105Y-74560162D01*
X119094288Y-74326470D01*
X119039477Y-74099038D01*
X118942649Y-73886075D01*
X118807296Y-73695263D01*
X118638305Y-73533489D01*
X118593671Y-73504669D01*
X118729860Y-73397692D01*
X118884186Y-73219846D01*
X119002099Y-73016027D01*
X119079344Y-72793585D01*
X119103346Y-72628000D01*
X117472000Y-72628000D01*
X117472000Y-72372000D01*
X119113489Y-72372000D01*
X119047075Y-72096422D01*
X118949615Y-71882069D01*
X118813380Y-71690012D01*
X118643285Y-71527182D01*
X118593217Y-71494854D01*
X118724319Y-71391872D01*
X118877644Y-71215180D01*
X118994793Y-71012682D01*
X119071536Y-70791684D01*
X119105105Y-70560162D01*
X119094288Y-70326470D01*
X119039477Y-70099038D01*
X118942649Y-69886075D01*
X118807296Y-69695263D01*
X118638305Y-69533489D01*
X118586564Y-69500080D01*
X118724319Y-69391872D01*
X118877644Y-69215180D01*
X118994793Y-69012682D01*
X119071536Y-68791684D01*
X119105105Y-68560162D01*
X119094288Y-68326470D01*
X119039477Y-68099038D01*
X118942649Y-67886075D01*
X118807296Y-67695263D01*
X118693293Y-67586128D01*
X118801987Y-67516275D01*
X118966946Y-67325901D01*
X119071588Y-67096766D01*
X119106142Y-66856443D01*
X119106142Y-66139023D01*
X119029957Y-65788807D01*
X118891275Y-65573013D01*
X118700901Y-65408054D01*
X118471766Y-65303412D01*
X118231443Y-65268858D01*
X116964023Y-65268858D01*
X116613807Y-65345043D01*
X116398013Y-65483725D01*
X116233054Y-65674099D01*
X116128412Y-65903234D01*
X116093858Y-66143557D01*
X116093858Y-66860977D01*
X116170043Y-67211193D01*
X116308725Y-67426987D01*
X116497759Y-67590785D01*
X116475681Y-67608128D01*
X116322356Y-67784820D01*
X116205207Y-67987318D01*
X116128464Y-68208316D01*
X116119886Y-68267478D01*
X116039844Y-68168635D01*
X115999584Y-68140024D01*
X114476000Y-66616440D01*
X114476000Y-65920564D01*
X114480549Y-65812036D01*
X114461554Y-65731051D01*
X114450266Y-65648642D01*
X114432708Y-65608068D01*
X114421535Y-65560428D01*
X114393235Y-65516851D01*
X114349507Y-65415801D01*
X114189844Y-65218635D01*
X114149584Y-65190024D01*
X110149772Y-61190212D01*
X112365353Y-61190212D01*
X112397152Y-61441918D01*
X112495467Y-61675800D01*
X112653056Y-61874628D01*
X112858308Y-62023752D01*
X113096102Y-62112187D01*
X113348918Y-62133416D01*
X113598130Y-62085877D01*
X113825378Y-61973070D01*
X114013918Y-61803308D01*
X114149861Y-61589096D01*
X114223384Y-61345575D01*
X114226231Y-61073795D01*
X114157823Y-60828787D01*
X114026397Y-60611776D01*
X113841453Y-60438102D01*
X113616617Y-60320561D01*
X113368455Y-60267813D01*
X113115251Y-60283742D01*
X112875656Y-60367179D01*
X112667325Y-60511972D01*
X112505607Y-60707456D01*
X112402416Y-60939228D01*
X112365353Y-61190212D01*
X110149772Y-61190212D01*
X108319347Y-59359787D01*
X108245798Y-59279803D01*
X108175097Y-59235966D01*
X108108846Y-59185678D01*
X108067746Y-59169406D01*
X108026156Y-59143619D01*
X107975328Y-59132815D01*
X107872956Y-59092283D01*
X107620641Y-59065764D01*
X107571951Y-59074000D01*
X103926000Y-59074000D01*
X103926000Y-57628437D01*
X113872500Y-57628437D01*
X113910540Y-57929555D01*
X113989095Y-58222724D01*
X114106710Y-58502521D01*
X114261210Y-58763765D01*
X114449735Y-59001625D01*
X114668798Y-59211698D01*
X114914343Y-59390098D01*
X115181830Y-59533522D01*
X115466305Y-59639318D01*
X115762507Y-59705527D01*
X116064954Y-59730924D01*
X116368049Y-59715040D01*
X116666185Y-59658168D01*
X116953843Y-59561359D01*
X117225702Y-59426407D01*
X117476730Y-59255809D01*
X117702283Y-59052721D01*
X117898187Y-58820900D01*
X118060816Y-58564637D01*
X118187162Y-58288673D01*
X118274887Y-57998116D01*
X118322470Y-57697686D01*
X118326123Y-57348901D01*
X118284841Y-57047541D01*
X118203222Y-56755211D01*
X118082683Y-56476661D01*
X117925455Y-56217048D01*
X117734450Y-55981176D01*
X117513199Y-55773408D01*
X117265799Y-55597590D01*
X116996826Y-55456974D01*
X116711258Y-55354163D01*
X116414379Y-55291059D01*
X116111682Y-55268831D01*
X115808771Y-55287889D01*
X115511247Y-55347880D01*
X115224618Y-55447694D01*
X114954187Y-55585486D01*
X114704958Y-55758705D01*
X114481545Y-55964144D01*
X114288080Y-56198003D01*
X114128143Y-56455955D01*
X114004693Y-56733226D01*
X113920016Y-57024687D01*
X113875679Y-57324942D01*
X113872500Y-57628437D01*
X103926000Y-57628437D01*
X103926000Y-57180623D01*
X103966511Y-57138305D01*
X103999920Y-57086564D01*
X104108128Y-57224319D01*
X104284820Y-57377644D01*
X104487318Y-57494793D01*
X104708316Y-57571536D01*
X104939838Y-57605105D01*
X105173529Y-57594288D01*
X105400961Y-57539477D01*
X105613923Y-57442649D01*
X105804737Y-57307297D01*
X105966511Y-57138305D01*
X105999920Y-57086564D01*
X106108128Y-57224319D01*
X106284820Y-57377644D01*
X106487318Y-57494793D01*
X106708316Y-57571536D01*
X106939838Y-57605105D01*
X107173529Y-57594288D01*
X107400961Y-57539477D01*
X107613923Y-57442649D01*
X107804737Y-57307297D01*
X107908183Y-57199236D01*
X107977618Y-57307279D01*
X108169730Y-57473745D01*
X108400958Y-57579343D01*
X108643558Y-57614224D01*
X108872000Y-57614224D01*
X108872000Y-56228000D01*
X109128000Y-56228000D01*
X109128000Y-57614224D01*
X109360976Y-57614224D01*
X109714549Y-57537309D01*
X109932279Y-57397382D01*
X110098745Y-57205270D01*
X110204343Y-56974042D01*
X110239224Y-56731442D01*
X110239224Y-56228000D01*
X109128000Y-56228000D01*
X108872000Y-56228000D01*
X108872000Y-54585776D01*
X109128000Y-54585776D01*
X109128000Y-55972000D01*
X110239224Y-55972000D01*
X110239224Y-55464024D01*
X110162309Y-55110451D01*
X110022382Y-54892721D01*
X109830270Y-54726255D01*
X109599042Y-54620657D01*
X109356442Y-54585776D01*
X109128000Y-54585776D01*
X108872000Y-54585776D01*
X108639024Y-54585776D01*
X108285451Y-54662691D01*
X108067721Y-54802618D01*
X107904182Y-54991352D01*
X107891872Y-54975681D01*
X107715180Y-54822356D01*
X107512682Y-54705207D01*
X107291684Y-54628464D01*
X107060162Y-54594895D01*
X106826471Y-54605712D01*
X106599039Y-54660523D01*
X106386076Y-54757351D01*
X106195264Y-54892704D01*
X106033490Y-55061695D01*
X106000081Y-55113437D01*
X105891872Y-54975681D01*
X105715180Y-54822356D01*
X105512682Y-54705207D01*
X105291684Y-54628464D01*
X105060162Y-54594895D01*
X104826471Y-54605712D01*
X104599039Y-54660523D01*
X104386076Y-54757351D01*
X104195264Y-54892704D01*
X104033490Y-55061695D01*
X104000081Y-55113437D01*
X103891872Y-54975681D01*
X103715180Y-54822356D01*
X103512682Y-54705207D01*
X103291684Y-54628464D01*
X103060162Y-54594895D01*
X102826471Y-54605712D01*
X102599039Y-54660523D01*
X102386076Y-54757351D01*
X102195264Y-54892704D01*
X102033490Y-55061695D01*
X101906589Y-55258229D01*
X101817977Y-55478102D01*
X101774000Y-55781408D01*
X101774000Y-56433433D01*
X101790644Y-56607884D01*
X101856499Y-56832367D01*
X101963616Y-57040346D01*
X102074000Y-57180872D01*
X102074000Y-58063859D01*
X102074001Y-58063866D01*
X102074000Y-59454435D01*
X102069451Y-59562963D01*
X102088446Y-59643948D01*
X102099734Y-59726357D01*
X102117292Y-59766931D01*
X102128465Y-59814571D01*
X102156765Y-59858148D01*
X102200493Y-59959198D01*
X102360156Y-60156365D01*
X102400416Y-60184976D01*
X102855663Y-60640224D01*
X102929202Y-60720197D01*
X102999901Y-60764033D01*
X103066151Y-60814320D01*
X103107254Y-60830594D01*
X103148847Y-60856382D01*
X103199671Y-60867185D01*
X103302043Y-60907717D01*
X103554359Y-60934236D01*
X103603049Y-60926000D01*
X107266441Y-60926000D01*
X111402783Y-65062344D01*
X111367348Y-65086972D01*
X111205630Y-65282456D01*
X111155515Y-65395018D01*
X111093214Y-65292147D01*
X110908270Y-65118473D01*
X110683434Y-65000932D01*
X110435272Y-64948184D01*
X110182068Y-64964113D01*
X109942473Y-65047550D01*
X109734142Y-65192343D01*
X109572424Y-65387827D01*
X109469233Y-65619599D01*
X109432170Y-65870583D01*
X109463969Y-66122289D01*
X109562284Y-66356171D01*
X109719873Y-66554999D01*
X109925125Y-66704123D01*
X110162919Y-66792558D01*
X110415735Y-66813787D01*
X110664947Y-66766248D01*
X110892195Y-66653441D01*
X111080735Y-66483679D01*
X111213835Y-66273946D01*
X111353079Y-66449628D01*
X111558331Y-66598752D01*
X111796125Y-66687187D01*
X112048941Y-66708416D01*
X112298153Y-66660877D01*
X112525401Y-66548070D01*
X112624001Y-66459291D01*
X112624000Y-66931658D01*
X112615353Y-66990212D01*
X112621507Y-67038919D01*
X112619451Y-67087963D01*
X112637336Y-67164217D01*
X112647151Y-67241912D01*
X112649066Y-67246468D01*
X112649737Y-67251363D01*
X112667292Y-67291931D01*
X112678466Y-67339571D01*
X112706069Y-67382075D01*
X112745467Y-67475802D01*
X112748532Y-67479669D01*
X112750490Y-67484194D01*
X112827268Y-67579009D01*
X112903056Y-67674628D01*
X112907049Y-67677529D01*
X112910155Y-67681365D01*
X112950419Y-67709979D01*
X113460765Y-68220325D01*
X113213759Y-68167823D01*
X112960555Y-68183752D01*
X112720960Y-68267189D01*
X112512629Y-68411982D01*
X112350911Y-68607466D01*
X112247720Y-68839238D01*
X112210657Y-69090222D01*
X112242456Y-69341928D01*
X112340771Y-69575810D01*
X112498360Y-69774638D01*
X112703612Y-69923762D01*
X112941406Y-70012197D01*
X113194222Y-70033426D01*
X113443434Y-69985887D01*
X113670682Y-69873080D01*
X113859222Y-69703318D01*
X113995165Y-69489106D01*
X114068688Y-69245585D01*
X114071535Y-68973805D01*
X114016255Y-68775817D01*
X114474001Y-69233563D01*
X114474001Y-69576901D01*
X114365251Y-69583742D01*
X114125656Y-69667179D01*
X113917325Y-69811972D01*
X113755607Y-70007456D01*
X113652416Y-70239228D01*
X113630442Y-70388037D01*
X111578942Y-72439537D01*
X111578934Y-72439543D01*
X110374448Y-73644030D01*
X110376231Y-73473795D01*
X110307823Y-73228787D01*
X110176397Y-73011776D01*
X109991453Y-72838102D01*
X109766617Y-72720561D01*
X109518455Y-72667813D01*
X109265251Y-72683742D01*
X109025656Y-72767179D01*
X108873248Y-72873105D01*
X108873248Y-72348279D01*
X108908308Y-72373752D01*
X109146102Y-72462187D01*
X109398918Y-72483416D01*
X109648130Y-72435877D01*
X109875378Y-72323070D01*
X110063918Y-72153308D01*
X110199861Y-71939096D01*
X110273384Y-71695575D01*
X110276231Y-71423795D01*
X110207823Y-71178787D01*
X110076397Y-70961776D01*
X109891453Y-70788102D01*
X109673079Y-70673939D01*
X109673489Y-70634828D01*
X109605081Y-70389820D01*
X109473655Y-70172809D01*
X109288711Y-69999135D01*
X109063876Y-69881594D01*
X109027762Y-69873918D01*
X109049861Y-69839096D01*
X109123384Y-69595575D01*
X109126231Y-69323795D01*
X109057823Y-69078787D01*
X108926397Y-68861776D01*
X108741453Y-68688102D01*
X108516617Y-68570561D01*
X108268455Y-68517813D01*
X108015251Y-68533742D01*
X107775656Y-68617179D01*
X107567325Y-68761972D01*
X107405607Y-68957456D01*
X107302416Y-69189228D01*
X107265353Y-69440212D01*
X107297152Y-69691918D01*
X107395467Y-69925800D01*
X107421249Y-69958329D01*
X107421248Y-75899280D01*
X107408000Y-75912528D01*
X107370863Y-75851208D01*
X107185919Y-75677534D01*
X106961083Y-75559993D01*
X106712921Y-75507245D01*
X106459717Y-75523174D01*
X106220122Y-75606611D01*
X106066425Y-75713432D01*
X105812145Y-75713432D01*
X105814748Y-75464968D01*
X105746340Y-75219960D01*
X105614914Y-75002950D01*
X105614517Y-75002577D01*
X105614517Y-74268870D01*
X105614516Y-74268864D01*
X105614516Y-74211531D01*
X105596643Y-74156522D01*
X105587591Y-74099376D01*
X105561327Y-74047831D01*
X105543450Y-73992812D01*
X105509449Y-73946013D01*
X105483185Y-73894468D01*
X105417506Y-73828790D01*
X102920419Y-71331704D01*
X103030132Y-71158825D01*
X103103655Y-70915305D01*
X103103728Y-70908346D01*
X103186991Y-70825084D01*
X103186997Y-70825077D01*
X103229989Y-70782085D01*
X103257155Y-70728769D01*
X103292330Y-70680353D01*
X103310823Y-70623441D01*
X103337990Y-70570120D01*
X103347353Y-70511011D01*
X103365843Y-70454103D01*
X103365843Y-70394774D01*
X103365844Y-70394768D01*
X103365844Y-69944876D01*
X103464705Y-69789096D01*
X103538228Y-69545575D01*
X103541075Y-69273795D01*
X103532843Y-69244308D01*
X104612713Y-69244308D01*
X104644512Y-69496014D01*
X104742827Y-69729896D01*
X104805137Y-69808512D01*
X104702416Y-70039228D01*
X104665353Y-70290212D01*
X104697152Y-70541918D01*
X104795467Y-70775800D01*
X104953056Y-70974628D01*
X105158308Y-71123752D01*
X105396102Y-71212187D01*
X105648918Y-71233416D01*
X105898130Y-71185877D01*
X106125378Y-71073070D01*
X106313918Y-70903308D01*
X106449861Y-70689096D01*
X106523384Y-70445575D01*
X106526231Y-70173795D01*
X106457823Y-69928787D01*
X106339727Y-69733787D01*
X106397221Y-69643192D01*
X106470744Y-69399671D01*
X106473591Y-69127891D01*
X106405183Y-68882883D01*
X106273757Y-68665872D01*
X106088813Y-68492198D01*
X105863977Y-68374657D01*
X105615815Y-68321909D01*
X105362611Y-68337838D01*
X105123016Y-68421275D01*
X104914685Y-68566068D01*
X104752967Y-68761552D01*
X104649776Y-68993324D01*
X104612713Y-69244308D01*
X103532843Y-69244308D01*
X103472667Y-69028787D01*
X103341241Y-68811776D01*
X103156297Y-68638102D01*
X102931461Y-68520561D01*
X102683299Y-68467813D01*
X102430095Y-68483742D01*
X102190500Y-68567179D01*
X101982169Y-68711972D01*
X101820451Y-68907456D01*
X101717260Y-69139228D01*
X101680197Y-69390212D01*
X101711996Y-69641918D01*
X101810311Y-69875800D01*
X101836505Y-69908848D01*
X101755927Y-69936908D01*
X101620056Y-70031340D01*
X97478928Y-65890212D01*
X100565353Y-65890212D01*
X100597152Y-66141918D01*
X100695467Y-66375800D01*
X100853056Y-66574628D01*
X101058308Y-66723752D01*
X101296102Y-66812187D01*
X101548918Y-66833416D01*
X101798130Y-66785877D01*
X102025378Y-66673070D01*
X102213918Y-66503308D01*
X102349861Y-66289096D01*
X102423384Y-66045575D01*
X102426231Y-65773795D01*
X102357823Y-65528787D01*
X102226397Y-65311776D01*
X102041453Y-65138102D01*
X101816617Y-65020561D01*
X101568455Y-64967813D01*
X101315251Y-64983742D01*
X101075656Y-65067179D01*
X100867325Y-65211972D01*
X100705607Y-65407456D01*
X100602416Y-65639228D01*
X100565353Y-65890212D01*
X97478928Y-65890212D01*
X95778928Y-64190212D01*
X105465353Y-64190212D01*
X105497152Y-64441918D01*
X105595467Y-64675800D01*
X105753056Y-64874628D01*
X105958308Y-65023752D01*
X106196102Y-65112187D01*
X106448918Y-65133416D01*
X106698130Y-65085877D01*
X106925378Y-64973070D01*
X107113918Y-64803308D01*
X107249861Y-64589096D01*
X107323384Y-64345575D01*
X107326231Y-64073795D01*
X107257823Y-63828787D01*
X107126397Y-63611776D01*
X106941453Y-63438102D01*
X106716617Y-63320561D01*
X106468455Y-63267813D01*
X106215251Y-63283742D01*
X105975656Y-63367179D01*
X105767325Y-63511972D01*
X105605607Y-63707456D01*
X105502416Y-63939228D01*
X105465353Y-64190212D01*
X95778928Y-64190212D01*
X90657015Y-59068300D01*
X90657013Y-59068296D01*
X90494049Y-58905332D01*
X90442500Y-58879066D01*
X90395704Y-58845067D01*
X90340687Y-58827191D01*
X90289140Y-58800926D01*
X90231994Y-58791875D01*
X90176984Y-58774001D01*
X90119653Y-58774001D01*
X90119647Y-58774000D01*
X84232517Y-58774000D01*
X84349861Y-58589096D01*
X84423384Y-58345575D01*
X84423963Y-58290212D01*
X97365353Y-58290212D01*
X97397152Y-58541918D01*
X97495467Y-58775800D01*
X97653056Y-58974628D01*
X97858308Y-59123752D01*
X98096102Y-59212187D01*
X98348918Y-59233416D01*
X98598130Y-59185877D01*
X98825378Y-59073070D01*
X99013918Y-58903308D01*
X99149861Y-58689096D01*
X99223384Y-58445575D01*
X99226231Y-58173795D01*
X99157823Y-57928787D01*
X99026397Y-57711776D01*
X98841453Y-57538102D01*
X98616617Y-57420561D01*
X98368455Y-57367813D01*
X98115251Y-57383742D01*
X97875656Y-57467179D01*
X97667325Y-57611972D01*
X97505607Y-57807456D01*
X97402416Y-58039228D01*
X97365353Y-58290212D01*
X84423963Y-58290212D01*
X84426231Y-58073795D01*
X84357823Y-57828787D01*
X84226397Y-57611776D01*
X84041453Y-57438102D01*
X83816617Y-57320561D01*
X83568455Y-57267813D01*
X83315251Y-57283742D01*
X83075656Y-57367179D01*
X82867325Y-57511972D01*
X82705607Y-57707456D01*
X82602416Y-57939228D01*
X82565353Y-58190212D01*
X82597152Y-58441918D01*
X82695467Y-58675800D01*
X82773299Y-58774000D01*
X81779681Y-58774000D01*
X81741453Y-58738102D01*
X81516617Y-58620561D01*
X81268455Y-58567813D01*
X81015251Y-58583742D01*
X80775656Y-58667179D01*
X80567325Y-58811972D01*
X80405607Y-59007456D01*
X80302416Y-59239228D01*
X80265353Y-59490212D01*
X80297152Y-59741918D01*
X80395467Y-59975800D01*
X80553056Y-60174628D01*
X80758308Y-60323752D01*
X80996102Y-60412187D01*
X81248918Y-60433416D01*
X81498130Y-60385877D01*
X81725378Y-60273070D01*
X81777654Y-60226000D01*
X89761281Y-60226000D01*
X100012970Y-70477690D01*
X91003694Y-70477690D01*
X81967410Y-61441406D01*
X81967676Y-61415952D01*
X81899268Y-61170945D01*
X81767842Y-60953934D01*
X81582898Y-60780260D01*
X81358062Y-60662719D01*
X81109900Y-60609971D01*
X80856696Y-60625900D01*
X80617101Y-60709337D01*
X80408770Y-60854130D01*
X80247052Y-61049614D01*
X80143861Y-61281386D01*
X80106798Y-61532370D01*
X60650705Y-61532370D01*
X60607823Y-61378787D01*
X60604587Y-61373443D01*
X60673384Y-61145575D01*
X60676231Y-60873795D01*
X60607823Y-60628787D01*
X60604587Y-60623443D01*
X60673384Y-60395575D01*
X60676231Y-60123795D01*
X60607823Y-59878787D01*
X60604587Y-59873443D01*
X60673384Y-59645575D01*
X60676231Y-59373795D01*
X60607823Y-59128787D01*
X60604587Y-59123443D01*
X60663594Y-58928000D01*
X70230513Y-58928000D01*
X70293456Y-59227983D01*
X70385961Y-59462222D01*
X70516610Y-59677526D01*
X70681669Y-59867739D01*
X70876416Y-60027422D01*
X71095284Y-60152009D01*
X71334831Y-60238960D01*
X71592000Y-60273047D01*
X71592000Y-58928000D01*
X70230513Y-58928000D01*
X60663594Y-58928000D01*
X60673384Y-58895575D01*
X60675726Y-58672000D01*
X70239957Y-58672000D01*
X71592000Y-58672000D01*
X71592000Y-57326953D01*
X71848000Y-57326953D01*
X71848000Y-60299978D01*
X72214708Y-60204800D01*
X72444329Y-60101363D01*
X72653240Y-59960716D01*
X72835466Y-59786881D01*
X72985797Y-59584828D01*
X72995002Y-59566723D01*
X73125000Y-59752378D01*
X73307622Y-59935000D01*
X73519181Y-60083136D01*
X73753250Y-60192284D01*
X74002717Y-60259128D01*
X74195566Y-60276000D01*
X74324434Y-60276000D01*
X74517283Y-60259128D01*
X74766750Y-60192284D01*
X75000819Y-60083136D01*
X75212378Y-59935000D01*
X75351051Y-59796327D01*
X75395831Y-59963450D01*
X75541407Y-60136942D01*
X75732593Y-60247322D01*
X75938976Y-60283713D01*
X77666588Y-60283713D01*
X77963450Y-60204169D01*
X78136942Y-60058593D01*
X78247322Y-59867407D01*
X78283713Y-59661024D01*
X78283713Y-57933412D01*
X78204169Y-57636551D01*
X78058593Y-57463058D01*
X77867407Y-57352678D01*
X77661024Y-57316287D01*
X75933412Y-57316287D01*
X75636551Y-57395831D01*
X75463058Y-57541407D01*
X75352678Y-57732593D01*
X75341779Y-57794401D01*
X75212378Y-57665000D01*
X75000819Y-57516864D01*
X74766750Y-57407716D01*
X74517283Y-57340872D01*
X74324434Y-57324000D01*
X74195566Y-57324000D01*
X74002717Y-57340872D01*
X73753250Y-57407716D01*
X73519181Y-57516864D01*
X73307622Y-57665000D01*
X73125000Y-57847622D01*
X72992658Y-58036625D01*
X72923390Y-57922474D01*
X72758331Y-57732261D01*
X72563584Y-57572578D01*
X72344716Y-57447991D01*
X72105169Y-57361040D01*
X71848000Y-57326953D01*
X71592000Y-57326953D01*
X71592000Y-57300022D01*
X71225292Y-57395200D01*
X70995671Y-57498637D01*
X70786760Y-57639284D01*
X70604534Y-57813119D01*
X70454203Y-58015172D01*
X70340064Y-58239666D01*
X70265382Y-58480181D01*
X70239957Y-58672000D01*
X60675726Y-58672000D01*
X60676231Y-58623795D01*
X60607823Y-58378787D01*
X60476397Y-58161776D01*
X60291453Y-57988102D01*
X60066617Y-57870561D01*
X59818455Y-57817813D01*
X59565251Y-57833742D01*
X59373752Y-57900430D01*
X59316617Y-57870561D01*
X59068455Y-57817813D01*
X58815251Y-57833742D01*
X58623752Y-57900430D01*
X58566617Y-57870561D01*
X58318455Y-57817813D01*
X58065251Y-57833742D01*
X57873752Y-57900430D01*
X57816617Y-57870561D01*
X57568455Y-57817813D01*
X57315251Y-57833742D01*
X57075656Y-57917179D01*
X56867325Y-58061972D01*
X56705607Y-58257456D01*
X56602416Y-58489228D01*
X56565353Y-58740212D01*
X56597152Y-58991918D01*
X56653181Y-59125207D01*
X56602416Y-59239228D01*
X56565353Y-59490212D01*
X56597152Y-59741918D01*
X56653181Y-59875207D01*
X56602416Y-59989228D01*
X56565353Y-60240212D01*
X56597152Y-60491918D01*
X56653181Y-60625207D01*
X56602416Y-60739228D01*
X56565353Y-60990212D01*
X56597152Y-61241918D01*
X56653181Y-61375207D01*
X56602416Y-61489228D01*
X56565353Y-61740212D01*
X56597152Y-61991918D01*
X56653181Y-62125207D01*
X56602416Y-62239228D01*
X56565353Y-62490212D01*
X56597152Y-62741918D01*
X56653181Y-62875207D01*
X56602416Y-62989228D01*
X56565353Y-63240212D01*
X56597152Y-63491918D01*
X56653181Y-63625207D01*
X56602416Y-63739228D01*
X56588677Y-63832268D01*
X56565251Y-63833742D01*
X56373752Y-63900430D01*
X56316617Y-63870561D01*
X56068455Y-63817813D01*
X55815251Y-63833742D01*
X55623752Y-63900430D01*
X55566617Y-63870561D01*
X55318455Y-63817813D01*
X55065251Y-63833742D01*
X54873752Y-63900430D01*
X54816617Y-63870561D01*
X54568455Y-63817813D01*
X54315251Y-63833742D01*
X54075656Y-63917179D01*
X53867325Y-64061972D01*
X53705607Y-64257456D01*
X53602416Y-64489228D01*
X53565353Y-64740212D01*
X51984351Y-64740212D01*
X51860000Y-64562622D01*
X51721327Y-64423949D01*
X51888450Y-64379169D01*
X52061942Y-64233593D01*
X52172322Y-64042407D01*
X52208713Y-63836024D01*
X52208713Y-62108412D01*
X52129169Y-61811551D01*
X51983593Y-61638058D01*
X51792407Y-61527678D01*
X51586024Y-61491287D01*
X49858412Y-61491287D01*
X49561551Y-61570831D01*
X49388058Y-61716407D01*
X49277678Y-61907593D01*
X49241287Y-62113976D01*
X49241287Y-63089569D01*
X48695017Y-62543300D01*
X48695015Y-62543296D01*
X48533713Y-62381994D01*
X48533713Y-62108412D01*
X48454169Y-61811551D01*
X48308593Y-61638058D01*
X48117407Y-61527678D01*
X47911024Y-61491287D01*
X46183412Y-61491287D01*
X45886551Y-61570831D01*
X45713058Y-61716407D01*
X45626000Y-61867198D01*
X45626000Y-57628437D01*
X47072500Y-57628437D01*
X47110540Y-57929555D01*
X47189095Y-58222724D01*
X47306710Y-58502521D01*
X47461210Y-58763765D01*
X47649735Y-59001625D01*
X47868798Y-59211698D01*
X48114343Y-59390098D01*
X48381830Y-59533522D01*
X48666305Y-59639318D01*
X48962507Y-59705527D01*
X49264954Y-59730924D01*
X49568049Y-59715040D01*
X49866185Y-59658168D01*
X50153843Y-59561359D01*
X50425702Y-59426407D01*
X50676730Y-59255809D01*
X50902283Y-59052721D01*
X51098187Y-58820900D01*
X51260816Y-58564637D01*
X51387162Y-58288673D01*
X51474887Y-57998116D01*
X51522470Y-57697686D01*
X51526123Y-57348901D01*
X51484841Y-57047541D01*
X51403222Y-56755211D01*
X51282683Y-56476661D01*
X51125455Y-56217048D01*
X50934450Y-55981176D01*
X50713199Y-55773408D01*
X50465799Y-55597590D01*
X50196826Y-55456974D01*
X49911258Y-55354163D01*
X49614379Y-55291059D01*
X49311682Y-55268831D01*
X49008771Y-55287889D01*
X48711247Y-55347880D01*
X48424618Y-55447694D01*
X48154187Y-55585486D01*
X47904958Y-55758705D01*
X47681545Y-55964144D01*
X47488080Y-56198003D01*
X47328143Y-56455955D01*
X47204693Y-56733226D01*
X47120016Y-57024687D01*
X47075679Y-57324942D01*
X47072500Y-57628437D01*
X45626000Y-57628437D01*
X45626000Y-55228000D01*
X70230513Y-55228000D01*
X70293456Y-55527983D01*
X70385961Y-55762222D01*
X70516610Y-55977526D01*
X70681669Y-56167739D01*
X70876416Y-56327422D01*
X71095284Y-56452009D01*
X71334831Y-56538960D01*
X71592000Y-56573047D01*
X71592000Y-55228000D01*
X70230513Y-55228000D01*
X45626000Y-55228000D01*
X45626000Y-53626000D01*
X71491910Y-53626000D01*
X71225292Y-53695200D01*
X71225292Y-53695200D01*
G37*
X71225292Y-53695200D02*
X70995671Y-53798637D01*
X70786760Y-53939284D01*
X70604534Y-54113119D01*
X70454203Y-54315172D01*
X70340064Y-54539666D01*
X70265382Y-54780181D01*
X70239957Y-54972000D01*
X71592000Y-54972000D01*
X71592000Y-53626000D01*
X74172706Y-53626000D01*
X74002717Y-53640872D01*
X73753250Y-53707716D01*
X73519181Y-53816864D01*
X73307622Y-53965000D01*
X73125000Y-54147622D01*
X72992658Y-54336625D01*
X72923390Y-54222474D01*
X72758331Y-54032261D01*
X72563584Y-53872578D01*
X72344716Y-53747991D01*
X72105169Y-53661040D01*
X71848000Y-53626953D01*
X71848000Y-56599978D01*
X72214708Y-56504800D01*
X72444329Y-56401363D01*
X72653240Y-56260716D01*
X72835466Y-56086881D01*
X72985797Y-55884828D01*
X72995002Y-55866723D01*
X73125000Y-56052378D01*
X73307622Y-56235000D01*
X73519181Y-56383136D01*
X73753250Y-56492284D01*
X74002717Y-56559128D01*
X74195566Y-56576000D01*
X74324434Y-56576000D01*
X74517283Y-56559128D01*
X74766750Y-56492284D01*
X75000819Y-56383136D01*
X75212378Y-56235000D01*
X75351051Y-56096327D01*
X75395831Y-56263450D01*
X75541407Y-56436942D01*
X75732593Y-56547322D01*
X75938976Y-56583713D01*
X77666588Y-56583713D01*
X77963450Y-56504169D01*
X78136942Y-56358593D01*
X78247322Y-56167407D01*
X78283713Y-55961024D01*
X78283713Y-54233412D01*
X78204169Y-53936551D01*
X78058593Y-53763058D01*
X77867407Y-53652678D01*
X77716109Y-53626000D01*
X119374000Y-53626000D01*
X119374001Y-93374000D01*
X45626000Y-93374000D01*
X45626000Y-90128437D01*
X46772500Y-90128437D01*
X46810540Y-90429555D01*
X46889095Y-90722724D01*
X47006710Y-91002521D01*
X47161210Y-91263765D01*
X47349735Y-91501625D01*
X47568798Y-91711698D01*
X47814343Y-91890098D01*
X48081830Y-92033522D01*
X48366305Y-92139318D01*
X48662507Y-92205527D01*
X48964954Y-92230924D01*
X49268049Y-92215040D01*
X49566185Y-92158168D01*
X49853843Y-92061359D01*
X50125702Y-91926407D01*
X50125969Y-91926225D01*
X90768459Y-91926225D01*
X90789790Y-92143776D01*
X90854431Y-92352595D01*
X90959739Y-92544149D01*
X91101414Y-92710618D01*
X91273669Y-92845198D01*
X91469467Y-92942392D01*
X91680809Y-92998232D01*
X91899062Y-93010434D01*
X92115312Y-92978501D01*
X92320723Y-92903737D01*
X92506906Y-92789197D01*
X92666254Y-92639559D01*
X92792259Y-92460936D01*
X92879773Y-92260624D01*
X92925268Y-92046589D01*
X92925688Y-91926225D01*
X93768459Y-91926225D01*
X93789790Y-92143776D01*
X93854431Y-92352595D01*
X93959739Y-92544149D01*
X94101414Y-92710618D01*
X94273669Y-92845198D01*
X94469467Y-92942392D01*
X94680809Y-92998232D01*
X94899062Y-93010434D01*
X95115312Y-92978501D01*
X95320723Y-92903737D01*
X95506906Y-92789197D01*
X95666254Y-92639559D01*
X95792259Y-92460936D01*
X95879773Y-92260624D01*
X95925268Y-92046589D01*
X95925339Y-92026225D01*
X103768459Y-92026225D01*
X103789790Y-92243776D01*
X103854431Y-92452595D01*
X103959739Y-92644149D01*
X104101414Y-92810618D01*
X104273669Y-92945198D01*
X104469467Y-93042392D01*
X104680809Y-93098232D01*
X104899062Y-93110434D01*
X105115312Y-93078501D01*
X105320723Y-93003737D01*
X105506906Y-92889197D01*
X105666254Y-92739559D01*
X105792259Y-92560936D01*
X105879773Y-92360624D01*
X105925268Y-92146589D01*
X105925688Y-92026225D01*
X106768459Y-92026225D01*
X106789790Y-92243776D01*
X106854431Y-92452595D01*
X106959739Y-92644149D01*
X107101414Y-92810618D01*
X107273669Y-92945198D01*
X107469467Y-93042392D01*
X107680809Y-93098232D01*
X107899062Y-93110434D01*
X108115312Y-93078501D01*
X108320723Y-93003737D01*
X108506906Y-92889197D01*
X108666254Y-92739559D01*
X108792259Y-92560936D01*
X108879773Y-92360624D01*
X108925268Y-92146589D01*
X108926056Y-91920920D01*
X108882056Y-91706573D01*
X108795942Y-91505656D01*
X108671187Y-91326157D01*
X108512888Y-91175410D01*
X108327509Y-91059573D01*
X108122625Y-90983376D01*
X107906604Y-90949935D01*
X107688271Y-90960614D01*
X107476544Y-91014975D01*
X107280072Y-91110801D01*
X107106882Y-91244176D01*
X106964049Y-91409649D01*
X106857405Y-91600466D01*
X106791309Y-91808828D01*
X106768459Y-92026225D01*
X105925688Y-92026225D01*
X105926056Y-91920920D01*
X105882056Y-91706573D01*
X105795942Y-91505656D01*
X105671187Y-91326157D01*
X105512888Y-91175410D01*
X105327509Y-91059573D01*
X105122625Y-90983376D01*
X104906604Y-90949935D01*
X104688271Y-90960614D01*
X104476544Y-91014975D01*
X104280072Y-91110801D01*
X104106882Y-91244176D01*
X103964049Y-91409649D01*
X103857405Y-91600466D01*
X103791309Y-91808828D01*
X103768459Y-92026225D01*
X95925339Y-92026225D01*
X95926056Y-91820920D01*
X95882056Y-91606573D01*
X95795942Y-91405656D01*
X95671187Y-91226157D01*
X95512888Y-91075410D01*
X95327509Y-90959573D01*
X95122625Y-90883376D01*
X94906604Y-90849935D01*
X94688271Y-90860614D01*
X94476544Y-90914975D01*
X94280072Y-91010801D01*
X94106882Y-91144176D01*
X93964049Y-91309649D01*
X93857405Y-91500466D01*
X93791309Y-91708828D01*
X93768459Y-91926225D01*
X92925688Y-91926225D01*
X92926056Y-91820920D01*
X92882056Y-91606573D01*
X92795942Y-91405656D01*
X92671187Y-91226157D01*
X92512888Y-91075410D01*
X92327509Y-90959573D01*
X92122625Y-90883376D01*
X91906604Y-90849935D01*
X91688271Y-90860614D01*
X91476544Y-90914975D01*
X91280072Y-91010801D01*
X91106882Y-91144176D01*
X90964049Y-91309649D01*
X90857405Y-91500466D01*
X90791309Y-91708828D01*
X90768459Y-91926225D01*
X50125969Y-91926225D01*
X50376730Y-91755809D01*
X50602283Y-91552721D01*
X50798187Y-91320900D01*
X50960816Y-91064637D01*
X51087162Y-90788673D01*
X51174887Y-90498116D01*
X51222470Y-90197686D01*
X51226123Y-89848901D01*
X51184841Y-89547541D01*
X51103222Y-89255211D01*
X51091447Y-89228000D01*
X54158163Y-89228000D01*
X54158163Y-90416588D01*
X54238795Y-90717512D01*
X54386185Y-90893165D01*
X54579814Y-91004956D01*
X54788976Y-91041837D01*
X55972000Y-91041837D01*
X55972000Y-89228000D01*
X56228000Y-89228000D01*
X56228000Y-91041837D01*
X57416588Y-91041837D01*
X57717512Y-90961205D01*
X57893165Y-90813815D01*
X58004956Y-90620186D01*
X58041837Y-90411024D01*
X58041837Y-89228000D01*
X56228000Y-89228000D01*
X55972000Y-89228000D01*
X54158163Y-89228000D01*
X51091447Y-89228000D01*
X51075428Y-89190981D01*
X59170750Y-89190981D01*
X59205389Y-89475143D01*
X59281649Y-89751064D01*
X59397856Y-90012682D01*
X59551455Y-90254249D01*
X59739073Y-90470461D01*
X59956589Y-90656565D01*
X60199223Y-90808475D01*
X60461646Y-90922852D01*
X60738093Y-90997184D01*
X61022490Y-91029839D01*
X61308589Y-91020097D01*
X61590107Y-90968176D01*
X61860858Y-90875212D01*
X62114893Y-90743252D01*
X62346633Y-90575192D01*
X62550987Y-90374724D01*
X62723465Y-90146253D01*
X62733158Y-90128437D01*
X113772500Y-90128437D01*
X113810540Y-90429555D01*
X113889095Y-90722724D01*
X114006710Y-91002521D01*
X114161210Y-91263765D01*
X114349735Y-91501625D01*
X114568798Y-91711698D01*
X114814343Y-91890098D01*
X115081830Y-92033522D01*
X115366305Y-92139318D01*
X115662507Y-92205527D01*
X115964954Y-92230924D01*
X116268049Y-92215040D01*
X116566185Y-92158168D01*
X116853843Y-92061359D01*
X117125702Y-91926407D01*
X117376730Y-91755809D01*
X117602283Y-91552721D01*
X117798187Y-91320900D01*
X117960816Y-91064637D01*
X118087162Y-90788673D01*
X118174887Y-90498116D01*
X118222470Y-90197686D01*
X118226123Y-89848901D01*
X118184841Y-89547541D01*
X118103222Y-89255211D01*
X117982683Y-88976661D01*
X117825455Y-88717048D01*
X117634450Y-88481176D01*
X117413199Y-88273408D01*
X117165799Y-88097590D01*
X116896826Y-87956974D01*
X116611258Y-87854163D01*
X116314379Y-87791059D01*
X116011682Y-87768831D01*
X115708771Y-87787889D01*
X115411247Y-87847880D01*
X115124618Y-87947694D01*
X114854187Y-88085486D01*
X114604958Y-88258705D01*
X114381545Y-88464144D01*
X114188080Y-88698003D01*
X114028143Y-88955955D01*
X113904693Y-89233226D01*
X113820016Y-89524687D01*
X113775679Y-89824942D01*
X113772500Y-90128437D01*
X62733158Y-90128437D01*
X62860279Y-89894797D01*
X62958423Y-89625881D01*
X63016072Y-89343786D01*
X63026452Y-88960191D01*
X62984142Y-88675390D01*
X62900685Y-88401561D01*
X62777670Y-88143074D01*
X62617800Y-87905610D01*
X62424585Y-87694384D01*
X62202273Y-87514037D01*
X61955745Y-87368531D01*
X61690418Y-87261063D01*
X61412120Y-87193992D01*
X61126966Y-87168794D01*
X60841220Y-87186021D01*
X60561158Y-87245294D01*
X60292934Y-87345312D01*
X60042440Y-87483878D01*
X59815178Y-87657947D01*
X59616141Y-87863696D01*
X59449703Y-88096604D01*
X59319519Y-88351554D01*
X59228448Y-88622947D01*
X59178493Y-88904821D01*
X59170750Y-89190981D01*
X51075428Y-89190981D01*
X50982683Y-88976661D01*
X50825455Y-88717048D01*
X50634450Y-88481176D01*
X50413199Y-88273408D01*
X50165799Y-88097590D01*
X49896826Y-87956974D01*
X49611258Y-87854163D01*
X49314379Y-87791059D01*
X49286014Y-87788976D01*
X54158163Y-87788976D01*
X54158163Y-88972000D01*
X55972000Y-88972000D01*
X55972000Y-87158163D01*
X56228000Y-87158163D01*
X56228000Y-88972000D01*
X58041837Y-88972000D01*
X58041837Y-87783412D01*
X57961205Y-87482489D01*
X57813815Y-87306835D01*
X57620186Y-87195044D01*
X57411024Y-87158163D01*
X56228000Y-87158163D01*
X55972000Y-87158163D01*
X54783412Y-87158163D01*
X54482489Y-87238795D01*
X54306835Y-87386185D01*
X54195044Y-87579814D01*
X54158163Y-87788976D01*
X49286014Y-87788976D01*
X49011682Y-87768831D01*
X48708771Y-87787889D01*
X48411247Y-87847880D01*
X48124618Y-87947694D01*
X47854187Y-88085486D01*
X47604958Y-88258705D01*
X47381545Y-88464144D01*
X47188080Y-88698003D01*
X47028143Y-88955955D01*
X46904693Y-89233226D01*
X46820016Y-89524687D01*
X46775679Y-89824942D01*
X46772500Y-90128437D01*
X45626000Y-90128437D01*
X45626000Y-81109459D01*
X47171560Y-81109459D01*
X47526235Y-81320887D01*
X47770711Y-81417682D01*
X48027520Y-81474145D01*
X48290052Y-81488822D01*
X48551554Y-81461338D01*
X48805297Y-81392397D01*
X49044754Y-81283775D01*
X49319930Y-81100949D01*
X48250000Y-80031019D01*
X47171560Y-81109459D01*
X45626000Y-81109459D01*
X45626000Y-79832834D01*
X46610778Y-79832834D01*
X46629120Y-80095135D01*
X46689163Y-80351130D01*
X46789362Y-80594232D01*
X46993282Y-80925699D01*
X48068981Y-79850000D01*
X48431019Y-79850000D01*
X49493509Y-80912489D01*
X49618577Y-80752410D01*
X49745250Y-80521992D01*
X49833454Y-80274286D01*
X49881040Y-80015010D01*
X49884138Y-79719185D01*
X49841992Y-79458970D01*
X49758994Y-79209470D01*
X49637175Y-78976450D01*
X49534334Y-78838976D01*
X51616287Y-78838976D01*
X51616287Y-80866588D01*
X51695831Y-81163450D01*
X51841407Y-81336942D01*
X52032593Y-81447322D01*
X52238976Y-81483713D01*
X54266588Y-81483713D01*
X54563450Y-81404169D01*
X54736942Y-81258593D01*
X54847322Y-81067407D01*
X54883713Y-80861024D01*
X54883713Y-78833412D01*
X54804169Y-78536551D01*
X54658593Y-78363058D01*
X54467407Y-78252678D01*
X54261024Y-78216287D01*
X52233412Y-78216287D01*
X51936551Y-78295831D01*
X51763058Y-78441407D01*
X51652678Y-78632593D01*
X51616287Y-78838976D01*
X49534334Y-78838976D01*
X49494838Y-78786181D01*
X48431019Y-79850000D01*
X48068981Y-79850000D01*
X46996927Y-78777946D01*
X46805269Y-79075342D01*
X46700000Y-79316292D01*
X46634608Y-79570973D01*
X46610778Y-79832834D01*
X45626000Y-79832834D01*
X45626000Y-78607089D01*
X47188108Y-78607089D01*
X48250000Y-79668981D01*
X49317194Y-78601786D01*
X49074606Y-78433183D01*
X48837477Y-78319571D01*
X48585233Y-78245331D01*
X48324364Y-78212375D01*
X48061582Y-78221552D01*
X47803648Y-78272625D01*
X47557197Y-78364278D01*
X47328570Y-78494157D01*
X47188108Y-78607089D01*
X45626000Y-78607089D01*
X45626000Y-75990212D01*
X55765353Y-75990212D01*
X55797152Y-76241918D01*
X55895467Y-76475800D01*
X55974001Y-76574886D01*
X55974000Y-79557648D01*
X55974001Y-79557654D01*
X55974001Y-79614986D01*
X55991874Y-79669995D01*
X56000926Y-79727141D01*
X56027190Y-79778686D01*
X56045067Y-79833706D01*
X56079068Y-79880505D01*
X56105332Y-79932050D01*
X56268296Y-80095015D01*
X56268300Y-80095017D01*
X64619444Y-88446162D01*
X64767949Y-88594668D01*
X64819494Y-88620932D01*
X64866293Y-88654933D01*
X64921312Y-88672810D01*
X64972857Y-88699074D01*
X65030003Y-88708126D01*
X65085012Y-88725999D01*
X65142345Y-88725999D01*
X65142351Y-88726000D01*
X68523763Y-88726000D01*
X68658308Y-88823752D01*
X68896102Y-88912187D01*
X69148918Y-88933416D01*
X69398130Y-88885877D01*
X69625378Y-88773070D01*
X69813918Y-88603308D01*
X69949861Y-88389096D01*
X70023384Y-88145575D01*
X70026231Y-87873795D01*
X69957823Y-87628787D01*
X69826397Y-87411776D01*
X69641453Y-87238102D01*
X69416617Y-87120561D01*
X69168455Y-87067813D01*
X68915251Y-87083742D01*
X68675656Y-87167179D01*
X68521959Y-87274000D01*
X66773505Y-87274000D01*
X66775378Y-87273070D01*
X66963918Y-87103308D01*
X67099861Y-86889096D01*
X67173384Y-86645575D01*
X67176231Y-86373795D01*
X67173982Y-86365739D01*
X67368948Y-86444511D01*
X67658530Y-86516711D01*
X67955343Y-86547908D01*
X68253609Y-86537492D01*
X68547522Y-86485667D01*
X68831363Y-86393441D01*
X69099606Y-86262611D01*
X69459106Y-86020125D01*
X69448674Y-86009693D01*
X79751326Y-86009693D01*
X79973768Y-86183486D01*
X80232231Y-86332710D01*
X80508948Y-86444511D01*
X80798530Y-86516711D01*
X81095343Y-86547908D01*
X81393609Y-86537492D01*
X81687522Y-86485667D01*
X81971363Y-86393441D01*
X82239606Y-86262611D01*
X82332114Y-86200213D01*
X88655352Y-86200213D01*
X88687151Y-86451919D01*
X88785466Y-86685801D01*
X88943055Y-86884629D01*
X89148307Y-87033753D01*
X89386101Y-87122188D01*
X89638917Y-87143417D01*
X89754926Y-87121287D01*
X89702416Y-87239228D01*
X89665353Y-87490212D01*
X89693886Y-87716062D01*
X89609190Y-87737808D01*
X89403589Y-87838086D01*
X89222350Y-87977659D01*
X89072880Y-88150824D01*
X88961281Y-88350506D01*
X88892113Y-88568550D01*
X88868201Y-88796049D01*
X88890524Y-89023710D01*
X88958168Y-89242231D01*
X89068370Y-89442688D01*
X89216628Y-89616892D01*
X89396888Y-89757726D01*
X89601784Y-89859437D01*
X89822947Y-89917871D01*
X90051342Y-89930640D01*
X90277640Y-89897224D01*
X90492597Y-89818986D01*
X90687431Y-89699122D01*
X90854185Y-89542531D01*
X90986045Y-89355607D01*
X91077626Y-89145988D01*
X91125232Y-88922016D01*
X91126056Y-88685842D01*
X91106426Y-88590212D01*
X91565353Y-88590212D01*
X91597152Y-88841918D01*
X91695467Y-89075800D01*
X91853056Y-89274628D01*
X92058308Y-89423752D01*
X92296102Y-89512187D01*
X92548918Y-89533416D01*
X92798130Y-89485877D01*
X93025378Y-89373070D01*
X93213918Y-89203308D01*
X93302776Y-89063290D01*
X93358168Y-89242231D01*
X93468370Y-89442688D01*
X93616628Y-89616892D01*
X93796888Y-89757726D01*
X94001784Y-89859437D01*
X94222947Y-89917871D01*
X94451342Y-89930640D01*
X94677640Y-89897224D01*
X94892597Y-89818986D01*
X95087431Y-89699122D01*
X95254185Y-89542531D01*
X95386045Y-89355607D01*
X95477626Y-89145988D01*
X95525232Y-88922016D01*
X95526056Y-88685842D01*
X95480014Y-88461544D01*
X95389899Y-88251290D01*
X95259348Y-88063451D01*
X95093692Y-87905698D01*
X94899699Y-87784478D01*
X94685293Y-87704741D01*
X94459234Y-87669746D01*
X94230756Y-87680921D01*
X94009190Y-87737808D01*
X93803589Y-87838086D01*
X93622350Y-87977659D01*
X93472880Y-88150824D01*
X93381638Y-88314082D01*
X93357823Y-88228787D01*
X93226397Y-88011776D01*
X93041453Y-87838102D01*
X92816617Y-87720561D01*
X92568455Y-87667813D01*
X92315251Y-87683742D01*
X92075656Y-87767179D01*
X91867325Y-87911972D01*
X91705607Y-88107456D01*
X91602416Y-88339228D01*
X91565353Y-88590212D01*
X91106426Y-88590212D01*
X91080014Y-88461544D01*
X91021364Y-88324703D01*
X91125378Y-88273070D01*
X91313918Y-88103308D01*
X91449861Y-87889096D01*
X91523384Y-87645575D01*
X91526231Y-87373795D01*
X91457823Y-87128787D01*
X91341068Y-86936001D01*
X103263145Y-86936001D01*
X103102761Y-87047470D01*
X102941043Y-87242954D01*
X102837852Y-87474726D01*
X102802542Y-87713839D01*
X102709190Y-87737808D01*
X102503589Y-87838086D01*
X102322350Y-87977659D01*
X102172880Y-88150824D01*
X102061281Y-88350506D01*
X101992113Y-88568550D01*
X101968201Y-88796049D01*
X101990524Y-89023710D01*
X102058168Y-89242231D01*
X102168370Y-89442688D01*
X102316628Y-89616892D01*
X102496888Y-89757726D01*
X102701784Y-89859437D01*
X102922947Y-89917871D01*
X103151342Y-89930640D01*
X103377640Y-89897224D01*
X103592597Y-89818986D01*
X103787431Y-89699122D01*
X103954185Y-89542531D01*
X104086045Y-89355607D01*
X104177626Y-89145988D01*
X104225232Y-88922016D01*
X104226056Y-88685842D01*
X104196246Y-88540620D01*
X104260814Y-88508568D01*
X104281200Y-88490212D01*
X104565353Y-88490212D01*
X104597152Y-88741918D01*
X104695467Y-88975800D01*
X104853056Y-89174628D01*
X105058308Y-89323752D01*
X105296102Y-89412187D01*
X105548918Y-89433416D01*
X105798130Y-89385877D01*
X106025378Y-89273070D01*
X106213918Y-89103308D01*
X106349861Y-88889096D01*
X106370592Y-88820432D01*
X106390524Y-89023710D01*
X106458168Y-89242231D01*
X106568370Y-89442688D01*
X106716628Y-89616892D01*
X106896888Y-89757726D01*
X107101784Y-89859437D01*
X107322947Y-89917871D01*
X107551342Y-89930640D01*
X107777640Y-89897224D01*
X107992597Y-89818986D01*
X108187431Y-89699122D01*
X108354185Y-89542531D01*
X108486045Y-89355607D01*
X108577626Y-89145988D01*
X108625232Y-88922016D01*
X108626056Y-88685842D01*
X108580014Y-88461544D01*
X108489899Y-88251290D01*
X108359348Y-88063451D01*
X108193692Y-87905698D01*
X107999699Y-87784478D01*
X107785293Y-87704741D01*
X107559234Y-87669746D01*
X107330756Y-87680921D01*
X107109190Y-87737808D01*
X106903589Y-87838086D01*
X106722350Y-87977659D01*
X106572880Y-88150824D01*
X106461281Y-88350506D01*
X106425286Y-88463975D01*
X106426231Y-88373795D01*
X106357823Y-88128787D01*
X106226397Y-87911776D01*
X106041453Y-87738102D01*
X105816617Y-87620561D01*
X105568455Y-87567813D01*
X105315251Y-87583742D01*
X105075656Y-87667179D01*
X104867325Y-87811972D01*
X104705607Y-88007456D01*
X104602416Y-88239228D01*
X104565353Y-88490212D01*
X104281200Y-88490212D01*
X104449354Y-88338806D01*
X104585297Y-88124594D01*
X104658820Y-87881073D01*
X104661667Y-87609293D01*
X104593259Y-87364285D01*
X104461833Y-87147274D01*
X104276889Y-86973600D01*
X104204968Y-86936001D01*
X115647648Y-86936001D01*
X115647654Y-86936000D01*
X115704985Y-86936000D01*
X115759995Y-86918126D01*
X115817141Y-86909075D01*
X115868688Y-86882810D01*
X115923705Y-86864934D01*
X115970501Y-86830935D01*
X116022050Y-86804669D01*
X116185014Y-86641705D01*
X116185016Y-86641701D01*
X118146749Y-84679969D01*
X118194668Y-84632051D01*
X118220933Y-84580504D01*
X118224915Y-84575023D01*
X118332368Y-84543501D01*
X118540346Y-84436384D01*
X118724319Y-84291872D01*
X118877644Y-84115180D01*
X118994793Y-83912682D01*
X119071536Y-83691684D01*
X119105105Y-83460162D01*
X119094288Y-83226470D01*
X119039477Y-82999038D01*
X118942649Y-82786075D01*
X118807296Y-82595263D01*
X118699236Y-82491817D01*
X118807279Y-82422382D01*
X118973745Y-82230270D01*
X119079343Y-81999042D01*
X119114224Y-81756442D01*
X119114224Y-81528000D01*
X116085776Y-81528000D01*
X116085776Y-81760976D01*
X116162691Y-82114549D01*
X116302618Y-82332279D01*
X116491352Y-82495818D01*
X116475681Y-82508128D01*
X116322356Y-82684820D01*
X116205207Y-82887318D01*
X116128464Y-83108316D01*
X116094895Y-83339838D01*
X116105712Y-83573530D01*
X116160523Y-83800962D01*
X116257351Y-84013925D01*
X116392704Y-84204737D01*
X116482544Y-84290739D01*
X115289282Y-85484001D01*
X90169680Y-85484001D01*
X90131452Y-85448103D01*
X89906616Y-85330562D01*
X89658454Y-85277814D01*
X89405250Y-85293743D01*
X89165655Y-85377180D01*
X88957324Y-85521973D01*
X88795606Y-85717457D01*
X88692415Y-85949229D01*
X88655352Y-86200213D01*
X82332114Y-86200213D01*
X82599106Y-86020125D01*
X81170000Y-84591019D01*
X79751326Y-86009693D01*
X69448674Y-86009693D01*
X67848981Y-84410000D01*
X68211019Y-84410000D01*
X69627322Y-85826303D01*
X69760658Y-85667396D01*
X69918811Y-85414299D01*
X70040200Y-85141653D01*
X70122464Y-84854767D01*
X70164000Y-84559224D01*
X70164000Y-84410000D01*
X79030789Y-84410000D01*
X79051608Y-84707721D01*
X79113658Y-84999646D01*
X79215734Y-85280095D01*
X79355846Y-85543609D01*
X79566052Y-85832929D01*
X80988981Y-84410000D01*
X81351019Y-84410000D01*
X82767322Y-85826303D01*
X82900658Y-85667396D01*
X83058811Y-85414299D01*
X83180200Y-85141653D01*
X83262464Y-84854767D01*
X83304000Y-84559224D01*
X83304000Y-84260776D01*
X83262464Y-83965233D01*
X83180200Y-83678347D01*
X83058811Y-83405701D01*
X82900658Y-83152604D01*
X82767322Y-82993697D01*
X81351019Y-84410000D01*
X80988981Y-84410000D01*
X79566052Y-82987071D01*
X79355846Y-83276391D01*
X79215734Y-83539905D01*
X79113658Y-83820354D01*
X79051608Y-84112279D01*
X79030789Y-84410000D01*
X70164000Y-84410000D01*
X70164000Y-84260776D01*
X70122464Y-83965233D01*
X70040200Y-83678347D01*
X69918811Y-83405701D01*
X69760658Y-83152604D01*
X69627322Y-82993697D01*
X68211019Y-84410000D01*
X67848981Y-84410000D01*
X66426052Y-82987071D01*
X66215846Y-83276391D01*
X66075734Y-83539905D01*
X65973658Y-83820354D01*
X65911608Y-84112279D01*
X65890789Y-84410000D01*
X65911608Y-84707721D01*
X65973658Y-84999646D01*
X66075734Y-85280095D01*
X66215846Y-85543609D01*
X66237148Y-85572928D01*
X66065251Y-85583742D01*
X65825656Y-85667179D01*
X65617325Y-85811972D01*
X65455607Y-86007456D01*
X65352416Y-86239228D01*
X65315353Y-86490212D01*
X65347152Y-86741918D01*
X65445467Y-86975800D01*
X65603056Y-87174628D01*
X65739830Y-87274000D01*
X65500718Y-87274000D01*
X57426000Y-79199283D01*
X57426000Y-76584270D01*
X57549861Y-76389096D01*
X57623384Y-76145575D01*
X57626231Y-75873795D01*
X57557823Y-75628787D01*
X57426397Y-75411776D01*
X57241453Y-75238102D01*
X57016617Y-75120561D01*
X56768455Y-75067813D01*
X56515251Y-75083742D01*
X56275656Y-75167179D01*
X56067325Y-75311972D01*
X55905607Y-75507456D01*
X55802416Y-75739228D01*
X55765353Y-75990212D01*
X45626000Y-75990212D01*
X45626000Y-68489425D01*
X45715961Y-68717222D01*
X45846610Y-68932526D01*
X46011669Y-69122739D01*
X46206416Y-69282422D01*
X46425284Y-69407009D01*
X46664831Y-69493960D01*
X46922000Y-69528047D01*
X46922000Y-67927000D01*
X47178000Y-67927000D01*
X47178000Y-69554978D01*
X47502537Y-69470745D01*
X46644528Y-70328755D01*
X46565251Y-70333742D01*
X46325656Y-70417179D01*
X46117325Y-70561972D01*
X45955607Y-70757456D01*
X45852416Y-70989228D01*
X45815353Y-71240212D01*
X45847152Y-71491918D01*
X45945467Y-71725800D01*
X45983486Y-71773768D01*
X45955607Y-71807469D01*
X45852416Y-72039241D01*
X45815353Y-72290225D01*
X45847152Y-72541931D01*
X45945467Y-72775813D01*
X45946726Y-72777402D01*
X45852416Y-72989228D01*
X45815353Y-73240212D01*
X45847152Y-73491918D01*
X45945467Y-73725800D01*
X45963242Y-73748227D01*
X45955608Y-73757455D01*
X45852416Y-73989228D01*
X45815353Y-74240212D01*
X45847152Y-74491918D01*
X45945467Y-74725800D01*
X46103056Y-74924628D01*
X46308308Y-75073752D01*
X46546102Y-75162187D01*
X46798918Y-75183416D01*
X47048130Y-75135877D01*
X47275378Y-75023070D01*
X47327654Y-74976000D01*
X61653527Y-74976000D01*
X61640353Y-75065212D01*
X61672152Y-75316918D01*
X61770467Y-75550800D01*
X61928056Y-75749628D01*
X62133308Y-75898752D01*
X62371102Y-75987187D01*
X62623918Y-76008416D01*
X62873130Y-75960877D01*
X63100378Y-75848070D01*
X63288918Y-75678308D01*
X63424861Y-75464096D01*
X63498384Y-75220575D01*
X63500946Y-74976000D01*
X63949282Y-74976000D01*
X65276361Y-76303081D01*
X65276368Y-76303087D01*
X65317949Y-76344668D01*
X65369491Y-76370930D01*
X65416293Y-76404933D01*
X65471312Y-76422810D01*
X65522857Y-76449074D01*
X65580003Y-76458126D01*
X65635012Y-76475999D01*
X65692345Y-76475999D01*
X65692351Y-76476000D01*
X75962969Y-76476000D01*
X75821948Y-76574011D01*
X70642340Y-76574011D01*
X70642334Y-76574012D01*
X70585001Y-76574012D01*
X70529992Y-76591885D01*
X70472846Y-76600937D01*
X70421301Y-76627201D01*
X70366282Y-76645078D01*
X70319483Y-76679079D01*
X70267938Y-76705343D01*
X70220020Y-76753262D01*
X64494528Y-82478755D01*
X64415251Y-82483742D01*
X64175656Y-82567179D01*
X63967325Y-82711972D01*
X63805607Y-82907456D01*
X63702416Y-83139228D01*
X63665353Y-83390212D01*
X63697152Y-83641918D01*
X63795467Y-83875800D01*
X63953056Y-84074628D01*
X64158308Y-84223752D01*
X64396102Y-84312187D01*
X64648918Y-84333416D01*
X64898130Y-84285877D01*
X65125378Y-84173070D01*
X65313918Y-84003308D01*
X65449861Y-83789096D01*
X65523384Y-83545575D01*
X65523831Y-83502886D01*
X66216410Y-82810307D01*
X66611326Y-82810307D01*
X68030000Y-84228981D01*
X69459106Y-82799875D01*
X69099606Y-82557389D01*
X68831363Y-82426559D01*
X68547522Y-82334333D01*
X68253609Y-82282508D01*
X67955343Y-82272092D01*
X67658530Y-82303289D01*
X67368948Y-82375489D01*
X67092231Y-82487290D01*
X66833768Y-82636514D01*
X66611326Y-82810307D01*
X66216410Y-82810307D01*
X68137741Y-80888976D01*
X69666287Y-80888976D01*
X69666287Y-82516588D01*
X69745831Y-82813450D01*
X69891407Y-82986942D01*
X70082593Y-83097322D01*
X70288976Y-83133713D01*
X71916588Y-83133713D01*
X72213450Y-83054169D01*
X72386942Y-82908593D01*
X72497322Y-82717407D01*
X72513797Y-82623975D01*
X72587814Y-82712186D01*
X72778956Y-82872573D01*
X72995045Y-82997331D01*
X73229514Y-83082671D01*
X73475241Y-83125999D01*
X73724759Y-83125999D01*
X73970486Y-83082671D01*
X74204955Y-82997331D01*
X74421044Y-82872573D01*
X74600000Y-82722411D01*
X74778956Y-82872573D01*
X74995045Y-82997331D01*
X75229514Y-83082671D01*
X75475241Y-83125999D01*
X75724759Y-83125999D01*
X75970486Y-83082671D01*
X76204955Y-82997331D01*
X76421044Y-82872573D01*
X76488443Y-82816018D01*
X77165001Y-82816018D01*
X77491651Y-83004609D01*
X77727436Y-83090429D01*
X77974541Y-83134000D01*
X78225459Y-83134000D01*
X78472564Y-83090429D01*
X78708349Y-83004609D01*
X79034999Y-82816018D01*
X79029288Y-82810307D01*
X79751326Y-82810307D01*
X81170000Y-84228981D01*
X82599106Y-82799875D01*
X82239606Y-82557389D01*
X81971363Y-82426559D01*
X81687522Y-82334333D01*
X81393609Y-82282508D01*
X81095343Y-82272092D01*
X80798530Y-82303289D01*
X80508948Y-82375489D01*
X80232231Y-82487290D01*
X79973768Y-82636514D01*
X79751326Y-82810307D01*
X79029288Y-82810307D01*
X78100000Y-81881019D01*
X77165001Y-82816018D01*
X76488443Y-82816018D01*
X76612186Y-82712186D01*
X76772573Y-82521044D01*
X76845381Y-82394935D01*
X76983982Y-82634999D01*
X77918981Y-81700000D01*
X78281019Y-81700000D01*
X79216018Y-82634999D01*
X79404609Y-82308349D01*
X79490429Y-82072564D01*
X79534000Y-81825459D01*
X79534000Y-81574541D01*
X79490429Y-81327436D01*
X79404609Y-81091651D01*
X79216018Y-80765001D01*
X78281019Y-81700000D01*
X77918981Y-81700000D01*
X79034999Y-80583982D01*
X78708349Y-80395391D01*
X78472564Y-80309571D01*
X78225459Y-80266000D01*
X77974541Y-80266000D01*
X77727436Y-80309571D01*
X77554912Y-80372366D01*
X77579513Y-80290884D01*
X77614272Y-80194335D01*
X77616075Y-80169783D01*
X77623384Y-80145575D01*
X77624304Y-80057736D01*
X77632854Y-79941310D01*
X77625886Y-79906752D01*
X77626231Y-79873795D01*
X77601070Y-79783680D01*
X77582706Y-79692608D01*
X77567078Y-79661937D01*
X77557823Y-79628788D01*
X77509700Y-79549326D01*
X77467526Y-79466556D01*
X77444229Y-79441221D01*
X77426397Y-79411776D01*
X77358673Y-79348179D01*
X77295799Y-79279803D01*
X77266545Y-79261665D01*
X77241453Y-79238102D01*
X77159119Y-79195058D01*
X77076154Y-79143618D01*
X77050148Y-79138090D01*
X77016617Y-79120561D01*
X76768455Y-79067813D01*
X76670116Y-79074000D01*
X76097564Y-79074000D01*
X76068455Y-79067813D01*
X75970116Y-79074000D01*
X71420564Y-79074000D01*
X71312036Y-79069451D01*
X71231051Y-79088446D01*
X71148642Y-79099734D01*
X71108068Y-79117292D01*
X71060428Y-79128465D01*
X71016851Y-79156765D01*
X70915801Y-79200493D01*
X70718635Y-79360156D01*
X70690024Y-79400416D01*
X70459765Y-79630674D01*
X70379804Y-79704201D01*
X70335973Y-79774894D01*
X70285679Y-79841154D01*
X70269405Y-79882258D01*
X70243620Y-79923845D01*
X70232817Y-79974667D01*
X70192283Y-80077044D01*
X70169176Y-80296897D01*
X69986551Y-80345831D01*
X69813058Y-80491407D01*
X69702678Y-80682593D01*
X69666287Y-80888976D01*
X68137741Y-80888976D01*
X71000707Y-78026011D01*
X75823752Y-78026011D01*
X75958297Y-78123763D01*
X76196091Y-78212198D01*
X76448907Y-78233427D01*
X76698119Y-78185888D01*
X76925367Y-78073081D01*
X77113907Y-77903319D01*
X77249850Y-77689107D01*
X77323373Y-77445586D01*
X77325461Y-77246225D01*
X80248459Y-77246225D01*
X80269790Y-77463776D01*
X80334431Y-77672595D01*
X80439739Y-77864149D01*
X80581414Y-78030618D01*
X80753669Y-78165198D01*
X80949467Y-78262392D01*
X81160809Y-78318232D01*
X81379062Y-78330434D01*
X81595312Y-78298501D01*
X81800723Y-78223737D01*
X81986906Y-78109197D01*
X82146254Y-77959559D01*
X82272259Y-77780936D01*
X82359773Y-77580624D01*
X82405268Y-77366589D01*
X82406056Y-77140920D01*
X82362056Y-76926573D01*
X82275942Y-76725656D01*
X82151187Y-76546157D01*
X81992888Y-76395410D01*
X81807509Y-76279573D01*
X81602625Y-76203376D01*
X81386604Y-76169935D01*
X81168271Y-76180614D01*
X80956544Y-76234975D01*
X80760072Y-76330801D01*
X80586882Y-76464176D01*
X80444049Y-76629649D01*
X80337405Y-76820466D01*
X80271309Y-77028828D01*
X80248459Y-77246225D01*
X77325461Y-77246225D01*
X77326220Y-77173806D01*
X77257812Y-76928798D01*
X77126386Y-76711787D01*
X76941442Y-76538113D01*
X76822630Y-76476000D01*
X76873763Y-76476000D01*
X77008308Y-76573752D01*
X77246102Y-76662187D01*
X77498918Y-76683416D01*
X77748130Y-76635877D01*
X77975378Y-76523070D01*
X78163918Y-76353308D01*
X78299861Y-76139096D01*
X78373384Y-75895575D01*
X78376231Y-75623795D01*
X78307823Y-75378787D01*
X78176397Y-75161776D01*
X77991453Y-74988102D01*
X77766617Y-74870561D01*
X77518455Y-74817813D01*
X77265251Y-74833742D01*
X77025656Y-74917179D01*
X76871959Y-75024000D01*
X75523580Y-75024000D01*
X75618577Y-74902410D01*
X75745250Y-74671992D01*
X75833454Y-74424286D01*
X75866134Y-74246225D01*
X80248459Y-74246225D01*
X80269790Y-74463776D01*
X80334431Y-74672595D01*
X80439739Y-74864149D01*
X80581414Y-75030618D01*
X80753669Y-75165198D01*
X80949467Y-75262392D01*
X81160809Y-75318232D01*
X81227893Y-75321983D01*
X81236728Y-75391918D01*
X81335043Y-75625800D01*
X81492632Y-75824628D01*
X81697884Y-75973752D01*
X81935678Y-76062187D01*
X82188494Y-76083416D01*
X82437706Y-76035877D01*
X82664954Y-75923070D01*
X82853494Y-75753308D01*
X82989437Y-75539096D01*
X83062960Y-75295575D01*
X83065807Y-75023795D01*
X82997399Y-74778787D01*
X82865973Y-74561776D01*
X82681029Y-74388102D01*
X82456193Y-74270561D01*
X82405641Y-74259816D01*
X82406056Y-74140920D01*
X82362056Y-73926573D01*
X82275942Y-73725656D01*
X82151187Y-73546157D01*
X81992888Y-73395410D01*
X81807509Y-73279573D01*
X81602625Y-73203376D01*
X81386604Y-73169935D01*
X81168271Y-73180614D01*
X80956544Y-73234975D01*
X80760072Y-73330801D01*
X80586882Y-73464176D01*
X80444049Y-73629649D01*
X80337405Y-73820466D01*
X80271309Y-74028828D01*
X80248459Y-74246225D01*
X75866134Y-74246225D01*
X75881040Y-74165010D01*
X75884138Y-73869185D01*
X75841992Y-73608970D01*
X75758994Y-73359470D01*
X75637175Y-73126450D01*
X75494838Y-72936181D01*
X74250000Y-74181020D01*
X72996927Y-72927946D01*
X72805269Y-73225342D01*
X72700000Y-73466292D01*
X72634608Y-73720973D01*
X72610778Y-73982834D01*
X72629120Y-74245135D01*
X72689163Y-74501130D01*
X72789362Y-74744232D01*
X72927140Y-74968187D01*
X72975317Y-75024000D01*
X70881425Y-75024000D01*
X70883713Y-75011024D01*
X70883713Y-72983412D01*
X70804169Y-72686551D01*
X70795307Y-72675990D01*
X73288977Y-72675990D01*
X73188108Y-72757089D01*
X74250000Y-73818981D01*
X75317194Y-72751786D01*
X75208138Y-72675990D01*
X76923774Y-72675990D01*
X77058319Y-72773742D01*
X77296113Y-72862177D01*
X77548929Y-72883406D01*
X77798141Y-72835867D01*
X78025389Y-72723060D01*
X78213929Y-72553298D01*
X78349872Y-72339086D01*
X78423395Y-72095565D01*
X78426242Y-71823785D01*
X78357834Y-71578777D01*
X78226408Y-71361766D01*
X78041464Y-71188092D01*
X77816628Y-71070551D01*
X77568466Y-71017803D01*
X77315262Y-71033732D01*
X77075667Y-71117169D01*
X76921970Y-71223990D01*
X59735022Y-71223990D01*
X59680005Y-71241866D01*
X59622868Y-71250916D01*
X59571322Y-71277180D01*
X59516304Y-71295057D01*
X59469505Y-71329058D01*
X59417959Y-71355322D01*
X59075296Y-71697986D01*
X58948897Y-71489276D01*
X58763953Y-71315602D01*
X58539117Y-71198061D01*
X58290955Y-71145313D01*
X58037751Y-71161242D01*
X57798156Y-71244679D01*
X57589825Y-71389472D01*
X57428107Y-71584956D01*
X57324916Y-71816728D01*
X57287853Y-72067712D01*
X57319652Y-72319418D01*
X57405650Y-72524000D01*
X47649710Y-72524000D01*
X47673384Y-72445588D01*
X47676231Y-72173808D01*
X47607823Y-71928800D01*
X47514159Y-71774141D01*
X47599861Y-71639096D01*
X47673384Y-71395575D01*
X47673831Y-71352886D01*
X49236505Y-69790212D01*
X80265353Y-69790212D01*
X80297152Y-70041918D01*
X80395467Y-70275800D01*
X80494197Y-70400368D01*
X80405607Y-70507456D01*
X80302416Y-70739228D01*
X80265353Y-70990212D01*
X80297152Y-71241918D01*
X80395467Y-71475800D01*
X80553056Y-71674628D01*
X80758308Y-71823752D01*
X80996102Y-71912187D01*
X81248918Y-71933416D01*
X81498130Y-71885877D01*
X81725378Y-71773070D01*
X81913918Y-71603308D01*
X82049861Y-71389096D01*
X82123384Y-71145575D01*
X82126231Y-70873795D01*
X82057823Y-70628787D01*
X82032945Y-70587707D01*
X82915355Y-70587707D01*
X82947154Y-70839413D01*
X83045469Y-71073295D01*
X83203058Y-71272123D01*
X83408310Y-71421247D01*
X83646105Y-71509682D01*
X83743663Y-71517874D01*
X83974001Y-71748213D01*
X83974000Y-77224782D01*
X83905607Y-77307456D01*
X83802416Y-77539228D01*
X83765353Y-77790212D01*
X83797152Y-78041918D01*
X83895467Y-78275800D01*
X84053056Y-78474628D01*
X84258308Y-78623752D01*
X84496102Y-78712187D01*
X84748918Y-78733416D01*
X84998130Y-78685877D01*
X85225378Y-78573070D01*
X85413918Y-78403308D01*
X85549861Y-78189096D01*
X85568961Y-78125833D01*
X85659152Y-78133406D01*
X85908364Y-78085867D01*
X86135612Y-77973060D01*
X86324152Y-77803298D01*
X86460095Y-77589086D01*
X86533618Y-77345565D01*
X86536465Y-77073785D01*
X86468057Y-76828777D01*
X86336631Y-76611767D01*
X86336234Y-76611394D01*
X86336234Y-75090212D01*
X87865353Y-75090212D01*
X87897152Y-75341918D01*
X87995467Y-75575800D01*
X88153056Y-75774628D01*
X88358308Y-75923752D01*
X88596102Y-76012187D01*
X88848918Y-76033416D01*
X89098130Y-75985877D01*
X89325378Y-75873070D01*
X89513918Y-75703308D01*
X89649861Y-75489096D01*
X89709907Y-75290212D01*
X91965353Y-75290212D01*
X91997152Y-75541918D01*
X92095467Y-75775800D01*
X92253056Y-75974628D01*
X92458308Y-76123752D01*
X92696102Y-76212187D01*
X92948918Y-76233416D01*
X93198130Y-76185877D01*
X93425378Y-76073070D01*
X93613918Y-75903308D01*
X93749861Y-75689096D01*
X93823384Y-75445575D01*
X93826231Y-75173795D01*
X93757823Y-74928787D01*
X93626397Y-74711776D01*
X93441453Y-74538102D01*
X93216617Y-74420561D01*
X92968455Y-74367813D01*
X92715251Y-74383742D01*
X92475656Y-74467179D01*
X92267325Y-74611972D01*
X92105607Y-74807456D01*
X92002416Y-75039228D01*
X91965353Y-75290212D01*
X89709907Y-75290212D01*
X89723384Y-75245575D01*
X89726231Y-74973795D01*
X89657823Y-74728787D01*
X89526397Y-74511776D01*
X89341453Y-74338102D01*
X89116617Y-74220561D01*
X88973835Y-74190212D01*
X97215353Y-74190212D01*
X97247152Y-74441918D01*
X97345467Y-74675800D01*
X97503056Y-74874628D01*
X97708308Y-75023752D01*
X97946102Y-75112187D01*
X98198918Y-75133416D01*
X98448130Y-75085877D01*
X98675378Y-74973070D01*
X98863918Y-74803308D01*
X98999861Y-74589096D01*
X99073384Y-74345575D01*
X99076231Y-74073795D01*
X99007823Y-73828787D01*
X98876397Y-73611776D01*
X98691453Y-73438102D01*
X98466617Y-73320561D01*
X98218455Y-73267813D01*
X97965251Y-73283742D01*
X97725656Y-73367179D01*
X97517325Y-73511972D01*
X97355607Y-73707456D01*
X97252416Y-73939228D01*
X97215353Y-74190212D01*
X88973835Y-74190212D01*
X88868455Y-74167813D01*
X88615251Y-74183742D01*
X88375656Y-74267179D01*
X88167325Y-74411972D01*
X88005607Y-74607456D01*
X87902416Y-74839228D01*
X87865353Y-75090212D01*
X86336234Y-75090212D01*
X86336234Y-71352587D01*
X86336233Y-71352581D01*
X86336233Y-71295249D01*
X86318359Y-71240239D01*
X86309308Y-71183094D01*
X86283043Y-71131547D01*
X86265167Y-71076530D01*
X86231166Y-71029731D01*
X86204902Y-70978185D01*
X85725965Y-70499248D01*
X85726231Y-70473796D01*
X85657823Y-70228789D01*
X85526397Y-70011778D01*
X85341453Y-69838104D01*
X85116617Y-69720563D01*
X84868455Y-69667815D01*
X84615251Y-69683744D01*
X84375656Y-69767181D01*
X84326258Y-69801513D01*
X84166619Y-69718056D01*
X83918457Y-69665308D01*
X83665253Y-69681237D01*
X83425658Y-69764674D01*
X83217327Y-69909467D01*
X83055609Y-70104951D01*
X82952418Y-70336723D01*
X82915355Y-70587707D01*
X82032945Y-70587707D01*
X81926397Y-70411776D01*
X81915211Y-70401271D01*
X82049861Y-70189096D01*
X82123384Y-69945575D01*
X82126231Y-69673795D01*
X82057823Y-69428787D01*
X81926397Y-69211776D01*
X81741453Y-69038102D01*
X81516617Y-68920561D01*
X81268455Y-68867813D01*
X81015251Y-68883742D01*
X80775656Y-68967179D01*
X80567325Y-69111972D01*
X80405607Y-69307456D01*
X80302416Y-69539228D01*
X80265353Y-69790212D01*
X49236505Y-69790212D01*
X49346748Y-69679970D01*
X49394667Y-69632052D01*
X49420931Y-69580506D01*
X49454932Y-69533707D01*
X49472809Y-69478689D01*
X49499073Y-69427143D01*
X49508123Y-69370006D01*
X49525999Y-69314989D01*
X49525999Y-68937584D01*
X49686669Y-69122739D01*
X49881416Y-69282422D01*
X50100284Y-69407009D01*
X50339831Y-69493960D01*
X50597000Y-69528047D01*
X50597000Y-68183000D01*
X50853000Y-68183000D01*
X50853000Y-69554978D01*
X51219708Y-69459800D01*
X51449329Y-69356363D01*
X51658240Y-69215716D01*
X51840466Y-69041881D01*
X51990797Y-68839828D01*
X52104936Y-68615334D01*
X52179618Y-68374819D01*
X52197459Y-68240212D01*
X68315353Y-68240212D01*
X68347152Y-68491918D01*
X68445467Y-68725800D01*
X68603056Y-68924628D01*
X68808308Y-69073752D01*
X69046102Y-69162187D01*
X69298918Y-69183416D01*
X69548130Y-69135877D01*
X69775378Y-69023070D01*
X69963918Y-68853308D01*
X70099861Y-68639096D01*
X70173384Y-68395575D01*
X70176231Y-68123795D01*
X70107823Y-67878787D01*
X69976397Y-67661776D01*
X69791453Y-67488102D01*
X69566617Y-67370561D01*
X69318455Y-67317813D01*
X69065251Y-67333742D01*
X68825656Y-67417179D01*
X68617325Y-67561972D01*
X68455607Y-67757456D01*
X68352416Y-67989228D01*
X68315353Y-68240212D01*
X52197459Y-68240212D01*
X52205043Y-68183000D01*
X50853000Y-68183000D01*
X50597000Y-68183000D01*
X50597000Y-67927000D01*
X52214487Y-67927000D01*
X52151544Y-67627017D01*
X52059039Y-67392778D01*
X51928390Y-67177474D01*
X51763331Y-66987261D01*
X51568584Y-66827578D01*
X51488707Y-66782109D01*
X51677378Y-66650000D01*
X51860000Y-66467378D01*
X52008136Y-66255819D01*
X52117284Y-66021750D01*
X52184128Y-65772283D01*
X52206637Y-65515000D01*
X52184128Y-65257717D01*
X52117284Y-65008250D01*
X52008136Y-64774181D01*
X51984351Y-64740212D01*
X53565353Y-64740212D01*
X53597152Y-64991918D01*
X53653181Y-65125207D01*
X53602416Y-65239228D01*
X53565353Y-65490212D01*
X53597152Y-65741918D01*
X53695467Y-65975800D01*
X53853056Y-66174628D01*
X54058308Y-66323752D01*
X54296102Y-66412187D01*
X54548918Y-66433416D01*
X54798130Y-66385877D01*
X54874037Y-66348197D01*
X55046102Y-66412187D01*
X55298918Y-66433416D01*
X55548130Y-66385877D01*
X55624037Y-66348197D01*
X55796102Y-66412187D01*
X56048918Y-66433416D01*
X56298130Y-66385877D01*
X56374037Y-66348197D01*
X56546102Y-66412187D01*
X56798918Y-66433416D01*
X57048130Y-66385877D01*
X57124037Y-66348197D01*
X57296102Y-66412187D01*
X57548918Y-66433416D01*
X57798130Y-66385877D01*
X57874037Y-66348197D01*
X58046102Y-66412187D01*
X58298918Y-66433416D01*
X58548130Y-66385877D01*
X58624037Y-66348197D01*
X58796102Y-66412187D01*
X59048918Y-66433416D01*
X59298130Y-66385877D01*
X59374037Y-66348197D01*
X59546102Y-66412187D01*
X59798918Y-66433416D01*
X60048130Y-66385877D01*
X60275378Y-66273070D01*
X60463918Y-66103308D01*
X60599861Y-65889096D01*
X60673384Y-65645575D01*
X60676231Y-65373795D01*
X60607823Y-65128787D01*
X60604587Y-65123443D01*
X60673384Y-64895575D01*
X60676231Y-64623795D01*
X60607823Y-64378787D01*
X60604587Y-64373443D01*
X60673384Y-64145575D01*
X60676231Y-63873795D01*
X60607823Y-63628787D01*
X60604587Y-63623443D01*
X60673384Y-63395575D01*
X60676231Y-63123795D01*
X60607823Y-62878787D01*
X60604587Y-62873443D01*
X60673384Y-62645575D01*
X60676231Y-62373795D01*
X60607823Y-62128787D01*
X60604587Y-62123443D01*
X60673384Y-61895575D01*
X60676231Y-61623795D01*
X60650705Y-61532370D01*
X80106798Y-61532370D01*
X80138597Y-61784076D01*
X80236912Y-62017958D01*
X80394501Y-62216786D01*
X80599753Y-62365910D01*
X80837548Y-62454345D01*
X80935107Y-62462537D01*
X88019123Y-69546554D01*
X87969402Y-69520561D01*
X87721240Y-69467813D01*
X87468036Y-69483742D01*
X87228441Y-69567179D01*
X87020110Y-69711972D01*
X86858392Y-69907456D01*
X86755201Y-70139228D01*
X86718138Y-70390212D01*
X86749937Y-70641918D01*
X86848252Y-70875800D01*
X87005841Y-71074628D01*
X87211093Y-71223752D01*
X87448887Y-71312187D01*
X87701703Y-71333416D01*
X87950915Y-71285877D01*
X88178163Y-71173070D01*
X88366703Y-71003308D01*
X88502646Y-70789096D01*
X88576169Y-70545575D01*
X88579016Y-70273795D01*
X88514192Y-70041624D01*
X90122420Y-71649852D01*
X90270925Y-71798358D01*
X90322470Y-71824622D01*
X90369269Y-71858623D01*
X90424288Y-71876500D01*
X90475833Y-71902764D01*
X90532979Y-71911816D01*
X90587988Y-71929689D01*
X90645321Y-71929689D01*
X90645327Y-71929690D01*
X100762723Y-71929690D01*
X101857857Y-73024825D01*
X101652103Y-73037769D01*
X101412508Y-73121206D01*
X101204177Y-73265999D01*
X101042459Y-73461483D01*
X100939268Y-73693255D01*
X100902205Y-73944239D01*
X100934004Y-74195945D01*
X101032319Y-74429827D01*
X101189908Y-74628655D01*
X101251121Y-74673129D01*
X101200683Y-74786414D01*
X101163620Y-75037398D01*
X101195419Y-75289104D01*
X101293734Y-75522986D01*
X101451323Y-75721814D01*
X101656575Y-75870938D01*
X101894369Y-75959373D01*
X102147185Y-75980602D01*
X102396397Y-75933063D01*
X102623645Y-75820256D01*
X102768016Y-75690264D01*
X102795482Y-75755602D01*
X102831087Y-75800525D01*
X102824306Y-75815756D01*
X102787243Y-76066741D01*
X102819042Y-76318447D01*
X102917357Y-76552329D01*
X103074946Y-76751157D01*
X103280198Y-76900281D01*
X103517992Y-76988716D01*
X103770808Y-77009945D01*
X104020020Y-76962406D01*
X104237212Y-76854591D01*
X104416721Y-77034100D01*
X104468266Y-77060364D01*
X104515065Y-77094365D01*
X104570085Y-77112242D01*
X104621630Y-77138506D01*
X104678776Y-77147558D01*
X104733785Y-77165431D01*
X104791117Y-77165431D01*
X104791123Y-77165432D01*
X105993151Y-77165432D01*
X105968826Y-77220066D01*
X105931763Y-77471050D01*
X105963562Y-77722756D01*
X106061877Y-77956638D01*
X106219466Y-78155466D01*
X106424718Y-78304590D01*
X106662512Y-78393025D01*
X106904482Y-78413343D01*
X106953056Y-78474628D01*
X107158308Y-78623752D01*
X107396102Y-78712187D01*
X107648918Y-78733416D01*
X107898130Y-78685877D01*
X108125378Y-78573070D01*
X108313918Y-78403308D01*
X108394042Y-78277053D01*
X108458318Y-78323752D01*
X108696112Y-78412187D01*
X108948928Y-78433416D01*
X109198140Y-78385877D01*
X109425388Y-78273070D01*
X109613928Y-78103308D01*
X109749871Y-77889096D01*
X109823394Y-77645575D01*
X109826241Y-77373795D01*
X109757833Y-77128787D01*
X109626407Y-76911776D01*
X109441463Y-76738102D01*
X109370769Y-76701144D01*
X112069938Y-74001976D01*
X112210881Y-74104377D01*
X112448675Y-74192812D01*
X112701491Y-74214041D01*
X112950703Y-74166502D01*
X113177951Y-74053695D01*
X113366491Y-73883933D01*
X113502434Y-73669721D01*
X113575957Y-73426200D01*
X113578804Y-73154420D01*
X113510396Y-72909412D01*
X113379174Y-72692739D01*
X114474000Y-71597913D01*
X114474000Y-72663859D01*
X114474001Y-72663866D01*
X114474000Y-78516440D01*
X111616440Y-81374000D01*
X109279876Y-81374000D01*
X109413918Y-81253308D01*
X109549861Y-81039096D01*
X109623384Y-80795575D01*
X109625198Y-80622406D01*
X112978976Y-77268629D01*
X113096102Y-77312187D01*
X113348918Y-77333416D01*
X113598130Y-77285877D01*
X113825378Y-77173070D01*
X114013918Y-77003308D01*
X114149861Y-76789096D01*
X114223384Y-76545575D01*
X114226231Y-76273795D01*
X114157823Y-76028787D01*
X114026397Y-75811776D01*
X113841453Y-75638102D01*
X113616617Y-75520561D01*
X113581354Y-75513066D01*
X113557823Y-75428787D01*
X113426397Y-75211776D01*
X113241453Y-75038102D01*
X113016617Y-74920561D01*
X112768455Y-74867813D01*
X112515251Y-74883742D01*
X112275656Y-74967179D01*
X112067325Y-75111972D01*
X111905607Y-75307456D01*
X111802416Y-75539228D01*
X111765353Y-75790212D01*
X111797152Y-76041918D01*
X111895467Y-76275800D01*
X111905593Y-76288576D01*
X108431135Y-79763035D01*
X108401832Y-79773239D01*
X108276061Y-79655132D01*
X108051225Y-79537591D01*
X107803063Y-79484843D01*
X107549859Y-79500772D01*
X107310264Y-79584209D01*
X107101933Y-79729002D01*
X106940215Y-79924486D01*
X106837024Y-80156258D01*
X106799961Y-80407242D01*
X106831760Y-80658948D01*
X106930075Y-80892830D01*
X107087664Y-81091658D01*
X107292916Y-81240782D01*
X107530710Y-81329217D01*
X107783526Y-81350446D01*
X108032738Y-81302907D01*
X108034964Y-81301802D01*
X108053055Y-81324628D01*
X108121010Y-81374000D01*
X105370564Y-81374000D01*
X105262036Y-81369451D01*
X105181051Y-81388446D01*
X105098642Y-81399734D01*
X105058068Y-81417292D01*
X105010428Y-81428465D01*
X104966851Y-81456765D01*
X104865801Y-81500493D01*
X104668635Y-81660156D01*
X104640024Y-81700416D01*
X104025803Y-82314637D01*
X104026231Y-82273795D01*
X103957823Y-82028787D01*
X103826397Y-81811776D01*
X103641453Y-81638102D01*
X103416617Y-81520561D01*
X103168455Y-81467813D01*
X102915251Y-81483742D01*
X102675656Y-81567179D01*
X102467325Y-81711972D01*
X102305607Y-81907456D01*
X102202416Y-82139228D01*
X102165353Y-82390212D01*
X102197152Y-82641918D01*
X102295467Y-82875800D01*
X102453056Y-83074628D01*
X102658308Y-83223752D01*
X102793429Y-83274003D01*
X97624134Y-83274003D01*
X97626231Y-83073795D01*
X97557823Y-82828787D01*
X97426397Y-82611776D01*
X97241453Y-82438102D01*
X97016617Y-82320561D01*
X96975966Y-82311921D01*
X96930070Y-82147538D01*
X96798644Y-81930527D01*
X96613700Y-81756853D01*
X96388864Y-81639312D01*
X96140702Y-81586564D01*
X95887498Y-81602493D01*
X95647903Y-81685930D01*
X95439572Y-81830723D01*
X95277854Y-82026207D01*
X95174663Y-82257979D01*
X95137600Y-82508963D01*
X95169399Y-82760669D01*
X95267714Y-82994551D01*
X95425303Y-83193379D01*
X95536273Y-83274003D01*
X93683563Y-83274003D01*
X93426000Y-83016440D01*
X93426000Y-82636562D01*
X93430549Y-82528034D01*
X93411554Y-82447049D01*
X93400266Y-82364640D01*
X93382708Y-82324066D01*
X93371535Y-82276427D01*
X93343236Y-82232850D01*
X93299507Y-82131799D01*
X93139844Y-81934632D01*
X93099585Y-81906023D01*
X90553345Y-79359783D01*
X90489372Y-79290212D01*
X91365353Y-79290212D01*
X91397152Y-79541918D01*
X91495467Y-79775800D01*
X91653056Y-79974628D01*
X91858308Y-80123752D01*
X92096102Y-80212187D01*
X92348918Y-80233416D01*
X92598130Y-80185877D01*
X92825378Y-80073070D01*
X93013918Y-79903308D01*
X93149861Y-79689096D01*
X93223384Y-79445575D01*
X93226231Y-79173795D01*
X93157823Y-78928787D01*
X93026397Y-78711776D01*
X92843700Y-78540212D01*
X95815353Y-78540212D01*
X95847152Y-78791918D01*
X95945467Y-79025800D01*
X96103056Y-79224628D01*
X96308308Y-79373752D01*
X96546102Y-79462187D01*
X96798918Y-79483416D01*
X97048130Y-79435877D01*
X97275378Y-79323070D01*
X97463918Y-79153308D01*
X97599861Y-78939096D01*
X97673384Y-78695575D01*
X97676231Y-78423795D01*
X97611013Y-78190212D01*
X98565353Y-78190212D01*
X98597152Y-78441918D01*
X98695467Y-78675800D01*
X98853056Y-78874628D01*
X99058308Y-79023752D01*
X99296102Y-79112187D01*
X99548918Y-79133416D01*
X99798130Y-79085877D01*
X100025378Y-78973070D01*
X100213918Y-78803308D01*
X100349861Y-78589096D01*
X100423384Y-78345575D01*
X100426231Y-78073795D01*
X100357823Y-77828787D01*
X100226397Y-77611776D01*
X100041453Y-77438102D01*
X99816617Y-77320561D01*
X99568455Y-77267813D01*
X99315251Y-77283742D01*
X99075656Y-77367179D01*
X98867325Y-77511972D01*
X98705607Y-77707456D01*
X98602416Y-77939228D01*
X98565353Y-78190212D01*
X97611013Y-78190212D01*
X97607823Y-78178787D01*
X97476397Y-77961776D01*
X97291453Y-77788102D01*
X97066617Y-77670561D01*
X96818455Y-77617813D01*
X96565251Y-77633742D01*
X96325656Y-77717179D01*
X96117325Y-77861972D01*
X95955607Y-78057456D01*
X95852416Y-78289228D01*
X95815353Y-78540212D01*
X92843700Y-78540212D01*
X92841453Y-78538102D01*
X92616617Y-78420561D01*
X92368455Y-78367813D01*
X92115251Y-78383742D01*
X91875656Y-78467179D01*
X91667325Y-78611972D01*
X91505607Y-78807456D01*
X91402416Y-79039228D01*
X91365353Y-79290212D01*
X90489372Y-79290212D01*
X90479800Y-79279803D01*
X90409099Y-79235966D01*
X90342848Y-79185678D01*
X90301748Y-79169406D01*
X90260158Y-79143619D01*
X90209330Y-79132815D01*
X90106958Y-79092283D01*
X89854643Y-79065764D01*
X89805953Y-79074000D01*
X86897564Y-79074000D01*
X86868455Y-79067813D01*
X86770116Y-79074000D01*
X86297564Y-79074000D01*
X86268455Y-79067813D01*
X86170116Y-79074000D01*
X86136505Y-79074000D01*
X86107961Y-79077910D01*
X86015251Y-79083742D01*
X85982742Y-79095063D01*
X85948641Y-79099734D01*
X85863376Y-79136632D01*
X85775655Y-79167179D01*
X85747394Y-79186822D01*
X85715801Y-79200492D01*
X85643602Y-79258959D01*
X85567324Y-79311972D01*
X85545381Y-79338498D01*
X85518636Y-79360155D01*
X85464823Y-79435875D01*
X85405608Y-79507455D01*
X85391607Y-79538901D01*
X85371667Y-79566960D01*
X85340198Y-79654370D01*
X85302416Y-79739227D01*
X85297388Y-79773277D01*
X85285727Y-79805666D01*
X85278923Y-79898324D01*
X85265353Y-79990212D01*
X85269667Y-80024358D01*
X85267146Y-80058691D01*
X85285511Y-80149766D01*
X85297152Y-80241917D01*
X85310489Y-80273646D01*
X85317294Y-80307393D01*
X85359469Y-80390165D01*
X85395466Y-80475800D01*
X85416848Y-80502777D01*
X85432474Y-80533444D01*
X85495347Y-80601818D01*
X85553055Y-80674628D01*
X85580905Y-80694862D01*
X85604202Y-80720197D01*
X85683154Y-80769150D01*
X85758308Y-80823753D01*
X85790573Y-80835752D01*
X85823846Y-80856382D01*
X85875665Y-80867396D01*
X85996102Y-80912187D01*
X86145376Y-80924722D01*
X86151400Y-80926000D01*
X86160601Y-80926000D01*
X86248918Y-80933416D01*
X86287795Y-80926000D01*
X86760601Y-80926000D01*
X86848918Y-80933416D01*
X86887795Y-80926000D01*
X89500442Y-80926000D01*
X90085420Y-81510979D01*
X90005607Y-81607456D01*
X89902416Y-81839228D01*
X89865353Y-82090212D01*
X89897152Y-82341918D01*
X89900279Y-82349357D01*
X89739523Y-82359470D01*
X89499928Y-82442907D01*
X89291597Y-82587700D01*
X89129879Y-82783184D01*
X89026688Y-83014956D01*
X88989625Y-83265940D01*
X89021424Y-83517646D01*
X89119739Y-83751528D01*
X89277328Y-83950356D01*
X89482580Y-84099480D01*
X89720374Y-84187915D01*
X89973190Y-84209144D01*
X90222402Y-84161605D01*
X90360652Y-84092978D01*
X90395467Y-84175800D01*
X90553056Y-84374628D01*
X90758308Y-84523752D01*
X90996102Y-84612187D01*
X91248918Y-84633416D01*
X91498130Y-84585877D01*
X91664902Y-84503090D01*
X91695468Y-84575804D01*
X91698533Y-84579671D01*
X91700491Y-84584196D01*
X91777224Y-84678952D01*
X91853051Y-84774623D01*
X91857055Y-84777533D01*
X91860162Y-84781369D01*
X91959542Y-84851995D01*
X92058303Y-84923749D01*
X92062938Y-84925473D01*
X92066966Y-84928335D01*
X92181704Y-84969643D01*
X92296100Y-85012186D01*
X92301019Y-85012599D01*
X92305668Y-85014273D01*
X92427447Y-85023216D01*
X92548925Y-85033417D01*
X92553765Y-85032493D01*
X92558685Y-85032855D01*
X92678347Y-85008726D01*
X92798133Y-84985877D01*
X92801485Y-84984213D01*
X92841155Y-85014324D01*
X92882257Y-85030598D01*
X92923850Y-85056385D01*
X92974674Y-85067188D01*
X93077046Y-85107720D01*
X93329362Y-85134239D01*
X93378052Y-85126003D01*
X103429433Y-85126003D01*
X103537959Y-85130552D01*
X103618939Y-85111559D01*
X103701355Y-85100269D01*
X103741927Y-85082712D01*
X103789569Y-85071537D01*
X103833144Y-85043238D01*
X103934196Y-84999511D01*
X104131362Y-84839847D01*
X104159975Y-84799584D01*
X104236945Y-84722614D01*
X104313917Y-84653309D01*
X104327233Y-84632327D01*
X104497609Y-84461951D01*
X104545467Y-84575800D01*
X104703056Y-84774628D01*
X104908308Y-84923752D01*
X105146102Y-85012187D01*
X105398918Y-85033416D01*
X105585091Y-84997902D01*
X105758308Y-85123752D01*
X105996102Y-85212187D01*
X106248918Y-85233416D01*
X106498130Y-85185877D01*
X106725378Y-85073070D01*
X106913918Y-84903308D01*
X107049861Y-84689096D01*
X107109907Y-84490212D01*
X107515353Y-84490212D01*
X107547152Y-84741918D01*
X107645467Y-84975800D01*
X107803056Y-85174628D01*
X108008308Y-85323752D01*
X108246102Y-85412187D01*
X108498918Y-85433416D01*
X108748130Y-85385877D01*
X108975378Y-85273070D01*
X109163918Y-85103308D01*
X109299861Y-84889096D01*
X109373384Y-84645575D01*
X109376231Y-84373795D01*
X109307823Y-84128787D01*
X109176397Y-83911776D01*
X108991453Y-83738102D01*
X108766617Y-83620561D01*
X108518455Y-83567813D01*
X108265251Y-83583742D01*
X108025656Y-83667179D01*
X107817325Y-83811972D01*
X107655607Y-84007456D01*
X107552416Y-84239228D01*
X107515353Y-84490212D01*
X107109907Y-84490212D01*
X107123384Y-84445575D01*
X107126231Y-84173795D01*
X107057823Y-83928787D01*
X106926397Y-83711776D01*
X106741453Y-83538102D01*
X106516617Y-83420561D01*
X106268455Y-83367813D01*
X106015250Y-83383742D01*
X105960396Y-83402845D01*
X105891453Y-83338102D01*
X105714150Y-83245411D01*
X105733561Y-83226000D01*
X111979436Y-83226000D01*
X112087962Y-83230549D01*
X112168942Y-83211556D01*
X112251358Y-83200266D01*
X112291930Y-83182709D01*
X112339572Y-83171534D01*
X112383147Y-83143235D01*
X112484199Y-83099508D01*
X112681365Y-82939844D01*
X112709981Y-82899578D01*
X114566002Y-81043558D01*
X116085776Y-81043558D01*
X116085776Y-81272000D01*
X117472000Y-81272000D01*
X117472000Y-80160776D01*
X117728000Y-80160776D01*
X117728000Y-81272000D01*
X119114224Y-81272000D01*
X119114224Y-81039024D01*
X119037309Y-80685451D01*
X118897382Y-80467721D01*
X118705270Y-80301255D01*
X118474042Y-80195657D01*
X118231442Y-80160776D01*
X117728000Y-80160776D01*
X117472000Y-80160776D01*
X116964024Y-80160776D01*
X116610451Y-80237691D01*
X116392721Y-80377618D01*
X116226255Y-80569730D01*
X116120657Y-80800958D01*
X116085776Y-81043558D01*
X114566002Y-81043558D01*
X116040217Y-79569344D01*
X116120197Y-79495799D01*
X116164031Y-79425102D01*
X116214321Y-79358848D01*
X116230595Y-79317746D01*
X116256382Y-79276153D01*
X116267185Y-79225329D01*
X116307717Y-79122957D01*
X116334236Y-78870641D01*
X116326000Y-78821951D01*
X116326000Y-77210702D01*
X116392704Y-77304737D01*
X116561695Y-77466511D01*
X116758229Y-77593412D01*
X116978102Y-77682023D01*
X117281408Y-77726000D01*
X117933434Y-77726000D01*
X118107885Y-77709356D01*
X118332368Y-77643501D01*
X118540346Y-77536384D01*
X118724319Y-77391872D01*
X118877644Y-77215180D01*
X118994793Y-77012682D01*
X119071536Y-76791684D01*
X119105105Y-76560162D01*
X119094288Y-76326470D01*
X119039477Y-76099038D01*
X118942649Y-75886075D01*
X118807296Y-75695263D01*
X118638305Y-75533489D01*
X118586564Y-75500080D01*
X118724319Y-75391872D01*
X118877644Y-75215180D01*
X118994793Y-75012682D01*
X119071536Y-74791684D01*
X119105105Y-74560162D01*
X119094288Y-74326470D01*
X119039477Y-74099038D01*
X118942649Y-73886075D01*
X118807296Y-73695263D01*
X118638305Y-73533489D01*
X118593671Y-73504669D01*
X118729860Y-73397692D01*
X118884186Y-73219846D01*
X119002099Y-73016027D01*
X119079344Y-72793585D01*
X119103346Y-72628000D01*
X117472000Y-72628000D01*
X117472000Y-72372000D01*
X119113489Y-72372000D01*
X119047075Y-72096422D01*
X118949615Y-71882069D01*
X118813380Y-71690012D01*
X118643285Y-71527182D01*
X118593217Y-71494854D01*
X118724319Y-71391872D01*
X118877644Y-71215180D01*
X118994793Y-71012682D01*
X119071536Y-70791684D01*
X119105105Y-70560162D01*
X119094288Y-70326470D01*
X119039477Y-70099038D01*
X118942649Y-69886075D01*
X118807296Y-69695263D01*
X118638305Y-69533489D01*
X118586564Y-69500080D01*
X118724319Y-69391872D01*
X118877644Y-69215180D01*
X118994793Y-69012682D01*
X119071536Y-68791684D01*
X119105105Y-68560162D01*
X119094288Y-68326470D01*
X119039477Y-68099038D01*
X118942649Y-67886075D01*
X118807296Y-67695263D01*
X118693293Y-67586128D01*
X118801987Y-67516275D01*
X118966946Y-67325901D01*
X119071588Y-67096766D01*
X119106142Y-66856443D01*
X119106142Y-66139023D01*
X119029957Y-65788807D01*
X118891275Y-65573013D01*
X118700901Y-65408054D01*
X118471766Y-65303412D01*
X118231443Y-65268858D01*
X116964023Y-65268858D01*
X116613807Y-65345043D01*
X116398013Y-65483725D01*
X116233054Y-65674099D01*
X116128412Y-65903234D01*
X116093858Y-66143557D01*
X116093858Y-66860977D01*
X116170043Y-67211193D01*
X116308725Y-67426987D01*
X116497759Y-67590785D01*
X116475681Y-67608128D01*
X116322356Y-67784820D01*
X116205207Y-67987318D01*
X116128464Y-68208316D01*
X116119886Y-68267478D01*
X116039844Y-68168635D01*
X115999584Y-68140024D01*
X114476000Y-66616440D01*
X114476000Y-65920564D01*
X114480549Y-65812036D01*
X114461554Y-65731051D01*
X114450266Y-65648642D01*
X114432708Y-65608068D01*
X114421535Y-65560428D01*
X114393235Y-65516851D01*
X114349507Y-65415801D01*
X114189844Y-65218635D01*
X114149584Y-65190024D01*
X110149772Y-61190212D01*
X112365353Y-61190212D01*
X112397152Y-61441918D01*
X112495467Y-61675800D01*
X112653056Y-61874628D01*
X112858308Y-62023752D01*
X113096102Y-62112187D01*
X113348918Y-62133416D01*
X113598130Y-62085877D01*
X113825378Y-61973070D01*
X114013918Y-61803308D01*
X114149861Y-61589096D01*
X114223384Y-61345575D01*
X114226231Y-61073795D01*
X114157823Y-60828787D01*
X114026397Y-60611776D01*
X113841453Y-60438102D01*
X113616617Y-60320561D01*
X113368455Y-60267813D01*
X113115251Y-60283742D01*
X112875656Y-60367179D01*
X112667325Y-60511972D01*
X112505607Y-60707456D01*
X112402416Y-60939228D01*
X112365353Y-61190212D01*
X110149772Y-61190212D01*
X108319347Y-59359787D01*
X108245798Y-59279803D01*
X108175097Y-59235966D01*
X108108846Y-59185678D01*
X108067746Y-59169406D01*
X108026156Y-59143619D01*
X107975328Y-59132815D01*
X107872956Y-59092283D01*
X107620641Y-59065764D01*
X107571951Y-59074000D01*
X103926000Y-59074000D01*
X103926000Y-57628437D01*
X113872500Y-57628437D01*
X113910540Y-57929555D01*
X113989095Y-58222724D01*
X114106710Y-58502521D01*
X114261210Y-58763765D01*
X114449735Y-59001625D01*
X114668798Y-59211698D01*
X114914343Y-59390098D01*
X115181830Y-59533522D01*
X115466305Y-59639318D01*
X115762507Y-59705527D01*
X116064954Y-59730924D01*
X116368049Y-59715040D01*
X116666185Y-59658168D01*
X116953843Y-59561359D01*
X117225702Y-59426407D01*
X117476730Y-59255809D01*
X117702283Y-59052721D01*
X117898187Y-58820900D01*
X118060816Y-58564637D01*
X118187162Y-58288673D01*
X118274887Y-57998116D01*
X118322470Y-57697686D01*
X118326123Y-57348901D01*
X118284841Y-57047541D01*
X118203222Y-56755211D01*
X118082683Y-56476661D01*
X117925455Y-56217048D01*
X117734450Y-55981176D01*
X117513199Y-55773408D01*
X117265799Y-55597590D01*
X116996826Y-55456974D01*
X116711258Y-55354163D01*
X116414379Y-55291059D01*
X116111682Y-55268831D01*
X115808771Y-55287889D01*
X115511247Y-55347880D01*
X115224618Y-55447694D01*
X114954187Y-55585486D01*
X114704958Y-55758705D01*
X114481545Y-55964144D01*
X114288080Y-56198003D01*
X114128143Y-56455955D01*
X114004693Y-56733226D01*
X113920016Y-57024687D01*
X113875679Y-57324942D01*
X113872500Y-57628437D01*
X103926000Y-57628437D01*
X103926000Y-57180623D01*
X103966511Y-57138305D01*
X103999920Y-57086564D01*
X104108128Y-57224319D01*
X104284820Y-57377644D01*
X104487318Y-57494793D01*
X104708316Y-57571536D01*
X104939838Y-57605105D01*
X105173529Y-57594288D01*
X105400961Y-57539477D01*
X105613923Y-57442649D01*
X105804737Y-57307297D01*
X105966511Y-57138305D01*
X105999920Y-57086564D01*
X106108128Y-57224319D01*
X106284820Y-57377644D01*
X106487318Y-57494793D01*
X106708316Y-57571536D01*
X106939838Y-57605105D01*
X107173529Y-57594288D01*
X107400961Y-57539477D01*
X107613923Y-57442649D01*
X107804737Y-57307297D01*
X107908183Y-57199236D01*
X107977618Y-57307279D01*
X108169730Y-57473745D01*
X108400958Y-57579343D01*
X108643558Y-57614224D01*
X108872000Y-57614224D01*
X108872000Y-56228000D01*
X109128000Y-56228000D01*
X109128000Y-57614224D01*
X109360976Y-57614224D01*
X109714549Y-57537309D01*
X109932279Y-57397382D01*
X110098745Y-57205270D01*
X110204343Y-56974042D01*
X110239224Y-56731442D01*
X110239224Y-56228000D01*
X109128000Y-56228000D01*
X108872000Y-56228000D01*
X108872000Y-54585776D01*
X109128000Y-54585776D01*
X109128000Y-55972000D01*
X110239224Y-55972000D01*
X110239224Y-55464024D01*
X110162309Y-55110451D01*
X110022382Y-54892721D01*
X109830270Y-54726255D01*
X109599042Y-54620657D01*
X109356442Y-54585776D01*
X109128000Y-54585776D01*
X108872000Y-54585776D01*
X108639024Y-54585776D01*
X108285451Y-54662691D01*
X108067721Y-54802618D01*
X107904182Y-54991352D01*
X107891872Y-54975681D01*
X107715180Y-54822356D01*
X107512682Y-54705207D01*
X107291684Y-54628464D01*
X107060162Y-54594895D01*
X106826471Y-54605712D01*
X106599039Y-54660523D01*
X106386076Y-54757351D01*
X106195264Y-54892704D01*
X106033490Y-55061695D01*
X106000081Y-55113437D01*
X105891872Y-54975681D01*
X105715180Y-54822356D01*
X105512682Y-54705207D01*
X105291684Y-54628464D01*
X105060162Y-54594895D01*
X104826471Y-54605712D01*
X104599039Y-54660523D01*
X104386076Y-54757351D01*
X104195264Y-54892704D01*
X104033490Y-55061695D01*
X104000081Y-55113437D01*
X103891872Y-54975681D01*
X103715180Y-54822356D01*
X103512682Y-54705207D01*
X103291684Y-54628464D01*
X103060162Y-54594895D01*
X102826471Y-54605712D01*
X102599039Y-54660523D01*
X102386076Y-54757351D01*
X102195264Y-54892704D01*
X102033490Y-55061695D01*
X101906589Y-55258229D01*
X101817977Y-55478102D01*
X101774000Y-55781408D01*
X101774000Y-56433433D01*
X101790644Y-56607884D01*
X101856499Y-56832367D01*
X101963616Y-57040346D01*
X102074000Y-57180872D01*
X102074000Y-58063859D01*
X102074001Y-58063866D01*
X102074000Y-59454435D01*
X102069451Y-59562963D01*
X102088446Y-59643948D01*
X102099734Y-59726357D01*
X102117292Y-59766931D01*
X102128465Y-59814571D01*
X102156765Y-59858148D01*
X102200493Y-59959198D01*
X102360156Y-60156365D01*
X102400416Y-60184976D01*
X102855663Y-60640224D01*
X102929202Y-60720197D01*
X102999901Y-60764033D01*
X103066151Y-60814320D01*
X103107254Y-60830594D01*
X103148847Y-60856382D01*
X103199671Y-60867185D01*
X103302043Y-60907717D01*
X103554359Y-60934236D01*
X103603049Y-60926000D01*
X107266441Y-60926000D01*
X111402783Y-65062344D01*
X111367348Y-65086972D01*
X111205630Y-65282456D01*
X111155515Y-65395018D01*
X111093214Y-65292147D01*
X110908270Y-65118473D01*
X110683434Y-65000932D01*
X110435272Y-64948184D01*
X110182068Y-64964113D01*
X109942473Y-65047550D01*
X109734142Y-65192343D01*
X109572424Y-65387827D01*
X109469233Y-65619599D01*
X109432170Y-65870583D01*
X109463969Y-66122289D01*
X109562284Y-66356171D01*
X109719873Y-66554999D01*
X109925125Y-66704123D01*
X110162919Y-66792558D01*
X110415735Y-66813787D01*
X110664947Y-66766248D01*
X110892195Y-66653441D01*
X111080735Y-66483679D01*
X111213835Y-66273946D01*
X111353079Y-66449628D01*
X111558331Y-66598752D01*
X111796125Y-66687187D01*
X112048941Y-66708416D01*
X112298153Y-66660877D01*
X112525401Y-66548070D01*
X112624001Y-66459291D01*
X112624000Y-66931658D01*
X112615353Y-66990212D01*
X112621507Y-67038919D01*
X112619451Y-67087963D01*
X112637336Y-67164217D01*
X112647151Y-67241912D01*
X112649066Y-67246468D01*
X112649737Y-67251363D01*
X112667292Y-67291931D01*
X112678466Y-67339571D01*
X112706069Y-67382075D01*
X112745467Y-67475802D01*
X112748532Y-67479669D01*
X112750490Y-67484194D01*
X112827268Y-67579009D01*
X112903056Y-67674628D01*
X112907049Y-67677529D01*
X112910155Y-67681365D01*
X112950419Y-67709979D01*
X113460765Y-68220325D01*
X113213759Y-68167823D01*
X112960555Y-68183752D01*
X112720960Y-68267189D01*
X112512629Y-68411982D01*
X112350911Y-68607466D01*
X112247720Y-68839238D01*
X112210657Y-69090222D01*
X112242456Y-69341928D01*
X112340771Y-69575810D01*
X112498360Y-69774638D01*
X112703612Y-69923762D01*
X112941406Y-70012197D01*
X113194222Y-70033426D01*
X113443434Y-69985887D01*
X113670682Y-69873080D01*
X113859222Y-69703318D01*
X113995165Y-69489106D01*
X114068688Y-69245585D01*
X114071535Y-68973805D01*
X114016255Y-68775817D01*
X114474001Y-69233563D01*
X114474001Y-69576901D01*
X114365251Y-69583742D01*
X114125656Y-69667179D01*
X113917325Y-69811972D01*
X113755607Y-70007456D01*
X113652416Y-70239228D01*
X113630442Y-70388037D01*
X111578942Y-72439537D01*
X111578934Y-72439543D01*
X110374448Y-73644030D01*
X110376231Y-73473795D01*
X110307823Y-73228787D01*
X110176397Y-73011776D01*
X109991453Y-72838102D01*
X109766617Y-72720561D01*
X109518455Y-72667813D01*
X109265251Y-72683742D01*
X109025656Y-72767179D01*
X108873248Y-72873105D01*
X108873248Y-72348279D01*
X108908308Y-72373752D01*
X109146102Y-72462187D01*
X109398918Y-72483416D01*
X109648130Y-72435877D01*
X109875378Y-72323070D01*
X110063918Y-72153308D01*
X110199861Y-71939096D01*
X110273384Y-71695575D01*
X110276231Y-71423795D01*
X110207823Y-71178787D01*
X110076397Y-70961776D01*
X109891453Y-70788102D01*
X109673079Y-70673939D01*
X109673489Y-70634828D01*
X109605081Y-70389820D01*
X109473655Y-70172809D01*
X109288711Y-69999135D01*
X109063876Y-69881594D01*
X109027762Y-69873918D01*
X109049861Y-69839096D01*
X109123384Y-69595575D01*
X109126231Y-69323795D01*
X109057823Y-69078787D01*
X108926397Y-68861776D01*
X108741453Y-68688102D01*
X108516617Y-68570561D01*
X108268455Y-68517813D01*
X108015251Y-68533742D01*
X107775656Y-68617179D01*
X107567325Y-68761972D01*
X107405607Y-68957456D01*
X107302416Y-69189228D01*
X107265353Y-69440212D01*
X107297152Y-69691918D01*
X107395467Y-69925800D01*
X107421249Y-69958329D01*
X107421248Y-75899280D01*
X107408000Y-75912528D01*
X107370863Y-75851208D01*
X107185919Y-75677534D01*
X106961083Y-75559993D01*
X106712921Y-75507245D01*
X106459717Y-75523174D01*
X106220122Y-75606611D01*
X106066425Y-75713432D01*
X105812145Y-75713432D01*
X105814748Y-75464968D01*
X105746340Y-75219960D01*
X105614914Y-75002950D01*
X105614517Y-75002577D01*
X105614517Y-74268870D01*
X105614516Y-74268864D01*
X105614516Y-74211531D01*
X105596643Y-74156522D01*
X105587591Y-74099376D01*
X105561327Y-74047831D01*
X105543450Y-73992812D01*
X105509449Y-73946013D01*
X105483185Y-73894468D01*
X105417506Y-73828790D01*
X102920419Y-71331704D01*
X103030132Y-71158825D01*
X103103655Y-70915305D01*
X103103728Y-70908346D01*
X103186991Y-70825084D01*
X103186997Y-70825077D01*
X103229989Y-70782085D01*
X103257155Y-70728769D01*
X103292330Y-70680353D01*
X103310823Y-70623441D01*
X103337990Y-70570120D01*
X103347353Y-70511011D01*
X103365843Y-70454103D01*
X103365843Y-70394774D01*
X103365844Y-70394768D01*
X103365844Y-69944876D01*
X103464705Y-69789096D01*
X103538228Y-69545575D01*
X103541075Y-69273795D01*
X103532843Y-69244308D01*
X104612713Y-69244308D01*
X104644512Y-69496014D01*
X104742827Y-69729896D01*
X104805137Y-69808512D01*
X104702416Y-70039228D01*
X104665353Y-70290212D01*
X104697152Y-70541918D01*
X104795467Y-70775800D01*
X104953056Y-70974628D01*
X105158308Y-71123752D01*
X105396102Y-71212187D01*
X105648918Y-71233416D01*
X105898130Y-71185877D01*
X106125378Y-71073070D01*
X106313918Y-70903308D01*
X106449861Y-70689096D01*
X106523384Y-70445575D01*
X106526231Y-70173795D01*
X106457823Y-69928787D01*
X106339727Y-69733787D01*
X106397221Y-69643192D01*
X106470744Y-69399671D01*
X106473591Y-69127891D01*
X106405183Y-68882883D01*
X106273757Y-68665872D01*
X106088813Y-68492198D01*
X105863977Y-68374657D01*
X105615815Y-68321909D01*
X105362611Y-68337838D01*
X105123016Y-68421275D01*
X104914685Y-68566068D01*
X104752967Y-68761552D01*
X104649776Y-68993324D01*
X104612713Y-69244308D01*
X103532843Y-69244308D01*
X103472667Y-69028787D01*
X103341241Y-68811776D01*
X103156297Y-68638102D01*
X102931461Y-68520561D01*
X102683299Y-68467813D01*
X102430095Y-68483742D01*
X102190500Y-68567179D01*
X101982169Y-68711972D01*
X101820451Y-68907456D01*
X101717260Y-69139228D01*
X101680197Y-69390212D01*
X101711996Y-69641918D01*
X101810311Y-69875800D01*
X101836505Y-69908848D01*
X101755927Y-69936908D01*
X101620056Y-70031340D01*
X97478928Y-65890212D01*
X100565353Y-65890212D01*
X100597152Y-66141918D01*
X100695467Y-66375800D01*
X100853056Y-66574628D01*
X101058308Y-66723752D01*
X101296102Y-66812187D01*
X101548918Y-66833416D01*
X101798130Y-66785877D01*
X102025378Y-66673070D01*
X102213918Y-66503308D01*
X102349861Y-66289096D01*
X102423384Y-66045575D01*
X102426231Y-65773795D01*
X102357823Y-65528787D01*
X102226397Y-65311776D01*
X102041453Y-65138102D01*
X101816617Y-65020561D01*
X101568455Y-64967813D01*
X101315251Y-64983742D01*
X101075656Y-65067179D01*
X100867325Y-65211972D01*
X100705607Y-65407456D01*
X100602416Y-65639228D01*
X100565353Y-65890212D01*
X97478928Y-65890212D01*
X95778928Y-64190212D01*
X105465353Y-64190212D01*
X105497152Y-64441918D01*
X105595467Y-64675800D01*
X105753056Y-64874628D01*
X105958308Y-65023752D01*
X106196102Y-65112187D01*
X106448918Y-65133416D01*
X106698130Y-65085877D01*
X106925378Y-64973070D01*
X107113918Y-64803308D01*
X107249861Y-64589096D01*
X107323384Y-64345575D01*
X107326231Y-64073795D01*
X107257823Y-63828787D01*
X107126397Y-63611776D01*
X106941453Y-63438102D01*
X106716617Y-63320561D01*
X106468455Y-63267813D01*
X106215251Y-63283742D01*
X105975656Y-63367179D01*
X105767325Y-63511972D01*
X105605607Y-63707456D01*
X105502416Y-63939228D01*
X105465353Y-64190212D01*
X95778928Y-64190212D01*
X90657015Y-59068300D01*
X90657013Y-59068296D01*
X90494049Y-58905332D01*
X90442500Y-58879066D01*
X90395704Y-58845067D01*
X90340687Y-58827191D01*
X90289140Y-58800926D01*
X90231994Y-58791875D01*
X90176984Y-58774001D01*
X90119653Y-58774001D01*
X90119647Y-58774000D01*
X84232517Y-58774000D01*
X84349861Y-58589096D01*
X84423384Y-58345575D01*
X84423963Y-58290212D01*
X97365353Y-58290212D01*
X97397152Y-58541918D01*
X97495467Y-58775800D01*
X97653056Y-58974628D01*
X97858308Y-59123752D01*
X98096102Y-59212187D01*
X98348918Y-59233416D01*
X98598130Y-59185877D01*
X98825378Y-59073070D01*
X99013918Y-58903308D01*
X99149861Y-58689096D01*
X99223384Y-58445575D01*
X99226231Y-58173795D01*
X99157823Y-57928787D01*
X99026397Y-57711776D01*
X98841453Y-57538102D01*
X98616617Y-57420561D01*
X98368455Y-57367813D01*
X98115251Y-57383742D01*
X97875656Y-57467179D01*
X97667325Y-57611972D01*
X97505607Y-57807456D01*
X97402416Y-58039228D01*
X97365353Y-58290212D01*
X84423963Y-58290212D01*
X84426231Y-58073795D01*
X84357823Y-57828787D01*
X84226397Y-57611776D01*
X84041453Y-57438102D01*
X83816617Y-57320561D01*
X83568455Y-57267813D01*
X83315251Y-57283742D01*
X83075656Y-57367179D01*
X82867325Y-57511972D01*
X82705607Y-57707456D01*
X82602416Y-57939228D01*
X82565353Y-58190212D01*
X82597152Y-58441918D01*
X82695467Y-58675800D01*
X82773299Y-58774000D01*
X81779681Y-58774000D01*
X81741453Y-58738102D01*
X81516617Y-58620561D01*
X81268455Y-58567813D01*
X81015251Y-58583742D01*
X80775656Y-58667179D01*
X80567325Y-58811972D01*
X80405607Y-59007456D01*
X80302416Y-59239228D01*
X80265353Y-59490212D01*
X80297152Y-59741918D01*
X80395467Y-59975800D01*
X80553056Y-60174628D01*
X80758308Y-60323752D01*
X80996102Y-60412187D01*
X81248918Y-60433416D01*
X81498130Y-60385877D01*
X81725378Y-60273070D01*
X81777654Y-60226000D01*
X89761281Y-60226000D01*
X100012970Y-70477690D01*
X91003694Y-70477690D01*
X81967410Y-61441406D01*
X81967676Y-61415952D01*
X81899268Y-61170945D01*
X81767842Y-60953934D01*
X81582898Y-60780260D01*
X81358062Y-60662719D01*
X81109900Y-60609971D01*
X80856696Y-60625900D01*
X80617101Y-60709337D01*
X80408770Y-60854130D01*
X80247052Y-61049614D01*
X80143861Y-61281386D01*
X80106798Y-61532370D01*
X60650705Y-61532370D01*
X60607823Y-61378787D01*
X60604587Y-61373443D01*
X60673384Y-61145575D01*
X60676231Y-60873795D01*
X60607823Y-60628787D01*
X60604587Y-60623443D01*
X60673384Y-60395575D01*
X60676231Y-60123795D01*
X60607823Y-59878787D01*
X60604587Y-59873443D01*
X60673384Y-59645575D01*
X60676231Y-59373795D01*
X60607823Y-59128787D01*
X60604587Y-59123443D01*
X60663594Y-58928000D01*
X70230513Y-58928000D01*
X70293456Y-59227983D01*
X70385961Y-59462222D01*
X70516610Y-59677526D01*
X70681669Y-59867739D01*
X70876416Y-60027422D01*
X71095284Y-60152009D01*
X71334831Y-60238960D01*
X71592000Y-60273047D01*
X71592000Y-58928000D01*
X70230513Y-58928000D01*
X60663594Y-58928000D01*
X60673384Y-58895575D01*
X60675726Y-58672000D01*
X70239957Y-58672000D01*
X71592000Y-58672000D01*
X71592000Y-57326953D01*
X71848000Y-57326953D01*
X71848000Y-60299978D01*
X72214708Y-60204800D01*
X72444329Y-60101363D01*
X72653240Y-59960716D01*
X72835466Y-59786881D01*
X72985797Y-59584828D01*
X72995002Y-59566723D01*
X73125000Y-59752378D01*
X73307622Y-59935000D01*
X73519181Y-60083136D01*
X73753250Y-60192284D01*
X74002717Y-60259128D01*
X74195566Y-60276000D01*
X74324434Y-60276000D01*
X74517283Y-60259128D01*
X74766750Y-60192284D01*
X75000819Y-60083136D01*
X75212378Y-59935000D01*
X75351051Y-59796327D01*
X75395831Y-59963450D01*
X75541407Y-60136942D01*
X75732593Y-60247322D01*
X75938976Y-60283713D01*
X77666588Y-60283713D01*
X77963450Y-60204169D01*
X78136942Y-60058593D01*
X78247322Y-59867407D01*
X78283713Y-59661024D01*
X78283713Y-57933412D01*
X78204169Y-57636551D01*
X78058593Y-57463058D01*
X77867407Y-57352678D01*
X77661024Y-57316287D01*
X75933412Y-57316287D01*
X75636551Y-57395831D01*
X75463058Y-57541407D01*
X75352678Y-57732593D01*
X75341779Y-57794401D01*
X75212378Y-57665000D01*
X75000819Y-57516864D01*
X74766750Y-57407716D01*
X74517283Y-57340872D01*
X74324434Y-57324000D01*
X74195566Y-57324000D01*
X74002717Y-57340872D01*
X73753250Y-57407716D01*
X73519181Y-57516864D01*
X73307622Y-57665000D01*
X73125000Y-57847622D01*
X72992658Y-58036625D01*
X72923390Y-57922474D01*
X72758331Y-57732261D01*
X72563584Y-57572578D01*
X72344716Y-57447991D01*
X72105169Y-57361040D01*
X71848000Y-57326953D01*
X71592000Y-57326953D01*
X71592000Y-57300022D01*
X71225292Y-57395200D01*
X70995671Y-57498637D01*
X70786760Y-57639284D01*
X70604534Y-57813119D01*
X70454203Y-58015172D01*
X70340064Y-58239666D01*
X70265382Y-58480181D01*
X70239957Y-58672000D01*
X60675726Y-58672000D01*
X60676231Y-58623795D01*
X60607823Y-58378787D01*
X60476397Y-58161776D01*
X60291453Y-57988102D01*
X60066617Y-57870561D01*
X59818455Y-57817813D01*
X59565251Y-57833742D01*
X59373752Y-57900430D01*
X59316617Y-57870561D01*
X59068455Y-57817813D01*
X58815251Y-57833742D01*
X58623752Y-57900430D01*
X58566617Y-57870561D01*
X58318455Y-57817813D01*
X58065251Y-57833742D01*
X57873752Y-57900430D01*
X57816617Y-57870561D01*
X57568455Y-57817813D01*
X57315251Y-57833742D01*
X57075656Y-57917179D01*
X56867325Y-58061972D01*
X56705607Y-58257456D01*
X56602416Y-58489228D01*
X56565353Y-58740212D01*
X56597152Y-58991918D01*
X56653181Y-59125207D01*
X56602416Y-59239228D01*
X56565353Y-59490212D01*
X56597152Y-59741918D01*
X56653181Y-59875207D01*
X56602416Y-59989228D01*
X56565353Y-60240212D01*
X56597152Y-60491918D01*
X56653181Y-60625207D01*
X56602416Y-60739228D01*
X56565353Y-60990212D01*
X56597152Y-61241918D01*
X56653181Y-61375207D01*
X56602416Y-61489228D01*
X56565353Y-61740212D01*
X56597152Y-61991918D01*
X56653181Y-62125207D01*
X56602416Y-62239228D01*
X56565353Y-62490212D01*
X56597152Y-62741918D01*
X56653181Y-62875207D01*
X56602416Y-62989228D01*
X56565353Y-63240212D01*
X56597152Y-63491918D01*
X56653181Y-63625207D01*
X56602416Y-63739228D01*
X56588677Y-63832268D01*
X56565251Y-63833742D01*
X56373752Y-63900430D01*
X56316617Y-63870561D01*
X56068455Y-63817813D01*
X55815251Y-63833742D01*
X55623752Y-63900430D01*
X55566617Y-63870561D01*
X55318455Y-63817813D01*
X55065251Y-63833742D01*
X54873752Y-63900430D01*
X54816617Y-63870561D01*
X54568455Y-63817813D01*
X54315251Y-63833742D01*
X54075656Y-63917179D01*
X53867325Y-64061972D01*
X53705607Y-64257456D01*
X53602416Y-64489228D01*
X53565353Y-64740212D01*
X51984351Y-64740212D01*
X51860000Y-64562622D01*
X51721327Y-64423949D01*
X51888450Y-64379169D01*
X52061942Y-64233593D01*
X52172322Y-64042407D01*
X52208713Y-63836024D01*
X52208713Y-62108412D01*
X52129169Y-61811551D01*
X51983593Y-61638058D01*
X51792407Y-61527678D01*
X51586024Y-61491287D01*
X49858412Y-61491287D01*
X49561551Y-61570831D01*
X49388058Y-61716407D01*
X49277678Y-61907593D01*
X49241287Y-62113976D01*
X49241287Y-63089569D01*
X48695017Y-62543300D01*
X48695015Y-62543296D01*
X48533713Y-62381994D01*
X48533713Y-62108412D01*
X48454169Y-61811551D01*
X48308593Y-61638058D01*
X48117407Y-61527678D01*
X47911024Y-61491287D01*
X46183412Y-61491287D01*
X45886551Y-61570831D01*
X45713058Y-61716407D01*
X45626000Y-61867198D01*
X45626000Y-57628437D01*
X47072500Y-57628437D01*
X47110540Y-57929555D01*
X47189095Y-58222724D01*
X47306710Y-58502521D01*
X47461210Y-58763765D01*
X47649735Y-59001625D01*
X47868798Y-59211698D01*
X48114343Y-59390098D01*
X48381830Y-59533522D01*
X48666305Y-59639318D01*
X48962507Y-59705527D01*
X49264954Y-59730924D01*
X49568049Y-59715040D01*
X49866185Y-59658168D01*
X50153843Y-59561359D01*
X50425702Y-59426407D01*
X50676730Y-59255809D01*
X50902283Y-59052721D01*
X51098187Y-58820900D01*
X51260816Y-58564637D01*
X51387162Y-58288673D01*
X51474887Y-57998116D01*
X51522470Y-57697686D01*
X51526123Y-57348901D01*
X51484841Y-57047541D01*
X51403222Y-56755211D01*
X51282683Y-56476661D01*
X51125455Y-56217048D01*
X50934450Y-55981176D01*
X50713199Y-55773408D01*
X50465799Y-55597590D01*
X50196826Y-55456974D01*
X49911258Y-55354163D01*
X49614379Y-55291059D01*
X49311682Y-55268831D01*
X49008771Y-55287889D01*
X48711247Y-55347880D01*
X48424618Y-55447694D01*
X48154187Y-55585486D01*
X47904958Y-55758705D01*
X47681545Y-55964144D01*
X47488080Y-56198003D01*
X47328143Y-56455955D01*
X47204693Y-56733226D01*
X47120016Y-57024687D01*
X47075679Y-57324942D01*
X47072500Y-57628437D01*
X45626000Y-57628437D01*
X45626000Y-55228000D01*
X70230513Y-55228000D01*
X70293456Y-55527983D01*
X70385961Y-55762222D01*
X70516610Y-55977526D01*
X70681669Y-56167739D01*
X70876416Y-56327422D01*
X71095284Y-56452009D01*
X71334831Y-56538960D01*
X71592000Y-56573047D01*
X71592000Y-55228000D01*
X70230513Y-55228000D01*
X45626000Y-55228000D01*
X45626000Y-53626000D01*
X71491910Y-53626000D01*
X71225292Y-53695200D01*
M02*
