M48
; DRILL file {KiCad 5.99.0-unknown-a5c7d45~86~ubuntu18.04.1} date tis 14 jan 2020 13:59:04
; FORMAT={-:-/ absolute / metric / decimal}
; #@! TF.CreationDate,2020-01-14T13:59:04+01:00
; #@! TF.GenerationSoftware,Kicad,Pcbnew,5.99.0-unknown-a5c7d45~86~ubuntu18.04.1
; #@! TF.FileFunction,Plated,1,4,PTH
FMAT,2
METRIC
T1C0.300
T2C0.750
T3C0.920
T4C1.000
T5C1.300
T6C2.300
%
G90
G05
T1
X46.75Y-71.25
X46.75Y-72.3
X46.75Y-73.25
X46.75Y-74.25
X47.5Y-61.3
X48.2Y-61.3
X48.75Y-76.0
X48.75Y-76.75
X48.75Y-77.5
X48.9Y-61.3
X48.9Y-62.0
X48.9Y-62.7
X49.6Y-61.3
X49.6Y-69.4
X50.2Y-85.3
X50.3Y-61.3
X50.3Y-69.4
X51.0Y-69.4
X51.325Y-86.4
X51.5Y-70.5
X51.7Y-69.4
X52.4Y-62.5
X52.4Y-63.3
X52.4Y-67.3
X52.4Y-68.0
X52.4Y-68.7
X52.45Y-87.55
X54.25Y-69.25
X54.5Y-64.75
X54.5Y-65.5
X55.0Y-69.25
X55.25Y-64.75
X55.25Y-65.5
X55.75Y-69.25
X56.0Y-64.75
X56.0Y-65.5
X56.1Y-74.5
X56.5Y-69.25
X56.7Y-75.1
X56.75Y-64.75
X56.75Y-65.5
X57.2Y-71.6
X57.25Y-69.25
X57.3Y-76.6
X57.4Y-70.6
X57.5Y-58.75
X57.5Y-59.5
X57.5Y-60.25
X57.5Y-61.0
X57.5Y-61.75
X57.5Y-62.5
X57.5Y-63.25
X57.5Y-64.0
X57.5Y-64.75
X57.5Y-65.5
X58.0Y-69.25
X58.0Y-70.0
X58.25Y-58.75
X58.25Y-59.5
X58.25Y-60.25
X58.25Y-61.0
X58.25Y-61.75
X58.25Y-62.5
X58.25Y-63.25
X58.25Y-64.0
X58.25Y-64.75
X58.25Y-65.5
X58.7Y-79.3
X58.7Y-80.0
X58.7Y-80.7
X58.75Y-69.25
X58.75Y-70.0
X58.75Y-70.75
X59.0Y-58.75
X59.0Y-59.5
X59.0Y-60.25
X59.0Y-61.0
X59.0Y-61.75
X59.0Y-62.5
X59.0Y-63.25
X59.0Y-64.0
X59.0Y-64.75
X59.0Y-65.5
X59.3Y-75.9
X59.75Y-58.75
X59.75Y-59.5
X59.75Y-60.25
X59.75Y-61.0
X59.75Y-61.75
X59.75Y-62.5
X59.75Y-63.25
X59.75Y-64.0
X59.75Y-64.75
X59.75Y-65.5
X60.7Y-75.9
X62.5Y-72.9
X62.5Y-75.4
X64.6Y-83.4
X66.25Y-86.5
X69.1Y-88.0
X69.25Y-68.25
X71.34Y-84.41
X71.55Y-64.05
X71.6Y-61.0
X72.84Y-84.41
X73.931Y-68.819
X74.34Y-84.41
X75.1Y-78.9
X75.84Y-84.41
X76.0Y-80.0
X76.3Y-78.9
X76.4Y-77.3
X76.7Y-80.0
X77.3Y-78.9
X77.34Y-84.41
X77.45Y-75.75
X77.5Y-68.5
X77.5Y-69.25
X77.5Y-70.0
X77.5Y-70.75
X77.5Y-71.95
X78.1Y-78.1
X80.0Y-54.25
X80.0Y-55.0
X80.0Y-55.75
X80.0Y-56.5
X81.041Y-61.542
X81.2Y-59.5
X81.2Y-69.8
X81.2Y-71.0
X81.25Y-54.25
X81.25Y-55.0
X81.25Y-55.75
X81.25Y-56.5
X82.14Y-75.15
X83.0Y-91.5
X83.4Y-68.5
X83.5Y-58.2
X83.75Y-90.75
X83.85Y-70.597
X84.005Y-88.745
X84.005Y-89.745
X84.7Y-60.1
X84.7Y-77.8
X84.75Y-83.0
X84.75Y-84.0
X84.75Y-85.0
X84.8Y-70.6
X85.5Y-60.1
X85.5Y-68.5
X85.61Y-77.2
X86.2Y-80.0
X86.8Y-80.0
X87.6Y-60.1
X87.6Y-62.2
X87.653Y-70.4
X87.75Y-88.75
X88.25Y-76.4
X88.8Y-75.1
X89.59Y-86.21
X89.7Y-60.1
X89.7Y-62.2
X89.7Y-64.3
X89.924Y-83.276
X90.6Y-76.4
X90.6Y-87.5
X90.8Y-82.1
X91.2Y-73.2
X91.2Y-83.7
X91.5Y-54.1
X91.8Y-60.1
X91.8Y-62.2
X91.8Y-64.3
X91.8Y-66.4
X91.8Y-70.5
X92.3Y-79.3
X92.4Y-54.1
X92.5Y-83.4
X92.5Y-83.4
X92.5Y-84.1
X92.5Y-88.6
X92.7Y-81.4
X92.9Y-75.3
X93.3Y-54.1
X93.9Y-60.1
X93.9Y-62.2
X93.9Y-64.3
X93.9Y-66.4
X94.05Y-90.2
X95.8Y-80.0
X95.9Y-58.2
X96.0Y-60.1
X96.0Y-62.2
X96.0Y-64.3
X96.0Y-66.4
X96.072Y-82.519
X96.6Y-75.0
X96.65Y-88.35
X96.7Y-83.2
X96.75Y-78.55
X96.9Y-70.5
X97.98Y-66.57
X98.15Y-74.2
X98.3Y-58.3
X99.5Y-78.2
X100.85Y-88.4
X101.5Y-65.9
X101.81Y-61.99
X101.837Y-73.954
X102.098Y-75.047
X102.18Y-70.77
X102.2Y-77.589
X102.615Y-69.4
X102.96Y-61.99
X103.1Y-82.4
X103.472Y-70.103
X103.6Y-84.05
X103.6Y-75.28
X103.722Y-76.077
X103.735Y-87.735
X104.2Y-62.0
X104.2Y-83.45
X104.5Y-81.4
X104.889Y-75.591
X104.975Y-62.675
X105.35Y-84.1
X105.5Y-88.5
X105.547Y-69.254
X105.6Y-70.3
X105.65Y-63.45
X105.65Y-71.15
X105.65Y-73.15
X105.75Y-75.5
X106.1Y-77.8
X106.2Y-84.3
X106.25Y-75.0
X106.4Y-64.2
X106.644Y-76.439
X106.775Y-74.475
X106.866Y-77.481
X107.275Y-73.975
X107.6Y-77.8
X107.735Y-80.417
X108.2Y-69.45
X108.25Y-76.95
X108.45Y-84.5
X108.7Y-80.65
X108.747Y-70.761
X108.75Y-64.9
X108.85Y-72.95
X108.9Y-77.5
X109.05Y-69.8
X109.35Y-71.55
X109.45Y-73.6
X109.75Y-88.5
X110.367Y-65.88
X111.3Y-67.95
X112.0Y-65.775
X112.653Y-73.281
X112.7Y-75.8
X113.1Y-63.35
X113.145Y-69.1
X113.3Y-61.2
X113.3Y-76.4
X113.55Y-67.0
X114.55Y-70.5
X116.8Y-86.2
X117.55Y-86.2
X118.975Y-84.025
X119.3Y-74.2
X119.3Y-77.2
T2
X103.0Y-56.1
X105.0Y-56.1
X107.0Y-56.1
X109.0Y-56.1
X117.6Y-66.5
X117.6Y-68.5
X117.6Y-70.5
X117.6Y-72.5
X117.6Y-74.5
X117.6Y-76.5
X117.6Y-81.4
X117.6Y-83.4
T3
X71.1Y-81.7
X73.6Y-81.7
X75.6Y-81.7
X78.1Y-81.7
T4
X47.05Y-62.975
X47.05Y-65.515
X47.05Y-68.055
X69.25Y-74.0
X74.25Y-74.0
X48.25Y-79.85
X53.25Y-79.85
X50.725Y-62.975
X50.725Y-65.515
X50.725Y-68.055
X71.72Y-55.1
X74.26Y-55.1
X76.8Y-55.1
X71.72Y-58.8
X74.26Y-58.8
X76.8Y-58.8
T5
X56.1Y-89.1
X61.1Y-89.1
T6
X68.03Y-84.41
X81.17Y-84.41
T0
M30
