G04 #@! TF.GenerationSoftware,KiCad,Pcbnew,5.99.0-unknown-9339afc~100~ubuntu16.04.1*
G04 #@! TF.CreationDate,2019-10-23T14:24:21+02:00*
G04 #@! TF.ProjectId,f9p_board,6639705f-626f-4617-9264-2e6b69636164,rev?*
G04 #@! TF.SameCoordinates,Original*
G04 #@! TF.FileFunction,Paste,Bot*
G04 #@! TF.FilePolarity,Positive*
%FSLAX46Y46*%
G04 Gerber Fmt 4.6, Leading zero omitted, Abs format (unit mm)*
G04 Created by KiCad (PCBNEW 5.99.0-unknown-9339afc~100~ubuntu16.04.1) date 2019-10-23 14:24:21*
%MOMM*%
%LPD*%
G04 APERTURE LIST*
%ADD10C,0.100000*%
%ADD11C,0.875000*%
%ADD12R,1.000000X0.800000*%
%ADD13R,0.700000X1.500000*%
%ADD14R,1.100000X1.100000*%
%ADD15R,1.600000X0.900000*%
%ADD16R,0.900000X1.600000*%
%ADD17R,1.120000X1.720000*%
%ADD18R,0.450000X0.400000*%
G04 APERTURE END LIST*
D10*
G36*
X107239962Y-70616651D02*
G01*
X107310930Y-70664070D01*
X107358349Y-70735038D01*
X107375000Y-70818750D01*
X107375000Y-71256250D01*
X107358349Y-71339962D01*
X107310930Y-71410930D01*
X107239962Y-71458349D01*
X107156250Y-71475000D01*
X106643750Y-71475000D01*
X106560038Y-71458349D01*
X106489070Y-71410930D01*
X106441651Y-71339962D01*
X106425000Y-71256250D01*
X106425000Y-70818750D01*
X106441651Y-70735038D01*
X106489070Y-70664070D01*
X106560038Y-70616651D01*
X106643750Y-70600000D01*
X107156250Y-70600000D01*
X107239962Y-70616651D01*
X107239962Y-70616651D01*
G37*
D11*
X106900000Y-71037500D03*
D10*
G36*
X107239962Y-69041651D02*
G01*
X107310930Y-69089070D01*
X107358349Y-69160038D01*
X107375000Y-69243750D01*
X107375000Y-69681250D01*
X107358349Y-69764962D01*
X107310930Y-69835930D01*
X107239962Y-69883349D01*
X107156250Y-69900000D01*
X106643750Y-69900000D01*
X106560038Y-69883349D01*
X106489070Y-69835930D01*
X106441651Y-69764962D01*
X106425000Y-69681250D01*
X106425000Y-69243750D01*
X106441651Y-69160038D01*
X106489070Y-69089070D01*
X106560038Y-69041651D01*
X106643750Y-69025000D01*
X107156250Y-69025000D01*
X107239962Y-69041651D01*
X107239962Y-69041651D01*
G37*
D11*
X106900000Y-69462500D03*
D10*
G36*
X49939962Y-71866651D02*
G01*
X50010930Y-71914070D01*
X50058349Y-71985038D01*
X50075000Y-72068750D01*
X50075000Y-72506250D01*
X50058349Y-72589962D01*
X50010930Y-72660930D01*
X49939962Y-72708349D01*
X49856250Y-72725000D01*
X49343750Y-72725000D01*
X49260038Y-72708349D01*
X49189070Y-72660930D01*
X49141651Y-72589962D01*
X49125000Y-72506250D01*
X49125000Y-72068750D01*
X49141651Y-71985038D01*
X49189070Y-71914070D01*
X49260038Y-71866651D01*
X49343750Y-71850000D01*
X49856250Y-71850000D01*
X49939962Y-71866651D01*
X49939962Y-71866651D01*
G37*
D11*
X49600000Y-72287500D03*
D10*
G36*
X49939962Y-70291651D02*
G01*
X50010930Y-70339070D01*
X50058349Y-70410038D01*
X50075000Y-70493750D01*
X50075000Y-70931250D01*
X50058349Y-71014962D01*
X50010930Y-71085930D01*
X49939962Y-71133349D01*
X49856250Y-71150000D01*
X49343750Y-71150000D01*
X49260038Y-71133349D01*
X49189070Y-71085930D01*
X49141651Y-71014962D01*
X49125000Y-70931250D01*
X49125000Y-70493750D01*
X49141651Y-70410038D01*
X49189070Y-70339070D01*
X49260038Y-70291651D01*
X49343750Y-70275000D01*
X49856250Y-70275000D01*
X49939962Y-70291651D01*
X49939962Y-70291651D01*
G37*
D11*
X49600000Y-70712500D03*
D10*
G36*
X48439962Y-71866651D02*
G01*
X48510930Y-71914070D01*
X48558349Y-71985038D01*
X48575000Y-72068750D01*
X48575000Y-72506250D01*
X48558349Y-72589962D01*
X48510930Y-72660930D01*
X48439962Y-72708349D01*
X48356250Y-72725000D01*
X47843750Y-72725000D01*
X47760038Y-72708349D01*
X47689070Y-72660930D01*
X47641651Y-72589962D01*
X47625000Y-72506250D01*
X47625000Y-72068750D01*
X47641651Y-71985038D01*
X47689070Y-71914070D01*
X47760038Y-71866651D01*
X47843750Y-71850000D01*
X48356250Y-71850000D01*
X48439962Y-71866651D01*
X48439962Y-71866651D01*
G37*
D11*
X48100000Y-72287500D03*
D10*
G36*
X48439962Y-70291651D02*
G01*
X48510930Y-70339070D01*
X48558349Y-70410038D01*
X48575000Y-70493750D01*
X48575000Y-70931250D01*
X48558349Y-71014962D01*
X48510930Y-71085930D01*
X48439962Y-71133349D01*
X48356250Y-71150000D01*
X47843750Y-71150000D01*
X47760038Y-71133349D01*
X47689070Y-71085930D01*
X47641651Y-71014962D01*
X47625000Y-70931250D01*
X47625000Y-70493750D01*
X47641651Y-70410038D01*
X47689070Y-70339070D01*
X47760038Y-70291651D01*
X47843750Y-70275000D01*
X48356250Y-70275000D01*
X48439962Y-70291651D01*
X48439962Y-70291651D01*
G37*
D11*
X48100000Y-70712500D03*
D12*
X110000000Y-90920000D03*
X102700000Y-90920000D03*
X102700000Y-93130000D03*
X110000000Y-93130000D03*
D13*
X104100000Y-90270000D03*
X105600000Y-90270000D03*
X108600000Y-90270000D03*
D10*
G36*
X61789962Y-69891651D02*
G01*
X61860930Y-69939070D01*
X61908349Y-70010038D01*
X61925000Y-70093750D01*
X61925000Y-70606250D01*
X61908349Y-70689962D01*
X61860930Y-70760930D01*
X61789962Y-70808349D01*
X61706250Y-70825000D01*
X61268750Y-70825000D01*
X61185038Y-70808349D01*
X61114070Y-70760930D01*
X61066651Y-70689962D01*
X61050000Y-70606250D01*
X61050000Y-70093750D01*
X61066651Y-70010038D01*
X61114070Y-69939070D01*
X61185038Y-69891651D01*
X61268750Y-69875000D01*
X61706250Y-69875000D01*
X61789962Y-69891651D01*
X61789962Y-69891651D01*
G37*
D11*
X61487500Y-70350000D03*
D10*
G36*
X60214962Y-69891651D02*
G01*
X60285930Y-69939070D01*
X60333349Y-70010038D01*
X60350000Y-70093750D01*
X60350000Y-70606250D01*
X60333349Y-70689962D01*
X60285930Y-70760930D01*
X60214962Y-70808349D01*
X60131250Y-70825000D01*
X59693750Y-70825000D01*
X59610038Y-70808349D01*
X59539070Y-70760930D01*
X59491651Y-70689962D01*
X59475000Y-70606250D01*
X59475000Y-70093750D01*
X59491651Y-70010038D01*
X59539070Y-69939070D01*
X59610038Y-69891651D01*
X59693750Y-69875000D01*
X60131250Y-69875000D01*
X60214962Y-69891651D01*
X60214962Y-69891651D01*
G37*
D11*
X59912500Y-70350000D03*
D10*
G36*
X61789962Y-66566651D02*
G01*
X61860930Y-66614070D01*
X61908349Y-66685038D01*
X61925000Y-66768750D01*
X61925000Y-67206250D01*
X61908349Y-67289962D01*
X61860930Y-67360930D01*
X61789962Y-67408349D01*
X61706250Y-67425000D01*
X61193750Y-67425000D01*
X61110038Y-67408349D01*
X61039070Y-67360930D01*
X60991651Y-67289962D01*
X60975000Y-67206250D01*
X60975000Y-66768750D01*
X60991651Y-66685038D01*
X61039070Y-66614070D01*
X61110038Y-66566651D01*
X61193750Y-66550000D01*
X61706250Y-66550000D01*
X61789962Y-66566651D01*
X61789962Y-66566651D01*
G37*
D11*
X61450000Y-66987500D03*
D10*
G36*
X61789962Y-68141651D02*
G01*
X61860930Y-68189070D01*
X61908349Y-68260038D01*
X61925000Y-68343750D01*
X61925000Y-68781250D01*
X61908349Y-68864962D01*
X61860930Y-68935930D01*
X61789962Y-68983349D01*
X61706250Y-69000000D01*
X61193750Y-69000000D01*
X61110038Y-68983349D01*
X61039070Y-68935930D01*
X60991651Y-68864962D01*
X60975000Y-68781250D01*
X60975000Y-68343750D01*
X60991651Y-68260038D01*
X61039070Y-68189070D01*
X61110038Y-68141651D01*
X61193750Y-68125000D01*
X61706250Y-68125000D01*
X61789962Y-68141651D01*
X61789962Y-68141651D01*
G37*
D11*
X61450000Y-68562500D03*
D10*
G36*
X56989962Y-67866651D02*
G01*
X57060930Y-67914070D01*
X57108349Y-67985038D01*
X57125000Y-68068750D01*
X57125000Y-68506250D01*
X57108349Y-68589962D01*
X57060930Y-68660930D01*
X56989962Y-68708349D01*
X56906250Y-68725000D01*
X56393750Y-68725000D01*
X56310038Y-68708349D01*
X56239070Y-68660930D01*
X56191651Y-68589962D01*
X56175000Y-68506250D01*
X56175000Y-68068750D01*
X56191651Y-67985038D01*
X56239070Y-67914070D01*
X56310038Y-67866651D01*
X56393750Y-67850000D01*
X56906250Y-67850000D01*
X56989962Y-67866651D01*
X56989962Y-67866651D01*
G37*
D11*
X56650000Y-68287500D03*
D10*
G36*
X56989962Y-66291651D02*
G01*
X57060930Y-66339070D01*
X57108349Y-66410038D01*
X57125000Y-66493750D01*
X57125000Y-66931250D01*
X57108349Y-67014962D01*
X57060930Y-67085930D01*
X56989962Y-67133349D01*
X56906250Y-67150000D01*
X56393750Y-67150000D01*
X56310038Y-67133349D01*
X56239070Y-67085930D01*
X56191651Y-67014962D01*
X56175000Y-66931250D01*
X56175000Y-66493750D01*
X56191651Y-66410038D01*
X56239070Y-66339070D01*
X56310038Y-66291651D01*
X56393750Y-66275000D01*
X56906250Y-66275000D01*
X56989962Y-66291651D01*
X56989962Y-66291651D01*
G37*
D11*
X56650000Y-66712500D03*
D10*
G36*
X58589962Y-67866651D02*
G01*
X58660930Y-67914070D01*
X58708349Y-67985038D01*
X58725000Y-68068750D01*
X58725000Y-68506250D01*
X58708349Y-68589962D01*
X58660930Y-68660930D01*
X58589962Y-68708349D01*
X58506250Y-68725000D01*
X57993750Y-68725000D01*
X57910038Y-68708349D01*
X57839070Y-68660930D01*
X57791651Y-68589962D01*
X57775000Y-68506250D01*
X57775000Y-68068750D01*
X57791651Y-67985038D01*
X57839070Y-67914070D01*
X57910038Y-67866651D01*
X57993750Y-67850000D01*
X58506250Y-67850000D01*
X58589962Y-67866651D01*
X58589962Y-67866651D01*
G37*
D11*
X58250000Y-68287500D03*
D10*
G36*
X58589962Y-66291651D02*
G01*
X58660930Y-66339070D01*
X58708349Y-66410038D01*
X58725000Y-66493750D01*
X58725000Y-66931250D01*
X58708349Y-67014962D01*
X58660930Y-67085930D01*
X58589962Y-67133349D01*
X58506250Y-67150000D01*
X57993750Y-67150000D01*
X57910038Y-67133349D01*
X57839070Y-67085930D01*
X57791651Y-67014962D01*
X57775000Y-66931250D01*
X57775000Y-66493750D01*
X57791651Y-66410038D01*
X57839070Y-66339070D01*
X57910038Y-66291651D01*
X57993750Y-66275000D01*
X58506250Y-66275000D01*
X58589962Y-66291651D01*
X58589962Y-66291651D01*
G37*
D11*
X58250000Y-66712500D03*
D10*
G36*
X55389962Y-67866651D02*
G01*
X55460930Y-67914070D01*
X55508349Y-67985038D01*
X55525000Y-68068750D01*
X55525000Y-68506250D01*
X55508349Y-68589962D01*
X55460930Y-68660930D01*
X55389962Y-68708349D01*
X55306250Y-68725000D01*
X54793750Y-68725000D01*
X54710038Y-68708349D01*
X54639070Y-68660930D01*
X54591651Y-68589962D01*
X54575000Y-68506250D01*
X54575000Y-68068750D01*
X54591651Y-67985038D01*
X54639070Y-67914070D01*
X54710038Y-67866651D01*
X54793750Y-67850000D01*
X55306250Y-67850000D01*
X55389962Y-67866651D01*
X55389962Y-67866651D01*
G37*
D11*
X55050000Y-68287500D03*
D10*
G36*
X55389962Y-66291651D02*
G01*
X55460930Y-66339070D01*
X55508349Y-66410038D01*
X55525000Y-66493750D01*
X55525000Y-66931250D01*
X55508349Y-67014962D01*
X55460930Y-67085930D01*
X55389962Y-67133349D01*
X55306250Y-67150000D01*
X54793750Y-67150000D01*
X54710038Y-67133349D01*
X54639070Y-67085930D01*
X54591651Y-67014962D01*
X54575000Y-66931250D01*
X54575000Y-66493750D01*
X54591651Y-66410038D01*
X54639070Y-66339070D01*
X54710038Y-66291651D01*
X54793750Y-66275000D01*
X55306250Y-66275000D01*
X55389962Y-66291651D01*
X55389962Y-66291651D01*
G37*
D11*
X55050000Y-66712500D03*
D10*
G36*
X60989962Y-72441651D02*
G01*
X61060930Y-72489070D01*
X61108349Y-72560038D01*
X61125000Y-72643750D01*
X61125000Y-73156250D01*
X61108349Y-73239962D01*
X61060930Y-73310930D01*
X60989962Y-73358349D01*
X60906250Y-73375000D01*
X60468750Y-73375000D01*
X60385038Y-73358349D01*
X60314070Y-73310930D01*
X60266651Y-73239962D01*
X60250000Y-73156250D01*
X60250000Y-72643750D01*
X60266651Y-72560038D01*
X60314070Y-72489070D01*
X60385038Y-72441651D01*
X60468750Y-72425000D01*
X60906250Y-72425000D01*
X60989962Y-72441651D01*
X60989962Y-72441651D01*
G37*
D11*
X60687500Y-72900000D03*
D10*
G36*
X59414962Y-72441651D02*
G01*
X59485930Y-72489070D01*
X59533349Y-72560038D01*
X59550000Y-72643750D01*
X59550000Y-73156250D01*
X59533349Y-73239962D01*
X59485930Y-73310930D01*
X59414962Y-73358349D01*
X59331250Y-73375000D01*
X58893750Y-73375000D01*
X58810038Y-73358349D01*
X58739070Y-73310930D01*
X58691651Y-73239962D01*
X58675000Y-73156250D01*
X58675000Y-72643750D01*
X58691651Y-72560038D01*
X58739070Y-72489070D01*
X58810038Y-72441651D01*
X58893750Y-72425000D01*
X59331250Y-72425000D01*
X59414962Y-72441651D01*
X59414962Y-72441651D01*
G37*
D11*
X59112500Y-72900000D03*
D10*
G36*
X94839962Y-80091651D02*
G01*
X94910930Y-80139070D01*
X94958349Y-80210038D01*
X94975000Y-80293750D01*
X94975000Y-80731250D01*
X94958349Y-80814962D01*
X94910930Y-80885930D01*
X94839962Y-80933349D01*
X94756250Y-80950000D01*
X94243750Y-80950000D01*
X94160038Y-80933349D01*
X94089070Y-80885930D01*
X94041651Y-80814962D01*
X94025000Y-80731250D01*
X94025000Y-80293750D01*
X94041651Y-80210038D01*
X94089070Y-80139070D01*
X94160038Y-80091651D01*
X94243750Y-80075000D01*
X94756250Y-80075000D01*
X94839962Y-80091651D01*
X94839962Y-80091651D01*
G37*
D11*
X94500000Y-80512500D03*
D10*
G36*
X94839962Y-81666651D02*
G01*
X94910930Y-81714070D01*
X94958349Y-81785038D01*
X94975000Y-81868750D01*
X94975000Y-82306250D01*
X94958349Y-82389962D01*
X94910930Y-82460930D01*
X94839962Y-82508349D01*
X94756250Y-82525000D01*
X94243750Y-82525000D01*
X94160038Y-82508349D01*
X94089070Y-82460930D01*
X94041651Y-82389962D01*
X94025000Y-82306250D01*
X94025000Y-81868750D01*
X94041651Y-81785038D01*
X94089070Y-81714070D01*
X94160038Y-81666651D01*
X94243750Y-81650000D01*
X94756250Y-81650000D01*
X94839962Y-81666651D01*
X94839962Y-81666651D01*
G37*
D11*
X94500000Y-82087500D03*
D14*
X90750000Y-69550000D03*
X86550000Y-69550000D03*
X94950000Y-69550000D03*
X88650000Y-69550000D03*
X82350000Y-69550000D03*
X84450000Y-69550000D03*
X92850000Y-69550000D03*
X97050000Y-69550000D03*
X88650000Y-67450000D03*
X97050000Y-67450000D03*
X90750000Y-67450000D03*
X86550000Y-67450000D03*
X94950000Y-67450000D03*
X82350000Y-67450000D03*
X92850000Y-67450000D03*
X84450000Y-67450000D03*
X86550000Y-65350000D03*
X94950000Y-65350000D03*
X82350000Y-65350000D03*
X90750000Y-65350000D03*
X97050000Y-65350000D03*
X92850000Y-65350000D03*
X88650000Y-65350000D03*
X84450000Y-65350000D03*
X86550000Y-63250000D03*
X90750000Y-63250000D03*
X94950000Y-63250000D03*
X97050000Y-63250000D03*
X88650000Y-63250000D03*
X82350000Y-63250000D03*
X84450000Y-63250000D03*
X92850000Y-63250000D03*
X86550000Y-61150000D03*
X90750000Y-61150000D03*
X88650000Y-61150000D03*
X82350000Y-61150000D03*
X94950000Y-61150000D03*
X97050000Y-61150000D03*
X84450000Y-61150000D03*
X92850000Y-61150000D03*
X97050000Y-59050000D03*
X94950000Y-59050000D03*
X92850000Y-59050000D03*
X90750000Y-59050000D03*
X88650000Y-59050000D03*
X86550000Y-59050000D03*
X84450000Y-59050000D03*
X82350000Y-59050000D03*
D15*
X79750000Y-59900000D03*
X79750000Y-70900000D03*
X79750000Y-65400000D03*
X79750000Y-63200000D03*
X79750000Y-68700000D03*
X79750000Y-66500000D03*
X79750000Y-57700000D03*
X79750000Y-64300000D03*
X79750000Y-67600000D03*
X79750000Y-62100000D03*
X79750000Y-58800000D03*
X79750000Y-61000000D03*
X79750000Y-69800000D03*
X99650000Y-70900000D03*
X99650000Y-69800000D03*
X99650000Y-68700000D03*
X99650000Y-67600000D03*
X99650000Y-66500000D03*
X99650000Y-65400000D03*
X99650000Y-64300000D03*
X99650000Y-63200000D03*
X99650000Y-62100000D03*
X99650000Y-61000000D03*
X99650000Y-59900000D03*
X99650000Y-58800000D03*
X99650000Y-57700000D03*
D16*
X91350000Y-71800000D03*
X90250000Y-71800000D03*
X89150000Y-71800000D03*
X86950000Y-71800000D03*
X92450000Y-71800000D03*
X84750000Y-71800000D03*
X85850000Y-71800000D03*
X96850000Y-71800000D03*
X82550000Y-71800000D03*
X83650000Y-71800000D03*
X95750000Y-71800000D03*
X88050000Y-71800000D03*
X93550000Y-71800000D03*
X94650000Y-71800000D03*
X96850000Y-56850000D03*
X95750000Y-56850000D03*
X94650000Y-56850000D03*
X93550000Y-56850000D03*
X92450000Y-56850000D03*
X91350000Y-56850000D03*
X90250000Y-56850000D03*
X89150000Y-56850000D03*
X88050000Y-56850000D03*
X86950000Y-56850000D03*
X85850000Y-56850000D03*
X84750000Y-56850000D03*
X83650000Y-56850000D03*
X82550000Y-56850000D03*
D10*
G36*
X107939962Y-80891651D02*
G01*
X108010930Y-80939070D01*
X108058349Y-81010038D01*
X108075000Y-81093750D01*
X108075000Y-81531250D01*
X108058349Y-81614962D01*
X108010930Y-81685930D01*
X107939962Y-81733349D01*
X107856250Y-81750000D01*
X107343750Y-81750000D01*
X107260038Y-81733349D01*
X107189070Y-81685930D01*
X107141651Y-81614962D01*
X107125000Y-81531250D01*
X107125000Y-81093750D01*
X107141651Y-81010038D01*
X107189070Y-80939070D01*
X107260038Y-80891651D01*
X107343750Y-80875000D01*
X107856250Y-80875000D01*
X107939962Y-80891651D01*
X107939962Y-80891651D01*
G37*
D11*
X107600000Y-81312500D03*
D10*
G36*
X107939962Y-82466651D02*
G01*
X108010930Y-82514070D01*
X108058349Y-82585038D01*
X108075000Y-82668750D01*
X108075000Y-83106250D01*
X108058349Y-83189962D01*
X108010930Y-83260930D01*
X107939962Y-83308349D01*
X107856250Y-83325000D01*
X107343750Y-83325000D01*
X107260038Y-83308349D01*
X107189070Y-83260930D01*
X107141651Y-83189962D01*
X107125000Y-83106250D01*
X107125000Y-82668750D01*
X107141651Y-82585038D01*
X107189070Y-82514070D01*
X107260038Y-82466651D01*
X107343750Y-82450000D01*
X107856250Y-82450000D01*
X107939962Y-82466651D01*
X107939962Y-82466651D01*
G37*
D11*
X107600000Y-82887500D03*
D10*
G36*
X106339962Y-80891651D02*
G01*
X106410930Y-80939070D01*
X106458349Y-81010038D01*
X106475000Y-81093750D01*
X106475000Y-81531250D01*
X106458349Y-81614962D01*
X106410930Y-81685930D01*
X106339962Y-81733349D01*
X106256250Y-81750000D01*
X105743750Y-81750000D01*
X105660038Y-81733349D01*
X105589070Y-81685930D01*
X105541651Y-81614962D01*
X105525000Y-81531250D01*
X105525000Y-81093750D01*
X105541651Y-81010038D01*
X105589070Y-80939070D01*
X105660038Y-80891651D01*
X105743750Y-80875000D01*
X106256250Y-80875000D01*
X106339962Y-80891651D01*
X106339962Y-80891651D01*
G37*
D11*
X106000000Y-81312500D03*
D10*
G36*
X106339962Y-82466651D02*
G01*
X106410930Y-82514070D01*
X106458349Y-82585038D01*
X106475000Y-82668750D01*
X106475000Y-83106250D01*
X106458349Y-83189962D01*
X106410930Y-83260930D01*
X106339962Y-83308349D01*
X106256250Y-83325000D01*
X105743750Y-83325000D01*
X105660038Y-83308349D01*
X105589070Y-83260930D01*
X105541651Y-83189962D01*
X105525000Y-83106250D01*
X105525000Y-82668750D01*
X105541651Y-82585038D01*
X105589070Y-82514070D01*
X105660038Y-82466651D01*
X105743750Y-82450000D01*
X106256250Y-82450000D01*
X106339962Y-82466651D01*
X106339962Y-82466651D01*
G37*
D11*
X106000000Y-82887500D03*
D10*
G36*
X82614962Y-53841651D02*
G01*
X82685930Y-53889070D01*
X82733349Y-53960038D01*
X82750000Y-54043750D01*
X82750000Y-54556250D01*
X82733349Y-54639962D01*
X82685930Y-54710930D01*
X82614962Y-54758349D01*
X82531250Y-54775000D01*
X82093750Y-54775000D01*
X82010038Y-54758349D01*
X81939070Y-54710930D01*
X81891651Y-54639962D01*
X81875000Y-54556250D01*
X81875000Y-54043750D01*
X81891651Y-53960038D01*
X81939070Y-53889070D01*
X82010038Y-53841651D01*
X82093750Y-53825000D01*
X82531250Y-53825000D01*
X82614962Y-53841651D01*
X82614962Y-53841651D01*
G37*
D11*
X82312500Y-54300000D03*
D10*
G36*
X84189962Y-53841651D02*
G01*
X84260930Y-53889070D01*
X84308349Y-53960038D01*
X84325000Y-54043750D01*
X84325000Y-54556250D01*
X84308349Y-54639962D01*
X84260930Y-54710930D01*
X84189962Y-54758349D01*
X84106250Y-54775000D01*
X83668750Y-54775000D01*
X83585038Y-54758349D01*
X83514070Y-54710930D01*
X83466651Y-54639962D01*
X83450000Y-54556250D01*
X83450000Y-54043750D01*
X83466651Y-53960038D01*
X83514070Y-53889070D01*
X83585038Y-53841651D01*
X83668750Y-53825000D01*
X84106250Y-53825000D01*
X84189962Y-53841651D01*
X84189962Y-53841651D01*
G37*
D11*
X83887500Y-54300000D03*
D10*
G36*
X88714962Y-53841651D02*
G01*
X88785930Y-53889070D01*
X88833349Y-53960038D01*
X88850000Y-54043750D01*
X88850000Y-54556250D01*
X88833349Y-54639962D01*
X88785930Y-54710930D01*
X88714962Y-54758349D01*
X88631250Y-54775000D01*
X88193750Y-54775000D01*
X88110038Y-54758349D01*
X88039070Y-54710930D01*
X87991651Y-54639962D01*
X87975000Y-54556250D01*
X87975000Y-54043750D01*
X87991651Y-53960038D01*
X88039070Y-53889070D01*
X88110038Y-53841651D01*
X88193750Y-53825000D01*
X88631250Y-53825000D01*
X88714962Y-53841651D01*
X88714962Y-53841651D01*
G37*
D11*
X88412500Y-54300000D03*
D10*
G36*
X90289962Y-53841651D02*
G01*
X90360930Y-53889070D01*
X90408349Y-53960038D01*
X90425000Y-54043750D01*
X90425000Y-54556250D01*
X90408349Y-54639962D01*
X90360930Y-54710930D01*
X90289962Y-54758349D01*
X90206250Y-54775000D01*
X89768750Y-54775000D01*
X89685038Y-54758349D01*
X89614070Y-54710930D01*
X89566651Y-54639962D01*
X89550000Y-54556250D01*
X89550000Y-54043750D01*
X89566651Y-53960038D01*
X89614070Y-53889070D01*
X89685038Y-53841651D01*
X89768750Y-53825000D01*
X90206250Y-53825000D01*
X90289962Y-53841651D01*
X90289962Y-53841651D01*
G37*
D11*
X89987500Y-54300000D03*
D10*
G36*
X85714962Y-53841651D02*
G01*
X85785930Y-53889070D01*
X85833349Y-53960038D01*
X85850000Y-54043750D01*
X85850000Y-54556250D01*
X85833349Y-54639962D01*
X85785930Y-54710930D01*
X85714962Y-54758349D01*
X85631250Y-54775000D01*
X85193750Y-54775000D01*
X85110038Y-54758349D01*
X85039070Y-54710930D01*
X84991651Y-54639962D01*
X84975000Y-54556250D01*
X84975000Y-54043750D01*
X84991651Y-53960038D01*
X85039070Y-53889070D01*
X85110038Y-53841651D01*
X85193750Y-53825000D01*
X85631250Y-53825000D01*
X85714962Y-53841651D01*
X85714962Y-53841651D01*
G37*
D11*
X85412500Y-54300000D03*
D10*
G36*
X87289962Y-53841651D02*
G01*
X87360930Y-53889070D01*
X87408349Y-53960038D01*
X87425000Y-54043750D01*
X87425000Y-54556250D01*
X87408349Y-54639962D01*
X87360930Y-54710930D01*
X87289962Y-54758349D01*
X87206250Y-54775000D01*
X86768750Y-54775000D01*
X86685038Y-54758349D01*
X86614070Y-54710930D01*
X86566651Y-54639962D01*
X86550000Y-54556250D01*
X86550000Y-54043750D01*
X86566651Y-53960038D01*
X86614070Y-53889070D01*
X86685038Y-53841651D01*
X86768750Y-53825000D01*
X87206250Y-53825000D01*
X87289962Y-53841651D01*
X87289962Y-53841651D01*
G37*
D11*
X86987500Y-54300000D03*
D10*
G36*
X92914962Y-73741651D02*
G01*
X92985930Y-73789070D01*
X93033349Y-73860038D01*
X93050000Y-73943750D01*
X93050000Y-74456250D01*
X93033349Y-74539962D01*
X92985930Y-74610930D01*
X92914962Y-74658349D01*
X92831250Y-74675000D01*
X92393750Y-74675000D01*
X92310038Y-74658349D01*
X92239070Y-74610930D01*
X92191651Y-74539962D01*
X92175000Y-74456250D01*
X92175000Y-73943750D01*
X92191651Y-73860038D01*
X92239070Y-73789070D01*
X92310038Y-73741651D01*
X92393750Y-73725000D01*
X92831250Y-73725000D01*
X92914962Y-73741651D01*
X92914962Y-73741651D01*
G37*
D11*
X92612500Y-74200000D03*
D10*
G36*
X94489962Y-73741651D02*
G01*
X94560930Y-73789070D01*
X94608349Y-73860038D01*
X94625000Y-73943750D01*
X94625000Y-74456250D01*
X94608349Y-74539962D01*
X94560930Y-74610930D01*
X94489962Y-74658349D01*
X94406250Y-74675000D01*
X93968750Y-74675000D01*
X93885038Y-74658349D01*
X93814070Y-74610930D01*
X93766651Y-74539962D01*
X93750000Y-74456250D01*
X93750000Y-73943750D01*
X93766651Y-73860038D01*
X93814070Y-73789070D01*
X93885038Y-73741651D01*
X93968750Y-73725000D01*
X94406250Y-73725000D01*
X94489962Y-73741651D01*
X94489962Y-73741651D01*
G37*
D11*
X94187500Y-74200000D03*
D10*
G36*
X88289962Y-73741651D02*
G01*
X88360930Y-73789070D01*
X88408349Y-73860038D01*
X88425000Y-73943750D01*
X88425000Y-74456250D01*
X88408349Y-74539962D01*
X88360930Y-74610930D01*
X88289962Y-74658349D01*
X88206250Y-74675000D01*
X87768750Y-74675000D01*
X87685038Y-74658349D01*
X87614070Y-74610930D01*
X87566651Y-74539962D01*
X87550000Y-74456250D01*
X87550000Y-73943750D01*
X87566651Y-73860038D01*
X87614070Y-73789070D01*
X87685038Y-73741651D01*
X87768750Y-73725000D01*
X88206250Y-73725000D01*
X88289962Y-73741651D01*
X88289962Y-73741651D01*
G37*
D11*
X87987500Y-74200000D03*
D10*
G36*
X86714962Y-73741651D02*
G01*
X86785930Y-73789070D01*
X86833349Y-73860038D01*
X86850000Y-73943750D01*
X86850000Y-74456250D01*
X86833349Y-74539962D01*
X86785930Y-74610930D01*
X86714962Y-74658349D01*
X86631250Y-74675000D01*
X86193750Y-74675000D01*
X86110038Y-74658349D01*
X86039070Y-74610930D01*
X85991651Y-74539962D01*
X85975000Y-74456250D01*
X85975000Y-73943750D01*
X85991651Y-73860038D01*
X86039070Y-73789070D01*
X86110038Y-73741651D01*
X86193750Y-73725000D01*
X86631250Y-73725000D01*
X86714962Y-73741651D01*
X86714962Y-73741651D01*
G37*
D11*
X86412500Y-74200000D03*
D10*
G36*
X89814962Y-73741651D02*
G01*
X89885930Y-73789070D01*
X89933349Y-73860038D01*
X89950000Y-73943750D01*
X89950000Y-74456250D01*
X89933349Y-74539962D01*
X89885930Y-74610930D01*
X89814962Y-74658349D01*
X89731250Y-74675000D01*
X89293750Y-74675000D01*
X89210038Y-74658349D01*
X89139070Y-74610930D01*
X89091651Y-74539962D01*
X89075000Y-74456250D01*
X89075000Y-73943750D01*
X89091651Y-73860038D01*
X89139070Y-73789070D01*
X89210038Y-73741651D01*
X89293750Y-73725000D01*
X89731250Y-73725000D01*
X89814962Y-73741651D01*
X89814962Y-73741651D01*
G37*
D11*
X89512500Y-74200000D03*
D10*
G36*
X91389962Y-73741651D02*
G01*
X91460930Y-73789070D01*
X91508349Y-73860038D01*
X91525000Y-73943750D01*
X91525000Y-74456250D01*
X91508349Y-74539962D01*
X91460930Y-74610930D01*
X91389962Y-74658349D01*
X91306250Y-74675000D01*
X90868750Y-74675000D01*
X90785038Y-74658349D01*
X90714070Y-74610930D01*
X90666651Y-74539962D01*
X90650000Y-74456250D01*
X90650000Y-73943750D01*
X90666651Y-73860038D01*
X90714070Y-73789070D01*
X90785038Y-73741651D01*
X90868750Y-73725000D01*
X91306250Y-73725000D01*
X91389962Y-73741651D01*
X91389962Y-73741651D01*
G37*
D11*
X91087500Y-74200000D03*
D12*
X97000000Y-90820000D03*
X89700000Y-90820000D03*
X89700000Y-93030000D03*
X97000000Y-93030000D03*
D13*
X91100000Y-90170000D03*
X92600000Y-90170000D03*
X95600000Y-90170000D03*
D10*
G36*
X104739962Y-69141651D02*
G01*
X104810930Y-69189070D01*
X104858349Y-69260038D01*
X104875000Y-69343750D01*
X104875000Y-69781250D01*
X104858349Y-69864962D01*
X104810930Y-69935930D01*
X104739962Y-69983349D01*
X104656250Y-70000000D01*
X104143750Y-70000000D01*
X104060038Y-69983349D01*
X103989070Y-69935930D01*
X103941651Y-69864962D01*
X103925000Y-69781250D01*
X103925000Y-69343750D01*
X103941651Y-69260038D01*
X103989070Y-69189070D01*
X104060038Y-69141651D01*
X104143750Y-69125000D01*
X104656250Y-69125000D01*
X104739962Y-69141651D01*
X104739962Y-69141651D01*
G37*
D11*
X104400000Y-69562500D03*
D10*
G36*
X104739962Y-70716651D02*
G01*
X104810930Y-70764070D01*
X104858349Y-70835038D01*
X104875000Y-70918750D01*
X104875000Y-71356250D01*
X104858349Y-71439962D01*
X104810930Y-71510930D01*
X104739962Y-71558349D01*
X104656250Y-71575000D01*
X104143750Y-71575000D01*
X104060038Y-71558349D01*
X103989070Y-71510930D01*
X103941651Y-71439962D01*
X103925000Y-71356250D01*
X103925000Y-70918750D01*
X103941651Y-70835038D01*
X103989070Y-70764070D01*
X104060038Y-70716651D01*
X104143750Y-70700000D01*
X104656250Y-70700000D01*
X104739962Y-70716651D01*
X104739962Y-70716651D01*
G37*
D11*
X104400000Y-71137500D03*
D10*
G36*
X101489962Y-78841651D02*
G01*
X101560930Y-78889070D01*
X101608349Y-78960038D01*
X101625000Y-79043750D01*
X101625000Y-79556250D01*
X101608349Y-79639962D01*
X101560930Y-79710930D01*
X101489962Y-79758349D01*
X101406250Y-79775000D01*
X100968750Y-79775000D01*
X100885038Y-79758349D01*
X100814070Y-79710930D01*
X100766651Y-79639962D01*
X100750000Y-79556250D01*
X100750000Y-79043750D01*
X100766651Y-78960038D01*
X100814070Y-78889070D01*
X100885038Y-78841651D01*
X100968750Y-78825000D01*
X101406250Y-78825000D01*
X101489962Y-78841651D01*
X101489962Y-78841651D01*
G37*
D11*
X101187500Y-79300000D03*
D10*
G36*
X99914962Y-78841651D02*
G01*
X99985930Y-78889070D01*
X100033349Y-78960038D01*
X100050000Y-79043750D01*
X100050000Y-79556250D01*
X100033349Y-79639962D01*
X99985930Y-79710930D01*
X99914962Y-79758349D01*
X99831250Y-79775000D01*
X99393750Y-79775000D01*
X99310038Y-79758349D01*
X99239070Y-79710930D01*
X99191651Y-79639962D01*
X99175000Y-79556250D01*
X99175000Y-79043750D01*
X99191651Y-78960038D01*
X99239070Y-78889070D01*
X99310038Y-78841651D01*
X99393750Y-78825000D01*
X99831250Y-78825000D01*
X99914962Y-78841651D01*
X99914962Y-78841651D01*
G37*
D11*
X99612500Y-79300000D03*
D10*
G36*
X106314962Y-78841651D02*
G01*
X106385930Y-78889070D01*
X106433349Y-78960038D01*
X106450000Y-79043750D01*
X106450000Y-79556250D01*
X106433349Y-79639962D01*
X106385930Y-79710930D01*
X106314962Y-79758349D01*
X106231250Y-79775000D01*
X105793750Y-79775000D01*
X105710038Y-79758349D01*
X105639070Y-79710930D01*
X105591651Y-79639962D01*
X105575000Y-79556250D01*
X105575000Y-79043750D01*
X105591651Y-78960038D01*
X105639070Y-78889070D01*
X105710038Y-78841651D01*
X105793750Y-78825000D01*
X106231250Y-78825000D01*
X106314962Y-78841651D01*
X106314962Y-78841651D01*
G37*
D11*
X106012500Y-79300000D03*
D10*
G36*
X107889962Y-78841651D02*
G01*
X107960930Y-78889070D01*
X108008349Y-78960038D01*
X108025000Y-79043750D01*
X108025000Y-79556250D01*
X108008349Y-79639962D01*
X107960930Y-79710930D01*
X107889962Y-79758349D01*
X107806250Y-79775000D01*
X107368750Y-79775000D01*
X107285038Y-79758349D01*
X107214070Y-79710930D01*
X107166651Y-79639962D01*
X107150000Y-79556250D01*
X107150000Y-79043750D01*
X107166651Y-78960038D01*
X107214070Y-78889070D01*
X107285038Y-78841651D01*
X107368750Y-78825000D01*
X107806250Y-78825000D01*
X107889962Y-78841651D01*
X107889962Y-78841651D01*
G37*
D11*
X107587500Y-79300000D03*
D10*
G36*
X88525962Y-80091651D02*
G01*
X88596930Y-80139070D01*
X88644349Y-80210038D01*
X88661000Y-80293750D01*
X88661000Y-80731250D01*
X88644349Y-80814962D01*
X88596930Y-80885930D01*
X88525962Y-80933349D01*
X88442250Y-80950000D01*
X87929750Y-80950000D01*
X87846038Y-80933349D01*
X87775070Y-80885930D01*
X87727651Y-80814962D01*
X87711000Y-80731250D01*
X87711000Y-80293750D01*
X87727651Y-80210038D01*
X87775070Y-80139070D01*
X87846038Y-80091651D01*
X87929750Y-80075000D01*
X88442250Y-80075000D01*
X88525962Y-80091651D01*
X88525962Y-80091651D01*
G37*
D11*
X88186000Y-80512500D03*
D10*
G36*
X88525962Y-81666651D02*
G01*
X88596930Y-81714070D01*
X88644349Y-81785038D01*
X88661000Y-81868750D01*
X88661000Y-82306250D01*
X88644349Y-82389962D01*
X88596930Y-82460930D01*
X88525962Y-82508349D01*
X88442250Y-82525000D01*
X87929750Y-82525000D01*
X87846038Y-82508349D01*
X87775070Y-82460930D01*
X87727651Y-82389962D01*
X87711000Y-82306250D01*
X87711000Y-81868750D01*
X87727651Y-81785038D01*
X87775070Y-81714070D01*
X87846038Y-81666651D01*
X87929750Y-81650000D01*
X88442250Y-81650000D01*
X88525962Y-81666651D01*
X88525962Y-81666651D01*
G37*
D11*
X88186000Y-82087500D03*
D10*
G36*
X90125962Y-80091651D02*
G01*
X90196930Y-80139070D01*
X90244349Y-80210038D01*
X90261000Y-80293750D01*
X90261000Y-80731250D01*
X90244349Y-80814962D01*
X90196930Y-80885930D01*
X90125962Y-80933349D01*
X90042250Y-80950000D01*
X89529750Y-80950000D01*
X89446038Y-80933349D01*
X89375070Y-80885930D01*
X89327651Y-80814962D01*
X89311000Y-80731250D01*
X89311000Y-80293750D01*
X89327651Y-80210038D01*
X89375070Y-80139070D01*
X89446038Y-80091651D01*
X89529750Y-80075000D01*
X90042250Y-80075000D01*
X90125962Y-80091651D01*
X90125962Y-80091651D01*
G37*
D11*
X89786000Y-80512500D03*
D10*
G36*
X90125962Y-81666651D02*
G01*
X90196930Y-81714070D01*
X90244349Y-81785038D01*
X90261000Y-81868750D01*
X90261000Y-82306250D01*
X90244349Y-82389962D01*
X90196930Y-82460930D01*
X90125962Y-82508349D01*
X90042250Y-82525000D01*
X89529750Y-82525000D01*
X89446038Y-82508349D01*
X89375070Y-82460930D01*
X89327651Y-82389962D01*
X89311000Y-82306250D01*
X89311000Y-81868750D01*
X89327651Y-81785038D01*
X89375070Y-81714070D01*
X89446038Y-81666651D01*
X89529750Y-81650000D01*
X90042250Y-81650000D01*
X90125962Y-81666651D01*
X90125962Y-81666651D01*
G37*
D11*
X89786000Y-82087500D03*
D10*
G36*
X83314962Y-73741651D02*
G01*
X83385930Y-73789070D01*
X83433349Y-73860038D01*
X83450000Y-73943750D01*
X83450000Y-74456250D01*
X83433349Y-74539962D01*
X83385930Y-74610930D01*
X83314962Y-74658349D01*
X83231250Y-74675000D01*
X82793750Y-74675000D01*
X82710038Y-74658349D01*
X82639070Y-74610930D01*
X82591651Y-74539962D01*
X82575000Y-74456250D01*
X82575000Y-73943750D01*
X82591651Y-73860038D01*
X82639070Y-73789070D01*
X82710038Y-73741651D01*
X82793750Y-73725000D01*
X83231250Y-73725000D01*
X83314962Y-73741651D01*
X83314962Y-73741651D01*
G37*
D11*
X83012500Y-74200000D03*
D10*
G36*
X84889962Y-73741651D02*
G01*
X84960930Y-73789070D01*
X85008349Y-73860038D01*
X85025000Y-73943750D01*
X85025000Y-74456250D01*
X85008349Y-74539962D01*
X84960930Y-74610930D01*
X84889962Y-74658349D01*
X84806250Y-74675000D01*
X84368750Y-74675000D01*
X84285038Y-74658349D01*
X84214070Y-74610930D01*
X84166651Y-74539962D01*
X84150000Y-74456250D01*
X84150000Y-73943750D01*
X84166651Y-73860038D01*
X84214070Y-73789070D01*
X84285038Y-73741651D01*
X84368750Y-73725000D01*
X84806250Y-73725000D01*
X84889962Y-73741651D01*
X84889962Y-73741651D01*
G37*
D11*
X84587500Y-74200000D03*
D17*
X92100000Y-77700000D03*
D18*
X91175000Y-78360000D03*
X91175000Y-77700000D03*
X91175000Y-77040000D03*
X93025000Y-77040000D03*
X93025000Y-77700000D03*
X93025000Y-78360000D03*
D10*
G36*
X94725962Y-76491651D02*
G01*
X94796930Y-76539070D01*
X94844349Y-76610038D01*
X94861000Y-76693750D01*
X94861000Y-77131250D01*
X94844349Y-77214962D01*
X94796930Y-77285930D01*
X94725962Y-77333349D01*
X94642250Y-77350000D01*
X94129750Y-77350000D01*
X94046038Y-77333349D01*
X93975070Y-77285930D01*
X93927651Y-77214962D01*
X93911000Y-77131250D01*
X93911000Y-76693750D01*
X93927651Y-76610038D01*
X93975070Y-76539070D01*
X94046038Y-76491651D01*
X94129750Y-76475000D01*
X94642250Y-76475000D01*
X94725962Y-76491651D01*
X94725962Y-76491651D01*
G37*
D11*
X94386000Y-76912500D03*
D10*
G36*
X94725962Y-78066651D02*
G01*
X94796930Y-78114070D01*
X94844349Y-78185038D01*
X94861000Y-78268750D01*
X94861000Y-78706250D01*
X94844349Y-78789962D01*
X94796930Y-78860930D01*
X94725962Y-78908349D01*
X94642250Y-78925000D01*
X94129750Y-78925000D01*
X94046038Y-78908349D01*
X93975070Y-78860930D01*
X93927651Y-78789962D01*
X93911000Y-78706250D01*
X93911000Y-78268750D01*
X93927651Y-78185038D01*
X93975070Y-78114070D01*
X94046038Y-78066651D01*
X94129750Y-78050000D01*
X94642250Y-78050000D01*
X94725962Y-78066651D01*
X94725962Y-78066651D01*
G37*
D11*
X94386000Y-78487500D03*
D10*
G36*
X90153962Y-76491651D02*
G01*
X90224930Y-76539070D01*
X90272349Y-76610038D01*
X90289000Y-76693750D01*
X90289000Y-77131250D01*
X90272349Y-77214962D01*
X90224930Y-77285930D01*
X90153962Y-77333349D01*
X90070250Y-77350000D01*
X89557750Y-77350000D01*
X89474038Y-77333349D01*
X89403070Y-77285930D01*
X89355651Y-77214962D01*
X89339000Y-77131250D01*
X89339000Y-76693750D01*
X89355651Y-76610038D01*
X89403070Y-76539070D01*
X89474038Y-76491651D01*
X89557750Y-76475000D01*
X90070250Y-76475000D01*
X90153962Y-76491651D01*
X90153962Y-76491651D01*
G37*
D11*
X89814000Y-76912500D03*
D10*
G36*
X90153962Y-78066651D02*
G01*
X90224930Y-78114070D01*
X90272349Y-78185038D01*
X90289000Y-78268750D01*
X90289000Y-78706250D01*
X90272349Y-78789962D01*
X90224930Y-78860930D01*
X90153962Y-78908349D01*
X90070250Y-78925000D01*
X89557750Y-78925000D01*
X89474038Y-78908349D01*
X89403070Y-78860930D01*
X89355651Y-78789962D01*
X89339000Y-78706250D01*
X89339000Y-78268750D01*
X89355651Y-78185038D01*
X89403070Y-78114070D01*
X89474038Y-78066651D01*
X89557750Y-78050000D01*
X90070250Y-78050000D01*
X90153962Y-78066651D01*
X90153962Y-78066651D01*
G37*
D11*
X89814000Y-78487500D03*
M02*
