G04 #@! TF.GenerationSoftware,KiCad,Pcbnew,5.99.0-unknown-529461e~100~ubuntu18.04.1*
G04 #@! TF.CreationDate,2019-11-06T10:36:20+01:00*
G04 #@! TF.ProjectId,f9p_board,6639705f-626f-4617-9264-2e6b69636164,rev?*
G04 #@! TF.SameCoordinates,Original*
G04 #@! TF.FileFunction,Copper,L2,Inr*
G04 #@! TF.FilePolarity,Positive*
%FSLAX46Y46*%
G04 Gerber Fmt 4.6, Leading zero omitted, Abs format (unit mm)*
G04 Created by KiCad (PCBNEW 5.99.0-unknown-529461e~100~ubuntu18.04.1) date 2019-11-06 10:36:20*
%MOMM*%
%LPD*%
G04 APERTURE LIST*
%ADD10O,1.200000X1.750000*%
%ADD11C,0.100000*%
%ADD12C,1.200000*%
%ADD13O,1.700000X1.700000*%
%ADD14R,1.700000X1.700000*%
%ADD15C,2.000000*%
%ADD16R,2.000000X2.000000*%
%ADD17O,1.750000X1.200000*%
%ADD18C,1.600000*%
%ADD19R,1.600000X1.600000*%
%ADD20C,3.000000*%
%ADD21C,2.600000*%
%ADD22R,2.600000X2.600000*%
%ADD23C,0.600000*%
%ADD24C,0.600000*%
%ADD25C,0.200000*%
%ADD26C,0.250000*%
%ADD27C,0.254000*%
G04 APERTURE END LIST*
D10*
X103000000Y-56100000D03*
X105000000Y-56100000D03*
X107000000Y-56100000D03*
D11*
G36*
X109445671Y-55244030D02*
G01*
X109526777Y-55298223D01*
X109580970Y-55379329D01*
X109600000Y-55474999D01*
X109600000Y-56725001D01*
X109580970Y-56820671D01*
X109526777Y-56901777D01*
X109445671Y-56955970D01*
X109350001Y-56975000D01*
X108649999Y-56975000D01*
X108554329Y-56955970D01*
X108473223Y-56901777D01*
X108419030Y-56820671D01*
X108400000Y-56725001D01*
X108400000Y-55474999D01*
X108419030Y-55379329D01*
X108473223Y-55298223D01*
X108554329Y-55244030D01*
X108649999Y-55225000D01*
X109350001Y-55225000D01*
X109445671Y-55244030D01*
X109445671Y-55244030D01*
G37*
D12*
X109000000Y-56100000D03*
D13*
X71720000Y-58800000D03*
X74260000Y-58800000D03*
D14*
X76800000Y-58800000D03*
D13*
X71720000Y-55100000D03*
X74260000Y-55100000D03*
D14*
X76800000Y-55100000D03*
D13*
X50725000Y-68055000D03*
X50725000Y-65515000D03*
D14*
X50725000Y-62975000D03*
D13*
X47050000Y-68055000D03*
X47050000Y-65515000D03*
D14*
X47050000Y-62975000D03*
D15*
X74250000Y-74000000D03*
D16*
X69250000Y-74000000D03*
D15*
X48250000Y-79850000D03*
D16*
X53250000Y-79850000D03*
D17*
X117600000Y-83400000D03*
D11*
G36*
X118320671Y-80819030D02*
G01*
X118401777Y-80873223D01*
X118455970Y-80954329D01*
X118475000Y-81049999D01*
X118475000Y-81750001D01*
X118455970Y-81845671D01*
X118401777Y-81926777D01*
X118320671Y-81980970D01*
X118225001Y-82000000D01*
X116974999Y-82000000D01*
X116879329Y-81980970D01*
X116798223Y-81926777D01*
X116744030Y-81845671D01*
X116725000Y-81750001D01*
X116725000Y-81049999D01*
X116744030Y-80954329D01*
X116798223Y-80873223D01*
X116879329Y-80819030D01*
X116974999Y-80800000D01*
X118225001Y-80800000D01*
X118320671Y-80819030D01*
X118320671Y-80819030D01*
G37*
D12*
X117600000Y-81400000D03*
D18*
X78100000Y-81700000D03*
X75600000Y-81700000D03*
X73600000Y-81700000D03*
D19*
X71100000Y-81700000D03*
D20*
X68030000Y-84410000D03*
X81170000Y-84410000D03*
D21*
X61100000Y-89100000D03*
D22*
X56100000Y-89100000D03*
D17*
X117600000Y-76500000D03*
X117600000Y-74500000D03*
X117600000Y-72500000D03*
X117600000Y-70500000D03*
X117600000Y-68500000D03*
D11*
G36*
X118320671Y-65919030D02*
G01*
X118401777Y-65973223D01*
X118455970Y-66054329D01*
X118475000Y-66149999D01*
X118475000Y-66850001D01*
X118455970Y-66945671D01*
X118401777Y-67026777D01*
X118320671Y-67080970D01*
X118225001Y-67100000D01*
X116974999Y-67100000D01*
X116879329Y-67080970D01*
X116798223Y-67026777D01*
X116744030Y-66945671D01*
X116725000Y-66850001D01*
X116725000Y-66149999D01*
X116744030Y-66054329D01*
X116798223Y-65973223D01*
X116879329Y-65919030D01*
X116974999Y-65900000D01*
X118225001Y-65900000D01*
X118320671Y-65919030D01*
X118320671Y-65919030D01*
G37*
D12*
X117600000Y-66500000D03*
D23*
X88250000Y-76400000D03*
X85500000Y-68500000D03*
X83400000Y-68500000D03*
X91800000Y-66400000D03*
X93900000Y-66400000D03*
X96000000Y-66400000D03*
X89700000Y-64300000D03*
X91800000Y-64300000D03*
X93900000Y-64300000D03*
X96000000Y-64300000D03*
X87600000Y-62200000D03*
X89700000Y-62200000D03*
X91800000Y-62200000D03*
X93900000Y-62200000D03*
X96000000Y-62200000D03*
X96000000Y-60100000D03*
X93900000Y-60100000D03*
X91800000Y-60100000D03*
X89700000Y-60100000D03*
X87600000Y-60100000D03*
X85500000Y-60100000D03*
X77300000Y-78900000D03*
X76300000Y-78900000D03*
X75100000Y-78900000D03*
X78100000Y-78100000D03*
X77500011Y-71949990D03*
X77450000Y-75750000D03*
X108750000Y-64900000D03*
X112000023Y-65775000D03*
X110366817Y-65880371D03*
X71600000Y-61000000D03*
X71550000Y-64050000D03*
X81041445Y-61542158D03*
X109350000Y-71550000D03*
X108850000Y-72950000D03*
X66250000Y-86500000D03*
X64600000Y-83400000D03*
X50300000Y-61300000D03*
X47500000Y-61300000D03*
X49600000Y-61300000D03*
X48200000Y-61300000D03*
X48900000Y-61300000D03*
X49600000Y-69400000D03*
X50300000Y-69400000D03*
X51000000Y-69400000D03*
X51700000Y-69400000D03*
X52400000Y-68700000D03*
X52400000Y-68000000D03*
X52400000Y-62500000D03*
X52400000Y-63300000D03*
X52400000Y-67300000D03*
X48900000Y-62700000D03*
X48900000Y-62000000D03*
X46750000Y-72300013D03*
X59750000Y-64000000D03*
X59750000Y-64750000D03*
X59750000Y-65500000D03*
X57500000Y-61000000D03*
X57500000Y-60250000D03*
X59000000Y-59500000D03*
X58250000Y-59500000D03*
X59750000Y-61000000D03*
X58250000Y-60250000D03*
X59750000Y-59500000D03*
X58250000Y-61000000D03*
X59000000Y-61000000D03*
X59750000Y-60250000D03*
X57500000Y-59500000D03*
X59000000Y-60250000D03*
X57500000Y-61750000D03*
X58250000Y-62500000D03*
X59750000Y-61750000D03*
X58250000Y-61750000D03*
X59000000Y-61750000D03*
X59750000Y-62500000D03*
X57500000Y-63250000D03*
X59000000Y-63250000D03*
X59750000Y-63250000D03*
X57500000Y-62500000D03*
X59000000Y-62500000D03*
X58250000Y-63250000D03*
X57500000Y-64000000D03*
X59000000Y-58750000D03*
X59000000Y-64000000D03*
X57500000Y-58750000D03*
X58250000Y-58750000D03*
X59750000Y-58750000D03*
X58250000Y-64000000D03*
X54500000Y-64750000D03*
X55250000Y-64750000D03*
X56750000Y-64750000D03*
X56000000Y-64750000D03*
X58250000Y-64750000D03*
X59000000Y-64750000D03*
X57500000Y-64750000D03*
X59000000Y-65500000D03*
X58250000Y-65500000D03*
X57500000Y-65500000D03*
X56750000Y-65500000D03*
X56000000Y-65500000D03*
X55250000Y-65500000D03*
X54500000Y-65500000D03*
X58750000Y-70750000D03*
X58000000Y-70000000D03*
X58750000Y-70000000D03*
X54250000Y-69250000D03*
X55000000Y-69250000D03*
X55750000Y-69250000D03*
X56500000Y-69250000D03*
X57250000Y-69250000D03*
X58000000Y-69250000D03*
X58750000Y-69250000D03*
X46750000Y-74250000D03*
X46750000Y-73250000D03*
X46750000Y-71250000D03*
X92500000Y-88600000D03*
X105500000Y-88500000D03*
X81200000Y-69800000D03*
X81200000Y-71000000D03*
X81200000Y-59500000D03*
X90600000Y-87500000D03*
X91200000Y-83700000D03*
X89924272Y-83275728D03*
X92500000Y-83400000D03*
X92500000Y-83400000D03*
X92500000Y-84100000D03*
X103735436Y-87735498D03*
X84800000Y-70600002D03*
X83850002Y-70597495D03*
X95800000Y-80000000D03*
X92700000Y-81400000D03*
X99500000Y-78200000D03*
X96600000Y-75000000D03*
X76399989Y-77300011D03*
X85610234Y-77199990D03*
X76000000Y-80000000D03*
X76700000Y-80000000D03*
X86200000Y-80000000D03*
X86800000Y-80000000D03*
X84700000Y-77800000D03*
X83500000Y-58200000D03*
X84700000Y-60100000D03*
X95900000Y-58200000D03*
X98300000Y-58300000D03*
X91200000Y-73200000D03*
X91800000Y-70500000D03*
X69100000Y-88000000D03*
X89589999Y-86210001D03*
X88800000Y-75100000D03*
X92300000Y-79300000D03*
X90600000Y-76400000D03*
X103600015Y-75279802D03*
X106644466Y-76439432D03*
X103721890Y-76076529D03*
X104888517Y-75591173D03*
X90800000Y-82100000D03*
X96700000Y-83200000D03*
X96072247Y-82518751D03*
X103100000Y-82400000D03*
X92900000Y-75300000D03*
X102098267Y-75047186D03*
X101836852Y-73954027D03*
X106100000Y-77800000D03*
X107600000Y-77800000D03*
X106866410Y-77480838D03*
X101500000Y-65900000D03*
X106400000Y-64200000D03*
X108200000Y-69450000D03*
X108747258Y-70761033D03*
X105600000Y-70300000D03*
X105547360Y-69254096D03*
X102614844Y-69400000D03*
X113300000Y-61200000D03*
X104200000Y-83450000D03*
X103600000Y-84050000D03*
X105350000Y-84100000D03*
X106200000Y-84300000D03*
X108900010Y-77500000D03*
X108250000Y-76950000D03*
X112652573Y-73280625D03*
X113145304Y-69100010D03*
X103472140Y-70103470D03*
X113100000Y-63350000D03*
X111300000Y-67950000D03*
X114550000Y-70500000D03*
X113550000Y-67000000D03*
X109050000Y-69800000D03*
X102180271Y-70769729D03*
X77500000Y-70750000D03*
X77500000Y-70000000D03*
X77500000Y-69250000D03*
X77500000Y-68500000D03*
X80000000Y-56500000D03*
X81250000Y-56500000D03*
X80000000Y-55750000D03*
X80000000Y-55000000D03*
X80000000Y-54250000D03*
X81250000Y-54250000D03*
X81250000Y-55750000D03*
X81250000Y-55000000D03*
X71340000Y-84410000D03*
X72840000Y-84410000D03*
X74340000Y-84410000D03*
X75840000Y-84410000D03*
X77340000Y-84410000D03*
X94050000Y-90200000D03*
X96650000Y-88350000D03*
X87750000Y-88750000D03*
X100850000Y-88400000D03*
X109750000Y-88500000D03*
X116800000Y-86200000D03*
X117550000Y-86200000D03*
X118975010Y-84024990D03*
X119300000Y-77200000D03*
X119300000Y-74200000D03*
X52450000Y-87550000D03*
X51325000Y-86400000D03*
X50200000Y-85300000D03*
X48750000Y-77500000D03*
X48750000Y-76750000D03*
X48750000Y-76000000D03*
X51500000Y-70500000D03*
X84750000Y-85000000D03*
X84750000Y-84000000D03*
X84750000Y-83000000D03*
X83000000Y-91500000D03*
X83750000Y-90750000D03*
X84005000Y-89745000D03*
X84005000Y-88745000D03*
X73931250Y-68818750D03*
X91500000Y-54100000D03*
X92400000Y-54100000D03*
X93300000Y-54100000D03*
X105650000Y-63450000D03*
X104975000Y-62675000D03*
X104200000Y-62000000D03*
X102960000Y-61990000D03*
X101810000Y-61990000D03*
X105750000Y-75500000D03*
X106250000Y-75000000D03*
X106775000Y-74475000D03*
X107275000Y-73975000D03*
X96900000Y-70499972D03*
X97980264Y-66569736D03*
X87652785Y-70400000D03*
X82139576Y-75150000D03*
X98150000Y-74200000D03*
X109450000Y-73600000D03*
X69250000Y-68250000D03*
X102200021Y-77588770D03*
X96750000Y-78550000D03*
X105650000Y-71150000D03*
X105650000Y-73150000D03*
X104500000Y-81400000D03*
X112700000Y-75800000D03*
X108700000Y-80650000D03*
X107734608Y-80417030D03*
X113300000Y-76400000D03*
X108450000Y-84500000D03*
X62500000Y-72900000D03*
X62500000Y-75400000D03*
X57300000Y-76600000D03*
X56100000Y-74500000D03*
X56700000Y-75100000D03*
X57400000Y-70600000D03*
X58700000Y-80000000D03*
X58700000Y-80700000D03*
X58700000Y-79300000D03*
X60700000Y-75900000D03*
X59300000Y-75900000D03*
X57200000Y-71600000D03*
D24*
X103000000Y-58000000D02*
X103000000Y-56100000D01*
X76000000Y-80000000D02*
X76700000Y-80000000D01*
X86800000Y-80000000D02*
X86200000Y-80000000D01*
D25*
X111300000Y-67950000D02*
X108750000Y-65400000D01*
X108750000Y-65400000D02*
X108750000Y-64900000D01*
X90702976Y-71203690D02*
X81341444Y-61842157D01*
X81341444Y-61842157D02*
X81041445Y-61542158D01*
X101063440Y-71203690D02*
X90702976Y-71203690D01*
X104288515Y-74428765D02*
X101063440Y-71203690D01*
X104288515Y-75879175D02*
X104288515Y-74428765D01*
X106644466Y-76439432D02*
X104848772Y-76439432D01*
X104848772Y-76439432D02*
X104288515Y-75879175D01*
X48799999Y-63674999D02*
X48799999Y-69200001D01*
X48799999Y-69200001D02*
X47049999Y-70950001D01*
X48100000Y-62975000D02*
X48799999Y-63674999D01*
X47049999Y-70950001D02*
X46750000Y-71250000D01*
X47050000Y-62975000D02*
X48100000Y-62975000D01*
X117600000Y-84200000D02*
X115589999Y-86210001D01*
X117600000Y-83400000D02*
X117600000Y-84200000D01*
X115589999Y-86210001D02*
X89589999Y-86210001D01*
D24*
X71100000Y-80300000D02*
X71400000Y-80000000D01*
X71100000Y-81700000D02*
X71100000Y-80300000D01*
X71400000Y-80000000D02*
X76000000Y-80000000D01*
X92500000Y-83400000D02*
X92500000Y-84100000D01*
D25*
X64600000Y-83400000D02*
X70699989Y-77300011D01*
X70699989Y-77300011D02*
X76399989Y-77300011D01*
X85610234Y-71410236D02*
X84800000Y-70600002D01*
X85610234Y-77199990D02*
X85610234Y-71410236D01*
X84700000Y-71447493D02*
X83850002Y-70597495D01*
X84700000Y-77800000D02*
X84700000Y-71447493D01*
D24*
X92500000Y-82615998D02*
X92500000Y-82975736D01*
X92500000Y-82975736D02*
X92500000Y-83400000D01*
X89884002Y-80000000D02*
X92500000Y-82615998D01*
X86800000Y-80000000D02*
X89884002Y-80000000D01*
D25*
X106866410Y-77480838D02*
X108147248Y-76200000D01*
X108147248Y-69502752D02*
X108200000Y-69450000D01*
X108147248Y-76200000D02*
X108147248Y-69502752D01*
D24*
X93300003Y-84200003D02*
X103449997Y-84200003D01*
X103900001Y-83749999D02*
X104200000Y-83450000D01*
X92500000Y-83400000D02*
X93300003Y-84200003D01*
X103449997Y-84200003D02*
X103900001Y-83749999D01*
X104200000Y-83450000D02*
X103600000Y-84050000D01*
X103600000Y-84050000D02*
X104236811Y-83413189D01*
X104236811Y-83413189D02*
X105350000Y-82300000D01*
X105350000Y-82300000D02*
X112000000Y-82300000D01*
X112000000Y-82300000D02*
X115400000Y-78900000D01*
X115400000Y-78900000D02*
X115400000Y-72600000D01*
X115400000Y-72600000D02*
X115400000Y-68850000D01*
X115400000Y-68850000D02*
X113550000Y-67000000D01*
X113550000Y-67000000D02*
X113550000Y-65900000D01*
X113550000Y-65900000D02*
X107650000Y-60000000D01*
X103000000Y-59475000D02*
X103000000Y-58000000D01*
X103525000Y-60000000D02*
X103000000Y-59475000D01*
X107650000Y-60000000D02*
X103525000Y-60000000D01*
D25*
X111300000Y-68700000D02*
X111300000Y-67950000D01*
X109050000Y-69800000D02*
X110200000Y-69800000D01*
X110200000Y-69800000D02*
X111300000Y-68700000D01*
X112052572Y-72992624D02*
X114545196Y-70500000D01*
X108250000Y-76950000D02*
X108250000Y-76795196D01*
X108250000Y-76795196D02*
X112052572Y-72992624D01*
X104888517Y-74326519D02*
X104888517Y-75166909D01*
X104888517Y-75166909D02*
X104888517Y-75591173D01*
X81200000Y-59500000D02*
X90061998Y-59500000D01*
D26*
X102614844Y-69400000D02*
X102614844Y-70335156D01*
X102614844Y-70335156D02*
X102180271Y-70769729D01*
D25*
X90061998Y-59500000D02*
X104888517Y-74326519D01*
X108700000Y-80520887D02*
X108700000Y-80650000D01*
X112700000Y-75800000D02*
X112700000Y-76520887D01*
X112700000Y-76520887D02*
X108700000Y-80520887D01*
X107300000Y-63450000D02*
X105650000Y-63450000D01*
X108750000Y-64900000D02*
X107300000Y-63450000D01*
X56700000Y-76000000D02*
X56700000Y-75100000D01*
X57300000Y-76600000D02*
X56700000Y-76000000D01*
X46750000Y-73250000D02*
X48758525Y-71241475D01*
X55787784Y-71641486D02*
X58396298Y-74250000D01*
X64250000Y-74250000D02*
X65750000Y-75750000D01*
X58396298Y-74250000D02*
X64250000Y-74250000D01*
X77200012Y-72249989D02*
X77500011Y-71949990D01*
X48758525Y-71241475D02*
X55953473Y-71241475D01*
X49358514Y-71641486D02*
X55787784Y-71641486D01*
X77025736Y-75750000D02*
X77450000Y-75750000D01*
X55953473Y-71241475D02*
X56961987Y-72249989D01*
X56961987Y-72249989D02*
X77200012Y-72249989D01*
X46750000Y-74250000D02*
X49358514Y-71641486D01*
X65750000Y-75750000D02*
X77025736Y-75750000D01*
X56100000Y-74924264D02*
X56100000Y-74500000D01*
X56100000Y-79400000D02*
X56100000Y-74924264D01*
X64700000Y-88000000D02*
X56100000Y-79400000D01*
X69100000Y-88000000D02*
X64700000Y-88000000D01*
D27*
G36*
X119474001Y-93474000D02*
G01*
X45526000Y-93474000D01*
X45526000Y-90081821D01*
X46870148Y-90081821D01*
X46902924Y-90381103D01*
X46977543Y-90672781D01*
X47092516Y-90951037D01*
X47245548Y-91210316D01*
X47433586Y-91445445D01*
X47652878Y-91651734D01*
X47899049Y-91825068D01*
X48167187Y-91961986D01*
X48451941Y-92059756D01*
X48747631Y-92116430D01*
X49048357Y-92130875D01*
X49348117Y-92102803D01*
X49640932Y-92032774D01*
X49909851Y-91926573D01*
X90868252Y-91926573D01*
X90890419Y-92137469D01*
X90957354Y-92338685D01*
X91065937Y-92520834D01*
X91211100Y-92675417D01*
X91386071Y-92795223D01*
X91582688Y-92874661D01*
X91791776Y-92910025D01*
X92003580Y-92899666D01*
X92208219Y-92844067D01*
X92396144Y-92745822D01*
X92558591Y-92609514D01*
X92687976Y-92441502D01*
X92778266Y-92249628D01*
X92825297Y-92042623D01*
X92825701Y-91926573D01*
X93868252Y-91926573D01*
X93890419Y-92137469D01*
X93957354Y-92338685D01*
X94065937Y-92520834D01*
X94211100Y-92675417D01*
X94386071Y-92795223D01*
X94582688Y-92874661D01*
X94791776Y-92910025D01*
X95003580Y-92899666D01*
X95208219Y-92844067D01*
X95396144Y-92745822D01*
X95558591Y-92609514D01*
X95687976Y-92441502D01*
X95778266Y-92249628D01*
X95825297Y-92042623D01*
X95825352Y-92026573D01*
X103868252Y-92026573D01*
X103890419Y-92237469D01*
X103957354Y-92438685D01*
X104065937Y-92620834D01*
X104211100Y-92775417D01*
X104386071Y-92895223D01*
X104582688Y-92974661D01*
X104791776Y-93010025D01*
X105003580Y-92999666D01*
X105208219Y-92944067D01*
X105396144Y-92845822D01*
X105558591Y-92709514D01*
X105687976Y-92541502D01*
X105778266Y-92349628D01*
X105825297Y-92142623D01*
X105825701Y-92026573D01*
X106868252Y-92026573D01*
X106890419Y-92237469D01*
X106957354Y-92438685D01*
X107065937Y-92620834D01*
X107211100Y-92775417D01*
X107386071Y-92895223D01*
X107582688Y-92974661D01*
X107791776Y-93010025D01*
X108003580Y-92999666D01*
X108208219Y-92944067D01*
X108396144Y-92845822D01*
X108558591Y-92709514D01*
X108687976Y-92541502D01*
X108778266Y-92349628D01*
X108825297Y-92142623D01*
X108826059Y-91924188D01*
X108780474Y-91716861D01*
X108691527Y-91524359D01*
X108563317Y-91355450D01*
X108401827Y-91218011D01*
X108214592Y-91118455D01*
X108010346Y-91061430D01*
X107798619Y-91049592D01*
X107589289Y-91083496D01*
X107392124Y-91161560D01*
X107216320Y-91280140D01*
X107070081Y-91433706D01*
X106960229Y-91615093D01*
X106891890Y-91815837D01*
X106868252Y-92026573D01*
X105825701Y-92026573D01*
X105826059Y-91924188D01*
X105780474Y-91716861D01*
X105691527Y-91524359D01*
X105563317Y-91355450D01*
X105401827Y-91218011D01*
X105214592Y-91118455D01*
X105010346Y-91061430D01*
X104798619Y-91049592D01*
X104589289Y-91083496D01*
X104392124Y-91161560D01*
X104216320Y-91280140D01*
X104070081Y-91433706D01*
X103960229Y-91615093D01*
X103891890Y-91815837D01*
X103868252Y-92026573D01*
X95825352Y-92026573D01*
X95826059Y-91824188D01*
X95780474Y-91616861D01*
X95691527Y-91424359D01*
X95563317Y-91255450D01*
X95401827Y-91118011D01*
X95214592Y-91018455D01*
X95010346Y-90961430D01*
X94798619Y-90949592D01*
X94589289Y-90983496D01*
X94392124Y-91061560D01*
X94216320Y-91180140D01*
X94070081Y-91333706D01*
X93960229Y-91515093D01*
X93891890Y-91715837D01*
X93868252Y-91926573D01*
X92825701Y-91926573D01*
X92826059Y-91824188D01*
X92780474Y-91616861D01*
X92691527Y-91424359D01*
X92563317Y-91255450D01*
X92401827Y-91118011D01*
X92214592Y-91018455D01*
X92010346Y-90961430D01*
X91798619Y-90949592D01*
X91589289Y-90983496D01*
X91392124Y-91061560D01*
X91216320Y-91180140D01*
X91070081Y-91333706D01*
X90960229Y-91515093D01*
X90891890Y-91715837D01*
X90868252Y-91926573D01*
X49909851Y-91926573D01*
X49920958Y-91922187D01*
X50182608Y-91773247D01*
X50420663Y-91588925D01*
X50630371Y-91372900D01*
X50807550Y-91129482D01*
X50948662Y-90863529D01*
X51050894Y-90580344D01*
X51112610Y-90283632D01*
X51126511Y-89853292D01*
X51084070Y-89553214D01*
X51000326Y-89264023D01*
X50984099Y-89228000D01*
X54158163Y-89228000D01*
X54158163Y-90416588D01*
X54238795Y-90717512D01*
X54386185Y-90893165D01*
X54579814Y-91004956D01*
X54788976Y-91041837D01*
X55972000Y-91041837D01*
X55972000Y-89228000D01*
X56228000Y-89228000D01*
X56228000Y-91041837D01*
X57416588Y-91041837D01*
X57717512Y-90961205D01*
X57893165Y-90813815D01*
X58004956Y-90620186D01*
X58041837Y-90411024D01*
X58041837Y-89228000D01*
X56228000Y-89228000D01*
X55972000Y-89228000D01*
X54158163Y-89228000D01*
X50984099Y-89228000D01*
X50901966Y-89045670D01*
X59269440Y-89045670D01*
X59282285Y-89323187D01*
X59336959Y-89595568D01*
X59432205Y-89856545D01*
X59565830Y-90100113D01*
X59734761Y-90320665D01*
X59935108Y-90513127D01*
X60162262Y-90673070D01*
X60410996Y-90796813D01*
X60675584Y-90881509D01*
X60949941Y-90925208D01*
X61227750Y-90926905D01*
X61502619Y-90886560D01*
X61768223Y-90805104D01*
X62018450Y-90684409D01*
X62247541Y-90527253D01*
X62450224Y-90337253D01*
X62621836Y-90118781D01*
X62642704Y-90081821D01*
X113870148Y-90081821D01*
X113902924Y-90381103D01*
X113977543Y-90672781D01*
X114092516Y-90951037D01*
X114245548Y-91210316D01*
X114433586Y-91445445D01*
X114652878Y-91651734D01*
X114899049Y-91825068D01*
X115167187Y-91961986D01*
X115451941Y-92059756D01*
X115747631Y-92116430D01*
X116048357Y-92130875D01*
X116348117Y-92102803D01*
X116640932Y-92032774D01*
X116920958Y-91922187D01*
X117182608Y-91773247D01*
X117420663Y-91588925D01*
X117630371Y-91372900D01*
X117807550Y-91129482D01*
X117948662Y-90863529D01*
X118050894Y-90580344D01*
X118112610Y-90283632D01*
X118126511Y-89853292D01*
X118084070Y-89553214D01*
X118000326Y-89264023D01*
X117876670Y-88989517D01*
X117715570Y-88735173D01*
X117520239Y-88506065D01*
X117294575Y-88306766D01*
X117043082Y-88141251D01*
X116770775Y-88012823D01*
X116483090Y-87924045D01*
X116185766Y-87876687D01*
X115884735Y-87871695D01*
X115586004Y-87909169D01*
X115295534Y-87988360D01*
X115019120Y-88107689D01*
X114762276Y-88264775D01*
X114530128Y-88456483D01*
X114327310Y-88678988D01*
X114157865Y-88927852D01*
X114025175Y-89198107D01*
X113931889Y-89484361D01*
X113879867Y-89780906D01*
X113870148Y-90081821D01*
X62642704Y-90081821D01*
X62758428Y-89876865D01*
X62856855Y-89617071D01*
X62915234Y-89343591D01*
X62926486Y-88964493D01*
X62884428Y-88688032D01*
X62801582Y-88422858D01*
X62679579Y-88173267D01*
X62521225Y-87945001D01*
X62330166Y-87743316D01*
X62110799Y-87572850D01*
X61868171Y-87437528D01*
X61607865Y-87340462D01*
X61335872Y-87283887D01*
X61058451Y-87269106D01*
X60781987Y-87296457D01*
X60512840Y-87365312D01*
X60257205Y-87474085D01*
X60020966Y-87620275D01*
X59809557Y-87800516D01*
X59627843Y-88010662D01*
X59480009Y-88245876D01*
X59369452Y-88500744D01*
X59298721Y-88769403D01*
X59269440Y-89045670D01*
X50901966Y-89045670D01*
X50876670Y-88989517D01*
X50715570Y-88735173D01*
X50520239Y-88506065D01*
X50294575Y-88306766D01*
X50043082Y-88141251D01*
X49770775Y-88012823D01*
X49483090Y-87924045D01*
X49185766Y-87876687D01*
X48884735Y-87871695D01*
X48586004Y-87909169D01*
X48295534Y-87988360D01*
X48019120Y-88107689D01*
X47762276Y-88264775D01*
X47530128Y-88456483D01*
X47327310Y-88678988D01*
X47157865Y-88927852D01*
X47025175Y-89198107D01*
X46931889Y-89484361D01*
X46879867Y-89780906D01*
X46870148Y-90081821D01*
X45526000Y-90081821D01*
X45526000Y-87788976D01*
X54158163Y-87788976D01*
X54158163Y-88972000D01*
X55972000Y-88972000D01*
X55972000Y-87158163D01*
X56228000Y-87158163D01*
X56228000Y-88972000D01*
X58041837Y-88972000D01*
X58041837Y-87783412D01*
X57961205Y-87482489D01*
X57813815Y-87306835D01*
X57620186Y-87195044D01*
X57411024Y-87158163D01*
X56228000Y-87158163D01*
X55972000Y-87158163D01*
X54783412Y-87158163D01*
X54482489Y-87238795D01*
X54306835Y-87386185D01*
X54195044Y-87579814D01*
X54158163Y-87788976D01*
X45526000Y-87788976D01*
X45526000Y-81109459D01*
X47171560Y-81109459D01*
X47526235Y-81320887D01*
X47770711Y-81417682D01*
X48027520Y-81474145D01*
X48290052Y-81488822D01*
X48551554Y-81461338D01*
X48805297Y-81392397D01*
X49044754Y-81283775D01*
X49319930Y-81100949D01*
X48250000Y-80031019D01*
X47171560Y-81109459D01*
X45526000Y-81109459D01*
X45526000Y-79832834D01*
X46610778Y-79832834D01*
X46629120Y-80095135D01*
X46689163Y-80351130D01*
X46789362Y-80594232D01*
X46993282Y-80925699D01*
X48068981Y-79850000D01*
X48431019Y-79850000D01*
X49493509Y-80912489D01*
X49618577Y-80752410D01*
X49745250Y-80521992D01*
X49833454Y-80274286D01*
X49881040Y-80015010D01*
X49884138Y-79719185D01*
X49841992Y-79458970D01*
X49758994Y-79209470D01*
X49637175Y-78976450D01*
X49533297Y-78837590D01*
X51716164Y-78837590D01*
X51716164Y-80862410D01*
X51754520Y-81055235D01*
X51870775Y-81229225D01*
X52044765Y-81345480D01*
X52237590Y-81383836D01*
X54262410Y-81383836D01*
X54455235Y-81345480D01*
X54629225Y-81229225D01*
X54745480Y-81055235D01*
X54783836Y-80862410D01*
X54783836Y-78837590D01*
X54745480Y-78644765D01*
X54629225Y-78470775D01*
X54455235Y-78354520D01*
X54262410Y-78316164D01*
X52237590Y-78316164D01*
X52044765Y-78354520D01*
X51870775Y-78470775D01*
X51754520Y-78644765D01*
X51716164Y-78837590D01*
X49533297Y-78837590D01*
X49494838Y-78786181D01*
X48431019Y-79850000D01*
X48068981Y-79850000D01*
X46996927Y-78777946D01*
X46805269Y-79075342D01*
X46700000Y-79316292D01*
X46634608Y-79570973D01*
X46610778Y-79832834D01*
X45526000Y-79832834D01*
X45526000Y-78607089D01*
X47188108Y-78607089D01*
X48250000Y-79668981D01*
X49317194Y-78601786D01*
X49074606Y-78433183D01*
X48837477Y-78319571D01*
X48585233Y-78245331D01*
X48324364Y-78212375D01*
X48061582Y-78221552D01*
X47803648Y-78272625D01*
X47557197Y-78364278D01*
X47328570Y-78494157D01*
X47188108Y-78607089D01*
X45526000Y-78607089D01*
X45526000Y-68183000D01*
X45560513Y-68183000D01*
X45623456Y-68482983D01*
X45715961Y-68717222D01*
X45846610Y-68932526D01*
X46011669Y-69122739D01*
X46206416Y-69282422D01*
X46425284Y-69407009D01*
X46664831Y-69493960D01*
X46922000Y-69528047D01*
X46922000Y-68183000D01*
X45560513Y-68183000D01*
X45526000Y-68183000D01*
X45526000Y-67927000D01*
X45569957Y-67927000D01*
X47178000Y-67927000D01*
X47178000Y-69554978D01*
X47544708Y-69459800D01*
X47745235Y-69369469D01*
X46697530Y-70417174D01*
X46691731Y-70416712D01*
X46449287Y-70470684D01*
X46233430Y-70593556D01*
X46063245Y-70774469D01*
X45953779Y-70997424D01*
X45914710Y-71242710D01*
X45949492Y-71488642D01*
X46055051Y-71713474D01*
X46110375Y-71774381D01*
X46063245Y-71824482D01*
X45953779Y-72047437D01*
X45914710Y-72292723D01*
X45949492Y-72538655D01*
X46055051Y-72763487D01*
X46064151Y-72773506D01*
X46063245Y-72774469D01*
X45953779Y-72997424D01*
X45914710Y-73242710D01*
X45949492Y-73488642D01*
X46055051Y-73713474D01*
X46087263Y-73748937D01*
X46063245Y-73774469D01*
X45953779Y-73997424D01*
X45914710Y-74242710D01*
X45949492Y-74488642D01*
X46055051Y-74713474D01*
X46222052Y-74897328D01*
X46435732Y-75023950D01*
X46677197Y-75082143D01*
X46925099Y-75066764D01*
X47157520Y-74979171D01*
X47353911Y-74827109D01*
X47496907Y-74624022D01*
X47539699Y-74492710D01*
X55264710Y-74492710D01*
X55299492Y-74738642D01*
X55405051Y-74963474D01*
X55474001Y-75039383D01*
X55474000Y-79372682D01*
X55466762Y-79455401D01*
X55488256Y-79535616D01*
X55502678Y-79617407D01*
X55516662Y-79641627D01*
X55523899Y-79668639D01*
X55571529Y-79736662D01*
X55613058Y-79808593D01*
X55676690Y-79861986D01*
X64238017Y-88423313D01*
X64291407Y-88486941D01*
X64363333Y-88528468D01*
X64431360Y-88576101D01*
X64458372Y-88583338D01*
X64482592Y-88597322D01*
X64564380Y-88611744D01*
X64644599Y-88633238D01*
X64727333Y-88626000D01*
X68552679Y-88626000D01*
X68572052Y-88647328D01*
X68785732Y-88773950D01*
X69027197Y-88832143D01*
X69275099Y-88816764D01*
X69507520Y-88729171D01*
X69703911Y-88577109D01*
X69846907Y-88374022D01*
X69924022Y-88137386D01*
X69926295Y-87877016D01*
X69853321Y-87639069D01*
X69713890Y-87433519D01*
X69520184Y-87278053D01*
X69289327Y-87186417D01*
X69041731Y-87166712D01*
X68799287Y-87220684D01*
X68583430Y-87343556D01*
X68554791Y-87374000D01*
X64959296Y-87374000D01*
X64078006Y-86492710D01*
X65414710Y-86492710D01*
X65449492Y-86738642D01*
X65555051Y-86963474D01*
X65722052Y-87147328D01*
X65935732Y-87273950D01*
X66177197Y-87332143D01*
X66425099Y-87316764D01*
X66657520Y-87229171D01*
X66853911Y-87077109D01*
X66996907Y-86874022D01*
X67074022Y-86637386D01*
X67076295Y-86377016D01*
X67056355Y-86311997D01*
X67092231Y-86332710D01*
X67368948Y-86444511D01*
X67658530Y-86516711D01*
X67955343Y-86547908D01*
X68253609Y-86537492D01*
X68547522Y-86485667D01*
X68831363Y-86393441D01*
X69099606Y-86262611D01*
X69459106Y-86020125D01*
X69448674Y-86009693D01*
X79751326Y-86009693D01*
X79973768Y-86183486D01*
X80232231Y-86332710D01*
X80508948Y-86444511D01*
X80798530Y-86516711D01*
X81095343Y-86547908D01*
X81393609Y-86537492D01*
X81687522Y-86485667D01*
X81971363Y-86393441D01*
X82239606Y-86262611D01*
X82328411Y-86202711D01*
X88754709Y-86202711D01*
X88789491Y-86448643D01*
X88895050Y-86673475D01*
X89062051Y-86857329D01*
X89275731Y-86983951D01*
X89517196Y-87042144D01*
X89765098Y-87026765D01*
X89991268Y-86941528D01*
X89913245Y-87024469D01*
X89803779Y-87247424D01*
X89764710Y-87492710D01*
X89799492Y-87738642D01*
X89822213Y-87787035D01*
X89785508Y-87790893D01*
X89580390Y-87857540D01*
X89393611Y-87965376D01*
X89233334Y-88109691D01*
X89106564Y-88284175D01*
X89018842Y-88481202D01*
X88974000Y-88692163D01*
X88974000Y-88907837D01*
X89018842Y-89118798D01*
X89106564Y-89315825D01*
X89233334Y-89490309D01*
X89393611Y-89634624D01*
X89580390Y-89742460D01*
X89785508Y-89809107D01*
X90000000Y-89831651D01*
X90214492Y-89809107D01*
X90419610Y-89742460D01*
X90606389Y-89634624D01*
X90766666Y-89490309D01*
X90893436Y-89315825D01*
X90981158Y-89118798D01*
X91026000Y-88907837D01*
X91026000Y-88692163D01*
X91004861Y-88592710D01*
X91664710Y-88592710D01*
X91699492Y-88838642D01*
X91805051Y-89063474D01*
X91972052Y-89247328D01*
X92185732Y-89373950D01*
X92427197Y-89432143D01*
X92675099Y-89416764D01*
X92907520Y-89329171D01*
X93103911Y-89177109D01*
X93246907Y-88974022D01*
X93324022Y-88737386D01*
X93324416Y-88692163D01*
X93374000Y-88692163D01*
X93374000Y-88907837D01*
X93418842Y-89118798D01*
X93506564Y-89315825D01*
X93633334Y-89490309D01*
X93793611Y-89634624D01*
X93980390Y-89742460D01*
X94185508Y-89809107D01*
X94400000Y-89831651D01*
X94614492Y-89809107D01*
X94819610Y-89742460D01*
X95006389Y-89634624D01*
X95166666Y-89490309D01*
X95293436Y-89315825D01*
X95381158Y-89118798D01*
X95426000Y-88907837D01*
X95426000Y-88692163D01*
X102074000Y-88692163D01*
X102074000Y-88907837D01*
X102118842Y-89118798D01*
X102206564Y-89315825D01*
X102333334Y-89490309D01*
X102493611Y-89634624D01*
X102680390Y-89742460D01*
X102885508Y-89809107D01*
X103100000Y-89831651D01*
X103314492Y-89809107D01*
X103519610Y-89742460D01*
X103706389Y-89634624D01*
X103866666Y-89490309D01*
X103993436Y-89315825D01*
X104081158Y-89118798D01*
X104126000Y-88907837D01*
X104126000Y-88692163D01*
X104083605Y-88492710D01*
X104664710Y-88492710D01*
X104699492Y-88738642D01*
X104805051Y-88963474D01*
X104972052Y-89147328D01*
X105185732Y-89273950D01*
X105427197Y-89332143D01*
X105675099Y-89316764D01*
X105907520Y-89229171D01*
X106103911Y-89077109D01*
X106246907Y-88874022D01*
X106306171Y-88692163D01*
X106474000Y-88692163D01*
X106474000Y-88907837D01*
X106518842Y-89118798D01*
X106606564Y-89315825D01*
X106733334Y-89490309D01*
X106893611Y-89634624D01*
X107080390Y-89742460D01*
X107285508Y-89809107D01*
X107500000Y-89831651D01*
X107714492Y-89809107D01*
X107919610Y-89742460D01*
X108106389Y-89634624D01*
X108266666Y-89490309D01*
X108393436Y-89315825D01*
X108481158Y-89118798D01*
X108526000Y-88907837D01*
X108526000Y-88692163D01*
X108481158Y-88481202D01*
X108393436Y-88284175D01*
X108266666Y-88109691D01*
X108106389Y-87965376D01*
X107919610Y-87857540D01*
X107714492Y-87790893D01*
X107500000Y-87768349D01*
X107285508Y-87790893D01*
X107080390Y-87857540D01*
X106893611Y-87965376D01*
X106733334Y-88109691D01*
X106606564Y-88284175D01*
X106518842Y-88481202D01*
X106474000Y-88692163D01*
X106306171Y-88692163D01*
X106324022Y-88637386D01*
X106326295Y-88377016D01*
X106253321Y-88139069D01*
X106113890Y-87933519D01*
X105920184Y-87778053D01*
X105689327Y-87686417D01*
X105441731Y-87666712D01*
X105199287Y-87720684D01*
X104983430Y-87843556D01*
X104813245Y-88024469D01*
X104703779Y-88247424D01*
X104664710Y-88492710D01*
X104083605Y-88492710D01*
X104082488Y-88487458D01*
X104142956Y-88464669D01*
X104339347Y-88312607D01*
X104482343Y-88109520D01*
X104559458Y-87872884D01*
X104561731Y-87612514D01*
X104488757Y-87374567D01*
X104349326Y-87169017D01*
X104155620Y-87013551D01*
X103924763Y-86921915D01*
X103677167Y-86902210D01*
X103434723Y-86956182D01*
X103218866Y-87079054D01*
X103048681Y-87259967D01*
X102939215Y-87482922D01*
X102900146Y-87728208D01*
X102908667Y-87788459D01*
X102885508Y-87790893D01*
X102680390Y-87857540D01*
X102493611Y-87965376D01*
X102333334Y-88109691D01*
X102206564Y-88284175D01*
X102118842Y-88481202D01*
X102074000Y-88692163D01*
X95426000Y-88692163D01*
X95381158Y-88481202D01*
X95293436Y-88284175D01*
X95166666Y-88109691D01*
X95006389Y-87965376D01*
X94819610Y-87857540D01*
X94614492Y-87790893D01*
X94400000Y-87768349D01*
X94185508Y-87790893D01*
X93980390Y-87857540D01*
X93793611Y-87965376D01*
X93633334Y-88109691D01*
X93506564Y-88284175D01*
X93418842Y-88481202D01*
X93374000Y-88692163D01*
X93324416Y-88692163D01*
X93326295Y-88477016D01*
X93253321Y-88239069D01*
X93113890Y-88033519D01*
X92920184Y-87878053D01*
X92689327Y-87786417D01*
X92441731Y-87766712D01*
X92199287Y-87820684D01*
X91983430Y-87943556D01*
X91813245Y-88124469D01*
X91703779Y-88347424D01*
X91664710Y-88592710D01*
X91004861Y-88592710D01*
X90981158Y-88481202D01*
X90893436Y-88284175D01*
X90886586Y-88274747D01*
X91007520Y-88229171D01*
X91203911Y-88077109D01*
X91346907Y-87874022D01*
X91424022Y-87637386D01*
X91426295Y-87377016D01*
X91353321Y-87139069D01*
X91213890Y-86933519D01*
X91092385Y-86836001D01*
X115562681Y-86836001D01*
X115645400Y-86843239D01*
X115725619Y-86821745D01*
X115807406Y-86807323D01*
X115831627Y-86793339D01*
X115858639Y-86786101D01*
X115926659Y-86738472D01*
X115998591Y-86696943D01*
X116051984Y-86633312D01*
X118023313Y-84661983D01*
X118086941Y-84608593D01*
X118128468Y-84536667D01*
X118160843Y-84490430D01*
X118320865Y-84440282D01*
X118520937Y-84329381D01*
X118694621Y-84180515D01*
X118834825Y-83999766D01*
X118935821Y-83794516D01*
X118993483Y-83573150D01*
X119005454Y-83344711D01*
X118971247Y-83118532D01*
X118892260Y-82903849D01*
X118771717Y-82709434D01*
X118616319Y-82545105D01*
X118807279Y-82422382D01*
X118973745Y-82230270D01*
X119079343Y-81999042D01*
X119114224Y-81756442D01*
X119114224Y-81528000D01*
X116085776Y-81528000D01*
X116085776Y-81760976D01*
X116162691Y-82114549D01*
X116302618Y-82332279D01*
X116494730Y-82498745D01*
X116593579Y-82543888D01*
X116505379Y-82619485D01*
X116365175Y-82800234D01*
X116264179Y-83005484D01*
X116206517Y-83226850D01*
X116194546Y-83455289D01*
X116228753Y-83681468D01*
X116307740Y-83896151D01*
X116428283Y-84090566D01*
X116585455Y-84256771D01*
X116628084Y-84286620D01*
X115330703Y-85584001D01*
X90129730Y-85584001D01*
X90010183Y-85488054D01*
X89779326Y-85396418D01*
X89531730Y-85376713D01*
X89289286Y-85430685D01*
X89073429Y-85553557D01*
X88903244Y-85734470D01*
X88793778Y-85957425D01*
X88754709Y-86202711D01*
X82328411Y-86202711D01*
X82599106Y-86020125D01*
X81170000Y-84591019D01*
X79751326Y-86009693D01*
X69448674Y-86009693D01*
X67848981Y-84410000D01*
X68211019Y-84410000D01*
X69627322Y-85826303D01*
X69760658Y-85667396D01*
X69918811Y-85414299D01*
X70040200Y-85141653D01*
X70122464Y-84854767D01*
X70164000Y-84559224D01*
X70164000Y-84410000D01*
X79030789Y-84410000D01*
X79051608Y-84707721D01*
X79113658Y-84999646D01*
X79215734Y-85280095D01*
X79355846Y-85543609D01*
X79566052Y-85832929D01*
X80988981Y-84410000D01*
X81351019Y-84410000D01*
X82767322Y-85826303D01*
X82900658Y-85667396D01*
X83058811Y-85414299D01*
X83180200Y-85141653D01*
X83262464Y-84854767D01*
X83304000Y-84559224D01*
X83304000Y-84260776D01*
X83262464Y-83965233D01*
X83180200Y-83678347D01*
X83058811Y-83405701D01*
X82900658Y-83152604D01*
X82767322Y-82993697D01*
X81351019Y-84410000D01*
X80988981Y-84410000D01*
X79566052Y-82987071D01*
X79355846Y-83276391D01*
X79215734Y-83539905D01*
X79113658Y-83820354D01*
X79051608Y-84112279D01*
X79030789Y-84410000D01*
X70164000Y-84410000D01*
X70164000Y-84260776D01*
X70122464Y-83965233D01*
X70040200Y-83678347D01*
X69918811Y-83405701D01*
X69760658Y-83152604D01*
X69627322Y-82993697D01*
X68211019Y-84410000D01*
X67848981Y-84410000D01*
X66426052Y-82987071D01*
X66215846Y-83276391D01*
X66075734Y-83539905D01*
X65973658Y-83820354D01*
X65911608Y-84112279D01*
X65890789Y-84410000D01*
X65911608Y-84707721D01*
X65973658Y-84999646D01*
X66075734Y-85280095D01*
X66215846Y-85543609D01*
X66312255Y-85676304D01*
X66191731Y-85666712D01*
X65949287Y-85720684D01*
X65733430Y-85843556D01*
X65563245Y-86024469D01*
X65453779Y-86247424D01*
X65414710Y-86492710D01*
X64078006Y-86492710D01*
X60978006Y-83392710D01*
X63764710Y-83392710D01*
X63799492Y-83638642D01*
X63905051Y-83863474D01*
X64072052Y-84047328D01*
X64285732Y-84173950D01*
X64527197Y-84232143D01*
X64775099Y-84216764D01*
X65007520Y-84129171D01*
X65203911Y-83977109D01*
X65346907Y-83774022D01*
X65424023Y-83537386D01*
X65424693Y-83460603D01*
X66074989Y-82810307D01*
X66611326Y-82810307D01*
X68030000Y-84228981D01*
X69459106Y-82799875D01*
X69099606Y-82557389D01*
X68831363Y-82426559D01*
X68547522Y-82334333D01*
X68253609Y-82282508D01*
X67955343Y-82272092D01*
X67658530Y-82303289D01*
X67368948Y-82375489D01*
X67092231Y-82487290D01*
X66833768Y-82636514D01*
X66611326Y-82810307D01*
X66074989Y-82810307D01*
X67997706Y-80887590D01*
X69766164Y-80887590D01*
X69766164Y-82512410D01*
X69804520Y-82705235D01*
X69920775Y-82879225D01*
X70094765Y-82995480D01*
X70287590Y-83033836D01*
X71912410Y-83033836D01*
X72105235Y-82995480D01*
X72279225Y-82879225D01*
X72395480Y-82705235D01*
X72433836Y-82512410D01*
X72433836Y-82332253D01*
X72511832Y-82467619D01*
X72669941Y-82653067D01*
X72859198Y-82806598D01*
X73073263Y-82923068D01*
X73304970Y-82998577D01*
X73546558Y-83030598D01*
X73789935Y-83018056D01*
X74026952Y-82961372D01*
X74249668Y-82862444D01*
X74450629Y-82724587D01*
X74602047Y-82573433D01*
X74669941Y-82653067D01*
X74859198Y-82806598D01*
X75073263Y-82923068D01*
X75304970Y-82998577D01*
X75546558Y-83030598D01*
X75789935Y-83018056D01*
X76026952Y-82961372D01*
X76249668Y-82862444D01*
X76317345Y-82816018D01*
X77165001Y-82816018D01*
X77491651Y-83004609D01*
X77727436Y-83090429D01*
X77974541Y-83134000D01*
X78225459Y-83134000D01*
X78472564Y-83090429D01*
X78708349Y-83004609D01*
X79034999Y-82816018D01*
X79029288Y-82810307D01*
X79751326Y-82810307D01*
X81170000Y-84228981D01*
X82599106Y-82799875D01*
X82239606Y-82557389D01*
X81971363Y-82426559D01*
X81687522Y-82334333D01*
X81393609Y-82282508D01*
X81095343Y-82272092D01*
X80798530Y-82303289D01*
X80508948Y-82375489D01*
X80232231Y-82487290D01*
X79973768Y-82636514D01*
X79751326Y-82810307D01*
X79029288Y-82810307D01*
X78100000Y-81881019D01*
X77165001Y-82816018D01*
X76317345Y-82816018D01*
X76450629Y-82724587D01*
X76623101Y-82552416D01*
X76761310Y-82351696D01*
X76788771Y-82290161D01*
X76795391Y-82308349D01*
X76983982Y-82634999D01*
X77918981Y-81700000D01*
X78281019Y-81700000D01*
X79216018Y-82634999D01*
X79404609Y-82308349D01*
X79490429Y-82072564D01*
X79534000Y-81825459D01*
X79534000Y-81574541D01*
X79490429Y-81327436D01*
X79404609Y-81091651D01*
X79216018Y-80765001D01*
X78281019Y-81700000D01*
X77918981Y-81700000D01*
X76994097Y-80775116D01*
X77025052Y-80760252D01*
X77107521Y-80729171D01*
X77136492Y-80706739D01*
X77169520Y-80690878D01*
X77222720Y-80641701D01*
X78100000Y-81518981D01*
X79034999Y-80583982D01*
X78708349Y-80395391D01*
X78472564Y-80309571D01*
X78225459Y-80266000D01*
X77974541Y-80266000D01*
X77727436Y-80309571D01*
X77491651Y-80395391D01*
X77392292Y-80452756D01*
X77396171Y-80446077D01*
X77446906Y-80374023D01*
X77458260Y-80339185D01*
X77476662Y-80307503D01*
X77496565Y-80221643D01*
X77524023Y-80137385D01*
X77524332Y-80101843D01*
X77532747Y-80065539D01*
X77525538Y-79963725D01*
X77526295Y-79877016D01*
X77517328Y-79847778D01*
X77515204Y-79817780D01*
X77481064Y-79729535D01*
X77453321Y-79639069D01*
X77436437Y-79614179D01*
X77425587Y-79586133D01*
X77367010Y-79511828D01*
X77313890Y-79433518D01*
X77290437Y-79414695D01*
X77271818Y-79391077D01*
X77193972Y-79337274D01*
X77120185Y-79278053D01*
X77092232Y-79266957D01*
X77063302Y-79246962D01*
X77011760Y-79235016D01*
X76889327Y-79186417D01*
X76756471Y-79175843D01*
X76748517Y-79174000D01*
X76733306Y-79174000D01*
X76641731Y-79166712D01*
X76608995Y-79174000D01*
X76033306Y-79174000D01*
X75941731Y-79166712D01*
X75908995Y-79174000D01*
X71449038Y-79174000D01*
X71373762Y-79165091D01*
X71264390Y-79185065D01*
X71154382Y-79201605D01*
X71142445Y-79207337D01*
X71124415Y-79210630D01*
X71087016Y-79233953D01*
X70930479Y-79309122D01*
X70855812Y-79378144D01*
X70850244Y-79381616D01*
X70828114Y-79403747D01*
X70748090Y-79477721D01*
X70739705Y-79492156D01*
X70550609Y-79681252D01*
X70491078Y-79728183D01*
X70427854Y-79819659D01*
X70361772Y-79909127D01*
X70357384Y-79921620D01*
X70346964Y-79936698D01*
X70337013Y-79979628D01*
X70279475Y-80143477D01*
X70275483Y-80245084D01*
X70274001Y-80251475D01*
X70274001Y-80282790D01*
X70270592Y-80369545D01*
X70094765Y-80404520D01*
X69920775Y-80520775D01*
X69804520Y-80694765D01*
X69766164Y-80887590D01*
X67997706Y-80887590D01*
X70959286Y-77926011D01*
X75852668Y-77926011D01*
X75872041Y-77947339D01*
X76085721Y-78073961D01*
X76327186Y-78132154D01*
X76575088Y-78116775D01*
X76807509Y-78029182D01*
X77003900Y-77877120D01*
X77146896Y-77674033D01*
X77224011Y-77437397D01*
X77225676Y-77246573D01*
X80348252Y-77246573D01*
X80370419Y-77457469D01*
X80437354Y-77658685D01*
X80545937Y-77840834D01*
X80691100Y-77995417D01*
X80866071Y-78115223D01*
X81062688Y-78194661D01*
X81271776Y-78230025D01*
X81483580Y-78219666D01*
X81688219Y-78164067D01*
X81876144Y-78065822D01*
X82038591Y-77929514D01*
X82167976Y-77761502D01*
X82258266Y-77569628D01*
X82305297Y-77362623D01*
X82306059Y-77144188D01*
X82260474Y-76936861D01*
X82171527Y-76744359D01*
X82043317Y-76575450D01*
X81881827Y-76438011D01*
X81694592Y-76338455D01*
X81490346Y-76281430D01*
X81278619Y-76269592D01*
X81069289Y-76303496D01*
X80872124Y-76381560D01*
X80696320Y-76500140D01*
X80550081Y-76653706D01*
X80440229Y-76835093D01*
X80371890Y-77035837D01*
X80348252Y-77246573D01*
X77225676Y-77246573D01*
X77226284Y-77177027D01*
X77153310Y-76939080D01*
X77013879Y-76733530D01*
X76820173Y-76578064D01*
X76589316Y-76486428D01*
X76341720Y-76466723D01*
X76099276Y-76520695D01*
X75883419Y-76643567D01*
X75854780Y-76674011D01*
X70727306Y-76674011D01*
X70644587Y-76666773D01*
X70564378Y-76688266D01*
X70482583Y-76702689D01*
X70458358Y-76716674D01*
X70431348Y-76723912D01*
X70363332Y-76771537D01*
X70291397Y-76813069D01*
X70238009Y-76876694D01*
X64547530Y-82567174D01*
X64541731Y-82566712D01*
X64299287Y-82620684D01*
X64083430Y-82743556D01*
X63913245Y-82924469D01*
X63803779Y-83147424D01*
X63764710Y-83392710D01*
X60978006Y-83392710D01*
X56726000Y-79140704D01*
X56726000Y-77196629D01*
X56772052Y-77247328D01*
X56985732Y-77373950D01*
X57227197Y-77432143D01*
X57475099Y-77416764D01*
X57707520Y-77329171D01*
X57903911Y-77177109D01*
X58046907Y-76974022D01*
X58124022Y-76737386D01*
X58126295Y-76477016D01*
X58053321Y-76239069D01*
X57913890Y-76033519D01*
X57720184Y-75878053D01*
X57489327Y-75786417D01*
X57361544Y-75776248D01*
X57326000Y-75740704D01*
X57326000Y-75645738D01*
X57446907Y-75474022D01*
X57524022Y-75237386D01*
X57526295Y-74977016D01*
X57453321Y-74739069D01*
X57313890Y-74533519D01*
X57120184Y-74378053D01*
X56899782Y-74290567D01*
X56853321Y-74139069D01*
X56713890Y-73933519D01*
X56520184Y-73778053D01*
X56289327Y-73686417D01*
X56041731Y-73666712D01*
X55799287Y-73720684D01*
X55583430Y-73843556D01*
X55413245Y-74024469D01*
X55303779Y-74247424D01*
X55264710Y-74492710D01*
X47539699Y-74492710D01*
X47574023Y-74387386D01*
X47574693Y-74310603D01*
X49617811Y-72267486D01*
X55528488Y-72267486D01*
X57934319Y-74673318D01*
X57987705Y-74736942D01*
X58059629Y-74778466D01*
X58127658Y-74826101D01*
X58154670Y-74833338D01*
X58178890Y-74847322D01*
X58260678Y-74861744D01*
X58340897Y-74883238D01*
X58423631Y-74876000D01*
X61858840Y-74876000D01*
X61813245Y-74924469D01*
X61703779Y-75147424D01*
X61664710Y-75392710D01*
X61699492Y-75638642D01*
X61805051Y-75863474D01*
X61972052Y-76047328D01*
X62185732Y-76173950D01*
X62427197Y-76232143D01*
X62675099Y-76216764D01*
X62907520Y-76129171D01*
X63103911Y-75977109D01*
X63246907Y-75774022D01*
X63324022Y-75537386D01*
X63326295Y-75277016D01*
X63253321Y-75039069D01*
X63142706Y-74876000D01*
X63990704Y-74876000D01*
X65288021Y-76173318D01*
X65341407Y-76236942D01*
X65413344Y-76278474D01*
X65481359Y-76326099D01*
X65508369Y-76333337D01*
X65532594Y-76347322D01*
X65614389Y-76361745D01*
X65694598Y-76383238D01*
X65777317Y-76376000D01*
X76902679Y-76376000D01*
X76922052Y-76397328D01*
X77135732Y-76523950D01*
X77377197Y-76582143D01*
X77625099Y-76566764D01*
X77857520Y-76479171D01*
X78053911Y-76327109D01*
X78196907Y-76124022D01*
X78274022Y-75887386D01*
X78276295Y-75627016D01*
X78203321Y-75389069D01*
X78063890Y-75183519D01*
X77870184Y-75028053D01*
X77639327Y-74936417D01*
X77391731Y-74916712D01*
X77149287Y-74970684D01*
X76933430Y-75093556D01*
X76904791Y-75124000D01*
X75192981Y-75124000D01*
X74250000Y-74181019D01*
X73307019Y-75124000D01*
X70761639Y-75124000D01*
X70783836Y-75012410D01*
X70783836Y-73982834D01*
X72610778Y-73982834D01*
X72629120Y-74245135D01*
X72689163Y-74501130D01*
X72789362Y-74744232D01*
X72993282Y-75075699D01*
X74068981Y-74000000D01*
X74431019Y-74000000D01*
X75493509Y-75062489D01*
X75618577Y-74902410D01*
X75745250Y-74671992D01*
X75833454Y-74424286D01*
X75866070Y-74246573D01*
X80348252Y-74246573D01*
X80370419Y-74457469D01*
X80437354Y-74658685D01*
X80545937Y-74840834D01*
X80691100Y-74995417D01*
X80866071Y-75115223D01*
X81062688Y-75194661D01*
X81271776Y-75230025D01*
X81316327Y-75227846D01*
X81339068Y-75388642D01*
X81444627Y-75613474D01*
X81611628Y-75797328D01*
X81825308Y-75923950D01*
X82066773Y-75982143D01*
X82314675Y-75966764D01*
X82547096Y-75879171D01*
X82743487Y-75727109D01*
X82886483Y-75524022D01*
X82963598Y-75287386D01*
X82965871Y-75027016D01*
X82892897Y-74789069D01*
X82753466Y-74583519D01*
X82559760Y-74428053D01*
X82328903Y-74336417D01*
X82305395Y-74334546D01*
X82306059Y-74144188D01*
X82260474Y-73936861D01*
X82171527Y-73744359D01*
X82043317Y-73575450D01*
X81881827Y-73438011D01*
X81694592Y-73338455D01*
X81490346Y-73281430D01*
X81278619Y-73269592D01*
X81069289Y-73303496D01*
X80872124Y-73381560D01*
X80696320Y-73500140D01*
X80550081Y-73653706D01*
X80440229Y-73835093D01*
X80371890Y-74035837D01*
X80348252Y-74246573D01*
X75866070Y-74246573D01*
X75881040Y-74165010D01*
X75884138Y-73869185D01*
X75841992Y-73608970D01*
X75758994Y-73359470D01*
X75637175Y-73126450D01*
X75494838Y-72936181D01*
X74431019Y-74000000D01*
X74068981Y-74000000D01*
X72996927Y-72927946D01*
X72805269Y-73225342D01*
X72700000Y-73466292D01*
X72634608Y-73720973D01*
X72610778Y-73982834D01*
X70783836Y-73982834D01*
X70783836Y-72987590D01*
X70761637Y-72875989D01*
X73307008Y-72875989D01*
X74250000Y-73818981D01*
X75192992Y-72875989D01*
X77172694Y-72875989D01*
X77255413Y-72883227D01*
X77335632Y-72861733D01*
X77417419Y-72847311D01*
X77441640Y-72833327D01*
X77468652Y-72826089D01*
X77536672Y-72778461D01*
X77542724Y-72774967D01*
X77675110Y-72766754D01*
X77907531Y-72679161D01*
X78103922Y-72527099D01*
X78246918Y-72324012D01*
X78324033Y-72087376D01*
X78326306Y-71827006D01*
X78253332Y-71589059D01*
X78113901Y-71383509D01*
X77920195Y-71228043D01*
X77689338Y-71136407D01*
X77441742Y-71116702D01*
X77199298Y-71170674D01*
X76983441Y-71293546D01*
X76813256Y-71474459D01*
X76739840Y-71623989D01*
X58025012Y-71623989D01*
X58026295Y-71477016D01*
X57953321Y-71239069D01*
X57813890Y-71033519D01*
X57620184Y-70878053D01*
X57389327Y-70786417D01*
X57141731Y-70766712D01*
X56899287Y-70820684D01*
X56683430Y-70943556D01*
X56614318Y-71017024D01*
X56415457Y-70818163D01*
X56362066Y-70754533D01*
X56290133Y-70713003D01*
X56222113Y-70665375D01*
X56195101Y-70658137D01*
X56170880Y-70644153D01*
X56089093Y-70629731D01*
X56008874Y-70608237D01*
X55926140Y-70615475D01*
X48785842Y-70615475D01*
X48703123Y-70608237D01*
X48622914Y-70629730D01*
X48541119Y-70644153D01*
X48516894Y-70658138D01*
X48489884Y-70665376D01*
X48421868Y-70713001D01*
X48349933Y-70754533D01*
X48296545Y-70818158D01*
X47499916Y-71614787D01*
X47574023Y-71387386D01*
X47574693Y-71310603D01*
X49092586Y-69792710D01*
X80364710Y-69792710D01*
X80399492Y-70038642D01*
X80505051Y-70263474D01*
X80629687Y-70400687D01*
X80513245Y-70524469D01*
X80403779Y-70747424D01*
X80364710Y-70992710D01*
X80399492Y-71238642D01*
X80505051Y-71463474D01*
X80672052Y-71647328D01*
X80885732Y-71773950D01*
X81127197Y-71832143D01*
X81375099Y-71816764D01*
X81607520Y-71729171D01*
X81803911Y-71577109D01*
X81946907Y-71374022D01*
X82024022Y-71137386D01*
X82026295Y-70877016D01*
X81953321Y-70639069D01*
X81920176Y-70590205D01*
X83014712Y-70590205D01*
X83049494Y-70836137D01*
X83155053Y-71060969D01*
X83322054Y-71244823D01*
X83535734Y-71371445D01*
X83777198Y-71429638D01*
X83795701Y-71428490D01*
X84074001Y-71706790D01*
X84074000Y-77259883D01*
X84013244Y-77324469D01*
X83903779Y-77547424D01*
X83864710Y-77792710D01*
X83899492Y-78038642D01*
X84005051Y-78263474D01*
X84172052Y-78447328D01*
X84385732Y-78573950D01*
X84627197Y-78632143D01*
X84875099Y-78616764D01*
X85107520Y-78529171D01*
X85303911Y-78377109D01*
X85446907Y-78174022D01*
X85496371Y-78022237D01*
X85537431Y-78032133D01*
X85785333Y-78016754D01*
X86017754Y-77929161D01*
X86214145Y-77777099D01*
X86357141Y-77574012D01*
X86434256Y-77337376D01*
X86436529Y-77077006D01*
X86363555Y-76839059D01*
X86236234Y-76651362D01*
X86236234Y-75092710D01*
X87964710Y-75092710D01*
X87999492Y-75338642D01*
X88105051Y-75563474D01*
X88272052Y-75747328D01*
X88485732Y-75873950D01*
X88727197Y-75932143D01*
X88975099Y-75916764D01*
X89207520Y-75829171D01*
X89403911Y-75677109D01*
X89546907Y-75474022D01*
X89605993Y-75292710D01*
X92064710Y-75292710D01*
X92099492Y-75538642D01*
X92205051Y-75763474D01*
X92372052Y-75947328D01*
X92585732Y-76073950D01*
X92827197Y-76132143D01*
X93075099Y-76116764D01*
X93307520Y-76029171D01*
X93503911Y-75877109D01*
X93646907Y-75674022D01*
X93724022Y-75437386D01*
X93726295Y-75177016D01*
X93653321Y-74939069D01*
X93513890Y-74733519D01*
X93320184Y-74578053D01*
X93089327Y-74486417D01*
X92841731Y-74466712D01*
X92599287Y-74520684D01*
X92383430Y-74643556D01*
X92213245Y-74824469D01*
X92103779Y-75047424D01*
X92064710Y-75292710D01*
X89605993Y-75292710D01*
X89624022Y-75237386D01*
X89626295Y-74977016D01*
X89553321Y-74739069D01*
X89413890Y-74533519D01*
X89220184Y-74378053D01*
X88989327Y-74286417D01*
X88741731Y-74266712D01*
X88499287Y-74320684D01*
X88283430Y-74443556D01*
X88113245Y-74624469D01*
X88003779Y-74847424D01*
X87964710Y-75092710D01*
X86236234Y-75092710D01*
X86236234Y-74192710D01*
X97314710Y-74192710D01*
X97349492Y-74438642D01*
X97455051Y-74663474D01*
X97622052Y-74847328D01*
X97835732Y-74973950D01*
X98077197Y-75032143D01*
X98325099Y-75016764D01*
X98557520Y-74929171D01*
X98753911Y-74777109D01*
X98896907Y-74574022D01*
X98974022Y-74337386D01*
X98976295Y-74077016D01*
X98903321Y-73839069D01*
X98763890Y-73633519D01*
X98570184Y-73478053D01*
X98339327Y-73386417D01*
X98091731Y-73366712D01*
X97849287Y-73420684D01*
X97633430Y-73543556D01*
X97463245Y-73724469D01*
X97353779Y-73947424D01*
X97314710Y-74192710D01*
X86236234Y-74192710D01*
X86236234Y-71437554D01*
X86243472Y-71354836D01*
X86221978Y-71274616D01*
X86207556Y-71192828D01*
X86193572Y-71168608D01*
X86186335Y-71141596D01*
X86138700Y-71073567D01*
X86097176Y-71001643D01*
X86033556Y-70948260D01*
X85625741Y-70540446D01*
X85626295Y-70477018D01*
X85600440Y-70392710D01*
X86817495Y-70392710D01*
X86852277Y-70638642D01*
X86957836Y-70863474D01*
X87124837Y-71047328D01*
X87338517Y-71173950D01*
X87579982Y-71232143D01*
X87827884Y-71216764D01*
X88060305Y-71129171D01*
X88256696Y-70977109D01*
X88399692Y-70774022D01*
X88476807Y-70537386D01*
X88479080Y-70277016D01*
X88406106Y-70039069D01*
X88266675Y-69833519D01*
X88072969Y-69678053D01*
X87842112Y-69586417D01*
X87594516Y-69566712D01*
X87352072Y-69620684D01*
X87136215Y-69743556D01*
X86966030Y-69924469D01*
X86856564Y-70147424D01*
X86817495Y-70392710D01*
X85600440Y-70392710D01*
X85553321Y-70239071D01*
X85413890Y-70033521D01*
X85220184Y-69878055D01*
X84989327Y-69786419D01*
X84741731Y-69766714D01*
X84499287Y-69820686D01*
X84325258Y-69919748D01*
X84270186Y-69875548D01*
X84039329Y-69783912D01*
X83791733Y-69764207D01*
X83549289Y-69818179D01*
X83333432Y-69941051D01*
X83163247Y-70121964D01*
X83053781Y-70344919D01*
X83014712Y-70590205D01*
X81920176Y-70590205D01*
X81813890Y-70433519D01*
X81773217Y-70400875D01*
X81803911Y-70377109D01*
X81946907Y-70174022D01*
X82024022Y-69937386D01*
X82026295Y-69677016D01*
X81953321Y-69439069D01*
X81813890Y-69233519D01*
X81620184Y-69078053D01*
X81389327Y-68986417D01*
X81141731Y-68966712D01*
X80899287Y-69020684D01*
X80683430Y-69143556D01*
X80513245Y-69324469D01*
X80403779Y-69547424D01*
X80364710Y-69792710D01*
X49092586Y-69792710D01*
X49223312Y-69661984D01*
X49286940Y-69608594D01*
X49328467Y-69536668D01*
X49376100Y-69468641D01*
X49383337Y-69441629D01*
X49397321Y-69417409D01*
X49411743Y-69335621D01*
X49433237Y-69255402D01*
X49425999Y-69172668D01*
X49425999Y-68774963D01*
X49521610Y-68932526D01*
X49686669Y-69122739D01*
X49881416Y-69282422D01*
X50100284Y-69407009D01*
X50339831Y-69493960D01*
X50597000Y-69528047D01*
X50597000Y-68183000D01*
X50853000Y-68183000D01*
X50853000Y-69554978D01*
X51219708Y-69459800D01*
X51449329Y-69356363D01*
X51658240Y-69215716D01*
X51840466Y-69041881D01*
X51990797Y-68839828D01*
X52104936Y-68615334D01*
X52179618Y-68374819D01*
X52197128Y-68242710D01*
X68414710Y-68242710D01*
X68449492Y-68488642D01*
X68555051Y-68713474D01*
X68722052Y-68897328D01*
X68935732Y-69023950D01*
X69177197Y-69082143D01*
X69425099Y-69066764D01*
X69657520Y-68979171D01*
X69853911Y-68827109D01*
X69996907Y-68624022D01*
X70074022Y-68387386D01*
X70076295Y-68127016D01*
X70003321Y-67889069D01*
X69863890Y-67683519D01*
X69670184Y-67528053D01*
X69439327Y-67436417D01*
X69191731Y-67416712D01*
X68949287Y-67470684D01*
X68733430Y-67593556D01*
X68563245Y-67774469D01*
X68453779Y-67997424D01*
X68414710Y-68242710D01*
X52197128Y-68242710D01*
X52205043Y-68183000D01*
X50853000Y-68183000D01*
X50597000Y-68183000D01*
X50597000Y-67927000D01*
X52214487Y-67927000D01*
X52151544Y-67627017D01*
X52059039Y-67392778D01*
X51928390Y-67177474D01*
X51763331Y-66987261D01*
X51568584Y-66827578D01*
X51386646Y-66724013D01*
X51428267Y-66704161D01*
X51627735Y-66560829D01*
X51798669Y-66384439D01*
X51935663Y-66180568D01*
X52034392Y-65955660D01*
X52091732Y-65716822D01*
X52105871Y-65471605D01*
X52076362Y-65227759D01*
X52004139Y-64992993D01*
X51891483Y-64774727D01*
X51866916Y-64742710D01*
X53664710Y-64742710D01*
X53699492Y-64988642D01*
X53763695Y-65125390D01*
X53703779Y-65247424D01*
X53664710Y-65492710D01*
X53699492Y-65738642D01*
X53805051Y-65963474D01*
X53972052Y-66147328D01*
X54185732Y-66273950D01*
X54427197Y-66332143D01*
X54675099Y-66316764D01*
X54878575Y-66240080D01*
X54935732Y-66273950D01*
X55177197Y-66332143D01*
X55425099Y-66316764D01*
X55628575Y-66240080D01*
X55685732Y-66273950D01*
X55927197Y-66332143D01*
X56175099Y-66316764D01*
X56378575Y-66240080D01*
X56435732Y-66273950D01*
X56677197Y-66332143D01*
X56925099Y-66316764D01*
X57128575Y-66240080D01*
X57185732Y-66273950D01*
X57427197Y-66332143D01*
X57675099Y-66316764D01*
X57878575Y-66240080D01*
X57935732Y-66273950D01*
X58177197Y-66332143D01*
X58425099Y-66316764D01*
X58628575Y-66240080D01*
X58685732Y-66273950D01*
X58927197Y-66332143D01*
X59175099Y-66316764D01*
X59378575Y-66240080D01*
X59435732Y-66273950D01*
X59677197Y-66332143D01*
X59925099Y-66316764D01*
X60157520Y-66229171D01*
X60353911Y-66077109D01*
X60496907Y-65874022D01*
X60574022Y-65637386D01*
X60576295Y-65377016D01*
X60503321Y-65139069D01*
X60494975Y-65126766D01*
X60496907Y-65124022D01*
X60574022Y-64887386D01*
X60576295Y-64627016D01*
X60503321Y-64389069D01*
X60494975Y-64376766D01*
X60496907Y-64374022D01*
X60574022Y-64137386D01*
X60576295Y-63877016D01*
X60503321Y-63639069D01*
X60494975Y-63626766D01*
X60496907Y-63624022D01*
X60574022Y-63387386D01*
X60576295Y-63127016D01*
X60503321Y-62889069D01*
X60494975Y-62876766D01*
X60496907Y-62874022D01*
X60574022Y-62637386D01*
X60576295Y-62377016D01*
X60503321Y-62139069D01*
X60494975Y-62126766D01*
X60496907Y-62124022D01*
X60574022Y-61887386D01*
X60576295Y-61627016D01*
X60548035Y-61534868D01*
X80206155Y-61534868D01*
X80240937Y-61780800D01*
X80346496Y-62005632D01*
X80513497Y-62189486D01*
X80727177Y-62316108D01*
X80968641Y-62374301D01*
X80987144Y-62373153D01*
X90240997Y-71627008D01*
X90294383Y-71690632D01*
X90366320Y-71732164D01*
X90434335Y-71779789D01*
X90461345Y-71787027D01*
X90485570Y-71801012D01*
X90567365Y-71815435D01*
X90647574Y-71836928D01*
X90730309Y-71829690D01*
X100804144Y-71829690D01*
X102173293Y-73198839D01*
X102026179Y-73140444D01*
X101778583Y-73120739D01*
X101536139Y-73174711D01*
X101320282Y-73297583D01*
X101150097Y-73478496D01*
X101040631Y-73701451D01*
X101001562Y-73946737D01*
X101036344Y-74192669D01*
X101141903Y-74417501D01*
X101308904Y-74601355D01*
X101377091Y-74641761D01*
X101302046Y-74794610D01*
X101262977Y-75039896D01*
X101297759Y-75285828D01*
X101403318Y-75510660D01*
X101570319Y-75694514D01*
X101783999Y-75821136D01*
X102025464Y-75879329D01*
X102273366Y-75863950D01*
X102505787Y-75776357D01*
X102702178Y-75624295D01*
X102795694Y-75491481D01*
X102799507Y-75518444D01*
X102905066Y-75743276D01*
X102944153Y-75786307D01*
X102925669Y-75823953D01*
X102886600Y-76069239D01*
X102921382Y-76315171D01*
X103026941Y-76540003D01*
X103193942Y-76723857D01*
X103407622Y-76850479D01*
X103649087Y-76908672D01*
X103896989Y-76893293D01*
X104129410Y-76805700D01*
X104242319Y-76718276D01*
X104386793Y-76862750D01*
X104440179Y-76926374D01*
X104512103Y-76967898D01*
X104580132Y-77015533D01*
X104607144Y-77022770D01*
X104631364Y-77036754D01*
X104713155Y-77051176D01*
X104793370Y-77072670D01*
X104876105Y-77065432D01*
X106097145Y-77065432D01*
X106116518Y-77086760D01*
X106134447Y-77097384D01*
X106070189Y-77228262D01*
X106031120Y-77473548D01*
X106065902Y-77719480D01*
X106171461Y-77944312D01*
X106338462Y-78128166D01*
X106552142Y-78254788D01*
X106793607Y-78312981D01*
X106941676Y-78303795D01*
X107072052Y-78447328D01*
X107285732Y-78573950D01*
X107527197Y-78632143D01*
X107775099Y-78616764D01*
X108007520Y-78529171D01*
X108203911Y-78377109D01*
X108346907Y-78174022D01*
X108359951Y-78133995D01*
X108372062Y-78147328D01*
X108585742Y-78273950D01*
X108827207Y-78332143D01*
X109075109Y-78316764D01*
X109307530Y-78229171D01*
X109503921Y-78077109D01*
X109646917Y-77874022D01*
X109724032Y-77637386D01*
X109726305Y-77377016D01*
X109653331Y-77139069D01*
X109513900Y-76933519D01*
X109320194Y-76778053D01*
X109200106Y-76730386D01*
X112066515Y-73863978D01*
X112124626Y-73927953D01*
X112338305Y-74054575D01*
X112579770Y-74112768D01*
X112827672Y-74097389D01*
X113060093Y-74009796D01*
X113256484Y-73857734D01*
X113399480Y-73654647D01*
X113476595Y-73418011D01*
X113478868Y-73157641D01*
X113405894Y-72919694D01*
X113266463Y-72714144D01*
X113238661Y-72691831D01*
X114574000Y-71356492D01*
X114574000Y-72661541D01*
X114574001Y-72661548D01*
X114574000Y-78557860D01*
X111657861Y-81474000D01*
X108758458Y-81474000D01*
X108875099Y-81466764D01*
X109107520Y-81379171D01*
X109303911Y-81227109D01*
X109446907Y-81024022D01*
X109524022Y-80787386D01*
X109525829Y-80580354D01*
X112952140Y-77154044D01*
X112985732Y-77173950D01*
X113227197Y-77232143D01*
X113475099Y-77216764D01*
X113707520Y-77129171D01*
X113903911Y-76977109D01*
X114046907Y-76774022D01*
X114124022Y-76537386D01*
X114126295Y-76277016D01*
X114053321Y-76039069D01*
X113913890Y-75833519D01*
X113720184Y-75678053D01*
X113499782Y-75590567D01*
X113453321Y-75439069D01*
X113313890Y-75233519D01*
X113120184Y-75078053D01*
X112889327Y-74986417D01*
X112641731Y-74966712D01*
X112399287Y-75020684D01*
X112183430Y-75143556D01*
X112013245Y-75324469D01*
X111903779Y-75547424D01*
X111864710Y-75792710D01*
X111899492Y-76038642D01*
X112005051Y-76263474D01*
X112036973Y-76298617D01*
X108483698Y-79851893D01*
X108399287Y-79870684D01*
X108372500Y-79885932D01*
X108348498Y-79850549D01*
X108154792Y-79695083D01*
X107923935Y-79603447D01*
X107676339Y-79583742D01*
X107433895Y-79637714D01*
X107218038Y-79760586D01*
X107047853Y-79941499D01*
X106938387Y-80164454D01*
X106899318Y-80409740D01*
X106934100Y-80655672D01*
X107039659Y-80880504D01*
X107206660Y-81064358D01*
X107420340Y-81190980D01*
X107661805Y-81249173D01*
X107909707Y-81233794D01*
X108062155Y-81176341D01*
X108172052Y-81297328D01*
X108385732Y-81423950D01*
X108593409Y-81474000D01*
X105399038Y-81474000D01*
X105323762Y-81465091D01*
X105214390Y-81485065D01*
X105104382Y-81501605D01*
X105092445Y-81507337D01*
X105074415Y-81510630D01*
X105037016Y-81533953D01*
X104880479Y-81609122D01*
X104805811Y-81678145D01*
X104800242Y-81681618D01*
X104778102Y-81703758D01*
X104698090Y-81777720D01*
X104689706Y-81792154D01*
X103914135Y-82567726D01*
X103924022Y-82537386D01*
X103926295Y-82277016D01*
X103853321Y-82039069D01*
X103713890Y-81833519D01*
X103520184Y-81678053D01*
X103289327Y-81586417D01*
X103041731Y-81566712D01*
X102799287Y-81620684D01*
X102583430Y-81743556D01*
X102413245Y-81924469D01*
X102303779Y-82147424D01*
X102264710Y-82392710D01*
X102299492Y-82638642D01*
X102405051Y-82863474D01*
X102572052Y-83047328D01*
X102785732Y-83173950D01*
X103027197Y-83232143D01*
X103264434Y-83217426D01*
X103107857Y-83374003D01*
X97512089Y-83374003D01*
X97524022Y-83337386D01*
X97526295Y-83077016D01*
X97453321Y-82839069D01*
X97313890Y-82633519D01*
X97120184Y-82478053D01*
X96896554Y-82389286D01*
X96825568Y-82157820D01*
X96686137Y-81952270D01*
X96492431Y-81796804D01*
X96261574Y-81705168D01*
X96013978Y-81685463D01*
X95771534Y-81739435D01*
X95555677Y-81862307D01*
X95385492Y-82043220D01*
X95276026Y-82266175D01*
X95236957Y-82511461D01*
X95271739Y-82757393D01*
X95377298Y-82982225D01*
X95544299Y-83166079D01*
X95757979Y-83292701D01*
X95883117Y-83322860D01*
X95890350Y-83374003D01*
X93642144Y-83374003D01*
X93326000Y-83057860D01*
X93326000Y-82665036D01*
X93334909Y-82589760D01*
X93314935Y-82480388D01*
X93298395Y-82370380D01*
X93292663Y-82358443D01*
X93289370Y-82340413D01*
X93266047Y-82303014D01*
X93190878Y-82146477D01*
X93121854Y-82071808D01*
X93118380Y-82066238D01*
X93096233Y-82044092D01*
X93022278Y-81964088D01*
X93007846Y-81955705D01*
X90502754Y-79450613D01*
X90455819Y-79391077D01*
X90364307Y-79327828D01*
X90316762Y-79292710D01*
X91464710Y-79292710D01*
X91499492Y-79538642D01*
X91605051Y-79763474D01*
X91772052Y-79947328D01*
X91985732Y-80073950D01*
X92227197Y-80132143D01*
X92475099Y-80116764D01*
X92707520Y-80029171D01*
X92903911Y-79877109D01*
X93046907Y-79674022D01*
X93124022Y-79437386D01*
X93126295Y-79177016D01*
X93053321Y-78939069D01*
X92913890Y-78733519D01*
X92720184Y-78578053D01*
X92631145Y-78542710D01*
X95914710Y-78542710D01*
X95949492Y-78788642D01*
X96055051Y-79013474D01*
X96222052Y-79197328D01*
X96435732Y-79323950D01*
X96677197Y-79382143D01*
X96925099Y-79366764D01*
X97157520Y-79279171D01*
X97353911Y-79127109D01*
X97496907Y-78924022D01*
X97574022Y-78687386D01*
X97576295Y-78427016D01*
X97504438Y-78192710D01*
X98664710Y-78192710D01*
X98699492Y-78438642D01*
X98805051Y-78663474D01*
X98972052Y-78847328D01*
X99185732Y-78973950D01*
X99427197Y-79032143D01*
X99675099Y-79016764D01*
X99907520Y-78929171D01*
X100103911Y-78777109D01*
X100246907Y-78574022D01*
X100324022Y-78337386D01*
X100326295Y-78077016D01*
X100253321Y-77839069D01*
X100113890Y-77633519D01*
X99920184Y-77478053D01*
X99689327Y-77386417D01*
X99441731Y-77366712D01*
X99199287Y-77420684D01*
X98983430Y-77543556D01*
X98813245Y-77724469D01*
X98703779Y-77947424D01*
X98664710Y-78192710D01*
X97504438Y-78192710D01*
X97503321Y-78189069D01*
X97363890Y-77983519D01*
X97170184Y-77828053D01*
X96939327Y-77736417D01*
X96691731Y-77716712D01*
X96449287Y-77770684D01*
X96233430Y-77893556D01*
X96063245Y-78074469D01*
X95953779Y-78297424D01*
X95914710Y-78542710D01*
X92631145Y-78542710D01*
X92489327Y-78486417D01*
X92241731Y-78466712D01*
X91999287Y-78520684D01*
X91783430Y-78643556D01*
X91613245Y-78824469D01*
X91503779Y-79047424D01*
X91464710Y-79292710D01*
X90316762Y-79292710D01*
X90274875Y-79261772D01*
X90262385Y-79257386D01*
X90247302Y-79246961D01*
X90204361Y-79237010D01*
X90040525Y-79179475D01*
X89938920Y-79175483D01*
X89932524Y-79174000D01*
X89901187Y-79174000D01*
X89792340Y-79169723D01*
X89776209Y-79174000D01*
X86833306Y-79174000D01*
X86741731Y-79166712D01*
X86708995Y-79174000D01*
X86233306Y-79174000D01*
X86141731Y-79166712D01*
X86048676Y-79187428D01*
X85954381Y-79201605D01*
X85927926Y-79214309D01*
X85899287Y-79220684D01*
X85816431Y-79267848D01*
X85730480Y-79309122D01*
X85708934Y-79329038D01*
X85683430Y-79343556D01*
X85618100Y-79413003D01*
X85548090Y-79477721D01*
X85533352Y-79503094D01*
X85513244Y-79524469D01*
X85471231Y-79610043D01*
X85423338Y-79692496D01*
X85416712Y-79721084D01*
X85403779Y-79747425D01*
X85388784Y-79841568D01*
X85367253Y-79934460D01*
X85369325Y-79963734D01*
X85364710Y-79992711D01*
X85378062Y-80087114D01*
X85384796Y-80182219D01*
X85395383Y-80209587D01*
X85399493Y-80238643D01*
X85440018Y-80324960D01*
X85474414Y-80413868D01*
X85492579Y-80436910D01*
X85505050Y-80463473D01*
X85569158Y-80534052D01*
X85628182Y-80608923D01*
X85652322Y-80625607D01*
X85672053Y-80647329D01*
X85754066Y-80695927D01*
X85836699Y-80753038D01*
X85859273Y-80758270D01*
X85885731Y-80773949D01*
X86127197Y-80832143D01*
X86226219Y-80826000D01*
X86701706Y-80826000D01*
X86727197Y-80832143D01*
X86826219Y-80826000D01*
X89541863Y-80826000D01*
X90223319Y-81507456D01*
X90113245Y-81624469D01*
X90003779Y-81847424D01*
X89964710Y-82092710D01*
X89999492Y-82338642D01*
X90055298Y-82457505D01*
X89866003Y-82442440D01*
X89623559Y-82496412D01*
X89407702Y-82619284D01*
X89237517Y-82800197D01*
X89128051Y-83023152D01*
X89088982Y-83268438D01*
X89123764Y-83514370D01*
X89229323Y-83739202D01*
X89396324Y-83923056D01*
X89610004Y-84049678D01*
X89851469Y-84107871D01*
X90099371Y-84092492D01*
X90331792Y-84004899D01*
X90404257Y-83948791D01*
X90505051Y-84163474D01*
X90672052Y-84347328D01*
X90885732Y-84473950D01*
X91127197Y-84532143D01*
X91375099Y-84516764D01*
X91607520Y-84429171D01*
X91705351Y-84353422D01*
X91753789Y-84454289D01*
X91805051Y-84563474D01*
X91807531Y-84566205D01*
X91809125Y-84569523D01*
X91890967Y-84658059D01*
X91972051Y-84747326D01*
X91975223Y-84749206D01*
X91977724Y-84751911D01*
X92081976Y-84812467D01*
X92185723Y-84873944D01*
X92189316Y-84874811D01*
X92192510Y-84876665D01*
X92309979Y-84903893D01*
X92427192Y-84932142D01*
X92430870Y-84931914D01*
X92434464Y-84932747D01*
X92554725Y-84924231D01*
X92675106Y-84916764D01*
X92678549Y-84915466D01*
X92682214Y-84915207D01*
X92794605Y-84871725D01*
X92810423Y-84865764D01*
X92819662Y-84872149D01*
X92909128Y-84938230D01*
X92921620Y-84942618D01*
X92936703Y-84953041D01*
X92979644Y-84962995D01*
X93143479Y-85020528D01*
X93245085Y-85024520D01*
X93251481Y-85026003D01*
X93282818Y-85026003D01*
X93391665Y-85030280D01*
X93407796Y-85026003D01*
X103400959Y-85026003D01*
X103476234Y-85034912D01*
X103585601Y-85014939D01*
X103695615Y-84998398D01*
X103707553Y-84992666D01*
X103725582Y-84989373D01*
X103762979Y-84966050D01*
X103919518Y-84890881D01*
X103994185Y-84821859D01*
X103999753Y-84818387D01*
X104021883Y-84796256D01*
X104101907Y-84722282D01*
X104110292Y-84707847D01*
X104146840Y-84671299D01*
X104203911Y-84627109D01*
X104234559Y-84583580D01*
X104247898Y-84570242D01*
X104540819Y-84277321D01*
X104549492Y-84338642D01*
X104655051Y-84563474D01*
X104822052Y-84747328D01*
X105035732Y-84873950D01*
X105277197Y-84932143D01*
X105525099Y-84916764D01*
X105613893Y-84883300D01*
X105672052Y-84947328D01*
X105885732Y-85073950D01*
X106127197Y-85132143D01*
X106375099Y-85116764D01*
X106607520Y-85029171D01*
X106803911Y-84877109D01*
X106946907Y-84674022D01*
X107005993Y-84492710D01*
X107614710Y-84492710D01*
X107649492Y-84738642D01*
X107755051Y-84963474D01*
X107922052Y-85147328D01*
X108135732Y-85273950D01*
X108377197Y-85332143D01*
X108625099Y-85316764D01*
X108857520Y-85229171D01*
X109053911Y-85077109D01*
X109196907Y-84874022D01*
X109274022Y-84637386D01*
X109276295Y-84377016D01*
X109203321Y-84139069D01*
X109063890Y-83933519D01*
X108870184Y-83778053D01*
X108639327Y-83686417D01*
X108391731Y-83666712D01*
X108149287Y-83720684D01*
X107933430Y-83843556D01*
X107763245Y-84024469D01*
X107653779Y-84247424D01*
X107614710Y-84492710D01*
X107005993Y-84492710D01*
X107024022Y-84437386D01*
X107026295Y-84177016D01*
X106953321Y-83939069D01*
X106813890Y-83733519D01*
X106620184Y-83578053D01*
X106389327Y-83486417D01*
X106141731Y-83466712D01*
X105937342Y-83512212D01*
X105770184Y-83378053D01*
X105539327Y-83286417D01*
X105532284Y-83285856D01*
X105692141Y-83126000D01*
X111950962Y-83126000D01*
X112026237Y-83134909D01*
X112135604Y-83114936D01*
X112245618Y-83098395D01*
X112257556Y-83092663D01*
X112275585Y-83089370D01*
X112312982Y-83066047D01*
X112469521Y-82990878D01*
X112544188Y-82921856D01*
X112549756Y-82918384D01*
X112571886Y-82896253D01*
X112651910Y-82822279D01*
X112660295Y-82807844D01*
X114424581Y-81043558D01*
X116085776Y-81043558D01*
X116085776Y-81272000D01*
X117472000Y-81272000D01*
X117472000Y-80160776D01*
X117728000Y-80160776D01*
X117728000Y-81272000D01*
X119114224Y-81272000D01*
X119114224Y-81039024D01*
X119037309Y-80685451D01*
X118897382Y-80467721D01*
X118705270Y-80301255D01*
X118474042Y-80195657D01*
X118231442Y-80160776D01*
X117728000Y-80160776D01*
X117472000Y-80160776D01*
X116964024Y-80160776D01*
X116610451Y-80237691D01*
X116392721Y-80377618D01*
X116226255Y-80569730D01*
X116120657Y-80800958D01*
X116085776Y-81043558D01*
X114424581Y-81043558D01*
X115949395Y-79518745D01*
X116008922Y-79471818D01*
X116072149Y-79380338D01*
X116138227Y-79290875D01*
X116142615Y-79278383D01*
X116153038Y-79263300D01*
X116162992Y-79220359D01*
X116220525Y-79056524D01*
X116224517Y-78954918D01*
X116226000Y-78948522D01*
X116226000Y-78917185D01*
X116230277Y-78808338D01*
X116226000Y-78792207D01*
X116226000Y-76763265D01*
X116228753Y-76781468D01*
X116307740Y-76996151D01*
X116428283Y-77190566D01*
X116585455Y-77356771D01*
X116772837Y-77487978D01*
X116985844Y-77580153D01*
X117281993Y-77626000D01*
X117932153Y-77626000D01*
X118102581Y-77608689D01*
X118320865Y-77540282D01*
X118520937Y-77429381D01*
X118694621Y-77280515D01*
X118834825Y-77099766D01*
X118935821Y-76894516D01*
X118993483Y-76673150D01*
X119005454Y-76444711D01*
X118971247Y-76218532D01*
X118892260Y-76003849D01*
X118771717Y-75809434D01*
X118614545Y-75643229D01*
X118427163Y-75512022D01*
X118396099Y-75498580D01*
X118520937Y-75429381D01*
X118694621Y-75280515D01*
X118834825Y-75099766D01*
X118935821Y-74894516D01*
X118993483Y-74673150D01*
X119005454Y-74444711D01*
X118971247Y-74218532D01*
X118892260Y-74003849D01*
X118771717Y-73809434D01*
X118614545Y-73643229D01*
X118502583Y-73564832D01*
X118544688Y-73543146D01*
X118729860Y-73397692D01*
X118884186Y-73219846D01*
X119002099Y-73016027D01*
X119079344Y-72793585D01*
X119103346Y-72628000D01*
X117472000Y-72628000D01*
X117472000Y-72372000D01*
X119113489Y-72372000D01*
X119047075Y-72096422D01*
X118949615Y-71882069D01*
X118813380Y-71690012D01*
X118643285Y-71527182D01*
X118505269Y-71438066D01*
X118520937Y-71429381D01*
X118694621Y-71280515D01*
X118834825Y-71099766D01*
X118935821Y-70894516D01*
X118993483Y-70673150D01*
X119005454Y-70444711D01*
X118971247Y-70218532D01*
X118892260Y-70003849D01*
X118771717Y-69809434D01*
X118614545Y-69643229D01*
X118427163Y-69512022D01*
X118396099Y-69498580D01*
X118520937Y-69429381D01*
X118694621Y-69280515D01*
X118834825Y-69099766D01*
X118935821Y-68894516D01*
X118993483Y-68673150D01*
X119005454Y-68444711D01*
X118971247Y-68218532D01*
X118892260Y-68003849D01*
X118771717Y-67809434D01*
X118614545Y-67643229D01*
X118515497Y-67573875D01*
X118711469Y-67460731D01*
X118870580Y-67289250D01*
X118972076Y-67078491D01*
X119005518Y-66856619D01*
X119005518Y-66141007D01*
X118953901Y-65868209D01*
X118835731Y-65663531D01*
X118664250Y-65504420D01*
X118453491Y-65402924D01*
X118231619Y-65369482D01*
X116966007Y-65369482D01*
X116693209Y-65421099D01*
X116488531Y-65539269D01*
X116329420Y-65710750D01*
X116227924Y-65921509D01*
X116194482Y-66143381D01*
X116194482Y-66858993D01*
X116246099Y-67131791D01*
X116364269Y-67336469D01*
X116535750Y-67495580D01*
X116684878Y-67567396D01*
X116679063Y-67570619D01*
X116505379Y-67719485D01*
X116365175Y-67900234D01*
X116264179Y-68105484D01*
X116206517Y-68326850D01*
X116194546Y-68555289D01*
X116228753Y-68781468D01*
X116307740Y-68996151D01*
X116428283Y-69190566D01*
X116585455Y-69356771D01*
X116772837Y-69487978D01*
X116803901Y-69501420D01*
X116679063Y-69570619D01*
X116505379Y-69719485D01*
X116365175Y-69900234D01*
X116264179Y-70105484D01*
X116226000Y-70252054D01*
X116226000Y-68899038D01*
X116234909Y-68823762D01*
X116214935Y-68714390D01*
X116198395Y-68604382D01*
X116192663Y-68592445D01*
X116189370Y-68574415D01*
X116166047Y-68537016D01*
X116090878Y-68380479D01*
X116021855Y-68305811D01*
X116018382Y-68300242D01*
X115996242Y-68278102D01*
X115922280Y-68198090D01*
X115907846Y-68189706D01*
X114376000Y-66657861D01*
X114376000Y-65949038D01*
X114384909Y-65873762D01*
X114364935Y-65764390D01*
X114348395Y-65654382D01*
X114342663Y-65642445D01*
X114339370Y-65624415D01*
X114316047Y-65587016D01*
X114240878Y-65430479D01*
X114171855Y-65355811D01*
X114168382Y-65350242D01*
X114146242Y-65328102D01*
X114072280Y-65248090D01*
X114057846Y-65239706D01*
X110010850Y-61192710D01*
X112464710Y-61192710D01*
X112499492Y-61438642D01*
X112605051Y-61663474D01*
X112772052Y-61847328D01*
X112985732Y-61973950D01*
X113227197Y-62032143D01*
X113475099Y-62016764D01*
X113707520Y-61929171D01*
X113903911Y-61777109D01*
X114046907Y-61574022D01*
X114124022Y-61337386D01*
X114126295Y-61077016D01*
X114053321Y-60839069D01*
X113913890Y-60633519D01*
X113720184Y-60478053D01*
X113489327Y-60386417D01*
X113241731Y-60366712D01*
X112999287Y-60420684D01*
X112783430Y-60543556D01*
X112613245Y-60724469D01*
X112503779Y-60947424D01*
X112464710Y-61192710D01*
X110010850Y-61192710D01*
X108268752Y-59450613D01*
X108221817Y-59391077D01*
X108130305Y-59327828D01*
X108040873Y-59261772D01*
X108028383Y-59257386D01*
X108013300Y-59246961D01*
X107970359Y-59237010D01*
X107806523Y-59179475D01*
X107704918Y-59175483D01*
X107698522Y-59174000D01*
X107667185Y-59174000D01*
X107558338Y-59169723D01*
X107542207Y-59174000D01*
X103867141Y-59174000D01*
X103826000Y-59132860D01*
X103826000Y-57143644D01*
X103856771Y-57114545D01*
X103987978Y-56927163D01*
X104001421Y-56896098D01*
X104070619Y-57020937D01*
X104219485Y-57194621D01*
X104400234Y-57334825D01*
X104605484Y-57435821D01*
X104826850Y-57493483D01*
X105055288Y-57505454D01*
X105281467Y-57471247D01*
X105496150Y-57392260D01*
X105690566Y-57271717D01*
X105856771Y-57114545D01*
X105987978Y-56927163D01*
X106001421Y-56896098D01*
X106070619Y-57020937D01*
X106219485Y-57194621D01*
X106400234Y-57334825D01*
X106605484Y-57435821D01*
X106826850Y-57493483D01*
X107055288Y-57505454D01*
X107281467Y-57471247D01*
X107496150Y-57392260D01*
X107690566Y-57271717D01*
X107854895Y-57116319D01*
X107977618Y-57307279D01*
X108169730Y-57473745D01*
X108400958Y-57579343D01*
X108643558Y-57614224D01*
X108872000Y-57614224D01*
X108872000Y-56228000D01*
X109128000Y-56228000D01*
X109128000Y-57614224D01*
X109360976Y-57614224D01*
X109509930Y-57581821D01*
X113970148Y-57581821D01*
X114002924Y-57881103D01*
X114077543Y-58172781D01*
X114192516Y-58451037D01*
X114345548Y-58710316D01*
X114533586Y-58945445D01*
X114752878Y-59151734D01*
X114999049Y-59325068D01*
X115267187Y-59461986D01*
X115551941Y-59559756D01*
X115847631Y-59616430D01*
X116148357Y-59630875D01*
X116448117Y-59602803D01*
X116740932Y-59532774D01*
X117020958Y-59422187D01*
X117282608Y-59273247D01*
X117520663Y-59088925D01*
X117730371Y-58872900D01*
X117907550Y-58629482D01*
X118048662Y-58363529D01*
X118150894Y-58080344D01*
X118212610Y-57783632D01*
X118226511Y-57353292D01*
X118184070Y-57053214D01*
X118100326Y-56764023D01*
X117976670Y-56489517D01*
X117815570Y-56235173D01*
X117620239Y-56006065D01*
X117394575Y-55806766D01*
X117143082Y-55641251D01*
X116870775Y-55512823D01*
X116583090Y-55424045D01*
X116285766Y-55376687D01*
X115984735Y-55371695D01*
X115686004Y-55409169D01*
X115395534Y-55488360D01*
X115119120Y-55607689D01*
X114862276Y-55764775D01*
X114630128Y-55956483D01*
X114427310Y-56178988D01*
X114257865Y-56427852D01*
X114125175Y-56698107D01*
X114031889Y-56984361D01*
X113979867Y-57280906D01*
X113970148Y-57581821D01*
X109509930Y-57581821D01*
X109714549Y-57537309D01*
X109932279Y-57397382D01*
X110098745Y-57205270D01*
X110204343Y-56974042D01*
X110239224Y-56731442D01*
X110239224Y-56228000D01*
X109128000Y-56228000D01*
X108872000Y-56228000D01*
X108872000Y-54585776D01*
X109128000Y-54585776D01*
X109128000Y-55972000D01*
X110239224Y-55972000D01*
X110239224Y-55464024D01*
X110162309Y-55110451D01*
X110022382Y-54892721D01*
X109830270Y-54726255D01*
X109599042Y-54620657D01*
X109356442Y-54585776D01*
X109128000Y-54585776D01*
X108872000Y-54585776D01*
X108639024Y-54585776D01*
X108285451Y-54662691D01*
X108067721Y-54802618D01*
X107901255Y-54994730D01*
X107856112Y-55093579D01*
X107780515Y-55005379D01*
X107599766Y-54865175D01*
X107394516Y-54764179D01*
X107173150Y-54706517D01*
X106944712Y-54694546D01*
X106718533Y-54728753D01*
X106503850Y-54807740D01*
X106309435Y-54928283D01*
X106143230Y-55085455D01*
X106012023Y-55272837D01*
X105998580Y-55303902D01*
X105929381Y-55179063D01*
X105780515Y-55005379D01*
X105599766Y-54865175D01*
X105394516Y-54764179D01*
X105173150Y-54706517D01*
X104944712Y-54694546D01*
X104718533Y-54728753D01*
X104503850Y-54807740D01*
X104309435Y-54928283D01*
X104143230Y-55085455D01*
X104012023Y-55272837D01*
X103998580Y-55303902D01*
X103929381Y-55179063D01*
X103780515Y-55005379D01*
X103599766Y-54865175D01*
X103394516Y-54764179D01*
X103173150Y-54706517D01*
X102944712Y-54694546D01*
X102718533Y-54728753D01*
X102503850Y-54807740D01*
X102309435Y-54928283D01*
X102143230Y-55085455D01*
X102012023Y-55272837D01*
X101919847Y-55485844D01*
X101874000Y-55781993D01*
X101874000Y-56432152D01*
X101891311Y-56602580D01*
X101959718Y-56820864D01*
X102070619Y-57020937D01*
X102174000Y-57141554D01*
X102174000Y-58063014D01*
X102174001Y-58063020D01*
X102174000Y-59425961D01*
X102165091Y-59501237D01*
X102185065Y-59610609D01*
X102201605Y-59720617D01*
X102207337Y-59732554D01*
X102210630Y-59750584D01*
X102233954Y-59787983D01*
X102309122Y-59944519D01*
X102378148Y-60019192D01*
X102381620Y-60024760D01*
X102403753Y-60046892D01*
X102477721Y-60126910D01*
X102492153Y-60135293D01*
X102906255Y-60549396D01*
X102953183Y-60608923D01*
X103044680Y-60672161D01*
X103134125Y-60738227D01*
X103146617Y-60742615D01*
X103161700Y-60753038D01*
X103204641Y-60762992D01*
X103368476Y-60820525D01*
X103470082Y-60824517D01*
X103476478Y-60826000D01*
X103507815Y-60826000D01*
X103616662Y-60830277D01*
X103632793Y-60826000D01*
X107307861Y-60826000D01*
X111557988Y-65076128D01*
X111483453Y-65118556D01*
X111313268Y-65299469D01*
X111203802Y-65522424D01*
X111175516Y-65700011D01*
X111120138Y-65519440D01*
X110980707Y-65313890D01*
X110787001Y-65158424D01*
X110556144Y-65066788D01*
X110308548Y-65047083D01*
X110066104Y-65101055D01*
X109850247Y-65223927D01*
X109680062Y-65404840D01*
X109570596Y-65627795D01*
X109531527Y-65873081D01*
X109566309Y-66119013D01*
X109671868Y-66343845D01*
X109838869Y-66527699D01*
X110052549Y-66654321D01*
X110294014Y-66712514D01*
X110541916Y-66697135D01*
X110774337Y-66609542D01*
X110970728Y-66457480D01*
X111113724Y-66254393D01*
X111190839Y-66017757D01*
X111191377Y-65956103D01*
X111199515Y-66013642D01*
X111305074Y-66238474D01*
X111472075Y-66422328D01*
X111685755Y-66548950D01*
X111927220Y-66607143D01*
X112175122Y-66591764D01*
X112407543Y-66504171D01*
X112603934Y-66352109D01*
X112698981Y-66217121D01*
X112724001Y-66242141D01*
X112724000Y-66934387D01*
X112714710Y-66992712D01*
X112717078Y-67009452D01*
X112715091Y-67026235D01*
X112734423Y-67132092D01*
X112749493Y-67238645D01*
X112751057Y-67241976D01*
X112751604Y-67245615D01*
X112757337Y-67257554D01*
X112760630Y-67275584D01*
X112783953Y-67312982D01*
X112803767Y-67354245D01*
X112855050Y-67463473D01*
X112857530Y-67466204D01*
X112859124Y-67469522D01*
X112928148Y-67544193D01*
X112931620Y-67549760D01*
X112951336Y-67569475D01*
X113022048Y-67647324D01*
X113025221Y-67649204D01*
X113027724Y-67651912D01*
X113042156Y-67660295D01*
X114574001Y-69192141D01*
X114574001Y-69673260D01*
X114491731Y-69666712D01*
X114249287Y-69720684D01*
X114033430Y-69843556D01*
X113863245Y-70024469D01*
X113753779Y-70247424D01*
X113723713Y-70436187D01*
X111649681Y-72510219D01*
X111649675Y-72510223D01*
X110202239Y-73957660D01*
X110274022Y-73737386D01*
X110276295Y-73477016D01*
X110203321Y-73239069D01*
X110063890Y-73033519D01*
X109870184Y-72878053D01*
X109639327Y-72786417D01*
X109391731Y-72766712D01*
X109149287Y-72820684D01*
X108933430Y-72943556D01*
X108773248Y-73113835D01*
X108773248Y-72143599D01*
X108822052Y-72197328D01*
X109035732Y-72323950D01*
X109277197Y-72382143D01*
X109525099Y-72366764D01*
X109757520Y-72279171D01*
X109953911Y-72127109D01*
X110096907Y-71924022D01*
X110174022Y-71687386D01*
X110176295Y-71427016D01*
X110103321Y-71189069D01*
X109963890Y-70983519D01*
X109770184Y-70828053D01*
X109572579Y-70749616D01*
X109573553Y-70638049D01*
X109500579Y-70400102D01*
X109361148Y-70194552D01*
X109167442Y-70039086D01*
X108936585Y-69947450D01*
X108864064Y-69941678D01*
X108946907Y-69824022D01*
X109024022Y-69587386D01*
X109026295Y-69327016D01*
X108954441Y-69092720D01*
X112310014Y-69092720D01*
X112344796Y-69338652D01*
X112450355Y-69563484D01*
X112617356Y-69747338D01*
X112831036Y-69873960D01*
X113072501Y-69932153D01*
X113320403Y-69916774D01*
X113552824Y-69829181D01*
X113749215Y-69677119D01*
X113892211Y-69474032D01*
X113969326Y-69237396D01*
X113971599Y-68977026D01*
X113898625Y-68739079D01*
X113759194Y-68533529D01*
X113565488Y-68378063D01*
X113334631Y-68286427D01*
X113087035Y-68266722D01*
X112844591Y-68320694D01*
X112628734Y-68443566D01*
X112458549Y-68624479D01*
X112349083Y-68847434D01*
X112310014Y-69092720D01*
X108954441Y-69092720D01*
X108953321Y-69089069D01*
X108813890Y-68883519D01*
X108620184Y-68728053D01*
X108389327Y-68636417D01*
X108141731Y-68616712D01*
X107899287Y-68670684D01*
X107683430Y-68793556D01*
X107513245Y-68974469D01*
X107403779Y-69197424D01*
X107364710Y-69442710D01*
X107399492Y-69688642D01*
X107505051Y-69913474D01*
X107521249Y-69931307D01*
X107521248Y-75940702D01*
X107391992Y-76069958D01*
X107258356Y-75872951D01*
X107064650Y-75717485D01*
X106833793Y-75625849D01*
X106586197Y-75606144D01*
X106343753Y-75660116D01*
X106127896Y-75782988D01*
X106099257Y-75813432D01*
X105684881Y-75813432D01*
X105712539Y-75728559D01*
X105714812Y-75468189D01*
X105641838Y-75230242D01*
X105514517Y-75042545D01*
X105514517Y-74353836D01*
X105521755Y-74271117D01*
X105500262Y-74190908D01*
X105485839Y-74109113D01*
X105471854Y-74084888D01*
X105464616Y-74057878D01*
X105416991Y-73989863D01*
X105375459Y-73917926D01*
X105311835Y-73864540D01*
X102788294Y-71340999D01*
X102927178Y-71143751D01*
X103004293Y-70907115D01*
X103004652Y-70866000D01*
X103026058Y-70844594D01*
X103059027Y-70823306D01*
X103102535Y-70768117D01*
X103113372Y-70757281D01*
X103135608Y-70726165D01*
X103196690Y-70648682D01*
X103199894Y-70636204D01*
X103207534Y-70625513D01*
X103269631Y-70417875D01*
X103265844Y-70321482D01*
X103265844Y-69910232D01*
X103361751Y-69774022D01*
X103438866Y-69537386D01*
X103441139Y-69277016D01*
X103431875Y-69246806D01*
X104712070Y-69246806D01*
X104746852Y-69492738D01*
X104852411Y-69717570D01*
X104931695Y-69804855D01*
X104913244Y-69824469D01*
X104803779Y-70047424D01*
X104764710Y-70292710D01*
X104799492Y-70538642D01*
X104905051Y-70763474D01*
X105072052Y-70947328D01*
X105285732Y-71073950D01*
X105527197Y-71132143D01*
X105775099Y-71116764D01*
X106007520Y-71029171D01*
X106203911Y-70877109D01*
X106346907Y-70674022D01*
X106424022Y-70437386D01*
X106426295Y-70177016D01*
X106353321Y-69939069D01*
X106216914Y-69737977D01*
X106294267Y-69628118D01*
X106371382Y-69391482D01*
X106373655Y-69131112D01*
X106300681Y-68893165D01*
X106161250Y-68687615D01*
X105967544Y-68532149D01*
X105736687Y-68440513D01*
X105489091Y-68420808D01*
X105246647Y-68474780D01*
X105030790Y-68597652D01*
X104860605Y-68778565D01*
X104751139Y-69001520D01*
X104712070Y-69246806D01*
X103431875Y-69246806D01*
X103368165Y-69039069D01*
X103228734Y-68833519D01*
X103035028Y-68678053D01*
X102804171Y-68586417D01*
X102556575Y-68566712D01*
X102314131Y-68620684D01*
X102098274Y-68743556D01*
X101928089Y-68924469D01*
X101818623Y-69147424D01*
X101779554Y-69392710D01*
X101814336Y-69638642D01*
X101919895Y-69863474D01*
X101963844Y-69911859D01*
X101963845Y-69971649D01*
X101879557Y-69990413D01*
X101663701Y-70113285D01*
X101613716Y-70166421D01*
X97340005Y-65892710D01*
X100664710Y-65892710D01*
X100699492Y-66138642D01*
X100805051Y-66363474D01*
X100972052Y-66547328D01*
X101185732Y-66673950D01*
X101427197Y-66732143D01*
X101675099Y-66716764D01*
X101907520Y-66629171D01*
X102103911Y-66477109D01*
X102246907Y-66274022D01*
X102324022Y-66037386D01*
X102326295Y-65777016D01*
X102253321Y-65539069D01*
X102113890Y-65333519D01*
X101920184Y-65178053D01*
X101689327Y-65086417D01*
X101441731Y-65066712D01*
X101199287Y-65120684D01*
X100983430Y-65243556D01*
X100813245Y-65424469D01*
X100703779Y-65647424D01*
X100664710Y-65892710D01*
X97340005Y-65892710D01*
X95640005Y-64192710D01*
X105564710Y-64192710D01*
X105599492Y-64438642D01*
X105705051Y-64663474D01*
X105872052Y-64847328D01*
X106085732Y-64973950D01*
X106327197Y-65032143D01*
X106575099Y-65016764D01*
X106807520Y-64929171D01*
X107003911Y-64777109D01*
X107146907Y-64574022D01*
X107224022Y-64337386D01*
X107226295Y-64077016D01*
X107153321Y-63839069D01*
X107013890Y-63633519D01*
X106820184Y-63478053D01*
X106589327Y-63386417D01*
X106341731Y-63366712D01*
X106099287Y-63420684D01*
X105883430Y-63543556D01*
X105713245Y-63724469D01*
X105603779Y-63947424D01*
X105564710Y-64192710D01*
X95640005Y-64192710D01*
X90523982Y-59076688D01*
X90470591Y-59013058D01*
X90398658Y-58971528D01*
X90330638Y-58923900D01*
X90303626Y-58916662D01*
X90279405Y-58902678D01*
X90197618Y-58888256D01*
X90117399Y-58866762D01*
X90034665Y-58874000D01*
X83978774Y-58874000D01*
X84103911Y-58777109D01*
X84246907Y-58574022D01*
X84324022Y-58337386D01*
X84324412Y-58292710D01*
X97464710Y-58292710D01*
X97499492Y-58538642D01*
X97605051Y-58763474D01*
X97772052Y-58947328D01*
X97985732Y-59073950D01*
X98227197Y-59132143D01*
X98475099Y-59116764D01*
X98707520Y-59029171D01*
X98903911Y-58877109D01*
X99046907Y-58674022D01*
X99124022Y-58437386D01*
X99126295Y-58177016D01*
X99053321Y-57939069D01*
X98913890Y-57733519D01*
X98720184Y-57578053D01*
X98489327Y-57486417D01*
X98241731Y-57466712D01*
X97999287Y-57520684D01*
X97783430Y-57643556D01*
X97613245Y-57824469D01*
X97503779Y-58047424D01*
X97464710Y-58292710D01*
X84324412Y-58292710D01*
X84326295Y-58077016D01*
X84253321Y-57839069D01*
X84113890Y-57633519D01*
X83920184Y-57478053D01*
X83689327Y-57386417D01*
X83441731Y-57366712D01*
X83199287Y-57420684D01*
X82983430Y-57543556D01*
X82813245Y-57724469D01*
X82703779Y-57947424D01*
X82664710Y-58192710D01*
X82699492Y-58438642D01*
X82805051Y-58663474D01*
X82972052Y-58847328D01*
X83017062Y-58874000D01*
X81739731Y-58874000D01*
X81620184Y-58778053D01*
X81389327Y-58686417D01*
X81141731Y-58666712D01*
X80899287Y-58720684D01*
X80683430Y-58843556D01*
X80513245Y-59024469D01*
X80403779Y-59247424D01*
X80364710Y-59492710D01*
X80399492Y-59738642D01*
X80505051Y-59963474D01*
X80672052Y-60147328D01*
X80885732Y-60273950D01*
X81127197Y-60332143D01*
X81375099Y-60316764D01*
X81607520Y-60229171D01*
X81740768Y-60126000D01*
X89802702Y-60126000D01*
X100254391Y-70577690D01*
X90962273Y-70577690D01*
X81867186Y-61482603D01*
X81867740Y-61419174D01*
X81794766Y-61181227D01*
X81655335Y-60975677D01*
X81461629Y-60820211D01*
X81230772Y-60728575D01*
X80983176Y-60708870D01*
X80740732Y-60762842D01*
X80524875Y-60885714D01*
X80354690Y-61066627D01*
X80245224Y-61289582D01*
X80206155Y-61534868D01*
X60548035Y-61534868D01*
X60503321Y-61389069D01*
X60494975Y-61376766D01*
X60496907Y-61374022D01*
X60574022Y-61137386D01*
X60576295Y-60877016D01*
X60503321Y-60639069D01*
X60494975Y-60626766D01*
X60496907Y-60624022D01*
X60574022Y-60387386D01*
X60574785Y-60299978D01*
X71848000Y-60299978D01*
X72214708Y-60204800D01*
X72444329Y-60101363D01*
X72653240Y-59960716D01*
X72835466Y-59786881D01*
X72985797Y-59584828D01*
X73050663Y-59457246D01*
X73093517Y-59540273D01*
X73243043Y-59735140D01*
X73424715Y-59900448D01*
X73632788Y-60030973D01*
X73864091Y-60123956D01*
X74216535Y-60176000D01*
X74322219Y-60176000D01*
X74504652Y-60159719D01*
X74741571Y-60094905D01*
X74963267Y-59989161D01*
X75162735Y-59845829D01*
X75333669Y-59669439D01*
X75416164Y-59546672D01*
X75416164Y-59662410D01*
X75454520Y-59855235D01*
X75570775Y-60029225D01*
X75744765Y-60145480D01*
X75937590Y-60183836D01*
X77662410Y-60183836D01*
X77855235Y-60145480D01*
X78029225Y-60029225D01*
X78145480Y-59855235D01*
X78183836Y-59662410D01*
X78183836Y-57937590D01*
X78145480Y-57744765D01*
X78029225Y-57570775D01*
X77855235Y-57454520D01*
X77662410Y-57416164D01*
X75937590Y-57416164D01*
X75744765Y-57454520D01*
X75570775Y-57570775D01*
X75454520Y-57744765D01*
X75416164Y-57937590D01*
X75416164Y-58046279D01*
X75276957Y-57864860D01*
X75095285Y-57699552D01*
X74887212Y-57569027D01*
X74655909Y-57476044D01*
X74303465Y-57424000D01*
X74197781Y-57424000D01*
X74015348Y-57440281D01*
X73778429Y-57505095D01*
X73556733Y-57610839D01*
X73357265Y-57754171D01*
X73186331Y-57930561D01*
X73050741Y-58132343D01*
X72923390Y-57922474D01*
X72758331Y-57732261D01*
X72563584Y-57572578D01*
X72344716Y-57447991D01*
X72105169Y-57361040D01*
X71848000Y-57326953D01*
X71848000Y-60299978D01*
X60574785Y-60299978D01*
X60576295Y-60127016D01*
X60503321Y-59889069D01*
X60494975Y-59876766D01*
X60496907Y-59874022D01*
X60574022Y-59637386D01*
X60576295Y-59377016D01*
X60503321Y-59139069D01*
X60494975Y-59126766D01*
X60496907Y-59124022D01*
X60560786Y-58928000D01*
X70230513Y-58928000D01*
X70293456Y-59227983D01*
X70385961Y-59462222D01*
X70516610Y-59677526D01*
X70681669Y-59867739D01*
X70876416Y-60027422D01*
X71095284Y-60152009D01*
X71334831Y-60238960D01*
X71592000Y-60273047D01*
X71592000Y-58928000D01*
X70230513Y-58928000D01*
X60560786Y-58928000D01*
X60574022Y-58887386D01*
X60575902Y-58672000D01*
X70239957Y-58672000D01*
X71592000Y-58672000D01*
X71592000Y-57300022D01*
X71225292Y-57395200D01*
X70995671Y-57498637D01*
X70786760Y-57639284D01*
X70604534Y-57813119D01*
X70454203Y-58015172D01*
X70340064Y-58239666D01*
X70265382Y-58480181D01*
X70239957Y-58672000D01*
X60575902Y-58672000D01*
X60576295Y-58627016D01*
X60503321Y-58389069D01*
X60363890Y-58183519D01*
X60170184Y-58028053D01*
X59939327Y-57936417D01*
X59691731Y-57916712D01*
X59449286Y-57970684D01*
X59377952Y-58011290D01*
X59189327Y-57936417D01*
X58941731Y-57916712D01*
X58699286Y-57970684D01*
X58627952Y-58011290D01*
X58439327Y-57936417D01*
X58191731Y-57916712D01*
X57949286Y-57970684D01*
X57877952Y-58011290D01*
X57689327Y-57936417D01*
X57441731Y-57916712D01*
X57199287Y-57970684D01*
X56983430Y-58093556D01*
X56813245Y-58274469D01*
X56703779Y-58497424D01*
X56664710Y-58742710D01*
X56699492Y-58988642D01*
X56763695Y-59125390D01*
X56703779Y-59247424D01*
X56664710Y-59492710D01*
X56699492Y-59738642D01*
X56763695Y-59875390D01*
X56703779Y-59997424D01*
X56664710Y-60242710D01*
X56699492Y-60488642D01*
X56763695Y-60625390D01*
X56703779Y-60747424D01*
X56664710Y-60992710D01*
X56699492Y-61238642D01*
X56763695Y-61375390D01*
X56703779Y-61497424D01*
X56664710Y-61742710D01*
X56699492Y-61988642D01*
X56763695Y-62125390D01*
X56703779Y-62247424D01*
X56664710Y-62492710D01*
X56699492Y-62738642D01*
X56763695Y-62875390D01*
X56703779Y-62997424D01*
X56664710Y-63242710D01*
X56699492Y-63488642D01*
X56763695Y-63625390D01*
X56703779Y-63747424D01*
X56676267Y-63920155D01*
X56449286Y-63970684D01*
X56377952Y-64011290D01*
X56189327Y-63936417D01*
X55941731Y-63916712D01*
X55699286Y-63970684D01*
X55627952Y-64011290D01*
X55439327Y-63936417D01*
X55191731Y-63916712D01*
X54949286Y-63970684D01*
X54877952Y-64011290D01*
X54689327Y-63936417D01*
X54441731Y-63916712D01*
X54199287Y-63970684D01*
X53983430Y-64093556D01*
X53813245Y-64274469D01*
X53703779Y-64497424D01*
X53664710Y-64742710D01*
X51866916Y-64742710D01*
X51741957Y-64579860D01*
X51560285Y-64414552D01*
X51471467Y-64358836D01*
X51587410Y-64358836D01*
X51780235Y-64320480D01*
X51954225Y-64204225D01*
X52070480Y-64030235D01*
X52108836Y-63837410D01*
X52108836Y-62112590D01*
X52070480Y-61919765D01*
X51954225Y-61745775D01*
X51780235Y-61629520D01*
X51587410Y-61591164D01*
X49862590Y-61591164D01*
X49669765Y-61629520D01*
X49495775Y-61745775D01*
X49379520Y-61919765D01*
X49341164Y-62112590D01*
X49341164Y-63356465D01*
X49328465Y-63338330D01*
X49286941Y-63266406D01*
X49223323Y-63213025D01*
X48561979Y-62551682D01*
X48508593Y-62488058D01*
X48436660Y-62446528D01*
X48433836Y-62444551D01*
X48433836Y-62112590D01*
X48395480Y-61919765D01*
X48279225Y-61745775D01*
X48105235Y-61629520D01*
X47912410Y-61591164D01*
X46187590Y-61591164D01*
X45994765Y-61629520D01*
X45820775Y-61745775D01*
X45704520Y-61919765D01*
X45666164Y-62112590D01*
X45666164Y-63837410D01*
X45704520Y-64030235D01*
X45820775Y-64204225D01*
X45994765Y-64320480D01*
X46187590Y-64358836D01*
X46300813Y-64358836D01*
X46147265Y-64469171D01*
X45976331Y-64645561D01*
X45839337Y-64849432D01*
X45740608Y-65074340D01*
X45683268Y-65313178D01*
X45669129Y-65558395D01*
X45698638Y-65802241D01*
X45770861Y-66037007D01*
X45883517Y-66255273D01*
X46033043Y-66450140D01*
X46214715Y-66615448D01*
X46389308Y-66724971D01*
X46325671Y-66753637D01*
X46116760Y-66894284D01*
X45934534Y-67068119D01*
X45784203Y-67270172D01*
X45670064Y-67494666D01*
X45595382Y-67735181D01*
X45569957Y-67927000D01*
X45526000Y-67927000D01*
X45526000Y-57581821D01*
X47170148Y-57581821D01*
X47202924Y-57881103D01*
X47277543Y-58172781D01*
X47392516Y-58451037D01*
X47545548Y-58710316D01*
X47733586Y-58945445D01*
X47952878Y-59151734D01*
X48199049Y-59325068D01*
X48467187Y-59461986D01*
X48751941Y-59559756D01*
X49047631Y-59616430D01*
X49348357Y-59630875D01*
X49648117Y-59602803D01*
X49940932Y-59532774D01*
X50220958Y-59422187D01*
X50482608Y-59273247D01*
X50720663Y-59088925D01*
X50930371Y-58872900D01*
X51107550Y-58629482D01*
X51248662Y-58363529D01*
X51350894Y-58080344D01*
X51412610Y-57783632D01*
X51426511Y-57353292D01*
X51384070Y-57053214D01*
X51300326Y-56764023D01*
X51226430Y-56599978D01*
X71848000Y-56599978D01*
X72214708Y-56504800D01*
X72444329Y-56401363D01*
X72653240Y-56260716D01*
X72835466Y-56086881D01*
X72985797Y-55884828D01*
X73050663Y-55757246D01*
X73093517Y-55840273D01*
X73243043Y-56035140D01*
X73424715Y-56200448D01*
X73632788Y-56330973D01*
X73864091Y-56423956D01*
X74216535Y-56476000D01*
X74322219Y-56476000D01*
X74504652Y-56459719D01*
X74741571Y-56394905D01*
X74963267Y-56289161D01*
X75162735Y-56145829D01*
X75333669Y-55969439D01*
X75416164Y-55846672D01*
X75416164Y-55962410D01*
X75454520Y-56155235D01*
X75570775Y-56329225D01*
X75744765Y-56445480D01*
X75937590Y-56483836D01*
X77662410Y-56483836D01*
X77855235Y-56445480D01*
X78029225Y-56329225D01*
X78145480Y-56155235D01*
X78183836Y-55962410D01*
X78183836Y-54237590D01*
X78145480Y-54044765D01*
X78029225Y-53870775D01*
X77855235Y-53754520D01*
X77662410Y-53716164D01*
X75937590Y-53716164D01*
X75744765Y-53754520D01*
X75570775Y-53870775D01*
X75454520Y-54044765D01*
X75416164Y-54237590D01*
X75416164Y-54346279D01*
X75276957Y-54164860D01*
X75095285Y-53999552D01*
X74887212Y-53869027D01*
X74655909Y-53776044D01*
X74303465Y-53724000D01*
X74197781Y-53724000D01*
X74015348Y-53740281D01*
X73778429Y-53805095D01*
X73556733Y-53910839D01*
X73357265Y-54054171D01*
X73186331Y-54230561D01*
X73050741Y-54432343D01*
X72923390Y-54222474D01*
X72758331Y-54032261D01*
X72563584Y-53872578D01*
X72344716Y-53747991D01*
X72105169Y-53661040D01*
X71848000Y-53626953D01*
X71848000Y-56599978D01*
X51226430Y-56599978D01*
X51176670Y-56489517D01*
X51015570Y-56235173D01*
X50820239Y-56006065D01*
X50594575Y-55806766D01*
X50343082Y-55641251D01*
X50070775Y-55512823D01*
X49783090Y-55424045D01*
X49485766Y-55376687D01*
X49184735Y-55371695D01*
X48886004Y-55409169D01*
X48595534Y-55488360D01*
X48319120Y-55607689D01*
X48062276Y-55764775D01*
X47830128Y-55956483D01*
X47627310Y-56178988D01*
X47457865Y-56427852D01*
X47325175Y-56698107D01*
X47231889Y-56984361D01*
X47179867Y-57280906D01*
X47170148Y-57581821D01*
X45526000Y-57581821D01*
X45526000Y-55228000D01*
X70230513Y-55228000D01*
X70293456Y-55527983D01*
X70385961Y-55762222D01*
X70516610Y-55977526D01*
X70681669Y-56167739D01*
X70876416Y-56327422D01*
X71095284Y-56452009D01*
X71334831Y-56538960D01*
X71592000Y-56573047D01*
X71592000Y-55228000D01*
X70230513Y-55228000D01*
X45526000Y-55228000D01*
X45526000Y-54972000D01*
X70239957Y-54972000D01*
X71592000Y-54972000D01*
X71592000Y-53600022D01*
X71225292Y-53695200D01*
X70995671Y-53798637D01*
X70786760Y-53939284D01*
X70604534Y-54113119D01*
X70454203Y-54315172D01*
X70340064Y-54539666D01*
X70265382Y-54780181D01*
X70239957Y-54972000D01*
X45526000Y-54972000D01*
X45526000Y-53526000D01*
X119474000Y-53526000D01*
X119474001Y-93474000D01*
X119474001Y-93474000D01*
G37*
X119474001Y-93474000D02*
X45526000Y-93474000D01*
X45526000Y-90081821D01*
X46870148Y-90081821D01*
X46902924Y-90381103D01*
X46977543Y-90672781D01*
X47092516Y-90951037D01*
X47245548Y-91210316D01*
X47433586Y-91445445D01*
X47652878Y-91651734D01*
X47899049Y-91825068D01*
X48167187Y-91961986D01*
X48451941Y-92059756D01*
X48747631Y-92116430D01*
X49048357Y-92130875D01*
X49348117Y-92102803D01*
X49640932Y-92032774D01*
X49909851Y-91926573D01*
X90868252Y-91926573D01*
X90890419Y-92137469D01*
X90957354Y-92338685D01*
X91065937Y-92520834D01*
X91211100Y-92675417D01*
X91386071Y-92795223D01*
X91582688Y-92874661D01*
X91791776Y-92910025D01*
X92003580Y-92899666D01*
X92208219Y-92844067D01*
X92396144Y-92745822D01*
X92558591Y-92609514D01*
X92687976Y-92441502D01*
X92778266Y-92249628D01*
X92825297Y-92042623D01*
X92825701Y-91926573D01*
X93868252Y-91926573D01*
X93890419Y-92137469D01*
X93957354Y-92338685D01*
X94065937Y-92520834D01*
X94211100Y-92675417D01*
X94386071Y-92795223D01*
X94582688Y-92874661D01*
X94791776Y-92910025D01*
X95003580Y-92899666D01*
X95208219Y-92844067D01*
X95396144Y-92745822D01*
X95558591Y-92609514D01*
X95687976Y-92441502D01*
X95778266Y-92249628D01*
X95825297Y-92042623D01*
X95825352Y-92026573D01*
X103868252Y-92026573D01*
X103890419Y-92237469D01*
X103957354Y-92438685D01*
X104065937Y-92620834D01*
X104211100Y-92775417D01*
X104386071Y-92895223D01*
X104582688Y-92974661D01*
X104791776Y-93010025D01*
X105003580Y-92999666D01*
X105208219Y-92944067D01*
X105396144Y-92845822D01*
X105558591Y-92709514D01*
X105687976Y-92541502D01*
X105778266Y-92349628D01*
X105825297Y-92142623D01*
X105825701Y-92026573D01*
X106868252Y-92026573D01*
X106890419Y-92237469D01*
X106957354Y-92438685D01*
X107065937Y-92620834D01*
X107211100Y-92775417D01*
X107386071Y-92895223D01*
X107582688Y-92974661D01*
X107791776Y-93010025D01*
X108003580Y-92999666D01*
X108208219Y-92944067D01*
X108396144Y-92845822D01*
X108558591Y-92709514D01*
X108687976Y-92541502D01*
X108778266Y-92349628D01*
X108825297Y-92142623D01*
X108826059Y-91924188D01*
X108780474Y-91716861D01*
X108691527Y-91524359D01*
X108563317Y-91355450D01*
X108401827Y-91218011D01*
X108214592Y-91118455D01*
X108010346Y-91061430D01*
X107798619Y-91049592D01*
X107589289Y-91083496D01*
X107392124Y-91161560D01*
X107216320Y-91280140D01*
X107070081Y-91433706D01*
X106960229Y-91615093D01*
X106891890Y-91815837D01*
X106868252Y-92026573D01*
X105825701Y-92026573D01*
X105826059Y-91924188D01*
X105780474Y-91716861D01*
X105691527Y-91524359D01*
X105563317Y-91355450D01*
X105401827Y-91218011D01*
X105214592Y-91118455D01*
X105010346Y-91061430D01*
X104798619Y-91049592D01*
X104589289Y-91083496D01*
X104392124Y-91161560D01*
X104216320Y-91280140D01*
X104070081Y-91433706D01*
X103960229Y-91615093D01*
X103891890Y-91815837D01*
X103868252Y-92026573D01*
X95825352Y-92026573D01*
X95826059Y-91824188D01*
X95780474Y-91616861D01*
X95691527Y-91424359D01*
X95563317Y-91255450D01*
X95401827Y-91118011D01*
X95214592Y-91018455D01*
X95010346Y-90961430D01*
X94798619Y-90949592D01*
X94589289Y-90983496D01*
X94392124Y-91061560D01*
X94216320Y-91180140D01*
X94070081Y-91333706D01*
X93960229Y-91515093D01*
X93891890Y-91715837D01*
X93868252Y-91926573D01*
X92825701Y-91926573D01*
X92826059Y-91824188D01*
X92780474Y-91616861D01*
X92691527Y-91424359D01*
X92563317Y-91255450D01*
X92401827Y-91118011D01*
X92214592Y-91018455D01*
X92010346Y-90961430D01*
X91798619Y-90949592D01*
X91589289Y-90983496D01*
X91392124Y-91061560D01*
X91216320Y-91180140D01*
X91070081Y-91333706D01*
X90960229Y-91515093D01*
X90891890Y-91715837D01*
X90868252Y-91926573D01*
X49909851Y-91926573D01*
X49920958Y-91922187D01*
X50182608Y-91773247D01*
X50420663Y-91588925D01*
X50630371Y-91372900D01*
X50807550Y-91129482D01*
X50948662Y-90863529D01*
X51050894Y-90580344D01*
X51112610Y-90283632D01*
X51126511Y-89853292D01*
X51084070Y-89553214D01*
X51000326Y-89264023D01*
X50984099Y-89228000D01*
X54158163Y-89228000D01*
X54158163Y-90416588D01*
X54238795Y-90717512D01*
X54386185Y-90893165D01*
X54579814Y-91004956D01*
X54788976Y-91041837D01*
X55972000Y-91041837D01*
X55972000Y-89228000D01*
X56228000Y-89228000D01*
X56228000Y-91041837D01*
X57416588Y-91041837D01*
X57717512Y-90961205D01*
X57893165Y-90813815D01*
X58004956Y-90620186D01*
X58041837Y-90411024D01*
X58041837Y-89228000D01*
X56228000Y-89228000D01*
X55972000Y-89228000D01*
X54158163Y-89228000D01*
X50984099Y-89228000D01*
X50901966Y-89045670D01*
X59269440Y-89045670D01*
X59282285Y-89323187D01*
X59336959Y-89595568D01*
X59432205Y-89856545D01*
X59565830Y-90100113D01*
X59734761Y-90320665D01*
X59935108Y-90513127D01*
X60162262Y-90673070D01*
X60410996Y-90796813D01*
X60675584Y-90881509D01*
X60949941Y-90925208D01*
X61227750Y-90926905D01*
X61502619Y-90886560D01*
X61768223Y-90805104D01*
X62018450Y-90684409D01*
X62247541Y-90527253D01*
X62450224Y-90337253D01*
X62621836Y-90118781D01*
X62642704Y-90081821D01*
X113870148Y-90081821D01*
X113902924Y-90381103D01*
X113977543Y-90672781D01*
X114092516Y-90951037D01*
X114245548Y-91210316D01*
X114433586Y-91445445D01*
X114652878Y-91651734D01*
X114899049Y-91825068D01*
X115167187Y-91961986D01*
X115451941Y-92059756D01*
X115747631Y-92116430D01*
X116048357Y-92130875D01*
X116348117Y-92102803D01*
X116640932Y-92032774D01*
X116920958Y-91922187D01*
X117182608Y-91773247D01*
X117420663Y-91588925D01*
X117630371Y-91372900D01*
X117807550Y-91129482D01*
X117948662Y-90863529D01*
X118050894Y-90580344D01*
X118112610Y-90283632D01*
X118126511Y-89853292D01*
X118084070Y-89553214D01*
X118000326Y-89264023D01*
X117876670Y-88989517D01*
X117715570Y-88735173D01*
X117520239Y-88506065D01*
X117294575Y-88306766D01*
X117043082Y-88141251D01*
X116770775Y-88012823D01*
X116483090Y-87924045D01*
X116185766Y-87876687D01*
X115884735Y-87871695D01*
X115586004Y-87909169D01*
X115295534Y-87988360D01*
X115019120Y-88107689D01*
X114762276Y-88264775D01*
X114530128Y-88456483D01*
X114327310Y-88678988D01*
X114157865Y-88927852D01*
X114025175Y-89198107D01*
X113931889Y-89484361D01*
X113879867Y-89780906D01*
X113870148Y-90081821D01*
X62642704Y-90081821D01*
X62758428Y-89876865D01*
X62856855Y-89617071D01*
X62915234Y-89343591D01*
X62926486Y-88964493D01*
X62884428Y-88688032D01*
X62801582Y-88422858D01*
X62679579Y-88173267D01*
X62521225Y-87945001D01*
X62330166Y-87743316D01*
X62110799Y-87572850D01*
X61868171Y-87437528D01*
X61607865Y-87340462D01*
X61335872Y-87283887D01*
X61058451Y-87269106D01*
X60781987Y-87296457D01*
X60512840Y-87365312D01*
X60257205Y-87474085D01*
X60020966Y-87620275D01*
X59809557Y-87800516D01*
X59627843Y-88010662D01*
X59480009Y-88245876D01*
X59369452Y-88500744D01*
X59298721Y-88769403D01*
X59269440Y-89045670D01*
X50901966Y-89045670D01*
X50876670Y-88989517D01*
X50715570Y-88735173D01*
X50520239Y-88506065D01*
X50294575Y-88306766D01*
X50043082Y-88141251D01*
X49770775Y-88012823D01*
X49483090Y-87924045D01*
X49185766Y-87876687D01*
X48884735Y-87871695D01*
X48586004Y-87909169D01*
X48295534Y-87988360D01*
X48019120Y-88107689D01*
X47762276Y-88264775D01*
X47530128Y-88456483D01*
X47327310Y-88678988D01*
X47157865Y-88927852D01*
X47025175Y-89198107D01*
X46931889Y-89484361D01*
X46879867Y-89780906D01*
X46870148Y-90081821D01*
X45526000Y-90081821D01*
X45526000Y-87788976D01*
X54158163Y-87788976D01*
X54158163Y-88972000D01*
X55972000Y-88972000D01*
X55972000Y-87158163D01*
X56228000Y-87158163D01*
X56228000Y-88972000D01*
X58041837Y-88972000D01*
X58041837Y-87783412D01*
X57961205Y-87482489D01*
X57813815Y-87306835D01*
X57620186Y-87195044D01*
X57411024Y-87158163D01*
X56228000Y-87158163D01*
X55972000Y-87158163D01*
X54783412Y-87158163D01*
X54482489Y-87238795D01*
X54306835Y-87386185D01*
X54195044Y-87579814D01*
X54158163Y-87788976D01*
X45526000Y-87788976D01*
X45526000Y-81109459D01*
X47171560Y-81109459D01*
X47526235Y-81320887D01*
X47770711Y-81417682D01*
X48027520Y-81474145D01*
X48290052Y-81488822D01*
X48551554Y-81461338D01*
X48805297Y-81392397D01*
X49044754Y-81283775D01*
X49319930Y-81100949D01*
X48250000Y-80031019D01*
X47171560Y-81109459D01*
X45526000Y-81109459D01*
X45526000Y-79832834D01*
X46610778Y-79832834D01*
X46629120Y-80095135D01*
X46689163Y-80351130D01*
X46789362Y-80594232D01*
X46993282Y-80925699D01*
X48068981Y-79850000D01*
X48431019Y-79850000D01*
X49493509Y-80912489D01*
X49618577Y-80752410D01*
X49745250Y-80521992D01*
X49833454Y-80274286D01*
X49881040Y-80015010D01*
X49884138Y-79719185D01*
X49841992Y-79458970D01*
X49758994Y-79209470D01*
X49637175Y-78976450D01*
X49533297Y-78837590D01*
X51716164Y-78837590D01*
X51716164Y-80862410D01*
X51754520Y-81055235D01*
X51870775Y-81229225D01*
X52044765Y-81345480D01*
X52237590Y-81383836D01*
X54262410Y-81383836D01*
X54455235Y-81345480D01*
X54629225Y-81229225D01*
X54745480Y-81055235D01*
X54783836Y-80862410D01*
X54783836Y-78837590D01*
X54745480Y-78644765D01*
X54629225Y-78470775D01*
X54455235Y-78354520D01*
X54262410Y-78316164D01*
X52237590Y-78316164D01*
X52044765Y-78354520D01*
X51870775Y-78470775D01*
X51754520Y-78644765D01*
X51716164Y-78837590D01*
X49533297Y-78837590D01*
X49494838Y-78786181D01*
X48431019Y-79850000D01*
X48068981Y-79850000D01*
X46996927Y-78777946D01*
X46805269Y-79075342D01*
X46700000Y-79316292D01*
X46634608Y-79570973D01*
X46610778Y-79832834D01*
X45526000Y-79832834D01*
X45526000Y-78607089D01*
X47188108Y-78607089D01*
X48250000Y-79668981D01*
X49317194Y-78601786D01*
X49074606Y-78433183D01*
X48837477Y-78319571D01*
X48585233Y-78245331D01*
X48324364Y-78212375D01*
X48061582Y-78221552D01*
X47803648Y-78272625D01*
X47557197Y-78364278D01*
X47328570Y-78494157D01*
X47188108Y-78607089D01*
X45526000Y-78607089D01*
X45526000Y-68183000D01*
X45560513Y-68183000D01*
X45623456Y-68482983D01*
X45715961Y-68717222D01*
X45846610Y-68932526D01*
X46011669Y-69122739D01*
X46206416Y-69282422D01*
X46425284Y-69407009D01*
X46664831Y-69493960D01*
X46922000Y-69528047D01*
X46922000Y-68183000D01*
X45560513Y-68183000D01*
X45526000Y-68183000D01*
X45526000Y-67927000D01*
X45569957Y-67927000D01*
X47178000Y-67927000D01*
X47178000Y-69554978D01*
X47544708Y-69459800D01*
X47745235Y-69369469D01*
X46697530Y-70417174D01*
X46691731Y-70416712D01*
X46449287Y-70470684D01*
X46233430Y-70593556D01*
X46063245Y-70774469D01*
X45953779Y-70997424D01*
X45914710Y-71242710D01*
X45949492Y-71488642D01*
X46055051Y-71713474D01*
X46110375Y-71774381D01*
X46063245Y-71824482D01*
X45953779Y-72047437D01*
X45914710Y-72292723D01*
X45949492Y-72538655D01*
X46055051Y-72763487D01*
X46064151Y-72773506D01*
X46063245Y-72774469D01*
X45953779Y-72997424D01*
X45914710Y-73242710D01*
X45949492Y-73488642D01*
X46055051Y-73713474D01*
X46087263Y-73748937D01*
X46063245Y-73774469D01*
X45953779Y-73997424D01*
X45914710Y-74242710D01*
X45949492Y-74488642D01*
X46055051Y-74713474D01*
X46222052Y-74897328D01*
X46435732Y-75023950D01*
X46677197Y-75082143D01*
X46925099Y-75066764D01*
X47157520Y-74979171D01*
X47353911Y-74827109D01*
X47496907Y-74624022D01*
X47539699Y-74492710D01*
X55264710Y-74492710D01*
X55299492Y-74738642D01*
X55405051Y-74963474D01*
X55474001Y-75039383D01*
X55474000Y-79372682D01*
X55466762Y-79455401D01*
X55488256Y-79535616D01*
X55502678Y-79617407D01*
X55516662Y-79641627D01*
X55523899Y-79668639D01*
X55571529Y-79736662D01*
X55613058Y-79808593D01*
X55676690Y-79861986D01*
X64238017Y-88423313D01*
X64291407Y-88486941D01*
X64363333Y-88528468D01*
X64431360Y-88576101D01*
X64458372Y-88583338D01*
X64482592Y-88597322D01*
X64564380Y-88611744D01*
X64644599Y-88633238D01*
X64727333Y-88626000D01*
X68552679Y-88626000D01*
X68572052Y-88647328D01*
X68785732Y-88773950D01*
X69027197Y-88832143D01*
X69275099Y-88816764D01*
X69507520Y-88729171D01*
X69703911Y-88577109D01*
X69846907Y-88374022D01*
X69924022Y-88137386D01*
X69926295Y-87877016D01*
X69853321Y-87639069D01*
X69713890Y-87433519D01*
X69520184Y-87278053D01*
X69289327Y-87186417D01*
X69041731Y-87166712D01*
X68799287Y-87220684D01*
X68583430Y-87343556D01*
X68554791Y-87374000D01*
X64959296Y-87374000D01*
X64078006Y-86492710D01*
X65414710Y-86492710D01*
X65449492Y-86738642D01*
X65555051Y-86963474D01*
X65722052Y-87147328D01*
X65935732Y-87273950D01*
X66177197Y-87332143D01*
X66425099Y-87316764D01*
X66657520Y-87229171D01*
X66853911Y-87077109D01*
X66996907Y-86874022D01*
X67074022Y-86637386D01*
X67076295Y-86377016D01*
X67056355Y-86311997D01*
X67092231Y-86332710D01*
X67368948Y-86444511D01*
X67658530Y-86516711D01*
X67955343Y-86547908D01*
X68253609Y-86537492D01*
X68547522Y-86485667D01*
X68831363Y-86393441D01*
X69099606Y-86262611D01*
X69459106Y-86020125D01*
X69448674Y-86009693D01*
X79751326Y-86009693D01*
X79973768Y-86183486D01*
X80232231Y-86332710D01*
X80508948Y-86444511D01*
X80798530Y-86516711D01*
X81095343Y-86547908D01*
X81393609Y-86537492D01*
X81687522Y-86485667D01*
X81971363Y-86393441D01*
X82239606Y-86262611D01*
X82328411Y-86202711D01*
X88754709Y-86202711D01*
X88789491Y-86448643D01*
X88895050Y-86673475D01*
X89062051Y-86857329D01*
X89275731Y-86983951D01*
X89517196Y-87042144D01*
X89765098Y-87026765D01*
X89991268Y-86941528D01*
X89913245Y-87024469D01*
X89803779Y-87247424D01*
X89764710Y-87492710D01*
X89799492Y-87738642D01*
X89822213Y-87787035D01*
X89785508Y-87790893D01*
X89580390Y-87857540D01*
X89393611Y-87965376D01*
X89233334Y-88109691D01*
X89106564Y-88284175D01*
X89018842Y-88481202D01*
X88974000Y-88692163D01*
X88974000Y-88907837D01*
X89018842Y-89118798D01*
X89106564Y-89315825D01*
X89233334Y-89490309D01*
X89393611Y-89634624D01*
X89580390Y-89742460D01*
X89785508Y-89809107D01*
X90000000Y-89831651D01*
X90214492Y-89809107D01*
X90419610Y-89742460D01*
X90606389Y-89634624D01*
X90766666Y-89490309D01*
X90893436Y-89315825D01*
X90981158Y-89118798D01*
X91026000Y-88907837D01*
X91026000Y-88692163D01*
X91004861Y-88592710D01*
X91664710Y-88592710D01*
X91699492Y-88838642D01*
X91805051Y-89063474D01*
X91972052Y-89247328D01*
X92185732Y-89373950D01*
X92427197Y-89432143D01*
X92675099Y-89416764D01*
X92907520Y-89329171D01*
X93103911Y-89177109D01*
X93246907Y-88974022D01*
X93324022Y-88737386D01*
X93324416Y-88692163D01*
X93374000Y-88692163D01*
X93374000Y-88907837D01*
X93418842Y-89118798D01*
X93506564Y-89315825D01*
X93633334Y-89490309D01*
X93793611Y-89634624D01*
X93980390Y-89742460D01*
X94185508Y-89809107D01*
X94400000Y-89831651D01*
X94614492Y-89809107D01*
X94819610Y-89742460D01*
X95006389Y-89634624D01*
X95166666Y-89490309D01*
X95293436Y-89315825D01*
X95381158Y-89118798D01*
X95426000Y-88907837D01*
X95426000Y-88692163D01*
X102074000Y-88692163D01*
X102074000Y-88907837D01*
X102118842Y-89118798D01*
X102206564Y-89315825D01*
X102333334Y-89490309D01*
X102493611Y-89634624D01*
X102680390Y-89742460D01*
X102885508Y-89809107D01*
X103100000Y-89831651D01*
X103314492Y-89809107D01*
X103519610Y-89742460D01*
X103706389Y-89634624D01*
X103866666Y-89490309D01*
X103993436Y-89315825D01*
X104081158Y-89118798D01*
X104126000Y-88907837D01*
X104126000Y-88692163D01*
X104083605Y-88492710D01*
X104664710Y-88492710D01*
X104699492Y-88738642D01*
X104805051Y-88963474D01*
X104972052Y-89147328D01*
X105185732Y-89273950D01*
X105427197Y-89332143D01*
X105675099Y-89316764D01*
X105907520Y-89229171D01*
X106103911Y-89077109D01*
X106246907Y-88874022D01*
X106306171Y-88692163D01*
X106474000Y-88692163D01*
X106474000Y-88907837D01*
X106518842Y-89118798D01*
X106606564Y-89315825D01*
X106733334Y-89490309D01*
X106893611Y-89634624D01*
X107080390Y-89742460D01*
X107285508Y-89809107D01*
X107500000Y-89831651D01*
X107714492Y-89809107D01*
X107919610Y-89742460D01*
X108106389Y-89634624D01*
X108266666Y-89490309D01*
X108393436Y-89315825D01*
X108481158Y-89118798D01*
X108526000Y-88907837D01*
X108526000Y-88692163D01*
X108481158Y-88481202D01*
X108393436Y-88284175D01*
X108266666Y-88109691D01*
X108106389Y-87965376D01*
X107919610Y-87857540D01*
X107714492Y-87790893D01*
X107500000Y-87768349D01*
X107285508Y-87790893D01*
X107080390Y-87857540D01*
X106893611Y-87965376D01*
X106733334Y-88109691D01*
X106606564Y-88284175D01*
X106518842Y-88481202D01*
X106474000Y-88692163D01*
X106306171Y-88692163D01*
X106324022Y-88637386D01*
X106326295Y-88377016D01*
X106253321Y-88139069D01*
X106113890Y-87933519D01*
X105920184Y-87778053D01*
X105689327Y-87686417D01*
X105441731Y-87666712D01*
X105199287Y-87720684D01*
X104983430Y-87843556D01*
X104813245Y-88024469D01*
X104703779Y-88247424D01*
X104664710Y-88492710D01*
X104083605Y-88492710D01*
X104082488Y-88487458D01*
X104142956Y-88464669D01*
X104339347Y-88312607D01*
X104482343Y-88109520D01*
X104559458Y-87872884D01*
X104561731Y-87612514D01*
X104488757Y-87374567D01*
X104349326Y-87169017D01*
X104155620Y-87013551D01*
X103924763Y-86921915D01*
X103677167Y-86902210D01*
X103434723Y-86956182D01*
X103218866Y-87079054D01*
X103048681Y-87259967D01*
X102939215Y-87482922D01*
X102900146Y-87728208D01*
X102908667Y-87788459D01*
X102885508Y-87790893D01*
X102680390Y-87857540D01*
X102493611Y-87965376D01*
X102333334Y-88109691D01*
X102206564Y-88284175D01*
X102118842Y-88481202D01*
X102074000Y-88692163D01*
X95426000Y-88692163D01*
X95381158Y-88481202D01*
X95293436Y-88284175D01*
X95166666Y-88109691D01*
X95006389Y-87965376D01*
X94819610Y-87857540D01*
X94614492Y-87790893D01*
X94400000Y-87768349D01*
X94185508Y-87790893D01*
X93980390Y-87857540D01*
X93793611Y-87965376D01*
X93633334Y-88109691D01*
X93506564Y-88284175D01*
X93418842Y-88481202D01*
X93374000Y-88692163D01*
X93324416Y-88692163D01*
X93326295Y-88477016D01*
X93253321Y-88239069D01*
X93113890Y-88033519D01*
X92920184Y-87878053D01*
X92689327Y-87786417D01*
X92441731Y-87766712D01*
X92199287Y-87820684D01*
X91983430Y-87943556D01*
X91813245Y-88124469D01*
X91703779Y-88347424D01*
X91664710Y-88592710D01*
X91004861Y-88592710D01*
X90981158Y-88481202D01*
X90893436Y-88284175D01*
X90886586Y-88274747D01*
X91007520Y-88229171D01*
X91203911Y-88077109D01*
X91346907Y-87874022D01*
X91424022Y-87637386D01*
X91426295Y-87377016D01*
X91353321Y-87139069D01*
X91213890Y-86933519D01*
X91092385Y-86836001D01*
X115562681Y-86836001D01*
X115645400Y-86843239D01*
X115725619Y-86821745D01*
X115807406Y-86807323D01*
X115831627Y-86793339D01*
X115858639Y-86786101D01*
X115926659Y-86738472D01*
X115998591Y-86696943D01*
X116051984Y-86633312D01*
X118023313Y-84661983D01*
X118086941Y-84608593D01*
X118128468Y-84536667D01*
X118160843Y-84490430D01*
X118320865Y-84440282D01*
X118520937Y-84329381D01*
X118694621Y-84180515D01*
X118834825Y-83999766D01*
X118935821Y-83794516D01*
X118993483Y-83573150D01*
X119005454Y-83344711D01*
X118971247Y-83118532D01*
X118892260Y-82903849D01*
X118771717Y-82709434D01*
X118616319Y-82545105D01*
X118807279Y-82422382D01*
X118973745Y-82230270D01*
X119079343Y-81999042D01*
X119114224Y-81756442D01*
X119114224Y-81528000D01*
X116085776Y-81528000D01*
X116085776Y-81760976D01*
X116162691Y-82114549D01*
X116302618Y-82332279D01*
X116494730Y-82498745D01*
X116593579Y-82543888D01*
X116505379Y-82619485D01*
X116365175Y-82800234D01*
X116264179Y-83005484D01*
X116206517Y-83226850D01*
X116194546Y-83455289D01*
X116228753Y-83681468D01*
X116307740Y-83896151D01*
X116428283Y-84090566D01*
X116585455Y-84256771D01*
X116628084Y-84286620D01*
X115330703Y-85584001D01*
X90129730Y-85584001D01*
X90010183Y-85488054D01*
X89779326Y-85396418D01*
X89531730Y-85376713D01*
X89289286Y-85430685D01*
X89073429Y-85553557D01*
X88903244Y-85734470D01*
X88793778Y-85957425D01*
X88754709Y-86202711D01*
X82328411Y-86202711D01*
X82599106Y-86020125D01*
X81170000Y-84591019D01*
X79751326Y-86009693D01*
X69448674Y-86009693D01*
X67848981Y-84410000D01*
X68211019Y-84410000D01*
X69627322Y-85826303D01*
X69760658Y-85667396D01*
X69918811Y-85414299D01*
X70040200Y-85141653D01*
X70122464Y-84854767D01*
X70164000Y-84559224D01*
X70164000Y-84410000D01*
X79030789Y-84410000D01*
X79051608Y-84707721D01*
X79113658Y-84999646D01*
X79215734Y-85280095D01*
X79355846Y-85543609D01*
X79566052Y-85832929D01*
X80988981Y-84410000D01*
X81351019Y-84410000D01*
X82767322Y-85826303D01*
X82900658Y-85667396D01*
X83058811Y-85414299D01*
X83180200Y-85141653D01*
X83262464Y-84854767D01*
X83304000Y-84559224D01*
X83304000Y-84260776D01*
X83262464Y-83965233D01*
X83180200Y-83678347D01*
X83058811Y-83405701D01*
X82900658Y-83152604D01*
X82767322Y-82993697D01*
X81351019Y-84410000D01*
X80988981Y-84410000D01*
X79566052Y-82987071D01*
X79355846Y-83276391D01*
X79215734Y-83539905D01*
X79113658Y-83820354D01*
X79051608Y-84112279D01*
X79030789Y-84410000D01*
X70164000Y-84410000D01*
X70164000Y-84260776D01*
X70122464Y-83965233D01*
X70040200Y-83678347D01*
X69918811Y-83405701D01*
X69760658Y-83152604D01*
X69627322Y-82993697D01*
X68211019Y-84410000D01*
X67848981Y-84410000D01*
X66426052Y-82987071D01*
X66215846Y-83276391D01*
X66075734Y-83539905D01*
X65973658Y-83820354D01*
X65911608Y-84112279D01*
X65890789Y-84410000D01*
X65911608Y-84707721D01*
X65973658Y-84999646D01*
X66075734Y-85280095D01*
X66215846Y-85543609D01*
X66312255Y-85676304D01*
X66191731Y-85666712D01*
X65949287Y-85720684D01*
X65733430Y-85843556D01*
X65563245Y-86024469D01*
X65453779Y-86247424D01*
X65414710Y-86492710D01*
X64078006Y-86492710D01*
X60978006Y-83392710D01*
X63764710Y-83392710D01*
X63799492Y-83638642D01*
X63905051Y-83863474D01*
X64072052Y-84047328D01*
X64285732Y-84173950D01*
X64527197Y-84232143D01*
X64775099Y-84216764D01*
X65007520Y-84129171D01*
X65203911Y-83977109D01*
X65346907Y-83774022D01*
X65424023Y-83537386D01*
X65424693Y-83460603D01*
X66074989Y-82810307D01*
X66611326Y-82810307D01*
X68030000Y-84228981D01*
X69459106Y-82799875D01*
X69099606Y-82557389D01*
X68831363Y-82426559D01*
X68547522Y-82334333D01*
X68253609Y-82282508D01*
X67955343Y-82272092D01*
X67658530Y-82303289D01*
X67368948Y-82375489D01*
X67092231Y-82487290D01*
X66833768Y-82636514D01*
X66611326Y-82810307D01*
X66074989Y-82810307D01*
X67997706Y-80887590D01*
X69766164Y-80887590D01*
X69766164Y-82512410D01*
X69804520Y-82705235D01*
X69920775Y-82879225D01*
X70094765Y-82995480D01*
X70287590Y-83033836D01*
X71912410Y-83033836D01*
X72105235Y-82995480D01*
X72279225Y-82879225D01*
X72395480Y-82705235D01*
X72433836Y-82512410D01*
X72433836Y-82332253D01*
X72511832Y-82467619D01*
X72669941Y-82653067D01*
X72859198Y-82806598D01*
X73073263Y-82923068D01*
X73304970Y-82998577D01*
X73546558Y-83030598D01*
X73789935Y-83018056D01*
X74026952Y-82961372D01*
X74249668Y-82862444D01*
X74450629Y-82724587D01*
X74602047Y-82573433D01*
X74669941Y-82653067D01*
X74859198Y-82806598D01*
X75073263Y-82923068D01*
X75304970Y-82998577D01*
X75546558Y-83030598D01*
X75789935Y-83018056D01*
X76026952Y-82961372D01*
X76249668Y-82862444D01*
X76317345Y-82816018D01*
X77165001Y-82816018D01*
X77491651Y-83004609D01*
X77727436Y-83090429D01*
X77974541Y-83134000D01*
X78225459Y-83134000D01*
X78472564Y-83090429D01*
X78708349Y-83004609D01*
X79034999Y-82816018D01*
X79029288Y-82810307D01*
X79751326Y-82810307D01*
X81170000Y-84228981D01*
X82599106Y-82799875D01*
X82239606Y-82557389D01*
X81971363Y-82426559D01*
X81687522Y-82334333D01*
X81393609Y-82282508D01*
X81095343Y-82272092D01*
X80798530Y-82303289D01*
X80508948Y-82375489D01*
X80232231Y-82487290D01*
X79973768Y-82636514D01*
X79751326Y-82810307D01*
X79029288Y-82810307D01*
X78100000Y-81881019D01*
X77165001Y-82816018D01*
X76317345Y-82816018D01*
X76450629Y-82724587D01*
X76623101Y-82552416D01*
X76761310Y-82351696D01*
X76788771Y-82290161D01*
X76795391Y-82308349D01*
X76983982Y-82634999D01*
X77918981Y-81700000D01*
X78281019Y-81700000D01*
X79216018Y-82634999D01*
X79404609Y-82308349D01*
X79490429Y-82072564D01*
X79534000Y-81825459D01*
X79534000Y-81574541D01*
X79490429Y-81327436D01*
X79404609Y-81091651D01*
X79216018Y-80765001D01*
X78281019Y-81700000D01*
X77918981Y-81700000D01*
X76994097Y-80775116D01*
X77025052Y-80760252D01*
X77107521Y-80729171D01*
X77136492Y-80706739D01*
X77169520Y-80690878D01*
X77222720Y-80641701D01*
X78100000Y-81518981D01*
X79034999Y-80583982D01*
X78708349Y-80395391D01*
X78472564Y-80309571D01*
X78225459Y-80266000D01*
X77974541Y-80266000D01*
X77727436Y-80309571D01*
X77491651Y-80395391D01*
X77392292Y-80452756D01*
X77396171Y-80446077D01*
X77446906Y-80374023D01*
X77458260Y-80339185D01*
X77476662Y-80307503D01*
X77496565Y-80221643D01*
X77524023Y-80137385D01*
X77524332Y-80101843D01*
X77532747Y-80065539D01*
X77525538Y-79963725D01*
X77526295Y-79877016D01*
X77517328Y-79847778D01*
X77515204Y-79817780D01*
X77481064Y-79729535D01*
X77453321Y-79639069D01*
X77436437Y-79614179D01*
X77425587Y-79586133D01*
X77367010Y-79511828D01*
X77313890Y-79433518D01*
X77290437Y-79414695D01*
X77271818Y-79391077D01*
X77193972Y-79337274D01*
X77120185Y-79278053D01*
X77092232Y-79266957D01*
X77063302Y-79246962D01*
X77011760Y-79235016D01*
X76889327Y-79186417D01*
X76756471Y-79175843D01*
X76748517Y-79174000D01*
X76733306Y-79174000D01*
X76641731Y-79166712D01*
X76608995Y-79174000D01*
X76033306Y-79174000D01*
X75941731Y-79166712D01*
X75908995Y-79174000D01*
X71449038Y-79174000D01*
X71373762Y-79165091D01*
X71264390Y-79185065D01*
X71154382Y-79201605D01*
X71142445Y-79207337D01*
X71124415Y-79210630D01*
X71087016Y-79233953D01*
X70930479Y-79309122D01*
X70855812Y-79378144D01*
X70850244Y-79381616D01*
X70828114Y-79403747D01*
X70748090Y-79477721D01*
X70739705Y-79492156D01*
X70550609Y-79681252D01*
X70491078Y-79728183D01*
X70427854Y-79819659D01*
X70361772Y-79909127D01*
X70357384Y-79921620D01*
X70346964Y-79936698D01*
X70337013Y-79979628D01*
X70279475Y-80143477D01*
X70275483Y-80245084D01*
X70274001Y-80251475D01*
X70274001Y-80282790D01*
X70270592Y-80369545D01*
X70094765Y-80404520D01*
X69920775Y-80520775D01*
X69804520Y-80694765D01*
X69766164Y-80887590D01*
X67997706Y-80887590D01*
X70959286Y-77926011D01*
X75852668Y-77926011D01*
X75872041Y-77947339D01*
X76085721Y-78073961D01*
X76327186Y-78132154D01*
X76575088Y-78116775D01*
X76807509Y-78029182D01*
X77003900Y-77877120D01*
X77146896Y-77674033D01*
X77224011Y-77437397D01*
X77225676Y-77246573D01*
X80348252Y-77246573D01*
X80370419Y-77457469D01*
X80437354Y-77658685D01*
X80545937Y-77840834D01*
X80691100Y-77995417D01*
X80866071Y-78115223D01*
X81062688Y-78194661D01*
X81271776Y-78230025D01*
X81483580Y-78219666D01*
X81688219Y-78164067D01*
X81876144Y-78065822D01*
X82038591Y-77929514D01*
X82167976Y-77761502D01*
X82258266Y-77569628D01*
X82305297Y-77362623D01*
X82306059Y-77144188D01*
X82260474Y-76936861D01*
X82171527Y-76744359D01*
X82043317Y-76575450D01*
X81881827Y-76438011D01*
X81694592Y-76338455D01*
X81490346Y-76281430D01*
X81278619Y-76269592D01*
X81069289Y-76303496D01*
X80872124Y-76381560D01*
X80696320Y-76500140D01*
X80550081Y-76653706D01*
X80440229Y-76835093D01*
X80371890Y-77035837D01*
X80348252Y-77246573D01*
X77225676Y-77246573D01*
X77226284Y-77177027D01*
X77153310Y-76939080D01*
X77013879Y-76733530D01*
X76820173Y-76578064D01*
X76589316Y-76486428D01*
X76341720Y-76466723D01*
X76099276Y-76520695D01*
X75883419Y-76643567D01*
X75854780Y-76674011D01*
X70727306Y-76674011D01*
X70644587Y-76666773D01*
X70564378Y-76688266D01*
X70482583Y-76702689D01*
X70458358Y-76716674D01*
X70431348Y-76723912D01*
X70363332Y-76771537D01*
X70291397Y-76813069D01*
X70238009Y-76876694D01*
X64547530Y-82567174D01*
X64541731Y-82566712D01*
X64299287Y-82620684D01*
X64083430Y-82743556D01*
X63913245Y-82924469D01*
X63803779Y-83147424D01*
X63764710Y-83392710D01*
X60978006Y-83392710D01*
X56726000Y-79140704D01*
X56726000Y-77196629D01*
X56772052Y-77247328D01*
X56985732Y-77373950D01*
X57227197Y-77432143D01*
X57475099Y-77416764D01*
X57707520Y-77329171D01*
X57903911Y-77177109D01*
X58046907Y-76974022D01*
X58124022Y-76737386D01*
X58126295Y-76477016D01*
X58053321Y-76239069D01*
X57913890Y-76033519D01*
X57720184Y-75878053D01*
X57489327Y-75786417D01*
X57361544Y-75776248D01*
X57326000Y-75740704D01*
X57326000Y-75645738D01*
X57446907Y-75474022D01*
X57524022Y-75237386D01*
X57526295Y-74977016D01*
X57453321Y-74739069D01*
X57313890Y-74533519D01*
X57120184Y-74378053D01*
X56899782Y-74290567D01*
X56853321Y-74139069D01*
X56713890Y-73933519D01*
X56520184Y-73778053D01*
X56289327Y-73686417D01*
X56041731Y-73666712D01*
X55799287Y-73720684D01*
X55583430Y-73843556D01*
X55413245Y-74024469D01*
X55303779Y-74247424D01*
X55264710Y-74492710D01*
X47539699Y-74492710D01*
X47574023Y-74387386D01*
X47574693Y-74310603D01*
X49617811Y-72267486D01*
X55528488Y-72267486D01*
X57934319Y-74673318D01*
X57987705Y-74736942D01*
X58059629Y-74778466D01*
X58127658Y-74826101D01*
X58154670Y-74833338D01*
X58178890Y-74847322D01*
X58260678Y-74861744D01*
X58340897Y-74883238D01*
X58423631Y-74876000D01*
X61858840Y-74876000D01*
X61813245Y-74924469D01*
X61703779Y-75147424D01*
X61664710Y-75392710D01*
X61699492Y-75638642D01*
X61805051Y-75863474D01*
X61972052Y-76047328D01*
X62185732Y-76173950D01*
X62427197Y-76232143D01*
X62675099Y-76216764D01*
X62907520Y-76129171D01*
X63103911Y-75977109D01*
X63246907Y-75774022D01*
X63324022Y-75537386D01*
X63326295Y-75277016D01*
X63253321Y-75039069D01*
X63142706Y-74876000D01*
X63990704Y-74876000D01*
X65288021Y-76173318D01*
X65341407Y-76236942D01*
X65413344Y-76278474D01*
X65481359Y-76326099D01*
X65508369Y-76333337D01*
X65532594Y-76347322D01*
X65614389Y-76361745D01*
X65694598Y-76383238D01*
X65777317Y-76376000D01*
X76902679Y-76376000D01*
X76922052Y-76397328D01*
X77135732Y-76523950D01*
X77377197Y-76582143D01*
X77625099Y-76566764D01*
X77857520Y-76479171D01*
X78053911Y-76327109D01*
X78196907Y-76124022D01*
X78274022Y-75887386D01*
X78276295Y-75627016D01*
X78203321Y-75389069D01*
X78063890Y-75183519D01*
X77870184Y-75028053D01*
X77639327Y-74936417D01*
X77391731Y-74916712D01*
X77149287Y-74970684D01*
X76933430Y-75093556D01*
X76904791Y-75124000D01*
X75192981Y-75124000D01*
X74250000Y-74181019D01*
X73307019Y-75124000D01*
X70761639Y-75124000D01*
X70783836Y-75012410D01*
X70783836Y-73982834D01*
X72610778Y-73982834D01*
X72629120Y-74245135D01*
X72689163Y-74501130D01*
X72789362Y-74744232D01*
X72993282Y-75075699D01*
X74068981Y-74000000D01*
X74431019Y-74000000D01*
X75493509Y-75062489D01*
X75618577Y-74902410D01*
X75745250Y-74671992D01*
X75833454Y-74424286D01*
X75866070Y-74246573D01*
X80348252Y-74246573D01*
X80370419Y-74457469D01*
X80437354Y-74658685D01*
X80545937Y-74840834D01*
X80691100Y-74995417D01*
X80866071Y-75115223D01*
X81062688Y-75194661D01*
X81271776Y-75230025D01*
X81316327Y-75227846D01*
X81339068Y-75388642D01*
X81444627Y-75613474D01*
X81611628Y-75797328D01*
X81825308Y-75923950D01*
X82066773Y-75982143D01*
X82314675Y-75966764D01*
X82547096Y-75879171D01*
X82743487Y-75727109D01*
X82886483Y-75524022D01*
X82963598Y-75287386D01*
X82965871Y-75027016D01*
X82892897Y-74789069D01*
X82753466Y-74583519D01*
X82559760Y-74428053D01*
X82328903Y-74336417D01*
X82305395Y-74334546D01*
X82306059Y-74144188D01*
X82260474Y-73936861D01*
X82171527Y-73744359D01*
X82043317Y-73575450D01*
X81881827Y-73438011D01*
X81694592Y-73338455D01*
X81490346Y-73281430D01*
X81278619Y-73269592D01*
X81069289Y-73303496D01*
X80872124Y-73381560D01*
X80696320Y-73500140D01*
X80550081Y-73653706D01*
X80440229Y-73835093D01*
X80371890Y-74035837D01*
X80348252Y-74246573D01*
X75866070Y-74246573D01*
X75881040Y-74165010D01*
X75884138Y-73869185D01*
X75841992Y-73608970D01*
X75758994Y-73359470D01*
X75637175Y-73126450D01*
X75494838Y-72936181D01*
X74431019Y-74000000D01*
X74068981Y-74000000D01*
X72996927Y-72927946D01*
X72805269Y-73225342D01*
X72700000Y-73466292D01*
X72634608Y-73720973D01*
X72610778Y-73982834D01*
X70783836Y-73982834D01*
X70783836Y-72987590D01*
X70761637Y-72875989D01*
X73307008Y-72875989D01*
X74250000Y-73818981D01*
X75192992Y-72875989D01*
X77172694Y-72875989D01*
X77255413Y-72883227D01*
X77335632Y-72861733D01*
X77417419Y-72847311D01*
X77441640Y-72833327D01*
X77468652Y-72826089D01*
X77536672Y-72778461D01*
X77542724Y-72774967D01*
X77675110Y-72766754D01*
X77907531Y-72679161D01*
X78103922Y-72527099D01*
X78246918Y-72324012D01*
X78324033Y-72087376D01*
X78326306Y-71827006D01*
X78253332Y-71589059D01*
X78113901Y-71383509D01*
X77920195Y-71228043D01*
X77689338Y-71136407D01*
X77441742Y-71116702D01*
X77199298Y-71170674D01*
X76983441Y-71293546D01*
X76813256Y-71474459D01*
X76739840Y-71623989D01*
X58025012Y-71623989D01*
X58026295Y-71477016D01*
X57953321Y-71239069D01*
X57813890Y-71033519D01*
X57620184Y-70878053D01*
X57389327Y-70786417D01*
X57141731Y-70766712D01*
X56899287Y-70820684D01*
X56683430Y-70943556D01*
X56614318Y-71017024D01*
X56415457Y-70818163D01*
X56362066Y-70754533D01*
X56290133Y-70713003D01*
X56222113Y-70665375D01*
X56195101Y-70658137D01*
X56170880Y-70644153D01*
X56089093Y-70629731D01*
X56008874Y-70608237D01*
X55926140Y-70615475D01*
X48785842Y-70615475D01*
X48703123Y-70608237D01*
X48622914Y-70629730D01*
X48541119Y-70644153D01*
X48516894Y-70658138D01*
X48489884Y-70665376D01*
X48421868Y-70713001D01*
X48349933Y-70754533D01*
X48296545Y-70818158D01*
X47499916Y-71614787D01*
X47574023Y-71387386D01*
X47574693Y-71310603D01*
X49092586Y-69792710D01*
X80364710Y-69792710D01*
X80399492Y-70038642D01*
X80505051Y-70263474D01*
X80629687Y-70400687D01*
X80513245Y-70524469D01*
X80403779Y-70747424D01*
X80364710Y-70992710D01*
X80399492Y-71238642D01*
X80505051Y-71463474D01*
X80672052Y-71647328D01*
X80885732Y-71773950D01*
X81127197Y-71832143D01*
X81375099Y-71816764D01*
X81607520Y-71729171D01*
X81803911Y-71577109D01*
X81946907Y-71374022D01*
X82024022Y-71137386D01*
X82026295Y-70877016D01*
X81953321Y-70639069D01*
X81920176Y-70590205D01*
X83014712Y-70590205D01*
X83049494Y-70836137D01*
X83155053Y-71060969D01*
X83322054Y-71244823D01*
X83535734Y-71371445D01*
X83777198Y-71429638D01*
X83795701Y-71428490D01*
X84074001Y-71706790D01*
X84074000Y-77259883D01*
X84013244Y-77324469D01*
X83903779Y-77547424D01*
X83864710Y-77792710D01*
X83899492Y-78038642D01*
X84005051Y-78263474D01*
X84172052Y-78447328D01*
X84385732Y-78573950D01*
X84627197Y-78632143D01*
X84875099Y-78616764D01*
X85107520Y-78529171D01*
X85303911Y-78377109D01*
X85446907Y-78174022D01*
X85496371Y-78022237D01*
X85537431Y-78032133D01*
X85785333Y-78016754D01*
X86017754Y-77929161D01*
X86214145Y-77777099D01*
X86357141Y-77574012D01*
X86434256Y-77337376D01*
X86436529Y-77077006D01*
X86363555Y-76839059D01*
X86236234Y-76651362D01*
X86236234Y-75092710D01*
X87964710Y-75092710D01*
X87999492Y-75338642D01*
X88105051Y-75563474D01*
X88272052Y-75747328D01*
X88485732Y-75873950D01*
X88727197Y-75932143D01*
X88975099Y-75916764D01*
X89207520Y-75829171D01*
X89403911Y-75677109D01*
X89546907Y-75474022D01*
X89605993Y-75292710D01*
X92064710Y-75292710D01*
X92099492Y-75538642D01*
X92205051Y-75763474D01*
X92372052Y-75947328D01*
X92585732Y-76073950D01*
X92827197Y-76132143D01*
X93075099Y-76116764D01*
X93307520Y-76029171D01*
X93503911Y-75877109D01*
X93646907Y-75674022D01*
X93724022Y-75437386D01*
X93726295Y-75177016D01*
X93653321Y-74939069D01*
X93513890Y-74733519D01*
X93320184Y-74578053D01*
X93089327Y-74486417D01*
X92841731Y-74466712D01*
X92599287Y-74520684D01*
X92383430Y-74643556D01*
X92213245Y-74824469D01*
X92103779Y-75047424D01*
X92064710Y-75292710D01*
X89605993Y-75292710D01*
X89624022Y-75237386D01*
X89626295Y-74977016D01*
X89553321Y-74739069D01*
X89413890Y-74533519D01*
X89220184Y-74378053D01*
X88989327Y-74286417D01*
X88741731Y-74266712D01*
X88499287Y-74320684D01*
X88283430Y-74443556D01*
X88113245Y-74624469D01*
X88003779Y-74847424D01*
X87964710Y-75092710D01*
X86236234Y-75092710D01*
X86236234Y-74192710D01*
X97314710Y-74192710D01*
X97349492Y-74438642D01*
X97455051Y-74663474D01*
X97622052Y-74847328D01*
X97835732Y-74973950D01*
X98077197Y-75032143D01*
X98325099Y-75016764D01*
X98557520Y-74929171D01*
X98753911Y-74777109D01*
X98896907Y-74574022D01*
X98974022Y-74337386D01*
X98976295Y-74077016D01*
X98903321Y-73839069D01*
X98763890Y-73633519D01*
X98570184Y-73478053D01*
X98339327Y-73386417D01*
X98091731Y-73366712D01*
X97849287Y-73420684D01*
X97633430Y-73543556D01*
X97463245Y-73724469D01*
X97353779Y-73947424D01*
X97314710Y-74192710D01*
X86236234Y-74192710D01*
X86236234Y-71437554D01*
X86243472Y-71354836D01*
X86221978Y-71274616D01*
X86207556Y-71192828D01*
X86193572Y-71168608D01*
X86186335Y-71141596D01*
X86138700Y-71073567D01*
X86097176Y-71001643D01*
X86033556Y-70948260D01*
X85625741Y-70540446D01*
X85626295Y-70477018D01*
X85600440Y-70392710D01*
X86817495Y-70392710D01*
X86852277Y-70638642D01*
X86957836Y-70863474D01*
X87124837Y-71047328D01*
X87338517Y-71173950D01*
X87579982Y-71232143D01*
X87827884Y-71216764D01*
X88060305Y-71129171D01*
X88256696Y-70977109D01*
X88399692Y-70774022D01*
X88476807Y-70537386D01*
X88479080Y-70277016D01*
X88406106Y-70039069D01*
X88266675Y-69833519D01*
X88072969Y-69678053D01*
X87842112Y-69586417D01*
X87594516Y-69566712D01*
X87352072Y-69620684D01*
X87136215Y-69743556D01*
X86966030Y-69924469D01*
X86856564Y-70147424D01*
X86817495Y-70392710D01*
X85600440Y-70392710D01*
X85553321Y-70239071D01*
X85413890Y-70033521D01*
X85220184Y-69878055D01*
X84989327Y-69786419D01*
X84741731Y-69766714D01*
X84499287Y-69820686D01*
X84325258Y-69919748D01*
X84270186Y-69875548D01*
X84039329Y-69783912D01*
X83791733Y-69764207D01*
X83549289Y-69818179D01*
X83333432Y-69941051D01*
X83163247Y-70121964D01*
X83053781Y-70344919D01*
X83014712Y-70590205D01*
X81920176Y-70590205D01*
X81813890Y-70433519D01*
X81773217Y-70400875D01*
X81803911Y-70377109D01*
X81946907Y-70174022D01*
X82024022Y-69937386D01*
X82026295Y-69677016D01*
X81953321Y-69439069D01*
X81813890Y-69233519D01*
X81620184Y-69078053D01*
X81389327Y-68986417D01*
X81141731Y-68966712D01*
X80899287Y-69020684D01*
X80683430Y-69143556D01*
X80513245Y-69324469D01*
X80403779Y-69547424D01*
X80364710Y-69792710D01*
X49092586Y-69792710D01*
X49223312Y-69661984D01*
X49286940Y-69608594D01*
X49328467Y-69536668D01*
X49376100Y-69468641D01*
X49383337Y-69441629D01*
X49397321Y-69417409D01*
X49411743Y-69335621D01*
X49433237Y-69255402D01*
X49425999Y-69172668D01*
X49425999Y-68774963D01*
X49521610Y-68932526D01*
X49686669Y-69122739D01*
X49881416Y-69282422D01*
X50100284Y-69407009D01*
X50339831Y-69493960D01*
X50597000Y-69528047D01*
X50597000Y-68183000D01*
X50853000Y-68183000D01*
X50853000Y-69554978D01*
X51219708Y-69459800D01*
X51449329Y-69356363D01*
X51658240Y-69215716D01*
X51840466Y-69041881D01*
X51990797Y-68839828D01*
X52104936Y-68615334D01*
X52179618Y-68374819D01*
X52197128Y-68242710D01*
X68414710Y-68242710D01*
X68449492Y-68488642D01*
X68555051Y-68713474D01*
X68722052Y-68897328D01*
X68935732Y-69023950D01*
X69177197Y-69082143D01*
X69425099Y-69066764D01*
X69657520Y-68979171D01*
X69853911Y-68827109D01*
X69996907Y-68624022D01*
X70074022Y-68387386D01*
X70076295Y-68127016D01*
X70003321Y-67889069D01*
X69863890Y-67683519D01*
X69670184Y-67528053D01*
X69439327Y-67436417D01*
X69191731Y-67416712D01*
X68949287Y-67470684D01*
X68733430Y-67593556D01*
X68563245Y-67774469D01*
X68453779Y-67997424D01*
X68414710Y-68242710D01*
X52197128Y-68242710D01*
X52205043Y-68183000D01*
X50853000Y-68183000D01*
X50597000Y-68183000D01*
X50597000Y-67927000D01*
X52214487Y-67927000D01*
X52151544Y-67627017D01*
X52059039Y-67392778D01*
X51928390Y-67177474D01*
X51763331Y-66987261D01*
X51568584Y-66827578D01*
X51386646Y-66724013D01*
X51428267Y-66704161D01*
X51627735Y-66560829D01*
X51798669Y-66384439D01*
X51935663Y-66180568D01*
X52034392Y-65955660D01*
X52091732Y-65716822D01*
X52105871Y-65471605D01*
X52076362Y-65227759D01*
X52004139Y-64992993D01*
X51891483Y-64774727D01*
X51866916Y-64742710D01*
X53664710Y-64742710D01*
X53699492Y-64988642D01*
X53763695Y-65125390D01*
X53703779Y-65247424D01*
X53664710Y-65492710D01*
X53699492Y-65738642D01*
X53805051Y-65963474D01*
X53972052Y-66147328D01*
X54185732Y-66273950D01*
X54427197Y-66332143D01*
X54675099Y-66316764D01*
X54878575Y-66240080D01*
X54935732Y-66273950D01*
X55177197Y-66332143D01*
X55425099Y-66316764D01*
X55628575Y-66240080D01*
X55685732Y-66273950D01*
X55927197Y-66332143D01*
X56175099Y-66316764D01*
X56378575Y-66240080D01*
X56435732Y-66273950D01*
X56677197Y-66332143D01*
X56925099Y-66316764D01*
X57128575Y-66240080D01*
X57185732Y-66273950D01*
X57427197Y-66332143D01*
X57675099Y-66316764D01*
X57878575Y-66240080D01*
X57935732Y-66273950D01*
X58177197Y-66332143D01*
X58425099Y-66316764D01*
X58628575Y-66240080D01*
X58685732Y-66273950D01*
X58927197Y-66332143D01*
X59175099Y-66316764D01*
X59378575Y-66240080D01*
X59435732Y-66273950D01*
X59677197Y-66332143D01*
X59925099Y-66316764D01*
X60157520Y-66229171D01*
X60353911Y-66077109D01*
X60496907Y-65874022D01*
X60574022Y-65637386D01*
X60576295Y-65377016D01*
X60503321Y-65139069D01*
X60494975Y-65126766D01*
X60496907Y-65124022D01*
X60574022Y-64887386D01*
X60576295Y-64627016D01*
X60503321Y-64389069D01*
X60494975Y-64376766D01*
X60496907Y-64374022D01*
X60574022Y-64137386D01*
X60576295Y-63877016D01*
X60503321Y-63639069D01*
X60494975Y-63626766D01*
X60496907Y-63624022D01*
X60574022Y-63387386D01*
X60576295Y-63127016D01*
X60503321Y-62889069D01*
X60494975Y-62876766D01*
X60496907Y-62874022D01*
X60574022Y-62637386D01*
X60576295Y-62377016D01*
X60503321Y-62139069D01*
X60494975Y-62126766D01*
X60496907Y-62124022D01*
X60574022Y-61887386D01*
X60576295Y-61627016D01*
X60548035Y-61534868D01*
X80206155Y-61534868D01*
X80240937Y-61780800D01*
X80346496Y-62005632D01*
X80513497Y-62189486D01*
X80727177Y-62316108D01*
X80968641Y-62374301D01*
X80987144Y-62373153D01*
X90240997Y-71627008D01*
X90294383Y-71690632D01*
X90366320Y-71732164D01*
X90434335Y-71779789D01*
X90461345Y-71787027D01*
X90485570Y-71801012D01*
X90567365Y-71815435D01*
X90647574Y-71836928D01*
X90730309Y-71829690D01*
X100804144Y-71829690D01*
X102173293Y-73198839D01*
X102026179Y-73140444D01*
X101778583Y-73120739D01*
X101536139Y-73174711D01*
X101320282Y-73297583D01*
X101150097Y-73478496D01*
X101040631Y-73701451D01*
X101001562Y-73946737D01*
X101036344Y-74192669D01*
X101141903Y-74417501D01*
X101308904Y-74601355D01*
X101377091Y-74641761D01*
X101302046Y-74794610D01*
X101262977Y-75039896D01*
X101297759Y-75285828D01*
X101403318Y-75510660D01*
X101570319Y-75694514D01*
X101783999Y-75821136D01*
X102025464Y-75879329D01*
X102273366Y-75863950D01*
X102505787Y-75776357D01*
X102702178Y-75624295D01*
X102795694Y-75491481D01*
X102799507Y-75518444D01*
X102905066Y-75743276D01*
X102944153Y-75786307D01*
X102925669Y-75823953D01*
X102886600Y-76069239D01*
X102921382Y-76315171D01*
X103026941Y-76540003D01*
X103193942Y-76723857D01*
X103407622Y-76850479D01*
X103649087Y-76908672D01*
X103896989Y-76893293D01*
X104129410Y-76805700D01*
X104242319Y-76718276D01*
X104386793Y-76862750D01*
X104440179Y-76926374D01*
X104512103Y-76967898D01*
X104580132Y-77015533D01*
X104607144Y-77022770D01*
X104631364Y-77036754D01*
X104713155Y-77051176D01*
X104793370Y-77072670D01*
X104876105Y-77065432D01*
X106097145Y-77065432D01*
X106116518Y-77086760D01*
X106134447Y-77097384D01*
X106070189Y-77228262D01*
X106031120Y-77473548D01*
X106065902Y-77719480D01*
X106171461Y-77944312D01*
X106338462Y-78128166D01*
X106552142Y-78254788D01*
X106793607Y-78312981D01*
X106941676Y-78303795D01*
X107072052Y-78447328D01*
X107285732Y-78573950D01*
X107527197Y-78632143D01*
X107775099Y-78616764D01*
X108007520Y-78529171D01*
X108203911Y-78377109D01*
X108346907Y-78174022D01*
X108359951Y-78133995D01*
X108372062Y-78147328D01*
X108585742Y-78273950D01*
X108827207Y-78332143D01*
X109075109Y-78316764D01*
X109307530Y-78229171D01*
X109503921Y-78077109D01*
X109646917Y-77874022D01*
X109724032Y-77637386D01*
X109726305Y-77377016D01*
X109653331Y-77139069D01*
X109513900Y-76933519D01*
X109320194Y-76778053D01*
X109200106Y-76730386D01*
X112066515Y-73863978D01*
X112124626Y-73927953D01*
X112338305Y-74054575D01*
X112579770Y-74112768D01*
X112827672Y-74097389D01*
X113060093Y-74009796D01*
X113256484Y-73857734D01*
X113399480Y-73654647D01*
X113476595Y-73418011D01*
X113478868Y-73157641D01*
X113405894Y-72919694D01*
X113266463Y-72714144D01*
X113238661Y-72691831D01*
X114574000Y-71356492D01*
X114574000Y-72661541D01*
X114574001Y-72661548D01*
X114574000Y-78557860D01*
X111657861Y-81474000D01*
X108758458Y-81474000D01*
X108875099Y-81466764D01*
X109107520Y-81379171D01*
X109303911Y-81227109D01*
X109446907Y-81024022D01*
X109524022Y-80787386D01*
X109525829Y-80580354D01*
X112952140Y-77154044D01*
X112985732Y-77173950D01*
X113227197Y-77232143D01*
X113475099Y-77216764D01*
X113707520Y-77129171D01*
X113903911Y-76977109D01*
X114046907Y-76774022D01*
X114124022Y-76537386D01*
X114126295Y-76277016D01*
X114053321Y-76039069D01*
X113913890Y-75833519D01*
X113720184Y-75678053D01*
X113499782Y-75590567D01*
X113453321Y-75439069D01*
X113313890Y-75233519D01*
X113120184Y-75078053D01*
X112889327Y-74986417D01*
X112641731Y-74966712D01*
X112399287Y-75020684D01*
X112183430Y-75143556D01*
X112013245Y-75324469D01*
X111903779Y-75547424D01*
X111864710Y-75792710D01*
X111899492Y-76038642D01*
X112005051Y-76263474D01*
X112036973Y-76298617D01*
X108483698Y-79851893D01*
X108399287Y-79870684D01*
X108372500Y-79885932D01*
X108348498Y-79850549D01*
X108154792Y-79695083D01*
X107923935Y-79603447D01*
X107676339Y-79583742D01*
X107433895Y-79637714D01*
X107218038Y-79760586D01*
X107047853Y-79941499D01*
X106938387Y-80164454D01*
X106899318Y-80409740D01*
X106934100Y-80655672D01*
X107039659Y-80880504D01*
X107206660Y-81064358D01*
X107420340Y-81190980D01*
X107661805Y-81249173D01*
X107909707Y-81233794D01*
X108062155Y-81176341D01*
X108172052Y-81297328D01*
X108385732Y-81423950D01*
X108593409Y-81474000D01*
X105399038Y-81474000D01*
X105323762Y-81465091D01*
X105214390Y-81485065D01*
X105104382Y-81501605D01*
X105092445Y-81507337D01*
X105074415Y-81510630D01*
X105037016Y-81533953D01*
X104880479Y-81609122D01*
X104805811Y-81678145D01*
X104800242Y-81681618D01*
X104778102Y-81703758D01*
X104698090Y-81777720D01*
X104689706Y-81792154D01*
X103914135Y-82567726D01*
X103924022Y-82537386D01*
X103926295Y-82277016D01*
X103853321Y-82039069D01*
X103713890Y-81833519D01*
X103520184Y-81678053D01*
X103289327Y-81586417D01*
X103041731Y-81566712D01*
X102799287Y-81620684D01*
X102583430Y-81743556D01*
X102413245Y-81924469D01*
X102303779Y-82147424D01*
X102264710Y-82392710D01*
X102299492Y-82638642D01*
X102405051Y-82863474D01*
X102572052Y-83047328D01*
X102785732Y-83173950D01*
X103027197Y-83232143D01*
X103264434Y-83217426D01*
X103107857Y-83374003D01*
X97512089Y-83374003D01*
X97524022Y-83337386D01*
X97526295Y-83077016D01*
X97453321Y-82839069D01*
X97313890Y-82633519D01*
X97120184Y-82478053D01*
X96896554Y-82389286D01*
X96825568Y-82157820D01*
X96686137Y-81952270D01*
X96492431Y-81796804D01*
X96261574Y-81705168D01*
X96013978Y-81685463D01*
X95771534Y-81739435D01*
X95555677Y-81862307D01*
X95385492Y-82043220D01*
X95276026Y-82266175D01*
X95236957Y-82511461D01*
X95271739Y-82757393D01*
X95377298Y-82982225D01*
X95544299Y-83166079D01*
X95757979Y-83292701D01*
X95883117Y-83322860D01*
X95890350Y-83374003D01*
X93642144Y-83374003D01*
X93326000Y-83057860D01*
X93326000Y-82665036D01*
X93334909Y-82589760D01*
X93314935Y-82480388D01*
X93298395Y-82370380D01*
X93292663Y-82358443D01*
X93289370Y-82340413D01*
X93266047Y-82303014D01*
X93190878Y-82146477D01*
X93121854Y-82071808D01*
X93118380Y-82066238D01*
X93096233Y-82044092D01*
X93022278Y-81964088D01*
X93007846Y-81955705D01*
X90502754Y-79450613D01*
X90455819Y-79391077D01*
X90364307Y-79327828D01*
X90316762Y-79292710D01*
X91464710Y-79292710D01*
X91499492Y-79538642D01*
X91605051Y-79763474D01*
X91772052Y-79947328D01*
X91985732Y-80073950D01*
X92227197Y-80132143D01*
X92475099Y-80116764D01*
X92707520Y-80029171D01*
X92903911Y-79877109D01*
X93046907Y-79674022D01*
X93124022Y-79437386D01*
X93126295Y-79177016D01*
X93053321Y-78939069D01*
X92913890Y-78733519D01*
X92720184Y-78578053D01*
X92631145Y-78542710D01*
X95914710Y-78542710D01*
X95949492Y-78788642D01*
X96055051Y-79013474D01*
X96222052Y-79197328D01*
X96435732Y-79323950D01*
X96677197Y-79382143D01*
X96925099Y-79366764D01*
X97157520Y-79279171D01*
X97353911Y-79127109D01*
X97496907Y-78924022D01*
X97574022Y-78687386D01*
X97576295Y-78427016D01*
X97504438Y-78192710D01*
X98664710Y-78192710D01*
X98699492Y-78438642D01*
X98805051Y-78663474D01*
X98972052Y-78847328D01*
X99185732Y-78973950D01*
X99427197Y-79032143D01*
X99675099Y-79016764D01*
X99907520Y-78929171D01*
X100103911Y-78777109D01*
X100246907Y-78574022D01*
X100324022Y-78337386D01*
X100326295Y-78077016D01*
X100253321Y-77839069D01*
X100113890Y-77633519D01*
X99920184Y-77478053D01*
X99689327Y-77386417D01*
X99441731Y-77366712D01*
X99199287Y-77420684D01*
X98983430Y-77543556D01*
X98813245Y-77724469D01*
X98703779Y-77947424D01*
X98664710Y-78192710D01*
X97504438Y-78192710D01*
X97503321Y-78189069D01*
X97363890Y-77983519D01*
X97170184Y-77828053D01*
X96939327Y-77736417D01*
X96691731Y-77716712D01*
X96449287Y-77770684D01*
X96233430Y-77893556D01*
X96063245Y-78074469D01*
X95953779Y-78297424D01*
X95914710Y-78542710D01*
X92631145Y-78542710D01*
X92489327Y-78486417D01*
X92241731Y-78466712D01*
X91999287Y-78520684D01*
X91783430Y-78643556D01*
X91613245Y-78824469D01*
X91503779Y-79047424D01*
X91464710Y-79292710D01*
X90316762Y-79292710D01*
X90274875Y-79261772D01*
X90262385Y-79257386D01*
X90247302Y-79246961D01*
X90204361Y-79237010D01*
X90040525Y-79179475D01*
X89938920Y-79175483D01*
X89932524Y-79174000D01*
X89901187Y-79174000D01*
X89792340Y-79169723D01*
X89776209Y-79174000D01*
X86833306Y-79174000D01*
X86741731Y-79166712D01*
X86708995Y-79174000D01*
X86233306Y-79174000D01*
X86141731Y-79166712D01*
X86048676Y-79187428D01*
X85954381Y-79201605D01*
X85927926Y-79214309D01*
X85899287Y-79220684D01*
X85816431Y-79267848D01*
X85730480Y-79309122D01*
X85708934Y-79329038D01*
X85683430Y-79343556D01*
X85618100Y-79413003D01*
X85548090Y-79477721D01*
X85533352Y-79503094D01*
X85513244Y-79524469D01*
X85471231Y-79610043D01*
X85423338Y-79692496D01*
X85416712Y-79721084D01*
X85403779Y-79747425D01*
X85388784Y-79841568D01*
X85367253Y-79934460D01*
X85369325Y-79963734D01*
X85364710Y-79992711D01*
X85378062Y-80087114D01*
X85384796Y-80182219D01*
X85395383Y-80209587D01*
X85399493Y-80238643D01*
X85440018Y-80324960D01*
X85474414Y-80413868D01*
X85492579Y-80436910D01*
X85505050Y-80463473D01*
X85569158Y-80534052D01*
X85628182Y-80608923D01*
X85652322Y-80625607D01*
X85672053Y-80647329D01*
X85754066Y-80695927D01*
X85836699Y-80753038D01*
X85859273Y-80758270D01*
X85885731Y-80773949D01*
X86127197Y-80832143D01*
X86226219Y-80826000D01*
X86701706Y-80826000D01*
X86727197Y-80832143D01*
X86826219Y-80826000D01*
X89541863Y-80826000D01*
X90223319Y-81507456D01*
X90113245Y-81624469D01*
X90003779Y-81847424D01*
X89964710Y-82092710D01*
X89999492Y-82338642D01*
X90055298Y-82457505D01*
X89866003Y-82442440D01*
X89623559Y-82496412D01*
X89407702Y-82619284D01*
X89237517Y-82800197D01*
X89128051Y-83023152D01*
X89088982Y-83268438D01*
X89123764Y-83514370D01*
X89229323Y-83739202D01*
X89396324Y-83923056D01*
X89610004Y-84049678D01*
X89851469Y-84107871D01*
X90099371Y-84092492D01*
X90331792Y-84004899D01*
X90404257Y-83948791D01*
X90505051Y-84163474D01*
X90672052Y-84347328D01*
X90885732Y-84473950D01*
X91127197Y-84532143D01*
X91375099Y-84516764D01*
X91607520Y-84429171D01*
X91705351Y-84353422D01*
X91753789Y-84454289D01*
X91805051Y-84563474D01*
X91807531Y-84566205D01*
X91809125Y-84569523D01*
X91890967Y-84658059D01*
X91972051Y-84747326D01*
X91975223Y-84749206D01*
X91977724Y-84751911D01*
X92081976Y-84812467D01*
X92185723Y-84873944D01*
X92189316Y-84874811D01*
X92192510Y-84876665D01*
X92309979Y-84903893D01*
X92427192Y-84932142D01*
X92430870Y-84931914D01*
X92434464Y-84932747D01*
X92554725Y-84924231D01*
X92675106Y-84916764D01*
X92678549Y-84915466D01*
X92682214Y-84915207D01*
X92794605Y-84871725D01*
X92810423Y-84865764D01*
X92819662Y-84872149D01*
X92909128Y-84938230D01*
X92921620Y-84942618D01*
X92936703Y-84953041D01*
X92979644Y-84962995D01*
X93143479Y-85020528D01*
X93245085Y-85024520D01*
X93251481Y-85026003D01*
X93282818Y-85026003D01*
X93391665Y-85030280D01*
X93407796Y-85026003D01*
X103400959Y-85026003D01*
X103476234Y-85034912D01*
X103585601Y-85014939D01*
X103695615Y-84998398D01*
X103707553Y-84992666D01*
X103725582Y-84989373D01*
X103762979Y-84966050D01*
X103919518Y-84890881D01*
X103994185Y-84821859D01*
X103999753Y-84818387D01*
X104021883Y-84796256D01*
X104101907Y-84722282D01*
X104110292Y-84707847D01*
X104146840Y-84671299D01*
X104203911Y-84627109D01*
X104234559Y-84583580D01*
X104247898Y-84570242D01*
X104540819Y-84277321D01*
X104549492Y-84338642D01*
X104655051Y-84563474D01*
X104822052Y-84747328D01*
X105035732Y-84873950D01*
X105277197Y-84932143D01*
X105525099Y-84916764D01*
X105613893Y-84883300D01*
X105672052Y-84947328D01*
X105885732Y-85073950D01*
X106127197Y-85132143D01*
X106375099Y-85116764D01*
X106607520Y-85029171D01*
X106803911Y-84877109D01*
X106946907Y-84674022D01*
X107005993Y-84492710D01*
X107614710Y-84492710D01*
X107649492Y-84738642D01*
X107755051Y-84963474D01*
X107922052Y-85147328D01*
X108135732Y-85273950D01*
X108377197Y-85332143D01*
X108625099Y-85316764D01*
X108857520Y-85229171D01*
X109053911Y-85077109D01*
X109196907Y-84874022D01*
X109274022Y-84637386D01*
X109276295Y-84377016D01*
X109203321Y-84139069D01*
X109063890Y-83933519D01*
X108870184Y-83778053D01*
X108639327Y-83686417D01*
X108391731Y-83666712D01*
X108149287Y-83720684D01*
X107933430Y-83843556D01*
X107763245Y-84024469D01*
X107653779Y-84247424D01*
X107614710Y-84492710D01*
X107005993Y-84492710D01*
X107024022Y-84437386D01*
X107026295Y-84177016D01*
X106953321Y-83939069D01*
X106813890Y-83733519D01*
X106620184Y-83578053D01*
X106389327Y-83486417D01*
X106141731Y-83466712D01*
X105937342Y-83512212D01*
X105770184Y-83378053D01*
X105539327Y-83286417D01*
X105532284Y-83285856D01*
X105692141Y-83126000D01*
X111950962Y-83126000D01*
X112026237Y-83134909D01*
X112135604Y-83114936D01*
X112245618Y-83098395D01*
X112257556Y-83092663D01*
X112275585Y-83089370D01*
X112312982Y-83066047D01*
X112469521Y-82990878D01*
X112544188Y-82921856D01*
X112549756Y-82918384D01*
X112571886Y-82896253D01*
X112651910Y-82822279D01*
X112660295Y-82807844D01*
X114424581Y-81043558D01*
X116085776Y-81043558D01*
X116085776Y-81272000D01*
X117472000Y-81272000D01*
X117472000Y-80160776D01*
X117728000Y-80160776D01*
X117728000Y-81272000D01*
X119114224Y-81272000D01*
X119114224Y-81039024D01*
X119037309Y-80685451D01*
X118897382Y-80467721D01*
X118705270Y-80301255D01*
X118474042Y-80195657D01*
X118231442Y-80160776D01*
X117728000Y-80160776D01*
X117472000Y-80160776D01*
X116964024Y-80160776D01*
X116610451Y-80237691D01*
X116392721Y-80377618D01*
X116226255Y-80569730D01*
X116120657Y-80800958D01*
X116085776Y-81043558D01*
X114424581Y-81043558D01*
X115949395Y-79518745D01*
X116008922Y-79471818D01*
X116072149Y-79380338D01*
X116138227Y-79290875D01*
X116142615Y-79278383D01*
X116153038Y-79263300D01*
X116162992Y-79220359D01*
X116220525Y-79056524D01*
X116224517Y-78954918D01*
X116226000Y-78948522D01*
X116226000Y-78917185D01*
X116230277Y-78808338D01*
X116226000Y-78792207D01*
X116226000Y-76763265D01*
X116228753Y-76781468D01*
X116307740Y-76996151D01*
X116428283Y-77190566D01*
X116585455Y-77356771D01*
X116772837Y-77487978D01*
X116985844Y-77580153D01*
X117281993Y-77626000D01*
X117932153Y-77626000D01*
X118102581Y-77608689D01*
X118320865Y-77540282D01*
X118520937Y-77429381D01*
X118694621Y-77280515D01*
X118834825Y-77099766D01*
X118935821Y-76894516D01*
X118993483Y-76673150D01*
X119005454Y-76444711D01*
X118971247Y-76218532D01*
X118892260Y-76003849D01*
X118771717Y-75809434D01*
X118614545Y-75643229D01*
X118427163Y-75512022D01*
X118396099Y-75498580D01*
X118520937Y-75429381D01*
X118694621Y-75280515D01*
X118834825Y-75099766D01*
X118935821Y-74894516D01*
X118993483Y-74673150D01*
X119005454Y-74444711D01*
X118971247Y-74218532D01*
X118892260Y-74003849D01*
X118771717Y-73809434D01*
X118614545Y-73643229D01*
X118502583Y-73564832D01*
X118544688Y-73543146D01*
X118729860Y-73397692D01*
X118884186Y-73219846D01*
X119002099Y-73016027D01*
X119079344Y-72793585D01*
X119103346Y-72628000D01*
X117472000Y-72628000D01*
X117472000Y-72372000D01*
X119113489Y-72372000D01*
X119047075Y-72096422D01*
X118949615Y-71882069D01*
X118813380Y-71690012D01*
X118643285Y-71527182D01*
X118505269Y-71438066D01*
X118520937Y-71429381D01*
X118694621Y-71280515D01*
X118834825Y-71099766D01*
X118935821Y-70894516D01*
X118993483Y-70673150D01*
X119005454Y-70444711D01*
X118971247Y-70218532D01*
X118892260Y-70003849D01*
X118771717Y-69809434D01*
X118614545Y-69643229D01*
X118427163Y-69512022D01*
X118396099Y-69498580D01*
X118520937Y-69429381D01*
X118694621Y-69280515D01*
X118834825Y-69099766D01*
X118935821Y-68894516D01*
X118993483Y-68673150D01*
X119005454Y-68444711D01*
X118971247Y-68218532D01*
X118892260Y-68003849D01*
X118771717Y-67809434D01*
X118614545Y-67643229D01*
X118515497Y-67573875D01*
X118711469Y-67460731D01*
X118870580Y-67289250D01*
X118972076Y-67078491D01*
X119005518Y-66856619D01*
X119005518Y-66141007D01*
X118953901Y-65868209D01*
X118835731Y-65663531D01*
X118664250Y-65504420D01*
X118453491Y-65402924D01*
X118231619Y-65369482D01*
X116966007Y-65369482D01*
X116693209Y-65421099D01*
X116488531Y-65539269D01*
X116329420Y-65710750D01*
X116227924Y-65921509D01*
X116194482Y-66143381D01*
X116194482Y-66858993D01*
X116246099Y-67131791D01*
X116364269Y-67336469D01*
X116535750Y-67495580D01*
X116684878Y-67567396D01*
X116679063Y-67570619D01*
X116505379Y-67719485D01*
X116365175Y-67900234D01*
X116264179Y-68105484D01*
X116206517Y-68326850D01*
X116194546Y-68555289D01*
X116228753Y-68781468D01*
X116307740Y-68996151D01*
X116428283Y-69190566D01*
X116585455Y-69356771D01*
X116772837Y-69487978D01*
X116803901Y-69501420D01*
X116679063Y-69570619D01*
X116505379Y-69719485D01*
X116365175Y-69900234D01*
X116264179Y-70105484D01*
X116226000Y-70252054D01*
X116226000Y-68899038D01*
X116234909Y-68823762D01*
X116214935Y-68714390D01*
X116198395Y-68604382D01*
X116192663Y-68592445D01*
X116189370Y-68574415D01*
X116166047Y-68537016D01*
X116090878Y-68380479D01*
X116021855Y-68305811D01*
X116018382Y-68300242D01*
X115996242Y-68278102D01*
X115922280Y-68198090D01*
X115907846Y-68189706D01*
X114376000Y-66657861D01*
X114376000Y-65949038D01*
X114384909Y-65873762D01*
X114364935Y-65764390D01*
X114348395Y-65654382D01*
X114342663Y-65642445D01*
X114339370Y-65624415D01*
X114316047Y-65587016D01*
X114240878Y-65430479D01*
X114171855Y-65355811D01*
X114168382Y-65350242D01*
X114146242Y-65328102D01*
X114072280Y-65248090D01*
X114057846Y-65239706D01*
X110010850Y-61192710D01*
X112464710Y-61192710D01*
X112499492Y-61438642D01*
X112605051Y-61663474D01*
X112772052Y-61847328D01*
X112985732Y-61973950D01*
X113227197Y-62032143D01*
X113475099Y-62016764D01*
X113707520Y-61929171D01*
X113903911Y-61777109D01*
X114046907Y-61574022D01*
X114124022Y-61337386D01*
X114126295Y-61077016D01*
X114053321Y-60839069D01*
X113913890Y-60633519D01*
X113720184Y-60478053D01*
X113489327Y-60386417D01*
X113241731Y-60366712D01*
X112999287Y-60420684D01*
X112783430Y-60543556D01*
X112613245Y-60724469D01*
X112503779Y-60947424D01*
X112464710Y-61192710D01*
X110010850Y-61192710D01*
X108268752Y-59450613D01*
X108221817Y-59391077D01*
X108130305Y-59327828D01*
X108040873Y-59261772D01*
X108028383Y-59257386D01*
X108013300Y-59246961D01*
X107970359Y-59237010D01*
X107806523Y-59179475D01*
X107704918Y-59175483D01*
X107698522Y-59174000D01*
X107667185Y-59174000D01*
X107558338Y-59169723D01*
X107542207Y-59174000D01*
X103867141Y-59174000D01*
X103826000Y-59132860D01*
X103826000Y-57143644D01*
X103856771Y-57114545D01*
X103987978Y-56927163D01*
X104001421Y-56896098D01*
X104070619Y-57020937D01*
X104219485Y-57194621D01*
X104400234Y-57334825D01*
X104605484Y-57435821D01*
X104826850Y-57493483D01*
X105055288Y-57505454D01*
X105281467Y-57471247D01*
X105496150Y-57392260D01*
X105690566Y-57271717D01*
X105856771Y-57114545D01*
X105987978Y-56927163D01*
X106001421Y-56896098D01*
X106070619Y-57020937D01*
X106219485Y-57194621D01*
X106400234Y-57334825D01*
X106605484Y-57435821D01*
X106826850Y-57493483D01*
X107055288Y-57505454D01*
X107281467Y-57471247D01*
X107496150Y-57392260D01*
X107690566Y-57271717D01*
X107854895Y-57116319D01*
X107977618Y-57307279D01*
X108169730Y-57473745D01*
X108400958Y-57579343D01*
X108643558Y-57614224D01*
X108872000Y-57614224D01*
X108872000Y-56228000D01*
X109128000Y-56228000D01*
X109128000Y-57614224D01*
X109360976Y-57614224D01*
X109509930Y-57581821D01*
X113970148Y-57581821D01*
X114002924Y-57881103D01*
X114077543Y-58172781D01*
X114192516Y-58451037D01*
X114345548Y-58710316D01*
X114533586Y-58945445D01*
X114752878Y-59151734D01*
X114999049Y-59325068D01*
X115267187Y-59461986D01*
X115551941Y-59559756D01*
X115847631Y-59616430D01*
X116148357Y-59630875D01*
X116448117Y-59602803D01*
X116740932Y-59532774D01*
X117020958Y-59422187D01*
X117282608Y-59273247D01*
X117520663Y-59088925D01*
X117730371Y-58872900D01*
X117907550Y-58629482D01*
X118048662Y-58363529D01*
X118150894Y-58080344D01*
X118212610Y-57783632D01*
X118226511Y-57353292D01*
X118184070Y-57053214D01*
X118100326Y-56764023D01*
X117976670Y-56489517D01*
X117815570Y-56235173D01*
X117620239Y-56006065D01*
X117394575Y-55806766D01*
X117143082Y-55641251D01*
X116870775Y-55512823D01*
X116583090Y-55424045D01*
X116285766Y-55376687D01*
X115984735Y-55371695D01*
X115686004Y-55409169D01*
X115395534Y-55488360D01*
X115119120Y-55607689D01*
X114862276Y-55764775D01*
X114630128Y-55956483D01*
X114427310Y-56178988D01*
X114257865Y-56427852D01*
X114125175Y-56698107D01*
X114031889Y-56984361D01*
X113979867Y-57280906D01*
X113970148Y-57581821D01*
X109509930Y-57581821D01*
X109714549Y-57537309D01*
X109932279Y-57397382D01*
X110098745Y-57205270D01*
X110204343Y-56974042D01*
X110239224Y-56731442D01*
X110239224Y-56228000D01*
X109128000Y-56228000D01*
X108872000Y-56228000D01*
X108872000Y-54585776D01*
X109128000Y-54585776D01*
X109128000Y-55972000D01*
X110239224Y-55972000D01*
X110239224Y-55464024D01*
X110162309Y-55110451D01*
X110022382Y-54892721D01*
X109830270Y-54726255D01*
X109599042Y-54620657D01*
X109356442Y-54585776D01*
X109128000Y-54585776D01*
X108872000Y-54585776D01*
X108639024Y-54585776D01*
X108285451Y-54662691D01*
X108067721Y-54802618D01*
X107901255Y-54994730D01*
X107856112Y-55093579D01*
X107780515Y-55005379D01*
X107599766Y-54865175D01*
X107394516Y-54764179D01*
X107173150Y-54706517D01*
X106944712Y-54694546D01*
X106718533Y-54728753D01*
X106503850Y-54807740D01*
X106309435Y-54928283D01*
X106143230Y-55085455D01*
X106012023Y-55272837D01*
X105998580Y-55303902D01*
X105929381Y-55179063D01*
X105780515Y-55005379D01*
X105599766Y-54865175D01*
X105394516Y-54764179D01*
X105173150Y-54706517D01*
X104944712Y-54694546D01*
X104718533Y-54728753D01*
X104503850Y-54807740D01*
X104309435Y-54928283D01*
X104143230Y-55085455D01*
X104012023Y-55272837D01*
X103998580Y-55303902D01*
X103929381Y-55179063D01*
X103780515Y-55005379D01*
X103599766Y-54865175D01*
X103394516Y-54764179D01*
X103173150Y-54706517D01*
X102944712Y-54694546D01*
X102718533Y-54728753D01*
X102503850Y-54807740D01*
X102309435Y-54928283D01*
X102143230Y-55085455D01*
X102012023Y-55272837D01*
X101919847Y-55485844D01*
X101874000Y-55781993D01*
X101874000Y-56432152D01*
X101891311Y-56602580D01*
X101959718Y-56820864D01*
X102070619Y-57020937D01*
X102174000Y-57141554D01*
X102174000Y-58063014D01*
X102174001Y-58063020D01*
X102174000Y-59425961D01*
X102165091Y-59501237D01*
X102185065Y-59610609D01*
X102201605Y-59720617D01*
X102207337Y-59732554D01*
X102210630Y-59750584D01*
X102233954Y-59787983D01*
X102309122Y-59944519D01*
X102378148Y-60019192D01*
X102381620Y-60024760D01*
X102403753Y-60046892D01*
X102477721Y-60126910D01*
X102492153Y-60135293D01*
X102906255Y-60549396D01*
X102953183Y-60608923D01*
X103044680Y-60672161D01*
X103134125Y-60738227D01*
X103146617Y-60742615D01*
X103161700Y-60753038D01*
X103204641Y-60762992D01*
X103368476Y-60820525D01*
X103470082Y-60824517D01*
X103476478Y-60826000D01*
X103507815Y-60826000D01*
X103616662Y-60830277D01*
X103632793Y-60826000D01*
X107307861Y-60826000D01*
X111557988Y-65076128D01*
X111483453Y-65118556D01*
X111313268Y-65299469D01*
X111203802Y-65522424D01*
X111175516Y-65700011D01*
X111120138Y-65519440D01*
X110980707Y-65313890D01*
X110787001Y-65158424D01*
X110556144Y-65066788D01*
X110308548Y-65047083D01*
X110066104Y-65101055D01*
X109850247Y-65223927D01*
X109680062Y-65404840D01*
X109570596Y-65627795D01*
X109531527Y-65873081D01*
X109566309Y-66119013D01*
X109671868Y-66343845D01*
X109838869Y-66527699D01*
X110052549Y-66654321D01*
X110294014Y-66712514D01*
X110541916Y-66697135D01*
X110774337Y-66609542D01*
X110970728Y-66457480D01*
X111113724Y-66254393D01*
X111190839Y-66017757D01*
X111191377Y-65956103D01*
X111199515Y-66013642D01*
X111305074Y-66238474D01*
X111472075Y-66422328D01*
X111685755Y-66548950D01*
X111927220Y-66607143D01*
X112175122Y-66591764D01*
X112407543Y-66504171D01*
X112603934Y-66352109D01*
X112698981Y-66217121D01*
X112724001Y-66242141D01*
X112724000Y-66934387D01*
X112714710Y-66992712D01*
X112717078Y-67009452D01*
X112715091Y-67026235D01*
X112734423Y-67132092D01*
X112749493Y-67238645D01*
X112751057Y-67241976D01*
X112751604Y-67245615D01*
X112757337Y-67257554D01*
X112760630Y-67275584D01*
X112783953Y-67312982D01*
X112803767Y-67354245D01*
X112855050Y-67463473D01*
X112857530Y-67466204D01*
X112859124Y-67469522D01*
X112928148Y-67544193D01*
X112931620Y-67549760D01*
X112951336Y-67569475D01*
X113022048Y-67647324D01*
X113025221Y-67649204D01*
X113027724Y-67651912D01*
X113042156Y-67660295D01*
X114574001Y-69192141D01*
X114574001Y-69673260D01*
X114491731Y-69666712D01*
X114249287Y-69720684D01*
X114033430Y-69843556D01*
X113863245Y-70024469D01*
X113753779Y-70247424D01*
X113723713Y-70436187D01*
X111649681Y-72510219D01*
X111649675Y-72510223D01*
X110202239Y-73957660D01*
X110274022Y-73737386D01*
X110276295Y-73477016D01*
X110203321Y-73239069D01*
X110063890Y-73033519D01*
X109870184Y-72878053D01*
X109639327Y-72786417D01*
X109391731Y-72766712D01*
X109149287Y-72820684D01*
X108933430Y-72943556D01*
X108773248Y-73113835D01*
X108773248Y-72143599D01*
X108822052Y-72197328D01*
X109035732Y-72323950D01*
X109277197Y-72382143D01*
X109525099Y-72366764D01*
X109757520Y-72279171D01*
X109953911Y-72127109D01*
X110096907Y-71924022D01*
X110174022Y-71687386D01*
X110176295Y-71427016D01*
X110103321Y-71189069D01*
X109963890Y-70983519D01*
X109770184Y-70828053D01*
X109572579Y-70749616D01*
X109573553Y-70638049D01*
X109500579Y-70400102D01*
X109361148Y-70194552D01*
X109167442Y-70039086D01*
X108936585Y-69947450D01*
X108864064Y-69941678D01*
X108946907Y-69824022D01*
X109024022Y-69587386D01*
X109026295Y-69327016D01*
X108954441Y-69092720D01*
X112310014Y-69092720D01*
X112344796Y-69338652D01*
X112450355Y-69563484D01*
X112617356Y-69747338D01*
X112831036Y-69873960D01*
X113072501Y-69932153D01*
X113320403Y-69916774D01*
X113552824Y-69829181D01*
X113749215Y-69677119D01*
X113892211Y-69474032D01*
X113969326Y-69237396D01*
X113971599Y-68977026D01*
X113898625Y-68739079D01*
X113759194Y-68533529D01*
X113565488Y-68378063D01*
X113334631Y-68286427D01*
X113087035Y-68266722D01*
X112844591Y-68320694D01*
X112628734Y-68443566D01*
X112458549Y-68624479D01*
X112349083Y-68847434D01*
X112310014Y-69092720D01*
X108954441Y-69092720D01*
X108953321Y-69089069D01*
X108813890Y-68883519D01*
X108620184Y-68728053D01*
X108389327Y-68636417D01*
X108141731Y-68616712D01*
X107899287Y-68670684D01*
X107683430Y-68793556D01*
X107513245Y-68974469D01*
X107403779Y-69197424D01*
X107364710Y-69442710D01*
X107399492Y-69688642D01*
X107505051Y-69913474D01*
X107521249Y-69931307D01*
X107521248Y-75940702D01*
X107391992Y-76069958D01*
X107258356Y-75872951D01*
X107064650Y-75717485D01*
X106833793Y-75625849D01*
X106586197Y-75606144D01*
X106343753Y-75660116D01*
X106127896Y-75782988D01*
X106099257Y-75813432D01*
X105684881Y-75813432D01*
X105712539Y-75728559D01*
X105714812Y-75468189D01*
X105641838Y-75230242D01*
X105514517Y-75042545D01*
X105514517Y-74353836D01*
X105521755Y-74271117D01*
X105500262Y-74190908D01*
X105485839Y-74109113D01*
X105471854Y-74084888D01*
X105464616Y-74057878D01*
X105416991Y-73989863D01*
X105375459Y-73917926D01*
X105311835Y-73864540D01*
X102788294Y-71340999D01*
X102927178Y-71143751D01*
X103004293Y-70907115D01*
X103004652Y-70866000D01*
X103026058Y-70844594D01*
X103059027Y-70823306D01*
X103102535Y-70768117D01*
X103113372Y-70757281D01*
X103135608Y-70726165D01*
X103196690Y-70648682D01*
X103199894Y-70636204D01*
X103207534Y-70625513D01*
X103269631Y-70417875D01*
X103265844Y-70321482D01*
X103265844Y-69910232D01*
X103361751Y-69774022D01*
X103438866Y-69537386D01*
X103441139Y-69277016D01*
X103431875Y-69246806D01*
X104712070Y-69246806D01*
X104746852Y-69492738D01*
X104852411Y-69717570D01*
X104931695Y-69804855D01*
X104913244Y-69824469D01*
X104803779Y-70047424D01*
X104764710Y-70292710D01*
X104799492Y-70538642D01*
X104905051Y-70763474D01*
X105072052Y-70947328D01*
X105285732Y-71073950D01*
X105527197Y-71132143D01*
X105775099Y-71116764D01*
X106007520Y-71029171D01*
X106203911Y-70877109D01*
X106346907Y-70674022D01*
X106424022Y-70437386D01*
X106426295Y-70177016D01*
X106353321Y-69939069D01*
X106216914Y-69737977D01*
X106294267Y-69628118D01*
X106371382Y-69391482D01*
X106373655Y-69131112D01*
X106300681Y-68893165D01*
X106161250Y-68687615D01*
X105967544Y-68532149D01*
X105736687Y-68440513D01*
X105489091Y-68420808D01*
X105246647Y-68474780D01*
X105030790Y-68597652D01*
X104860605Y-68778565D01*
X104751139Y-69001520D01*
X104712070Y-69246806D01*
X103431875Y-69246806D01*
X103368165Y-69039069D01*
X103228734Y-68833519D01*
X103035028Y-68678053D01*
X102804171Y-68586417D01*
X102556575Y-68566712D01*
X102314131Y-68620684D01*
X102098274Y-68743556D01*
X101928089Y-68924469D01*
X101818623Y-69147424D01*
X101779554Y-69392710D01*
X101814336Y-69638642D01*
X101919895Y-69863474D01*
X101963844Y-69911859D01*
X101963845Y-69971649D01*
X101879557Y-69990413D01*
X101663701Y-70113285D01*
X101613716Y-70166421D01*
X97340005Y-65892710D01*
X100664710Y-65892710D01*
X100699492Y-66138642D01*
X100805051Y-66363474D01*
X100972052Y-66547328D01*
X101185732Y-66673950D01*
X101427197Y-66732143D01*
X101675099Y-66716764D01*
X101907520Y-66629171D01*
X102103911Y-66477109D01*
X102246907Y-66274022D01*
X102324022Y-66037386D01*
X102326295Y-65777016D01*
X102253321Y-65539069D01*
X102113890Y-65333519D01*
X101920184Y-65178053D01*
X101689327Y-65086417D01*
X101441731Y-65066712D01*
X101199287Y-65120684D01*
X100983430Y-65243556D01*
X100813245Y-65424469D01*
X100703779Y-65647424D01*
X100664710Y-65892710D01*
X97340005Y-65892710D01*
X95640005Y-64192710D01*
X105564710Y-64192710D01*
X105599492Y-64438642D01*
X105705051Y-64663474D01*
X105872052Y-64847328D01*
X106085732Y-64973950D01*
X106327197Y-65032143D01*
X106575099Y-65016764D01*
X106807520Y-64929171D01*
X107003911Y-64777109D01*
X107146907Y-64574022D01*
X107224022Y-64337386D01*
X107226295Y-64077016D01*
X107153321Y-63839069D01*
X107013890Y-63633519D01*
X106820184Y-63478053D01*
X106589327Y-63386417D01*
X106341731Y-63366712D01*
X106099287Y-63420684D01*
X105883430Y-63543556D01*
X105713245Y-63724469D01*
X105603779Y-63947424D01*
X105564710Y-64192710D01*
X95640005Y-64192710D01*
X90523982Y-59076688D01*
X90470591Y-59013058D01*
X90398658Y-58971528D01*
X90330638Y-58923900D01*
X90303626Y-58916662D01*
X90279405Y-58902678D01*
X90197618Y-58888256D01*
X90117399Y-58866762D01*
X90034665Y-58874000D01*
X83978774Y-58874000D01*
X84103911Y-58777109D01*
X84246907Y-58574022D01*
X84324022Y-58337386D01*
X84324412Y-58292710D01*
X97464710Y-58292710D01*
X97499492Y-58538642D01*
X97605051Y-58763474D01*
X97772052Y-58947328D01*
X97985732Y-59073950D01*
X98227197Y-59132143D01*
X98475099Y-59116764D01*
X98707520Y-59029171D01*
X98903911Y-58877109D01*
X99046907Y-58674022D01*
X99124022Y-58437386D01*
X99126295Y-58177016D01*
X99053321Y-57939069D01*
X98913890Y-57733519D01*
X98720184Y-57578053D01*
X98489327Y-57486417D01*
X98241731Y-57466712D01*
X97999287Y-57520684D01*
X97783430Y-57643556D01*
X97613245Y-57824469D01*
X97503779Y-58047424D01*
X97464710Y-58292710D01*
X84324412Y-58292710D01*
X84326295Y-58077016D01*
X84253321Y-57839069D01*
X84113890Y-57633519D01*
X83920184Y-57478053D01*
X83689327Y-57386417D01*
X83441731Y-57366712D01*
X83199287Y-57420684D01*
X82983430Y-57543556D01*
X82813245Y-57724469D01*
X82703779Y-57947424D01*
X82664710Y-58192710D01*
X82699492Y-58438642D01*
X82805051Y-58663474D01*
X82972052Y-58847328D01*
X83017062Y-58874000D01*
X81739731Y-58874000D01*
X81620184Y-58778053D01*
X81389327Y-58686417D01*
X81141731Y-58666712D01*
X80899287Y-58720684D01*
X80683430Y-58843556D01*
X80513245Y-59024469D01*
X80403779Y-59247424D01*
X80364710Y-59492710D01*
X80399492Y-59738642D01*
X80505051Y-59963474D01*
X80672052Y-60147328D01*
X80885732Y-60273950D01*
X81127197Y-60332143D01*
X81375099Y-60316764D01*
X81607520Y-60229171D01*
X81740768Y-60126000D01*
X89802702Y-60126000D01*
X100254391Y-70577690D01*
X90962273Y-70577690D01*
X81867186Y-61482603D01*
X81867740Y-61419174D01*
X81794766Y-61181227D01*
X81655335Y-60975677D01*
X81461629Y-60820211D01*
X81230772Y-60728575D01*
X80983176Y-60708870D01*
X80740732Y-60762842D01*
X80524875Y-60885714D01*
X80354690Y-61066627D01*
X80245224Y-61289582D01*
X80206155Y-61534868D01*
X60548035Y-61534868D01*
X60503321Y-61389069D01*
X60494975Y-61376766D01*
X60496907Y-61374022D01*
X60574022Y-61137386D01*
X60576295Y-60877016D01*
X60503321Y-60639069D01*
X60494975Y-60626766D01*
X60496907Y-60624022D01*
X60574022Y-60387386D01*
X60574785Y-60299978D01*
X71848000Y-60299978D01*
X72214708Y-60204800D01*
X72444329Y-60101363D01*
X72653240Y-59960716D01*
X72835466Y-59786881D01*
X72985797Y-59584828D01*
X73050663Y-59457246D01*
X73093517Y-59540273D01*
X73243043Y-59735140D01*
X73424715Y-59900448D01*
X73632788Y-60030973D01*
X73864091Y-60123956D01*
X74216535Y-60176000D01*
X74322219Y-60176000D01*
X74504652Y-60159719D01*
X74741571Y-60094905D01*
X74963267Y-59989161D01*
X75162735Y-59845829D01*
X75333669Y-59669439D01*
X75416164Y-59546672D01*
X75416164Y-59662410D01*
X75454520Y-59855235D01*
X75570775Y-60029225D01*
X75744765Y-60145480D01*
X75937590Y-60183836D01*
X77662410Y-60183836D01*
X77855235Y-60145480D01*
X78029225Y-60029225D01*
X78145480Y-59855235D01*
X78183836Y-59662410D01*
X78183836Y-57937590D01*
X78145480Y-57744765D01*
X78029225Y-57570775D01*
X77855235Y-57454520D01*
X77662410Y-57416164D01*
X75937590Y-57416164D01*
X75744765Y-57454520D01*
X75570775Y-57570775D01*
X75454520Y-57744765D01*
X75416164Y-57937590D01*
X75416164Y-58046279D01*
X75276957Y-57864860D01*
X75095285Y-57699552D01*
X74887212Y-57569027D01*
X74655909Y-57476044D01*
X74303465Y-57424000D01*
X74197781Y-57424000D01*
X74015348Y-57440281D01*
X73778429Y-57505095D01*
X73556733Y-57610839D01*
X73357265Y-57754171D01*
X73186331Y-57930561D01*
X73050741Y-58132343D01*
X72923390Y-57922474D01*
X72758331Y-57732261D01*
X72563584Y-57572578D01*
X72344716Y-57447991D01*
X72105169Y-57361040D01*
X71848000Y-57326953D01*
X71848000Y-60299978D01*
X60574785Y-60299978D01*
X60576295Y-60127016D01*
X60503321Y-59889069D01*
X60494975Y-59876766D01*
X60496907Y-59874022D01*
X60574022Y-59637386D01*
X60576295Y-59377016D01*
X60503321Y-59139069D01*
X60494975Y-59126766D01*
X60496907Y-59124022D01*
X60560786Y-58928000D01*
X70230513Y-58928000D01*
X70293456Y-59227983D01*
X70385961Y-59462222D01*
X70516610Y-59677526D01*
X70681669Y-59867739D01*
X70876416Y-60027422D01*
X71095284Y-60152009D01*
X71334831Y-60238960D01*
X71592000Y-60273047D01*
X71592000Y-58928000D01*
X70230513Y-58928000D01*
X60560786Y-58928000D01*
X60574022Y-58887386D01*
X60575902Y-58672000D01*
X70239957Y-58672000D01*
X71592000Y-58672000D01*
X71592000Y-57300022D01*
X71225292Y-57395200D01*
X70995671Y-57498637D01*
X70786760Y-57639284D01*
X70604534Y-57813119D01*
X70454203Y-58015172D01*
X70340064Y-58239666D01*
X70265382Y-58480181D01*
X70239957Y-58672000D01*
X60575902Y-58672000D01*
X60576295Y-58627016D01*
X60503321Y-58389069D01*
X60363890Y-58183519D01*
X60170184Y-58028053D01*
X59939327Y-57936417D01*
X59691731Y-57916712D01*
X59449286Y-57970684D01*
X59377952Y-58011290D01*
X59189327Y-57936417D01*
X58941731Y-57916712D01*
X58699286Y-57970684D01*
X58627952Y-58011290D01*
X58439327Y-57936417D01*
X58191731Y-57916712D01*
X57949286Y-57970684D01*
X57877952Y-58011290D01*
X57689327Y-57936417D01*
X57441731Y-57916712D01*
X57199287Y-57970684D01*
X56983430Y-58093556D01*
X56813245Y-58274469D01*
X56703779Y-58497424D01*
X56664710Y-58742710D01*
X56699492Y-58988642D01*
X56763695Y-59125390D01*
X56703779Y-59247424D01*
X56664710Y-59492710D01*
X56699492Y-59738642D01*
X56763695Y-59875390D01*
X56703779Y-59997424D01*
X56664710Y-60242710D01*
X56699492Y-60488642D01*
X56763695Y-60625390D01*
X56703779Y-60747424D01*
X56664710Y-60992710D01*
X56699492Y-61238642D01*
X56763695Y-61375390D01*
X56703779Y-61497424D01*
X56664710Y-61742710D01*
X56699492Y-61988642D01*
X56763695Y-62125390D01*
X56703779Y-62247424D01*
X56664710Y-62492710D01*
X56699492Y-62738642D01*
X56763695Y-62875390D01*
X56703779Y-62997424D01*
X56664710Y-63242710D01*
X56699492Y-63488642D01*
X56763695Y-63625390D01*
X56703779Y-63747424D01*
X56676267Y-63920155D01*
X56449286Y-63970684D01*
X56377952Y-64011290D01*
X56189327Y-63936417D01*
X55941731Y-63916712D01*
X55699286Y-63970684D01*
X55627952Y-64011290D01*
X55439327Y-63936417D01*
X55191731Y-63916712D01*
X54949286Y-63970684D01*
X54877952Y-64011290D01*
X54689327Y-63936417D01*
X54441731Y-63916712D01*
X54199287Y-63970684D01*
X53983430Y-64093556D01*
X53813245Y-64274469D01*
X53703779Y-64497424D01*
X53664710Y-64742710D01*
X51866916Y-64742710D01*
X51741957Y-64579860D01*
X51560285Y-64414552D01*
X51471467Y-64358836D01*
X51587410Y-64358836D01*
X51780235Y-64320480D01*
X51954225Y-64204225D01*
X52070480Y-64030235D01*
X52108836Y-63837410D01*
X52108836Y-62112590D01*
X52070480Y-61919765D01*
X51954225Y-61745775D01*
X51780235Y-61629520D01*
X51587410Y-61591164D01*
X49862590Y-61591164D01*
X49669765Y-61629520D01*
X49495775Y-61745775D01*
X49379520Y-61919765D01*
X49341164Y-62112590D01*
X49341164Y-63356465D01*
X49328465Y-63338330D01*
X49286941Y-63266406D01*
X49223323Y-63213025D01*
X48561979Y-62551682D01*
X48508593Y-62488058D01*
X48436660Y-62446528D01*
X48433836Y-62444551D01*
X48433836Y-62112590D01*
X48395480Y-61919765D01*
X48279225Y-61745775D01*
X48105235Y-61629520D01*
X47912410Y-61591164D01*
X46187590Y-61591164D01*
X45994765Y-61629520D01*
X45820775Y-61745775D01*
X45704520Y-61919765D01*
X45666164Y-62112590D01*
X45666164Y-63837410D01*
X45704520Y-64030235D01*
X45820775Y-64204225D01*
X45994765Y-64320480D01*
X46187590Y-64358836D01*
X46300813Y-64358836D01*
X46147265Y-64469171D01*
X45976331Y-64645561D01*
X45839337Y-64849432D01*
X45740608Y-65074340D01*
X45683268Y-65313178D01*
X45669129Y-65558395D01*
X45698638Y-65802241D01*
X45770861Y-66037007D01*
X45883517Y-66255273D01*
X46033043Y-66450140D01*
X46214715Y-66615448D01*
X46389308Y-66724971D01*
X46325671Y-66753637D01*
X46116760Y-66894284D01*
X45934534Y-67068119D01*
X45784203Y-67270172D01*
X45670064Y-67494666D01*
X45595382Y-67735181D01*
X45569957Y-67927000D01*
X45526000Y-67927000D01*
X45526000Y-57581821D01*
X47170148Y-57581821D01*
X47202924Y-57881103D01*
X47277543Y-58172781D01*
X47392516Y-58451037D01*
X47545548Y-58710316D01*
X47733586Y-58945445D01*
X47952878Y-59151734D01*
X48199049Y-59325068D01*
X48467187Y-59461986D01*
X48751941Y-59559756D01*
X49047631Y-59616430D01*
X49348357Y-59630875D01*
X49648117Y-59602803D01*
X49940932Y-59532774D01*
X50220958Y-59422187D01*
X50482608Y-59273247D01*
X50720663Y-59088925D01*
X50930371Y-58872900D01*
X51107550Y-58629482D01*
X51248662Y-58363529D01*
X51350894Y-58080344D01*
X51412610Y-57783632D01*
X51426511Y-57353292D01*
X51384070Y-57053214D01*
X51300326Y-56764023D01*
X51226430Y-56599978D01*
X71848000Y-56599978D01*
X72214708Y-56504800D01*
X72444329Y-56401363D01*
X72653240Y-56260716D01*
X72835466Y-56086881D01*
X72985797Y-55884828D01*
X73050663Y-55757246D01*
X73093517Y-55840273D01*
X73243043Y-56035140D01*
X73424715Y-56200448D01*
X73632788Y-56330973D01*
X73864091Y-56423956D01*
X74216535Y-56476000D01*
X74322219Y-56476000D01*
X74504652Y-56459719D01*
X74741571Y-56394905D01*
X74963267Y-56289161D01*
X75162735Y-56145829D01*
X75333669Y-55969439D01*
X75416164Y-55846672D01*
X75416164Y-55962410D01*
X75454520Y-56155235D01*
X75570775Y-56329225D01*
X75744765Y-56445480D01*
X75937590Y-56483836D01*
X77662410Y-56483836D01*
X77855235Y-56445480D01*
X78029225Y-56329225D01*
X78145480Y-56155235D01*
X78183836Y-55962410D01*
X78183836Y-54237590D01*
X78145480Y-54044765D01*
X78029225Y-53870775D01*
X77855235Y-53754520D01*
X77662410Y-53716164D01*
X75937590Y-53716164D01*
X75744765Y-53754520D01*
X75570775Y-53870775D01*
X75454520Y-54044765D01*
X75416164Y-54237590D01*
X75416164Y-54346279D01*
X75276957Y-54164860D01*
X75095285Y-53999552D01*
X74887212Y-53869027D01*
X74655909Y-53776044D01*
X74303465Y-53724000D01*
X74197781Y-53724000D01*
X74015348Y-53740281D01*
X73778429Y-53805095D01*
X73556733Y-53910839D01*
X73357265Y-54054171D01*
X73186331Y-54230561D01*
X73050741Y-54432343D01*
X72923390Y-54222474D01*
X72758331Y-54032261D01*
X72563584Y-53872578D01*
X72344716Y-53747991D01*
X72105169Y-53661040D01*
X71848000Y-53626953D01*
X71848000Y-56599978D01*
X51226430Y-56599978D01*
X51176670Y-56489517D01*
X51015570Y-56235173D01*
X50820239Y-56006065D01*
X50594575Y-55806766D01*
X50343082Y-55641251D01*
X50070775Y-55512823D01*
X49783090Y-55424045D01*
X49485766Y-55376687D01*
X49184735Y-55371695D01*
X48886004Y-55409169D01*
X48595534Y-55488360D01*
X48319120Y-55607689D01*
X48062276Y-55764775D01*
X47830128Y-55956483D01*
X47627310Y-56178988D01*
X47457865Y-56427852D01*
X47325175Y-56698107D01*
X47231889Y-56984361D01*
X47179867Y-57280906D01*
X47170148Y-57581821D01*
X45526000Y-57581821D01*
X45526000Y-55228000D01*
X70230513Y-55228000D01*
X70293456Y-55527983D01*
X70385961Y-55762222D01*
X70516610Y-55977526D01*
X70681669Y-56167739D01*
X70876416Y-56327422D01*
X71095284Y-56452009D01*
X71334831Y-56538960D01*
X71592000Y-56573047D01*
X71592000Y-55228000D01*
X70230513Y-55228000D01*
X45526000Y-55228000D01*
X45526000Y-54972000D01*
X70239957Y-54972000D01*
X71592000Y-54972000D01*
X71592000Y-53600022D01*
X71225292Y-53695200D01*
X70995671Y-53798637D01*
X70786760Y-53939284D01*
X70604534Y-54113119D01*
X70454203Y-54315172D01*
X70340064Y-54539666D01*
X70265382Y-54780181D01*
X70239957Y-54972000D01*
X45526000Y-54972000D01*
X45526000Y-53526000D01*
X119474000Y-53526000D01*
X119474001Y-93474000D01*
M02*
