G04 #@! TF.GenerationSoftware,KiCad,Pcbnew,5.99.0-unknown-529461e~100~ubuntu18.04.1*
G04 #@! TF.CreationDate,2019-11-06T10:36:20+01:00*
G04 #@! TF.ProjectId,f9p_board,6639705f-626f-4617-9264-2e6b69636164,rev?*
G04 #@! TF.SameCoordinates,Original*
G04 #@! TF.FileFunction,Legend,Top*
G04 #@! TF.FilePolarity,Positive*
%FSLAX46Y46*%
G04 Gerber Fmt 4.6, Leading zero omitted, Abs format (unit mm)*
G04 Created by KiCad (PCBNEW 5.99.0-unknown-529461e~100~ubuntu18.04.1) date 2019-11-06 10:36:20*
%MOMM*%
%LPD*%
G04 APERTURE LIST*
%ADD10C,0.150000*%
%ADD11C,0.120000*%
%ADD12C,0.200000*%
%ADD13C,0.127000*%
%ADD14C,0.100000*%
G04 APERTURE END LIST*
D10*
X82485714Y-54500000D02*
X82390476Y-54452380D01*
X82247619Y-54452380D01*
X82104761Y-54500000D01*
X82009523Y-54595238D01*
X81961904Y-54690476D01*
X81914285Y-54880952D01*
X81914285Y-55023809D01*
X81961904Y-55214285D01*
X82009523Y-55309523D01*
X82104761Y-55404761D01*
X82247619Y-55452380D01*
X82342857Y-55452380D01*
X82485714Y-55404761D01*
X82533333Y-55357142D01*
X82533333Y-55023809D01*
X82342857Y-55023809D01*
X82961904Y-55452380D02*
X82961904Y-54452380D01*
X83533333Y-55452380D01*
X83533333Y-54452380D01*
X83961904Y-55404761D02*
X84104761Y-55452380D01*
X84342857Y-55452380D01*
X84438095Y-55404761D01*
X84485714Y-55357142D01*
X84533333Y-55261904D01*
X84533333Y-55166666D01*
X84485714Y-55071428D01*
X84438095Y-55023809D01*
X84342857Y-54976190D01*
X84152380Y-54928571D01*
X84057142Y-54880952D01*
X84009523Y-54833333D01*
X83961904Y-54738095D01*
X83961904Y-54642857D01*
X84009523Y-54547619D01*
X84057142Y-54500000D01*
X84152380Y-54452380D01*
X84390476Y-54452380D01*
X84533333Y-54500000D01*
X84914285Y-55404761D02*
X85057142Y-55452380D01*
X85295238Y-55452380D01*
X85390476Y-55404761D01*
X85438095Y-55357142D01*
X85485714Y-55261904D01*
X85485714Y-55166666D01*
X85438095Y-55071428D01*
X85390476Y-55023809D01*
X85295238Y-54976190D01*
X85104761Y-54928571D01*
X85009523Y-54880952D01*
X84961904Y-54833333D01*
X84914285Y-54738095D01*
X84914285Y-54642857D01*
X84961904Y-54547619D01*
X85009523Y-54500000D01*
X85104761Y-54452380D01*
X85342857Y-54452380D01*
X85485714Y-54500000D01*
X86652380Y-89961904D02*
X87461904Y-89961904D01*
X87557142Y-89914285D01*
X87604761Y-89866666D01*
X87652380Y-89771428D01*
X87652380Y-89580952D01*
X87604761Y-89485714D01*
X87557142Y-89438095D01*
X87461904Y-89390476D01*
X86652380Y-89390476D01*
X87128571Y-88580952D02*
X87176190Y-88438095D01*
X87223809Y-88390476D01*
X87319047Y-88342857D01*
X87461904Y-88342857D01*
X87557142Y-88390476D01*
X87604761Y-88438095D01*
X87652380Y-88533333D01*
X87652380Y-88914285D01*
X86652380Y-88914285D01*
X86652380Y-88580952D01*
X86700000Y-88485714D01*
X86747619Y-88438095D01*
X86842857Y-88390476D01*
X86938095Y-88390476D01*
X87033333Y-88438095D01*
X87080952Y-88485714D01*
X87128571Y-88580952D01*
X87128571Y-88914285D01*
X86652380Y-88009523D02*
X87652380Y-87342857D01*
X86652380Y-87342857D02*
X87652380Y-88009523D01*
X100804761Y-90038095D02*
X100852380Y-89895238D01*
X100852380Y-89657142D01*
X100804761Y-89561904D01*
X100757142Y-89514285D01*
X100661904Y-89466666D01*
X100566666Y-89466666D01*
X100471428Y-89514285D01*
X100423809Y-89561904D01*
X100376190Y-89657142D01*
X100328571Y-89847619D01*
X100280952Y-89942857D01*
X100233333Y-89990476D01*
X100138095Y-90038095D01*
X100042857Y-90038095D01*
X99947619Y-89990476D01*
X99900000Y-89942857D01*
X99852380Y-89847619D01*
X99852380Y-89609523D01*
X99900000Y-89466666D01*
X99852380Y-89180952D02*
X99852380Y-88609523D01*
X100852380Y-88895238D02*
X99852380Y-88895238D01*
X100852380Y-88276190D02*
X99852380Y-88276190D01*
X100566666Y-87942857D01*
X99852380Y-87609523D01*
X100852380Y-87609523D01*
X84216666Y-81900000D02*
X83516666Y-81900000D01*
X84216666Y-81500000D01*
X83516666Y-81500000D01*
X83516666Y-81033333D02*
X83516666Y-80900000D01*
X83550000Y-80833333D01*
X83616666Y-80766666D01*
X83750000Y-80733333D01*
X83983333Y-80733333D01*
X84116666Y-80766666D01*
X84183333Y-80833333D01*
X84216666Y-80900000D01*
X84216666Y-81033333D01*
X84183333Y-81100000D01*
X84116666Y-81166666D01*
X83983333Y-81200000D01*
X83750000Y-81200000D01*
X83616666Y-81166666D01*
X83550000Y-81100000D01*
X83516666Y-81033333D01*
X84216666Y-80033333D02*
X83883333Y-80266666D01*
X84216666Y-80433333D02*
X83516666Y-80433333D01*
X83516666Y-80166666D01*
X83550000Y-80100000D01*
X83583333Y-80066666D01*
X83650000Y-80033333D01*
X83750000Y-80033333D01*
X83816666Y-80066666D01*
X83850000Y-80100000D01*
X83883333Y-80166666D01*
X83883333Y-80433333D01*
X84216666Y-79733333D02*
X83516666Y-79733333D01*
X84016666Y-79500000D01*
X83516666Y-79266666D01*
X84216666Y-79266666D01*
X84016666Y-78966666D02*
X84016666Y-78633333D01*
X84216666Y-79033333D02*
X83516666Y-78800000D01*
X84216666Y-78566666D01*
X84216666Y-78000000D02*
X84216666Y-78333333D01*
X83516666Y-78333333D01*
X83586500Y-73183333D02*
X83619833Y-73083333D01*
X83653166Y-73050000D01*
X83719833Y-73016666D01*
X83819833Y-73016666D01*
X83886500Y-73050000D01*
X83919833Y-73083333D01*
X83953166Y-73150000D01*
X83953166Y-73416666D01*
X83253166Y-73416666D01*
X83253166Y-73183333D01*
X83286500Y-73116666D01*
X83319833Y-73083333D01*
X83386500Y-73050000D01*
X83453166Y-73050000D01*
X83519833Y-73083333D01*
X83553166Y-73116666D01*
X83586500Y-73183333D01*
X83586500Y-73416666D01*
X83253166Y-72583333D02*
X83253166Y-72450000D01*
X83286500Y-72383333D01*
X83353166Y-72316666D01*
X83486500Y-72283333D01*
X83719833Y-72283333D01*
X83853166Y-72316666D01*
X83919833Y-72383333D01*
X83953166Y-72450000D01*
X83953166Y-72583333D01*
X83919833Y-72650000D01*
X83853166Y-72716666D01*
X83719833Y-72750000D01*
X83486500Y-72750000D01*
X83353166Y-72716666D01*
X83286500Y-72650000D01*
X83253166Y-72583333D01*
X83253166Y-71850000D02*
X83253166Y-71716666D01*
X83286500Y-71650000D01*
X83353166Y-71583333D01*
X83486500Y-71550000D01*
X83719833Y-71550000D01*
X83853166Y-71583333D01*
X83919833Y-71650000D01*
X83953166Y-71716666D01*
X83953166Y-71850000D01*
X83919833Y-71916666D01*
X83853166Y-71983333D01*
X83719833Y-72016666D01*
X83486500Y-72016666D01*
X83353166Y-71983333D01*
X83286500Y-71916666D01*
X83253166Y-71850000D01*
X83253166Y-71350000D02*
X83253166Y-70950000D01*
X83953166Y-71150000D02*
X83253166Y-71150000D01*
X83686500Y-70716666D02*
X83686500Y-70183333D01*
X85080166Y-73266666D02*
X85080166Y-73600000D01*
X84380166Y-73600000D01*
X84380166Y-72900000D02*
X84380166Y-72766666D01*
X84413500Y-72700000D01*
X84480166Y-72633333D01*
X84613500Y-72600000D01*
X84846833Y-72600000D01*
X84980166Y-72633333D01*
X85046833Y-72700000D01*
X85080166Y-72766666D01*
X85080166Y-72900000D01*
X85046833Y-72966666D01*
X84980166Y-73033333D01*
X84846833Y-73066666D01*
X84613500Y-73066666D01*
X84480166Y-73033333D01*
X84413500Y-72966666D01*
X84380166Y-72900000D01*
X84880166Y-72333333D02*
X84880166Y-72000000D01*
X85080166Y-72400000D02*
X84380166Y-72166666D01*
X85080166Y-71933333D01*
X85080166Y-71700000D02*
X84380166Y-71700000D01*
X84380166Y-71533333D01*
X84413500Y-71433333D01*
X84480166Y-71366666D01*
X84546833Y-71333333D01*
X84680166Y-71300000D01*
X84780166Y-71300000D01*
X84913500Y-71333333D01*
X84980166Y-71366666D01*
X85046833Y-71433333D01*
X85080166Y-71533333D01*
X85080166Y-71700000D01*
X84713500Y-71000000D02*
X84713500Y-70766666D01*
X85080166Y-70666666D02*
X85080166Y-71000000D01*
X84380166Y-71000000D01*
X84380166Y-70666666D01*
X85080166Y-69966666D02*
X84746833Y-70200000D01*
X85080166Y-70366666D02*
X84380166Y-70366666D01*
X84380166Y-70100000D01*
X84413500Y-70033333D01*
X84446833Y-70000000D01*
X84513500Y-69966666D01*
X84613500Y-69966666D01*
X84680166Y-70000000D01*
X84713500Y-70033333D01*
X84746833Y-70100000D01*
X84746833Y-70366666D01*
D11*
X54250000Y-57700000D02*
X54250000Y-54700000D01*
X54250000Y-54700000D02*
X66850000Y-54700000D01*
X66850000Y-54700000D02*
X66850000Y-57700000D01*
X66850000Y-64300000D02*
X66850000Y-67300000D01*
X66850000Y-67300000D02*
X54250000Y-67300000D01*
X54250000Y-67300000D02*
X54250000Y-64300000D01*
X57640000Y-71800000D02*
X61690000Y-71800000D01*
X57640000Y-75800000D02*
X57640000Y-71800000D01*
X61690000Y-75800000D02*
X57640000Y-75800000D01*
X61690000Y-71800000D02*
X61690000Y-75800000D01*
X111360000Y-58210000D02*
X111360000Y-56960000D01*
X110110000Y-58210000D02*
X111360000Y-58210000D01*
X104000000Y-53800000D02*
X104000000Y-54300000D01*
X103900000Y-54300000D02*
X103900000Y-53800000D01*
X104100000Y-54300000D02*
X103900000Y-54300000D01*
X104100000Y-53800000D02*
X104100000Y-54300000D01*
X106000000Y-53800000D02*
X106000000Y-54300000D01*
X105900000Y-54300000D02*
X105900000Y-53800000D01*
X106100000Y-54300000D02*
X105900000Y-54300000D01*
X106100000Y-53800000D02*
X106100000Y-54300000D01*
X108000000Y-53800000D02*
X108000000Y-54300000D01*
X107900000Y-54300000D02*
X107900000Y-53800000D01*
X108100000Y-54300000D02*
X107900000Y-54300000D01*
X108100000Y-53800000D02*
X108100000Y-54300000D01*
X100940000Y-55300000D02*
X101550000Y-55300000D01*
X100940000Y-56600000D02*
X101550000Y-56600000D01*
X111060000Y-55300000D02*
X110450000Y-55300000D01*
X111060000Y-56600000D02*
X110450000Y-56600000D01*
X103500000Y-57300000D02*
X103500000Y-57910000D01*
X101550000Y-57300000D02*
X103500000Y-57300000D01*
X101550000Y-53800000D02*
X101550000Y-57300000D01*
X110450000Y-53800000D02*
X101550000Y-53800000D01*
X110450000Y-57300000D02*
X110450000Y-53800000D01*
X108500000Y-57300000D02*
X110450000Y-57300000D01*
X108500000Y-57910000D02*
X108500000Y-57300000D01*
X109300000Y-58010000D02*
X109600000Y-58010000D01*
X109600000Y-58110000D02*
X109600000Y-57910000D01*
X109300000Y-58110000D02*
X109600000Y-58110000D01*
X109300000Y-57910000D02*
X109300000Y-58110000D01*
X100940000Y-57910000D02*
X111060000Y-57910000D01*
X100940000Y-53190000D02*
X100940000Y-57910000D01*
X111060000Y-53190000D02*
X100940000Y-53190000D01*
X111060000Y-57910000D02*
X111060000Y-53190000D01*
X79880000Y-74350000D02*
X79880000Y-74150000D01*
X84020000Y-77150000D02*
X84230000Y-76950000D01*
X84020000Y-75850000D02*
X84230000Y-76050000D01*
X82730000Y-77150000D02*
X84020000Y-77150000D01*
X84230000Y-76950000D02*
X84230000Y-76050000D01*
X84020000Y-75850000D02*
X82730000Y-75850000D01*
X82730000Y-78600000D02*
X82730000Y-72900000D01*
X79880000Y-77350000D02*
X79880000Y-75650000D01*
X80930000Y-79200000D02*
X81720000Y-79200000D01*
X81720000Y-72300000D02*
X80930000Y-72300000D01*
X89337221Y-68240000D02*
X89662779Y-68240000D01*
X89337221Y-69260000D02*
X89662779Y-69260000D01*
X89337221Y-66690000D02*
X89662779Y-66690000D01*
X89337221Y-67710000D02*
X89662779Y-67710000D01*
X70390000Y-57470000D02*
X70390000Y-60130000D01*
X75530000Y-57470000D02*
X70390000Y-57470000D01*
X75530000Y-60130000D02*
X70390000Y-60130000D01*
X75530000Y-57470000D02*
X75530000Y-60130000D01*
X76800000Y-57470000D02*
X78130000Y-57470000D01*
X78130000Y-57470000D02*
X78130000Y-58800000D01*
X70390000Y-53770000D02*
X70390000Y-56430000D01*
X75530000Y-53770000D02*
X70390000Y-53770000D01*
X75530000Y-56430000D02*
X70390000Y-56430000D01*
X75530000Y-53770000D02*
X75530000Y-56430000D01*
X76800000Y-53770000D02*
X78130000Y-53770000D01*
X78130000Y-53770000D02*
X78130000Y-55100000D01*
X57897936Y-79190000D02*
X59102064Y-79190000D01*
X57897936Y-81010000D02*
X59102064Y-81010000D01*
X65500000Y-89480000D02*
X64840000Y-89480000D01*
X67160000Y-89480000D02*
X66500000Y-89480000D01*
X67160000Y-89480000D02*
X67160000Y-87450000D01*
X64840000Y-88070000D02*
X64840000Y-89480000D01*
X49395000Y-69385000D02*
X52055000Y-69385000D01*
X49395000Y-64245000D02*
X49395000Y-69385000D01*
X52055000Y-64245000D02*
X52055000Y-69385000D01*
X49395000Y-64245000D02*
X52055000Y-64245000D01*
X49395000Y-62975000D02*
X49395000Y-61645000D01*
X49395000Y-61645000D02*
X50725000Y-61645000D01*
X45720000Y-69385000D02*
X48380000Y-69385000D01*
X45720000Y-64245000D02*
X45720000Y-69385000D01*
X48380000Y-64245000D02*
X48380000Y-69385000D01*
X45720000Y-64245000D02*
X48380000Y-64245000D01*
X45720000Y-62975000D02*
X45720000Y-61645000D01*
X45720000Y-61645000D02*
X47050000Y-61645000D01*
X76870000Y-74000000D02*
G75*
G03X76870000Y-74000000I-5120000J0D01*
G01*
X71750000Y-68920000D02*
X71750000Y-79080000D01*
X71790000Y-68920000D02*
X71790000Y-79080000D01*
X71830000Y-68920000D02*
X71830000Y-79080000D01*
X71870000Y-68921000D02*
X71870000Y-79079000D01*
X71910000Y-68922000D02*
X71910000Y-79078000D01*
X71950000Y-68923000D02*
X71950000Y-79077000D01*
X71990000Y-68925000D02*
X71990000Y-79075000D01*
X72030000Y-68927000D02*
X72030000Y-79073000D01*
X72070000Y-68930000D02*
X72070000Y-79070000D01*
X72110000Y-68932000D02*
X72110000Y-79068000D01*
X72150000Y-68935000D02*
X72150000Y-79065000D01*
X72190000Y-68938000D02*
X72190000Y-79062000D01*
X72230000Y-68942000D02*
X72230000Y-79058000D01*
X72270000Y-68946000D02*
X72270000Y-79054000D01*
X72310000Y-68950000D02*
X72310000Y-79050000D01*
X72350000Y-68955000D02*
X72350000Y-79045000D01*
X72390000Y-68960000D02*
X72390000Y-79040000D01*
X72430000Y-68965000D02*
X72430000Y-79035000D01*
X72471000Y-68970000D02*
X72471000Y-79030000D01*
X72511000Y-68976000D02*
X72511000Y-79024000D01*
X72551000Y-68982000D02*
X72551000Y-79018000D01*
X72591000Y-68989000D02*
X72591000Y-79011000D01*
X72631000Y-68996000D02*
X72631000Y-79004000D01*
X72671000Y-69003000D02*
X72671000Y-78997000D01*
X72711000Y-69010000D02*
X72711000Y-78990000D01*
X72751000Y-69018000D02*
X72751000Y-78982000D01*
X72791000Y-69026000D02*
X72791000Y-78974000D01*
X72831000Y-69035000D02*
X72831000Y-78965000D01*
X72871000Y-69044000D02*
X72871000Y-78956000D01*
X72911000Y-69053000D02*
X72911000Y-78947000D01*
X72951000Y-69062000D02*
X72951000Y-78938000D01*
X72991000Y-69072000D02*
X72991000Y-78928000D01*
X73031000Y-69082000D02*
X73031000Y-72759000D01*
X73031000Y-75241000D02*
X73031000Y-78918000D01*
X73071000Y-69093000D02*
X73071000Y-72759000D01*
X73071000Y-75241000D02*
X73071000Y-78907000D01*
X73111000Y-69103000D02*
X73111000Y-72759000D01*
X73111000Y-75241000D02*
X73111000Y-78897000D01*
X73151000Y-69115000D02*
X73151000Y-72759000D01*
X73151000Y-75241000D02*
X73151000Y-78885000D01*
X73191000Y-69126000D02*
X73191000Y-72759000D01*
X73191000Y-75241000D02*
X73191000Y-78874000D01*
X73231000Y-69138000D02*
X73231000Y-72759000D01*
X73231000Y-75241000D02*
X73231000Y-78862000D01*
X73271000Y-69150000D02*
X73271000Y-72759000D01*
X73271000Y-75241000D02*
X73271000Y-78850000D01*
X73311000Y-69163000D02*
X73311000Y-72759000D01*
X73311000Y-75241000D02*
X73311000Y-78837000D01*
X73351000Y-69176000D02*
X73351000Y-72759000D01*
X73351000Y-75241000D02*
X73351000Y-78824000D01*
X73391000Y-69189000D02*
X73391000Y-72759000D01*
X73391000Y-75241000D02*
X73391000Y-78811000D01*
X73431000Y-69203000D02*
X73431000Y-72759000D01*
X73431000Y-75241000D02*
X73431000Y-78797000D01*
X73471000Y-69217000D02*
X73471000Y-72759000D01*
X73471000Y-75241000D02*
X73471000Y-78783000D01*
X73511000Y-69232000D02*
X73511000Y-72759000D01*
X73511000Y-75241000D02*
X73511000Y-78768000D01*
X73551000Y-69246000D02*
X73551000Y-72759000D01*
X73551000Y-75241000D02*
X73551000Y-78754000D01*
X73591000Y-69262000D02*
X73591000Y-72759000D01*
X73591000Y-75241000D02*
X73591000Y-78738000D01*
X73631000Y-69277000D02*
X73631000Y-72759000D01*
X73631000Y-75241000D02*
X73631000Y-78723000D01*
X73671000Y-69293000D02*
X73671000Y-72759000D01*
X73671000Y-75241000D02*
X73671000Y-78707000D01*
X73711000Y-69310000D02*
X73711000Y-72759000D01*
X73711000Y-75241000D02*
X73711000Y-78690000D01*
X73751000Y-69326000D02*
X73751000Y-72759000D01*
X73751000Y-75241000D02*
X73751000Y-78674000D01*
X73791000Y-69343000D02*
X73791000Y-72759000D01*
X73791000Y-75241000D02*
X73791000Y-78657000D01*
X73831000Y-69361000D02*
X73831000Y-72759000D01*
X73831000Y-75241000D02*
X73831000Y-78639000D01*
X73871000Y-69379000D02*
X73871000Y-72759000D01*
X73871000Y-75241000D02*
X73871000Y-78621000D01*
X73911000Y-69397000D02*
X73911000Y-72759000D01*
X73911000Y-75241000D02*
X73911000Y-78603000D01*
X73951000Y-69416000D02*
X73951000Y-72759000D01*
X73951000Y-75241000D02*
X73951000Y-78584000D01*
X73991000Y-69436000D02*
X73991000Y-72759000D01*
X73991000Y-75241000D02*
X73991000Y-78564000D01*
X74031000Y-69455000D02*
X74031000Y-72759000D01*
X74031000Y-75241000D02*
X74031000Y-78545000D01*
X74071000Y-69475000D02*
X74071000Y-72759000D01*
X74071000Y-75241000D02*
X74071000Y-78525000D01*
X74111000Y-69496000D02*
X74111000Y-72759000D01*
X74111000Y-75241000D02*
X74111000Y-78504000D01*
X74151000Y-69517000D02*
X74151000Y-72759000D01*
X74151000Y-75241000D02*
X74151000Y-78483000D01*
X74191000Y-69538000D02*
X74191000Y-72759000D01*
X74191000Y-75241000D02*
X74191000Y-78462000D01*
X74231000Y-69560000D02*
X74231000Y-72759000D01*
X74231000Y-75241000D02*
X74231000Y-78440000D01*
X74271000Y-69583000D02*
X74271000Y-72759000D01*
X74271000Y-75241000D02*
X74271000Y-78417000D01*
X74311000Y-69605000D02*
X74311000Y-72759000D01*
X74311000Y-75241000D02*
X74311000Y-78395000D01*
X74351000Y-69629000D02*
X74351000Y-72759000D01*
X74351000Y-75241000D02*
X74351000Y-78371000D01*
X74391000Y-69653000D02*
X74391000Y-72759000D01*
X74391000Y-75241000D02*
X74391000Y-78347000D01*
X74431000Y-69677000D02*
X74431000Y-72759000D01*
X74431000Y-75241000D02*
X74431000Y-78323000D01*
X74471000Y-69702000D02*
X74471000Y-72759000D01*
X74471000Y-75241000D02*
X74471000Y-78298000D01*
X74511000Y-69727000D02*
X74511000Y-72759000D01*
X74511000Y-75241000D02*
X74511000Y-78273000D01*
X74551000Y-69753000D02*
X74551000Y-72759000D01*
X74551000Y-75241000D02*
X74551000Y-78247000D01*
X74591000Y-69779000D02*
X74591000Y-72759000D01*
X74591000Y-75241000D02*
X74591000Y-78221000D01*
X74631000Y-69806000D02*
X74631000Y-72759000D01*
X74631000Y-75241000D02*
X74631000Y-78194000D01*
X74671000Y-69834000D02*
X74671000Y-72759000D01*
X74671000Y-75241000D02*
X74671000Y-78166000D01*
X74711000Y-69862000D02*
X74711000Y-72759000D01*
X74711000Y-75241000D02*
X74711000Y-78138000D01*
X74751000Y-69890000D02*
X74751000Y-72759000D01*
X74751000Y-75241000D02*
X74751000Y-78110000D01*
X74791000Y-69920000D02*
X74791000Y-72759000D01*
X74791000Y-75241000D02*
X74791000Y-78080000D01*
X74831000Y-69950000D02*
X74831000Y-72759000D01*
X74831000Y-75241000D02*
X74831000Y-78050000D01*
X74871000Y-69980000D02*
X74871000Y-72759000D01*
X74871000Y-75241000D02*
X74871000Y-78020000D01*
X74911000Y-70011000D02*
X74911000Y-72759000D01*
X74911000Y-75241000D02*
X74911000Y-77989000D01*
X74951000Y-70043000D02*
X74951000Y-72759000D01*
X74951000Y-75241000D02*
X74951000Y-77957000D01*
X74991000Y-70075000D02*
X74991000Y-72759000D01*
X74991000Y-75241000D02*
X74991000Y-77925000D01*
X75031000Y-70108000D02*
X75031000Y-72759000D01*
X75031000Y-75241000D02*
X75031000Y-77892000D01*
X75071000Y-70142000D02*
X75071000Y-72759000D01*
X75071000Y-75241000D02*
X75071000Y-77858000D01*
X75111000Y-70176000D02*
X75111000Y-72759000D01*
X75111000Y-75241000D02*
X75111000Y-77824000D01*
X75151000Y-70211000D02*
X75151000Y-72759000D01*
X75151000Y-75241000D02*
X75151000Y-77789000D01*
X75191000Y-70247000D02*
X75191000Y-72759000D01*
X75191000Y-75241000D02*
X75191000Y-77753000D01*
X75231000Y-70284000D02*
X75231000Y-72759000D01*
X75231000Y-75241000D02*
X75231000Y-77716000D01*
X75271000Y-70321000D02*
X75271000Y-72759000D01*
X75271000Y-75241000D02*
X75271000Y-77679000D01*
X75311000Y-70360000D02*
X75311000Y-72759000D01*
X75311000Y-75241000D02*
X75311000Y-77640000D01*
X75351000Y-70399000D02*
X75351000Y-72759000D01*
X75351000Y-75241000D02*
X75351000Y-77601000D01*
X75391000Y-70439000D02*
X75391000Y-72759000D01*
X75391000Y-75241000D02*
X75391000Y-77561000D01*
X75431000Y-70480000D02*
X75431000Y-72759000D01*
X75431000Y-75241000D02*
X75431000Y-77520000D01*
X75471000Y-70522000D02*
X75471000Y-72759000D01*
X75471000Y-75241000D02*
X75471000Y-77478000D01*
X75511000Y-70564000D02*
X75511000Y-77436000D01*
X75551000Y-70608000D02*
X75551000Y-77392000D01*
X75591000Y-70653000D02*
X75591000Y-77347000D01*
X75631000Y-70699000D02*
X75631000Y-77301000D01*
X75671000Y-70746000D02*
X75671000Y-77254000D01*
X75711000Y-70794000D02*
X75711000Y-77206000D01*
X75751000Y-70844000D02*
X75751000Y-77156000D01*
X75791000Y-70894000D02*
X75791000Y-77106000D01*
X75831000Y-70946000D02*
X75831000Y-77054000D01*
X75871000Y-71000000D02*
X75871000Y-77000000D01*
X75911000Y-71055000D02*
X75911000Y-76945000D01*
X75951000Y-71111000D02*
X75951000Y-76889000D01*
X75991000Y-71170000D02*
X75991000Y-76830000D01*
X76031000Y-71230000D02*
X76031000Y-76770000D01*
X76071000Y-71291000D02*
X76071000Y-76709000D01*
X76111000Y-71355000D02*
X76111000Y-76645000D01*
X76151000Y-71421000D02*
X76151000Y-76579000D01*
X76191000Y-71490000D02*
X76191000Y-76510000D01*
X76231000Y-71561000D02*
X76231000Y-76439000D01*
X76271000Y-71635000D02*
X76271000Y-76365000D01*
X76311000Y-71711000D02*
X76311000Y-76289000D01*
X76351000Y-71791000D02*
X76351000Y-76209000D01*
X76391000Y-71875000D02*
X76391000Y-76125000D01*
X76431000Y-71963000D02*
X76431000Y-76037000D01*
X76471000Y-72056000D02*
X76471000Y-75944000D01*
X76511000Y-72154000D02*
X76511000Y-75846000D01*
X76551000Y-72258000D02*
X76551000Y-75742000D01*
X76591000Y-72370000D02*
X76591000Y-75630000D01*
X76631000Y-72490000D02*
X76631000Y-75510000D01*
X76671000Y-72622000D02*
X76671000Y-75378000D01*
X76711000Y-72770000D02*
X76711000Y-75230000D01*
X76751000Y-72938000D02*
X76751000Y-75062000D01*
X76791000Y-73138000D02*
X76791000Y-74862000D01*
X76831000Y-73401000D02*
X76831000Y-74599000D01*
X66270354Y-71125000D02*
X67270354Y-71125000D01*
X66770354Y-70625000D02*
X66770354Y-71625000D01*
X55870000Y-79850000D02*
G75*
G03X55870000Y-79850000I-5120000J0D01*
G01*
X50750000Y-84930000D02*
X50750000Y-74770000D01*
X50710000Y-84930000D02*
X50710000Y-74770000D01*
X50670000Y-84930000D02*
X50670000Y-74770000D01*
X50630000Y-84929000D02*
X50630000Y-74771000D01*
X50590000Y-84928000D02*
X50590000Y-74772000D01*
X50550000Y-84927000D02*
X50550000Y-74773000D01*
X50510000Y-84925000D02*
X50510000Y-74775000D01*
X50470000Y-84923000D02*
X50470000Y-74777000D01*
X50430000Y-84920000D02*
X50430000Y-74780000D01*
X50390000Y-84918000D02*
X50390000Y-74782000D01*
X50350000Y-84915000D02*
X50350000Y-74785000D01*
X50310000Y-84912000D02*
X50310000Y-74788000D01*
X50270000Y-84908000D02*
X50270000Y-74792000D01*
X50230000Y-84904000D02*
X50230000Y-74796000D01*
X50190000Y-84900000D02*
X50190000Y-74800000D01*
X50150000Y-84895000D02*
X50150000Y-74805000D01*
X50110000Y-84890000D02*
X50110000Y-74810000D01*
X50070000Y-84885000D02*
X50070000Y-74815000D01*
X50029000Y-84880000D02*
X50029000Y-74820000D01*
X49989000Y-84874000D02*
X49989000Y-74826000D01*
X49949000Y-84868000D02*
X49949000Y-74832000D01*
X49909000Y-84861000D02*
X49909000Y-74839000D01*
X49869000Y-84854000D02*
X49869000Y-74846000D01*
X49829000Y-84847000D02*
X49829000Y-74853000D01*
X49789000Y-84840000D02*
X49789000Y-74860000D01*
X49749000Y-84832000D02*
X49749000Y-74868000D01*
X49709000Y-84824000D02*
X49709000Y-74876000D01*
X49669000Y-84815000D02*
X49669000Y-74885000D01*
X49629000Y-84806000D02*
X49629000Y-74894000D01*
X49589000Y-84797000D02*
X49589000Y-74903000D01*
X49549000Y-84788000D02*
X49549000Y-74912000D01*
X49509000Y-84778000D02*
X49509000Y-74922000D01*
X49469000Y-84768000D02*
X49469000Y-81091000D01*
X49469000Y-78609000D02*
X49469000Y-74932000D01*
X49429000Y-84757000D02*
X49429000Y-81091000D01*
X49429000Y-78609000D02*
X49429000Y-74943000D01*
X49389000Y-84747000D02*
X49389000Y-81091000D01*
X49389000Y-78609000D02*
X49389000Y-74953000D01*
X49349000Y-84735000D02*
X49349000Y-81091000D01*
X49349000Y-78609000D02*
X49349000Y-74965000D01*
X49309000Y-84724000D02*
X49309000Y-81091000D01*
X49309000Y-78609000D02*
X49309000Y-74976000D01*
X49269000Y-84712000D02*
X49269000Y-81091000D01*
X49269000Y-78609000D02*
X49269000Y-74988000D01*
X49229000Y-84700000D02*
X49229000Y-81091000D01*
X49229000Y-78609000D02*
X49229000Y-75000000D01*
X49189000Y-84687000D02*
X49189000Y-81091000D01*
X49189000Y-78609000D02*
X49189000Y-75013000D01*
X49149000Y-84674000D02*
X49149000Y-81091000D01*
X49149000Y-78609000D02*
X49149000Y-75026000D01*
X49109000Y-84661000D02*
X49109000Y-81091000D01*
X49109000Y-78609000D02*
X49109000Y-75039000D01*
X49069000Y-84647000D02*
X49069000Y-81091000D01*
X49069000Y-78609000D02*
X49069000Y-75053000D01*
X49029000Y-84633000D02*
X49029000Y-81091000D01*
X49029000Y-78609000D02*
X49029000Y-75067000D01*
X48989000Y-84618000D02*
X48989000Y-81091000D01*
X48989000Y-78609000D02*
X48989000Y-75082000D01*
X48949000Y-84604000D02*
X48949000Y-81091000D01*
X48949000Y-78609000D02*
X48949000Y-75096000D01*
X48909000Y-84588000D02*
X48909000Y-81091000D01*
X48909000Y-78609000D02*
X48909000Y-75112000D01*
X48869000Y-84573000D02*
X48869000Y-81091000D01*
X48869000Y-78609000D02*
X48869000Y-75127000D01*
X48829000Y-84557000D02*
X48829000Y-81091000D01*
X48829000Y-78609000D02*
X48829000Y-75143000D01*
X48789000Y-84540000D02*
X48789000Y-81091000D01*
X48789000Y-78609000D02*
X48789000Y-75160000D01*
X48749000Y-84524000D02*
X48749000Y-81091000D01*
X48749000Y-78609000D02*
X48749000Y-75176000D01*
X48709000Y-84507000D02*
X48709000Y-81091000D01*
X48709000Y-78609000D02*
X48709000Y-75193000D01*
X48669000Y-84489000D02*
X48669000Y-81091000D01*
X48669000Y-78609000D02*
X48669000Y-75211000D01*
X48629000Y-84471000D02*
X48629000Y-81091000D01*
X48629000Y-78609000D02*
X48629000Y-75229000D01*
X48589000Y-84453000D02*
X48589000Y-81091000D01*
X48589000Y-78609000D02*
X48589000Y-75247000D01*
X48549000Y-84434000D02*
X48549000Y-81091000D01*
X48549000Y-78609000D02*
X48549000Y-75266000D01*
X48509000Y-84414000D02*
X48509000Y-81091000D01*
X48509000Y-78609000D02*
X48509000Y-75286000D01*
X48469000Y-84395000D02*
X48469000Y-81091000D01*
X48469000Y-78609000D02*
X48469000Y-75305000D01*
X48429000Y-84375000D02*
X48429000Y-81091000D01*
X48429000Y-78609000D02*
X48429000Y-75325000D01*
X48389000Y-84354000D02*
X48389000Y-81091000D01*
X48389000Y-78609000D02*
X48389000Y-75346000D01*
X48349000Y-84333000D02*
X48349000Y-81091000D01*
X48349000Y-78609000D02*
X48349000Y-75367000D01*
X48309000Y-84312000D02*
X48309000Y-81091000D01*
X48309000Y-78609000D02*
X48309000Y-75388000D01*
X48269000Y-84290000D02*
X48269000Y-81091000D01*
X48269000Y-78609000D02*
X48269000Y-75410000D01*
X48229000Y-84267000D02*
X48229000Y-81091000D01*
X48229000Y-78609000D02*
X48229000Y-75433000D01*
X48189000Y-84245000D02*
X48189000Y-81091000D01*
X48189000Y-78609000D02*
X48189000Y-75455000D01*
X48149000Y-84221000D02*
X48149000Y-81091000D01*
X48149000Y-78609000D02*
X48149000Y-75479000D01*
X48109000Y-84197000D02*
X48109000Y-81091000D01*
X48109000Y-78609000D02*
X48109000Y-75503000D01*
X48069000Y-84173000D02*
X48069000Y-81091000D01*
X48069000Y-78609000D02*
X48069000Y-75527000D01*
X48029000Y-84148000D02*
X48029000Y-81091000D01*
X48029000Y-78609000D02*
X48029000Y-75552000D01*
X47989000Y-84123000D02*
X47989000Y-81091000D01*
X47989000Y-78609000D02*
X47989000Y-75577000D01*
X47949000Y-84097000D02*
X47949000Y-81091000D01*
X47949000Y-78609000D02*
X47949000Y-75603000D01*
X47909000Y-84071000D02*
X47909000Y-81091000D01*
X47909000Y-78609000D02*
X47909000Y-75629000D01*
X47869000Y-84044000D02*
X47869000Y-81091000D01*
X47869000Y-78609000D02*
X47869000Y-75656000D01*
X47829000Y-84016000D02*
X47829000Y-81091000D01*
X47829000Y-78609000D02*
X47829000Y-75684000D01*
X47789000Y-83988000D02*
X47789000Y-81091000D01*
X47789000Y-78609000D02*
X47789000Y-75712000D01*
X47749000Y-83960000D02*
X47749000Y-81091000D01*
X47749000Y-78609000D02*
X47749000Y-75740000D01*
X47709000Y-83930000D02*
X47709000Y-81091000D01*
X47709000Y-78609000D02*
X47709000Y-75770000D01*
X47669000Y-83900000D02*
X47669000Y-81091000D01*
X47669000Y-78609000D02*
X47669000Y-75800000D01*
X47629000Y-83870000D02*
X47629000Y-81091000D01*
X47629000Y-78609000D02*
X47629000Y-75830000D01*
X47589000Y-83839000D02*
X47589000Y-81091000D01*
X47589000Y-78609000D02*
X47589000Y-75861000D01*
X47549000Y-83807000D02*
X47549000Y-81091000D01*
X47549000Y-78609000D02*
X47549000Y-75893000D01*
X47509000Y-83775000D02*
X47509000Y-81091000D01*
X47509000Y-78609000D02*
X47509000Y-75925000D01*
X47469000Y-83742000D02*
X47469000Y-81091000D01*
X47469000Y-78609000D02*
X47469000Y-75958000D01*
X47429000Y-83708000D02*
X47429000Y-81091000D01*
X47429000Y-78609000D02*
X47429000Y-75992000D01*
X47389000Y-83674000D02*
X47389000Y-81091000D01*
X47389000Y-78609000D02*
X47389000Y-76026000D01*
X47349000Y-83639000D02*
X47349000Y-81091000D01*
X47349000Y-78609000D02*
X47349000Y-76061000D01*
X47309000Y-83603000D02*
X47309000Y-81091000D01*
X47309000Y-78609000D02*
X47309000Y-76097000D01*
X47269000Y-83566000D02*
X47269000Y-81091000D01*
X47269000Y-78609000D02*
X47269000Y-76134000D01*
X47229000Y-83529000D02*
X47229000Y-81091000D01*
X47229000Y-78609000D02*
X47229000Y-76171000D01*
X47189000Y-83490000D02*
X47189000Y-81091000D01*
X47189000Y-78609000D02*
X47189000Y-76210000D01*
X47149000Y-83451000D02*
X47149000Y-81091000D01*
X47149000Y-78609000D02*
X47149000Y-76249000D01*
X47109000Y-83411000D02*
X47109000Y-81091000D01*
X47109000Y-78609000D02*
X47109000Y-76289000D01*
X47069000Y-83370000D02*
X47069000Y-81091000D01*
X47069000Y-78609000D02*
X47069000Y-76330000D01*
X47029000Y-83328000D02*
X47029000Y-81091000D01*
X47029000Y-78609000D02*
X47029000Y-76372000D01*
X46989000Y-83286000D02*
X46989000Y-76414000D01*
X46949000Y-83242000D02*
X46949000Y-76458000D01*
X46909000Y-83197000D02*
X46909000Y-76503000D01*
X46869000Y-83151000D02*
X46869000Y-76549000D01*
X46829000Y-83104000D02*
X46829000Y-76596000D01*
X46789000Y-83056000D02*
X46789000Y-76644000D01*
X46749000Y-83006000D02*
X46749000Y-76694000D01*
X46709000Y-82956000D02*
X46709000Y-76744000D01*
X46669000Y-82904000D02*
X46669000Y-76796000D01*
X46629000Y-82850000D02*
X46629000Y-76850000D01*
X46589000Y-82795000D02*
X46589000Y-76905000D01*
X46549000Y-82739000D02*
X46549000Y-76961000D01*
X46509000Y-82680000D02*
X46509000Y-77020000D01*
X46469000Y-82620000D02*
X46469000Y-77080000D01*
X46429000Y-82559000D02*
X46429000Y-77141000D01*
X46389000Y-82495000D02*
X46389000Y-77205000D01*
X46349000Y-82429000D02*
X46349000Y-77271000D01*
X46309000Y-82360000D02*
X46309000Y-77340000D01*
X46269000Y-82289000D02*
X46269000Y-77411000D01*
X46229000Y-82215000D02*
X46229000Y-77485000D01*
X46189000Y-82139000D02*
X46189000Y-77561000D01*
X46149000Y-82059000D02*
X46149000Y-77641000D01*
X46109000Y-81975000D02*
X46109000Y-77725000D01*
X46069000Y-81887000D02*
X46069000Y-77813000D01*
X46029000Y-81794000D02*
X46029000Y-77906000D01*
X45989000Y-81696000D02*
X45989000Y-78004000D01*
X45949000Y-81592000D02*
X45949000Y-78108000D01*
X45909000Y-81480000D02*
X45909000Y-78220000D01*
X45869000Y-81360000D02*
X45869000Y-78340000D01*
X45829000Y-81228000D02*
X45829000Y-78472000D01*
X45789000Y-81080000D02*
X45789000Y-78620000D01*
X45749000Y-80912000D02*
X45749000Y-78788000D01*
X45709000Y-80712000D02*
X45709000Y-78988000D01*
X45669000Y-80449000D02*
X45669000Y-79251000D01*
X56229646Y-82725000D02*
X55229646Y-82725000D01*
X55729646Y-83225000D02*
X55729646Y-82225000D01*
X60637221Y-83340000D02*
X60962779Y-83340000D01*
X60637221Y-84360000D02*
X60962779Y-84360000D01*
D12*
X58750000Y-68600000D02*
G75*
G03X58750000Y-68600000I-100000J0D01*
G01*
D13*
X65435000Y-71485000D02*
X60065000Y-71485000D01*
X60065000Y-67515000D02*
X65435000Y-67515000D01*
D11*
X62640000Y-83262779D02*
X62640000Y-82937221D01*
X63660000Y-83262779D02*
X63660000Y-82937221D01*
X65410000Y-77237221D02*
X65410000Y-77562779D01*
X64390000Y-77237221D02*
X64390000Y-77562779D01*
X59037221Y-77690000D02*
X59362779Y-77690000D01*
X59037221Y-78710000D02*
X59362779Y-78710000D01*
X119410000Y-79340000D02*
X114690000Y-79340000D01*
X114690000Y-79340000D02*
X114690000Y-85460000D01*
X114690000Y-85460000D02*
X119410000Y-85460000D01*
X119410000Y-85460000D02*
X119410000Y-79340000D01*
X119410000Y-81100000D02*
X119610000Y-81100000D01*
X119610000Y-81100000D02*
X119610000Y-80800000D01*
X119610000Y-80800000D02*
X119410000Y-80800000D01*
X119510000Y-81100000D02*
X119510000Y-80800000D01*
X119410000Y-81900000D02*
X118800000Y-81900000D01*
X118800000Y-81900000D02*
X118800000Y-79950000D01*
X118800000Y-79950000D02*
X115300000Y-79950000D01*
X115300000Y-79950000D02*
X115300000Y-84850000D01*
X115300000Y-84850000D02*
X118800000Y-84850000D01*
X118800000Y-84850000D02*
X118800000Y-82900000D01*
X118800000Y-82900000D02*
X119410000Y-82900000D01*
X118100000Y-79340000D02*
X118100000Y-79950000D01*
X116800000Y-79340000D02*
X116800000Y-79950000D01*
X118100000Y-85460000D02*
X118100000Y-84850000D01*
X116800000Y-85460000D02*
X116800000Y-84850000D01*
X115300000Y-82300000D02*
X115800000Y-82300000D01*
X115800000Y-82300000D02*
X115800000Y-82500000D01*
X115800000Y-82500000D02*
X115300000Y-82500000D01*
X115300000Y-82400000D02*
X115800000Y-82400000D01*
X119710000Y-80290000D02*
X119710000Y-79040000D01*
X119710000Y-79040000D02*
X118460000Y-79040000D01*
X70600000Y-80440000D02*
X71600000Y-80440000D01*
X67350000Y-94190000D02*
X67350000Y-94690000D01*
X68350000Y-94190000D02*
X67350000Y-94190000D01*
X68350000Y-86190000D02*
X68350000Y-94190000D01*
X68350000Y-80690000D02*
X68350000Y-82690000D01*
X80850000Y-80690000D02*
X68350000Y-80690000D01*
X80850000Y-82690000D02*
X80850000Y-80690000D01*
X80850000Y-94190000D02*
X80850000Y-86190000D01*
X81850000Y-94190000D02*
X80850000Y-94190000D01*
X81850000Y-94690000D02*
X81850000Y-94190000D01*
X67350000Y-94690000D02*
X81850000Y-94690000D01*
X58280000Y-89100000D02*
G75*
G03X58280000Y-89100000I-2180000J0D01*
G01*
X63280000Y-89100000D02*
G75*
G03X63280000Y-89100000I-2180000J0D01*
G01*
X53540000Y-93700000D02*
X63660000Y-93700000D01*
X53540000Y-92600000D02*
X63660000Y-92600000D01*
X53540000Y-85040000D02*
X63660000Y-85040000D01*
X53540000Y-94160000D02*
X63660000Y-94160000D01*
X53540000Y-85040000D02*
X53540000Y-94160000D01*
X63660000Y-85040000D02*
X63660000Y-94160000D01*
X57754000Y-87712000D02*
X57647000Y-87819000D01*
X54818000Y-90647000D02*
X54712000Y-90754000D01*
X57488000Y-87446000D02*
X57381000Y-87553000D01*
X54552000Y-90381000D02*
X54446000Y-90488000D01*
X62754000Y-87712000D02*
X62359000Y-88108000D01*
X60093000Y-90374000D02*
X59713000Y-90754000D01*
X62488000Y-87446000D02*
X62108000Y-87826000D01*
X59842000Y-90092000D02*
X59447000Y-90488000D01*
X53300000Y-93760000D02*
X53300000Y-94400000D01*
X53300000Y-94400000D02*
X53700000Y-94400000D01*
X62662779Y-77110000D02*
X62337221Y-77110000D01*
X62662779Y-76090000D02*
X62337221Y-76090000D01*
X62662779Y-78710000D02*
X62337221Y-78710000D01*
X62662779Y-77690000D02*
X62337221Y-77690000D01*
X54690000Y-72502064D02*
X54690000Y-71297936D01*
X56510000Y-72502064D02*
X56510000Y-71297936D01*
X52290000Y-72502064D02*
X52290000Y-71297936D01*
X54110000Y-72502064D02*
X54110000Y-71297936D01*
X50402064Y-73910000D02*
X49197936Y-73910000D01*
X50402064Y-72090000D02*
X49197936Y-72090000D01*
X59037221Y-76090000D02*
X59362779Y-76090000D01*
X59037221Y-77110000D02*
X59362779Y-77110000D01*
X83100000Y-56700000D02*
X83100000Y-56200000D01*
X84500000Y-56700000D02*
X84500000Y-56200000D01*
X84500000Y-56700000D02*
X85100000Y-56700000D01*
X85100000Y-56700000D02*
X85300000Y-56900000D01*
X82300000Y-56900000D02*
X82300000Y-56700000D01*
X82300000Y-56700000D02*
X83100000Y-56700000D01*
X83100000Y-59700000D02*
X82300000Y-59700000D01*
X82300000Y-59700000D02*
X82300000Y-59500000D01*
X85300000Y-59500000D02*
X85300000Y-59700000D01*
X85300000Y-59700000D02*
X84500000Y-59700000D01*
X111287221Y-66390000D02*
X111612779Y-66390000D01*
X111287221Y-67410000D02*
X111612779Y-67410000D01*
X97810000Y-56054841D02*
X97810000Y-56380399D01*
X96790000Y-56054841D02*
X96790000Y-56380399D01*
X99735000Y-57000000D02*
X99735000Y-54715000D01*
X99735000Y-54715000D02*
X98265000Y-54715000D01*
X98265000Y-54715000D02*
X98265000Y-57000000D01*
X98310000Y-82762779D02*
X98310000Y-82437221D01*
X97290000Y-82762779D02*
X97290000Y-82437221D01*
X97290000Y-79337221D02*
X97290000Y-79662779D01*
X98310000Y-79337221D02*
X98310000Y-79662779D01*
X91290000Y-81137221D02*
X91290000Y-81462779D01*
X92310000Y-81137221D02*
X92310000Y-81462779D01*
X105987221Y-61510000D02*
X106312779Y-61510000D01*
X105987221Y-60490000D02*
X106312779Y-60490000D01*
X107840000Y-63137221D02*
X107840000Y-63462779D01*
X108860000Y-63137221D02*
X108860000Y-63462779D01*
X109490000Y-64860000D02*
X109490000Y-65120000D01*
X112460000Y-61740000D02*
X112310000Y-61740000D01*
X112460000Y-64860000D02*
X112460000Y-61740000D01*
X109340000Y-64860000D02*
X109340000Y-61740000D01*
X112460000Y-64860000D02*
X112310000Y-64860000D01*
X109340000Y-64860000D02*
X109490000Y-64860000D01*
X109340000Y-61740000D02*
X109490000Y-61740000D01*
D14*
X95850000Y-79600000D02*
X95850000Y-80420000D01*
X93150000Y-79700000D02*
X93150000Y-80420000D01*
X93150000Y-79700000D02*
X93370000Y-79700000D01*
X93370000Y-82900000D02*
X93150000Y-82900000D01*
X93150000Y-82900000D02*
X93150000Y-82180000D01*
X95850000Y-82180000D02*
X95850000Y-82900000D01*
X95850000Y-82900000D02*
X95630000Y-82900000D01*
D11*
X119410000Y-64440000D02*
X114690000Y-64440000D01*
X114690000Y-64440000D02*
X114690000Y-78560000D01*
X114690000Y-78560000D02*
X119410000Y-78560000D01*
X119410000Y-78560000D02*
X119410000Y-64440000D01*
X119410000Y-66200000D02*
X119610000Y-66200000D01*
X119610000Y-66200000D02*
X119610000Y-65900000D01*
X119610000Y-65900000D02*
X119410000Y-65900000D01*
X119510000Y-66200000D02*
X119510000Y-65900000D01*
X119410000Y-67000000D02*
X118800000Y-67000000D01*
X118800000Y-67000000D02*
X118800000Y-65050000D01*
X118800000Y-65050000D02*
X115300000Y-65050000D01*
X115300000Y-65050000D02*
X115300000Y-77950000D01*
X115300000Y-77950000D02*
X118800000Y-77950000D01*
X118800000Y-77950000D02*
X118800000Y-76000000D01*
X118800000Y-76000000D02*
X119410000Y-76000000D01*
X118100000Y-64440000D02*
X118100000Y-65050000D01*
X116800000Y-64440000D02*
X116800000Y-65050000D01*
X118100000Y-78560000D02*
X118100000Y-77950000D01*
X116800000Y-78560000D02*
X116800000Y-77950000D01*
X115300000Y-67400000D02*
X115800000Y-67400000D01*
X115800000Y-67400000D02*
X115800000Y-67600000D01*
X115800000Y-67600000D02*
X115300000Y-67600000D01*
X115300000Y-67500000D02*
X115800000Y-67500000D01*
X115300000Y-69400000D02*
X115800000Y-69400000D01*
X115800000Y-69400000D02*
X115800000Y-69600000D01*
X115800000Y-69600000D02*
X115300000Y-69600000D01*
X115300000Y-69500000D02*
X115800000Y-69500000D01*
X115300000Y-71400000D02*
X115800000Y-71400000D01*
X115800000Y-71400000D02*
X115800000Y-71600000D01*
X115800000Y-71600000D02*
X115300000Y-71600000D01*
X115300000Y-71500000D02*
X115800000Y-71500000D01*
X115300000Y-73400000D02*
X115800000Y-73400000D01*
X115800000Y-73400000D02*
X115800000Y-73600000D01*
X115800000Y-73600000D02*
X115300000Y-73600000D01*
X115300000Y-73500000D02*
X115800000Y-73500000D01*
X115300000Y-75400000D02*
X115800000Y-75400000D01*
X115800000Y-75400000D02*
X115800000Y-75600000D01*
X115800000Y-75600000D02*
X115300000Y-75600000D01*
X115300000Y-75500000D02*
X115800000Y-75500000D01*
X119710000Y-65390000D02*
X119710000Y-64140000D01*
X119710000Y-64140000D02*
X118460000Y-64140000D01*
X111262221Y-80285000D02*
X111587779Y-80285000D01*
X111262221Y-79265000D02*
X111587779Y-79265000D01*
X103337221Y-66510000D02*
X103662779Y-66510000D01*
X103337221Y-65490000D02*
X103662779Y-65490000D01*
X112690000Y-70737221D02*
X112690000Y-71062779D01*
X113710000Y-70737221D02*
X113710000Y-71062779D01*
X98210000Y-70762779D02*
X98210000Y-70437221D01*
X97190000Y-70762779D02*
X97190000Y-70437221D01*
X108187221Y-66460000D02*
X108512779Y-66460000D01*
X108187221Y-65440000D02*
X108512779Y-65440000D01*
X97290000Y-76562779D02*
X97290000Y-76237221D01*
X98310000Y-76562779D02*
X98310000Y-76237221D01*
X101100000Y-60990000D02*
X97400000Y-60990000D01*
X97400000Y-60990000D02*
X97400000Y-66290000D01*
X99412779Y-60340000D02*
X99087221Y-60340000D01*
X99412779Y-59320000D02*
X99087221Y-59320000D01*
X99087221Y-66940000D02*
X99412779Y-66940000D01*
X99087221Y-67960000D02*
X99412779Y-67960000D01*
X107962779Y-81290000D02*
X107637221Y-81290000D01*
X107962779Y-82310000D02*
X107637221Y-82310000D01*
X107962779Y-82890000D02*
X107637221Y-82890000D01*
X107962779Y-83910000D02*
X107637221Y-83910000D01*
X112785000Y-81065000D02*
X110500000Y-81065000D01*
X112785000Y-82535000D02*
X112785000Y-81065000D01*
X110500000Y-82535000D02*
X112785000Y-82535000D01*
X112785000Y-82665000D02*
X110500000Y-82665000D01*
X112785000Y-84135000D02*
X112785000Y-82665000D01*
X110500000Y-84135000D02*
X112785000Y-84135000D01*
D10*
X69425000Y-63712500D02*
X68175000Y-63712500D01*
X69425000Y-66887500D02*
X72775000Y-66887500D01*
X69425000Y-63537500D02*
X72775000Y-63537500D01*
X69425000Y-66887500D02*
X69425000Y-66637500D01*
X72775000Y-66887500D02*
X72775000Y-66637500D01*
X72775000Y-63537500D02*
X72775000Y-63787500D01*
X69425000Y-63537500D02*
X69425000Y-63712500D01*
D11*
X109710000Y-68440000D02*
X109710000Y-67100000D01*
X110660000Y-68440000D02*
X109710000Y-68440000D01*
X110660000Y-69390000D02*
X110660000Y-68440000D01*
X110660000Y-78660000D02*
X109710000Y-78660000D01*
X110660000Y-77710000D02*
X110660000Y-78660000D01*
X100440000Y-68440000D02*
X101390000Y-68440000D01*
X100440000Y-69390000D02*
X100440000Y-68440000D01*
X100440000Y-78660000D02*
X101390000Y-78660000D01*
X100440000Y-77710000D02*
X100440000Y-78660000D01*
X68340000Y-61537221D02*
X68340000Y-61862779D01*
X69360000Y-61537221D02*
X69360000Y-61862779D01*
X77337221Y-61910000D02*
X77662779Y-61910000D01*
X77337221Y-60890000D02*
X77662779Y-60890000D01*
X76150000Y-62500000D02*
X76150000Y-67600000D01*
X81350000Y-62500000D02*
X81350000Y-67600000D01*
X101390000Y-94710000D02*
X101390000Y-92760000D01*
X101390000Y-90540000D02*
X101390000Y-87310000D01*
X102110000Y-85390000D02*
X103190000Y-85390000D01*
X107410000Y-85390000D02*
X108490000Y-85390000D01*
X109210000Y-90540000D02*
X109210000Y-87310000D01*
X109210000Y-94710000D02*
X109210000Y-92760000D01*
X103190000Y-85390000D02*
X103190000Y-84960000D01*
X109210000Y-94710000D02*
X101390000Y-94710000D01*
X88290000Y-94710000D02*
X88290000Y-92760000D01*
X88290000Y-90540000D02*
X88290000Y-87310000D01*
X89010000Y-85390000D02*
X90090000Y-85390000D01*
X94310000Y-85390000D02*
X95390000Y-85390000D01*
X96110000Y-90540000D02*
X96110000Y-87310000D01*
X96110000Y-94710000D02*
X96110000Y-92760000D01*
X90090000Y-85390000D02*
X90090000Y-84960000D01*
X96110000Y-94710000D02*
X88290000Y-94710000D01*
X74562779Y-62040000D02*
X74237221Y-62040000D01*
X74562779Y-63060000D02*
X74237221Y-63060000D01*
X81790000Y-62740000D02*
X81790000Y-66950000D01*
X84810000Y-62740000D02*
X81790000Y-62740000D01*
X84810000Y-66950000D02*
X84810000Y-62740000D01*
X74590000Y-65049721D02*
X74590000Y-65375279D01*
X75610000Y-65049721D02*
X75610000Y-65375279D01*
X71187221Y-63060000D02*
X71512779Y-63060000D01*
X71187221Y-62040000D02*
X71512779Y-62040000D01*
X71587221Y-68372500D02*
X71912779Y-68372500D01*
X71587221Y-67352500D02*
X71912779Y-67352500D01*
D10*
X60783333Y-61716666D02*
X60450000Y-61716666D01*
X60450000Y-61016666D01*
X60950000Y-61016666D02*
X61383333Y-61016666D01*
X61150000Y-61283333D01*
X61250000Y-61283333D01*
X61316666Y-61316666D01*
X61350000Y-61350000D01*
X61383333Y-61416666D01*
X61383333Y-61583333D01*
X61350000Y-61650000D01*
X61316666Y-61683333D01*
X61250000Y-61716666D01*
X61050000Y-61716666D01*
X60983333Y-61683333D01*
X60950000Y-61650000D01*
X62833333Y-73366666D02*
X62266666Y-73366666D01*
X62200000Y-73400000D01*
X62166666Y-73433333D01*
X62133333Y-73500000D01*
X62133333Y-73633333D01*
X62166666Y-73700000D01*
X62200000Y-73733333D01*
X62266666Y-73766666D01*
X62833333Y-73766666D01*
X62533333Y-74200000D02*
X62566666Y-74133333D01*
X62600000Y-74100000D01*
X62666666Y-74066666D01*
X62700000Y-74066666D01*
X62766666Y-74100000D01*
X62800000Y-74133333D01*
X62833333Y-74200000D01*
X62833333Y-74333333D01*
X62800000Y-74400000D01*
X62766666Y-74433333D01*
X62700000Y-74466666D01*
X62666666Y-74466666D01*
X62600000Y-74433333D01*
X62566666Y-74400000D01*
X62533333Y-74333333D01*
X62533333Y-74200000D01*
X62500000Y-74133333D01*
X62466666Y-74100000D01*
X62400000Y-74066666D01*
X62266666Y-74066666D01*
X62200000Y-74100000D01*
X62166666Y-74133333D01*
X62133333Y-74200000D01*
X62133333Y-74333333D01*
X62166666Y-74400000D01*
X62200000Y-74433333D01*
X62266666Y-74466666D01*
X62400000Y-74466666D01*
X62466666Y-74433333D01*
X62500000Y-74400000D01*
X62533333Y-74333333D01*
X111766666Y-55516666D02*
X111766666Y-56016666D01*
X111733333Y-56116666D01*
X111666666Y-56183333D01*
X111566666Y-56216666D01*
X111500000Y-56216666D01*
X112400000Y-55750000D02*
X112400000Y-56216666D01*
X112233333Y-55483333D02*
X112066666Y-55983333D01*
X112500000Y-55983333D01*
X105450000Y-58850000D02*
X105416666Y-58883333D01*
X105316666Y-58916666D01*
X105250000Y-58916666D01*
X105150000Y-58883333D01*
X105083333Y-58816666D01*
X105050000Y-58750000D01*
X105016666Y-58616666D01*
X105016666Y-58516666D01*
X105050000Y-58383333D01*
X105083333Y-58316666D01*
X105150000Y-58250000D01*
X105250000Y-58216666D01*
X105316666Y-58216666D01*
X105416666Y-58250000D01*
X105450000Y-58283333D01*
X105716666Y-58716666D02*
X106050000Y-58716666D01*
X105650000Y-58916666D02*
X105883333Y-58216666D01*
X106116666Y-58916666D01*
X106350000Y-58916666D02*
X106350000Y-58216666D01*
X106750000Y-58916666D01*
X106750000Y-58216666D01*
X78204761Y-77083333D02*
X78252380Y-76940476D01*
X78252380Y-76702380D01*
X78204761Y-76607142D01*
X78157142Y-76559523D01*
X78061904Y-76511904D01*
X77966666Y-76511904D01*
X77871428Y-76559523D01*
X77823809Y-76607142D01*
X77776190Y-76702380D01*
X77728571Y-76892857D01*
X77680952Y-76988095D01*
X77633333Y-77035714D01*
X77538095Y-77083333D01*
X77442857Y-77083333D01*
X77347619Y-77035714D01*
X77300000Y-76988095D01*
X77252380Y-76892857D01*
X77252380Y-76654761D01*
X77300000Y-76511904D01*
X77252380Y-76178571D02*
X78252380Y-75940476D01*
X77538095Y-75750000D01*
X78252380Y-75559523D01*
X77252380Y-75321428D01*
X77252380Y-75035714D02*
X77252380Y-74416666D01*
X77633333Y-74750000D01*
X77633333Y-74607142D01*
X77680952Y-74511904D01*
X77728571Y-74464285D01*
X77823809Y-74416666D01*
X78061904Y-74416666D01*
X78157142Y-74464285D01*
X78204761Y-74511904D01*
X78252380Y-74607142D01*
X78252380Y-74892857D01*
X78204761Y-74988095D01*
X78157142Y-75035714D01*
X89050000Y-70516666D02*
X88816666Y-70183333D01*
X88650000Y-70516666D02*
X88650000Y-69816666D01*
X88916666Y-69816666D01*
X88983333Y-69850000D01*
X89016666Y-69883333D01*
X89050000Y-69950000D01*
X89050000Y-70050000D01*
X89016666Y-70116666D01*
X88983333Y-70150000D01*
X88916666Y-70183333D01*
X88650000Y-70183333D01*
X89316666Y-69883333D02*
X89350000Y-69850000D01*
X89416666Y-69816666D01*
X89583333Y-69816666D01*
X89650000Y-69850000D01*
X89683333Y-69883333D01*
X89716666Y-69950000D01*
X89716666Y-70016666D01*
X89683333Y-70116666D01*
X89283333Y-70516666D01*
X89716666Y-70516666D01*
X90316666Y-70050000D02*
X90316666Y-70516666D01*
X90150000Y-69783333D02*
X89983333Y-70283333D01*
X90416666Y-70283333D01*
X89050000Y-66086666D02*
X88816666Y-65753333D01*
X88650000Y-66086666D02*
X88650000Y-65386666D01*
X88916666Y-65386666D01*
X88983333Y-65420000D01*
X89016666Y-65453333D01*
X89050000Y-65520000D01*
X89050000Y-65620000D01*
X89016666Y-65686666D01*
X88983333Y-65720000D01*
X88916666Y-65753333D01*
X88650000Y-65753333D01*
X89316666Y-65453333D02*
X89350000Y-65420000D01*
X89416666Y-65386666D01*
X89583333Y-65386666D01*
X89650000Y-65420000D01*
X89683333Y-65453333D01*
X89716666Y-65520000D01*
X89716666Y-65586666D01*
X89683333Y-65686666D01*
X89283333Y-66086666D01*
X89716666Y-66086666D01*
X89950000Y-65386666D02*
X90383333Y-65386666D01*
X90150000Y-65653333D01*
X90250000Y-65653333D01*
X90316666Y-65686666D01*
X90350000Y-65720000D01*
X90383333Y-65786666D01*
X90383333Y-65953333D01*
X90350000Y-66020000D01*
X90316666Y-66053333D01*
X90250000Y-66086666D01*
X90050000Y-66086666D01*
X89983333Y-66053333D01*
X89950000Y-66020000D01*
X78746666Y-59366666D02*
X79246666Y-59366666D01*
X79346666Y-59400000D01*
X79413333Y-59466666D01*
X79446666Y-59566666D01*
X79446666Y-59633333D01*
X79446666Y-58666666D02*
X79446666Y-59066666D01*
X79446666Y-58866666D02*
X78746666Y-58866666D01*
X78846666Y-58933333D01*
X78913333Y-59000000D01*
X78946666Y-59066666D01*
X78746666Y-58233333D02*
X78746666Y-58166666D01*
X78780000Y-58100000D01*
X78813333Y-58066666D01*
X78880000Y-58033333D01*
X79013333Y-58000000D01*
X79180000Y-58000000D01*
X79313333Y-58033333D01*
X79380000Y-58066666D01*
X79413333Y-58100000D01*
X79446666Y-58166666D01*
X79446666Y-58233333D01*
X79413333Y-58300000D01*
X79380000Y-58333333D01*
X79313333Y-58366666D01*
X79180000Y-58400000D01*
X79013333Y-58400000D01*
X78880000Y-58366666D01*
X78813333Y-58333333D01*
X78780000Y-58300000D01*
X78746666Y-58233333D01*
X78746666Y-55333333D02*
X79246666Y-55333333D01*
X79346666Y-55366666D01*
X79413333Y-55433333D01*
X79446666Y-55533333D01*
X79446666Y-55600000D01*
X79446666Y-54966666D02*
X79446666Y-54833333D01*
X79413333Y-54766666D01*
X79380000Y-54733333D01*
X79280000Y-54666666D01*
X79146666Y-54633333D01*
X78880000Y-54633333D01*
X78813333Y-54666666D01*
X78780000Y-54700000D01*
X78746666Y-54766666D01*
X78746666Y-54900000D01*
X78780000Y-54966666D01*
X78813333Y-55000000D01*
X78880000Y-55033333D01*
X79046666Y-55033333D01*
X79113333Y-55000000D01*
X79146666Y-54966666D01*
X79180000Y-54900000D01*
X79180000Y-54766666D01*
X79146666Y-54700000D01*
X79113333Y-54666666D01*
X79046666Y-54633333D01*
X57950000Y-82050000D02*
X57916666Y-82083333D01*
X57816666Y-82116666D01*
X57750000Y-82116666D01*
X57650000Y-82083333D01*
X57583333Y-82016666D01*
X57550000Y-81950000D01*
X57516666Y-81816666D01*
X57516666Y-81716666D01*
X57550000Y-81583333D01*
X57583333Y-81516666D01*
X57650000Y-81450000D01*
X57750000Y-81416666D01*
X57816666Y-81416666D01*
X57916666Y-81450000D01*
X57950000Y-81483333D01*
X58183333Y-81416666D02*
X58616666Y-81416666D01*
X58383333Y-81683333D01*
X58483333Y-81683333D01*
X58550000Y-81716666D01*
X58583333Y-81750000D01*
X58616666Y-81816666D01*
X58616666Y-81983333D01*
X58583333Y-82050000D01*
X58550000Y-82083333D01*
X58483333Y-82116666D01*
X58283333Y-82116666D01*
X58216666Y-82083333D01*
X58183333Y-82050000D01*
X59050000Y-81416666D02*
X59116666Y-81416666D01*
X59183333Y-81450000D01*
X59216666Y-81483333D01*
X59250000Y-81550000D01*
X59283333Y-81683333D01*
X59283333Y-81850000D01*
X59250000Y-81983333D01*
X59216666Y-82050000D01*
X59183333Y-82083333D01*
X59116666Y-82116666D01*
X59050000Y-82116666D01*
X58983333Y-82083333D01*
X58950000Y-82050000D01*
X58916666Y-81983333D01*
X58883333Y-81850000D01*
X58883333Y-81683333D01*
X58916666Y-81550000D01*
X58950000Y-81483333D01*
X58983333Y-81450000D01*
X59050000Y-81416666D01*
X66383333Y-91166666D02*
X66350000Y-91233333D01*
X66283333Y-91300000D01*
X66183333Y-91400000D01*
X66150000Y-91466666D01*
X66150000Y-91533333D01*
X66316666Y-91500000D02*
X66283333Y-91566666D01*
X66216666Y-91633333D01*
X66083333Y-91666666D01*
X65850000Y-91666666D01*
X65716666Y-91633333D01*
X65650000Y-91566666D01*
X65616666Y-91500000D01*
X65616666Y-91366666D01*
X65650000Y-91300000D01*
X65716666Y-91233333D01*
X65850000Y-91200000D01*
X66083333Y-91200000D01*
X66216666Y-91233333D01*
X66283333Y-91300000D01*
X66316666Y-91366666D01*
X66316666Y-91500000D01*
X66316666Y-90533333D02*
X66316666Y-90933333D01*
X66316666Y-90733333D02*
X65616666Y-90733333D01*
X65716666Y-90800000D01*
X65783333Y-90866666D01*
X65816666Y-90933333D01*
X50491666Y-60261666D02*
X50491666Y-60761666D01*
X50458333Y-60861666D01*
X50391666Y-60928333D01*
X50291666Y-60961666D01*
X50225000Y-60961666D01*
X50925000Y-60561666D02*
X50858333Y-60528333D01*
X50825000Y-60495000D01*
X50791666Y-60428333D01*
X50791666Y-60395000D01*
X50825000Y-60328333D01*
X50858333Y-60295000D01*
X50925000Y-60261666D01*
X51058333Y-60261666D01*
X51125000Y-60295000D01*
X51158333Y-60328333D01*
X51191666Y-60395000D01*
X51191666Y-60428333D01*
X51158333Y-60495000D01*
X51125000Y-60528333D01*
X51058333Y-60561666D01*
X50925000Y-60561666D01*
X50858333Y-60595000D01*
X50825000Y-60628333D01*
X50791666Y-60695000D01*
X50791666Y-60828333D01*
X50825000Y-60895000D01*
X50858333Y-60928333D01*
X50925000Y-60961666D01*
X51058333Y-60961666D01*
X51125000Y-60928333D01*
X51158333Y-60895000D01*
X51191666Y-60828333D01*
X51191666Y-60695000D01*
X51158333Y-60628333D01*
X51125000Y-60595000D01*
X51058333Y-60561666D01*
X46816666Y-60261666D02*
X46816666Y-60761666D01*
X46783333Y-60861666D01*
X46716666Y-60928333D01*
X46616666Y-60961666D01*
X46550000Y-60961666D01*
X47083333Y-60261666D02*
X47550000Y-60261666D01*
X47250000Y-60961666D01*
X67850000Y-79750000D02*
X67816666Y-79783333D01*
X67716666Y-79816666D01*
X67650000Y-79816666D01*
X67550000Y-79783333D01*
X67483333Y-79716666D01*
X67450000Y-79650000D01*
X67416666Y-79516666D01*
X67416666Y-79416666D01*
X67450000Y-79283333D01*
X67483333Y-79216666D01*
X67550000Y-79150000D01*
X67650000Y-79116666D01*
X67716666Y-79116666D01*
X67816666Y-79150000D01*
X67850000Y-79183333D01*
X68083333Y-79116666D02*
X68516666Y-79116666D01*
X68283333Y-79383333D01*
X68383333Y-79383333D01*
X68450000Y-79416666D01*
X68483333Y-79450000D01*
X68516666Y-79516666D01*
X68516666Y-79683333D01*
X68483333Y-79750000D01*
X68450000Y-79783333D01*
X68383333Y-79816666D01*
X68183333Y-79816666D01*
X68116666Y-79783333D01*
X68083333Y-79750000D01*
X68850000Y-79816666D02*
X68983333Y-79816666D01*
X69050000Y-79783333D01*
X69083333Y-79750000D01*
X69150000Y-79650000D01*
X69183333Y-79516666D01*
X69183333Y-79250000D01*
X69150000Y-79183333D01*
X69116666Y-79150000D01*
X69050000Y-79116666D01*
X68916666Y-79116666D01*
X68850000Y-79150000D01*
X68816666Y-79183333D01*
X68783333Y-79250000D01*
X68783333Y-79416666D01*
X68816666Y-79483333D01*
X68850000Y-79516666D01*
X68916666Y-79550000D01*
X69050000Y-79550000D01*
X69116666Y-79516666D01*
X69150000Y-79483333D01*
X69183333Y-79416666D01*
X50300000Y-86350000D02*
X50266666Y-86383333D01*
X50166666Y-86416666D01*
X50100000Y-86416666D01*
X50000000Y-86383333D01*
X49933333Y-86316666D01*
X49900000Y-86250000D01*
X49866666Y-86116666D01*
X49866666Y-86016666D01*
X49900000Y-85883333D01*
X49933333Y-85816666D01*
X50000000Y-85750000D01*
X50100000Y-85716666D01*
X50166666Y-85716666D01*
X50266666Y-85750000D01*
X50300000Y-85783333D01*
X50533333Y-85716666D02*
X50966666Y-85716666D01*
X50733333Y-85983333D01*
X50833333Y-85983333D01*
X50900000Y-86016666D01*
X50933333Y-86050000D01*
X50966666Y-86116666D01*
X50966666Y-86283333D01*
X50933333Y-86350000D01*
X50900000Y-86383333D01*
X50833333Y-86416666D01*
X50633333Y-86416666D01*
X50566666Y-86383333D01*
X50533333Y-86350000D01*
X51366666Y-86016666D02*
X51300000Y-85983333D01*
X51266666Y-85950000D01*
X51233333Y-85883333D01*
X51233333Y-85850000D01*
X51266666Y-85783333D01*
X51300000Y-85750000D01*
X51366666Y-85716666D01*
X51500000Y-85716666D01*
X51566666Y-85750000D01*
X51600000Y-85783333D01*
X51633333Y-85850000D01*
X51633333Y-85883333D01*
X51600000Y-85950000D01*
X51566666Y-85983333D01*
X51500000Y-86016666D01*
X51366666Y-86016666D01*
X51300000Y-86050000D01*
X51266666Y-86083333D01*
X51233333Y-86150000D01*
X51233333Y-86283333D01*
X51266666Y-86350000D01*
X51300000Y-86383333D01*
X51366666Y-86416666D01*
X51500000Y-86416666D01*
X51566666Y-86383333D01*
X51600000Y-86350000D01*
X51633333Y-86283333D01*
X51633333Y-86150000D01*
X51600000Y-86083333D01*
X51566666Y-86050000D01*
X51500000Y-86016666D01*
X60350000Y-82736666D02*
X60116666Y-82403333D01*
X59950000Y-82736666D02*
X59950000Y-82036666D01*
X60216666Y-82036666D01*
X60283333Y-82070000D01*
X60316666Y-82103333D01*
X60350000Y-82170000D01*
X60350000Y-82270000D01*
X60316666Y-82336666D01*
X60283333Y-82370000D01*
X60216666Y-82403333D01*
X59950000Y-82403333D01*
X61016666Y-82736666D02*
X60616666Y-82736666D01*
X60816666Y-82736666D02*
X60816666Y-82036666D01*
X60750000Y-82136666D01*
X60683333Y-82203333D01*
X60616666Y-82236666D01*
X61250000Y-82036666D02*
X61716666Y-82036666D01*
X61416666Y-82736666D01*
X64416666Y-71866666D02*
X64416666Y-72433333D01*
X64450000Y-72500000D01*
X64483333Y-72533333D01*
X64550000Y-72566666D01*
X64683333Y-72566666D01*
X64750000Y-72533333D01*
X64783333Y-72500000D01*
X64816666Y-72433333D01*
X64816666Y-71866666D01*
X65183333Y-72566666D02*
X65316666Y-72566666D01*
X65383333Y-72533333D01*
X65416666Y-72500000D01*
X65483333Y-72400000D01*
X65516666Y-72266666D01*
X65516666Y-72000000D01*
X65483333Y-71933333D01*
X65450000Y-71900000D01*
X65383333Y-71866666D01*
X65250000Y-71866666D01*
X65183333Y-71900000D01*
X65150000Y-71933333D01*
X65116666Y-72000000D01*
X65116666Y-72166666D01*
X65150000Y-72233333D01*
X65183333Y-72266666D01*
X65250000Y-72300000D01*
X65383333Y-72300000D01*
X65450000Y-72266666D01*
X65483333Y-72233333D01*
X65516666Y-72166666D01*
X64716666Y-82350000D02*
X64383333Y-82583333D01*
X64716666Y-82750000D02*
X64016666Y-82750000D01*
X64016666Y-82483333D01*
X64050000Y-82416666D01*
X64083333Y-82383333D01*
X64150000Y-82350000D01*
X64250000Y-82350000D01*
X64316666Y-82383333D01*
X64350000Y-82416666D01*
X64383333Y-82483333D01*
X64383333Y-82750000D01*
X64716666Y-81683333D02*
X64716666Y-82083333D01*
X64716666Y-81883333D02*
X64016666Y-81883333D01*
X64116666Y-81950000D01*
X64183333Y-82016666D01*
X64216666Y-82083333D01*
X64316666Y-81283333D02*
X64283333Y-81350000D01*
X64250000Y-81383333D01*
X64183333Y-81416666D01*
X64150000Y-81416666D01*
X64083333Y-81383333D01*
X64050000Y-81350000D01*
X64016666Y-81283333D01*
X64016666Y-81150000D01*
X64050000Y-81083333D01*
X64083333Y-81050000D01*
X64150000Y-81016666D01*
X64183333Y-81016666D01*
X64250000Y-81050000D01*
X64283333Y-81083333D01*
X64316666Y-81150000D01*
X64316666Y-81283333D01*
X64350000Y-81350000D01*
X64383333Y-81383333D01*
X64450000Y-81416666D01*
X64583333Y-81416666D01*
X64650000Y-81383333D01*
X64683333Y-81350000D01*
X64716666Y-81283333D01*
X64716666Y-81150000D01*
X64683333Y-81083333D01*
X64650000Y-81050000D01*
X64583333Y-81016666D01*
X64450000Y-81016666D01*
X64383333Y-81050000D01*
X64350000Y-81083333D01*
X64316666Y-81150000D01*
X66646666Y-77850000D02*
X66313333Y-78083333D01*
X66646666Y-78250000D02*
X65946666Y-78250000D01*
X65946666Y-77983333D01*
X65980000Y-77916666D01*
X66013333Y-77883333D01*
X66080000Y-77850000D01*
X66180000Y-77850000D01*
X66246666Y-77883333D01*
X66280000Y-77916666D01*
X66313333Y-77983333D01*
X66313333Y-78250000D01*
X66646666Y-77183333D02*
X66646666Y-77583333D01*
X66646666Y-77383333D02*
X65946666Y-77383333D01*
X66046666Y-77450000D01*
X66113333Y-77516666D01*
X66146666Y-77583333D01*
X65946666Y-76583333D02*
X65946666Y-76716666D01*
X65980000Y-76783333D01*
X66013333Y-76816666D01*
X66113333Y-76883333D01*
X66246666Y-76916666D01*
X66513333Y-76916666D01*
X66580000Y-76883333D01*
X66613333Y-76850000D01*
X66646666Y-76783333D01*
X66646666Y-76650000D01*
X66613333Y-76583333D01*
X66580000Y-76550000D01*
X66513333Y-76516666D01*
X66346666Y-76516666D01*
X66280000Y-76550000D01*
X66246666Y-76583333D01*
X66213333Y-76650000D01*
X66213333Y-76783333D01*
X66246666Y-76850000D01*
X66280000Y-76883333D01*
X66346666Y-76916666D01*
X56250000Y-78466666D02*
X56016666Y-78133333D01*
X55850000Y-78466666D02*
X55850000Y-77766666D01*
X56116666Y-77766666D01*
X56183333Y-77800000D01*
X56216666Y-77833333D01*
X56250000Y-77900000D01*
X56250000Y-78000000D01*
X56216666Y-78066666D01*
X56183333Y-78100000D01*
X56116666Y-78133333D01*
X55850000Y-78133333D01*
X56916666Y-78466666D02*
X56516666Y-78466666D01*
X56716666Y-78466666D02*
X56716666Y-77766666D01*
X56650000Y-77866666D01*
X56583333Y-77933333D01*
X56516666Y-77966666D01*
X57550000Y-77766666D02*
X57216666Y-77766666D01*
X57183333Y-78100000D01*
X57216666Y-78066666D01*
X57283333Y-78033333D01*
X57450000Y-78033333D01*
X57516666Y-78066666D01*
X57550000Y-78100000D01*
X57583333Y-78166666D01*
X57583333Y-78333333D01*
X57550000Y-78400000D01*
X57516666Y-78433333D01*
X57450000Y-78466666D01*
X57283333Y-78466666D01*
X57216666Y-78433333D01*
X57183333Y-78400000D01*
X118416666Y-86633333D02*
X118916666Y-86633333D01*
X119016666Y-86666666D01*
X119083333Y-86733333D01*
X119116666Y-86833333D01*
X119116666Y-86900000D01*
X118416666Y-86000000D02*
X118416666Y-86133333D01*
X118450000Y-86200000D01*
X118483333Y-86233333D01*
X118583333Y-86300000D01*
X118716666Y-86333333D01*
X118983333Y-86333333D01*
X119050000Y-86300000D01*
X119083333Y-86266666D01*
X119116666Y-86200000D01*
X119116666Y-86066666D01*
X119083333Y-86000000D01*
X119050000Y-85966666D01*
X118983333Y-85933333D01*
X118816666Y-85933333D01*
X118750000Y-85966666D01*
X118716666Y-86000000D01*
X118683333Y-86066666D01*
X118683333Y-86200000D01*
X118716666Y-86266666D01*
X118750000Y-86300000D01*
X118816666Y-86333333D01*
X74366666Y-79056666D02*
X74366666Y-79556666D01*
X74333333Y-79656666D01*
X74266666Y-79723333D01*
X74166666Y-79756666D01*
X74100000Y-79756666D01*
X75033333Y-79056666D02*
X74700000Y-79056666D01*
X74666666Y-79390000D01*
X74700000Y-79356666D01*
X74766666Y-79323333D01*
X74933333Y-79323333D01*
X75000000Y-79356666D01*
X75033333Y-79390000D01*
X75066666Y-79456666D01*
X75066666Y-79623333D01*
X75033333Y-79690000D01*
X75000000Y-79723333D01*
X74933333Y-79756666D01*
X74766666Y-79756666D01*
X74700000Y-79723333D01*
X74666666Y-79690000D01*
X58366666Y-83656666D02*
X58366666Y-84156666D01*
X58333333Y-84256666D01*
X58266666Y-84323333D01*
X58166666Y-84356666D01*
X58100000Y-84356666D01*
X58633333Y-83656666D02*
X59066666Y-83656666D01*
X58833333Y-83923333D01*
X58933333Y-83923333D01*
X59000000Y-83956666D01*
X59033333Y-83990000D01*
X59066666Y-84056666D01*
X59066666Y-84223333D01*
X59033333Y-84290000D01*
X59000000Y-84323333D01*
X58933333Y-84356666D01*
X58733333Y-84356666D01*
X58666666Y-84323333D01*
X58633333Y-84290000D01*
X63625000Y-75425000D02*
X63591666Y-75458333D01*
X63491666Y-75491666D01*
X63425000Y-75491666D01*
X63325000Y-75458333D01*
X63258333Y-75391666D01*
X63225000Y-75325000D01*
X63191666Y-75191666D01*
X63191666Y-75091666D01*
X63225000Y-74958333D01*
X63258333Y-74891666D01*
X63325000Y-74825000D01*
X63425000Y-74791666D01*
X63491666Y-74791666D01*
X63591666Y-74825000D01*
X63625000Y-74858333D01*
X63858333Y-74791666D02*
X64291666Y-74791666D01*
X64058333Y-75058333D01*
X64158333Y-75058333D01*
X64225000Y-75091666D01*
X64258333Y-75125000D01*
X64291666Y-75191666D01*
X64291666Y-75358333D01*
X64258333Y-75425000D01*
X64225000Y-75458333D01*
X64158333Y-75491666D01*
X63958333Y-75491666D01*
X63891666Y-75458333D01*
X63858333Y-75425000D01*
X64891666Y-75025000D02*
X64891666Y-75491666D01*
X64725000Y-74758333D02*
X64558333Y-75258333D01*
X64991666Y-75258333D01*
X62050000Y-79875000D02*
X62016666Y-79908333D01*
X61916666Y-79941666D01*
X61850000Y-79941666D01*
X61750000Y-79908333D01*
X61683333Y-79841666D01*
X61650000Y-79775000D01*
X61616666Y-79641666D01*
X61616666Y-79541666D01*
X61650000Y-79408333D01*
X61683333Y-79341666D01*
X61750000Y-79275000D01*
X61850000Y-79241666D01*
X61916666Y-79241666D01*
X62016666Y-79275000D01*
X62050000Y-79308333D01*
X62283333Y-79241666D02*
X62716666Y-79241666D01*
X62483333Y-79508333D01*
X62583333Y-79508333D01*
X62650000Y-79541666D01*
X62683333Y-79575000D01*
X62716666Y-79641666D01*
X62716666Y-79808333D01*
X62683333Y-79875000D01*
X62650000Y-79908333D01*
X62583333Y-79941666D01*
X62383333Y-79941666D01*
X62316666Y-79908333D01*
X62283333Y-79875000D01*
X62983333Y-79308333D02*
X63016666Y-79275000D01*
X63083333Y-79241666D01*
X63250000Y-79241666D01*
X63316666Y-79275000D01*
X63350000Y-79308333D01*
X63383333Y-79375000D01*
X63383333Y-79441666D01*
X63350000Y-79541666D01*
X62950000Y-79941666D01*
X63383333Y-79941666D01*
X55450000Y-75600000D02*
X55483333Y-75633333D01*
X55516666Y-75733333D01*
X55516666Y-75800000D01*
X55483333Y-75900000D01*
X55416666Y-75966666D01*
X55350000Y-76000000D01*
X55216666Y-76033333D01*
X55116666Y-76033333D01*
X54983333Y-76000000D01*
X54916666Y-75966666D01*
X54850000Y-75900000D01*
X54816666Y-75800000D01*
X54816666Y-75733333D01*
X54850000Y-75633333D01*
X54883333Y-75600000D01*
X54816666Y-75366666D02*
X54816666Y-74933333D01*
X55083333Y-75166666D01*
X55083333Y-75066666D01*
X55116666Y-75000000D01*
X55150000Y-74966666D01*
X55216666Y-74933333D01*
X55383333Y-74933333D01*
X55450000Y-74966666D01*
X55483333Y-75000000D01*
X55516666Y-75066666D01*
X55516666Y-75266666D01*
X55483333Y-75333333D01*
X55450000Y-75366666D01*
X55516666Y-74266666D02*
X55516666Y-74666666D01*
X55516666Y-74466666D02*
X54816666Y-74466666D01*
X54916666Y-74533333D01*
X54983333Y-74600000D01*
X55016666Y-74666666D01*
X52850000Y-74850000D02*
X52816666Y-74883333D01*
X52716666Y-74916666D01*
X52650000Y-74916666D01*
X52550000Y-74883333D01*
X52483333Y-74816666D01*
X52450000Y-74750000D01*
X52416666Y-74616666D01*
X52416666Y-74516666D01*
X52450000Y-74383333D01*
X52483333Y-74316666D01*
X52550000Y-74250000D01*
X52650000Y-74216666D01*
X52716666Y-74216666D01*
X52816666Y-74250000D01*
X52850000Y-74283333D01*
X53116666Y-74283333D02*
X53150000Y-74250000D01*
X53216666Y-74216666D01*
X53383333Y-74216666D01*
X53450000Y-74250000D01*
X53483333Y-74283333D01*
X53516666Y-74350000D01*
X53516666Y-74416666D01*
X53483333Y-74516666D01*
X53083333Y-74916666D01*
X53516666Y-74916666D01*
X53850000Y-74916666D02*
X53983333Y-74916666D01*
X54050000Y-74883333D01*
X54083333Y-74850000D01*
X54150000Y-74750000D01*
X54183333Y-74616666D01*
X54183333Y-74350000D01*
X54150000Y-74283333D01*
X54116666Y-74250000D01*
X54050000Y-74216666D01*
X53916666Y-74216666D01*
X53850000Y-74250000D01*
X53816666Y-74283333D01*
X53783333Y-74350000D01*
X53783333Y-74516666D01*
X53816666Y-74583333D01*
X53850000Y-74616666D01*
X53916666Y-74650000D01*
X54050000Y-74650000D01*
X54116666Y-74616666D01*
X54150000Y-74583333D01*
X54183333Y-74516666D01*
X48150000Y-71375000D02*
X48116666Y-71408333D01*
X48016666Y-71441666D01*
X47950000Y-71441666D01*
X47850000Y-71408333D01*
X47783333Y-71341666D01*
X47750000Y-71275000D01*
X47716666Y-71141666D01*
X47716666Y-71041666D01*
X47750000Y-70908333D01*
X47783333Y-70841666D01*
X47850000Y-70775000D01*
X47950000Y-70741666D01*
X48016666Y-70741666D01*
X48116666Y-70775000D01*
X48150000Y-70808333D01*
X48416666Y-70808333D02*
X48450000Y-70775000D01*
X48516666Y-70741666D01*
X48683333Y-70741666D01*
X48750000Y-70775000D01*
X48783333Y-70808333D01*
X48816666Y-70875000D01*
X48816666Y-70941666D01*
X48783333Y-71041666D01*
X48383333Y-71441666D01*
X48816666Y-71441666D01*
X49216666Y-71041666D02*
X49150000Y-71008333D01*
X49116666Y-70975000D01*
X49083333Y-70908333D01*
X49083333Y-70875000D01*
X49116666Y-70808333D01*
X49150000Y-70775000D01*
X49216666Y-70741666D01*
X49350000Y-70741666D01*
X49416666Y-70775000D01*
X49450000Y-70808333D01*
X49483333Y-70875000D01*
X49483333Y-70908333D01*
X49450000Y-70975000D01*
X49416666Y-71008333D01*
X49350000Y-71041666D01*
X49216666Y-71041666D01*
X49150000Y-71075000D01*
X49116666Y-71108333D01*
X49083333Y-71175000D01*
X49083333Y-71308333D01*
X49116666Y-71375000D01*
X49150000Y-71408333D01*
X49216666Y-71441666D01*
X49350000Y-71441666D01*
X49416666Y-71408333D01*
X49450000Y-71375000D01*
X49483333Y-71308333D01*
X49483333Y-71175000D01*
X49450000Y-71108333D01*
X49416666Y-71075000D01*
X49350000Y-71041666D01*
X56250000Y-76850000D02*
X56216666Y-76883333D01*
X56116666Y-76916666D01*
X56050000Y-76916666D01*
X55950000Y-76883333D01*
X55883333Y-76816666D01*
X55850000Y-76750000D01*
X55816666Y-76616666D01*
X55816666Y-76516666D01*
X55850000Y-76383333D01*
X55883333Y-76316666D01*
X55950000Y-76250000D01*
X56050000Y-76216666D01*
X56116666Y-76216666D01*
X56216666Y-76250000D01*
X56250000Y-76283333D01*
X56516666Y-76283333D02*
X56550000Y-76250000D01*
X56616666Y-76216666D01*
X56783333Y-76216666D01*
X56850000Y-76250000D01*
X56883333Y-76283333D01*
X56916666Y-76350000D01*
X56916666Y-76416666D01*
X56883333Y-76516666D01*
X56483333Y-76916666D01*
X56916666Y-76916666D01*
X57150000Y-76216666D02*
X57616666Y-76216666D01*
X57316666Y-76916666D01*
X80166666Y-58016666D02*
X80166666Y-58583333D01*
X80200000Y-58650000D01*
X80233333Y-58683333D01*
X80300000Y-58716666D01*
X80433333Y-58716666D01*
X80500000Y-58683333D01*
X80533333Y-58650000D01*
X80566666Y-58583333D01*
X80566666Y-58016666D01*
X80833333Y-58016666D02*
X81300000Y-58016666D01*
X81000000Y-58716666D01*
X113050000Y-66100000D02*
X113016666Y-66133333D01*
X112916666Y-66166666D01*
X112850000Y-66166666D01*
X112750000Y-66133333D01*
X112683333Y-66066666D01*
X112650000Y-66000000D01*
X112616666Y-65866666D01*
X112616666Y-65766666D01*
X112650000Y-65633333D01*
X112683333Y-65566666D01*
X112750000Y-65500000D01*
X112850000Y-65466666D01*
X112916666Y-65466666D01*
X113016666Y-65500000D01*
X113050000Y-65533333D01*
X113316666Y-65533333D02*
X113350000Y-65500000D01*
X113416666Y-65466666D01*
X113583333Y-65466666D01*
X113650000Y-65500000D01*
X113683333Y-65533333D01*
X113716666Y-65600000D01*
X113716666Y-65666666D01*
X113683333Y-65766666D01*
X113283333Y-66166666D01*
X113716666Y-66166666D01*
X114316666Y-65466666D02*
X114183333Y-65466666D01*
X114116666Y-65500000D01*
X114083333Y-65533333D01*
X114016666Y-65633333D01*
X113983333Y-65766666D01*
X113983333Y-66033333D01*
X114016666Y-66100000D01*
X114050000Y-66133333D01*
X114116666Y-66166666D01*
X114250000Y-66166666D01*
X114316666Y-66133333D01*
X114350000Y-66100000D01*
X114383333Y-66033333D01*
X114383333Y-65866666D01*
X114350000Y-65800000D01*
X114316666Y-65766666D01*
X114250000Y-65733333D01*
X114116666Y-65733333D01*
X114050000Y-65766666D01*
X114016666Y-65800000D01*
X113983333Y-65866666D01*
X95533333Y-55800000D02*
X95866666Y-55566666D01*
X95533333Y-55400000D02*
X96233333Y-55400000D01*
X96233333Y-55666666D01*
X96200000Y-55733333D01*
X96166666Y-55766666D01*
X96100000Y-55800000D01*
X96000000Y-55800000D01*
X95933333Y-55766666D01*
X95900000Y-55733333D01*
X95866666Y-55666666D01*
X95866666Y-55400000D01*
X95533333Y-56466666D02*
X95533333Y-56066666D01*
X95533333Y-56266666D02*
X96233333Y-56266666D01*
X96133333Y-56200000D01*
X96066666Y-56133333D01*
X96033333Y-56066666D01*
X95533333Y-57133333D02*
X95533333Y-56733333D01*
X95533333Y-56933333D02*
X96233333Y-56933333D01*
X96133333Y-56866666D01*
X96066666Y-56800000D01*
X96033333Y-56733333D01*
X98533333Y-54516666D02*
X98533333Y-53816666D01*
X98700000Y-53816666D01*
X98800000Y-53850000D01*
X98866666Y-53916666D01*
X98900000Y-53983333D01*
X98933333Y-54116666D01*
X98933333Y-54216666D01*
X98900000Y-54350000D01*
X98866666Y-54416666D01*
X98800000Y-54483333D01*
X98700000Y-54516666D01*
X98533333Y-54516666D01*
X99600000Y-54516666D02*
X99200000Y-54516666D01*
X99400000Y-54516666D02*
X99400000Y-53816666D01*
X99333333Y-53916666D01*
X99266666Y-53983333D01*
X99200000Y-54016666D01*
X99466666Y-82900000D02*
X99133333Y-83133333D01*
X99466666Y-83300000D02*
X98766666Y-83300000D01*
X98766666Y-83033333D01*
X98800000Y-82966666D01*
X98833333Y-82933333D01*
X98900000Y-82900000D01*
X99000000Y-82900000D01*
X99066666Y-82933333D01*
X99100000Y-82966666D01*
X99133333Y-83033333D01*
X99133333Y-83300000D01*
X99466666Y-82233333D02*
X99466666Y-82633333D01*
X99466666Y-82433333D02*
X98766666Y-82433333D01*
X98866666Y-82500000D01*
X98933333Y-82566666D01*
X98966666Y-82633333D01*
X98766666Y-81800000D02*
X98766666Y-81733333D01*
X98800000Y-81666666D01*
X98833333Y-81633333D01*
X98900000Y-81600000D01*
X99033333Y-81566666D01*
X99200000Y-81566666D01*
X99333333Y-81600000D01*
X99400000Y-81633333D01*
X99433333Y-81666666D01*
X99466666Y-81733333D01*
X99466666Y-81800000D01*
X99433333Y-81866666D01*
X99400000Y-81900000D01*
X99333333Y-81933333D01*
X99200000Y-81966666D01*
X99033333Y-81966666D01*
X98900000Y-81933333D01*
X98833333Y-81900000D01*
X98800000Y-81866666D01*
X98766666Y-81800000D01*
X99391666Y-79616666D02*
X99058333Y-79850000D01*
X99391666Y-80016666D02*
X98691666Y-80016666D01*
X98691666Y-79750000D01*
X98725000Y-79683333D01*
X98758333Y-79650000D01*
X98825000Y-79616666D01*
X98925000Y-79616666D01*
X98991666Y-79650000D01*
X99025000Y-79683333D01*
X99058333Y-79750000D01*
X99058333Y-80016666D01*
X99391666Y-79283333D02*
X99391666Y-79150000D01*
X99358333Y-79083333D01*
X99325000Y-79050000D01*
X99225000Y-78983333D01*
X99091666Y-78950000D01*
X98825000Y-78950000D01*
X98758333Y-78983333D01*
X98725000Y-79016666D01*
X98691666Y-79083333D01*
X98691666Y-79216666D01*
X98725000Y-79283333D01*
X98758333Y-79316666D01*
X98825000Y-79350000D01*
X98991666Y-79350000D01*
X99058333Y-79316666D01*
X99091666Y-79283333D01*
X99125000Y-79216666D01*
X99125000Y-79083333D01*
X99091666Y-79016666D01*
X99058333Y-78983333D01*
X98991666Y-78950000D01*
X90650000Y-81750000D02*
X90683333Y-81783333D01*
X90716666Y-81883333D01*
X90716666Y-81950000D01*
X90683333Y-82050000D01*
X90616666Y-82116666D01*
X90550000Y-82150000D01*
X90416666Y-82183333D01*
X90316666Y-82183333D01*
X90183333Y-82150000D01*
X90116666Y-82116666D01*
X90050000Y-82050000D01*
X90016666Y-81950000D01*
X90016666Y-81883333D01*
X90050000Y-81783333D01*
X90083333Y-81750000D01*
X90716666Y-81083333D02*
X90716666Y-81483333D01*
X90716666Y-81283333D02*
X90016666Y-81283333D01*
X90116666Y-81350000D01*
X90183333Y-81416666D01*
X90216666Y-81483333D01*
X90716666Y-80750000D02*
X90716666Y-80616666D01*
X90683333Y-80550000D01*
X90650000Y-80516666D01*
X90550000Y-80450000D01*
X90416666Y-80416666D01*
X90150000Y-80416666D01*
X90083333Y-80450000D01*
X90050000Y-80483333D01*
X90016666Y-80550000D01*
X90016666Y-80683333D01*
X90050000Y-80750000D01*
X90083333Y-80783333D01*
X90150000Y-80816666D01*
X90316666Y-80816666D01*
X90383333Y-80783333D01*
X90416666Y-80750000D01*
X90450000Y-80683333D01*
X90450000Y-80550000D01*
X90416666Y-80483333D01*
X90383333Y-80450000D01*
X90316666Y-80416666D01*
X106108333Y-62491666D02*
X105875000Y-62158333D01*
X105708333Y-62491666D02*
X105708333Y-61791666D01*
X105975000Y-61791666D01*
X106041666Y-61825000D01*
X106075000Y-61858333D01*
X106108333Y-61925000D01*
X106108333Y-62025000D01*
X106075000Y-62091666D01*
X106041666Y-62125000D01*
X105975000Y-62158333D01*
X105708333Y-62158333D01*
X106508333Y-62091666D02*
X106441666Y-62058333D01*
X106408333Y-62025000D01*
X106375000Y-61958333D01*
X106375000Y-61925000D01*
X106408333Y-61858333D01*
X106441666Y-61825000D01*
X106508333Y-61791666D01*
X106641666Y-61791666D01*
X106708333Y-61825000D01*
X106741666Y-61858333D01*
X106775000Y-61925000D01*
X106775000Y-61958333D01*
X106741666Y-62025000D01*
X106708333Y-62058333D01*
X106641666Y-62091666D01*
X106508333Y-62091666D01*
X106441666Y-62125000D01*
X106408333Y-62158333D01*
X106375000Y-62225000D01*
X106375000Y-62358333D01*
X106408333Y-62425000D01*
X106441666Y-62458333D01*
X106508333Y-62491666D01*
X106641666Y-62491666D01*
X106708333Y-62458333D01*
X106741666Y-62425000D01*
X106775000Y-62358333D01*
X106775000Y-62225000D01*
X106741666Y-62158333D01*
X106708333Y-62125000D01*
X106641666Y-62091666D01*
X106850000Y-63350000D02*
X106816666Y-63316666D01*
X106783333Y-63216666D01*
X106783333Y-63150000D01*
X106816666Y-63050000D01*
X106883333Y-62983333D01*
X106950000Y-62950000D01*
X107083333Y-62916666D01*
X107183333Y-62916666D01*
X107316666Y-62950000D01*
X107383333Y-62983333D01*
X107450000Y-63050000D01*
X107483333Y-63150000D01*
X107483333Y-63216666D01*
X107450000Y-63316666D01*
X107416666Y-63350000D01*
X106783333Y-64016666D02*
X106783333Y-63616666D01*
X106783333Y-63816666D02*
X107483333Y-63816666D01*
X107383333Y-63750000D01*
X107316666Y-63683333D01*
X107283333Y-63616666D01*
X107183333Y-64416666D02*
X107216666Y-64350000D01*
X107250000Y-64316666D01*
X107316666Y-64283333D01*
X107350000Y-64283333D01*
X107416666Y-64316666D01*
X107450000Y-64350000D01*
X107483333Y-64416666D01*
X107483333Y-64550000D01*
X107450000Y-64616666D01*
X107416666Y-64650000D01*
X107350000Y-64683333D01*
X107316666Y-64683333D01*
X107250000Y-64650000D01*
X107216666Y-64616666D01*
X107183333Y-64550000D01*
X107183333Y-64416666D01*
X107150000Y-64350000D01*
X107116666Y-64316666D01*
X107050000Y-64283333D01*
X106916666Y-64283333D01*
X106850000Y-64316666D01*
X106816666Y-64350000D01*
X106783333Y-64416666D01*
X106783333Y-64550000D01*
X106816666Y-64616666D01*
X106850000Y-64650000D01*
X106916666Y-64683333D01*
X107050000Y-64683333D01*
X107116666Y-64650000D01*
X107150000Y-64616666D01*
X107183333Y-64550000D01*
X112691666Y-64933333D02*
X113258333Y-64933333D01*
X113325000Y-64900000D01*
X113358333Y-64866666D01*
X113391666Y-64800000D01*
X113391666Y-64666666D01*
X113358333Y-64600000D01*
X113325000Y-64566666D01*
X113258333Y-64533333D01*
X112691666Y-64533333D01*
X112691666Y-63900000D02*
X112691666Y-64033333D01*
X112725000Y-64100000D01*
X112758333Y-64133333D01*
X112858333Y-64200000D01*
X112991666Y-64233333D01*
X113258333Y-64233333D01*
X113325000Y-64200000D01*
X113358333Y-64166666D01*
X113391666Y-64100000D01*
X113391666Y-63966666D01*
X113358333Y-63900000D01*
X113325000Y-63866666D01*
X113258333Y-63833333D01*
X113091666Y-63833333D01*
X113025000Y-63866666D01*
X112991666Y-63900000D01*
X112958333Y-63966666D01*
X112958333Y-64100000D01*
X112991666Y-64166666D01*
X113025000Y-64200000D01*
X113091666Y-64233333D01*
X93991666Y-78591666D02*
X93991666Y-79158333D01*
X94025000Y-79225000D01*
X94058333Y-79258333D01*
X94125000Y-79291666D01*
X94258333Y-79291666D01*
X94325000Y-79258333D01*
X94358333Y-79225000D01*
X94391666Y-79158333D01*
X94391666Y-78591666D01*
X95058333Y-78591666D02*
X94725000Y-78591666D01*
X94691666Y-78925000D01*
X94725000Y-78891666D01*
X94791666Y-78858333D01*
X94958333Y-78858333D01*
X95025000Y-78891666D01*
X95058333Y-78925000D01*
X95091666Y-78991666D01*
X95091666Y-79158333D01*
X95058333Y-79225000D01*
X95025000Y-79258333D01*
X94958333Y-79291666D01*
X94791666Y-79291666D01*
X94725000Y-79258333D01*
X94691666Y-79225000D01*
X115583333Y-63816666D02*
X115583333Y-63116666D01*
X115850000Y-63116666D01*
X115916666Y-63150000D01*
X115950000Y-63183333D01*
X115983333Y-63250000D01*
X115983333Y-63350000D01*
X115950000Y-63416666D01*
X115916666Y-63450000D01*
X115850000Y-63483333D01*
X115583333Y-63483333D01*
X116650000Y-63816666D02*
X116250000Y-63816666D01*
X116450000Y-63816666D02*
X116450000Y-63116666D01*
X116383333Y-63216666D01*
X116316666Y-63283333D01*
X116250000Y-63316666D01*
X113716666Y-73550000D02*
X113683333Y-73650000D01*
X113683333Y-73816666D01*
X113716666Y-73883333D01*
X113750000Y-73916666D01*
X113816666Y-73950000D01*
X113883333Y-73950000D01*
X113950000Y-73916666D01*
X113983333Y-73883333D01*
X114016666Y-73816666D01*
X114050000Y-73683333D01*
X114083333Y-73616666D01*
X114116666Y-73583333D01*
X114183333Y-73550000D01*
X114250000Y-73550000D01*
X114316666Y-73583333D01*
X114350000Y-73616666D01*
X114383333Y-73683333D01*
X114383333Y-73850000D01*
X114350000Y-73950000D01*
X114383333Y-74183333D02*
X113683333Y-74350000D01*
X114183333Y-74483333D01*
X113683333Y-74616666D01*
X114383333Y-74783333D01*
X113683333Y-75050000D02*
X114383333Y-75050000D01*
X114383333Y-75216666D01*
X114350000Y-75316666D01*
X114283333Y-75383333D01*
X114216666Y-75416666D01*
X114083333Y-75450000D01*
X113983333Y-75450000D01*
X113850000Y-75416666D01*
X113783333Y-75383333D01*
X113716666Y-75316666D01*
X113683333Y-75216666D01*
X113683333Y-75050000D01*
X111550000Y-78750000D02*
X111516666Y-78783333D01*
X111416666Y-78816666D01*
X111350000Y-78816666D01*
X111250000Y-78783333D01*
X111183333Y-78716666D01*
X111150000Y-78650000D01*
X111116666Y-78516666D01*
X111116666Y-78416666D01*
X111150000Y-78283333D01*
X111183333Y-78216666D01*
X111250000Y-78150000D01*
X111350000Y-78116666D01*
X111416666Y-78116666D01*
X111516666Y-78150000D01*
X111550000Y-78183333D01*
X112216666Y-78816666D02*
X111816666Y-78816666D01*
X112016666Y-78816666D02*
X112016666Y-78116666D01*
X111950000Y-78216666D01*
X111883333Y-78283333D01*
X111816666Y-78316666D01*
X112450000Y-78116666D02*
X112916666Y-78116666D01*
X112616666Y-78816666D01*
X102425000Y-64950000D02*
X102391666Y-64983333D01*
X102291666Y-65016666D01*
X102225000Y-65016666D01*
X102125000Y-64983333D01*
X102058333Y-64916666D01*
X102025000Y-64850000D01*
X101991666Y-64716666D01*
X101991666Y-64616666D01*
X102025000Y-64483333D01*
X102058333Y-64416666D01*
X102125000Y-64350000D01*
X102225000Y-64316666D01*
X102291666Y-64316666D01*
X102391666Y-64350000D01*
X102425000Y-64383333D01*
X103091666Y-65016666D02*
X102691666Y-65016666D01*
X102891666Y-65016666D02*
X102891666Y-64316666D01*
X102825000Y-64416666D01*
X102758333Y-64483333D01*
X102691666Y-64516666D01*
X103725000Y-64316666D02*
X103391666Y-64316666D01*
X103358333Y-64650000D01*
X103391666Y-64616666D01*
X103458333Y-64583333D01*
X103625000Y-64583333D01*
X103691666Y-64616666D01*
X103725000Y-64650000D01*
X103758333Y-64716666D01*
X103758333Y-64883333D01*
X103725000Y-64950000D01*
X103691666Y-64983333D01*
X103625000Y-65016666D01*
X103458333Y-65016666D01*
X103391666Y-64983333D01*
X103358333Y-64950000D01*
X112950000Y-67850000D02*
X112916666Y-67816666D01*
X112883333Y-67716666D01*
X112883333Y-67650000D01*
X112916666Y-67550000D01*
X112983333Y-67483333D01*
X113050000Y-67450000D01*
X113183333Y-67416666D01*
X113283333Y-67416666D01*
X113416666Y-67450000D01*
X113483333Y-67483333D01*
X113550000Y-67550000D01*
X113583333Y-67650000D01*
X113583333Y-67716666D01*
X113550000Y-67816666D01*
X113516666Y-67850000D01*
X112883333Y-68516666D02*
X112883333Y-68116666D01*
X112883333Y-68316666D02*
X113583333Y-68316666D01*
X113483333Y-68250000D01*
X113416666Y-68183333D01*
X113383333Y-68116666D01*
X113350000Y-69116666D02*
X112883333Y-69116666D01*
X113616666Y-68950000D02*
X113116666Y-68783333D01*
X113116666Y-69216666D01*
X96250000Y-71150000D02*
X96283333Y-71183333D01*
X96316666Y-71283333D01*
X96316666Y-71350000D01*
X96283333Y-71450000D01*
X96216666Y-71516666D01*
X96150000Y-71550000D01*
X96016666Y-71583333D01*
X95916666Y-71583333D01*
X95783333Y-71550000D01*
X95716666Y-71516666D01*
X95650000Y-71450000D01*
X95616666Y-71350000D01*
X95616666Y-71283333D01*
X95650000Y-71183333D01*
X95683333Y-71150000D01*
X96316666Y-70483333D02*
X96316666Y-70883333D01*
X96316666Y-70683333D02*
X95616666Y-70683333D01*
X95716666Y-70750000D01*
X95783333Y-70816666D01*
X95816666Y-70883333D01*
X95616666Y-70250000D02*
X95616666Y-69816666D01*
X95883333Y-70050000D01*
X95883333Y-69950000D01*
X95916666Y-69883333D01*
X95950000Y-69850000D01*
X96016666Y-69816666D01*
X96183333Y-69816666D01*
X96250000Y-69850000D01*
X96283333Y-69883333D01*
X96316666Y-69950000D01*
X96316666Y-70150000D01*
X96283333Y-70216666D01*
X96250000Y-70250000D01*
X105450000Y-66200000D02*
X105416666Y-66233333D01*
X105316666Y-66266666D01*
X105250000Y-66266666D01*
X105150000Y-66233333D01*
X105083333Y-66166666D01*
X105050000Y-66100000D01*
X105016666Y-65966666D01*
X105016666Y-65866666D01*
X105050000Y-65733333D01*
X105083333Y-65666666D01*
X105150000Y-65600000D01*
X105250000Y-65566666D01*
X105316666Y-65566666D01*
X105416666Y-65600000D01*
X105450000Y-65633333D01*
X106116666Y-66266666D02*
X105716666Y-66266666D01*
X105916666Y-66266666D02*
X105916666Y-65566666D01*
X105850000Y-65666666D01*
X105783333Y-65733333D01*
X105716666Y-65766666D01*
X106383333Y-65633333D02*
X106416666Y-65600000D01*
X106483333Y-65566666D01*
X106650000Y-65566666D01*
X106716666Y-65600000D01*
X106750000Y-65633333D01*
X106783333Y-65700000D01*
X106783333Y-65766666D01*
X106750000Y-65866666D01*
X106350000Y-66266666D01*
X106783333Y-66266666D01*
X96750000Y-76950000D02*
X96783333Y-76983333D01*
X96816666Y-77083333D01*
X96816666Y-77150000D01*
X96783333Y-77250000D01*
X96716666Y-77316666D01*
X96650000Y-77350000D01*
X96516666Y-77383333D01*
X96416666Y-77383333D01*
X96283333Y-77350000D01*
X96216666Y-77316666D01*
X96150000Y-77250000D01*
X96116666Y-77150000D01*
X96116666Y-77083333D01*
X96150000Y-76983333D01*
X96183333Y-76950000D01*
X96816666Y-76283333D02*
X96816666Y-76683333D01*
X96816666Y-76483333D02*
X96116666Y-76483333D01*
X96216666Y-76550000D01*
X96283333Y-76616666D01*
X96316666Y-76683333D01*
X96116666Y-75850000D02*
X96116666Y-75783333D01*
X96150000Y-75716666D01*
X96183333Y-75683333D01*
X96250000Y-75650000D01*
X96383333Y-75616666D01*
X96550000Y-75616666D01*
X96683333Y-75650000D01*
X96750000Y-75683333D01*
X96783333Y-75716666D01*
X96816666Y-75783333D01*
X96816666Y-75850000D01*
X96783333Y-75916666D01*
X96750000Y-75950000D01*
X96683333Y-75983333D01*
X96550000Y-76016666D01*
X96383333Y-76016666D01*
X96250000Y-75983333D01*
X96183333Y-75950000D01*
X96150000Y-75916666D01*
X96116666Y-75850000D01*
X99166666Y-63196666D02*
X98833333Y-63196666D01*
X99533333Y-62963333D02*
X99166666Y-63196666D01*
X99533333Y-63430000D01*
X98833333Y-64030000D02*
X98833333Y-63630000D01*
X98833333Y-63830000D02*
X99533333Y-63830000D01*
X99433333Y-63763333D01*
X99366666Y-63696666D01*
X99333333Y-63630000D01*
X97033333Y-60080000D02*
X97000000Y-60113333D01*
X96900000Y-60146666D01*
X96833333Y-60146666D01*
X96733333Y-60113333D01*
X96666666Y-60046666D01*
X96633333Y-59980000D01*
X96600000Y-59846666D01*
X96600000Y-59746666D01*
X96633333Y-59613333D01*
X96666666Y-59546666D01*
X96733333Y-59480000D01*
X96833333Y-59446666D01*
X96900000Y-59446666D01*
X97000000Y-59480000D01*
X97033333Y-59513333D01*
X97366666Y-60146666D02*
X97500000Y-60146666D01*
X97566666Y-60113333D01*
X97600000Y-60080000D01*
X97666666Y-59980000D01*
X97700000Y-59846666D01*
X97700000Y-59580000D01*
X97666666Y-59513333D01*
X97633333Y-59480000D01*
X97566666Y-59446666D01*
X97433333Y-59446666D01*
X97366666Y-59480000D01*
X97333333Y-59513333D01*
X97300000Y-59580000D01*
X97300000Y-59746666D01*
X97333333Y-59813333D01*
X97366666Y-59846666D01*
X97433333Y-59880000D01*
X97566666Y-59880000D01*
X97633333Y-59846666D01*
X97666666Y-59813333D01*
X97700000Y-59746666D01*
X96808333Y-67575000D02*
X96775000Y-67608333D01*
X96675000Y-67641666D01*
X96608333Y-67641666D01*
X96508333Y-67608333D01*
X96441666Y-67541666D01*
X96408333Y-67475000D01*
X96375000Y-67341666D01*
X96375000Y-67241666D01*
X96408333Y-67108333D01*
X96441666Y-67041666D01*
X96508333Y-66975000D01*
X96608333Y-66941666D01*
X96675000Y-66941666D01*
X96775000Y-66975000D01*
X96808333Y-67008333D01*
X97208333Y-67241666D02*
X97141666Y-67208333D01*
X97108333Y-67175000D01*
X97075000Y-67108333D01*
X97075000Y-67075000D01*
X97108333Y-67008333D01*
X97141666Y-66975000D01*
X97208333Y-66941666D01*
X97341666Y-66941666D01*
X97408333Y-66975000D01*
X97441666Y-67008333D01*
X97475000Y-67075000D01*
X97475000Y-67108333D01*
X97441666Y-67175000D01*
X97408333Y-67208333D01*
X97341666Y-67241666D01*
X97208333Y-67241666D01*
X97141666Y-67275000D01*
X97108333Y-67308333D01*
X97075000Y-67375000D01*
X97075000Y-67508333D01*
X97108333Y-67575000D01*
X97141666Y-67608333D01*
X97208333Y-67641666D01*
X97341666Y-67641666D01*
X97408333Y-67608333D01*
X97441666Y-67575000D01*
X97475000Y-67508333D01*
X97475000Y-67375000D01*
X97441666Y-67308333D01*
X97408333Y-67275000D01*
X97341666Y-67241666D01*
X106116666Y-81816666D02*
X105783333Y-82050000D01*
X106116666Y-82216666D02*
X105416666Y-82216666D01*
X105416666Y-81950000D01*
X105450000Y-81883333D01*
X105483333Y-81850000D01*
X105550000Y-81816666D01*
X105650000Y-81816666D01*
X105716666Y-81850000D01*
X105750000Y-81883333D01*
X105783333Y-81950000D01*
X105783333Y-82216666D01*
X105416666Y-81583333D02*
X105416666Y-81116666D01*
X106116666Y-81416666D01*
X106166666Y-83416666D02*
X105833333Y-83650000D01*
X106166666Y-83816666D02*
X105466666Y-83816666D01*
X105466666Y-83550000D01*
X105500000Y-83483333D01*
X105533333Y-83450000D01*
X105600000Y-83416666D01*
X105700000Y-83416666D01*
X105766666Y-83450000D01*
X105800000Y-83483333D01*
X105833333Y-83550000D01*
X105833333Y-83816666D01*
X105466666Y-82816666D02*
X105466666Y-82950000D01*
X105500000Y-83016666D01*
X105533333Y-83050000D01*
X105633333Y-83116666D01*
X105766666Y-83150000D01*
X106033333Y-83150000D01*
X106100000Y-83116666D01*
X106133333Y-83083333D01*
X106166666Y-83016666D01*
X106166666Y-82883333D01*
X106133333Y-82816666D01*
X106100000Y-82783333D01*
X106033333Y-82750000D01*
X105866666Y-82750000D01*
X105800000Y-82783333D01*
X105766666Y-82816666D01*
X105733333Y-82883333D01*
X105733333Y-83016666D01*
X105766666Y-83083333D01*
X105800000Y-83116666D01*
X105866666Y-83150000D01*
X113283333Y-82016666D02*
X113283333Y-81316666D01*
X113450000Y-81316666D01*
X113550000Y-81350000D01*
X113616666Y-81416666D01*
X113650000Y-81483333D01*
X113683333Y-81616666D01*
X113683333Y-81716666D01*
X113650000Y-81850000D01*
X113616666Y-81916666D01*
X113550000Y-81983333D01*
X113450000Y-82016666D01*
X113283333Y-82016666D01*
X113916666Y-81316666D02*
X114350000Y-81316666D01*
X114116666Y-81583333D01*
X114216666Y-81583333D01*
X114283333Y-81616666D01*
X114316666Y-81650000D01*
X114350000Y-81716666D01*
X114350000Y-81883333D01*
X114316666Y-81950000D01*
X114283333Y-81983333D01*
X114216666Y-82016666D01*
X114016666Y-82016666D01*
X113950000Y-81983333D01*
X113916666Y-81950000D01*
X113283333Y-83816666D02*
X113283333Y-83116666D01*
X113450000Y-83116666D01*
X113550000Y-83150000D01*
X113616666Y-83216666D01*
X113650000Y-83283333D01*
X113683333Y-83416666D01*
X113683333Y-83516666D01*
X113650000Y-83650000D01*
X113616666Y-83716666D01*
X113550000Y-83783333D01*
X113450000Y-83816666D01*
X113283333Y-83816666D01*
X113950000Y-83183333D02*
X113983333Y-83150000D01*
X114050000Y-83116666D01*
X114216666Y-83116666D01*
X114283333Y-83150000D01*
X114316666Y-83183333D01*
X114350000Y-83250000D01*
X114350000Y-83316666D01*
X114316666Y-83416666D01*
X113916666Y-83816666D01*
X114350000Y-83816666D01*
X67666666Y-67216666D02*
X67666666Y-67783333D01*
X67700000Y-67850000D01*
X67733333Y-67883333D01*
X67800000Y-67916666D01*
X67933333Y-67916666D01*
X68000000Y-67883333D01*
X68033333Y-67850000D01*
X68066666Y-67783333D01*
X68066666Y-67216666D01*
X68333333Y-67216666D02*
X68766666Y-67216666D01*
X68533333Y-67483333D01*
X68633333Y-67483333D01*
X68700000Y-67516666D01*
X68733333Y-67550000D01*
X68766666Y-67616666D01*
X68766666Y-67783333D01*
X68733333Y-67850000D01*
X68700000Y-67883333D01*
X68633333Y-67916666D01*
X68433333Y-67916666D01*
X68366666Y-67883333D01*
X68333333Y-67850000D01*
X112416666Y-74233333D02*
X112983333Y-74233333D01*
X113050000Y-74200000D01*
X113083333Y-74166666D01*
X113116666Y-74100000D01*
X113116666Y-73966666D01*
X113083333Y-73900000D01*
X113050000Y-73866666D01*
X112983333Y-73833333D01*
X112416666Y-73833333D01*
X112483333Y-73533333D02*
X112450000Y-73500000D01*
X112416666Y-73433333D01*
X112416666Y-73266666D01*
X112450000Y-73200000D01*
X112483333Y-73166666D01*
X112550000Y-73133333D01*
X112616666Y-73133333D01*
X112716666Y-73166666D01*
X113116666Y-73566666D01*
X113116666Y-73133333D01*
X69191666Y-59691666D02*
X68858333Y-59925000D01*
X69191666Y-60091666D02*
X68491666Y-60091666D01*
X68491666Y-59825000D01*
X68525000Y-59758333D01*
X68558333Y-59725000D01*
X68625000Y-59691666D01*
X68725000Y-59691666D01*
X68791666Y-59725000D01*
X68825000Y-59758333D01*
X68858333Y-59825000D01*
X68858333Y-60091666D01*
X68558333Y-59425000D02*
X68525000Y-59391666D01*
X68491666Y-59325000D01*
X68491666Y-59158333D01*
X68525000Y-59091666D01*
X68558333Y-59058333D01*
X68625000Y-59025000D01*
X68691666Y-59025000D01*
X68791666Y-59058333D01*
X69191666Y-59458333D01*
X69191666Y-59025000D01*
X79683333Y-61766666D02*
X79450000Y-61433333D01*
X79283333Y-61766666D02*
X79283333Y-61066666D01*
X79550000Y-61066666D01*
X79616666Y-61100000D01*
X79650000Y-61133333D01*
X79683333Y-61200000D01*
X79683333Y-61300000D01*
X79650000Y-61366666D01*
X79616666Y-61400000D01*
X79550000Y-61433333D01*
X79283333Y-61433333D01*
X80350000Y-61766666D02*
X79950000Y-61766666D01*
X80150000Y-61766666D02*
X80150000Y-61066666D01*
X80083333Y-61166666D01*
X80016666Y-61233333D01*
X79950000Y-61266666D01*
X76816666Y-68616666D02*
X76816666Y-68950000D01*
X76116666Y-68950000D01*
X76816666Y-68016666D02*
X76816666Y-68416666D01*
X76816666Y-68216666D02*
X76116666Y-68216666D01*
X76216666Y-68283333D01*
X76283333Y-68350000D01*
X76316666Y-68416666D01*
X111316666Y-89833333D02*
X111816666Y-89833333D01*
X111916666Y-89866666D01*
X111983333Y-89933333D01*
X112016666Y-90033333D01*
X112016666Y-90100000D01*
X111383333Y-89533333D02*
X111350000Y-89500000D01*
X111316666Y-89433333D01*
X111316666Y-89266666D01*
X111350000Y-89200000D01*
X111383333Y-89166666D01*
X111450000Y-89133333D01*
X111516666Y-89133333D01*
X111616666Y-89166666D01*
X112016666Y-89566666D01*
X112016666Y-89133333D01*
X97016666Y-89633333D02*
X97516666Y-89633333D01*
X97616666Y-89666666D01*
X97683333Y-89733333D01*
X97716666Y-89833333D01*
X97716666Y-89900000D01*
X97716666Y-88933333D02*
X97716666Y-89333333D01*
X97716666Y-89133333D02*
X97016666Y-89133333D01*
X97116666Y-89200000D01*
X97183333Y-89266666D01*
X97216666Y-89333333D01*
X74308333Y-61525000D02*
X74275000Y-61558333D01*
X74175000Y-61591666D01*
X74108333Y-61591666D01*
X74008333Y-61558333D01*
X73941666Y-61491666D01*
X73908333Y-61425000D01*
X73875000Y-61291666D01*
X73875000Y-61191666D01*
X73908333Y-61058333D01*
X73941666Y-60991666D01*
X74008333Y-60925000D01*
X74108333Y-60891666D01*
X74175000Y-60891666D01*
X74275000Y-60925000D01*
X74308333Y-60958333D01*
X74941666Y-60891666D02*
X74608333Y-60891666D01*
X74575000Y-61225000D01*
X74608333Y-61191666D01*
X74675000Y-61158333D01*
X74841666Y-61158333D01*
X74908333Y-61191666D01*
X74941666Y-61225000D01*
X74975000Y-61291666D01*
X74975000Y-61458333D01*
X74941666Y-61525000D01*
X74908333Y-61558333D01*
X74841666Y-61591666D01*
X74675000Y-61591666D01*
X74608333Y-61558333D01*
X74575000Y-61525000D01*
X85400000Y-65083333D02*
X85366666Y-65050000D01*
X85333333Y-64950000D01*
X85333333Y-64883333D01*
X85366666Y-64783333D01*
X85433333Y-64716666D01*
X85500000Y-64683333D01*
X85633333Y-64650000D01*
X85733333Y-64650000D01*
X85866666Y-64683333D01*
X85933333Y-64716666D01*
X86000000Y-64783333D01*
X86033333Y-64883333D01*
X86033333Y-64950000D01*
X86000000Y-65050000D01*
X85966666Y-65083333D01*
X85800000Y-65683333D02*
X85333333Y-65683333D01*
X86066666Y-65516666D02*
X85566666Y-65350000D01*
X85566666Y-65783333D01*
X75425000Y-67791666D02*
X75458333Y-67825000D01*
X75491666Y-67925000D01*
X75491666Y-67991666D01*
X75458333Y-68091666D01*
X75391666Y-68158333D01*
X75325000Y-68191666D01*
X75191666Y-68225000D01*
X75091666Y-68225000D01*
X74958333Y-68191666D01*
X74891666Y-68158333D01*
X74825000Y-68091666D01*
X74791666Y-67991666D01*
X74791666Y-67925000D01*
X74825000Y-67825000D01*
X74858333Y-67791666D01*
X74791666Y-67558333D02*
X74791666Y-67125000D01*
X75058333Y-67358333D01*
X75058333Y-67258333D01*
X75091666Y-67191666D01*
X75125000Y-67158333D01*
X75191666Y-67125000D01*
X75358333Y-67125000D01*
X75425000Y-67158333D01*
X75458333Y-67191666D01*
X75491666Y-67258333D01*
X75491666Y-67458333D01*
X75458333Y-67525000D01*
X75425000Y-67558333D01*
X71333333Y-61700000D02*
X71300000Y-61733333D01*
X71200000Y-61766666D01*
X71133333Y-61766666D01*
X71033333Y-61733333D01*
X70966666Y-61666666D01*
X70933333Y-61600000D01*
X70900000Y-61466666D01*
X70900000Y-61366666D01*
X70933333Y-61233333D01*
X70966666Y-61166666D01*
X71033333Y-61100000D01*
X71133333Y-61066666D01*
X71200000Y-61066666D01*
X71300000Y-61100000D01*
X71333333Y-61133333D01*
X71600000Y-61133333D02*
X71633333Y-61100000D01*
X71700000Y-61066666D01*
X71866666Y-61066666D01*
X71933333Y-61100000D01*
X71966666Y-61133333D01*
X72000000Y-61200000D01*
X72000000Y-61266666D01*
X71966666Y-61366666D01*
X71566666Y-61766666D01*
X72000000Y-61766666D01*
X73808333Y-68225000D02*
X73775000Y-68258333D01*
X73675000Y-68291666D01*
X73608333Y-68291666D01*
X73508333Y-68258333D01*
X73441666Y-68191666D01*
X73408333Y-68125000D01*
X73375000Y-67991666D01*
X73375000Y-67891666D01*
X73408333Y-67758333D01*
X73441666Y-67691666D01*
X73508333Y-67625000D01*
X73608333Y-67591666D01*
X73675000Y-67591666D01*
X73775000Y-67625000D01*
X73808333Y-67658333D01*
X74475000Y-68291666D02*
X74075000Y-68291666D01*
X74275000Y-68291666D02*
X74275000Y-67591666D01*
X74208333Y-67691666D01*
X74141666Y-67758333D01*
X74075000Y-67791666D01*
M02*
