G04 ================== begin FILE IDENTIFICATION RECORD ==================*
G04 Layout Name:  CC2538_CC2592EM_shield.BRD*
G04 Film Name:    assembly_top*
G04 File Format:  Gerber RS274X*
G04 File Origin:  Cadence Allegro 16.6-S019*
G04 Origin Date:  Tue Nov 26 15:06:45 2013*
G04 *
G04 Layer:  REF DES/ASSEMBLY_TOP*
G04 Layer:  PACKAGE GEOMETRY/ASSEMBLY_TOP*
G04 Layer:  BOARD GEOMETRY/OUTLINE*
G04 *
G04 Offset:    (0.000 0.000)*
G04 Mirror:    No*
G04 Mode:      Positive*
G04 Rotation:  0*
G04 FullContactRelief:  No*
G04 UndefLineWidth:     0.020*
G04 ================== end FILE IDENTIFICATION RECORD ====================*
%FSLAX44Y44*MOMM*%
%IR0*IPPOS*OFA0.00000B0.00000*MIA0B0*SFA1.00000B1.00000*%
%ADD10C,.05*%
%ADD11C,.02*%
G75*
%LPD*%
G75*
G54D10*
G01X1074060Y938900D02*
Y944500D01*
X1076340D01*
G01X1075500Y941790D02*
X1074060D01*
G01X1078580Y944500D02*
X1080020D01*
G01X1079300D02*
Y938900D01*
G01X1078580D02*
X1080020D01*
G01X1082080D02*
Y944500D01*
X1083280D01*
X1083760Y944220D01*
X1084120Y943850D01*
X1084420Y943290D01*
X1084660Y942630D01*
X1084720Y941700D01*
X1084660Y940770D01*
X1084420Y940110D01*
X1084120Y939550D01*
X1083760Y939180D01*
X1083280Y938900D01*
X1082080D01*
G01X1086180Y944500D02*
Y940490D01*
X1086420Y939650D01*
X1086900Y939090D01*
X1087500Y938900D01*
X1088100Y939090D01*
X1088580Y939650D01*
X1088820Y940490D01*
Y944500D01*
G01X1090460Y943570D02*
X1090820Y944130D01*
X1091240Y944410D01*
X1091720Y944500D01*
X1092320Y944310D01*
X1092740Y943850D01*
X1092860Y943290D01*
X1092800Y942730D01*
X1092560Y942260D01*
X1091360Y941330D01*
X1090820Y940670D01*
X1090460Y939740D01*
X1090340Y938900D01*
X1092860D01*
G01X1061860Y1394500D02*
Y1400100D01*
X1064140D01*
G01X1063300Y1397390D02*
X1061860D01*
G01X1066380Y1400100D02*
X1067820D01*
G01X1067100D02*
Y1394500D01*
G01X1066380D02*
X1067820D01*
G01X1069880D02*
Y1400100D01*
X1071080D01*
X1071560Y1399820D01*
X1071920Y1399450D01*
X1072220Y1398890D01*
X1072460Y1398230D01*
X1072520Y1397300D01*
X1072460Y1396370D01*
X1072220Y1395710D01*
X1071920Y1395150D01*
X1071560Y1394780D01*
X1071080Y1394500D01*
X1069880D01*
G01X1073980Y1400100D02*
Y1396090D01*
X1074220Y1395250D01*
X1074700Y1394690D01*
X1075300Y1394500D01*
X1075900Y1394690D01*
X1076380Y1395250D01*
X1076620Y1396090D01*
Y1400100D01*
G01X1079400Y1394500D02*
Y1400100D01*
X1078680Y1398980D01*
G01Y1394500D02*
X1080120D01*
G01X1087300Y1172500D02*
Y1178100D01*
X1088740D01*
X1089220Y1177820D01*
X1089580Y1177170D01*
X1089700Y1176420D01*
X1089580Y1175670D01*
X1089280Y1175110D01*
X1088740Y1174830D01*
X1087300D01*
G01X1091460D02*
X1091880Y1175490D01*
X1092240Y1175860D01*
X1092720Y1176050D01*
X1093140Y1175860D01*
X1093440Y1175490D01*
X1093680Y1174930D01*
X1093740Y1174270D01*
X1093680Y1173710D01*
X1093440Y1173150D01*
X1093080Y1172690D01*
X1092660Y1172500D01*
X1092180Y1172690D01*
X1091760Y1173250D01*
X1091520Y1174090D01*
X1091460Y1175020D01*
X1091580Y1176230D01*
X1091760Y1176890D01*
X1092060Y1177540D01*
X1092480Y1178010D01*
X1092900Y1178100D01*
X1093320Y1177910D01*
X1093620Y1177450D01*
G01X1113600Y1335120D02*
X1113900Y1334560D01*
X1114260Y1334190D01*
X1114680Y1334000D01*
X1115160Y1334190D01*
X1115520Y1334560D01*
X1115880Y1335120D01*
X1116000Y1335870D01*
Y1339600D01*
G01X1117580Y1335120D02*
X1117940Y1334470D01*
X1118420Y1334090D01*
X1118960Y1334000D01*
X1119440Y1334090D01*
X1119920Y1334560D01*
X1120220Y1335120D01*
X1120280Y1335680D01*
X1120160Y1336330D01*
X1119740Y1336800D01*
X1119320Y1336990D01*
X1118780D01*
G01X1119320D02*
X1119680Y1337270D01*
X1119980Y1337730D01*
X1120100Y1338290D01*
X1119980Y1338850D01*
X1119680Y1339320D01*
X1119140Y1339600D01*
X1118600Y1339510D01*
X1118060Y1339130D01*
G01X1133120Y994130D02*
X1132760Y994410D01*
X1132340Y994600D01*
X1131860D01*
X1131320Y994320D01*
X1130900Y993850D01*
X1130600Y993290D01*
X1130360Y992360D01*
X1130300Y991520D01*
X1130420Y990680D01*
X1130600Y990120D01*
X1130960Y989560D01*
X1131380Y989190D01*
X1131800Y989000D01*
X1132220D01*
X1132640Y989190D01*
X1133000Y989470D01*
X1133300Y989840D01*
G01X1134760Y993670D02*
X1135120Y994230D01*
X1135540Y994510D01*
X1136020Y994600D01*
X1136620Y994410D01*
X1137040Y993950D01*
X1137160Y993390D01*
X1137100Y992830D01*
X1136860Y992360D01*
X1135660Y991430D01*
X1135120Y990770D01*
X1134760Y989840D01*
X1134640Y989000D01*
X1137160D01*
G01X1140000D02*
Y994600D01*
X1139280Y993480D01*
G01Y989000D02*
X1140720D01*
G01X1149600Y979000D02*
Y984600D01*
X1151100D01*
X1151580Y984320D01*
X1151880Y983950D01*
X1152000Y983200D01*
X1151880Y982450D01*
X1151520Y981990D01*
X1151100Y981710D01*
X1149600D01*
G01X1151100D02*
X1152000Y979000D01*
G01X1153760Y983670D02*
X1154120Y984230D01*
X1154540Y984510D01*
X1155020Y984600D01*
X1155620Y984410D01*
X1156040Y983950D01*
X1156160Y983390D01*
X1156100Y982830D01*
X1155860Y982360D01*
X1154660Y981430D01*
X1154120Y980770D01*
X1153760Y979840D01*
X1153640Y979000D01*
X1156160D01*
G01X1159000D02*
Y984600D01*
X1158280Y983480D01*
G01Y979000D02*
X1159720D01*
G01X1162600D02*
Y984600D01*
X1164100D01*
X1164580Y984320D01*
X1164880Y983950D01*
X1165000Y983200D01*
X1164880Y982450D01*
X1164520Y981990D01*
X1164100Y981710D01*
X1162600D01*
G01X1164100D02*
X1165000Y979000D01*
G01X1166580Y980120D02*
X1166940Y979470D01*
X1167420Y979090D01*
X1167960Y979000D01*
X1168440Y979090D01*
X1168920Y979560D01*
X1169220Y980120D01*
X1169280Y980680D01*
X1169160Y981330D01*
X1168740Y981800D01*
X1168320Y981990D01*
X1167780D01*
G01X1168320D02*
X1168680Y982270D01*
X1168980Y982730D01*
X1169100Y983290D01*
X1168980Y983850D01*
X1168680Y984320D01*
X1168140Y984600D01*
X1167600Y984510D01*
X1167060Y984130D01*
G01X1172000Y979000D02*
Y984600D01*
X1171280Y983480D01*
G01Y979000D02*
X1172720D01*
G01X1162100Y1085500D02*
Y1091100D01*
X1163600D01*
X1164080Y1090820D01*
X1164380Y1090450D01*
X1164500Y1089700D01*
X1164380Y1088950D01*
X1164020Y1088490D01*
X1163600Y1088210D01*
X1162100D01*
G01X1163600D02*
X1164500Y1085500D01*
G01X1167400D02*
Y1091100D01*
X1166680Y1089980D01*
G01Y1085500D02*
X1168120D01*
G01X1171500D02*
Y1091100D01*
X1170780Y1089980D01*
G01Y1085500D02*
X1172220D01*
G01X1175600D02*
Y1091100D01*
X1174880Y1089980D01*
G01Y1085500D02*
X1176320D01*
G01X1162100Y1099500D02*
Y1105100D01*
X1163600D01*
X1164080Y1104820D01*
X1164380Y1104450D01*
X1164500Y1103700D01*
X1164380Y1102950D01*
X1164020Y1102490D01*
X1163600Y1102210D01*
X1162100D01*
G01X1163600D02*
X1164500Y1099500D01*
G01X1167400D02*
Y1105100D01*
X1166680Y1103980D01*
G01Y1099500D02*
X1168120D01*
G01X1170360Y1104170D02*
X1170720Y1104730D01*
X1171140Y1105010D01*
X1171620Y1105100D01*
X1172220Y1104910D01*
X1172640Y1104450D01*
X1172760Y1103890D01*
X1172700Y1103330D01*
X1172460Y1102860D01*
X1171260Y1101930D01*
X1170720Y1101270D01*
X1170360Y1100340D01*
X1170240Y1099500D01*
X1172760D01*
G01X1175600D02*
Y1105100D01*
X1174880Y1103980D01*
G01Y1099500D02*
X1176320D01*
G01X1140100Y1154000D02*
Y1159600D01*
X1141600D01*
X1142080Y1159320D01*
X1142380Y1158950D01*
X1142500Y1158200D01*
X1142380Y1157450D01*
X1142020Y1156990D01*
X1141600Y1156710D01*
X1140100D01*
G01X1141600D02*
X1142500Y1154000D01*
G01X1146120D02*
Y1159600D01*
X1143900Y1155590D01*
X1146900D01*
G01X1148180Y1154840D02*
X1148540Y1154370D01*
X1148960Y1154090D01*
X1149500Y1154000D01*
X1150040Y1154190D01*
X1150460Y1154560D01*
X1150760Y1155210D01*
X1150820Y1155960D01*
X1150700Y1156710D01*
X1150400Y1157170D01*
X1149980Y1157550D01*
X1149560Y1157640D01*
X1149140Y1157550D01*
X1148600Y1157170D01*
X1148780Y1159600D01*
X1150400D01*
G01X1152460Y1158670D02*
X1152820Y1159230D01*
X1153240Y1159510D01*
X1153720Y1159600D01*
X1154320Y1159410D01*
X1154740Y1158950D01*
X1154860Y1158390D01*
X1154800Y1157830D01*
X1154560Y1157360D01*
X1153360Y1156430D01*
X1152820Y1155770D01*
X1152460Y1154840D01*
X1152340Y1154000D01*
X1154860D01*
G01X1159240Y1202300D02*
X1161760Y1207900D01*
G01X1159240D02*
X1161760Y1202300D01*
G01X1163460Y1206970D02*
X1163820Y1207530D01*
X1164240Y1207810D01*
X1164720Y1207900D01*
X1165320Y1207710D01*
X1165740Y1207250D01*
X1165860Y1206690D01*
X1165800Y1206130D01*
X1165560Y1205660D01*
X1164360Y1204730D01*
X1163820Y1204070D01*
X1163460Y1203140D01*
X1163340Y1202300D01*
X1165860D01*
G01X1138100Y1177000D02*
Y1182600D01*
X1139600D01*
X1140080Y1182320D01*
X1140380Y1181950D01*
X1140500Y1181200D01*
X1140380Y1180450D01*
X1140020Y1179990D01*
X1139600Y1179710D01*
X1138100D01*
G01X1139600D02*
X1140500Y1177000D01*
G01X1144120D02*
Y1182600D01*
X1141900Y1178590D01*
X1144900D01*
G01X1146180Y1177840D02*
X1146540Y1177370D01*
X1146960Y1177090D01*
X1147500Y1177000D01*
X1148040Y1177190D01*
X1148460Y1177560D01*
X1148760Y1178210D01*
X1148820Y1178960D01*
X1148700Y1179710D01*
X1148400Y1180170D01*
X1147980Y1180550D01*
X1147560Y1180640D01*
X1147140Y1180550D01*
X1146600Y1180170D01*
X1146780Y1182600D01*
X1148400D01*
G01X1151600Y1177000D02*
Y1182600D01*
X1150880Y1181480D01*
G01Y1177000D02*
X1152320D01*
G01X1136020Y1222530D02*
X1135660Y1222810D01*
X1135240Y1223000D01*
X1134760D01*
X1134220Y1222720D01*
X1133800Y1222250D01*
X1133500Y1221690D01*
X1133260Y1220760D01*
X1133200Y1219920D01*
X1133320Y1219080D01*
X1133500Y1218520D01*
X1133860Y1217960D01*
X1134280Y1217590D01*
X1134700Y1217400D01*
X1135120D01*
X1135540Y1217590D01*
X1135900Y1217870D01*
X1136200Y1218240D01*
G01X1139520Y1217400D02*
Y1223000D01*
X1137300Y1218990D01*
X1140300D01*
G01X1141580Y1218240D02*
X1141940Y1217770D01*
X1142360Y1217490D01*
X1142900Y1217400D01*
X1143440Y1217590D01*
X1143860Y1217960D01*
X1144160Y1218610D01*
X1144220Y1219360D01*
X1144100Y1220110D01*
X1143800Y1220570D01*
X1143380Y1220950D01*
X1142960Y1221040D01*
X1142540Y1220950D01*
X1142000Y1220570D01*
X1142180Y1223000D01*
X1143800D01*
G01X1147000Y1217400D02*
Y1223000D01*
X1146280Y1221880D01*
G01Y1217400D02*
X1147720D01*
G01X1167800Y939120D02*
X1168100Y938560D01*
X1168460Y938190D01*
X1168880Y938000D01*
X1169360Y938190D01*
X1169720Y938560D01*
X1170080Y939120D01*
X1170200Y939870D01*
Y943600D01*
G01X1173100Y938000D02*
Y943600D01*
X1172380Y942480D01*
G01Y938000D02*
X1173820D01*
G01X1195100Y972000D02*
Y977600D01*
X1196600D01*
X1197080Y977320D01*
X1197380Y976950D01*
X1197500Y976200D01*
X1197380Y975450D01*
X1197020Y974990D01*
X1196600Y974710D01*
X1195100D01*
G01X1196600D02*
X1197500Y972000D01*
G01X1200400D02*
Y977600D01*
X1199680Y976480D01*
G01Y972000D02*
X1201120D01*
G01X1179100Y988500D02*
Y994100D01*
X1180600D01*
X1181080Y993820D01*
X1181380Y993450D01*
X1181500Y992700D01*
X1181380Y991950D01*
X1181020Y991490D01*
X1180600Y991210D01*
X1179100D01*
G01X1180600D02*
X1181500Y988500D01*
G01X1183080Y989620D02*
X1183440Y988970D01*
X1183920Y988590D01*
X1184460Y988500D01*
X1184940Y988590D01*
X1185420Y989060D01*
X1185720Y989620D01*
X1185780Y990180D01*
X1185660Y990830D01*
X1185240Y991300D01*
X1184820Y991490D01*
X1184280D01*
G01X1184820D02*
X1185180Y991770D01*
X1185480Y992230D01*
X1185600Y992790D01*
X1185480Y993350D01*
X1185180Y993820D01*
X1184640Y994100D01*
X1184100Y994010D01*
X1183560Y993630D01*
G01X1187360Y993170D02*
X1187720Y993730D01*
X1188140Y994010D01*
X1188620Y994100D01*
X1189220Y993910D01*
X1189640Y993450D01*
X1189760Y992890D01*
X1189700Y992330D01*
X1189460Y991860D01*
X1188260Y990930D01*
X1187720Y990270D01*
X1187360Y989340D01*
X1187240Y988500D01*
X1189760D01*
G01X1173620Y1011130D02*
X1173260Y1011410D01*
X1172840Y1011600D01*
X1172360D01*
X1171820Y1011320D01*
X1171400Y1010850D01*
X1171100Y1010290D01*
X1170860Y1009360D01*
X1170800Y1008520D01*
X1170920Y1007680D01*
X1171100Y1007120D01*
X1171460Y1006560D01*
X1171880Y1006190D01*
X1172300Y1006000D01*
X1172720D01*
X1173140Y1006190D01*
X1173500Y1006470D01*
X1173800Y1006840D01*
G01X1175080Y1007120D02*
X1175440Y1006470D01*
X1175920Y1006090D01*
X1176460Y1006000D01*
X1176940Y1006090D01*
X1177420Y1006560D01*
X1177720Y1007120D01*
X1177780Y1007680D01*
X1177660Y1008330D01*
X1177240Y1008800D01*
X1176820Y1008990D01*
X1176280D01*
G01X1176820D02*
X1177180Y1009270D01*
X1177480Y1009730D01*
X1177600Y1010290D01*
X1177480Y1010850D01*
X1177180Y1011320D01*
X1176640Y1011600D01*
X1176100Y1011510D01*
X1175560Y1011130D01*
G01X1180500Y1006000D02*
Y1011600D01*
X1179780Y1010480D01*
G01Y1006000D02*
X1181220D01*
G01X1208620Y1136230D02*
X1208260Y1136510D01*
X1207840Y1136700D01*
X1207360D01*
X1206820Y1136420D01*
X1206400Y1135950D01*
X1206100Y1135390D01*
X1205860Y1134460D01*
X1205800Y1133620D01*
X1205920Y1132780D01*
X1206100Y1132220D01*
X1206460Y1131660D01*
X1206880Y1131290D01*
X1207300Y1131100D01*
X1207720D01*
X1208140Y1131290D01*
X1208500Y1131570D01*
X1208800Y1131940D01*
G01X1210080D02*
X1210440Y1131470D01*
X1210860Y1131190D01*
X1211400Y1131100D01*
X1211940Y1131290D01*
X1212360Y1131660D01*
X1212660Y1132310D01*
X1212720Y1133060D01*
X1212600Y1133810D01*
X1212300Y1134270D01*
X1211880Y1134650D01*
X1211460Y1134740D01*
X1211040Y1134650D01*
X1210500Y1134270D01*
X1210680Y1136700D01*
X1212300D01*
G01X1214180Y1131940D02*
X1214540Y1131470D01*
X1214960Y1131190D01*
X1215500Y1131100D01*
X1216040Y1131290D01*
X1216460Y1131660D01*
X1216760Y1132310D01*
X1216820Y1133060D01*
X1216700Y1133810D01*
X1216400Y1134270D01*
X1215980Y1134650D01*
X1215560Y1134740D01*
X1215140Y1134650D01*
X1214600Y1134270D01*
X1214780Y1136700D01*
X1216400D01*
G01X1219600Y1131100D02*
Y1136700D01*
X1218880Y1135580D01*
G01Y1131100D02*
X1220320D01*
G01X1173100Y1154500D02*
Y1160100D01*
X1174600D01*
X1175080Y1159820D01*
X1175380Y1159450D01*
X1175500Y1158700D01*
X1175380Y1157950D01*
X1175020Y1157490D01*
X1174600Y1157210D01*
X1173100D01*
G01X1174600D02*
X1175500Y1154500D01*
G01X1179120D02*
Y1160100D01*
X1176900Y1156090D01*
X1179900D01*
G01X1183220Y1154500D02*
Y1160100D01*
X1181000Y1156090D01*
X1184000D01*
G01X1185460Y1159170D02*
X1185820Y1159730D01*
X1186240Y1160010D01*
X1186720Y1160100D01*
X1187320Y1159910D01*
X1187740Y1159450D01*
X1187860Y1158890D01*
X1187800Y1158330D01*
X1187560Y1157860D01*
X1186360Y1156930D01*
X1185820Y1156270D01*
X1185460Y1155340D01*
X1185340Y1154500D01*
X1187860D01*
G01X1208820Y1202930D02*
X1208460Y1203210D01*
X1208040Y1203400D01*
X1207560D01*
X1207020Y1203120D01*
X1206600Y1202650D01*
X1206300Y1202090D01*
X1206060Y1201160D01*
X1206000Y1200320D01*
X1206120Y1199480D01*
X1206300Y1198920D01*
X1206660Y1198360D01*
X1207080Y1197990D01*
X1207500Y1197800D01*
X1207920D01*
X1208340Y1197990D01*
X1208700Y1198270D01*
X1209000Y1198640D01*
G01X1212320Y1197800D02*
Y1203400D01*
X1210100Y1199390D01*
X1213100D01*
G01X1214380Y1198920D02*
X1214740Y1198270D01*
X1215220Y1197890D01*
X1215760Y1197800D01*
X1216240Y1197890D01*
X1216720Y1198360D01*
X1217020Y1198920D01*
X1217080Y1199480D01*
X1216960Y1200130D01*
X1216540Y1200600D01*
X1216120Y1200790D01*
X1215580D01*
G01X1216120D02*
X1216480Y1201070D01*
X1216780Y1201530D01*
X1216900Y1202090D01*
X1216780Y1202650D01*
X1216480Y1203120D01*
X1215940Y1203400D01*
X1215400Y1203310D01*
X1214860Y1202930D01*
G01X1219800Y1197800D02*
Y1203400D01*
X1219080Y1202280D01*
G01Y1197800D02*
X1220520D01*
G01X1173600Y1176500D02*
Y1182100D01*
X1175100D01*
X1175580Y1181820D01*
X1175880Y1181450D01*
X1176000Y1180700D01*
X1175880Y1179950D01*
X1175520Y1179490D01*
X1175100Y1179210D01*
X1173600D01*
G01X1175100D02*
X1176000Y1176500D01*
G01X1179620D02*
Y1182100D01*
X1177400Y1178090D01*
X1180400D01*
G01X1183720Y1176500D02*
Y1182100D01*
X1181500Y1178090D01*
X1184500D01*
G01X1187100Y1176500D02*
Y1182100D01*
X1186380Y1180980D01*
G01Y1176500D02*
X1187820D01*
G01X1180420Y1222030D02*
X1180060Y1222310D01*
X1179640Y1222500D01*
X1179160D01*
X1178620Y1222220D01*
X1178200Y1221750D01*
X1177900Y1221190D01*
X1177660Y1220260D01*
X1177600Y1219420D01*
X1177720Y1218580D01*
X1177900Y1218020D01*
X1178260Y1217460D01*
X1178680Y1217090D01*
X1179100Y1216900D01*
X1179520D01*
X1179940Y1217090D01*
X1180300Y1217370D01*
X1180600Y1217740D01*
G01X1183920Y1216900D02*
Y1222500D01*
X1181700Y1218490D01*
X1184700D01*
G01X1188020Y1216900D02*
Y1222500D01*
X1185800Y1218490D01*
X1188800D01*
G01X1191400Y1216900D02*
Y1222500D01*
X1190680Y1221380D01*
G01Y1216900D02*
X1192120D01*
G01X1205600Y1210300D02*
Y1215900D01*
X1207100D01*
X1207580Y1215620D01*
X1207880Y1215250D01*
X1208000Y1214500D01*
X1207880Y1213750D01*
X1207520Y1213290D01*
X1207100Y1213010D01*
X1205600D01*
G01X1207100D02*
X1208000Y1210300D01*
G01X1211620D02*
Y1215900D01*
X1209400Y1211890D01*
X1212400D01*
G01X1213860Y1214970D02*
X1214220Y1215530D01*
X1214640Y1215810D01*
X1215120Y1215900D01*
X1215720Y1215710D01*
X1216140Y1215250D01*
X1216260Y1214690D01*
X1216200Y1214130D01*
X1215960Y1213660D01*
X1214760Y1212730D01*
X1214220Y1212070D01*
X1213860Y1211140D01*
X1213740Y1210300D01*
X1216260D01*
G01X1219100D02*
Y1215900D01*
X1218380Y1214780D01*
G01Y1210300D02*
X1219820D01*
G01X1170040Y1241750D02*
X1170520Y1241280D01*
X1171060Y1241000D01*
X1171540D01*
X1172020Y1241280D01*
X1172380Y1241750D01*
X1172560Y1242400D01*
X1172440Y1243050D01*
X1172140Y1243610D01*
X1171600Y1243990D01*
X1170880Y1244170D01*
X1170460Y1244550D01*
X1170280Y1245200D01*
X1170400Y1245850D01*
X1170700Y1246320D01*
X1171120Y1246600D01*
X1171540D01*
X1171960Y1246410D01*
X1172320Y1245950D01*
G01X1176720Y1246130D02*
X1176360Y1246410D01*
X1175940Y1246600D01*
X1175460D01*
X1174920Y1246320D01*
X1174500Y1245850D01*
X1174200Y1245290D01*
X1173960Y1244360D01*
X1173900Y1243520D01*
X1174020Y1242680D01*
X1174200Y1242120D01*
X1174560Y1241560D01*
X1174980Y1241190D01*
X1175400Y1241000D01*
X1175820D01*
X1176240Y1241190D01*
X1176600Y1241470D01*
X1176900Y1241840D01*
G01X1179500Y1241000D02*
Y1246600D01*
X1178780Y1245480D01*
G01Y1241000D02*
X1180220D01*
G01X1186620Y1280630D02*
X1186260Y1280910D01*
X1185840Y1281100D01*
X1185360D01*
X1184820Y1280820D01*
X1184400Y1280350D01*
X1184100Y1279790D01*
X1183860Y1278860D01*
X1183800Y1278020D01*
X1183920Y1277180D01*
X1184100Y1276620D01*
X1184460Y1276060D01*
X1184880Y1275690D01*
X1185300Y1275500D01*
X1185720D01*
X1186140Y1275690D01*
X1186500Y1275970D01*
X1186800Y1276340D01*
G01X1188080Y1276620D02*
X1188440Y1275970D01*
X1188920Y1275590D01*
X1189460Y1275500D01*
X1189940Y1275590D01*
X1190420Y1276060D01*
X1190720Y1276620D01*
X1190780Y1277180D01*
X1190660Y1277830D01*
X1190240Y1278300D01*
X1189820Y1278490D01*
X1189280D01*
G01X1189820D02*
X1190180Y1278770D01*
X1190480Y1279230D01*
X1190600Y1279790D01*
X1190480Y1280350D01*
X1190180Y1280820D01*
X1189640Y1281100D01*
X1189100Y1281010D01*
X1188560Y1280630D01*
G01X1193500Y1275500D02*
Y1281100D01*
X1192780Y1279980D01*
G01Y1275500D02*
X1194220D01*
G01X1196280Y1276620D02*
X1196640Y1275970D01*
X1197120Y1275590D01*
X1197660Y1275500D01*
X1198140Y1275590D01*
X1198620Y1276060D01*
X1198920Y1276620D01*
X1198980Y1277180D01*
X1198860Y1277830D01*
X1198440Y1278300D01*
X1198020Y1278490D01*
X1197480D01*
G01X1198020D02*
X1198380Y1278770D01*
X1198680Y1279230D01*
X1198800Y1279790D01*
X1198680Y1280350D01*
X1198380Y1280820D01*
X1197840Y1281100D01*
X1197300Y1281010D01*
X1196760Y1280630D01*
G01X1200380Y1276620D02*
X1200740Y1275970D01*
X1201220Y1275590D01*
X1201760Y1275500D01*
X1202240Y1275590D01*
X1202720Y1276060D01*
X1203020Y1276620D01*
X1203080Y1277180D01*
X1202960Y1277830D01*
X1202540Y1278300D01*
X1202120Y1278490D01*
X1201580D01*
G01X1202120D02*
X1202480Y1278770D01*
X1202780Y1279230D01*
X1202900Y1279790D01*
X1202780Y1280350D01*
X1202480Y1280820D01*
X1201940Y1281100D01*
X1201400Y1281010D01*
X1200860Y1280630D01*
G01X1239620Y925130D02*
X1239260Y925410D01*
X1238840Y925600D01*
X1238360D01*
X1237820Y925320D01*
X1237400Y924850D01*
X1237100Y924290D01*
X1236860Y923360D01*
X1236800Y922520D01*
X1236920Y921680D01*
X1237100Y921120D01*
X1237460Y920560D01*
X1237880Y920190D01*
X1238300Y920000D01*
X1238720D01*
X1239140Y920190D01*
X1239500Y920470D01*
X1239800Y920840D01*
G01X1241080Y921120D02*
X1241440Y920470D01*
X1241920Y920090D01*
X1242460Y920000D01*
X1242940Y920090D01*
X1243420Y920560D01*
X1243720Y921120D01*
X1243780Y921680D01*
X1243660Y922330D01*
X1243240Y922800D01*
X1242820Y922990D01*
X1242280D01*
G01X1242820D02*
X1243180Y923270D01*
X1243480Y923730D01*
X1243600Y924290D01*
X1243480Y924850D01*
X1243180Y925320D01*
X1242640Y925600D01*
X1242100Y925510D01*
X1241560Y925130D01*
G01X1210620Y1112630D02*
X1210260Y1112910D01*
X1209840Y1113100D01*
X1209360D01*
X1208820Y1112820D01*
X1208400Y1112350D01*
X1208100Y1111790D01*
X1207860Y1110860D01*
X1207800Y1110020D01*
X1207920Y1109180D01*
X1208100Y1108620D01*
X1208460Y1108060D01*
X1208880Y1107690D01*
X1209300Y1107500D01*
X1209720D01*
X1210140Y1107690D01*
X1210500Y1107970D01*
X1210800Y1108340D01*
G01X1212080D02*
X1212440Y1107870D01*
X1212860Y1107590D01*
X1213400Y1107500D01*
X1213940Y1107690D01*
X1214360Y1108060D01*
X1214660Y1108710D01*
X1214720Y1109460D01*
X1214600Y1110210D01*
X1214300Y1110670D01*
X1213880Y1111050D01*
X1213460Y1111140D01*
X1213040Y1111050D01*
X1212500Y1110670D01*
X1212680Y1113100D01*
X1214300D01*
G01X1216360Y1109830D02*
X1216780Y1110490D01*
X1217140Y1110860D01*
X1217620Y1111050D01*
X1218040Y1110860D01*
X1218340Y1110490D01*
X1218580Y1109930D01*
X1218640Y1109270D01*
X1218580Y1108710D01*
X1218340Y1108150D01*
X1217980Y1107690D01*
X1217560Y1107500D01*
X1217080Y1107690D01*
X1216660Y1108250D01*
X1216420Y1109090D01*
X1216360Y1110020D01*
X1216480Y1111230D01*
X1216660Y1111890D01*
X1216960Y1112540D01*
X1217380Y1113010D01*
X1217800Y1113100D01*
X1218220Y1112910D01*
X1218520Y1112450D01*
G01X1221600Y1107500D02*
Y1113100D01*
X1220880Y1111980D01*
G01Y1107500D02*
X1222320D01*
G01X1240600Y1237600D02*
Y1232000D01*
X1243000D01*
G01X1244580Y1233120D02*
X1244940Y1232470D01*
X1245420Y1232090D01*
X1245960Y1232000D01*
X1246440Y1232090D01*
X1246920Y1232560D01*
X1247220Y1233120D01*
X1247280Y1233680D01*
X1247160Y1234330D01*
X1246740Y1234800D01*
X1246320Y1234990D01*
X1245780D01*
G01X1246320D02*
X1246680Y1235270D01*
X1246980Y1235730D01*
X1247100Y1236290D01*
X1246980Y1236850D01*
X1246680Y1237320D01*
X1246140Y1237600D01*
X1245600Y1237510D01*
X1245060Y1237130D01*
G01X1248860Y1236670D02*
X1249220Y1237230D01*
X1249640Y1237510D01*
X1250120Y1237600D01*
X1250720Y1237410D01*
X1251140Y1236950D01*
X1251260Y1236390D01*
X1251200Y1235830D01*
X1250960Y1235360D01*
X1249760Y1234430D01*
X1249220Y1233770D01*
X1248860Y1232840D01*
X1248740Y1232000D01*
X1251260D01*
G01X1252780Y1233120D02*
X1253140Y1232470D01*
X1253620Y1232090D01*
X1254160Y1232000D01*
X1254640Y1232090D01*
X1255120Y1232560D01*
X1255420Y1233120D01*
X1255480Y1233680D01*
X1255360Y1234330D01*
X1254940Y1234800D01*
X1254520Y1234990D01*
X1253980D01*
G01X1254520D02*
X1254880Y1235270D01*
X1255180Y1235730D01*
X1255300Y1236290D01*
X1255180Y1236850D01*
X1254880Y1237320D01*
X1254340Y1237600D01*
X1253800Y1237510D01*
X1253260Y1237130D01*
G01X1258200Y1232000D02*
Y1237600D01*
X1257480Y1236480D01*
G01Y1232000D02*
X1258920D01*
G01X1237920Y1226030D02*
X1237560Y1226310D01*
X1237140Y1226500D01*
X1236660D01*
X1236120Y1226220D01*
X1235700Y1225750D01*
X1235400Y1225190D01*
X1235160Y1224260D01*
X1235100Y1223420D01*
X1235220Y1222580D01*
X1235400Y1222020D01*
X1235760Y1221460D01*
X1236180Y1221090D01*
X1236600Y1220900D01*
X1237020D01*
X1237440Y1221090D01*
X1237800Y1221370D01*
X1238100Y1221740D01*
G01X1239380Y1222020D02*
X1239740Y1221370D01*
X1240220Y1220990D01*
X1240760Y1220900D01*
X1241240Y1220990D01*
X1241720Y1221460D01*
X1242020Y1222020D01*
X1242080Y1222580D01*
X1241960Y1223230D01*
X1241540Y1223700D01*
X1241120Y1223890D01*
X1240580D01*
G01X1241120D02*
X1241480Y1224170D01*
X1241780Y1224630D01*
X1241900Y1225190D01*
X1241780Y1225750D01*
X1241480Y1226220D01*
X1240940Y1226500D01*
X1240400Y1226410D01*
X1239860Y1226030D01*
G01X1243780Y1221550D02*
X1244200Y1221090D01*
X1244680Y1220900D01*
X1245160Y1221090D01*
X1245580Y1221650D01*
X1245880Y1222490D01*
X1246000Y1223330D01*
Y1224350D01*
X1245880Y1225190D01*
X1245580Y1225940D01*
X1245220Y1226310D01*
X1244800Y1226500D01*
X1244320Y1226310D01*
X1243960Y1225940D01*
X1243720Y1225380D01*
X1243600Y1224630D01*
X1243720Y1223980D01*
X1244020Y1223330D01*
X1244380Y1222950D01*
X1244800Y1222860D01*
X1245280Y1223050D01*
X1245640Y1223510D01*
X1246000Y1224350D01*
G01X1248900Y1220900D02*
Y1226500D01*
X1248180Y1225380D01*
G01Y1220900D02*
X1249620D01*
G01X1238220Y1217030D02*
X1237860Y1217310D01*
X1237440Y1217500D01*
X1236960D01*
X1236420Y1217220D01*
X1236000Y1216750D01*
X1235700Y1216190D01*
X1235460Y1215260D01*
X1235400Y1214420D01*
X1235520Y1213580D01*
X1235700Y1213020D01*
X1236060Y1212460D01*
X1236480Y1212090D01*
X1236900Y1211900D01*
X1237320D01*
X1237740Y1212090D01*
X1238100Y1212370D01*
X1238400Y1212740D01*
G01X1239680Y1213020D02*
X1240040Y1212370D01*
X1240520Y1211990D01*
X1241060Y1211900D01*
X1241540Y1211990D01*
X1242020Y1212460D01*
X1242320Y1213020D01*
X1242380Y1213580D01*
X1242260Y1214230D01*
X1241840Y1214700D01*
X1241420Y1214890D01*
X1240880D01*
G01X1241420D02*
X1241780Y1215170D01*
X1242080Y1215630D01*
X1242200Y1216190D01*
X1242080Y1216750D01*
X1241780Y1217220D01*
X1241240Y1217500D01*
X1240700Y1217410D01*
X1240160Y1217030D01*
G01X1244080Y1212550D02*
X1244500Y1212090D01*
X1244980Y1211900D01*
X1245460Y1212090D01*
X1245880Y1212650D01*
X1246180Y1213490D01*
X1246300Y1214330D01*
Y1215350D01*
X1246180Y1216190D01*
X1245880Y1216940D01*
X1245520Y1217310D01*
X1245100Y1217500D01*
X1244620Y1217310D01*
X1244260Y1216940D01*
X1244020Y1216380D01*
X1243900Y1215630D01*
X1244020Y1214980D01*
X1244320Y1214330D01*
X1244680Y1213950D01*
X1245100Y1213860D01*
X1245580Y1214050D01*
X1245940Y1214510D01*
X1246300Y1215350D01*
G01X1248060Y1216570D02*
X1248420Y1217130D01*
X1248840Y1217410D01*
X1249320Y1217500D01*
X1249920Y1217310D01*
X1250340Y1216850D01*
X1250460Y1216290D01*
X1250400Y1215730D01*
X1250160Y1215260D01*
X1248960Y1214330D01*
X1248420Y1213670D01*
X1248060Y1212740D01*
X1247940Y1211900D01*
X1250460D01*
G01X1211120Y1263130D02*
X1210760Y1263410D01*
X1210340Y1263600D01*
X1209860D01*
X1209320Y1263320D01*
X1208900Y1262850D01*
X1208600Y1262290D01*
X1208360Y1261360D01*
X1208300Y1260520D01*
X1208420Y1259680D01*
X1208600Y1259120D01*
X1208960Y1258560D01*
X1209380Y1258190D01*
X1209800Y1258000D01*
X1210220D01*
X1210640Y1258190D01*
X1211000Y1258470D01*
X1211300Y1258840D01*
G01X1212580Y1259120D02*
X1212940Y1258470D01*
X1213420Y1258090D01*
X1213960Y1258000D01*
X1214440Y1258090D01*
X1214920Y1258560D01*
X1215220Y1259120D01*
X1215280Y1259680D01*
X1215160Y1260330D01*
X1214740Y1260800D01*
X1214320Y1260990D01*
X1213780D01*
G01X1214320D02*
X1214680Y1261270D01*
X1214980Y1261730D01*
X1215100Y1262290D01*
X1214980Y1262850D01*
X1214680Y1263320D01*
X1214140Y1263600D01*
X1213600Y1263510D01*
X1213060Y1263130D01*
G01X1218000Y1258000D02*
Y1263600D01*
X1217280Y1262480D01*
G01Y1258000D02*
X1218720D01*
G01X1220780Y1259120D02*
X1221140Y1258470D01*
X1221620Y1258090D01*
X1222160Y1258000D01*
X1222640Y1258090D01*
X1223120Y1258560D01*
X1223420Y1259120D01*
X1223480Y1259680D01*
X1223360Y1260330D01*
X1222940Y1260800D01*
X1222520Y1260990D01*
X1221980D01*
G01X1222520D02*
X1222880Y1261270D01*
X1223180Y1261730D01*
X1223300Y1262290D01*
X1223180Y1262850D01*
X1222880Y1263320D01*
X1222340Y1263600D01*
X1221800Y1263510D01*
X1221260Y1263130D01*
G01X1225060Y1262670D02*
X1225420Y1263230D01*
X1225840Y1263510D01*
X1226320Y1263600D01*
X1226920Y1263410D01*
X1227340Y1262950D01*
X1227460Y1262390D01*
X1227400Y1261830D01*
X1227160Y1261360D01*
X1225960Y1260430D01*
X1225420Y1259770D01*
X1225060Y1258840D01*
X1224940Y1258000D01*
X1227460D01*
G01X1210620Y1292130D02*
X1210260Y1292410D01*
X1209840Y1292600D01*
X1209360D01*
X1208820Y1292320D01*
X1208400Y1291850D01*
X1208100Y1291290D01*
X1207860Y1290360D01*
X1207800Y1289520D01*
X1207920Y1288680D01*
X1208100Y1288120D01*
X1208460Y1287560D01*
X1208880Y1287190D01*
X1209300Y1287000D01*
X1209720D01*
X1210140Y1287190D01*
X1210500Y1287470D01*
X1210800Y1287840D01*
G01X1212080Y1288120D02*
X1212440Y1287470D01*
X1212920Y1287090D01*
X1213460Y1287000D01*
X1213940Y1287090D01*
X1214420Y1287560D01*
X1214720Y1288120D01*
X1214780Y1288680D01*
X1214660Y1289330D01*
X1214240Y1289800D01*
X1213820Y1289990D01*
X1213280D01*
G01X1213820D02*
X1214180Y1290270D01*
X1214480Y1290730D01*
X1214600Y1291290D01*
X1214480Y1291850D01*
X1214180Y1292320D01*
X1213640Y1292600D01*
X1213100Y1292510D01*
X1212560Y1292130D01*
G01X1217500Y1287000D02*
Y1292600D01*
X1216780Y1291480D01*
G01Y1287000D02*
X1218220D01*
G01X1220280Y1288120D02*
X1220640Y1287470D01*
X1221120Y1287090D01*
X1221660Y1287000D01*
X1222140Y1287090D01*
X1222620Y1287560D01*
X1222920Y1288120D01*
X1222980Y1288680D01*
X1222860Y1289330D01*
X1222440Y1289800D01*
X1222020Y1289990D01*
X1221480D01*
G01X1222020D02*
X1222380Y1290270D01*
X1222680Y1290730D01*
X1222800Y1291290D01*
X1222680Y1291850D01*
X1222380Y1292320D01*
X1221840Y1292600D01*
X1221300Y1292510D01*
X1220760Y1292130D01*
G01X1225700Y1287000D02*
Y1292600D01*
X1224980Y1291480D01*
G01Y1287000D02*
X1226420D01*
G01X1226600Y1304600D02*
Y1299000D01*
X1229000D01*
G01X1230580Y1300120D02*
X1230940Y1299470D01*
X1231420Y1299090D01*
X1231960Y1299000D01*
X1232440Y1299090D01*
X1232920Y1299560D01*
X1233220Y1300120D01*
X1233280Y1300680D01*
X1233160Y1301330D01*
X1232740Y1301800D01*
X1232320Y1301990D01*
X1231780D01*
G01X1232320D02*
X1232680Y1302270D01*
X1232980Y1302730D01*
X1233100Y1303290D01*
X1232980Y1303850D01*
X1232680Y1304320D01*
X1232140Y1304600D01*
X1231600Y1304510D01*
X1231060Y1304130D01*
G01X1236000Y1299000D02*
Y1304600D01*
X1235280Y1303480D01*
G01Y1299000D02*
X1236720D01*
G01X1240100Y1304600D02*
X1239620Y1304410D01*
X1239260Y1303950D01*
X1239020Y1303390D01*
X1238840Y1302640D01*
X1238780Y1301800D01*
X1238840Y1300960D01*
X1239020Y1300210D01*
X1239260Y1299650D01*
X1239620Y1299190D01*
X1240100Y1299000D01*
X1240580Y1299190D01*
X1240940Y1299650D01*
X1241180Y1300210D01*
X1241360Y1300960D01*
X1241420Y1301800D01*
X1241360Y1302640D01*
X1241180Y1303390D01*
X1240940Y1303950D01*
X1240580Y1304410D01*
X1240100Y1304600D01*
G01X1244200Y1299000D02*
Y1304600D01*
X1243480Y1303480D01*
G01Y1299000D02*
X1244920D01*
G01X1210870Y1324120D02*
X1210590Y1323760D01*
X1210400Y1323340D01*
Y1322860D01*
X1210680Y1322320D01*
X1211150Y1321900D01*
X1211710Y1321600D01*
X1212640Y1321360D01*
X1213480Y1321300D01*
X1214320Y1321420D01*
X1214880Y1321600D01*
X1215440Y1321960D01*
X1215810Y1322380D01*
X1216000Y1322800D01*
Y1323220D01*
X1215810Y1323640D01*
X1215530Y1324000D01*
X1215160Y1324300D01*
G01X1214880Y1325580D02*
X1215530Y1325940D01*
X1215910Y1326420D01*
X1216000Y1326960D01*
X1215910Y1327440D01*
X1215440Y1327920D01*
X1214880Y1328220D01*
X1214320Y1328280D01*
X1213670Y1328160D01*
X1213200Y1327740D01*
X1213010Y1327320D01*
Y1326780D01*
G01Y1327320D02*
X1212730Y1327680D01*
X1212270Y1327980D01*
X1211710Y1328100D01*
X1211150Y1327980D01*
X1210680Y1327680D01*
X1210400Y1327140D01*
X1210490Y1326600D01*
X1210870Y1326060D01*
G01X1216000Y1331000D02*
X1210400D01*
X1211520Y1330280D01*
G01X1216000D02*
Y1331720D01*
G01X1210400Y1335100D02*
X1210590Y1334620D01*
X1211050Y1334260D01*
X1211610Y1334020D01*
X1212360Y1333840D01*
X1213200Y1333780D01*
X1214040Y1333840D01*
X1214790Y1334020D01*
X1215350Y1334260D01*
X1215810Y1334620D01*
X1216000Y1335100D01*
X1215810Y1335580D01*
X1215350Y1335940D01*
X1214790Y1336180D01*
X1214040Y1336360D01*
X1213200Y1336420D01*
X1212360Y1336360D01*
X1211610Y1336180D01*
X1211050Y1335940D01*
X1210590Y1335580D01*
X1210400Y1335100D01*
G01X1216000Y1339200D02*
X1215910Y1339620D01*
X1215630Y1340100D01*
X1215160Y1340400D01*
X1214510Y1340520D01*
X1213850Y1340400D01*
X1213290Y1340040D01*
X1213010Y1339500D01*
Y1338900D01*
X1212830Y1338540D01*
X1212360Y1338240D01*
X1211710Y1338120D01*
X1211050Y1338300D01*
X1210590Y1338720D01*
X1210400Y1339200D01*
X1210590Y1339680D01*
X1211050Y1340100D01*
X1211710Y1340280D01*
X1212360Y1340160D01*
X1212830Y1339860D01*
X1213010Y1339500D01*
Y1338900D01*
X1213290Y1338360D01*
X1213850Y1338000D01*
X1214510Y1337880D01*
X1215160Y1338000D01*
X1215630Y1338300D01*
X1215910Y1338780D01*
X1216000Y1339200D01*
G01X1228870Y1324120D02*
X1228590Y1323760D01*
X1228400Y1323340D01*
Y1322860D01*
X1228680Y1322320D01*
X1229150Y1321900D01*
X1229710Y1321600D01*
X1230640Y1321360D01*
X1231480Y1321300D01*
X1232320Y1321420D01*
X1232880Y1321600D01*
X1233440Y1321960D01*
X1233810Y1322380D01*
X1234000Y1322800D01*
Y1323220D01*
X1233810Y1323640D01*
X1233530Y1324000D01*
X1233160Y1324300D01*
G01X1232880Y1325580D02*
X1233530Y1325940D01*
X1233910Y1326420D01*
X1234000Y1326960D01*
X1233910Y1327440D01*
X1233440Y1327920D01*
X1232880Y1328220D01*
X1232320Y1328280D01*
X1231670Y1328160D01*
X1231200Y1327740D01*
X1231010Y1327320D01*
Y1326780D01*
G01Y1327320D02*
X1230730Y1327680D01*
X1230270Y1327980D01*
X1229710Y1328100D01*
X1229150Y1327980D01*
X1228680Y1327680D01*
X1228400Y1327140D01*
X1228490Y1326600D01*
X1228870Y1326060D01*
G01X1234000Y1331000D02*
X1228400D01*
X1229520Y1330280D01*
G01X1234000D02*
Y1331720D01*
G01X1228400Y1335100D02*
X1228590Y1334620D01*
X1229050Y1334260D01*
X1229610Y1334020D01*
X1230360Y1333840D01*
X1231200Y1333780D01*
X1232040Y1333840D01*
X1232790Y1334020D01*
X1233350Y1334260D01*
X1233810Y1334620D01*
X1234000Y1335100D01*
X1233810Y1335580D01*
X1233350Y1335940D01*
X1232790Y1336180D01*
X1232040Y1336360D01*
X1231200Y1336420D01*
X1230360Y1336360D01*
X1229610Y1336180D01*
X1229050Y1335940D01*
X1228590Y1335580D01*
X1228400Y1335100D01*
G01X1231670Y1338060D02*
X1231010Y1338480D01*
X1230640Y1338840D01*
X1230450Y1339320D01*
X1230640Y1339740D01*
X1231010Y1340040D01*
X1231570Y1340280D01*
X1232230Y1340340D01*
X1232790Y1340280D01*
X1233350Y1340040D01*
X1233810Y1339680D01*
X1234000Y1339260D01*
X1233810Y1338780D01*
X1233250Y1338360D01*
X1232410Y1338120D01*
X1231480Y1338060D01*
X1230270Y1338180D01*
X1229610Y1338360D01*
X1228960Y1338660D01*
X1228490Y1339080D01*
X1228400Y1339500D01*
X1228590Y1339920D01*
X1229050Y1340220D01*
G01X1219870Y1324120D02*
X1219590Y1323760D01*
X1219400Y1323340D01*
Y1322860D01*
X1219680Y1322320D01*
X1220150Y1321900D01*
X1220710Y1321600D01*
X1221640Y1321360D01*
X1222480Y1321300D01*
X1223320Y1321420D01*
X1223880Y1321600D01*
X1224440Y1321960D01*
X1224810Y1322380D01*
X1225000Y1322800D01*
Y1323220D01*
X1224810Y1323640D01*
X1224530Y1324000D01*
X1224160Y1324300D01*
G01X1223880Y1325580D02*
X1224530Y1325940D01*
X1224910Y1326420D01*
X1225000Y1326960D01*
X1224910Y1327440D01*
X1224440Y1327920D01*
X1223880Y1328220D01*
X1223320Y1328280D01*
X1222670Y1328160D01*
X1222200Y1327740D01*
X1222010Y1327320D01*
Y1326780D01*
G01Y1327320D02*
X1221730Y1327680D01*
X1221270Y1327980D01*
X1220710Y1328100D01*
X1220150Y1327980D01*
X1219680Y1327680D01*
X1219400Y1327140D01*
X1219490Y1326600D01*
X1219870Y1326060D01*
G01X1225000Y1331000D02*
X1219400D01*
X1220520Y1330280D01*
G01X1225000D02*
Y1331720D01*
G01X1219400Y1335100D02*
X1219590Y1334620D01*
X1220050Y1334260D01*
X1220610Y1334020D01*
X1221360Y1333840D01*
X1222200Y1333780D01*
X1223040Y1333840D01*
X1223790Y1334020D01*
X1224350Y1334260D01*
X1224810Y1334620D01*
X1225000Y1335100D01*
X1224810Y1335580D01*
X1224350Y1335940D01*
X1223790Y1336180D01*
X1223040Y1336360D01*
X1222200Y1336420D01*
X1221360Y1336360D01*
X1220610Y1336180D01*
X1220050Y1335940D01*
X1219590Y1335580D01*
X1219400Y1335100D01*
G01X1225000Y1339080D02*
X1223790Y1339200D01*
X1222760Y1339380D01*
X1221830Y1339620D01*
X1220800Y1339920D01*
X1219400Y1340400D01*
Y1338000D01*
G01X1230620Y1362130D02*
X1230260Y1362410D01*
X1229840Y1362600D01*
X1229360D01*
X1228820Y1362320D01*
X1228400Y1361850D01*
X1228100Y1361290D01*
X1227860Y1360360D01*
X1227800Y1359520D01*
X1227920Y1358680D01*
X1228100Y1358120D01*
X1228460Y1357560D01*
X1228880Y1357190D01*
X1229300Y1357000D01*
X1229720D01*
X1230140Y1357190D01*
X1230500Y1357470D01*
X1230800Y1357840D01*
G01X1232080Y1358120D02*
X1232440Y1357470D01*
X1232920Y1357090D01*
X1233460Y1357000D01*
X1233940Y1357090D01*
X1234420Y1357560D01*
X1234720Y1358120D01*
X1234780Y1358680D01*
X1234660Y1359330D01*
X1234240Y1359800D01*
X1233820Y1359990D01*
X1233280D01*
G01X1233820D02*
X1234180Y1360270D01*
X1234480Y1360730D01*
X1234600Y1361290D01*
X1234480Y1361850D01*
X1234180Y1362320D01*
X1233640Y1362600D01*
X1233100Y1362510D01*
X1232560Y1362130D01*
G01X1237500Y1357000D02*
Y1362600D01*
X1236780Y1361480D01*
G01Y1357000D02*
X1238220D01*
G01X1241600D02*
Y1362600D01*
X1240880Y1361480D01*
G01Y1357000D02*
X1242320D01*
G01X1245700D02*
Y1362600D01*
X1244980Y1361480D01*
G01Y1357000D02*
X1246420D01*
G01X1272180Y931100D02*
Y927090D01*
X1272420Y926250D01*
X1272900Y925690D01*
X1273500Y925500D01*
X1274100Y925690D01*
X1274580Y926250D01*
X1274820Y927090D01*
Y931100D01*
G01X1276460Y930170D02*
X1276820Y930730D01*
X1277240Y931010D01*
X1277720Y931100D01*
X1278320Y930910D01*
X1278740Y930450D01*
X1278860Y929890D01*
X1278800Y929330D01*
X1278560Y928860D01*
X1277360Y927930D01*
X1276820Y927270D01*
X1276460Y926340D01*
X1276340Y925500D01*
X1278860D01*
G01X1254720Y965230D02*
X1254360Y965510D01*
X1253940Y965700D01*
X1253460D01*
X1252920Y965420D01*
X1252500Y964950D01*
X1252200Y964390D01*
X1251960Y963460D01*
X1251900Y962620D01*
X1252020Y961780D01*
X1252200Y961220D01*
X1252560Y960660D01*
X1252980Y960290D01*
X1253400Y960100D01*
X1253820D01*
X1254240Y960290D01*
X1254600Y960570D01*
X1254900Y960940D01*
G01X1258220Y960100D02*
Y965700D01*
X1256000Y961690D01*
X1259000D01*
G01X1261600Y960100D02*
Y965700D01*
X1260880Y964580D01*
G01Y960100D02*
X1262320D01*
G01X1288120Y1108130D02*
X1287760Y1108410D01*
X1287340Y1108600D01*
X1286860D01*
X1286320Y1108320D01*
X1285900Y1107850D01*
X1285600Y1107290D01*
X1285360Y1106360D01*
X1285300Y1105520D01*
X1285420Y1104680D01*
X1285600Y1104120D01*
X1285960Y1103560D01*
X1286380Y1103190D01*
X1286800Y1103000D01*
X1287220D01*
X1287640Y1103190D01*
X1288000Y1103470D01*
X1288300Y1103840D01*
G01X1290900Y1103000D02*
Y1108600D01*
X1290180Y1107480D01*
G01Y1103000D02*
X1291620D01*
G01X1295000Y1108600D02*
X1294520Y1108410D01*
X1294160Y1107950D01*
X1293920Y1107390D01*
X1293740Y1106640D01*
X1293680Y1105800D01*
X1293740Y1104960D01*
X1293920Y1104210D01*
X1294160Y1103650D01*
X1294520Y1103190D01*
X1295000Y1103000D01*
X1295480Y1103190D01*
X1295840Y1103650D01*
X1296080Y1104210D01*
X1296260Y1104960D01*
X1296320Y1105800D01*
X1296260Y1106640D01*
X1296080Y1107390D01*
X1295840Y1107950D01*
X1295480Y1108410D01*
X1295000Y1108600D01*
G01X1299100Y1103000D02*
Y1108600D01*
X1298380Y1107480D01*
G01Y1103000D02*
X1299820D01*
G01X1265980Y1167000D02*
Y1162990D01*
X1266220Y1162150D01*
X1266700Y1161590D01*
X1267300Y1161400D01*
X1267900Y1161590D01*
X1268380Y1162150D01*
X1268620Y1162990D01*
Y1167000D01*
G01X1271400Y1161400D02*
Y1167000D01*
X1270680Y1165880D01*
G01Y1161400D02*
X1272120D01*
G01X1277670Y1221620D02*
X1277390Y1221260D01*
X1277200Y1220840D01*
Y1220360D01*
X1277480Y1219820D01*
X1277950Y1219400D01*
X1278510Y1219100D01*
X1279440Y1218860D01*
X1280280Y1218800D01*
X1281120Y1218920D01*
X1281680Y1219100D01*
X1282240Y1219460D01*
X1282610Y1219880D01*
X1282800Y1220300D01*
Y1220720D01*
X1282610Y1221140D01*
X1282330Y1221500D01*
X1281960Y1221800D01*
G01X1281680Y1223080D02*
X1282330Y1223440D01*
X1282710Y1223920D01*
X1282800Y1224460D01*
X1282710Y1224940D01*
X1282240Y1225420D01*
X1281680Y1225720D01*
X1281120Y1225780D01*
X1280470Y1225660D01*
X1280000Y1225240D01*
X1279810Y1224820D01*
Y1224280D01*
G01Y1224820D02*
X1279530Y1225180D01*
X1279070Y1225480D01*
X1278510Y1225600D01*
X1277950Y1225480D01*
X1277480Y1225180D01*
X1277200Y1224640D01*
X1277290Y1224100D01*
X1277670Y1223560D01*
G01X1281680Y1227180D02*
X1282330Y1227540D01*
X1282710Y1228020D01*
X1282800Y1228560D01*
X1282710Y1229040D01*
X1282240Y1229520D01*
X1281680Y1229820D01*
X1281120Y1229880D01*
X1280470Y1229760D01*
X1280000Y1229340D01*
X1279810Y1228920D01*
Y1228380D01*
G01Y1228920D02*
X1279530Y1229280D01*
X1279070Y1229580D01*
X1278510Y1229700D01*
X1277950Y1229580D01*
X1277480Y1229280D01*
X1277200Y1228740D01*
X1277290Y1228200D01*
X1277670Y1227660D01*
G01X1282800Y1232600D02*
X1277200D01*
X1278320Y1231880D01*
G01X1282800D02*
Y1233320D01*
G01X1263570Y1221920D02*
X1263290Y1221560D01*
X1263100Y1221140D01*
Y1220660D01*
X1263380Y1220120D01*
X1263850Y1219700D01*
X1264410Y1219400D01*
X1265340Y1219160D01*
X1266180Y1219100D01*
X1267020Y1219220D01*
X1267580Y1219400D01*
X1268140Y1219760D01*
X1268510Y1220180D01*
X1268700Y1220600D01*
Y1221020D01*
X1268510Y1221440D01*
X1268230Y1221800D01*
X1267860Y1222100D01*
G01X1267580Y1223380D02*
X1268230Y1223740D01*
X1268610Y1224220D01*
X1268700Y1224760D01*
X1268610Y1225240D01*
X1268140Y1225720D01*
X1267580Y1226020D01*
X1267020Y1226080D01*
X1266370Y1225960D01*
X1265900Y1225540D01*
X1265710Y1225120D01*
Y1224580D01*
G01Y1225120D02*
X1265430Y1225480D01*
X1264970Y1225780D01*
X1264410Y1225900D01*
X1263850Y1225780D01*
X1263380Y1225480D01*
X1263100Y1224940D01*
X1263190Y1224400D01*
X1263570Y1223860D01*
G01X1266370Y1227660D02*
X1265710Y1228080D01*
X1265340Y1228440D01*
X1265150Y1228920D01*
X1265340Y1229340D01*
X1265710Y1229640D01*
X1266270Y1229880D01*
X1266930Y1229940D01*
X1267490Y1229880D01*
X1268050Y1229640D01*
X1268510Y1229280D01*
X1268700Y1228860D01*
X1268510Y1228380D01*
X1267950Y1227960D01*
X1267110Y1227720D01*
X1266180Y1227660D01*
X1264970Y1227780D01*
X1264310Y1227960D01*
X1263660Y1228260D01*
X1263190Y1228680D01*
X1263100Y1229100D01*
X1263290Y1229520D01*
X1263750Y1229820D01*
G01X1268700Y1232900D02*
X1263100D01*
X1264220Y1232180D01*
G01X1268700D02*
Y1233620D01*
G01X1291070Y1221720D02*
X1290790Y1221360D01*
X1290600Y1220940D01*
Y1220460D01*
X1290880Y1219920D01*
X1291350Y1219500D01*
X1291910Y1219200D01*
X1292840Y1218960D01*
X1293680Y1218900D01*
X1294520Y1219020D01*
X1295080Y1219200D01*
X1295640Y1219560D01*
X1296010Y1219980D01*
X1296200Y1220400D01*
Y1220820D01*
X1296010Y1221240D01*
X1295730Y1221600D01*
X1295360Y1221900D01*
G01X1295080Y1223180D02*
X1295730Y1223540D01*
X1296110Y1224020D01*
X1296200Y1224560D01*
X1296110Y1225040D01*
X1295640Y1225520D01*
X1295080Y1225820D01*
X1294520Y1225880D01*
X1293870Y1225760D01*
X1293400Y1225340D01*
X1293210Y1224920D01*
Y1224380D01*
G01Y1224920D02*
X1292930Y1225280D01*
X1292470Y1225580D01*
X1291910Y1225700D01*
X1291350Y1225580D01*
X1290880Y1225280D01*
X1290600Y1224740D01*
X1290690Y1224200D01*
X1291070Y1223660D01*
G01X1291530Y1227460D02*
X1290970Y1227820D01*
X1290690Y1228240D01*
X1290600Y1228720D01*
X1290790Y1229320D01*
X1291250Y1229740D01*
X1291810Y1229860D01*
X1292370Y1229800D01*
X1292840Y1229560D01*
X1293770Y1228360D01*
X1294430Y1227820D01*
X1295360Y1227460D01*
X1296200Y1227340D01*
Y1229860D01*
G01Y1232700D02*
X1290600D01*
X1291720Y1231980D01*
G01X1296200D02*
Y1233420D01*
G01X1253980Y1275100D02*
Y1271090D01*
X1254220Y1270250D01*
X1254700Y1269690D01*
X1255300Y1269500D01*
X1255900Y1269690D01*
X1256380Y1270250D01*
X1256620Y1271090D01*
Y1275100D01*
G01X1258080Y1270620D02*
X1258440Y1269970D01*
X1258920Y1269590D01*
X1259460Y1269500D01*
X1259940Y1269590D01*
X1260420Y1270060D01*
X1260720Y1270620D01*
X1260780Y1271180D01*
X1260660Y1271830D01*
X1260240Y1272300D01*
X1259820Y1272490D01*
X1259280D01*
G01X1259820D02*
X1260180Y1272770D01*
X1260480Y1273230D01*
X1260600Y1273790D01*
X1260480Y1274350D01*
X1260180Y1274820D01*
X1259640Y1275100D01*
X1259100Y1275010D01*
X1258560Y1274630D01*
G01X1289600Y1287000D02*
Y1292600D01*
X1291100D01*
X1291580Y1292320D01*
X1291880Y1291950D01*
X1292000Y1291200D01*
X1291880Y1290450D01*
X1291520Y1289990D01*
X1291100Y1289710D01*
X1289600D01*
G01X1291100D02*
X1292000Y1287000D01*
G01X1293580Y1288120D02*
X1293940Y1287470D01*
X1294420Y1287090D01*
X1294960Y1287000D01*
X1295440Y1287090D01*
X1295920Y1287560D01*
X1296220Y1288120D01*
X1296280Y1288680D01*
X1296160Y1289330D01*
X1295740Y1289800D01*
X1295320Y1289990D01*
X1294780D01*
G01X1295320D02*
X1295680Y1290270D01*
X1295980Y1290730D01*
X1296100Y1291290D01*
X1295980Y1291850D01*
X1295680Y1292320D01*
X1295140Y1292600D01*
X1294600Y1292510D01*
X1294060Y1292130D01*
G01X1299000Y1292600D02*
X1298520Y1292410D01*
X1298160Y1291950D01*
X1297920Y1291390D01*
X1297740Y1290640D01*
X1297680Y1289800D01*
X1297740Y1288960D01*
X1297920Y1288210D01*
X1298160Y1287650D01*
X1298520Y1287190D01*
X1299000Y1287000D01*
X1299480Y1287190D01*
X1299840Y1287650D01*
X1300080Y1288210D01*
X1300260Y1288960D01*
X1300320Y1289800D01*
X1300260Y1290640D01*
X1300080Y1291390D01*
X1299840Y1291950D01*
X1299480Y1292410D01*
X1299000Y1292600D01*
G01X1303100Y1287000D02*
X1303520Y1287090D01*
X1304000Y1287370D01*
X1304300Y1287840D01*
X1304420Y1288490D01*
X1304300Y1289150D01*
X1303940Y1289710D01*
X1303400Y1289990D01*
X1302800D01*
X1302440Y1290170D01*
X1302140Y1290640D01*
X1302020Y1291290D01*
X1302200Y1291950D01*
X1302620Y1292410D01*
X1303100Y1292600D01*
X1303580Y1292410D01*
X1304000Y1291950D01*
X1304180Y1291290D01*
X1304060Y1290640D01*
X1303760Y1290170D01*
X1303400Y1289990D01*
X1302800D01*
X1302260Y1289710D01*
X1301900Y1289150D01*
X1301780Y1288490D01*
X1301900Y1287840D01*
X1302200Y1287370D01*
X1302680Y1287090D01*
X1303100Y1287000D01*
G01X1307200D02*
Y1292600D01*
X1306480Y1291480D01*
G01Y1287000D02*
X1307920D01*
G01X1264100Y1316600D02*
Y1311000D01*
X1266500D01*
G01X1268080Y1312120D02*
X1268440Y1311470D01*
X1268920Y1311090D01*
X1269460Y1311000D01*
X1269940Y1311090D01*
X1270420Y1311560D01*
X1270720Y1312120D01*
X1270780Y1312680D01*
X1270660Y1313330D01*
X1270240Y1313800D01*
X1269820Y1313990D01*
X1269280D01*
G01X1269820D02*
X1270180Y1314270D01*
X1270480Y1314730D01*
X1270600Y1315290D01*
X1270480Y1315850D01*
X1270180Y1316320D01*
X1269640Y1316600D01*
X1269100Y1316510D01*
X1268560Y1316130D01*
G01X1273500Y1311000D02*
Y1316600D01*
X1272780Y1315480D01*
G01Y1311000D02*
X1274220D01*
G01X1277600Y1316600D02*
X1277120Y1316410D01*
X1276760Y1315950D01*
X1276520Y1315390D01*
X1276340Y1314640D01*
X1276280Y1313800D01*
X1276340Y1312960D01*
X1276520Y1312210D01*
X1276760Y1311650D01*
X1277120Y1311190D01*
X1277600Y1311000D01*
X1278080Y1311190D01*
X1278440Y1311650D01*
X1278680Y1312210D01*
X1278860Y1312960D01*
X1278920Y1313800D01*
X1278860Y1314640D01*
X1278680Y1315390D01*
X1278440Y1315950D01*
X1278080Y1316410D01*
X1277600Y1316600D01*
G01X1280560Y1315670D02*
X1280920Y1316230D01*
X1281340Y1316510D01*
X1281820Y1316600D01*
X1282420Y1316410D01*
X1282840Y1315950D01*
X1282960Y1315390D01*
X1282900Y1314830D01*
X1282660Y1314360D01*
X1281460Y1313430D01*
X1280920Y1312770D01*
X1280560Y1311840D01*
X1280440Y1311000D01*
X1282960D01*
G01X1265620Y1303130D02*
X1265260Y1303410D01*
X1264840Y1303600D01*
X1264360D01*
X1263820Y1303320D01*
X1263400Y1302850D01*
X1263100Y1302290D01*
X1262860Y1301360D01*
X1262800Y1300520D01*
X1262920Y1299680D01*
X1263100Y1299120D01*
X1263460Y1298560D01*
X1263880Y1298190D01*
X1264300Y1298000D01*
X1264720D01*
X1265140Y1298190D01*
X1265500Y1298470D01*
X1265800Y1298840D01*
G01X1267080Y1299120D02*
X1267440Y1298470D01*
X1267920Y1298090D01*
X1268460Y1298000D01*
X1268940Y1298090D01*
X1269420Y1298560D01*
X1269720Y1299120D01*
X1269780Y1299680D01*
X1269660Y1300330D01*
X1269240Y1300800D01*
X1268820Y1300990D01*
X1268280D01*
G01X1268820D02*
X1269180Y1301270D01*
X1269480Y1301730D01*
X1269600Y1302290D01*
X1269480Y1302850D01*
X1269180Y1303320D01*
X1268640Y1303600D01*
X1268100Y1303510D01*
X1267560Y1303130D01*
G01X1272500Y1298000D02*
Y1303600D01*
X1271780Y1302480D01*
G01Y1298000D02*
X1273220D01*
G01X1276600Y1303600D02*
X1276120Y1303410D01*
X1275760Y1302950D01*
X1275520Y1302390D01*
X1275340Y1301640D01*
X1275280Y1300800D01*
X1275340Y1299960D01*
X1275520Y1299210D01*
X1275760Y1298650D01*
X1276120Y1298190D01*
X1276600Y1298000D01*
X1277080Y1298190D01*
X1277440Y1298650D01*
X1277680Y1299210D01*
X1277860Y1299960D01*
X1277920Y1300800D01*
X1277860Y1301640D01*
X1277680Y1302390D01*
X1277440Y1302950D01*
X1277080Y1303410D01*
X1276600Y1303600D01*
G01X1280700Y1298000D02*
Y1303600D01*
X1279980Y1302480D01*
G01Y1298000D02*
X1281420D01*
G01X1264620Y1329130D02*
X1264260Y1329410D01*
X1263840Y1329600D01*
X1263360D01*
X1262820Y1329320D01*
X1262400Y1328850D01*
X1262100Y1328290D01*
X1261860Y1327360D01*
X1261800Y1326520D01*
X1261920Y1325680D01*
X1262100Y1325120D01*
X1262460Y1324560D01*
X1262880Y1324190D01*
X1263300Y1324000D01*
X1263720D01*
X1264140Y1324190D01*
X1264500Y1324470D01*
X1264800Y1324840D01*
G01X1266080Y1325120D02*
X1266440Y1324470D01*
X1266920Y1324090D01*
X1267460Y1324000D01*
X1267940Y1324090D01*
X1268420Y1324560D01*
X1268720Y1325120D01*
X1268780Y1325680D01*
X1268660Y1326330D01*
X1268240Y1326800D01*
X1267820Y1326990D01*
X1267280D01*
G01X1267820D02*
X1268180Y1327270D01*
X1268480Y1327730D01*
X1268600Y1328290D01*
X1268480Y1328850D01*
X1268180Y1329320D01*
X1267640Y1329600D01*
X1267100Y1329510D01*
X1266560Y1329130D01*
G01X1271500Y1324000D02*
Y1329600D01*
X1270780Y1328480D01*
G01Y1324000D02*
X1272220D01*
G01X1275600Y1329600D02*
X1275120Y1329410D01*
X1274760Y1328950D01*
X1274520Y1328390D01*
X1274340Y1327640D01*
X1274280Y1326800D01*
X1274340Y1325960D01*
X1274520Y1325210D01*
X1274760Y1324650D01*
X1275120Y1324190D01*
X1275600Y1324000D01*
X1276080Y1324190D01*
X1276440Y1324650D01*
X1276680Y1325210D01*
X1276860Y1325960D01*
X1276920Y1326800D01*
X1276860Y1327640D01*
X1276680Y1328390D01*
X1276440Y1328950D01*
X1276080Y1329410D01*
X1275600Y1329600D01*
G01X1278380Y1325120D02*
X1278740Y1324470D01*
X1279220Y1324090D01*
X1279760Y1324000D01*
X1280240Y1324090D01*
X1280720Y1324560D01*
X1281020Y1325120D01*
X1281080Y1325680D01*
X1280960Y1326330D01*
X1280540Y1326800D01*
X1280120Y1326990D01*
X1279580D01*
G01X1280120D02*
X1280480Y1327270D01*
X1280780Y1327730D01*
X1280900Y1328290D01*
X1280780Y1328850D01*
X1280480Y1329320D01*
X1279940Y1329600D01*
X1279400Y1329510D01*
X1278860Y1329130D01*
G01X1264600Y1342600D02*
Y1337000D01*
X1267000D01*
G01X1268580Y1338120D02*
X1268940Y1337470D01*
X1269420Y1337090D01*
X1269960Y1337000D01*
X1270440Y1337090D01*
X1270920Y1337560D01*
X1271220Y1338120D01*
X1271280Y1338680D01*
X1271160Y1339330D01*
X1270740Y1339800D01*
X1270320Y1339990D01*
X1269780D01*
G01X1270320D02*
X1270680Y1340270D01*
X1270980Y1340730D01*
X1271100Y1341290D01*
X1270980Y1341850D01*
X1270680Y1342320D01*
X1270140Y1342600D01*
X1269600Y1342510D01*
X1269060Y1342130D01*
G01X1274000Y1337000D02*
Y1342600D01*
X1273280Y1341480D01*
G01Y1337000D02*
X1274720D01*
G01X1278100Y1342600D02*
X1277620Y1342410D01*
X1277260Y1341950D01*
X1277020Y1341390D01*
X1276840Y1340640D01*
X1276780Y1339800D01*
X1276840Y1338960D01*
X1277020Y1338210D01*
X1277260Y1337650D01*
X1277620Y1337190D01*
X1278100Y1337000D01*
X1278580Y1337190D01*
X1278940Y1337650D01*
X1279180Y1338210D01*
X1279360Y1338960D01*
X1279420Y1339800D01*
X1279360Y1340640D01*
X1279180Y1341390D01*
X1278940Y1341950D01*
X1278580Y1342410D01*
X1278100Y1342600D01*
G01X1282920Y1337000D02*
Y1342600D01*
X1280700Y1338590D01*
X1283700D01*
G01X1273620Y1354130D02*
X1273260Y1354410D01*
X1272840Y1354600D01*
X1272360D01*
X1271820Y1354320D01*
X1271400Y1353850D01*
X1271100Y1353290D01*
X1270860Y1352360D01*
X1270800Y1351520D01*
X1270920Y1350680D01*
X1271100Y1350120D01*
X1271460Y1349560D01*
X1271880Y1349190D01*
X1272300Y1349000D01*
X1272720D01*
X1273140Y1349190D01*
X1273500Y1349470D01*
X1273800Y1349840D01*
G01X1275080Y1350120D02*
X1275440Y1349470D01*
X1275920Y1349090D01*
X1276460Y1349000D01*
X1276940Y1349090D01*
X1277420Y1349560D01*
X1277720Y1350120D01*
X1277780Y1350680D01*
X1277660Y1351330D01*
X1277240Y1351800D01*
X1276820Y1351990D01*
X1276280D01*
G01X1276820D02*
X1277180Y1352270D01*
X1277480Y1352730D01*
X1277600Y1353290D01*
X1277480Y1353850D01*
X1277180Y1354320D01*
X1276640Y1354600D01*
X1276100Y1354510D01*
X1275560Y1354130D01*
G01X1280500Y1349000D02*
Y1354600D01*
X1279780Y1353480D01*
G01Y1349000D02*
X1281220D01*
G01X1284600Y1354600D02*
X1284120Y1354410D01*
X1283760Y1353950D01*
X1283520Y1353390D01*
X1283340Y1352640D01*
X1283280Y1351800D01*
X1283340Y1350960D01*
X1283520Y1350210D01*
X1283760Y1349650D01*
X1284120Y1349190D01*
X1284600Y1349000D01*
X1285080Y1349190D01*
X1285440Y1349650D01*
X1285680Y1350210D01*
X1285860Y1350960D01*
X1285920Y1351800D01*
X1285860Y1352640D01*
X1285680Y1353390D01*
X1285440Y1353950D01*
X1285080Y1354410D01*
X1284600Y1354600D01*
G01X1287380Y1349840D02*
X1287740Y1349370D01*
X1288160Y1349090D01*
X1288700Y1349000D01*
X1289240Y1349190D01*
X1289660Y1349560D01*
X1289960Y1350210D01*
X1290020Y1350960D01*
X1289900Y1351710D01*
X1289600Y1352170D01*
X1289180Y1352550D01*
X1288760Y1352640D01*
X1288340Y1352550D01*
X1287800Y1352170D01*
X1287980Y1354600D01*
X1289600D01*
G01X1266120Y1368630D02*
X1265760Y1368910D01*
X1265340Y1369100D01*
X1264860D01*
X1264320Y1368820D01*
X1263900Y1368350D01*
X1263600Y1367790D01*
X1263360Y1366860D01*
X1263300Y1366020D01*
X1263420Y1365180D01*
X1263600Y1364620D01*
X1263960Y1364060D01*
X1264380Y1363690D01*
X1264800Y1363500D01*
X1265220D01*
X1265640Y1363690D01*
X1266000Y1363970D01*
X1266300Y1364340D01*
G01X1267580Y1364620D02*
X1267940Y1363970D01*
X1268420Y1363590D01*
X1268960Y1363500D01*
X1269440Y1363590D01*
X1269920Y1364060D01*
X1270220Y1364620D01*
X1270280Y1365180D01*
X1270160Y1365830D01*
X1269740Y1366300D01*
X1269320Y1366490D01*
X1268780D01*
G01X1269320D02*
X1269680Y1366770D01*
X1269980Y1367230D01*
X1270100Y1367790D01*
X1269980Y1368350D01*
X1269680Y1368820D01*
X1269140Y1369100D01*
X1268600Y1369010D01*
X1268060Y1368630D01*
G01X1273000Y1363500D02*
Y1369100D01*
X1272280Y1367980D01*
G01Y1363500D02*
X1273720D01*
G01X1277100D02*
Y1369100D01*
X1276380Y1367980D01*
G01Y1363500D02*
X1277820D01*
G01X1281200Y1369100D02*
X1280720Y1368910D01*
X1280360Y1368450D01*
X1280120Y1367890D01*
X1279940Y1367140D01*
X1279880Y1366300D01*
X1279940Y1365460D01*
X1280120Y1364710D01*
X1280360Y1364150D01*
X1280720Y1363690D01*
X1281200Y1363500D01*
X1281680Y1363690D01*
X1282040Y1364150D01*
X1282280Y1364710D01*
X1282460Y1365460D01*
X1282520Y1366300D01*
X1282460Y1367140D01*
X1282280Y1367890D01*
X1282040Y1368450D01*
X1281680Y1368910D01*
X1281200Y1369100D01*
G01X1266120Y1390630D02*
X1265760Y1390910D01*
X1265340Y1391100D01*
X1264860D01*
X1264320Y1390820D01*
X1263900Y1390350D01*
X1263600Y1389790D01*
X1263360Y1388860D01*
X1263300Y1388020D01*
X1263420Y1387180D01*
X1263600Y1386620D01*
X1263960Y1386060D01*
X1264380Y1385690D01*
X1264800Y1385500D01*
X1265220D01*
X1265640Y1385690D01*
X1266000Y1385970D01*
X1266300Y1386340D01*
G01X1267580Y1386620D02*
X1267940Y1385970D01*
X1268420Y1385590D01*
X1268960Y1385500D01*
X1269440Y1385590D01*
X1269920Y1386060D01*
X1270220Y1386620D01*
X1270280Y1387180D01*
X1270160Y1387830D01*
X1269740Y1388300D01*
X1269320Y1388490D01*
X1268780D01*
G01X1269320D02*
X1269680Y1388770D01*
X1269980Y1389230D01*
X1270100Y1389790D01*
X1269980Y1390350D01*
X1269680Y1390820D01*
X1269140Y1391100D01*
X1268600Y1391010D01*
X1268060Y1390630D01*
G01X1273000Y1385500D02*
Y1391100D01*
X1272280Y1389980D01*
G01Y1385500D02*
X1273720D01*
G01X1277100Y1391100D02*
X1276620Y1390910D01*
X1276260Y1390450D01*
X1276020Y1389890D01*
X1275840Y1389140D01*
X1275780Y1388300D01*
X1275840Y1387460D01*
X1276020Y1386710D01*
X1276260Y1386150D01*
X1276620Y1385690D01*
X1277100Y1385500D01*
X1277580Y1385690D01*
X1277940Y1386150D01*
X1278180Y1386710D01*
X1278360Y1387460D01*
X1278420Y1388300D01*
X1278360Y1389140D01*
X1278180Y1389890D01*
X1277940Y1390450D01*
X1277580Y1390910D01*
X1277100Y1391100D01*
G01X1280180Y1386150D02*
X1280600Y1385690D01*
X1281080Y1385500D01*
X1281560Y1385690D01*
X1281980Y1386250D01*
X1282280Y1387090D01*
X1282400Y1387930D01*
Y1388950D01*
X1282280Y1389790D01*
X1281980Y1390540D01*
X1281620Y1390910D01*
X1281200Y1391100D01*
X1280720Y1390910D01*
X1280360Y1390540D01*
X1280120Y1389980D01*
X1280000Y1389230D01*
X1280120Y1388580D01*
X1280420Y1387930D01*
X1280780Y1387550D01*
X1281200Y1387460D01*
X1281680Y1387650D01*
X1282040Y1388110D01*
X1282400Y1388950D01*
G01X1313360Y1012500D02*
Y1018100D01*
X1315640D01*
G01X1314800Y1015390D02*
X1313360D01*
G01X1317400Y1018100D02*
Y1012500D01*
X1319800D01*
G01X1322700D02*
Y1018100D01*
X1321980Y1016980D01*
G01Y1012500D02*
X1323420D01*
G01X1333620Y1122630D02*
X1333260Y1122910D01*
X1332840Y1123100D01*
X1332360D01*
X1331820Y1122820D01*
X1331400Y1122350D01*
X1331100Y1121790D01*
X1330860Y1120860D01*
X1330800Y1120020D01*
X1330920Y1119180D01*
X1331100Y1118620D01*
X1331460Y1118060D01*
X1331880Y1117690D01*
X1332300Y1117500D01*
X1332720D01*
X1333140Y1117690D01*
X1333500Y1117970D01*
X1333800Y1118340D01*
G01X1336400Y1117500D02*
Y1123100D01*
X1335680Y1121980D01*
G01Y1117500D02*
X1337120D01*
G01X1339180Y1118340D02*
X1339540Y1117870D01*
X1339960Y1117590D01*
X1340500Y1117500D01*
X1341040Y1117690D01*
X1341460Y1118060D01*
X1341760Y1118710D01*
X1341820Y1119460D01*
X1341700Y1120210D01*
X1341400Y1120670D01*
X1340980Y1121050D01*
X1340560Y1121140D01*
X1340140Y1121050D01*
X1339600Y1120670D01*
X1339780Y1123100D01*
X1341400D01*
G01X1344600Y1117500D02*
Y1123100D01*
X1343880Y1121980D01*
G01Y1117500D02*
X1345320D01*
G01X1333120Y1176630D02*
X1332760Y1176910D01*
X1332340Y1177100D01*
X1331860D01*
X1331320Y1176820D01*
X1330900Y1176350D01*
X1330600Y1175790D01*
X1330360Y1174860D01*
X1330300Y1174020D01*
X1330420Y1173180D01*
X1330600Y1172620D01*
X1330960Y1172060D01*
X1331380Y1171690D01*
X1331800Y1171500D01*
X1332220D01*
X1332640Y1171690D01*
X1333000Y1171970D01*
X1333300Y1172340D01*
G01X1334760Y1176170D02*
X1335120Y1176730D01*
X1335540Y1177010D01*
X1336020Y1177100D01*
X1336620Y1176910D01*
X1337040Y1176450D01*
X1337160Y1175890D01*
X1337100Y1175330D01*
X1336860Y1174860D01*
X1335660Y1173930D01*
X1335120Y1173270D01*
X1334760Y1172340D01*
X1334640Y1171500D01*
X1337160D01*
G01X1340720D02*
Y1177100D01*
X1338500Y1173090D01*
X1341500D01*
G01X1344100Y1171500D02*
Y1177100D01*
X1343380Y1175980D01*
G01Y1171500D02*
X1344820D01*
G01X1331520Y1198730D02*
X1331160Y1199010D01*
X1330740Y1199200D01*
X1330260D01*
X1329720Y1198920D01*
X1329300Y1198450D01*
X1329000Y1197890D01*
X1328760Y1196960D01*
X1328700Y1196120D01*
X1328820Y1195280D01*
X1329000Y1194720D01*
X1329360Y1194160D01*
X1329780Y1193790D01*
X1330200Y1193600D01*
X1330620D01*
X1331040Y1193790D01*
X1331400Y1194070D01*
X1331700Y1194440D01*
G01X1333160Y1198270D02*
X1333520Y1198830D01*
X1333940Y1199110D01*
X1334420Y1199200D01*
X1335020Y1199010D01*
X1335440Y1198550D01*
X1335560Y1197990D01*
X1335500Y1197430D01*
X1335260Y1196960D01*
X1334060Y1196030D01*
X1333520Y1195370D01*
X1333160Y1194440D01*
X1333040Y1193600D01*
X1335560D01*
G01X1338400D02*
X1338820Y1193690D01*
X1339300Y1193970D01*
X1339600Y1194440D01*
X1339720Y1195090D01*
X1339600Y1195750D01*
X1339240Y1196310D01*
X1338700Y1196590D01*
X1338100D01*
X1337740Y1196770D01*
X1337440Y1197240D01*
X1337320Y1197890D01*
X1337500Y1198550D01*
X1337920Y1199010D01*
X1338400Y1199200D01*
X1338880Y1199010D01*
X1339300Y1198550D01*
X1339480Y1197890D01*
X1339360Y1197240D01*
X1339060Y1196770D01*
X1338700Y1196590D01*
X1338100D01*
X1337560Y1196310D01*
X1337200Y1195750D01*
X1337080Y1195090D01*
X1337200Y1194440D01*
X1337500Y1193970D01*
X1337980Y1193690D01*
X1338400Y1193600D01*
G01X1342500D02*
Y1199200D01*
X1341780Y1198080D01*
G01Y1193600D02*
X1343220D01*
G01X1329700Y1202900D02*
Y1208500D01*
X1331200D01*
X1331680Y1208220D01*
X1331980Y1207850D01*
X1332100Y1207100D01*
X1331980Y1206350D01*
X1331620Y1205890D01*
X1331200Y1205610D01*
X1329700D01*
G01X1331200D02*
X1332100Y1202900D01*
G01X1333860Y1207570D02*
X1334220Y1208130D01*
X1334640Y1208410D01*
X1335120Y1208500D01*
X1335720Y1208310D01*
X1336140Y1207850D01*
X1336260Y1207290D01*
X1336200Y1206730D01*
X1335960Y1206260D01*
X1334760Y1205330D01*
X1334220Y1204670D01*
X1333860Y1203740D01*
X1333740Y1202900D01*
X1336260D01*
G01X1339100D02*
X1339520Y1202990D01*
X1340000Y1203270D01*
X1340300Y1203740D01*
X1340420Y1204390D01*
X1340300Y1205050D01*
X1339940Y1205610D01*
X1339400Y1205890D01*
X1338800D01*
X1338440Y1206070D01*
X1338140Y1206540D01*
X1338020Y1207190D01*
X1338200Y1207850D01*
X1338620Y1208310D01*
X1339100Y1208500D01*
X1339580Y1208310D01*
X1340000Y1207850D01*
X1340180Y1207190D01*
X1340060Y1206540D01*
X1339760Y1206070D01*
X1339400Y1205890D01*
X1338800D01*
X1338260Y1205610D01*
X1337900Y1205050D01*
X1337780Y1204390D01*
X1337900Y1203740D01*
X1338200Y1203270D01*
X1338680Y1202990D01*
X1339100Y1202900D01*
G01X1343200D02*
Y1208500D01*
X1342480Y1207380D01*
G01Y1202900D02*
X1343920D01*
G01X1329540Y1236000D02*
X1332060Y1241600D01*
G01X1329540D02*
X1332060Y1236000D01*
G01X1334900D02*
Y1241600D01*
X1334180Y1240480D01*
G01Y1236000D02*
X1335620D01*
G01X1317100Y1268000D02*
Y1273600D01*
X1318600D01*
X1319080Y1273320D01*
X1319380Y1272950D01*
X1319500Y1272200D01*
X1319380Y1271450D01*
X1319020Y1270990D01*
X1318600Y1270710D01*
X1317100D01*
G01X1318600D02*
X1319500Y1268000D01*
G01X1321080Y1269120D02*
X1321440Y1268470D01*
X1321920Y1268090D01*
X1322460Y1268000D01*
X1322940Y1268090D01*
X1323420Y1268560D01*
X1323720Y1269120D01*
X1323780Y1269680D01*
X1323660Y1270330D01*
X1323240Y1270800D01*
X1322820Y1270990D01*
X1322280D01*
G01X1322820D02*
X1323180Y1271270D01*
X1323480Y1271730D01*
X1323600Y1272290D01*
X1323480Y1272850D01*
X1323180Y1273320D01*
X1322640Y1273600D01*
X1322100Y1273510D01*
X1321560Y1273130D01*
G01X1326500Y1273600D02*
X1326020Y1273410D01*
X1325660Y1272950D01*
X1325420Y1272390D01*
X1325240Y1271640D01*
X1325180Y1270800D01*
X1325240Y1269960D01*
X1325420Y1269210D01*
X1325660Y1268650D01*
X1326020Y1268190D01*
X1326500Y1268000D01*
X1326980Y1268190D01*
X1327340Y1268650D01*
X1327580Y1269210D01*
X1327760Y1269960D01*
X1327820Y1270800D01*
X1327760Y1271640D01*
X1327580Y1272390D01*
X1327340Y1272950D01*
X1326980Y1273410D01*
X1326500Y1273600D01*
G01X1329460Y1270330D02*
X1329880Y1270990D01*
X1330240Y1271360D01*
X1330720Y1271550D01*
X1331140Y1271360D01*
X1331440Y1270990D01*
X1331680Y1270430D01*
X1331740Y1269770D01*
X1331680Y1269210D01*
X1331440Y1268650D01*
X1331080Y1268190D01*
X1330660Y1268000D01*
X1330180Y1268190D01*
X1329760Y1268750D01*
X1329520Y1269590D01*
X1329460Y1270520D01*
X1329580Y1271730D01*
X1329760Y1272390D01*
X1330060Y1273040D01*
X1330480Y1273510D01*
X1330900Y1273600D01*
X1331320Y1273410D01*
X1331620Y1272950D01*
G01X1334700Y1268000D02*
Y1273600D01*
X1333980Y1272480D01*
G01Y1268000D02*
X1335420D01*
G01X1317100Y1259000D02*
Y1264600D01*
X1318600D01*
X1319080Y1264320D01*
X1319380Y1263950D01*
X1319500Y1263200D01*
X1319380Y1262450D01*
X1319020Y1261990D01*
X1318600Y1261710D01*
X1317100D01*
G01X1318600D02*
X1319500Y1259000D01*
G01X1321080Y1260120D02*
X1321440Y1259470D01*
X1321920Y1259090D01*
X1322460Y1259000D01*
X1322940Y1259090D01*
X1323420Y1259560D01*
X1323720Y1260120D01*
X1323780Y1260680D01*
X1323660Y1261330D01*
X1323240Y1261800D01*
X1322820Y1261990D01*
X1322280D01*
G01X1322820D02*
X1323180Y1262270D01*
X1323480Y1262730D01*
X1323600Y1263290D01*
X1323480Y1263850D01*
X1323180Y1264320D01*
X1322640Y1264600D01*
X1322100Y1264510D01*
X1321560Y1264130D01*
G01X1326500Y1264600D02*
X1326020Y1264410D01*
X1325660Y1263950D01*
X1325420Y1263390D01*
X1325240Y1262640D01*
X1325180Y1261800D01*
X1325240Y1260960D01*
X1325420Y1260210D01*
X1325660Y1259650D01*
X1326020Y1259190D01*
X1326500Y1259000D01*
X1326980Y1259190D01*
X1327340Y1259650D01*
X1327580Y1260210D01*
X1327760Y1260960D01*
X1327820Y1261800D01*
X1327760Y1262640D01*
X1327580Y1263390D01*
X1327340Y1263950D01*
X1326980Y1264410D01*
X1326500Y1264600D01*
G01X1329280Y1259840D02*
X1329640Y1259370D01*
X1330060Y1259090D01*
X1330600Y1259000D01*
X1331140Y1259190D01*
X1331560Y1259560D01*
X1331860Y1260210D01*
X1331920Y1260960D01*
X1331800Y1261710D01*
X1331500Y1262170D01*
X1331080Y1262550D01*
X1330660Y1262640D01*
X1330240Y1262550D01*
X1329700Y1262170D01*
X1329880Y1264600D01*
X1331500D01*
G01X1334700Y1259000D02*
Y1264600D01*
X1333980Y1263480D01*
G01Y1259000D02*
X1335420D01*
G01X1317100Y1277000D02*
Y1282600D01*
X1318600D01*
X1319080Y1282320D01*
X1319380Y1281950D01*
X1319500Y1281200D01*
X1319380Y1280450D01*
X1319020Y1279990D01*
X1318600Y1279710D01*
X1317100D01*
G01X1318600D02*
X1319500Y1277000D01*
G01X1321080Y1278120D02*
X1321440Y1277470D01*
X1321920Y1277090D01*
X1322460Y1277000D01*
X1322940Y1277090D01*
X1323420Y1277560D01*
X1323720Y1278120D01*
X1323780Y1278680D01*
X1323660Y1279330D01*
X1323240Y1279800D01*
X1322820Y1279990D01*
X1322280D01*
G01X1322820D02*
X1323180Y1280270D01*
X1323480Y1280730D01*
X1323600Y1281290D01*
X1323480Y1281850D01*
X1323180Y1282320D01*
X1322640Y1282600D01*
X1322100Y1282510D01*
X1321560Y1282130D01*
G01X1326500Y1282600D02*
X1326020Y1282410D01*
X1325660Y1281950D01*
X1325420Y1281390D01*
X1325240Y1280640D01*
X1325180Y1279800D01*
X1325240Y1278960D01*
X1325420Y1278210D01*
X1325660Y1277650D01*
X1326020Y1277190D01*
X1326500Y1277000D01*
X1326980Y1277190D01*
X1327340Y1277650D01*
X1327580Y1278210D01*
X1327760Y1278960D01*
X1327820Y1279800D01*
X1327760Y1280640D01*
X1327580Y1281390D01*
X1327340Y1281950D01*
X1326980Y1282410D01*
X1326500Y1282600D01*
G01X1330480Y1277000D02*
X1330600Y1278210D01*
X1330780Y1279240D01*
X1331020Y1280170D01*
X1331320Y1281200D01*
X1331800Y1282600D01*
X1329400D01*
G01X1334700Y1277000D02*
Y1282600D01*
X1333980Y1281480D01*
G01Y1277000D02*
X1335420D01*
G01X1352000Y932900D02*
Y938500D01*
X1353440D01*
X1353920Y938220D01*
X1354280Y937570D01*
X1354400Y936820D01*
X1354280Y936070D01*
X1353980Y935510D01*
X1353440Y935230D01*
X1352000D01*
G01X1355980Y933740D02*
X1356340Y933270D01*
X1356760Y932990D01*
X1357300Y932900D01*
X1357840Y933090D01*
X1358260Y933460D01*
X1358560Y934110D01*
X1358620Y934860D01*
X1358500Y935610D01*
X1358200Y936070D01*
X1357780Y936450D01*
X1357360Y936540D01*
X1356940Y936450D01*
X1356400Y936070D01*
X1356580Y938500D01*
X1358200D01*
G01X1370660Y977000D02*
Y982600D01*
X1372940D01*
G01X1372100Y979890D02*
X1370660D01*
G01X1374700Y982600D02*
Y977000D01*
X1377100D01*
G01X1378860Y981670D02*
X1379220Y982230D01*
X1379640Y982510D01*
X1380120Y982600D01*
X1380720Y982410D01*
X1381140Y981950D01*
X1381260Y981390D01*
X1381200Y980830D01*
X1380960Y980360D01*
X1379760Y979430D01*
X1379220Y978770D01*
X1378860Y977840D01*
X1378740Y977000D01*
X1381260D01*
G01X1373620Y1014130D02*
X1373260Y1014410D01*
X1372840Y1014600D01*
X1372360D01*
X1371820Y1014320D01*
X1371400Y1013850D01*
X1371100Y1013290D01*
X1370860Y1012360D01*
X1370800Y1011520D01*
X1370920Y1010680D01*
X1371100Y1010120D01*
X1371460Y1009560D01*
X1371880Y1009190D01*
X1372300Y1009000D01*
X1372720D01*
X1373140Y1009190D01*
X1373500Y1009470D01*
X1373800Y1009840D01*
G01X1375080D02*
X1375440Y1009370D01*
X1375860Y1009090D01*
X1376400Y1009000D01*
X1376940Y1009190D01*
X1377360Y1009560D01*
X1377660Y1010210D01*
X1377720Y1010960D01*
X1377600Y1011710D01*
X1377300Y1012170D01*
X1376880Y1012550D01*
X1376460Y1012640D01*
X1376040Y1012550D01*
X1375500Y1012170D01*
X1375680Y1014600D01*
X1377300D01*
G01X1349120Y1036630D02*
X1348760Y1036910D01*
X1348340Y1037100D01*
X1347860D01*
X1347320Y1036820D01*
X1346900Y1036350D01*
X1346600Y1035790D01*
X1346360Y1034860D01*
X1346300Y1034020D01*
X1346420Y1033180D01*
X1346600Y1032620D01*
X1346960Y1032060D01*
X1347380Y1031690D01*
X1347800Y1031500D01*
X1348220D01*
X1348640Y1031690D01*
X1349000Y1031970D01*
X1349300Y1032340D01*
G01X1350760Y1036170D02*
X1351120Y1036730D01*
X1351540Y1037010D01*
X1352020Y1037100D01*
X1352620Y1036910D01*
X1353040Y1036450D01*
X1353160Y1035890D01*
X1353100Y1035330D01*
X1352860Y1034860D01*
X1351660Y1033930D01*
X1351120Y1033270D01*
X1350760Y1032340D01*
X1350640Y1031500D01*
X1353160D01*
G01X1378620Y1134130D02*
X1378260Y1134410D01*
X1377840Y1134600D01*
X1377360D01*
X1376820Y1134320D01*
X1376400Y1133850D01*
X1376100Y1133290D01*
X1375860Y1132360D01*
X1375800Y1131520D01*
X1375920Y1130680D01*
X1376100Y1130120D01*
X1376460Y1129560D01*
X1376880Y1129190D01*
X1377300Y1129000D01*
X1377720D01*
X1378140Y1129190D01*
X1378500Y1129470D01*
X1378800Y1129840D01*
G01X1382120Y1129000D02*
Y1134600D01*
X1379900Y1130590D01*
X1382900D01*
G01X1356620Y1237130D02*
X1356260Y1237410D01*
X1355840Y1237600D01*
X1355360D01*
X1354820Y1237320D01*
X1354400Y1236850D01*
X1354100Y1236290D01*
X1353860Y1235360D01*
X1353800Y1234520D01*
X1353920Y1233680D01*
X1354100Y1233120D01*
X1354460Y1232560D01*
X1354880Y1232190D01*
X1355300Y1232000D01*
X1355720D01*
X1356140Y1232190D01*
X1356500Y1232470D01*
X1356800Y1232840D01*
G01X1358080Y1233120D02*
X1358440Y1232470D01*
X1358920Y1232090D01*
X1359460Y1232000D01*
X1359940Y1232090D01*
X1360420Y1232560D01*
X1360720Y1233120D01*
X1360780Y1233680D01*
X1360660Y1234330D01*
X1360240Y1234800D01*
X1359820Y1234990D01*
X1359280D01*
G01X1359820D02*
X1360180Y1235270D01*
X1360480Y1235730D01*
X1360600Y1236290D01*
X1360480Y1236850D01*
X1360180Y1237320D01*
X1359640Y1237600D01*
X1359100Y1237510D01*
X1358560Y1237130D01*
G01X1364220Y1232000D02*
Y1237600D01*
X1362000Y1233590D01*
X1365000D01*
G01X1367600Y1232000D02*
Y1237600D01*
X1366880Y1236480D01*
G01Y1232000D02*
X1368320D01*
G01X1342120Y1258130D02*
X1341760Y1258410D01*
X1341340Y1258600D01*
X1340860D01*
X1340320Y1258320D01*
X1339900Y1257850D01*
X1339600Y1257290D01*
X1339360Y1256360D01*
X1339300Y1255520D01*
X1339420Y1254680D01*
X1339600Y1254120D01*
X1339960Y1253560D01*
X1340380Y1253190D01*
X1340800Y1253000D01*
X1341220D01*
X1341640Y1253190D01*
X1342000Y1253470D01*
X1342300Y1253840D01*
G01X1343580Y1254120D02*
X1343940Y1253470D01*
X1344420Y1253090D01*
X1344960Y1253000D01*
X1345440Y1253090D01*
X1345920Y1253560D01*
X1346220Y1254120D01*
X1346280Y1254680D01*
X1346160Y1255330D01*
X1345740Y1255800D01*
X1345320Y1255990D01*
X1344780D01*
G01X1345320D02*
X1345680Y1256270D01*
X1345980Y1256730D01*
X1346100Y1257290D01*
X1345980Y1257850D01*
X1345680Y1258320D01*
X1345140Y1258600D01*
X1344600Y1258510D01*
X1344060Y1258130D01*
G01X1347680Y1253840D02*
X1348040Y1253370D01*
X1348460Y1253090D01*
X1349000Y1253000D01*
X1349540Y1253190D01*
X1349960Y1253560D01*
X1350260Y1254210D01*
X1350320Y1254960D01*
X1350200Y1255710D01*
X1349900Y1256170D01*
X1349480Y1256550D01*
X1349060Y1256640D01*
X1348640Y1256550D01*
X1348100Y1256170D01*
X1348280Y1258600D01*
X1349900D01*
G01X1353100Y1253000D02*
Y1258600D01*
X1352380Y1257480D01*
G01Y1253000D02*
X1353820D01*
G01X1409600Y1182500D02*
Y1188100D01*
X1411100D01*
X1411580Y1187820D01*
X1411880Y1187450D01*
X1412000Y1186700D01*
X1411880Y1185950D01*
X1411520Y1185490D01*
X1411100Y1185210D01*
X1409600D01*
G01X1411100D02*
X1412000Y1182500D01*
G01X1413760Y1187170D02*
X1414120Y1187730D01*
X1414540Y1188010D01*
X1415020Y1188100D01*
X1415620Y1187910D01*
X1416040Y1187450D01*
X1416160Y1186890D01*
X1416100Y1186330D01*
X1415860Y1185860D01*
X1414660Y1184930D01*
X1414120Y1184270D01*
X1413760Y1183340D01*
X1413640Y1182500D01*
X1416160D01*
G01X1418880D02*
X1419000Y1183710D01*
X1419180Y1184740D01*
X1419420Y1185670D01*
X1419720Y1186700D01*
X1420200Y1188100D01*
X1417800D01*
G01X1423100Y1182500D02*
Y1188100D01*
X1422380Y1186980D01*
G01Y1182500D02*
X1423820D01*
G01X1426660Y941900D02*
Y947500D01*
X1428940D01*
G01X1428100Y944790D02*
X1426660D01*
G01X1431180Y947500D02*
X1432620D01*
G01X1431900D02*
Y941900D01*
G01X1431180D02*
X1432620D01*
G01X1434680D02*
Y947500D01*
X1435880D01*
X1436360Y947220D01*
X1436720Y946850D01*
X1437020Y946290D01*
X1437260Y945630D01*
X1437320Y944700D01*
X1437260Y943770D01*
X1437020Y943110D01*
X1436720Y942550D01*
X1436360Y942180D01*
X1435880Y941900D01*
X1434680D01*
G01X1438780Y947500D02*
Y943490D01*
X1439020Y942650D01*
X1439500Y942090D01*
X1440100Y941900D01*
X1440700Y942090D01*
X1441180Y942650D01*
X1441420Y943490D01*
Y947500D01*
G01X1442880Y943020D02*
X1443240Y942370D01*
X1443720Y941990D01*
X1444260Y941900D01*
X1444740Y941990D01*
X1445220Y942460D01*
X1445520Y943020D01*
X1445580Y943580D01*
X1445460Y944230D01*
X1445040Y944700D01*
X1444620Y944890D01*
X1444080D01*
G01X1444620D02*
X1444980Y945170D01*
X1445280Y945630D01*
X1445400Y946190D01*
X1445280Y946750D01*
X1444980Y947220D01*
X1444440Y947500D01*
X1443900Y947410D01*
X1443360Y947030D01*
G54D11*
G01X1054000Y900000D02*
X1127500D01*
Y917500D01*
X1214500D01*
Y900000D01*
X1470000D01*
Y1467500D01*
X1054000D01*
Y900000D01*
G01X1094700Y924800D02*
G03I-10500J0D01*
G01X1080000Y1381500D02*
G03I-10500J0D01*
G01X1092850Y1166150D02*
Y1159850D01*
X1086550D01*
Y1166150D01*
X1092850D01*
G01X1102200Y1201100D02*
Y1150300D01*
X1077200D01*
Y1201100D01*
X1102200D01*
G01X1092850Y1166150D02*
Y1159850D01*
X1086550D01*
Y1166150D01*
X1092850D01*
G01X1102200Y1201100D02*
Y1150300D01*
X1077200D01*
Y1201100D01*
X1102200D01*
G01X1092850Y1166150D02*
Y1159850D01*
X1086550D01*
Y1166150D01*
X1092850D01*
G01X1102200Y1201100D02*
Y1150300D01*
X1077200D01*
Y1201100D01*
X1102200D01*
G01X1092850Y1191550D02*
Y1185250D01*
X1086550D01*
Y1191550D01*
X1092850D01*
G01D02*
Y1185250D01*
X1086550D01*
Y1191550D01*
X1092850D01*
G01D02*
Y1185250D01*
X1086550D01*
Y1191550D01*
X1092850D01*
G01X1152000Y1302500D02*
X1082000D01*
G01D02*
Y1372500D01*
G01X1140000Y1337500D02*
G03I-23000J0D01*
G01X1141000D02*
G03I-24000J0D01*
G01X1144440D02*
G03I-27440J0D01*
G01X1082000Y1372500D02*
X1152000D01*
G01X1144820Y960450D02*
X1151430D01*
X1151870D01*
X1159120D01*
X1163120D01*
X1178620D01*
X1182620D01*
X1189870D01*
X1190310D01*
X1196920D01*
X1198450D01*
X1203370D01*
X1208370D01*
Y936450D01*
G02X1209870Y934950I0J-1500D01*
G01Y928950D01*
G02X1208370Y927450I-1500J0D01*
G01Y910450D01*
Y908950D01*
X1209720Y907810D01*
X1210870Y906840D01*
X1208940Y904550D01*
X1207790Y905520D01*
X1206440Y906660D01*
G02X1205370Y908950I1929J2296D01*
G01Y910450D01*
X1203370D01*
G03X1201870Y908950I0J-1500D01*
G01Y907780D01*
Y905280D01*
G02X1200370Y904450I-1498J937D01*
G01X1141370D01*
G02X1139870Y905280I-2J1767D01*
G01Y907780D01*
Y908950D01*
G03X1138370Y910450I-1500J0D01*
G01X1136370D01*
Y908950D01*
G02X1135300Y906660I-2998J6D01*
G01X1133950Y905520D01*
X1132800Y904550D01*
X1130870Y906840D01*
X1132020Y907810D01*
X1133370Y908950D01*
Y910450D01*
Y927450D01*
G02X1131870Y928950I0J1500D01*
G01Y934950D01*
G02X1133370Y936450I1500J0D01*
G01Y960450D01*
X1138370D01*
X1143290D01*
X1144820D01*
G01X1136370Y910450D02*
X1133370D01*
G01Y936450D02*
Y927450D01*
G01X1141370Y906940D02*
X1200370D01*
G01X1143420Y916950D02*
Y919950D01*
G01Y915850D02*
Y916950D01*
G01X1150820D02*
X1143420D01*
G01X1150820Y915850D02*
Y916950D01*
G01D02*
Y919950D01*
G01D02*
X1143420D01*
G01X1150820Y915850D02*
X1143420D01*
G01X1150820Y919950D02*
G03X1151690Y921450I2J1001D01*
G01D02*
X1150820Y922950D01*
G01D02*
Y934950D01*
G01D02*
X1143420D01*
G01D02*
Y922950D01*
G01D02*
X1142550Y921450D01*
G01D02*
G03X1143420Y919950I868J-499D01*
G01X1139870Y908950D02*
X1201870D01*
G01X1147870Y924450D02*
G03X1148870Y925450I0J1000D01*
G01Y926450D02*
Y925450D01*
G01Y926450D02*
G03X1147870Y927450I-1000J0D01*
G01X1143420D02*
X1147870D01*
G01Y924450D02*
X1143970D01*
G01D02*
X1143420D01*
G01X1151870Y960450D02*
Y957450D01*
G01X1151430Y960450D02*
Y952950D01*
G01X1156620Y954450D02*
X1159120D01*
G01X1156620Y957450D02*
Y955450D01*
G01D02*
Y954450D01*
G01Y952950D02*
Y954450D01*
G01X1147070Y952450D02*
Y952950D01*
G01X1159120D02*
X1147070D01*
G01X1144820Y952450D02*
X1143290D01*
G01X1144820D02*
X1147070D01*
G01X1151870Y957450D02*
X1159120D01*
G01X1140370Y952450D02*
X1143290D01*
G01X1140370D02*
G03X1139370Y951450I0J-1000D01*
G01D02*
Y950450D01*
G01D02*
G03X1140370Y949450I1000J0D01*
G01D02*
X1157620D01*
G01D02*
G03X1159120Y950950I0J1500D01*
G01Y960450D02*
Y950950D01*
G01X1150000Y994100D02*
Y990100D01*
G01X1145000D02*
Y994100D01*
G01X1150000Y989600D02*
Y987100D01*
G01D02*
X1145000D01*
G01D02*
Y989600D01*
G01D02*
Y990100D01*
G01X1150000D02*
Y989600D01*
G01X1145000D02*
X1150000D01*
G01X1158700Y994100D02*
Y990100D01*
G01X1153700D02*
Y994100D01*
G01X1158700Y989600D02*
Y987100D01*
G01D02*
X1153700D01*
G01D02*
Y989600D01*
G01D02*
Y990100D01*
G01X1158700D02*
Y989600D01*
G01X1153700D02*
X1158700D01*
G01X1162200Y990100D02*
Y994100D01*
G01X1167200Y987100D02*
X1162200D01*
G01D02*
Y989600D01*
G01D02*
Y990100D01*
G01Y989600D02*
X1167200D01*
G01X1145000Y994600D02*
Y997100D01*
G01D02*
X1150000D01*
G01D02*
Y994600D01*
G01X1145000Y994100D02*
Y994600D01*
G01X1150000D02*
Y994100D01*
G01Y994600D02*
X1145000D01*
G01X1167300Y1003700D02*
X1162300D01*
G01D02*
Y1006200D01*
G01Y1006700D02*
Y1010700D01*
G01Y1011200D02*
Y1013700D01*
G01D02*
X1167300D01*
G01X1162300Y1010700D02*
Y1011200D01*
G01Y1006200D02*
Y1006700D01*
G01X1167300Y1011200D02*
X1162300D01*
G01Y1006200D02*
X1167300D01*
G01X1153700Y994600D02*
Y997100D01*
G01D02*
X1158700D01*
G01D02*
Y994600D01*
G01X1153700Y994100D02*
Y994600D01*
G01X1158700D02*
Y994100D01*
G01Y994600D02*
X1153700D01*
G01X1162200D02*
Y997100D01*
G01D02*
X1167200D01*
G01X1162200Y994100D02*
Y994600D01*
G01X1167200D02*
X1162200D01*
G01X1155200Y1089900D02*
X1157700D01*
G01D02*
Y1084900D01*
G01D02*
X1155200D01*
G01X1154700D02*
X1150700D01*
G01Y1089900D02*
X1154700D01*
G01X1150200Y1084900D02*
X1147700D01*
G01D02*
Y1089900D01*
G01D02*
X1150200D01*
G01X1154700D02*
X1155200D01*
G01X1150200D02*
X1150700D01*
G01Y1084900D02*
X1150200D01*
G01X1155200D02*
X1154700D01*
G01X1150200Y1089900D02*
Y1084900D01*
G01X1155200D02*
Y1089900D01*
G01X1155300Y1102300D02*
X1157800D01*
G01D02*
Y1097300D01*
G01D02*
X1155300D01*
G01X1154800D02*
X1150800D01*
G01Y1102300D02*
X1154800D01*
G01X1150300Y1097300D02*
X1147800D01*
G01D02*
Y1102300D01*
G01D02*
X1150300D01*
G01X1154800D02*
X1155300D01*
G01X1150300D02*
X1150800D01*
G01Y1097300D02*
X1150300D01*
G01X1155300D02*
X1154800D01*
G01X1150300Y1102300D02*
Y1097300D01*
G01X1155300D02*
Y1102300D01*
G01X1161500Y1154500D02*
Y1152000D01*
G01D02*
X1156500D01*
G01D02*
Y1154500D01*
G01Y1155000D02*
Y1159000D01*
G01X1161500D02*
Y1155000D01*
G01X1156500Y1159500D02*
Y1162000D01*
G01D02*
X1161500D01*
G01D02*
Y1159500D01*
G01Y1155000D02*
Y1154500D01*
G01Y1159500D02*
Y1159000D01*
G01X1156500D02*
Y1159500D01*
G01Y1154500D02*
Y1155000D01*
G01X1161500Y1159500D02*
X1156500D01*
G01Y1154500D02*
X1161500D01*
G01X1171950Y1211000D02*
G03X1172950Y1210000I1000J0D01*
G01Y1200000D01*
G03X1171950Y1199000I0J-1000D01*
G01X1153450D01*
G03X1152450Y1200000I-1000J0D01*
G01Y1210000D01*
G03X1153450Y1211000I0J1000D01*
G01X1171950D01*
G01X1153950Y1201500D02*
G03X1154950Y1200500I1000J0D01*
G01D02*
X1170450D01*
G01X1153950Y1208500D02*
Y1201500D01*
G01X1147800Y1206500D02*
Y1204000D01*
G01D02*
X1142800D01*
G01D02*
Y1206500D01*
G01X1160700Y1176900D02*
Y1174400D01*
G01D02*
X1155700D01*
G01D02*
Y1176900D01*
G01Y1177400D02*
Y1181400D01*
G01X1160700D02*
Y1177400D01*
G01X1155700Y1181900D02*
Y1184400D01*
G01D02*
X1160700D01*
G01D02*
Y1181900D01*
G01Y1177400D02*
Y1176900D01*
G01Y1181900D02*
Y1181400D01*
G01X1155700D02*
Y1181900D01*
G01Y1176900D02*
Y1177400D01*
G01X1160700Y1181900D02*
X1155700D01*
G01Y1176900D02*
X1160700D01*
G01X1154950Y1209500D02*
G03X1153950Y1208500I0J-1000D01*
G01X1170450Y1209500D02*
X1154950D01*
G01X1142800Y1207000D02*
Y1211000D01*
G01X1147800D02*
Y1207000D01*
G01X1142800Y1211500D02*
Y1214000D01*
G01D02*
X1147800D01*
G01D02*
Y1211500D01*
G01Y1207000D02*
Y1206500D01*
G01Y1211500D02*
Y1211000D01*
G01X1142800D02*
Y1211500D01*
G01Y1206500D02*
Y1207000D01*
G01X1147800Y1211500D02*
X1142800D01*
G01Y1206500D02*
X1147800D01*
G01X1152000Y1372500D02*
Y1302500D01*
G01X1208370Y910450D02*
X1205370D01*
G01X1198320Y916950D02*
X1190920D01*
G01X1198320Y915850D02*
Y916950D01*
G01D02*
Y919950D01*
G01D02*
X1190920D01*
G01Y916950D02*
Y919950D01*
G01Y915850D02*
Y916950D01*
G01X1198320Y915850D02*
X1190920D01*
G01X1198320Y919950D02*
G03X1199190Y921450I2J1001D01*
G01D02*
X1198320Y922950D01*
G01D02*
Y934950D01*
G01D02*
X1190920D01*
G01D02*
Y922950D01*
G01D02*
X1190050Y921450D01*
G01D02*
G03X1190920Y919950I868J-499D01*
G01X1193870Y927450D02*
X1198320D01*
G01X1193870D02*
G03X1192870Y926450I0J-1000D01*
G01Y925450D02*
Y926450D01*
G01Y925450D02*
G03X1193870Y924450I1000J0D01*
G01X1197770D02*
X1193870D01*
G01X1198320D02*
X1197770D01*
G01X1189870Y960450D02*
Y957450D01*
G01X1176120Y954450D02*
X1178620D01*
G01X1169620D02*
X1172120D01*
G01Y952950D02*
Y954450D01*
G01Y955450D02*
Y954450D01*
G01Y957450D02*
Y955450D01*
G01X1169620Y957450D02*
Y955450D01*
G01D02*
Y954450D01*
G01Y952950D02*
Y954450D01*
G01X1163120D02*
X1165620D01*
G01Y952950D02*
Y954450D01*
G01Y955450D02*
Y954450D01*
G01Y957450D02*
Y955450D01*
G01X1176120Y957450D02*
Y955450D01*
G01D02*
Y954450D01*
G01Y952950D02*
Y954450D01*
G01X1182620D02*
X1185120D01*
G01Y952950D02*
Y954450D01*
G01Y955450D02*
Y954450D01*
G01Y957450D02*
Y955450D01*
G01X1190310Y960450D02*
Y952950D01*
G01X1178240D02*
X1163500D01*
G01X1194670D02*
X1182620D01*
G01X1194670Y952450D02*
Y952950D01*
G01Y952450D02*
X1196920D01*
G01X1198450D02*
X1196920D01*
G01X1163120Y957450D02*
X1178620D01*
G01X1182620D02*
X1189870D01*
G01X1163120Y960450D02*
Y953950D01*
G01D02*
G03X1164620Y952450I1500J0D01*
G01D02*
X1177120D01*
G01D02*
G03X1178620Y953950I0J1500D01*
G01Y960450D02*
Y953950D01*
G01X1182620Y960450D02*
Y950950D01*
G01D02*
G03X1184120Y949450I1500J0D01*
G01D02*
X1201370D01*
G01D02*
G03X1202370Y950450I0J1000D01*
G01D02*
Y951450D01*
G01D02*
G03X1201370Y952450I-1000J0D01*
G01X1198450D02*
X1201370D01*
G01X1186900Y976700D02*
X1189400D01*
G01D02*
Y971700D01*
G01D02*
X1186900D01*
G01X1186400D02*
X1182400D01*
G01Y976700D02*
X1186400D01*
G01X1181900Y971700D02*
X1179400D01*
G01D02*
Y976700D01*
G01D02*
X1181900D01*
G01X1186400D02*
X1186900D01*
G01X1181900D02*
X1182400D01*
G01Y971700D02*
X1181900D01*
G01X1186900D02*
X1186400D01*
G01X1181900Y976700D02*
Y971700D01*
G01X1186900D02*
Y976700D01*
G01X1175800Y989600D02*
Y987100D01*
G01D02*
X1170800D01*
G01D02*
Y989600D01*
G01Y990100D02*
Y994100D01*
G01X1175800D02*
Y990100D01*
G01D02*
Y989600D01*
G01X1170800D02*
Y990100D01*
G01Y989600D02*
X1175800D01*
G01X1167200Y994100D02*
Y990100D01*
G01Y989600D02*
Y987100D01*
G01Y990100D02*
Y989600D01*
G01X1167300Y1006200D02*
Y1003700D01*
G01Y1010700D02*
Y1006700D01*
G01Y1013700D02*
Y1011200D01*
G01Y1006700D02*
Y1006200D01*
G01Y1011200D02*
Y1010700D01*
G01X1170800Y994600D02*
Y997100D01*
G01D02*
X1175800D01*
G01D02*
Y994600D01*
G01D02*
Y994100D01*
G01X1170800D02*
Y994600D01*
G01X1175800D02*
X1170800D01*
G01X1167200Y997100D02*
Y994600D01*
G01D02*
Y994100D01*
G01X1206500Y1116000D02*
X1204000D01*
G01D02*
Y1121000D01*
G01X1206500Y1124500D02*
X1204000D01*
G01D02*
Y1129500D01*
G01D02*
X1206500D01*
G01X1204000Y1121000D02*
X1206500D01*
G01X1170500Y1154500D02*
Y1152000D01*
G01D02*
X1165500D01*
G01D02*
Y1154500D01*
G01Y1155000D02*
Y1159000D01*
G01X1170500D02*
Y1155000D01*
G01X1165500Y1159500D02*
Y1162000D01*
G01D02*
X1170500D01*
G01D02*
Y1159500D01*
G01Y1155000D02*
Y1154500D01*
G01Y1159500D02*
Y1159000D01*
G01X1165500D02*
Y1159500D01*
G01Y1154500D02*
Y1155000D01*
G01X1170500Y1159500D02*
X1165500D01*
G01Y1154500D02*
X1170500D01*
G01X1170450Y1200500D02*
G03X1171450Y1201500I0J1000D01*
G01D02*
Y1208500D01*
G01X1206700Y1191600D02*
X1204200D01*
G01D02*
Y1196600D01*
G01D02*
X1206700D01*
G01X1182500Y1206700D02*
Y1204200D01*
G01D02*
X1177500D01*
G01D02*
Y1206700D01*
G01X1169500Y1176800D02*
Y1174300D01*
G01D02*
X1164500D01*
G01D02*
Y1176800D01*
G01Y1177300D02*
Y1181300D01*
G01X1169500D02*
Y1177300D01*
G01X1164500Y1181800D02*
Y1184300D01*
G01D02*
X1169500D01*
G01D02*
Y1181800D01*
G01Y1177300D02*
Y1176800D01*
G01Y1181800D02*
Y1181300D01*
G01X1164500D02*
Y1181800D01*
G01Y1176800D02*
Y1177300D01*
G01X1169500Y1181800D02*
X1164500D01*
G01Y1176800D02*
X1169500D01*
G01X1205500Y1202900D02*
X1203000D01*
G01D02*
Y1207900D01*
G01X1206000Y1202900D02*
X1205500D01*
G01Y1207900D02*
Y1202900D01*
G01X1171450Y1208500D02*
G03X1170450Y1209500I-1000J0D01*
G01X1170980Y1208500D02*
G03I-530J0D01*
G01X1177500Y1207200D02*
Y1211200D01*
G01X1182500D02*
Y1207200D01*
G01X1177500Y1211700D02*
Y1214200D01*
G01D02*
X1182500D01*
G01D02*
Y1211700D01*
G01Y1207200D02*
Y1206700D01*
G01Y1211700D02*
Y1211200D01*
G01X1177500D02*
Y1211700D01*
G01Y1206700D02*
Y1207200D01*
G01X1182500Y1211700D02*
X1177500D01*
G01Y1206700D02*
X1182500D01*
G01X1203000Y1207900D02*
X1205500D01*
G01D02*
X1206000D01*
G01X1164200Y1237700D02*
Y1377900D01*
G01X1294800Y1237700D02*
X1164200D01*
G01X1192000Y1259000D02*
G03I-7500J0D01*
G01Y1291500D02*
G03I-7500J0D01*
G01X1177020Y1258480D02*
X1183980Y1251520D01*
G01X1192000Y1324000D02*
G03I-7500J0D01*
G01Y1356500D02*
G03I-7500J0D01*
G01X1164200Y1377900D02*
X1294800D01*
G01X1183870Y1363970D02*
X1177030Y1357130D01*
G01X1208370Y936450D02*
Y927450D01*
G01X1256100Y914400D02*
X1248100D01*
Y917900D01*
X1256100D01*
Y914400D01*
G01Y926900D02*
X1248100D01*
Y930400D01*
X1256100D01*
Y926900D01*
G01X1248200Y917900D02*
Y926900D01*
X1256000D01*
Y917900D01*
X1248200D01*
G01X1214000Y1121000D02*
Y1116000D01*
G01D02*
X1211500D01*
G01X1211000D02*
X1207000D01*
G01D02*
X1206500D01*
G01X1211500D02*
X1211000D01*
G01X1206500Y1121000D02*
Y1116000D01*
G01X1211500D02*
Y1121000D01*
G01X1305380Y1201710D02*
X1225400D01*
Y1121700D01*
X1305380D01*
Y1201710D01*
G01X1237410Y1131230D02*
G03I-2171J4D01*
G01X1211500Y1129500D02*
X1214000D01*
G01D02*
Y1124500D01*
G01D02*
X1211500D01*
G01X1211000D02*
X1207000D01*
G01Y1129500D02*
X1211000D01*
G01D02*
X1211500D01*
G01X1206500D02*
X1207000D01*
G01Y1124500D02*
X1206500D01*
G01X1211500D02*
X1211000D01*
G01X1206500Y1129500D02*
Y1124500D01*
G01X1211500D02*
Y1129500D01*
G01Y1121000D02*
X1214000D01*
G01X1207000D02*
X1211000D01*
G01D02*
X1211500D01*
G01X1206500D02*
X1207000D01*
G01X1211700Y1196600D02*
X1214200D01*
G01D02*
Y1191600D01*
G01D02*
X1211700D01*
G01X1211200D02*
X1207200D01*
G01Y1196600D02*
X1211200D01*
G01D02*
X1211700D01*
G01X1206700D02*
X1207200D01*
G01Y1191600D02*
X1206700D01*
G01X1211700D02*
X1211200D01*
G01X1206700Y1196600D02*
Y1191600D01*
G01X1211700D02*
Y1196600D01*
G01X1210000Y1202900D02*
X1206000D01*
G01X1213000Y1207900D02*
Y1202900D01*
G01D02*
X1210500D01*
G01D02*
X1210000D01*
G01X1210500D02*
Y1207900D01*
G01X1231400Y1225900D02*
X1233900D01*
G01D02*
Y1220900D01*
G01D02*
X1231400D01*
G01X1230900D02*
X1226900D01*
G01Y1225900D02*
X1230900D01*
G01X1226400Y1220900D02*
X1223900D01*
G01D02*
Y1225900D01*
G01D02*
X1226400D01*
G01X1230900D02*
X1231400D01*
G01X1226400D02*
X1226900D01*
G01Y1220900D02*
X1226400D01*
G01X1231400D02*
X1230900D01*
G01X1226400Y1225900D02*
Y1220900D01*
G01X1231400D02*
Y1225900D01*
G01Y1217300D02*
X1233900D01*
G01D02*
Y1212300D01*
G01D02*
X1231400D01*
G01X1230900D02*
X1226900D01*
G01Y1217300D02*
X1230900D01*
G01X1226400Y1212300D02*
X1223900D01*
G01D02*
Y1217300D01*
G01D02*
X1226400D01*
G01X1230900D02*
X1231400D01*
G01X1226400D02*
X1226900D01*
G01Y1212300D02*
X1226400D01*
G01X1231400D02*
X1230900D01*
G01X1226400Y1217300D02*
Y1212300D01*
G01X1231400D02*
Y1217300D01*
G01X1206000Y1207900D02*
X1210000D01*
G01X1210500D02*
X1213000D01*
G01X1210000D02*
X1210500D01*
G01X1241500Y1254500D02*
G03I-2000J0D01*
G01X1235250Y1291000D02*
X1275250D01*
G01X1235250Y1251000D02*
Y1291000D01*
G01X1275250Y1251000D02*
X1235250D01*
G01X1211500Y1276000D02*
Y1273500D01*
G01D02*
X1206500D01*
G01D02*
Y1276000D01*
G01Y1276500D02*
Y1280500D01*
G01X1211500D02*
Y1276500D01*
G01X1206500Y1281000D02*
Y1283500D01*
G01D02*
X1211500D01*
G01D02*
Y1281000D01*
G01Y1276500D02*
Y1276000D01*
G01Y1281000D02*
Y1280500D01*
G01X1206500D02*
Y1281000D01*
G01Y1276000D02*
Y1276500D01*
G01X1211500Y1281000D02*
X1206500D01*
G01Y1276000D02*
X1211500D01*
G01X1215000Y1273000D02*
Y1275500D01*
G01D02*
X1220000D01*
G01D02*
Y1273000D01*
G01Y1272500D02*
Y1268500D01*
G01X1215000D02*
Y1272500D01*
G01X1220000Y1268000D02*
Y1265500D01*
G01D02*
X1215000D01*
G01D02*
Y1268000D01*
G01Y1272500D02*
Y1273000D01*
G01Y1268000D02*
Y1268500D01*
G01X1220000D02*
Y1268000D01*
G01Y1273000D02*
Y1272500D01*
G01X1215000Y1268000D02*
X1220000D01*
G01Y1273000D02*
X1215000D01*
G01X1228500Y1276000D02*
Y1273500D01*
G01D02*
X1223500D01*
G01D02*
Y1276000D01*
G01Y1276500D02*
Y1280500D01*
G01X1228500D02*
Y1276500D01*
G01X1223500Y1281000D02*
Y1283500D01*
G01D02*
X1228500D01*
G01D02*
Y1281000D01*
G01Y1276500D02*
Y1276000D01*
G01Y1281000D02*
Y1280500D01*
G01X1223500D02*
Y1281000D01*
G01Y1276000D02*
Y1276500D01*
G01X1228500Y1281000D02*
X1223500D01*
G01Y1276000D02*
X1228500D01*
G01X1222000Y1259000D02*
G03I-7500J0D01*
G01X1252000D02*
G03I-7500J0D01*
G01X1243000Y1307000D02*
X1240500D01*
G01D02*
Y1312000D01*
G01D02*
X1243000D01*
G01X1243500D02*
X1247500D01*
G01Y1307000D02*
X1243500D01*
G01X1248000Y1312000D02*
X1250500D01*
G01Y1307000D02*
X1248000D01*
G01X1243500D02*
X1243000D01*
G01X1248000D02*
X1247500D01*
G01Y1312000D02*
X1248000D01*
G01X1243000D02*
X1243500D01*
G01X1248000Y1307000D02*
Y1312000D01*
G01X1243000D02*
Y1307000D01*
G01X1217000Y1311000D02*
Y1308500D01*
G01D02*
X1212000D01*
G01D02*
Y1311000D01*
G01Y1311500D02*
Y1315500D01*
G01X1217000D02*
Y1311500D01*
G01X1212000Y1316000D02*
Y1318500D01*
G01D02*
X1217000D01*
G01D02*
Y1316000D01*
G01Y1311500D02*
Y1311000D01*
G01Y1316000D02*
Y1315500D01*
G01X1212000D02*
Y1316000D01*
G01Y1311000D02*
Y1311500D01*
G01X1217000Y1316000D02*
X1212000D01*
G01Y1311000D02*
X1217000D01*
G01X1235000D02*
Y1308500D01*
G01D02*
X1230000D01*
G01D02*
Y1311000D01*
G01Y1311500D02*
Y1315500D01*
G01X1235000D02*
Y1311500D01*
G01X1230000Y1316000D02*
Y1318500D01*
G01D02*
X1235000D01*
G01D02*
Y1316000D01*
G01Y1311500D02*
Y1311000D01*
G01Y1316000D02*
Y1315500D01*
G01X1230000D02*
Y1316000D01*
G01Y1311000D02*
Y1311500D01*
G01X1235000Y1316000D02*
X1230000D01*
G01Y1311000D02*
X1235000D01*
G01X1226000D02*
Y1308500D01*
G01D02*
X1221000D01*
G01D02*
Y1311000D01*
G01Y1311500D02*
Y1315500D01*
G01X1226000D02*
Y1311500D01*
G01X1221000Y1316000D02*
Y1318500D01*
G01D02*
X1226000D01*
G01D02*
Y1316000D01*
G01Y1311500D02*
Y1311000D01*
G01Y1316000D02*
Y1315500D01*
G01X1221000D02*
Y1316000D01*
G01Y1311000D02*
Y1311500D01*
G01X1226000Y1316000D02*
X1221000D01*
G01Y1311000D02*
X1226000D01*
G01X1222000Y1356500D02*
G03I-7500J0D01*
G01X1252000D02*
G03I-7500J0D01*
G01X1266020Y923120D02*
G03I-1495J5D01*
G01X1287100Y916690D02*
Y915700D01*
G01X1283090D02*
Y916690D01*
G01Y915700D02*
X1287100D01*
G01X1268110Y916690D02*
Y915700D01*
G01X1264090D02*
Y916690D01*
G01Y915700D02*
X1268110D01*
G01X1277610Y916690D02*
Y915700D01*
G01X1273590D02*
Y916690D01*
G01Y915700D02*
X1277610D01*
G01X1287100Y939700D02*
Y938710D01*
G01Y939700D02*
X1283090D01*
G01Y938710D02*
Y939700D01*
G01X1264090Y938710D02*
Y939700D01*
G01X1268110D02*
Y938710D01*
G01Y939700D02*
X1264090D01*
G01X1287100Y919710D02*
Y916690D01*
G01X1283090Y919710D02*
Y916690D01*
G01X1268110Y919710D02*
Y916690D01*
G01X1264090Y919710D02*
Y916690D01*
G01X1277610Y919710D02*
Y916690D01*
G01X1273590Y919710D02*
Y916690D01*
G01X1283090Y919710D02*
X1287100D01*
G01X1264090D02*
X1268110D01*
G01X1273590D02*
X1277610D01*
G01X1287100D02*
X1290100D01*
G01X1277610D02*
X1283090D01*
G01X1261100D02*
X1264090D01*
G01X1289670Y920120D02*
X1261530D01*
G01X1268110Y919710D02*
X1273590D01*
G01X1287100Y915700D02*
Y913690D01*
G01X1268110Y915700D02*
Y913690D01*
G01X1277610Y915700D02*
Y913690D01*
G01X1264090Y915700D02*
Y913690D01*
G01X1273590Y915700D02*
Y913690D01*
G01X1283090Y915700D02*
Y913690D01*
G01D02*
X1287100D01*
G01X1273590D02*
X1277610D01*
G01X1264090D02*
X1268110D01*
G01X1283090Y935690D02*
Y938710D01*
G01X1287100Y935690D02*
Y938710D01*
G01X1283090Y939700D02*
Y941710D01*
G01X1287100Y939700D02*
Y941710D01*
G01X1264090Y935690D02*
Y938710D01*
G01Y939700D02*
Y941710D01*
G01X1268110Y935690D02*
Y938710D01*
G01X1264090Y941710D02*
X1268110D01*
G01Y939700D02*
Y941710D01*
G01X1283090D02*
X1287100D01*
G01Y935690D02*
X1283090D01*
G01X1268110D02*
X1264090D01*
G01X1290100D02*
X1287100D01*
G01X1283090D02*
X1268110D01*
G01X1264090D02*
X1261100D01*
G01X1261530Y935280D02*
X1289670D01*
G01X1290100Y919710D02*
Y935690D01*
G01X1289670Y920120D02*
X1290100Y919710D01*
G01Y935690D02*
X1289670Y935280D01*
G01D02*
Y920120D01*
G01X1261100Y935690D02*
Y919710D01*
G01X1261530Y920120D02*
Y935280D01*
G01D02*
X1261100Y935690D01*
G01Y919710D02*
X1261530Y920120D01*
G01X1266100Y958600D02*
Y950600D01*
X1262600D01*
Y958600D01*
X1266100D01*
G01X1253600D02*
Y950600D01*
X1250100D01*
Y958600D01*
X1253600D01*
G01X1262600Y950700D02*
X1253600D01*
Y958500D01*
X1262600D01*
Y950700D01*
G01X1275300Y1107800D02*
Y1110300D01*
G01D02*
X1280300D01*
G01D02*
Y1107800D01*
G01Y1107300D02*
Y1103300D01*
G01X1275300D02*
Y1107300D01*
G01X1280300Y1102800D02*
Y1100300D01*
G01D02*
X1275300D01*
G01D02*
Y1102800D01*
G01Y1107300D02*
Y1107800D01*
G01Y1102800D02*
Y1103300D01*
G01X1280300D02*
Y1102800D01*
G01Y1107800D02*
Y1107300D01*
G01X1275300Y1102800D02*
X1280300D01*
G01Y1107800D02*
X1275300D01*
G01X1258000Y1229500D02*
X1260500D01*
G01D02*
Y1224500D01*
G01D02*
X1258000D01*
G01X1257500D02*
X1253500D01*
G01Y1229500D02*
X1257500D01*
G01X1253000Y1224500D02*
X1250500D01*
G01D02*
Y1229500D01*
G01D02*
X1253000D01*
G01X1257500D02*
X1258000D01*
G01X1253000D02*
X1253500D01*
G01Y1224500D02*
X1253000D01*
G01X1258000D02*
X1257500D01*
G01X1253000Y1229500D02*
Y1224500D01*
G01X1258000D02*
Y1229500D01*
G01X1289000Y1219500D02*
Y1217000D01*
G01D02*
X1284000D01*
G01D02*
Y1219500D01*
G01Y1220000D02*
Y1224000D01*
G01X1289000D02*
Y1220000D01*
G01X1284000Y1224500D02*
Y1227000D01*
G01D02*
X1289000D01*
G01D02*
Y1224500D01*
G01Y1220000D02*
Y1219500D01*
G01Y1224500D02*
Y1224000D01*
G01X1284000D02*
Y1224500D01*
G01Y1219500D02*
Y1220000D01*
G01X1289000Y1224500D02*
X1284000D01*
G01Y1219500D02*
X1289000D01*
G01X1274600D02*
Y1217000D01*
G01D02*
X1269600D01*
G01D02*
Y1219500D01*
G01Y1220000D02*
Y1224000D01*
G01X1274600D02*
Y1220000D01*
G01X1269600Y1224500D02*
Y1227000D01*
G01D02*
X1274600D01*
G01D02*
Y1224500D01*
G01Y1220000D02*
Y1219500D01*
G01Y1224500D02*
Y1224000D01*
G01X1269600D02*
Y1224500D01*
G01Y1219500D02*
Y1220000D01*
G01X1274600Y1224500D02*
X1269600D01*
G01Y1219500D02*
X1274600D01*
G01X1275250Y1291000D02*
Y1251000D01*
G01X1286500Y1279000D02*
X1284000D01*
G01D02*
Y1284000D01*
G01D02*
X1286500D01*
G01X1287000D02*
X1291000D01*
G01Y1279000D02*
X1287000D01*
G01X1291500Y1284000D02*
X1294000D01*
G01Y1279000D02*
X1291500D01*
G01X1287000D02*
X1286500D01*
G01X1291500D02*
X1291000D01*
G01Y1284000D02*
X1291500D01*
G01X1286500D02*
X1287000D01*
G01X1291500Y1279000D02*
Y1284000D01*
G01X1286500D02*
Y1279000D01*
G01X1282000Y1259000D02*
G03I-7500J0D01*
G01Y1291500D02*
G03I-7500J0D01*
G01X1275020Y1251520D02*
X1281980Y1258480D01*
G01X1250500Y1312000D02*
Y1307000D01*
G01X1261000Y1311000D02*
Y1308500D01*
G01D02*
X1256000D01*
G01D02*
Y1311000D01*
G01Y1311500D02*
Y1315500D01*
G01X1261000D02*
Y1311500D01*
G01X1256000Y1316000D02*
Y1318500D01*
G01D02*
X1261000D01*
G01D02*
Y1316000D01*
G01Y1311500D02*
Y1311000D01*
G01Y1316000D02*
Y1315500D01*
G01X1256000D02*
Y1316000D01*
G01Y1311000D02*
Y1311500D01*
G01X1261000Y1316000D02*
X1256000D01*
G01Y1311000D02*
X1261000D01*
G01Y1337000D02*
Y1334500D01*
G01D02*
X1256000D01*
G01D02*
Y1337000D01*
G01X1257000Y1303000D02*
X1259500D01*
G01D02*
Y1298000D01*
G01D02*
X1257000D01*
G01X1256500D02*
X1252500D01*
G01Y1303000D02*
X1256500D01*
G01X1252000Y1298000D02*
X1249500D01*
G01D02*
Y1303000D01*
G01D02*
X1252000D01*
G01X1256500D02*
X1257000D01*
G01X1252000D02*
X1252500D01*
G01Y1298000D02*
X1252000D01*
G01X1257000D02*
X1256500D01*
G01X1252000Y1303000D02*
Y1298000D01*
G01X1257000D02*
Y1303000D01*
G01Y1329000D02*
X1259500D01*
G01D02*
Y1324000D01*
G01D02*
X1257000D01*
G01X1256500D02*
X1252500D01*
G01Y1329000D02*
X1256500D01*
G01X1252000Y1324000D02*
X1249500D01*
G01D02*
Y1329000D01*
G01D02*
X1252000D01*
G01X1256500D02*
X1257000D01*
G01X1252000D02*
X1252500D01*
G01Y1324000D02*
X1252000D01*
G01X1257000D02*
X1256500D01*
G01X1252000Y1329000D02*
Y1324000D01*
G01X1257000D02*
Y1329000D01*
G01X1282000Y1324000D02*
G03I-7500J0D01*
G01X1256000Y1337500D02*
Y1341500D01*
G01X1261000D02*
Y1337500D01*
G01X1256000Y1342000D02*
Y1344500D01*
G01D02*
X1261000D01*
G01D02*
Y1342000D01*
G01Y1337500D02*
Y1337000D01*
G01Y1342000D02*
Y1341500D01*
G01X1256000D02*
Y1342000D01*
G01Y1337000D02*
Y1337500D01*
G01X1261000Y1342000D02*
X1256000D01*
G01Y1337000D02*
X1261000D01*
G01X1260000Y1349000D02*
X1257500D01*
G01D02*
Y1354000D01*
G01D02*
X1260000D01*
G01X1260500D02*
X1264500D01*
G01Y1349000D02*
X1260500D01*
G01X1265000Y1354000D02*
X1267500D01*
G01D02*
Y1349000D01*
G01D02*
X1265000D01*
G01X1260500D02*
X1260000D01*
G01X1265000D02*
X1264500D01*
G01Y1354000D02*
X1265000D01*
G01X1260000D02*
X1260500D01*
G01X1265000Y1349000D02*
Y1354000D01*
G01X1260000D02*
Y1349000D01*
G01X1261000Y1361000D02*
Y1358500D01*
G01D02*
X1256000D01*
G01D02*
Y1361000D01*
G01Y1361500D02*
Y1365500D01*
G01X1261000D02*
Y1361500D01*
G01X1256000Y1366000D02*
Y1368500D01*
G01D02*
X1261000D01*
G01D02*
Y1366000D01*
G01Y1361500D02*
Y1361000D01*
G01Y1366000D02*
Y1365500D01*
G01X1256000D02*
Y1366000D01*
G01Y1361000D02*
Y1361500D01*
G01X1261000Y1366000D02*
X1256000D01*
G01Y1361000D02*
X1261000D01*
G01X1252000Y1357000D02*
X1249500D01*
G01D02*
Y1362000D01*
G01D02*
X1252000D01*
G01X1252500D02*
X1256500D01*
G01Y1357000D02*
X1252500D01*
G01X1257000Y1362000D02*
X1259500D01*
G01D02*
Y1357000D01*
G01D02*
X1257000D01*
G01X1252500D02*
X1252000D01*
G01X1257000D02*
X1256500D01*
G01Y1362000D02*
X1257000D01*
G01X1252000D02*
X1252500D01*
G01X1257000Y1357000D02*
Y1362000D01*
G01X1252000D02*
Y1357000D01*
G01X1282000Y1356500D02*
G03I-7500J0D01*
G01X1281970Y1357130D02*
X1275130Y1363970D01*
G01X1257000Y1389000D02*
X1259500D01*
G01D02*
Y1384000D01*
G01D02*
X1257000D01*
G01X1256500D02*
X1252500D01*
G01Y1389000D02*
X1256500D01*
G01X1252000Y1384000D02*
X1249500D01*
G01D02*
Y1389000D01*
G01D02*
X1252000D01*
G01X1256500D02*
X1257000D01*
G01X1252000D02*
X1252500D01*
G01Y1384000D02*
X1252000D01*
G01X1257000D02*
X1256500D01*
G01X1252000Y1389000D02*
Y1384000D01*
G01X1257000D02*
Y1389000D01*
G01X1317090Y949780D02*
X1328650D01*
Y943420D01*
X1317090D01*
X1314550Y944700D01*
Y948500D01*
X1317090Y949780D01*
G01X1379450Y959300D02*
Y908500D01*
X1328650D01*
Y959300D01*
X1379450D01*
G01D02*
Y908500D01*
X1328650D01*
G01X1317090Y943420D02*
Y949780D01*
G01X1314550Y919300D02*
Y923100D01*
G01Y919300D02*
X1317090Y918020D01*
G01Y924380D02*
X1314550Y923100D01*
G01X1317090Y918020D02*
Y924380D01*
G01X1328650Y938980D02*
Y954220D01*
G01Y913580D02*
Y928820D01*
G01X1317090Y924380D02*
X1328650D01*
G01X1317090Y918020D02*
X1328650D01*
G01X1338500Y954600D02*
G03I-3200J0D01*
G01X1324500Y1030400D02*
Y1022400D01*
X1321000D01*
Y1030400D01*
X1324500D01*
G01X1312000D02*
Y1022400D01*
X1308500D01*
Y1030400D01*
X1312000D01*
G01X1321000Y1022500D02*
X1312000D01*
Y1030300D01*
X1321000D01*
Y1022500D01*
G01X1341300Y1026400D02*
X1333300D01*
Y1029900D01*
X1341300D01*
Y1026400D01*
G01X1333400Y1029900D02*
Y1038900D01*
X1341200D01*
Y1029900D01*
X1333400D01*
G01X1341300Y1038900D02*
X1333300D01*
Y1042400D01*
X1341300D01*
Y1038900D01*
G01X1319500Y1117700D02*
X1317000D01*
G01D02*
Y1122700D01*
G01X1324000Y1117700D02*
X1320000D01*
G01X1327000Y1122700D02*
Y1117700D01*
G01D02*
X1324500D01*
G01X1320000D02*
X1319500D01*
G01X1324500D02*
X1324000D01*
G01X1324500D02*
Y1122700D01*
G01X1319500D02*
Y1117700D01*
G01X1317000Y1122700D02*
X1319500D01*
G01X1320000D02*
X1324000D01*
G01X1324500D02*
X1327000D01*
G01X1324000D02*
X1324500D01*
G01X1319500D02*
X1320000D01*
G01X1319400Y1171700D02*
X1316900D01*
G01D02*
Y1176700D01*
G01D02*
X1319400D01*
G01X1319900D02*
X1323900D01*
G01Y1171700D02*
X1319900D01*
G01X1324400Y1176700D02*
X1326900D01*
G01D02*
Y1171700D01*
G01D02*
X1324400D01*
G01X1319900D02*
X1319400D01*
G01X1324400D02*
X1323900D01*
G01Y1176700D02*
X1324400D01*
G01X1319400D02*
X1319900D01*
G01X1324400Y1171700D02*
Y1176700D01*
G01X1319400D02*
Y1171700D01*
G01X1319200Y1192300D02*
X1316700D01*
G01D02*
Y1197300D01*
G01D02*
X1319200D01*
G01X1319700D02*
X1323700D01*
G01Y1192300D02*
X1319700D01*
G01X1324200Y1197300D02*
X1326700D01*
G01D02*
Y1192300D01*
G01D02*
X1324200D01*
G01X1319700D02*
X1319200D01*
G01X1324200D02*
X1323700D01*
G01Y1197300D02*
X1324200D01*
G01X1319200D02*
X1319700D01*
G01X1324200Y1192300D02*
Y1197300D01*
G01X1319200D02*
Y1192300D01*
G01X1326700Y1205800D02*
Y1200800D01*
G01D02*
X1324200D01*
G01X1323700D02*
X1319700D01*
G01X1319200D02*
X1316700D01*
G01D02*
Y1205800D01*
G01X1319700Y1200800D02*
X1319200D01*
G01X1324200D02*
X1323700D01*
G01X1319200Y1205800D02*
Y1200800D01*
G01X1324200D02*
Y1205800D01*
G01X1325450Y1248250D02*
X1339040D01*
G03X1340260Y1247050I1203J3D01*
G01Y1229450D01*
G03X1339040Y1228260I-17J-1203D01*
G01X1325450D01*
G03X1324260Y1229450I-1200J-10D01*
G01Y1247050D01*
G03X1325450Y1248250I-10J1200D01*
G01X1338050Y1247050D02*
X1326440D01*
G01Y1229450D02*
X1338050D01*
G01X1326440Y1247050D02*
G03X1325450Y1246060I10J-1000D01*
G01Y1230440D02*
G03X1326440Y1229450I1000J10D01*
G01X1325450Y1246060D02*
Y1230440D01*
G01X1302400Y1219500D02*
Y1217000D01*
G01D02*
X1297400D01*
G01D02*
Y1219500D01*
G01Y1220000D02*
Y1224000D01*
G01X1302400D02*
Y1220000D01*
G01X1297400Y1224500D02*
Y1227000D01*
G01D02*
X1302400D01*
G01D02*
Y1224500D01*
G01Y1220000D02*
Y1219500D01*
G01Y1224500D02*
Y1224000D01*
G01X1297400D02*
Y1224500D01*
G01Y1219500D02*
Y1220000D01*
G01X1302400Y1224500D02*
X1297400D01*
G01Y1219500D02*
X1302400D01*
G01X1324200Y1205800D02*
X1326700D01*
G01X1319700D02*
X1323700D01*
G01X1316700D02*
X1319200D01*
G01X1323700D02*
X1324200D01*
G01X1319200D02*
X1319700D01*
G01X1294800Y1377900D02*
Y1237700D01*
G01X1327500Y1253500D02*
X1325000D01*
G01D02*
Y1258500D01*
G01D02*
X1327500D01*
G01X1328000D02*
X1332000D01*
G01Y1253500D02*
X1328000D01*
G01X1332500Y1258500D02*
X1335000D01*
G01Y1253500D02*
X1332500D01*
G01X1328000D02*
X1327500D01*
G01X1332500D02*
X1332000D01*
G01Y1258500D02*
X1332500D01*
G01X1327500D02*
X1328000D01*
G01X1332500Y1253500D02*
Y1258500D01*
G01X1327500D02*
Y1253500D01*
G01X1310000Y1274500D02*
X1312500D01*
G01D02*
Y1269500D01*
G01D02*
X1310000D01*
G01X1309500D02*
X1305500D01*
G01Y1274500D02*
X1309500D01*
G01X1305000Y1269500D02*
X1302500D01*
G01D02*
Y1274500D01*
G01D02*
X1305000D01*
G01X1309500D02*
X1310000D01*
G01X1305000D02*
X1305500D01*
G01Y1269500D02*
X1305000D01*
G01X1310000D02*
X1309500D01*
G01X1305000Y1274500D02*
Y1269500D01*
G01X1310000D02*
Y1274500D01*
G01Y1265500D02*
X1312500D01*
G01D02*
Y1260500D01*
G01D02*
X1310000D01*
G01X1309500D02*
X1305500D01*
G01Y1265500D02*
X1309500D01*
G01X1305000Y1260500D02*
X1302500D01*
G01D02*
Y1265500D01*
G01D02*
X1305000D01*
G01X1309500D02*
X1310000D01*
G01X1305000D02*
X1305500D01*
G01Y1260500D02*
X1305000D01*
G01X1310000D02*
X1309500D01*
G01X1305000Y1265500D02*
Y1260500D01*
G01X1310000D02*
Y1265500D01*
G01Y1283500D02*
X1312500D01*
G01D02*
Y1278500D01*
G01D02*
X1310000D01*
G01X1309500D02*
X1305500D01*
G01Y1283500D02*
X1309500D01*
G01X1305000Y1278500D02*
X1302500D01*
G01D02*
Y1283500D01*
G01D02*
X1305000D01*
G01X1309500D02*
X1310000D01*
G01X1305000D02*
X1305500D01*
G01Y1278500D02*
X1305000D01*
G01X1310000D02*
X1309500D01*
G01X1305000Y1283500D02*
Y1278500D01*
G01X1310000D02*
Y1283500D01*
G01X1294000Y1284000D02*
Y1279000D01*
G01X1364840Y944700D02*
Y948500D01*
G01X1368660Y944700D02*
Y948500D01*
G01X1363580Y943420D02*
X1364840Y944700D01*
G01D02*
X1368660D01*
G01D02*
X1369920Y943420D01*
G01X1363580D02*
Y949780D01*
G01X1339440Y944700D02*
Y948500D01*
G01X1343260Y944700D02*
Y948500D01*
G01X1338180Y943420D02*
X1339440Y944700D01*
G01D02*
X1343260D01*
G01X1344520Y943420D02*
X1343260Y944700D01*
G01X1338180Y943420D02*
Y949780D01*
G01X1344520Y943420D02*
Y949780D01*
G01X1369920Y943420D02*
Y949780D01*
G01X1368660Y923100D02*
X1364840D01*
G01D02*
X1363580Y924380D01*
G01X1364840Y919300D02*
Y923100D01*
G01X1369920Y924380D02*
X1368660Y923100D01*
G01Y919300D02*
Y923100D01*
G01X1363580Y918020D02*
X1364840Y919300D01*
G01D02*
X1368660D01*
G01D02*
X1369920Y918020D01*
G01Y924380D02*
X1363580D01*
G01Y918020D02*
Y924380D01*
G01X1369920Y918020D02*
Y924380D01*
G01X1343260Y923100D02*
X1339440D01*
G01X1338180Y924380D02*
X1339440Y923100D01*
G01Y919300D02*
Y923100D01*
G01X1344520Y924380D02*
X1343260Y923100D01*
G01Y919300D02*
Y923100D01*
G01X1338180Y918020D02*
X1339440Y919300D01*
G01D02*
X1343260D01*
G01X1344520Y918020D02*
X1343260Y919300D01*
G01X1344520Y924380D02*
X1338180D01*
G01Y918020D02*
Y924380D01*
G01X1344520Y918020D02*
Y924380D01*
G01X1338180Y918020D02*
X1344520D01*
G01X1363580D02*
X1369920D01*
G01X1338180Y943420D02*
X1344520D01*
G01X1363580D02*
X1369920D01*
G01X1368660Y948500D02*
X1364840D01*
G01D02*
X1363580Y949780D01*
G01X1369920D02*
X1368660Y948500D01*
G01X1369920Y949780D02*
X1363580D01*
G01X1343260Y948500D02*
X1339440D01*
G01X1338180Y949780D02*
X1339440Y948500D01*
G01X1344520Y949780D02*
X1343260Y948500D01*
G01X1344520Y949780D02*
X1338180D01*
G01X1357900Y987500D02*
X1365900D01*
Y984000D01*
X1357900D01*
Y987500D01*
G01Y975000D02*
X1365900D01*
Y971500D01*
X1357900D01*
Y975000D01*
G01X1365800Y984000D02*
Y975000D01*
X1358000D01*
Y984000D01*
X1365800D01*
G01Y1002600D02*
X1357800D01*
Y1006100D01*
X1365800D01*
Y1002600D01*
G01Y1015100D02*
X1357800D01*
Y1018600D01*
X1365800D01*
Y1015100D01*
G01X1357900Y1006100D02*
Y1015100D01*
X1365700D01*
Y1006100D01*
X1357900D01*
G01X1372300Y1123300D02*
X1364300D01*
Y1126800D01*
X1372300D01*
Y1123300D01*
G01Y1135800D02*
X1364300D01*
Y1139300D01*
X1372300D01*
Y1135800D01*
G01X1364400Y1126800D02*
Y1135800D01*
X1372200D01*
Y1126800D01*
X1364400D01*
G01X1339040Y1230440D02*
Y1246060D01*
G01D02*
G03X1338050Y1247050I-997J-7D01*
G01Y1229450D02*
G03X1339040Y1230440I-7J997D01*
G01X1337640Y1231540D02*
G03I-704J0D01*
G01X1350500Y1232500D02*
Y1230000D01*
G01D02*
X1345500D01*
G01D02*
Y1232500D01*
G01Y1233000D02*
Y1237000D01*
G01X1350500D02*
Y1233000D01*
G01X1345500Y1237500D02*
Y1240000D01*
G01D02*
X1350500D01*
G01D02*
Y1237500D01*
G01Y1233000D02*
Y1232500D01*
G01Y1237500D02*
Y1237000D01*
G01X1345500D02*
Y1237500D01*
G01Y1232500D02*
Y1233000D01*
G01X1350500Y1237500D02*
X1345500D01*
G01Y1232500D02*
X1350500D01*
G01X1335000Y1258500D02*
Y1253500D01*
G01X1393550Y944700D02*
Y948500D01*
X1391010Y949780D01*
X1379450D01*
Y943420D01*
X1391010D01*
X1393550Y944700D01*
G01X1391010Y943420D02*
Y949780D01*
G01X1393550Y919300D02*
Y923100D01*
G01X1391010Y918020D02*
X1393550Y919300D01*
G01X1391010Y924380D02*
X1393550Y923100D01*
G01X1391010Y918020D02*
Y924380D01*
G01X1379450Y938980D02*
Y954220D01*
G01Y913580D02*
Y928820D01*
G01Y918020D02*
X1391010D01*
G01X1379450Y924380D02*
X1391010D01*
G01X1404400Y1182600D02*
Y1180100D01*
G01D02*
X1399400D01*
G01D02*
Y1182600D01*
G01Y1183100D02*
Y1187100D01*
G01X1404400D02*
Y1183100D01*
G01X1399400Y1187600D02*
Y1190100D01*
G01D02*
X1404400D01*
G01D02*
Y1187600D01*
G01Y1183100D02*
Y1182600D01*
G01Y1187600D02*
Y1187100D01*
G01X1399400D02*
Y1187600D01*
G01Y1182600D02*
Y1183100D01*
G01X1404400Y1187600D02*
X1399400D01*
G01Y1182600D02*
X1404400D01*
G01X1445500Y928300D02*
G03I-10500J0D01*
M02*
