G04 ================== begin FILE IDENTIFICATION RECORD ==================*
G04 Layout Name:  CC2538_CC2592EM_shield.BRD*
G04 Film Name:    Layer4*
G04 File Format:  Gerber RS274X*
G04 File Origin:  Cadence Allegro 16.6-S019*
G04 Origin Date:  Tue Nov 26 15:06:45 2013*
G04 *
G04 Layer:  VIA CLASS/BOTTOM*
G04 Layer:  PIN/BOTTOM*
G04 Layer:  ETCH/BOTTOM*
G04 *
G04 Offset:    (0.000 0.000)*
G04 Mirror:    No*
G04 Mode:      Positive*
G04 Rotation:  0*
G04 FullContactRelief:  No*
G04 UndefLineWidth:     0.020*
G04 ================== end FILE IDENTIFICATION RECORD ====================*
%FSLAX44Y44*MOMM*%
%IR0*IPPOS*OFA0.00000B0.00000*MIA0B0*SFA1.00000B1.00000*%
%ADD13O,2.05X.65*%
%ADD14C,1.45*%
%ADD12C,.099*%
%ADD11O,1.X1.*%
%ADD10C,.5*%
%ADD15C,.3*%
%ADD16C,.6*%
%ADD17C,.15*%
%ADD19C,1.806*%
%ADD20C,1.754*%
%ADD21O,2.354X.954*%
%ADD18C,.758*%
G75*
%LPD*%
G75*
G36*
G01X1059010Y906010D02*
Y1372990D01*
G02X1059190Y1373560I999J-2D01*
G01X1059270Y1373680D01*
X1059490Y1373860D01*
X1059630Y1373920D01*
X1061620Y1374740D01*
X1062210Y1374620D01*
X1062420Y1374410D01*
G03X1069500Y1371480I7083J7097D01*
G03X1076590Y1388590I-6J10027D01*
G01X1076380Y1388800D01*
X1076260Y1389390D01*
X1077080Y1391380D01*
G02X1078080Y1392000I927J-378D01*
G01X1463990D01*
G02X1464700Y1391710I5J-1001D01*
G02X1464990Y1391000I-711J-705D01*
G01Y906010D01*
G02X1463990Y905010I-1000J0D01*
G01X1220510D01*
G02X1219510Y906010I0J1000D01*
G01Y921510D01*
G03X1218510Y922510I-1000J0D01*
G01X1123490D01*
G03X1122490Y921510I0J-1000D01*
G01Y906010D01*
G02X1121490Y905010I-1000J0D01*
G01X1060010D01*
G02X1059010Y906010I0J1000D01*
G37*
%LPC*%
G75*
G36*
G01X1411800Y1069830D02*
X1397800D01*
G02X1393870Y1071900I0J4766D01*
G03X1393050Y1072330I-822J-571D01*
G01X1392870D01*
X1392510Y1072480D01*
X1389420Y1075570D01*
X1389040Y1075720D01*
X1388830Y1075710D01*
G02X1392490Y1079370I-130J3790D01*
G01X1392480Y1079160D01*
X1392630Y1078780D01*
X1393510Y1077900D01*
X1394310Y1077880D01*
X1394610Y1078140D01*
G02X1397800Y1079370I3196J-3538D01*
G01X1411800D01*
X1411980D01*
X1412170Y1079360D01*
X1412520Y1079480D01*
X1413840Y1080590D01*
X1414020Y1080920D01*
X1414040Y1081100D01*
G02X1414110Y1081460I3752J-543D01*
G03X1412900Y1082660I-974J227D01*
G02X1411800Y1082530I-1106J4639D01*
G01X1397800D01*
G02X1393240Y1085890I0J4774D01*
G01X1393180Y1086110D01*
X1392880Y1086430D01*
X1391030Y1087190D01*
X1390590Y1087170D01*
X1390390Y1087060D01*
G02X1385030Y1091680I-1792J3340D01*
G03X1385050Y1092310I-939J345D01*
G01X1384860Y1092910D01*
G03X1384490Y1093420I-953J-302D01*
G02X1386830Y1100290I2209J3081D01*
G01X1387040Y1100280D01*
X1387420Y1100430D01*
X1388970Y1101980D01*
G02X1389670Y1102270I704J-710D01*
G01X1393050D01*
G03X1393870Y1102700I-2J1001D01*
G02X1397800Y1104770I3930J-2696D01*
G01X1411800D01*
G02X1416410Y1098770I0J-4771D01*
G01X1416340Y1098530D01*
X1416430Y1098090D01*
X1417850Y1096250D01*
X1418090D01*
X1422260Y1092080D01*
X1422720Y1091940D01*
X1422970Y1091990D01*
G02X1423840Y1092070I870J-4691D01*
G01X1437840D01*
G02Y1082530I0J-4770D01*
G01X1423840D01*
X1423660D01*
X1423450Y1082540D01*
X1423090Y1082400D01*
X1421750Y1081120D01*
X1421590Y1080770D01*
Y1080560D01*
Y1080470D01*
X1421580Y1080260D01*
X1421730Y1079880D01*
X1422230Y1079380D01*
X1422700Y1079240D01*
X1422940Y1079290D01*
G02X1423840Y1079370I871J-4693D01*
G01X1437840D01*
G02Y1069830I0J-4770D01*
G01X1423840D01*
G02X1419140Y1075440I0J4774D01*
G01X1419190Y1075690D01*
X1419050Y1076140D01*
X1418520Y1076670D01*
X1418140Y1076820D01*
X1417930Y1076810D01*
G03X1417210Y1076470I31J-998D01*
G01X1416770Y1075970D01*
G03X1416530Y1075190I755J-659D01*
G02X1411800Y1069830I-4730J-593D01*
G37*
G36*
G01X1437840Y1095230D02*
X1423840D01*
G02X1420960Y1096200I0J4760D01*
G01X1420550Y1096510D01*
G02X1420360Y1096700I605J795D01*
G01X1420050Y1097110D01*
G02X1423840Y1104770I3790J2892D01*
G01X1437840D01*
G02Y1095230I0J-4770D01*
G37*
G36*
G01X1320400Y1265950D02*
G02X1315640I-2380J-2950D01*
G03X1316010Y1266720I-631J777D01*
G01Y1268280D01*
G03X1315640Y1269050I-1001J-7D01*
G02Y1274950I2380J2950D01*
G03X1316010Y1275720I-631J777D01*
G01Y1277280D01*
G03X1315640Y1278050I-1001J-7D01*
G02X1320400I2380J2950D01*
G03X1320030Y1277280I631J-777D01*
G01Y1275720D01*
G03X1320400Y1274950I1001J7D01*
G02Y1269050I-2380J-2950D01*
G03X1320030Y1268280I631J-777D01*
G01Y1266720D01*
G03X1320400Y1265950I1001J7D01*
G37*
G36*
G01X1397840Y1184030D02*
G02X1392480Y1183480I-2408J-2929D01*
G03X1392190Y1186270I-1561J1248D01*
G02X1397550Y1186820I2408J2929D01*
G03X1397840Y1184030I1561J-1248D01*
G37*
G36*
G01X1383940Y1173280D02*
X1384160Y1173250D01*
G02X1379900Y1170330I-561J-3749D01*
G01X1379950Y1170540D01*
X1379870Y1170940D01*
X1378800Y1172510D01*
X1378460Y1172720D01*
X1378240Y1172750D01*
G02X1376140Y1179200I560J3749D01*
G01X1376280Y1179340D01*
X1376430Y1179660D01*
X1376540Y1181370D01*
X1376430Y1181710D01*
X1376320Y1181860D01*
G02X1381960Y1181500I2981J2340D01*
G01X1381820Y1181360D01*
X1381670Y1181040D01*
X1381560Y1179330D01*
X1381670Y1178990D01*
X1381780Y1178840D01*
G02X1382500Y1175670I-2979J-2343D01*
G01X1382450Y1175460D01*
X1382530Y1175060D01*
X1383600Y1173490D01*
X1383940Y1173280D01*
G37*
G36*
G01X1180020Y1155320D02*
X1180180Y1155180D01*
G02X1174960Y1155120I-2578J-2779D01*
G01X1175110Y1155260D01*
X1175260Y1155640D01*
X1175240Y1157510D01*
X1175080Y1157880D01*
X1174920Y1158020D01*
G02X1178000Y1164560I2577J2782D01*
G01X1178200Y1164530D01*
X1178580Y1164630D01*
X1180020Y1165720D01*
X1180220Y1166050D01*
X1180250Y1166250D01*
G02X1187780Y1166000I3751J-547D01*
G01X1187790Y1165800D01*
X1187980Y1165440D01*
X1189400Y1164260D01*
X1189790Y1164150D01*
X1189990Y1164170D01*
G02X1186620Y1160100I409J-3769D01*
G01X1186610Y1160300D01*
X1186420Y1160660D01*
X1185000Y1161840D01*
X1184610Y1161950D01*
X1184410Y1161930D01*
G02X1183500Y1161940I-414J3769D01*
G01X1183300Y1161970D01*
X1182920Y1161870D01*
X1181480Y1160780D01*
X1181280Y1160450D01*
X1181250Y1160250D01*
G02X1180140Y1158080I-3750J549D01*
G01X1179990Y1157940D01*
X1179840Y1157560D01*
X1179860Y1155690D01*
X1180020Y1155320D01*
G37*
G36*
G01X1140270Y1133330D02*
G02X1134640Y1134920I-3471J-1528D01*
G03X1135330Y1137370I-1137J1642D01*
G02X1140060Y1142470I3468J1527D01*
G01X1140250Y1142410D01*
X1140620Y1142420D01*
X1142250Y1143160D01*
X1142510Y1143430D01*
X1142580Y1143610D01*
G02X1144840Y1138630I3519J-1406D01*
G01X1144650Y1138690D01*
X1144280Y1138680D01*
X1142650Y1137940D01*
X1142390Y1137670D01*
X1142320Y1137490D01*
G02X1140960Y1135780I-3522J1405D01*
G03X1140270Y1133330I1137J-1642D01*
G37*
G36*
G01X1142580Y1120700D02*
G02X1139730Y1124570I-3782J199D01*
G03X1142220Y1126400I491J1942D01*
G02X1145070Y1122530I3782J-199D01*
G03X1142580Y1120700I-491J-1942D01*
G37*
G36*
G01X1371220Y1102690D02*
G02X1365180I-3020J-2290D01*
G03X1365380Y1103290I-800J600D01*
G01Y1103910D01*
G03X1365180Y1104510I-1000J0D01*
G02X1365560Y1109520I3020J2290D01*
G01X1365700Y1109660D01*
X1365860Y1110010D01*
X1365900Y1111810D01*
X1365760Y1112170D01*
X1365630Y1112320D01*
G02X1371040Y1112180I2774J2581D01*
G01X1370900Y1112040D01*
X1370740Y1111690D01*
X1370700Y1109890D01*
X1370840Y1109530D01*
X1370970Y1109380D01*
G02X1371220Y1104510I-2771J-2584D01*
G03X1371020Y1103910I800J-600D01*
G01Y1103290D01*
G03X1371220Y1102690I1000J0D01*
G37*
G36*
G01X1301840Y1089120D02*
G02X1296560Y1089310I-2738J-2620D01*
G03X1296660Y1092180I-1341J1483D01*
G02X1301940Y1091990I2738J2620D01*
G03X1301840Y1089120I1341J-1483D01*
G37*
G36*
G01X1348780Y1067580D02*
X1341630D01*
G02X1340930Y1067870I4J1000D01*
G01X1338000Y1070800D01*
X1324100Y1084690D01*
G03X1323400Y1084980I-704J-710D01*
G01X1312680D01*
G03X1311950Y1084660I3J-999D01*
G02X1306120Y1089480I-2765J2591D01*
G01X1306220Y1089620D01*
X1306310Y1089930D01*
X1306270Y1091480D01*
X1306160Y1091780D01*
X1306050Y1091920D01*
G02X1311770Y1096890I2943J2390D01*
G03X1312500Y1096570I733J679D01*
G01X1325730D01*
G02X1326430Y1096280I-4J-1000D01*
G01X1344180Y1078530D01*
X1344560Y1078380D01*
X1344770Y1078390D01*
G02X1347550Y1077310I128J-3789D01*
G03X1348250Y1077020I705J711D01*
G01X1349650D01*
G03X1350350Y1077310I-5J1001D01*
G02X1352870Y1070810I2649J-2711D01*
G01X1352660Y1070820D01*
X1352280Y1070670D01*
X1349480Y1067870D01*
G02X1348780Y1067580I-704J710D01*
G37*
G36*
G01X1310630Y1052430D02*
X1310760Y1052280D01*
G02X1305370Y1052620I-2862J-2481D01*
G01X1305510Y1052750D01*
X1305680Y1053100D01*
X1305790Y1054900D01*
X1305670Y1055270D01*
X1305540Y1055420D01*
G02X1308280Y1061690I2862J2483D01*
G01X1308480D01*
X1308840Y1061850D01*
X1310080Y1063190D01*
X1310220Y1063550D01*
X1310210Y1063760D01*
G02X1317760Y1063430I3788J136D01*
G01X1317730Y1063210D01*
X1317860Y1062810D01*
X1319160Y1061360D01*
X1319540Y1061190D01*
X1319760D01*
G02X1320040Y1061180I5J-3789D01*
G01X1320270Y1061170D01*
X1320690Y1061340D01*
X1322050Y1062810D01*
X1322180Y1063240D01*
X1322150Y1063460D01*
G02X1325660Y1060220I3750J541D01*
G01X1325430Y1060230D01*
X1325010Y1060060D01*
X1323650Y1058590D01*
X1323520Y1058160D01*
X1323550Y1057940D01*
G02X1316040Y1057870I-3750J-543D01*
G01X1316070Y1058090D01*
X1315940Y1058490D01*
X1314640Y1059940D01*
X1314260Y1060110D01*
X1314040D01*
G02X1313210Y1060190I-53J3791D01*
G03X1312040Y1058940I-207J-979D01*
G02X1310930Y1055080I-3642J-1042D01*
G01X1310790Y1054950D01*
X1310620Y1054600D01*
X1310510Y1052800D01*
X1310630Y1052430D01*
G37*
G36*
G01X1107000Y1044430D02*
X1093000D01*
G02X1088250Y1049690I0J4775D01*
G01X1088270Y1049870D01*
X1088180Y1050210D01*
X1087230Y1051580D01*
X1086940Y1051780D01*
X1086760Y1051830D01*
G02X1086770Y1059170I944J3669D01*
G01X1086950Y1059220D01*
X1087240Y1059420D01*
X1088200Y1060810D01*
X1088280Y1061160D01*
X1088260Y1061340D01*
G02X1088230Y1061920I4741J536D01*
G01Y1062100D01*
X1088120Y1062420D01*
X1087100Y1063680D01*
X1086810Y1063850D01*
X1086630Y1063890D01*
G02X1086720Y1071330I770J3711D01*
G01X1086920Y1071370D01*
X1087250Y1071580D01*
X1088280Y1073100D01*
X1088360Y1073480D01*
X1088320Y1073680D01*
G02X1088240Y1074960I4679J935D01*
G01X1088260Y1075150D01*
X1088160Y1075490D01*
X1087100Y1076850D01*
X1086800Y1077040D01*
X1086610Y1077070D01*
G02X1086630Y1084530I687J3728D01*
G01X1086820Y1084570D01*
X1087140Y1084760D01*
X1088190Y1086180D01*
X1088290Y1086540D01*
X1088260Y1086740D01*
G02X1093000Y1092070I4740J557D01*
G01X1107000D01*
G02X1111690Y1086430I0J-4770D01*
G01X1111640Y1086180D01*
X1111790Y1085720D01*
X1112920Y1084590D01*
G03X1114340I710J704D01*
G01X1114550Y1084800D01*
X1114670Y1085360D01*
X1114570Y1085640D01*
G02X1119040Y1092070I4470J1661D01*
G01X1133040D01*
G02X1136450Y1090640I0J-4781D01*
G03X1137090Y1090340I716J696D01*
G01X1137720Y1090290D01*
G03X1138380Y1090480I71J995D01*
G02X1144200Y1086200I2223J-3074D01*
G01X1144120Y1085970D01*
X1144190Y1085500D01*
X1145280Y1083990D01*
G03X1146090Y1083570I814J580D01*
G01X1174950D01*
G03X1175650Y1083860I-4J1000D01*
G01X1182240Y1090450D01*
G03X1182530Y1091150I-710J704D01*
G01Y1093000D01*
G03X1182210Y1093730I-999J-3D01*
G02X1188560Y1097010I2593J2768D01*
G01X1188580Y1096830D01*
X1188730Y1096530D01*
X1189900Y1095430D01*
X1190210Y1095290D01*
X1190390Y1095280D01*
G02X1193890Y1091380I-289J-3780D01*
G01X1193880Y1091210D01*
X1193990Y1090890D01*
X1194960Y1089610D01*
X1195240Y1089420D01*
X1195410Y1089380D01*
G02X1190710Y1085820I-911J-3680D01*
G01X1190720Y1085990D01*
X1190610Y1086310D01*
X1189640Y1087590D01*
X1189360Y1087780D01*
X1189190Y1087820D01*
G02X1187860Y1088450I925J3673D01*
G01X1187550Y1088670D01*
X1186820Y1088610D01*
X1177530Y1079320D01*
G02X1176830Y1079030I-704J710D01*
G01X1145310D01*
G03X1144470Y1078570I2J-1001D01*
G01X1143430Y1076930D01*
X1143390Y1076420D01*
X1143500Y1076190D01*
G02X1138130Y1071340I-3440J-1589D01*
G03X1137510Y1071470I-505J-863D01*
G01X1136910Y1071410D01*
G03X1136320Y1071140I99J-996D01*
G02X1133040Y1069830I-3280J3451D01*
G01X1119040D01*
G02X1114590Y1076310I0J4768D01*
G01X1114680Y1076550D01*
X1114620Y1077030D01*
X1113550Y1078600D01*
G03X1112720Y1079030I-823J-572D01*
G01X1112470D01*
G02X1111770Y1079320I4J1000D01*
G01X1111620Y1079470D01*
X1110650Y1078500D01*
X1110600Y1077760D01*
X1110820Y1077460D01*
G02X1107000Y1069830I-3820J-2859D01*
G01X1093000D01*
G02X1092180Y1069900I-6J4770D01*
G03X1091040Y1068640I-178J-985D01*
G02X1091170Y1067990I-3635J-1065D01*
G03X1091510Y1067330I996J96D01*
G01X1092010Y1066900D01*
G03X1092720Y1066660I652J759D01*
G02X1093000Y1066670I310J-4759D01*
G01X1107000D01*
G02Y1057130I0J-4770D01*
G01X1093000D01*
X1092960D01*
G03X1092220Y1056820I-16J-1000D01*
G01X1091770Y1056340D01*
G03X1091490Y1055620I717J-693D01*
G02Y1055370I-3789J-125D01*
G01X1091480Y1055160D01*
X1091630Y1054780D01*
X1092300Y1054110D01*
X1092670Y1053960D01*
X1092880Y1053970D01*
X1107000D01*
G02Y1044430I0J-4770D01*
G37*
G36*
G01Y1006330D02*
X1093000D01*
G02X1089770Y1007590I0J4770D01*
G03X1089180Y1007850I-676J-735D01*
G01X1088570Y1007910D01*
G03X1087960Y1007770I-92J-996D01*
G02X1087860Y1014290I-1981J3230D01*
G03X1088480Y1014160I505J865D01*
G01X1089090Y1014240D01*
G03X1089670Y1014510I-110J994D01*
G02X1093000Y1015870I3330J-3397D01*
G01X1107000D01*
G02X1107430Y1015850I-6J-4770D01*
G01X1107630Y1015830D01*
X1107970Y1015930D01*
X1109350Y1016970D01*
X1109540Y1017270D01*
X1109580Y1017460D01*
G02X1109720Y1017980I3720J-723D01*
G03X1108470Y1019260I-944J328D01*
G02X1107000Y1019030I-1463J4541D01*
G01X1093000D01*
G02X1089690Y1020360I0J4784D01*
G03X1089100Y1020640I-700J-714D01*
G01X1088490Y1020700D01*
G03X1087870Y1020560I-101J-994D01*
G02Y1027040I-1970J3240D01*
G03X1088490Y1026900I519J854D01*
G01X1089100Y1026960D01*
G03X1089690Y1027240I-110J994D01*
G02X1093000Y1028570I3310J-3454D01*
G01X1107000D01*
G02X1108000Y1028460I-18J-4768D01*
G03X1109170Y1029730I212J978D01*
G02X1109080Y1030110I3637J1062D01*
G01X1109040Y1030290D01*
X1108870Y1030580D01*
X1107580Y1031620D01*
X1107260Y1031730D01*
X1107080D01*
X1093000D01*
G02X1089720Y1033040I0J4761D01*
G03X1089130Y1033310I-689J-726D01*
G01X1088530Y1033370D01*
G03X1087910Y1033240I-115J-993D01*
G02Y1039760I-1930J3260D01*
G03X1088530Y1039630I505J863D01*
G01X1089130Y1039690D01*
G03X1089720Y1039960I-99J996D01*
G02X1093000Y1041270I3280J-3451D01*
G01X1107000D01*
G02X1111760Y1036160I0J-4772D01*
G03X1112000Y1035430I997J-77D01*
G01X1112440Y1034940D01*
G03X1113110Y1034600I753J654D01*
G02X1113230Y1034590I-255J-3785D01*
G01X1114010Y1035400D01*
G03X1114280Y1036160I-727J686D01*
G02X1119040Y1041270I4760J338D01*
G01X1133040D01*
G02X1136220Y1040050I-5J-4768D01*
G03X1136810Y1039800I666J749D01*
G01X1137420Y1039760D01*
G03X1138030Y1039910I79J995D01*
G02X1138220Y1033380I2019J-3209D01*
G03X1137600Y1033500I-490J-872D01*
G01X1136990Y1033420D01*
G03X1136420Y1033130I145J-989D01*
G02X1133040Y1031730I-3380J3380D01*
G01X1119040D01*
G02X1118260Y1031790I-25J4772D01*
G03X1117470Y1031590I-171J-984D01*
G01X1116590Y1030900D01*
G02Y1030690I-3790J-105D01*
G01X1116580Y1030480D01*
X1116730Y1030100D01*
X1118130Y1028700D01*
X1118530Y1028550D01*
X1118750Y1028560D01*
G02X1119040Y1028570I309J-4759D01*
G01X1133040D01*
G02Y1019030I0J-4770D01*
G01X1119040D01*
G02X1118080Y1019130I12J4769D01*
G03X1116920Y1017850I-204J-981D01*
G02X1117020Y1017480I-3603J-1172D01*
G01X1117050Y1017300D01*
X1117230Y1017010D01*
X1118500Y1015980D01*
X1118820Y1015870D01*
X1119000D01*
X1133040D01*
G02Y1006330I0J-4770D01*
G01X1119040D01*
G02X1114280Y1011410I0J4770D01*
G03X1114040Y1012130I-998J67D01*
G01X1113610Y1012630D01*
G03X1112950Y1012970I-757J-658D01*
G02X1112830Y1012980I254J3778D01*
G01X1112040Y1012170D01*
G03X1111760Y1011410I718J-696D01*
G02X1107000Y1006330I-4760J-310D01*
G37*
G36*
G01X1178440Y1011620D02*
G02X1173680Y1012210I-2741J-2619D01*
G03X1174060Y1015280I-1066J1690D01*
G02X1178820Y1014690I2741J2619D01*
G03X1178440Y1011620I1066J-1690D01*
G37*
G36*
G01X1411800Y993630D02*
X1397800D01*
G02X1394620Y994850I5J4768D01*
G03X1394020Y995100I-664J-749D01*
G01X1393410Y995150D01*
G03X1392800Y995000I-78J-1000D01*
G02X1392620Y1001510I-2023J3202D01*
G03X1393240Y1001400I476J880D01*
G01X1393840Y1001480D01*
G03X1394420Y1001760I-122J993D01*
G02X1397800Y1003170I3380J-3346D01*
G01X1411800D01*
G02X1413040Y1003010I15J-4772D01*
G03X1414280Y1004170I261J963D01*
G02X1414210Y1005030I3719J736D01*
G01X1414220Y1005240D01*
X1414070Y1005620D01*
X1413380Y1006310D01*
X1412920Y1006460D01*
X1412670Y1006410D01*
G02X1411800Y1006330I-870J4691D01*
G01X1397800D01*
G02Y1015870I0J4770D01*
G01X1411800D01*
G02X1412680Y1015790I10J-4771D01*
G03X1413850Y1016920I184J981D01*
G02X1413810Y1017630I3750J567D01*
G01X1413820Y1017840D01*
X1413670Y1018220D01*
X1412960Y1018930D01*
X1412530Y1019080D01*
X1412310Y1019060D01*
G02X1411800Y1019030I-535J4739D01*
G01X1397800D01*
G02Y1028570I0J4770D01*
G01X1411800D01*
X1411950D01*
X1412150Y1028560D01*
X1412520Y1028700D01*
X1413850Y1029950D01*
X1414010Y1030300D01*
Y1030510D01*
G02X1414030Y1030770I3786J-160D01*
G01X1413180Y1031520D01*
G03X1412390Y1031770I-670J-744D01*
G02X1411800Y1031730I-617J4728D01*
G01X1397800D01*
G02X1394420Y1033140I0J4756D01*
G03X1393840Y1033420I-702J-713D01*
G01X1393240Y1033500D01*
G03X1392620Y1033390I-144J-990D01*
G02X1392800Y1039900I-1843J3308D01*
G03X1393410Y1039750I532J850D01*
G01X1394020Y1039800D01*
G03X1394620Y1040050I-64J999D01*
G02X1397800Y1041270I3185J-3548D01*
G01X1411800D01*
X1411960D01*
X1412160Y1041260D01*
X1412510Y1041390D01*
X1413840Y1042570D01*
X1414010Y1042910D01*
X1414020Y1043100D01*
G02X1414060Y1043410I3776J-330D01*
G03X1412850Y1044550I-987J164D01*
G02X1411800Y1044430I-1063J4649D01*
G01X1397800D01*
G02X1396410Y1044640I10J4769D01*
G01X1396270Y1044680D01*
X1381350D01*
X1381250Y1044780D01*
X1375800D01*
G02Y1053820I0J4520D01*
G01X1384990D01*
X1385090Y1053720D01*
X1396270D01*
X1396410Y1053760D01*
G02X1397800Y1053970I1400J-4559D01*
G01X1411800D01*
G02X1416370Y1047850I0J-4766D01*
G03X1417430Y1046570I961J-283D01*
G02X1418200I385J-3770D01*
G03X1419270Y1047850I110J995D01*
G02X1423840Y1053970I4570J1354D01*
G01X1437840D01*
G02X1441200Y1052580I0J-4756D01*
G03X1441850Y1052290I707J710D01*
G01X1442480Y1052250D01*
G03X1443140Y1052440I70J998D01*
G02X1443310Y1046240I2261J-3040D01*
G03X1442640Y1046400I-553J-834D01*
G01X1442000Y1046320D01*
G03X1441380Y1046000I119J-991D01*
G02X1437840Y1044430I-3540J3206D01*
G01X1423840D01*
G02X1422750Y1044560I16J4768D01*
G03X1421540Y1043420I-223J-976D01*
G02X1421590Y1042670I-3739J-626D01*
G01X1421580Y1042460D01*
X1421730Y1042080D01*
X1422480Y1041330D01*
X1422920Y1041190D01*
X1423160Y1041220D01*
G02X1423840Y1041270I689J-4719D01*
G01X1437840D01*
G02Y1031730I0J-4770D01*
G01X1423840D01*
G02X1422790Y1031850I13J4769D01*
G03X1421570Y1030770I-224J-976D01*
G02X1421590Y1030510I-3766J-420D01*
G01Y1030300D01*
X1421750Y1029950D01*
X1423090Y1028690D01*
X1423460Y1028560D01*
X1423660Y1028570D01*
X1437840D01*
G02Y1019030I0J-4770D01*
G01X1423840D01*
G02X1423510Y1019040I-21J4771D01*
G01X1423310Y1019060D01*
X1422940Y1018930D01*
X1421570Y1017750D01*
X1421390Y1017400D01*
X1421380Y1017200D01*
G02X1421330Y1016840I-3774J341D01*
G03X1422580Y1015700I985J-175D01*
G02X1423840Y1015870I1262J-4600D01*
G01X1437840D01*
G02X1441180Y1014500I0J-4756D01*
G03X1441800Y1014220I698J718D01*
G01X1442430Y1014170D01*
G03X1443070Y1014340I78J995D01*
G02X1443160Y1008010I2130J-3135D01*
G03X1442510Y1008160I-537J-845D01*
G01X1441880Y1008090D01*
G03X1441270Y1007790I111J-995D01*
G02X1437840Y1006330I-3430J3299D01*
G01X1423840D01*
X1423600D01*
X1423250Y1006200D01*
X1421960Y1005050D01*
X1421790Y1004720D01*
X1421770Y1004530D01*
G02X1421730Y1004230I-3773J350D01*
G03X1422910Y1003080I985J-170D01*
G02X1423840Y1003170I922J-4681D01*
G01X1437840D01*
G02X1441220Y1001770I0J-4780D01*
G03X1441790Y1001480I715J699D01*
G01X1442400Y1001400D01*
G03X1443020Y1001520I130J992D01*
G02X1442830Y994990I1829J-3321D01*
G03X1442220Y995140I-531J-845D01*
G01X1441610Y995100D01*
G03X1441020Y994850I76J-999D01*
G02X1437840Y993630I-3185J3548D01*
G01X1423840D01*
G02X1419290Y999820I0J4767D01*
G03X1418260Y1001120I-955J301D01*
G02X1417440Y1001150I-272J3780D01*
G03X1416340Y999860I-147J-989D01*
G02X1411800Y993630I-4540J-1461D01*
G37*
G36*
G01X1129880Y979050D02*
X1129890Y978840D01*
G02X1122310I-3790J-160D01*
G01X1122320Y979050D01*
X1122180Y979430D01*
X1121040Y980620D01*
G03X1120320Y980930I-724J-690D01*
G01X1119040D01*
G02X1114400Y986800I0J4769D01*
G01X1114440Y986960D01*
X1114410Y987280D01*
X1113790Y988680D01*
X1113580Y988920D01*
X1113440Y989000D01*
G02X1111510Y992180I1858J3303D01*
G01X1111500Y992430D01*
X1111270Y992850D01*
X1109480Y994020D01*
X1109000Y994060D01*
X1108770Y993970D01*
G02X1107000Y993630I-1770J4437D01*
G01X1093000D01*
G02X1089720Y994940I0J4761D01*
G03X1089130Y995210I-689J-726D01*
G01X1088530Y995270D01*
G03X1087910Y995140I-115J-993D01*
G02Y1001660I-1930J3260D01*
G03X1088530Y1001530I505J863D01*
G01X1089130Y1001590D01*
G03X1089720Y1001860I-99J996D01*
G02X1093000Y1003170I3280J-3451D01*
G01X1107000D01*
G02X1111330Y996400I0J-4770D01*
G03X1112880Y995220I910J-413D01*
G02X1113590Y995680I2403J-2931D01*
G03X1114040Y996140I-452J892D01*
G01X1114310Y996700D01*
G03X1114390Y997350I-898J440D01*
G02X1119040Y1003170I4650J1052D01*
G01X1133040D01*
G02Y993630I0J-4770D01*
G01X1120250D01*
G03X1119550Y993340I4J-1000D01*
G01X1119230Y993020D01*
X1119080Y992640D01*
X1119090Y992430D01*
Y992220D01*
X1119250Y991860D01*
X1120390Y990750D01*
G03X1121090Y990470I694J721D01*
G01X1133040D01*
G02Y980930I0J-4770D01*
G01X1131880D01*
G03X1131160Y980620I4J-1000D01*
G01X1130020Y979430D01*
X1129880Y979050D01*
G37*
G36*
G01X1083100Y934020D02*
X1084100D01*
G02X1083600Y913980I-507J-10014D01*
G02X1083100Y934020I7J10026D01*
G37*
G36*
G01X1434800Y939220D02*
X1435800D01*
G02X1435300Y919180I-507J-10014D01*
G02X1434800Y939220I7J10026D01*
G37*
G36*
G01X1411800Y990470D02*
G02Y980930I0J-4770D01*
G01X1397800D01*
G02X1394620Y982150I5J4768D01*
G03X1394020Y982400I-664J-749D01*
G01X1393410Y982450D01*
G03X1392800Y982300I-78J-1000D01*
G02X1392620Y988810I-2023J3202D01*
G03X1393240Y988700I476J880D01*
G01X1393840Y988780D01*
G03X1394420Y989060I-122J993D01*
G02X1397800Y990470I3380J-3346D01*
G01X1411800D01*
G37*
G36*
G01X1136270Y1045690D02*
G02X1133040Y1044430I-3230J3510D01*
G01X1119040D01*
G02Y1053970I0J4770D01*
G01X1133040D01*
G02X1136370Y1052610I0J-4757D01*
G03X1136950Y1052340I690J724D01*
G01X1137560Y1052260D01*
G03X1138180Y1052390I115J995D01*
G02X1138080Y1045870I1881J-3290D01*
G03X1137470Y1046010I-518J-856D01*
G01X1136860Y1045950D01*
G03X1136270Y1045690I86J-995D01*
G37*
G36*
G01X1136480Y1058600D02*
G02X1133040Y1057130I-3440J3290D01*
G01X1119040D01*
G02Y1066670I0J4770D01*
G01X1133040D01*
G02X1136120Y1065540I0J-4763D01*
G01X1136250Y1065430D01*
X1136550Y1065310D01*
X1138100Y1065240D01*
X1138410Y1065320D01*
X1138550Y1065420D01*
G02X1138890Y1058970I2150J-3121D01*
G01X1138740Y1059050D01*
X1138420Y1059110D01*
X1136890Y1058870D01*
X1136600Y1058720D01*
X1136480Y1058600D01*
G37*
G36*
G01X1411800Y1066670D02*
G02Y1057130I0J-4770D01*
G01X1397800D01*
G02X1396410Y1057340I10J4769D01*
G01X1396270Y1057380D01*
X1375800D01*
G02Y1066420I0J4520D01*
G01X1396270D01*
X1396410Y1066460D01*
G02X1397800Y1066670I1400J-4559D01*
G01X1411800D01*
G37*
G36*
G01X1440730Y1058100D02*
G02X1437840Y1057130I-2884J3802D01*
G01X1423840D01*
G02Y1066670I0J4770D01*
G01X1437840D01*
G02X1441510Y1064950I0J-4775D01*
G03X1442060Y1064610I773J636D01*
G01X1442660Y1064480D01*
G03X1443290Y1064550I210J978D01*
G02X1442550Y1058090I1568J-3452D01*
G03X1441950Y1058300I-613J-789D01*
G01X1441340Y1058310D01*
G03X1440730Y1058100I3J-1000D01*
G37*
G36*
G01X1273450Y1063360D02*
G03X1271510Y1061960I-31J-2001D01*
G02X1267950Y1066890I-3613J1142D01*
G03X1269890Y1068290I31J2001D01*
G02X1273450Y1063360I3613J-1142D01*
G37*
G36*
G01X1292570Y1067390D02*
G03X1295090Y1067060I1461J1366D01*
G02X1294330Y1061260I2010J-3213D01*
G03X1291810Y1061590I-1461J-1366D01*
G02X1292570Y1067390I-2010J3213D01*
G37*
G36*
G01X1136270Y1096490D02*
G02X1133040Y1095230I-3230J3510D01*
G01X1119040D01*
G02Y1104770I0J4770D01*
G01X1133040D01*
G02X1136460Y1103320I0J-4758D01*
G03X1137050Y1103030I712J703D01*
G01X1137660Y1102950D01*
G03X1138300Y1103080I132J991D01*
G02X1138120Y1096630I1899J-3281D01*
G03X1137490Y1096800I-561J-828D01*
G01X1136870Y1096750D01*
G03X1136270Y1096490I76J-997D01*
G37*
G36*
G01X1398540Y1139390D02*
G03X1399380Y1138250I987J-152D01*
G02X1395060Y1135110I-578J-3747D01*
G03X1394220Y1136250I-987J152D01*
G02X1398540Y1139390I578J3747D01*
G37*
G36*
G01X1275710Y1207680D02*
G03X1274450Y1207350I-438J-897D01*
G02X1273000Y1212890I-3129J2141D01*
G03X1274260Y1213220I438J897D01*
G02X1275710Y1207680I3129J-2141D01*
G37*
G36*
G01X1389790Y1212310D02*
G03X1387820Y1210690I-6J-2001D01*
G02X1384110Y1215190I-3722J711D01*
G03X1386080Y1216810I6J2001D01*
G02X1389790Y1212310I3722J-711D01*
G37*
G36*
G01X1315140Y1224860D02*
X1315210Y1224250D01*
G03X1315470Y1223680I996J110D01*
G02X1309400Y1222960I-2771J-2582D01*
G03X1309520Y1223570I-872J488D01*
G01X1309450Y1224180D01*
G03X1309190Y1224750I-996J-110D01*
G02X1308570Y1229030I2770J2586D01*
G03X1308660Y1229640I-894J443D01*
G01X1308560Y1230250D01*
G03X1308270Y1230800I-985J-168D01*
G02X1314300Y1231820I2641J2719D01*
G03X1314210Y1231210I894J-443D01*
G01X1314310Y1230600D01*
G03X1314600Y1230050I985J168D01*
G02X1315260Y1225470I-2641J-2718D01*
G03X1315140Y1224860I872J-488D01*
G37*
G54D19*
X1417820Y1115880D03*
Y969820D03*
X1113020Y1115880D03*
Y969820D03*
G54D20*
X1089700Y1188400D03*
Y1163000D03*
G54D21*
X1100000Y985700D03*
Y1100000D03*
X1430840Y985700D03*
G54D18*
X1434600Y1179800D03*
X1438900Y1189100D03*
X1425100Y1160900D03*
X1415900Y1174300D03*
X1400000Y1203100D03*
X1383000Y1153200D03*
X1373400Y1195500D03*
X1375800Y966300D03*
X1334300Y1167400D03*
X1331500Y1110300D03*
X1293200Y1225000D03*
X1278800Y1225800D03*
X1284270Y1109620D03*
X1252900Y1093300D03*
X1260300Y1049600D03*
X1293700Y914200D03*
X1233000Y1229200D03*
X1223000Y1123920D03*
X1213000Y1134500D03*
X1250580Y1043980D03*
X1234700Y914400D03*
X1209000Y1304000D03*
X1202000Y1274500D03*
X1177500Y1175300D03*
X1203900Y1184900D03*
X1179500Y1142800D03*
X1167600Y1143000D03*
X1137600Y1163000D03*
X1153700Y1008200D03*
X1147600Y970900D03*
%LPD*%
G75*
G54D10*
X1068570Y947720D03*
Y917560D03*
X1072300Y909500D03*
X1068570Y937720D03*
Y927560D03*
X1068550Y987850D03*
Y957690D03*
Y967690D03*
Y977850D03*
X1067550Y1017990D03*
Y1028150D03*
X1068560Y997880D03*
X1067550Y1007990D03*
X1067650Y1078350D03*
Y1048190D03*
Y1058190D03*
Y1068350D03*
X1067550Y1038150D03*
X1067650Y1098590D03*
Y1108750D03*
Y1088590D03*
Y1118750D03*
X1079570Y1135570D03*
X1069320Y1160240D03*
Y1140080D03*
Y1150080D03*
X1067660Y1128780D03*
X1069320Y1170240D03*
X1069330Y1180270D03*
X1069170Y1200050D03*
Y1190050D03*
X1069150Y1220150D03*
Y1250340D03*
Y1240310D03*
Y1230310D03*
Y1210150D03*
X1068990Y1260130D03*
Y1270130D03*
Y1280280D03*
Y1290280D03*
X1068960Y1320470D03*
Y1310310D03*
X1069000Y1300320D03*
X1068600Y1330800D03*
X1062000Y1351500D03*
X1068800Y1341500D03*
X1114200Y942800D03*
X1092700Y909600D03*
X1105470Y913260D03*
X1100900Y921000D03*
X1108770Y928160D03*
X1098070Y939460D03*
X1081400Y940000D03*
X1117400Y912000D03*
X1115300Y992300D03*
X1088570Y954360D03*
X1084670Y969560D03*
X1109070Y953160D03*
X1098300Y963200D03*
X1100000Y978680D03*
X1113300Y1016740D03*
X1112800Y1030820D03*
X1085980Y1036500D03*
X1085900Y1023800D03*
X1085980Y1011000D03*
Y998400D03*
X1087400Y1067600D03*
X1087700Y1055500D03*
X1087300Y1080800D03*
X1100000Y1107300D03*
X1122800Y1144500D03*
X1112300Y1144100D03*
X1089700Y1142100D03*
X1106200Y1153000D03*
X1116300Y1189000D03*
X1121300Y1178400D03*
X1106800Y1202100D03*
X1088470Y1236170D03*
X1081370Y1217070D03*
X1110400Y1241000D03*
X1102000Y1213100D03*
X1101800Y1248700D03*
X1102700Y1228100D03*
X1113300Y1210300D03*
X1081300Y1266300D03*
X1090870Y1255770D03*
X1100370Y1267670D03*
X1116300Y1257500D03*
X1091470Y1280770D03*
X1083800Y1292300D03*
X1116570Y1290370D03*
X1120900Y1265600D03*
X1101770Y1288070D03*
X1112000Y1307500D03*
X1081000Y1329500D03*
X1113000Y1377000D03*
X1083000Y1346500D03*
X1123000Y1387000D03*
X1100000Y1387500D03*
X1082500Y1387000D03*
X1125600Y932100D03*
X1126100Y978680D03*
X1147600Y970900D03*
X1139500Y975800D03*
X1147300Y981580D03*
X1138500Y967220D03*
X1127100Y956400D03*
X1153700Y1008200D03*
X1140050Y1036700D03*
X1156100Y1018200D03*
X1164800Y1019220D03*
X1140060Y1074600D03*
X1140700Y1062300D03*
X1140060Y1049100D03*
X1166170Y1065970D03*
X1153670Y1076170D03*
X1162300Y1074500D03*
X1156600Y1065900D03*
X1138800Y1120900D03*
X1140200Y1099800D03*
X1140600Y1087400D03*
X1143300Y1112000D03*
X1155070Y1112770D03*
X1127400Y1110000D03*
X1137600Y1163000D03*
X1146000Y1126200D03*
X1136800Y1131800D03*
X1138800Y1138900D03*
X1146100Y1142200D03*
X1126000Y1151400D03*
X1137400Y1154200D03*
X1137800Y1189300D03*
X1138470Y1177270D03*
X1130100Y1206700D03*
X1148000Y1192600D03*
X1125400Y1222600D03*
X1145770Y1229170D03*
X1130170Y1231970D03*
X1127100Y1246900D03*
X1153600Y1217900D03*
X1138830Y1213100D03*
X1145200Y1219520D03*
X1123500Y1274100D03*
X1128000Y1292000D03*
X1132370Y1264770D03*
X1147500Y1282000D03*
X1154400Y1274300D03*
X1151500Y1253200D03*
X1153400Y1296300D03*
X1149000Y1326500D03*
X1128000Y1371500D03*
X1151000Y1351000D03*
X1150000Y1384000D03*
X1195420Y974500D03*
X1176800Y1017900D03*
X1175700Y1009000D03*
X1194900Y1010400D03*
X1200400Y1017600D03*
X1179000Y1061200D03*
X1170400Y1070900D03*
X1184800Y1096500D03*
X1190100Y1091500D03*
X1194500Y1085700D03*
X1185400Y1103400D03*
X1198380Y1118400D03*
X1167600Y1143000D03*
X1190400Y1160400D03*
X1184000Y1165700D03*
X1179500Y1142800D03*
X1177600Y1152400D03*
X1198380Y1127000D03*
X1177500Y1160800D03*
X1203900Y1184900D03*
X1183570Y1189870D03*
X1189600Y1200100D03*
X1190400Y1182700D03*
X1197500Y1193000D03*
X1199800Y1198900D03*
X1196800Y1205200D03*
X1177500Y1175300D03*
X1197000Y1236500D03*
X1194900Y1218100D03*
X1176800Y1231600D03*
X1203600Y1225900D03*
X1202000Y1251000D03*
X1179900Y1219720D03*
X1186470Y1213300D03*
X1204000Y1213000D03*
X1202000Y1274500D03*
X1181500Y1280000D03*
X1209000Y1290000D03*
X1192500Y1258500D03*
X1184000Y1291000D03*
X1168500Y1284000D03*
X1194500Y1273000D03*
X1177000Y1253000D03*
X1209000Y1304000D03*
X1207000Y1317500D03*
X1187000Y1307500D03*
X1184500Y1325000D03*
X1200000Y1328500D03*
X1184500Y1358000D03*
X1203000Y1345500D03*
Y1377000D03*
X1202500Y1386500D03*
X1190000D03*
X1170500D03*
X1234700Y914400D03*
X1239800Y938680D03*
X1238800Y908400D03*
X1226400Y909600D03*
X1223100Y921900D03*
X1243330Y930500D03*
X1252200Y938920D03*
X1217650Y931950D03*
X1226300Y955400D03*
X1217300Y962800D03*
X1233610Y966110D03*
X1214750Y956450D03*
X1227940Y1018600D03*
X1250580Y1043980D03*
X1213000Y1134500D03*
X1240430Y1136790D03*
X1240460Y1146750D03*
X1250380Y1156790D03*
X1240380D03*
X1250460Y1146750D03*
X1250430Y1136790D03*
X1223000Y1123920D03*
X1240460Y1166900D03*
X1250460D03*
X1250450Y1176830D03*
X1240450D03*
X1240440Y1186750D03*
X1250440D03*
X1233000Y1229200D03*
X1245000Y1212500D03*
Y1232000D03*
X1218380Y1214800D03*
X1221700Y1229500D03*
X1218480Y1223300D03*
X1247960Y1263900D03*
X1247950Y1270830D03*
X1247940Y1278250D03*
X1238500Y1289500D03*
X1226500Y1261000D03*
X1217500Y1258500D03*
Y1283000D03*
X1226000Y1290500D03*
X1217000Y1300000D03*
X1233000D03*
X1244500Y1300500D03*
X1214500Y1325000D03*
X1223500D03*
X1232500D03*
X1239500Y1318000D03*
X1249000Y1319500D03*
Y1333500D03*
X1242500Y1326500D03*
X1239500Y1349500D03*
X1225000Y1340000D03*
X1216000Y1364000D03*
X1242000Y1385000D03*
X1226500D03*
X1293700Y914200D03*
X1295300Y931700D03*
X1267700Y930200D03*
X1283600Y930800D03*
X1275600Y923100D03*
X1284800Y923200D03*
X1289800Y1064800D03*
X1273500Y1067150D03*
X1267900Y1063100D03*
X1260300Y1049600D03*
X1258500Y1042000D03*
X1252900Y1093300D03*
X1284270Y1109620D03*
X1286500Y1092200D03*
X1277800Y1093390D03*
X1270430Y1136790D03*
X1260380Y1156790D03*
X1260460Y1146750D03*
X1270460D03*
X1290480Y1146730D03*
X1280480D03*
X1280400Y1156770D03*
X1290400D03*
X1270380Y1156790D03*
X1280450Y1136770D03*
X1290450D03*
X1260430Y1136790D03*
X1260460Y1166900D03*
X1290470Y1166880D03*
X1280470D03*
X1270460Y1166900D03*
X1280470Y1176810D03*
X1290470D03*
X1270450Y1176830D03*
X1260450D03*
X1260440Y1186750D03*
X1270440D03*
X1290460Y1186730D03*
X1280460D03*
X1277390Y1211080D03*
X1271320Y1209490D03*
X1278800Y1225800D03*
X1293200Y1225000D03*
X1265000Y1219500D03*
X1264500Y1232500D03*
X1286500Y1232520D03*
X1272000D03*
X1262460Y1263900D03*
X1262450Y1270830D03*
X1262440Y1278250D03*
X1254960Y1263900D03*
X1254950Y1270830D03*
X1254940Y1278250D03*
X1272500Y1289500D03*
X1283000Y1259000D03*
X1295000Y1337500D03*
X1269500Y1329000D03*
X1269000Y1315500D03*
X1280500D03*
X1268000Y1298500D03*
X1282000Y1339500D03*
X1274000Y1353000D03*
X1277500Y1361500D03*
X1281370Y1387570D03*
X1291370D03*
X1270870D03*
X1330100Y910100D03*
X1311300Y910700D03*
X1338000Y933700D03*
X1300100Y912800D03*
X1298100Y923100D03*
X1297110Y964990D03*
X1320300Y1036800D03*
X1337500Y1010000D03*
X1299800Y1030800D03*
X1297110Y1020290D03*
X1297100Y1063850D03*
X1307900Y1049800D03*
X1308400Y1057900D03*
X1314000Y1063900D03*
X1319800Y1057400D03*
X1325900Y1064000D03*
X1334870Y1060770D03*
X1337300Y1050920D03*
X1328530Y1042500D03*
X1309000Y1094300D03*
X1309180Y1087250D03*
X1299400Y1094800D03*
X1299100Y1086500D03*
X1331500Y1110300D03*
X1334010Y1120200D03*
X1334300Y1167400D03*
X1332420Y1174200D03*
X1332220Y1194400D03*
X1311960Y1227330D03*
X1310910Y1233520D03*
X1314500Y1244500D03*
X1299800Y1232520D03*
X1319000Y1231000D03*
X1312700Y1221100D03*
X1318020Y1281000D03*
Y1272000D03*
Y1263000D03*
X1332500Y1287000D03*
X1312500Y1293500D03*
X1319500Y1310500D03*
X1322600Y1327000D03*
X1300500Y1304000D03*
X1306500Y1323500D03*
X1311000Y1341000D03*
X1309900Y1354400D03*
X1330000Y1369000D03*
X1304500Y1376000D03*
X1327000Y1354500D03*
X1311000Y1386500D03*
X1301370Y1387570D03*
X1328870Y1386570D03*
X1318870D03*
X1356100Y949300D03*
X1363400Y910800D03*
X1380100Y910500D03*
X1352700Y932400D03*
Y915600D03*
X1365400Y933600D03*
X1375800Y966300D03*
X1347800Y980300D03*
X1348000Y1008600D03*
X1353030Y1018700D03*
X1370570Y1018800D03*
X1361600Y1027120D03*
X1342000Y1016200D03*
X1344900Y1074600D03*
X1353000D03*
X1375800Y1049300D03*
Y1061900D03*
X1358400Y1052300D03*
X1358200Y1040600D03*
X1345200Y1042380D03*
X1368200Y1100400D03*
Y1106800D03*
X1368400Y1114900D03*
X1374700Y1108100D03*
X1357100Y1139200D03*
X1368400Y1149400D03*
X1351170Y1145970D03*
X1360100Y1163200D03*
X1378800Y1176500D03*
X1379300Y1184200D03*
X1373400Y1195500D03*
X1350000Y1222500D03*
X1356000Y1239000D03*
X1348500Y1247000D03*
X1379500Y1285000D03*
X1352500Y1286000D03*
X1380500Y1259000D03*
X1363000Y1254000D03*
X1342500Y1254500D03*
X1356700Y1303900D03*
X1371500Y1324000D03*
X1348500Y1324500D03*
X1343000Y1308000D03*
X1364500Y1346000D03*
X1359500Y1371500D03*
X1346400Y1341970D03*
X1350000Y1357500D03*
X1368870Y1386570D03*
X1378870D03*
X1358870D03*
X1338870D03*
X1348870D03*
X1423900Y949100D03*
X1412870Y937170D03*
X1393700Y910400D03*
X1407100Y910100D03*
X1420300Y909900D03*
X1416000Y917700D03*
X1399100Y932000D03*
X1381800Y933200D03*
X1390780Y985500D03*
X1420770Y957970D03*
X1404000Y956100D03*
X1387600Y972700D03*
X1384400Y981600D03*
X1417800Y1030400D03*
X1418000Y1004900D03*
X1390780Y998200D03*
Y1036700D03*
X1417600Y1017500D03*
X1417800Y1042800D03*
X1388700Y1079500D03*
X1417800Y1080600D03*
X1386700Y1096500D03*
X1388600Y1090400D03*
X1398300Y1115400D03*
X1393800Y1109500D03*
X1383000Y1153200D03*
X1394800Y1140000D03*
X1398800Y1134500D03*
X1392300Y1127300D03*
X1413300Y1129300D03*
X1394600Y1189200D03*
X1400000Y1203100D03*
X1383600Y1169500D03*
X1395430Y1181100D03*
X1415900Y1174300D03*
X1424600Y1181900D03*
X1407000Y1203600D03*
X1424600Y1197200D03*
X1384100Y1211400D03*
X1389800Y1216100D03*
X1397000Y1242000D03*
X1415500Y1224000D03*
X1389500Y1226500D03*
X1402300Y1211000D03*
X1400500Y1273000D03*
X1420400Y1271100D03*
X1404400Y1288970D03*
X1392500Y1300500D03*
X1419500Y1334000D03*
X1401400Y1331470D03*
X1383000Y1313000D03*
X1408100Y1309500D03*
X1382500Y1371500D03*
X1384200Y1339400D03*
X1397000Y1357500D03*
X1416000Y1371000D03*
X1398870Y1386570D03*
X1408870D03*
X1418870D03*
X1388870D03*
X1460470Y948830D03*
Y938670D03*
X1459570Y910670D03*
X1460470Y930370D03*
X1434800Y910400D03*
X1449700Y911300D03*
X1460270Y920970D03*
X1460470Y987870D03*
X1447970Y951770D03*
X1446370Y973770D03*
X1460470Y958830D03*
X1460480Y968860D03*
X1460320Y978640D03*
X1434500Y964100D03*
X1433500Y954700D03*
X1430840Y977840D03*
X1444850Y998200D03*
X1445200Y1011200D03*
X1460470Y997870D03*
Y1018030D03*
X1460480Y1028060D03*
X1460470Y1008030D03*
X1444860Y1061100D03*
X1445400Y1049400D03*
X1460900Y1078800D03*
X1461400Y1059500D03*
X1460320Y1037840D03*
X1461000Y1048700D03*
Y1068000D03*
X1459020Y1109230D03*
Y1119230D03*
X1461820Y1098840D03*
X1461200Y1088300D03*
X1425710Y1107490D03*
X1425100Y1160900D03*
X1436200Y1147900D03*
X1458870Y1159210D03*
X1459030Y1129390D03*
Y1139390D03*
Y1149420D03*
X1446600Y1155000D03*
X1448200Y1142500D03*
X1440500Y1163900D03*
X1444100Y1148400D03*
X1432400Y1157000D03*
X1438900Y1189100D03*
X1434600Y1179800D03*
X1459030Y1169370D03*
Y1199530D03*
Y1179370D03*
Y1189530D03*
X1447600Y1171900D03*
X1447400Y1193800D03*
X1450100Y1182900D03*
X1447400Y1204500D03*
X1424900Y1208900D03*
X1425500Y1249000D03*
X1446100Y1249300D03*
X1447300Y1222200D03*
X1458870Y1219350D03*
Y1229350D03*
X1458860Y1239450D03*
Y1249450D03*
X1443200Y1237000D03*
X1459040Y1209560D03*
X1449000Y1271000D03*
X1458860Y1259600D03*
Y1269600D03*
Y1279640D03*
X1458700Y1289420D03*
X1442200Y1286400D03*
X1439200Y1328900D03*
X1458640Y1337010D03*
X1458630Y1316850D03*
X1458640Y1327010D03*
X1458630Y1306850D03*
X1439200Y1300700D03*
X1425400Y1302400D03*
X1458700Y1299420D03*
X1432000Y1358500D03*
X1458640Y1347040D03*
X1458480Y1356830D03*
X1446500Y1371000D03*
X1448870Y1386570D03*
X1458870D03*
X1428870D03*
X1438870D03*
G54D11*
X1069500Y1381500D03*
X1083600Y924000D03*
X1435300Y929200D03*
G54D12*
X1113020Y969820D03*
Y1115880D03*
X1417820Y969820D03*
Y1115880D03*
G54D13*
X1126040Y985700D03*
X1100000D03*
X1126040Y998400D03*
Y1011100D03*
Y1023800D03*
Y1036500D03*
X1100000Y998400D03*
Y1011100D03*
Y1023800D03*
Y1036500D03*
X1126040Y1049200D03*
Y1061900D03*
Y1074600D03*
X1100000Y1049200D03*
Y1061900D03*
Y1074600D03*
X1126040Y1087300D03*
Y1100000D03*
X1100000Y1087300D03*
Y1100000D03*
X1430840Y985700D03*
X1404800D03*
X1430840Y998400D03*
Y1011100D03*
Y1023800D03*
Y1036500D03*
X1404800Y998400D03*
Y1011100D03*
Y1023800D03*
Y1036500D03*
X1430840Y1049200D03*
Y1061900D03*
Y1074600D03*
X1404800Y1049200D03*
Y1061900D03*
Y1074600D03*
X1430840Y1087300D03*
Y1100000D03*
X1404800Y1087300D03*
Y1100000D03*
G54D14*
X1089700Y1163000D03*
Y1188400D03*
G54D15*
G01X1100000Y985700D02*
Y978680D01*
G01Y1100000D02*
Y1107300D01*
G01X1430840Y985700D02*
Y977840D01*
G01Y1100000D02*
Y1102360D01*
X1425710Y1107490D01*
G54D16*
G01X1404800Y1049200D02*
X1383220D01*
X1383120Y1049300D01*
X1375800D01*
G01X1404800Y1061900D02*
X1375800D01*
G54D17*
G01X1100000Y985700D02*
Y991470D01*
G01X1087230Y985700D02*
X1100000D01*
G01D02*
X1112770D01*
G01X1113300Y1016740D02*
X1118940Y1011100D01*
X1126040D01*
G01Y1023800D02*
X1119500D01*
X1118000Y1025300D01*
Y1025620D01*
X1112800Y1030820D01*
G01X1115300Y992300D02*
X1121400Y998400D01*
X1126040D01*
G01X1085900Y1023800D02*
X1100000D01*
G01X1085980Y1011000D02*
X1087630D01*
X1087730Y1011100D01*
X1100000D01*
G01X1085980Y998400D02*
X1100000D01*
G01X1087400Y1067600D02*
X1091600Y1063400D01*
X1098500D01*
X1100000Y1061900D01*
G01X1087700Y1055500D02*
X1094000Y1049200D01*
X1100000D01*
G01Y1074600D02*
X1098200Y1076400D01*
X1091700D01*
X1087300Y1080800D01*
G01X1085980Y1036500D02*
X1100000D01*
G01X1184800Y1096500D02*
Y1089800D01*
X1176300Y1081300D01*
X1113000D01*
X1107000Y1087300D01*
X1100000D01*
G01Y1094230D02*
Y1100000D01*
G01X1087230D02*
X1100000D01*
G01D02*
X1112770D01*
G01X1126100Y978680D02*
Y980800D01*
X1126040Y980860D01*
Y985700D01*
G01X1140060Y1074600D02*
X1126040D01*
G01X1140700Y1062300D02*
X1126440D01*
X1126040Y1061900D01*
G01X1140060Y1049100D02*
X1139960Y1049200D01*
X1126040D01*
G01X1140050Y1036700D02*
X1138000D01*
X1137900Y1036800D01*
X1126340D01*
X1126040Y1036500D01*
G01X1140200Y1099800D02*
X1126240D01*
X1126040Y1100000D01*
G01X1140600Y1087400D02*
X1126140D01*
X1126040Y1087300D01*
G01X1309180Y1087250D02*
X1324750D01*
X1339600Y1072410D01*
X1342160Y1069850D01*
X1348250D01*
X1353000Y1074600D01*
G01X1309000Y1094300D02*
X1325200D01*
X1344900Y1074600D01*
G01X1390780Y985500D02*
X1393500D01*
X1393700Y985700D01*
X1404800D01*
G01X1418070D02*
X1430840D01*
G01X1417800Y1030400D02*
Y1026400D01*
X1420400Y1023800D01*
X1430840D01*
G01X1418000Y1004900D02*
X1413300Y1009600D01*
X1406300D01*
X1404800Y1011100D01*
G01X1390780Y998200D02*
X1392700D01*
X1392900Y998400D01*
X1404800D01*
G01X1404600Y1024000D02*
X1404800Y1023800D01*
G01D02*
X1411300D01*
X1417600Y1017500D01*
G01X1417800Y1042800D02*
X1424100Y1036500D01*
X1430840D01*
G01X1388700Y1079500D02*
X1393600Y1074600D01*
X1404800D01*
G01X1417800Y1080600D02*
X1423400Y1075000D01*
X1430440D01*
X1430840Y1074600D01*
G01X1390780Y1036700D02*
X1392200D01*
X1392500Y1037000D01*
X1404300D01*
X1404800Y1036500D01*
G01X1386700Y1096500D02*
X1390200Y1100000D01*
X1404800D01*
G01X1388600Y1090400D02*
X1392180Y1093980D01*
X1417150D01*
X1423840Y1087300D01*
X1430840D01*
G01X1418070Y1100000D02*
X1430840D01*
G01Y985700D02*
Y991470D01*
G01Y985700D02*
X1443610D01*
G01X1444850Y998200D02*
X1444400D01*
X1444200Y998400D01*
X1430840D01*
G01Y1011100D02*
X1445100D01*
X1445200Y1011200D01*
G01X1430840Y1061900D02*
X1442500D01*
X1443300Y1061100D01*
X1444860D01*
G01X1445400Y1049400D02*
X1443000D01*
X1442900Y1049500D01*
X1431140D01*
X1430840Y1049200D01*
G01Y1094230D02*
Y1100000D01*
G01D02*
X1443610D01*
M02*
