G04 ================== begin FILE IDENTIFICATION RECORD ==================*
G04 Layout Name:  CC2538_CC2592EM_shield.BRD*
G04 Film Name:    Layer2*
G04 File Format:  Gerber RS274X*
G04 File Origin:  Cadence Allegro 16.6-S019*
G04 Origin Date:  Tue Nov 26 15:06:45 2013*
G04 *
G04 Layer:  VIA CLASS/L2*
G04 Layer:  PIN/L2*
G04 Layer:  ETCH/L2*
G04 *
G04 Offset:    (0.000 0.000)*
G04 Mirror:    No*
G04 Mode:      Positive*
G04 Rotation:  0*
G04 FullContactRelief:  No*
G04 UndefLineWidth:     0.020*
G04 ================== end FILE IDENTIFICATION RECORD ====================*
%FSLAX44Y44*MOMM*%
%IR0*IPPOS*OFA0.00000B0.00000*MIA0B0*SFA1.00000B1.00000*%
%ADD12C,1.45*%
%ADD11C,.099*%
%ADD10C,.5*%
%ADD15C,1.806*%
%ADD16C,1.754*%
%ADD13C,4.528*%
%ADD14C,.758*%
G75*
%LPD*%
G75*
G36*
G01X1059300Y1391710D02*
G02X1060010Y1392000I705J-711D01*
G01X1463990D01*
G02X1464700Y1391710I5J-1001D01*
G02X1464990Y1391000I-711J-705D01*
G01Y906010D01*
G02X1463990Y905010I-1000J0D01*
G01X1220510D01*
G02X1219510Y906010I0J1000D01*
G01Y921510D01*
G03X1218510Y922510I-1000J0D01*
G01X1123490D01*
G03X1122490Y921510I0J-1000D01*
G01Y906010D01*
G02X1121490Y905010I-1000J0D01*
G01X1060010D01*
G02X1059010Y906010I0J1000D01*
G01Y1391000D01*
G02X1059300Y1391710I1001J5D01*
G37*
%LPC*%
G75*
G36*
G01X1178440Y1011620D02*
G02X1173680Y1012210I-2741J-2619D01*
G03X1174060Y1015280I-1066J1690D01*
G02X1178820Y1014690I2741J2619D01*
G03X1178440Y1011620I1066J-1690D01*
G37*
G36*
G01X1310630Y1052430D02*
X1310760Y1052280D01*
G02X1305370Y1052620I-2862J-2481D01*
G01X1305510Y1052750D01*
X1305680Y1053100D01*
X1305790Y1054900D01*
X1305670Y1055270D01*
X1305540Y1055420D01*
G02X1308280Y1061690I2862J2483D01*
G01X1308480D01*
X1308840Y1061850D01*
X1310080Y1063190D01*
X1310220Y1063550D01*
X1310210Y1063760D01*
G02X1317760Y1063430I3788J136D01*
G01X1317730Y1063210D01*
X1317860Y1062810D01*
X1319160Y1061360D01*
X1319540Y1061190D01*
X1319760D01*
G02X1320040Y1061180I5J-3789D01*
G01X1320270Y1061170D01*
X1320690Y1061340D01*
X1322050Y1062810D01*
X1322180Y1063240D01*
X1322150Y1063460D01*
G02X1325660Y1060220I3750J541D01*
G01X1325430Y1060230D01*
X1325010Y1060060D01*
X1323650Y1058590D01*
X1323520Y1058160D01*
X1323550Y1057940D01*
G02X1316040Y1057870I-3750J-543D01*
G01X1316070Y1058090D01*
X1315940Y1058490D01*
X1314640Y1059940D01*
X1314260Y1060110D01*
X1314040D01*
G02X1313210Y1060190I-53J3791D01*
G03X1312040Y1058940I-207J-979D01*
G02X1310930Y1055080I-3642J-1042D01*
G01X1310790Y1054950D01*
X1310620Y1054600D01*
X1310510Y1052800D01*
X1310630Y1052430D01*
G37*
G36*
G01X1347550Y1071890D02*
G02Y1077310I-2650J2710D01*
G03X1350350I1400J1427D01*
G02Y1071890I2650J-2710D01*
G03X1347550I-1400J-1427D01*
G37*
G36*
G01X1301840Y1089120D02*
G02X1296560Y1089310I-2738J-2620D01*
G03X1296660Y1092180I-1341J1483D01*
G02X1301940Y1091990I2738J2620D01*
G03X1301840Y1089120I1341J-1483D01*
G37*
G36*
G01X1371220Y1102690D02*
G02X1365180I-3020J-2290D01*
G03X1365380Y1103290I-800J600D01*
G01Y1103910D01*
G03X1365180Y1104510I-1000J0D01*
G02X1365560Y1109520I3020J2290D01*
G01X1365700Y1109660D01*
X1365860Y1110010D01*
X1365900Y1111810D01*
X1365760Y1112170D01*
X1365630Y1112320D01*
G02X1371040Y1112180I2774J2581D01*
G01X1370900Y1112040D01*
X1370740Y1111690D01*
X1370700Y1109890D01*
X1370840Y1109530D01*
X1370970Y1109380D01*
G02X1371220Y1104510I-2771J-2584D01*
G03X1371020Y1103910I800J-600D01*
G01Y1103290D01*
G03X1371220Y1102690I1000J0D01*
G37*
G36*
G01X1142580Y1120700D02*
G02X1139730Y1124570I-3782J199D01*
G03X1142220Y1126400I491J1942D01*
G02X1145070Y1122530I3782J-199D01*
G03X1142580Y1120700I-491J-1942D01*
G37*
G36*
G01X1140270Y1133330D02*
G02X1134640Y1134920I-3471J-1528D01*
G03X1135330Y1137370I-1137J1642D01*
G02X1140060Y1142470I3468J1527D01*
G01X1140250Y1142410D01*
X1140620Y1142420D01*
X1142250Y1143160D01*
X1142510Y1143430D01*
X1142580Y1143610D01*
G02X1144840Y1138630I3519J-1406D01*
G01X1144650Y1138690D01*
X1144280Y1138680D01*
X1142650Y1137940D01*
X1142390Y1137670D01*
X1142320Y1137490D01*
G02X1140960Y1135780I-3522J1405D01*
G03X1140270Y1133330I1137J-1642D01*
G37*
G36*
G01X1180020Y1155320D02*
X1180180Y1155180D01*
G02X1174960Y1155120I-2578J-2779D01*
G01X1175110Y1155260D01*
X1175260Y1155640D01*
X1175240Y1157510D01*
X1175080Y1157880D01*
X1174920Y1158020D01*
G02X1178000Y1164560I2577J2782D01*
G01X1178200Y1164530D01*
X1178580Y1164630D01*
X1180020Y1165720D01*
X1180220Y1166050D01*
X1180250Y1166250D01*
G02X1187780Y1166000I3751J-547D01*
G01X1187790Y1165800D01*
X1187980Y1165440D01*
X1189400Y1164260D01*
X1189790Y1164150D01*
X1189990Y1164170D01*
G02X1186620Y1160100I409J-3769D01*
G01X1186610Y1160300D01*
X1186420Y1160660D01*
X1185000Y1161840D01*
X1184610Y1161950D01*
X1184410Y1161930D01*
G02X1183500Y1161940I-414J3769D01*
G01X1183300Y1161970D01*
X1182920Y1161870D01*
X1181480Y1160780D01*
X1181280Y1160450D01*
X1181250Y1160250D01*
G02X1180140Y1158080I-3750J549D01*
G01X1179990Y1157940D01*
X1179840Y1157560D01*
X1179860Y1155690D01*
X1180020Y1155320D01*
G37*
G36*
G01X1383940Y1173280D02*
X1384160Y1173250D01*
G02X1379900Y1170330I-561J-3749D01*
G01X1379950Y1170540D01*
X1379870Y1170940D01*
X1378800Y1172510D01*
X1378460Y1172720D01*
X1378240Y1172750D01*
G02X1376140Y1179200I560J3749D01*
G01X1376280Y1179340D01*
X1376430Y1179660D01*
X1376540Y1181370D01*
X1376430Y1181710D01*
X1376320Y1181860D01*
G02X1381960Y1181500I2981J2340D01*
G01X1381820Y1181360D01*
X1381670Y1181040D01*
X1381560Y1179330D01*
X1381670Y1178990D01*
X1381780Y1178840D01*
G02X1382500Y1175670I-2979J-2343D01*
G01X1382450Y1175460D01*
X1382530Y1175060D01*
X1383600Y1173490D01*
X1383940Y1173280D01*
G37*
G36*
G01X1397840Y1184030D02*
G02X1392480Y1183480I-2408J-2929D01*
G03X1392190Y1186270I-1561J1248D01*
G02X1397550Y1186820I2408J2929D01*
G03X1397840Y1184030I1561J-1248D01*
G37*
G36*
G01X1320400Y1265950D02*
G02X1315640I-2380J-2950D01*
G03X1316010Y1266720I-631J777D01*
G01Y1268280D01*
G03X1315640Y1269050I-1001J-7D01*
G02Y1274950I2380J2950D01*
G03X1316010Y1275720I-631J777D01*
G01Y1277280D01*
G03X1315640Y1278050I-1001J-7D01*
G02X1320400I2380J2950D01*
G03X1320030Y1277280I631J-777D01*
G01Y1275720D01*
G03X1320400Y1274950I1001J7D01*
G02Y1269050I-2380J-2950D01*
G03X1320030Y1268280I631J-777D01*
G01Y1266720D01*
G03X1320400Y1265950I1001J7D01*
G37*
G36*
G01X1273450Y1063360D02*
G03X1271510Y1061960I-31J-2001D01*
G02X1267950Y1066890I-3613J1142D01*
G03X1269890Y1068290I31J2001D01*
G02X1273450Y1063360I3613J-1142D01*
G37*
G36*
G01X1292570Y1067390D02*
G03X1295090Y1067060I1461J1366D01*
G02X1294330Y1061260I2010J-3213D01*
G03X1291810Y1061590I-1461J-1366D01*
G02X1292570Y1067390I-2010J3213D01*
G37*
G36*
G01X1193990Y1090890D02*
X1194960Y1089610D01*
X1195240Y1089420D01*
X1195410Y1089380D01*
G02X1190710Y1085820I-911J-3680D01*
G01X1190720Y1085990D01*
X1190610Y1086310D01*
X1189640Y1087590D01*
X1189360Y1087780D01*
X1189190Y1087820D01*
G02X1186340Y1090990I907J3682D01*
G01X1186320Y1091170D01*
X1186170Y1091470D01*
X1185000Y1092570D01*
X1184690Y1092710D01*
X1184510Y1092720D01*
G02X1188560Y1097010I293J3781D01*
G01X1188580Y1096830D01*
X1188730Y1096530D01*
X1189900Y1095430D01*
X1190210Y1095290D01*
X1190390Y1095280D01*
G02X1193890Y1091380I-289J-3780D01*
G01X1193880Y1091210D01*
X1193990Y1090890D01*
G37*
G36*
G01X1312060Y1092070D02*
G03X1312130Y1089630I1620J-1175D01*
G02X1306120Y1089480I-2947J-2381D01*
G03X1306050Y1091920I-1620J1175D01*
G02X1312060Y1092070I2947J2381D01*
G37*
G36*
G01X1390150Y1094930D02*
G03X1390540Y1093650I908J-423D01*
G02X1385150Y1091970I-1943J-3252D01*
G03X1384760Y1093250I-908J423D01*
G02X1390150Y1094930I1943J3252D01*
G37*
G36*
G01X1398540Y1139390D02*
G03X1399380Y1138250I987J-152D01*
G02X1395060Y1135110I-578J-3747D01*
G03X1394220Y1136250I-987J152D01*
G02X1398540Y1139390I578J3747D01*
G37*
G36*
G01X1275710Y1207680D02*
G03X1274450Y1207350I-438J-897D01*
G02X1273000Y1212890I-3129J2141D01*
G03X1274260Y1213220I438J897D01*
G02X1275710Y1207680I3129J-2141D01*
G37*
G36*
G01X1389790Y1212310D02*
G03X1387820Y1210690I-6J-2001D01*
G02X1384110Y1215190I-3722J711D01*
G03X1386080Y1216810I6J2001D01*
G02X1389790Y1212310I3722J-711D01*
G37*
G36*
G01X1315140Y1224860D02*
X1315210Y1224250D01*
G03X1315470Y1223680I996J110D01*
G02X1309400Y1222960I-2771J-2582D01*
G03X1309520Y1223570I-872J488D01*
G01X1309450Y1224180D01*
G03X1309190Y1224750I-996J-110D01*
G02X1308570Y1229030I2770J2586D01*
G03X1308660Y1229640I-894J443D01*
G01X1308560Y1230250D01*
G03X1308270Y1230800I-985J-168D01*
G02X1314300Y1231820I2641J2719D01*
G03X1314210Y1231210I894J-443D01*
G01X1314310Y1230600D01*
G03X1314600Y1230050I985J168D01*
G02X1315260Y1225470I-2641J-2718D01*
G03X1315140Y1224860I872J-488D01*
G37*
G54D15*
X1417820Y1115880D03*
Y969820D03*
X1113020Y1115880D03*
Y969820D03*
G54D16*
X1089700Y1188400D03*
Y1163000D03*
G54D13*
X1117000Y1337500D03*
G54D14*
X1434600Y1179800D03*
X1438900Y1189100D03*
X1425100Y1160900D03*
X1445400Y1049400D03*
X1444860Y1061100D03*
X1445200Y1011200D03*
X1444850Y998200D03*
X1415900Y1174300D03*
X1400000Y1203100D03*
X1383000Y1153200D03*
X1417800Y1080600D03*
X1388700Y1079500D03*
X1417800Y1042800D03*
X1417600Y1017500D03*
X1390780Y1036700D03*
Y998200D03*
X1418000Y1004900D03*
X1417800Y1030400D03*
X1390780Y985500D03*
X1373400Y1195500D03*
X1375800Y1061900D03*
Y1049300D03*
Y966300D03*
X1334300Y1167400D03*
X1331500Y1110300D03*
X1293200Y1225000D03*
X1278800Y1225800D03*
X1284270Y1109620D03*
X1252900Y1093300D03*
X1260300Y1049600D03*
X1293700Y914200D03*
X1233000Y1229200D03*
X1223000Y1123920D03*
X1213000Y1134500D03*
X1250580Y1043980D03*
X1234700Y914400D03*
X1209000Y1304000D03*
X1202000Y1274500D03*
X1177500Y1175300D03*
X1203900Y1184900D03*
X1179500Y1142800D03*
X1167600Y1143000D03*
X1137600Y1163000D03*
X1140600Y1087400D03*
X1140200Y1099800D03*
X1140060Y1049100D03*
X1140700Y1062300D03*
X1140060Y1074600D03*
X1140050Y1036700D03*
X1153700Y1008200D03*
X1147600Y970900D03*
X1126100Y978680D03*
X1087300Y1080800D03*
X1087700Y1055500D03*
X1087400Y1067600D03*
X1085980Y998400D03*
Y1011000D03*
X1085900Y1023800D03*
X1085980Y1036500D03*
X1112800Y1030820D03*
X1113300Y1016740D03*
X1115300Y992300D03*
%LPD*%
G75*
G54D10*
X1068570Y947720D03*
Y917560D03*
X1072300Y909500D03*
X1068570Y937720D03*
Y927560D03*
X1068550Y987850D03*
Y957690D03*
Y967690D03*
Y977850D03*
X1067550Y1017990D03*
Y1028150D03*
X1068560Y997880D03*
X1067550Y1007990D03*
X1067650Y1078350D03*
Y1048190D03*
Y1058190D03*
Y1068350D03*
X1067550Y1038150D03*
X1067650Y1098590D03*
Y1108750D03*
Y1088590D03*
Y1118750D03*
X1079570Y1135570D03*
X1069320Y1160240D03*
Y1140080D03*
Y1150080D03*
X1067660Y1128780D03*
X1069320Y1170240D03*
X1069330Y1180270D03*
X1069170Y1200050D03*
Y1190050D03*
X1069150Y1220150D03*
Y1250340D03*
Y1240310D03*
Y1230310D03*
Y1210150D03*
X1068990Y1260130D03*
Y1270130D03*
Y1280280D03*
Y1290280D03*
X1068960Y1320470D03*
Y1310310D03*
X1069000Y1300320D03*
X1068600Y1330800D03*
X1062000Y1351500D03*
X1068800Y1341500D03*
X1114200Y942800D03*
X1092700Y909600D03*
X1105470Y913260D03*
X1100900Y921000D03*
X1108770Y928160D03*
X1098070Y939460D03*
X1081400Y940000D03*
X1117400Y912000D03*
X1115300Y992300D03*
X1088570Y954360D03*
X1084670Y969560D03*
X1109070Y953160D03*
X1098300Y963200D03*
X1100000Y978680D03*
X1113300Y1016740D03*
X1112800Y1030820D03*
X1085980Y1036500D03*
X1085900Y1023800D03*
X1085980Y1011000D03*
Y998400D03*
X1087400Y1067600D03*
X1087700Y1055500D03*
X1087300Y1080800D03*
X1100000Y1107300D03*
X1122800Y1144500D03*
X1112300Y1144100D03*
X1089700Y1142100D03*
X1106200Y1153000D03*
X1116300Y1189000D03*
X1121300Y1178400D03*
X1106800Y1202100D03*
X1088470Y1236170D03*
X1081370Y1217070D03*
X1110400Y1241000D03*
X1102000Y1213100D03*
X1101800Y1248700D03*
X1102700Y1228100D03*
X1113300Y1210300D03*
X1081300Y1266300D03*
X1090870Y1255770D03*
X1100370Y1267670D03*
X1116300Y1257500D03*
X1091470Y1280770D03*
X1083800Y1292300D03*
X1116570Y1290370D03*
X1120900Y1265600D03*
X1101770Y1288070D03*
X1112000Y1307500D03*
X1081000Y1329500D03*
X1113000Y1377000D03*
X1083000Y1346500D03*
X1123000Y1387000D03*
X1100000Y1387500D03*
X1082500Y1387000D03*
X1125600Y932100D03*
X1126100Y978680D03*
X1147600Y970900D03*
X1139500Y975800D03*
X1147300Y981580D03*
X1138500Y967220D03*
X1127100Y956400D03*
X1153700Y1008200D03*
X1140050Y1036700D03*
X1156100Y1018200D03*
X1164800Y1019220D03*
X1140060Y1074600D03*
X1140700Y1062300D03*
X1140060Y1049100D03*
X1166170Y1065970D03*
X1153670Y1076170D03*
X1162300Y1074500D03*
X1156600Y1065900D03*
X1138800Y1120900D03*
X1140200Y1099800D03*
X1140600Y1087400D03*
X1143300Y1112000D03*
X1155070Y1112770D03*
X1127400Y1110000D03*
X1137600Y1163000D03*
X1146000Y1126200D03*
X1136800Y1131800D03*
X1138800Y1138900D03*
X1146100Y1142200D03*
X1126000Y1151400D03*
X1137400Y1154200D03*
X1137800Y1189300D03*
X1138470Y1177270D03*
X1130100Y1206700D03*
X1148000Y1192600D03*
X1125400Y1222600D03*
X1145770Y1229170D03*
X1130170Y1231970D03*
X1127100Y1246900D03*
X1153600Y1217900D03*
X1138830Y1213100D03*
X1145200Y1219520D03*
X1123500Y1274100D03*
X1128000Y1292000D03*
X1132370Y1264770D03*
X1147500Y1282000D03*
X1154400Y1274300D03*
X1151500Y1253200D03*
X1153400Y1296300D03*
X1149000Y1326500D03*
X1128000Y1371500D03*
X1151000Y1351000D03*
X1150000Y1384000D03*
X1195420Y974500D03*
X1176800Y1017900D03*
X1175700Y1009000D03*
X1194900Y1010400D03*
X1200400Y1017600D03*
X1179000Y1061200D03*
X1170400Y1070900D03*
X1184800Y1096500D03*
X1190100Y1091500D03*
X1194500Y1085700D03*
X1185400Y1103400D03*
X1198380Y1118400D03*
X1167600Y1143000D03*
X1190400Y1160400D03*
X1184000Y1165700D03*
X1179500Y1142800D03*
X1177600Y1152400D03*
X1198380Y1127000D03*
X1177500Y1160800D03*
X1203900Y1184900D03*
X1183570Y1189870D03*
X1189600Y1200100D03*
X1190400Y1182700D03*
X1197500Y1193000D03*
X1199800Y1198900D03*
X1196800Y1205200D03*
X1177500Y1175300D03*
X1197000Y1236500D03*
X1194900Y1218100D03*
X1176800Y1231600D03*
X1203600Y1225900D03*
X1202000Y1251000D03*
X1179900Y1219720D03*
X1186470Y1213300D03*
X1204000Y1213000D03*
X1202000Y1274500D03*
X1181500Y1280000D03*
X1209000Y1290000D03*
X1192500Y1258500D03*
X1184000Y1291000D03*
X1168500Y1284000D03*
X1194500Y1273000D03*
X1177000Y1253000D03*
X1209000Y1304000D03*
X1207000Y1317500D03*
X1187000Y1307500D03*
X1184500Y1325000D03*
X1200000Y1328500D03*
X1184500Y1358000D03*
X1203000Y1345500D03*
Y1377000D03*
X1202500Y1386500D03*
X1190000D03*
X1170500D03*
X1234700Y914400D03*
X1239800Y938680D03*
X1238800Y908400D03*
X1226400Y909600D03*
X1223100Y921900D03*
X1243330Y930500D03*
X1252200Y938920D03*
X1217650Y931950D03*
X1226300Y955400D03*
X1217300Y962800D03*
X1233610Y966110D03*
X1214750Y956450D03*
X1227940Y1018600D03*
X1250580Y1043980D03*
X1213000Y1134500D03*
X1240430Y1136790D03*
X1240460Y1146750D03*
X1250380Y1156790D03*
X1240380D03*
X1250460Y1146750D03*
X1250430Y1136790D03*
X1223000Y1123920D03*
X1240460Y1166900D03*
X1250460D03*
X1250450Y1176830D03*
X1240450D03*
X1240440Y1186750D03*
X1250440D03*
X1233000Y1229200D03*
X1245000Y1212500D03*
Y1232000D03*
X1218380Y1214800D03*
X1221700Y1229500D03*
X1218480Y1223300D03*
X1247960Y1263900D03*
X1247950Y1270830D03*
X1247940Y1278250D03*
X1238500Y1289500D03*
X1226500Y1261000D03*
X1217500Y1258500D03*
Y1283000D03*
X1226000Y1290500D03*
X1217000Y1300000D03*
X1233000D03*
X1244500Y1300500D03*
X1214500Y1325000D03*
X1223500D03*
X1232500D03*
X1239500Y1318000D03*
X1249000Y1319500D03*
Y1333500D03*
X1242500Y1326500D03*
X1239500Y1349500D03*
X1225000Y1340000D03*
X1216000Y1364000D03*
X1242000Y1385000D03*
X1226500D03*
X1293700Y914200D03*
X1295300Y931700D03*
X1267700Y930200D03*
X1283600Y930800D03*
X1275600Y923100D03*
X1284800Y923200D03*
X1289800Y1064800D03*
X1273500Y1067150D03*
X1267900Y1063100D03*
X1260300Y1049600D03*
X1258500Y1042000D03*
X1252900Y1093300D03*
X1284270Y1109620D03*
X1286500Y1092200D03*
X1277800Y1093390D03*
X1270430Y1136790D03*
X1260380Y1156790D03*
X1260460Y1146750D03*
X1270460D03*
X1290480Y1146730D03*
X1280480D03*
X1280400Y1156770D03*
X1290400D03*
X1270380Y1156790D03*
X1280450Y1136770D03*
X1290450D03*
X1260430Y1136790D03*
X1260460Y1166900D03*
X1290470Y1166880D03*
X1280470D03*
X1270460Y1166900D03*
X1280470Y1176810D03*
X1290470D03*
X1270450Y1176830D03*
X1260450D03*
X1260440Y1186750D03*
X1270440D03*
X1290460Y1186730D03*
X1280460D03*
X1277390Y1211080D03*
X1271320Y1209490D03*
X1278800Y1225800D03*
X1293200Y1225000D03*
X1265000Y1219500D03*
X1264500Y1232500D03*
X1286500Y1232520D03*
X1272000D03*
X1262460Y1263900D03*
X1262450Y1270830D03*
X1262440Y1278250D03*
X1254960Y1263900D03*
X1254950Y1270830D03*
X1254940Y1278250D03*
X1272500Y1289500D03*
X1283000Y1259000D03*
X1295000Y1337500D03*
X1269500Y1329000D03*
X1269000Y1315500D03*
X1280500D03*
X1268000Y1298500D03*
X1282000Y1339500D03*
X1274000Y1353000D03*
X1277500Y1361500D03*
X1281370Y1387570D03*
X1291370D03*
X1270870D03*
X1330100Y910100D03*
X1311300Y910700D03*
X1338000Y933700D03*
X1300100Y912800D03*
X1298100Y923100D03*
X1297110Y964990D03*
X1320300Y1036800D03*
X1337500Y1010000D03*
X1299800Y1030800D03*
X1297110Y1020290D03*
X1297100Y1063850D03*
X1307900Y1049800D03*
X1308400Y1057900D03*
X1314000Y1063900D03*
X1319800Y1057400D03*
X1325900Y1064000D03*
X1334870Y1060770D03*
X1337300Y1050920D03*
X1328530Y1042500D03*
X1309000Y1094300D03*
X1309180Y1087250D03*
X1299400Y1094800D03*
X1299100Y1086500D03*
X1331500Y1110300D03*
X1334010Y1120200D03*
X1334300Y1167400D03*
X1332420Y1174200D03*
X1332220Y1194400D03*
X1311960Y1227330D03*
X1310910Y1233520D03*
X1314500Y1244500D03*
X1299800Y1232520D03*
X1319000Y1231000D03*
X1312700Y1221100D03*
X1318020Y1281000D03*
Y1272000D03*
Y1263000D03*
X1332500Y1287000D03*
X1312500Y1293500D03*
X1319500Y1310500D03*
X1322600Y1327000D03*
X1300500Y1304000D03*
X1306500Y1323500D03*
X1311000Y1341000D03*
X1309900Y1354400D03*
X1330000Y1369000D03*
X1304500Y1376000D03*
X1327000Y1354500D03*
X1311000Y1386500D03*
X1301370Y1387570D03*
X1328870Y1386570D03*
X1318870D03*
X1356100Y949300D03*
X1363400Y910800D03*
X1380100Y910500D03*
X1352700Y932400D03*
Y915600D03*
X1365400Y933600D03*
X1375800Y966300D03*
X1347800Y980300D03*
X1348000Y1008600D03*
X1353030Y1018700D03*
X1370570Y1018800D03*
X1361600Y1027120D03*
X1342000Y1016200D03*
X1344900Y1074600D03*
X1353000D03*
X1375800Y1049300D03*
Y1061900D03*
X1358400Y1052300D03*
X1358200Y1040600D03*
X1345200Y1042380D03*
X1368200Y1100400D03*
Y1106800D03*
X1368400Y1114900D03*
X1374700Y1108100D03*
X1357100Y1139200D03*
X1368400Y1149400D03*
X1351170Y1145970D03*
X1360100Y1163200D03*
X1378800Y1176500D03*
X1379300Y1184200D03*
X1373400Y1195500D03*
X1350000Y1222500D03*
X1356000Y1239000D03*
X1348500Y1247000D03*
X1379500Y1285000D03*
X1352500Y1286000D03*
X1380500Y1259000D03*
X1363000Y1254000D03*
X1342500Y1254500D03*
X1356700Y1303900D03*
X1371500Y1324000D03*
X1348500Y1324500D03*
X1343000Y1308000D03*
X1364500Y1346000D03*
X1359500Y1371500D03*
X1346400Y1341970D03*
X1350000Y1357500D03*
X1368870Y1386570D03*
X1378870D03*
X1358870D03*
X1338870D03*
X1348870D03*
X1423900Y949100D03*
X1412870Y937170D03*
X1393700Y910400D03*
X1407100Y910100D03*
X1420300Y909900D03*
X1416000Y917700D03*
X1399100Y932000D03*
X1381800Y933200D03*
X1390780Y985500D03*
X1420770Y957970D03*
X1404000Y956100D03*
X1387600Y972700D03*
X1384400Y981600D03*
X1417800Y1030400D03*
X1418000Y1004900D03*
X1390780Y998200D03*
Y1036700D03*
X1417600Y1017500D03*
X1417800Y1042800D03*
X1388700Y1079500D03*
X1417800Y1080600D03*
X1386700Y1096500D03*
X1388600Y1090400D03*
X1398300Y1115400D03*
X1393800Y1109500D03*
X1383000Y1153200D03*
X1394800Y1140000D03*
X1398800Y1134500D03*
X1392300Y1127300D03*
X1413300Y1129300D03*
X1394600Y1189200D03*
X1400000Y1203100D03*
X1383600Y1169500D03*
X1395430Y1181100D03*
X1415900Y1174300D03*
X1424600Y1181900D03*
X1407000Y1203600D03*
X1424600Y1197200D03*
X1384100Y1211400D03*
X1389800Y1216100D03*
X1397000Y1242000D03*
X1415500Y1224000D03*
X1389500Y1226500D03*
X1402300Y1211000D03*
X1400500Y1273000D03*
X1420400Y1271100D03*
X1404400Y1288970D03*
X1392500Y1300500D03*
X1419500Y1334000D03*
X1401400Y1331470D03*
X1383000Y1313000D03*
X1408100Y1309500D03*
X1382500Y1371500D03*
X1384200Y1339400D03*
X1397000Y1357500D03*
X1416000Y1371000D03*
X1398870Y1386570D03*
X1408870D03*
X1418870D03*
X1388870D03*
X1460470Y948830D03*
Y938670D03*
X1459570Y910670D03*
X1460470Y930370D03*
X1434800Y910400D03*
X1449700Y911300D03*
X1460270Y920970D03*
X1460470Y987870D03*
X1447970Y951770D03*
X1446370Y973770D03*
X1460470Y958830D03*
X1460480Y968860D03*
X1460320Y978640D03*
X1434500Y964100D03*
X1433500Y954700D03*
X1430840Y977840D03*
X1444850Y998200D03*
X1445200Y1011200D03*
X1460470Y997870D03*
Y1018030D03*
X1460480Y1028060D03*
X1460470Y1008030D03*
X1444860Y1061100D03*
X1445400Y1049400D03*
X1460900Y1078800D03*
X1461400Y1059500D03*
X1460320Y1037840D03*
X1461000Y1048700D03*
Y1068000D03*
X1459020Y1109230D03*
Y1119230D03*
X1461820Y1098840D03*
X1461200Y1088300D03*
X1425710Y1107490D03*
X1425100Y1160900D03*
X1436200Y1147900D03*
X1458870Y1159210D03*
X1459030Y1129390D03*
Y1139390D03*
Y1149420D03*
X1446600Y1155000D03*
X1448200Y1142500D03*
X1440500Y1163900D03*
X1444100Y1148400D03*
X1432400Y1157000D03*
X1438900Y1189100D03*
X1434600Y1179800D03*
X1459030Y1169370D03*
Y1199530D03*
Y1179370D03*
Y1189530D03*
X1447600Y1171900D03*
X1447400Y1193800D03*
X1450100Y1182900D03*
X1447400Y1204500D03*
X1424900Y1208900D03*
X1425500Y1249000D03*
X1446100Y1249300D03*
X1447300Y1222200D03*
X1458870Y1219350D03*
Y1229350D03*
X1458860Y1239450D03*
Y1249450D03*
X1443200Y1237000D03*
X1459040Y1209560D03*
X1449000Y1271000D03*
X1458860Y1259600D03*
Y1269600D03*
Y1279640D03*
X1458700Y1289420D03*
X1442200Y1286400D03*
X1439200Y1328900D03*
X1458640Y1337010D03*
X1458630Y1316850D03*
X1458640Y1327010D03*
X1458630Y1306850D03*
X1439200Y1300700D03*
X1425400Y1302400D03*
X1458700Y1299420D03*
X1432000Y1358500D03*
X1458640Y1347040D03*
X1458480Y1356830D03*
X1446500Y1371000D03*
X1448870Y1386570D03*
X1458870D03*
X1428870D03*
X1438870D03*
G54D11*
X1113020Y969820D03*
Y1115880D03*
X1417820Y969820D03*
Y1115880D03*
G54D12*
X1089700Y1163000D03*
Y1188400D03*
M02*
