G04 ================== begin FILE IDENTIFICATION RECORD ==================*
G04 Layout Name:  CC2538_CC2592EM_shield.BRD*
G04 Film Name:    paste_top*
G04 File Format:  Gerber RS274X*
G04 File Origin:  Cadence Allegro 16.6-S019*
G04 Origin Date:  Tue Nov 26 15:06:45 2013*
G04 *
G04 Layer:  PIN/FILMMASKTOP*
G04 Layer:  BOARD GEOMETRY/OUTLINE*
G04 *
G04 Offset:    (0.000 0.000)*
G04 Mirror:    No*
G04 Mode:      Positive*
G04 Rotation:  0*
G04 FullContactRelief:  No*
G04 UndefLineWidth:     0.020*
G04 ================== end FILE IDENTIFICATION RECORD ====================*
%FSLAX44Y44*MOMM*%
%IR0*IPPOS*OFA0.00000B0.00000*MIA0B0*SFA1.00000B1.00000*%
%AMMACRO38*
4,1,40,-.5,-.239,
-.5,.239,
-.496131,.280218,
-.485164,.320138,
-.467431,.357547,
-.443471,.391309,
-.414013,.420397,
-.379951,.443928,
-.342321,.461186,
-.302265,.471648,
-.262,.475,
.262,.475,
.303249,.471479,
.343261,.460849,
.380818,.443432,
.414781,.419759,
.444116,.390547,
.467934,.356685,
.485509,.319202,
.496309,.279236,
.5,.239,
.5,-.239,
.496131,-.280218,
.485164,-.320138,
.467431,-.357547,
.443471,-.391309,
.414013,-.420397,
.379951,-.443928,
.342321,-.461186,
.302265,-.471648,
.262,-.475,
-.262,-.475,
-.303249,-.471479,
-.343261,-.460849,
-.380818,-.443432,
-.414781,-.419759,
-.444116,-.390547,
-.467934,-.356685,
-.485509,-.319202,
-.496309,-.279236,
-.5,-.239,
0.0*
%
%ADD38MACRO38*%
%AMMACRO25*
4,1,40,-.239,.5,
.239,.5,
.280218,.496131,
.320138,.485164,
.357547,.467431,
.391309,.443471,
.420397,.414013,
.443928,.379951,
.461186,.342321,
.471648,.302265,
.475,.262,
.475,-.262,
.471479,-.303249,
.460849,-.343261,
.443432,-.380818,
.419759,-.414781,
.390547,-.444116,
.356685,-.467934,
.319202,-.485509,
.279236,-.496309,
.239,-.5,
-.239,-.5,
-.280218,-.496131,
-.320138,-.485164,
-.357547,-.467431,
-.391309,-.443471,
-.420397,-.414013,
-.443928,-.379951,
-.461186,-.342321,
-.471648,-.302265,
-.475,-.262,
-.475,.262,
-.471479,.303249,
-.460849,.343261,
-.443432,.380818,
-.419759,.414781,
-.390547,.444116,
-.356685,.467934,
-.319202,.485509,
-.279236,.496309,
-.239,.5,
0.0*
%
%ADD25MACRO25*%
%ADD32O,1.X.35*%
%ADD29O,.35X1.*%
%AMMACRO23*
4,1,40,.275,.135,
.275,-.135,
.272949,-.158443,
.266859,-.181173,
.256913,-.2025,
.243416,-.221776,
.226776,-.238416,
.2075,-.251913,
.186173,-.261859,
.163443,-.267949,
.14,-.27,
-.14,-.27,
-.163443,-.267949,
-.186173,-.261859,
-.2075,-.251913,
-.226776,-.238416,
-.243416,-.221776,
-.256913,-.2025,
-.266859,-.181173,
-.272949,-.158443,
-.275,-.135,
-.275,.135,
-.272949,.158443,
-.266859,.181173,
-.256913,.2025,
-.243416,.221776,
-.226776,.238416,
-.2075,.251913,
-.186173,.261859,
-.163443,.267949,
-.14,.27,
.14,.27,
.163443,.267949,
.186173,.261859,
.2075,.251913,
.226776,.238416,
.243416,.221776,
.256913,.2025,
.266859,.181173,
.272949,.158443,
.275,.135,
0.0*
%
%ADD23MACRO23*%
%AMMACRO16*
4,1,40,.135,-.275,
-.135,-.275,
-.158443,-.272949,
-.181173,-.266859,
-.2025,-.256913,
-.221776,-.243416,
-.238416,-.226776,
-.251913,-.2075,
-.261859,-.186173,
-.267949,-.163443,
-.27,-.14,
-.27,.14,
-.267949,.163443,
-.261859,.186173,
-.251913,.2075,
-.238416,.226776,
-.221776,.243416,
-.2025,.256913,
-.181173,.266859,
-.158443,.272949,
-.135,.275,
.135,.275,
.158443,.272949,
.181173,.266859,
.2025,.256913,
.221776,.243416,
.238416,.226776,
.251913,.2075,
.261859,.186173,
.267949,.163443,
.27,.14,
.27,-.14,
.267949,-.163443,
.261859,-.186173,
.251913,-.2075,
.238416,-.226776,
.221776,-.243416,
.2025,-.256913,
.181173,-.266859,
.158443,-.272949,
.135,-.275,
0.0*
%
%ADD16MACRO16*%
%ADD33O,.549X1.001*%
%ADD11C,1.801*%
%AMMACRO35*
4,1,6,1.33,-1.565,
1.33,1.565,
-1.33,1.565,
-1.33,.565,
.33,.565,
.33,-1.565,
1.33,-1.565,
0.0*
%
%ADD35MACRO35*%
%ADD31R,2.25X2.25*%
%AMMACRO34*
4,1,6,1.33,1.565,
1.33,-1.565,
-1.33,-1.565,
-1.33,-.565,
.33,-.565,
.33,1.565,
1.33,1.565,
0.0*
%
%ADD34MACRO34*%
%AMMACRO14*
4,1,41,-.8,0.0,
-.8,-.35,
-.794683,-.410777,
-.778892,-.469707,
-.753109,-.525,
-.718116,-.574976,
-.674976,-.618116,
-.625,-.653109,
-.569707,-.678892,
-.510777,-.694683,
-.45,-.7,
.45,-.7,
.510777,-.694683,
.569707,-.678892,
.625,-.653109,
.674976,-.618116,
.718116,-.574976,
.753109,-.525,
.778892,-.469707,
.794683,-.410777,
.8,-.35,
.8,.35,
.794683,.410777,
.778892,.469707,
.753109,.525,
.718116,.574976,
.674976,.618116,
.625,.653109,
.569707,.678892,
.510777,.694683,
.45,.7,
-.45,.7,
-.510777,.694683,
-.569707,.678892,
-.625,.653109,
-.674976,.618116,
-.718116,.574976,
-.753109,.525,
-.778892,.469707,
-.794683,.410777,
-.8,.35,
-.8,0.0,
0.0*
%
%ADD14MACRO14*%
%ADD28R,6.599X6.599*%
%AMMACRO13*
4,1,41,-.725,0.0,
-.725,-.325,
-.720063,-.381436,
-.7054,-.436157,
-.681458,-.4875,
-.648964,-.533906,
-.608906,-.573964,
-.5625,-.606458,
-.511157,-.6304,
-.456436,-.645063,
-.4,-.65,
.4,-.65,
.456436,-.645063,
.511157,-.6304,
.5625,-.606458,
.608906,-.573964,
.648964,-.533906,
.681458,-.4875,
.7054,-.436157,
.720063,-.381436,
.725,-.325,
.725,.325,
.720063,.381436,
.7054,.436157,
.681458,.4875,
.648964,.533906,
.608906,.573964,
.5625,.606458,
.511157,.6304,
.456436,.645063,
.4,.65,
-.4,.65,
-.456436,.645063,
-.511157,.6304,
-.5625,.606458,
-.608906,.573964,
-.648964,.533906,
-.681458,.4875,
-.7054,.436157,
-.720063,.381436,
-.725,.325,
-.725,0.0,
0.0*
%
%ADD13MACRO13*%
%AMMACRO36*
4,1,45,-1.725,0.0,
-1.725,-.262,
-1.721099,-.30759,
-1.70934,-.35181,
-1.690082,-.393317,
-1.663908,-.430849,
-1.631615,-.463265,
-1.594183,-.489582,
-1.55275,-.508998,
-1.508575,-.520925,
-1.463,-.525,
-1.462,-.525,
1.462,-.525,
1.50759,-.521099,
1.55181,-.50934,
1.593317,-.490082,
1.630849,-.463908,
1.663265,-.431615,
1.689582,-.394183,
1.708998,-.35275,
1.720925,-.308575,
1.725,-.263,
1.725,-.262,
1.725,.262,
1.721099,.30759,
1.70934,.35181,
1.690082,.393317,
1.663908,.430849,
1.631615,.463265,
1.594183,.489582,
1.55275,.508998,
1.508575,.520925,
1.463,.525,
1.462,.525,
-1.462,.525,
-1.50759,.521099,
-1.55181,.50934,
-1.593317,.490082,
-1.630849,.463908,
-1.663265,.431615,
-1.689582,.394183,
-1.708998,.35275,
-1.720925,.308575,
-1.725,.263,
-1.725,.262,
-1.725,0.0,
0.0*
%
%ADD36MACRO36*%
%AMMACRO15*
4,1,41,0.0,-.675,
.1,-.675,
.117365,-.673481,
.134202,-.668969,
.15,-.661603,
.164279,-.651604,
.176604,-.639279,
.186603,-.625,
.193969,-.609202,
.198481,-.592365,
.2,-.575,
.2,.575,
.198481,.592365,
.193969,.609202,
.186603,.625,
.176604,.639279,
.164279,.651604,
.15,.661603,
.134202,.668969,
.117365,.673481,
.1,.675,
-.1,.675,
-.117365,.673481,
-.134202,.668969,
-.15,.661603,
-.164279,.651604,
-.176604,.639279,
-.186603,.625,
-.193969,.609202,
-.198481,.592365,
-.2,.575,
-.2,-.575,
-.198481,-.592365,
-.193969,-.609202,
-.186603,-.625,
-.176604,-.639279,
-.164279,-.651604,
-.15,-.661603,
-.134202,-.668969,
-.117365,-.673481,
-.1,-.675,
0.0,-.675,
0.0*
%
%ADD15MACRO15*%
%AMMACRO24*
4,1,40,.5,.239,
.5,-.239,
.496131,-.280218,
.485164,-.320138,
.467431,-.357547,
.443471,-.391309,
.414013,-.420397,
.379951,-.443928,
.342321,-.461186,
.302265,-.471648,
.262,-.475,
-.262,-.475,
-.303249,-.471479,
-.343261,-.460849,
-.380818,-.443432,
-.414781,-.419759,
-.444116,-.390547,
-.467934,-.356685,
-.485509,-.319202,
-.496309,-.279236,
-.5,-.239,
-.5,.239,
-.496131,.280218,
-.485164,.320138,
-.467431,.357547,
-.443471,.391309,
-.414013,.420397,
-.379951,.443928,
-.342321,.461186,
-.302265,.471648,
-.262,.475,
.262,.475,
.303249,.471479,
.343261,.460849,
.380818,.443432,
.414781,.419759,
.444116,.390547,
.467934,.356685,
.485509,.319202,
.496309,.279236,
.5,.239,
0.0*
%
%ADD24MACRO24*%
%AMMACRO12*
4,1,41,-.95,0.0,
-.95,-.494,
-.943025,-.573223,
-.922399,-.650032,
-.888749,-.722092,
-.843097,-.787213,
-.78683,-.843418,
-.721658,-.888999,
-.649562,-.92257,
-.572731,-.943112,
-.494,-.95,
.494,-.95,
.573223,-.943025,
.650032,-.922399,
.722092,-.888749,
.787213,-.843097,
.843418,-.78683,
.888999,-.721658,
.92257,-.649562,
.943112,-.572731,
.95,-.494,
.95,.494,
.943025,.573223,
.922399,.650032,
.888749,.722092,
.843097,.787213,
.78683,.843418,
.721658,.888999,
.649562,.92257,
.572731,.943112,
.494,.95,
-.494,.95,
-.573223,.943025,
-.650032,.922399,
-.722092,.888749,
-.787213,.843097,
-.843418,.78683,
-.888999,.721658,
-.92257,.649562,
-.943112,.572731,
-.95,.494,
-.95,0.0,
0.0*
%
%ADD12MACRO12*%
%AMMACRO18*
4,1,40,-.275,-.135,
-.275,.135,
-.272949,.158443,
-.266859,.181173,
-.256913,.2025,
-.243416,.221776,
-.226776,.238416,
-.2075,.251913,
-.186173,.261859,
-.163443,.267949,
-.14,.27,
.14,.27,
.163443,.267949,
.186173,.261859,
.2075,.251913,
.226776,.238416,
.243416,.221776,
.256913,.2025,
.266859,.181173,
.272949,.158443,
.275,.135,
.275,-.135,
.272949,-.158443,
.266859,-.181173,
.256913,-.2025,
.243416,-.221776,
.226776,-.238416,
.2075,-.251913,
.186173,-.261859,
.163443,-.267949,
.14,-.27,
-.14,-.27,
-.163443,-.267949,
-.186173,-.261859,
-.2075,-.251913,
-.226776,-.238416,
-.243416,-.221776,
-.256913,-.2025,
-.266859,-.181173,
-.272949,-.158443,
-.275,-.135,
0.0*
%
%ADD18MACRO18*%
%AMMACRO17*
4,1,40,-.135,.275,
.135,.275,
.158443,.272949,
.181173,.266859,
.2025,.256913,
.221776,.243416,
.238416,.226776,
.251913,.2075,
.261859,.186173,
.267949,.163443,
.27,.14,
.27,-.14,
.267949,-.163443,
.261859,-.186173,
.251913,-.2075,
.238416,-.226776,
.221776,-.243416,
.2025,-.256913,
.181173,-.266859,
.158443,-.272949,
.135,-.275,
-.135,-.275,
-.158443,-.272949,
-.181173,-.266859,
-.2025,-.256913,
-.221776,-.243416,
-.238416,-.226776,
-.251913,-.2075,
-.261859,-.186173,
-.267949,-.163443,
-.27,-.14,
-.27,.14,
-.267949,.163443,
-.261859,.186173,
-.251913,.2075,
-.238416,.226776,
-.221776,.243416,
-.2025,.256913,
-.181173,.266859,
-.158443,.272949,
-.135,.275,
0.0*
%
%ADD17MACRO17*%
%AMMACRO37*
4,1,41,0.0,.475,
-.231,.475,
-.264581,.471988,
-.297129,.46319,
-.327655,.448875,
-.355231,.429476,
-.37902,.405583,
-.398298,.377922,
-.41248,.347334,
-.421135,.314748,
-.424,.282,
-.424,-.282,
-.420988,-.315581,
-.41219,-.348129,
-.397875,-.378655,
-.378476,-.406231,
-.354583,-.43002,
-.326922,-.449298,
-.296334,-.46348,
-.263748,-.472135,
-.231,-.475,
.231,-.475,
.264581,-.471988,
.297129,-.46319,
.327655,-.448875,
.355231,-.429476,
.37902,-.405583,
.398298,-.377922,
.41248,-.347334,
.421135,-.314748,
.424,-.282,
.424,.282,
.420988,.315581,
.41219,.348129,
.397875,.378655,
.378476,.406231,
.354583,.43002,
.326922,.449298,
.296334,.46348,
.263748,.472135,
.231,.475,
0.0,.475,
0.0*
%
%ADD37MACRO37*%
%ADD27O,.851X.3*%
%ADD26O,.3X.851*%
%AMMACRO20*
4,1,6,-1.33,1.565,
-1.33,-1.565,
1.33,-1.565,
1.33,-.565,
-.33,-.565,
-.33,1.565,
-1.33,1.565,
0.0*
%
%ADD20MACRO20*%
%AMMACRO22*
4,1,6,-1.33,-1.565,
-1.33,1.565,
1.33,1.565,
1.33,.565,
-.33,.565,
-.33,-1.565,
-1.33,-1.565,
0.0*
%
%ADD22MACRO22*%
%AMMACRO10*
4,1,41,0.0,-1.,
.519,-1.,
.602564,-.992645,
.683582,-.970892,
.759592,-.9354,
.828283,-.887248,
.88757,-.8279,
.93565,-.759158,
.971063,-.683112,
.992732,-.602072,
1.,-.519,
1.,.519,
.992645,.602564,
.970892,.683582,
.9354,.759592,
.887248,.828283,
.8279,.88757,
.759158,.93565,
.683112,.971063,
.602072,.992732,
.519,1.,
-.519,1.,
-.602564,.992645,
-.683582,.970892,
-.759592,.9354,
-.828283,.887248,
-.88757,.8279,
-.93565,.759158,
-.971063,.683112,
-.992732,.602072,
-1.,.519,
-1.,-.519,
-.992645,-.602564,
-.970892,-.683582,
-.9354,-.759592,
-.887248,-.828283,
-.8279,-.88757,
-.759158,-.93565,
-.683112,-.971063,
-.602072,-.992732,
-.519,-1.,
0.0,-1.,
0.0*
%
%ADD10MACRO10*%
%AMMACRO30*
4,1,41,1.9,0.0,
1.9,.25,
1.896202,.293412,
1.884923,.335505,
1.866506,.375,
1.841511,.410697,
1.810697,.441511,
1.775,.466506,
1.735505,.484923,
1.693412,.496202,
1.65,.5,
-1.65,.5,
-1.693412,.496202,
-1.735505,.484923,
-1.775,.466506,
-1.810697,.441511,
-1.841511,.410697,
-1.866506,.375,
-1.884923,.335505,
-1.896202,.293412,
-1.9,.25,
-1.9,-.25,
-1.896202,-.293412,
-1.884923,-.335505,
-1.866506,-.375,
-1.841511,-.410697,
-1.810697,-.441511,
-1.775,-.466506,
-1.735505,-.484923,
-1.693412,-.496202,
-1.65,-.5,
1.65,-.5,
1.693412,-.496202,
1.735505,-.484923,
1.775,-.466506,
1.810697,-.441511,
1.841511,-.410697,
1.866506,-.375,
1.884923,-.335505,
1.896202,-.293412,
1.9,-.25,
1.9,0.0,
0.0*
%
%ADD30MACRO30*%
%AMMACRO19*
4,1,41,0.0,.701,
-.175,.701,
-.205441,.698278,
-.234948,.690312,
-.262622,.677343,
-.287624,.659765,
-.309194,.638113,
-.326677,.613044,
-.33954,.58532,
-.347394,.555784,
-.35,.526,
-.35,-.526,
-.347278,-.556441,
-.339312,-.585948,
-.326343,-.613622,
-.308765,-.638624,
-.287113,-.660194,
-.262044,-.677677,
-.23432,-.69054,
-.204784,-.698394,
-.175,-.701,
.175,-.701,
.205441,-.698278,
.234948,-.690312,
.262622,-.677343,
.287624,-.659765,
.309194,-.638113,
.326677,-.613044,
.33954,-.58532,
.347394,-.555784,
.35,-.526,
.35,.526,
.347278,.556441,
.339312,.585948,
.326343,.613622,
.308765,.638624,
.287113,.660194,
.262044,.677677,
.23432,.69054,
.204784,.698394,
.175,.701,
0.0,.701,
0.0*
%
%ADD19MACRO19*%
%AMMACRO21*
4,1,41,0.0,-1.9,
.25,-1.9,
.293412,-1.896202,
.335505,-1.884923,
.375,-1.866506,
.410697,-1.841511,
.441511,-1.810697,
.466506,-1.775,
.484923,-1.735505,
.496202,-1.693412,
.5,-1.65,
.5,1.65,
.496202,1.693412,
.484923,1.735505,
.466506,1.775,
.441511,1.810697,
.410697,1.841511,
.375,1.866506,
.335505,1.884923,
.293412,1.896202,
.25,1.9,
-.25,1.9,
-.293412,1.896202,
-.335505,1.884923,
-.375,1.866506,
-.410697,1.841511,
-.441511,1.810697,
-.466506,1.775,
-.484923,1.735505,
-.496202,1.693412,
-.5,1.65,
-.5,-1.65,
-.496202,-1.693412,
-.484923,-1.735505,
-.466506,-1.775,
-.441511,-1.810697,
-.410697,-1.841511,
-.375,-1.866506,
-.335505,-1.884923,
-.293412,-1.896202,
-.25,-1.9,
0.0,-1.9,
0.0*
%
%ADD21MACRO21*%
%ADD39C,.02*%
G75*
%LPD*%
G75*
G54D10*
X1089000Y1309500D03*
Y1365500D03*
X1145000Y1309500D03*
Y1365500D03*
G54D20*
X1174800Y1250650D03*
G54D11*
X1117000Y1337500D03*
G54D21*
X1166500Y1307300D03*
X1291600D03*
G54D30*
X1229100Y1240000D03*
Y1374600D03*
G54D12*
X1158870Y931950D03*
X1182870D03*
G54D22*
X1174800Y1363950D03*
G54D13*
X1136620Y931950D03*
X1205120D03*
G54D31*
X1255250Y1271000D03*
G54D14*
X1138870Y956450D03*
X1202870D03*
G54D23*
X1204000Y1205400D03*
X1212000D03*
X1249500Y1309500D03*
X1241500D03*
X1250500Y1359500D03*
X1293000Y1281500D03*
X1285000D03*
X1266500Y1351500D03*
X1258500D03*
Y1359500D03*
X1326000Y1120200D03*
X1318000D03*
X1325900Y1174200D03*
X1317900D03*
X1325700Y1194800D03*
X1317700D03*
X1334000Y1256000D03*
X1326000D03*
G54D32*
X1236750Y1261250D03*
Y1267750D03*
Y1274250D03*
Y1280750D03*
X1273750D03*
Y1274250D03*
Y1267750D03*
Y1261250D03*
G54D24*
X1252100Y930400D03*
Y914400D03*
X1337300Y1026400D03*
Y1042400D03*
X1361800Y1018600D03*
Y1002600D03*
X1368300Y1123300D03*
Y1139300D03*
G54D15*
X1164400Y958700D03*
X1157900D03*
X1183900D03*
X1177400D03*
X1170900D03*
G54D33*
X1266100Y914200D03*
X1275600D03*
X1285100D03*
Y941200D03*
X1266100D03*
G54D34*
X1283300Y1250650D03*
G54D16*
X1147500Y988100D03*
X1156200D03*
X1164700D03*
X1147500Y996100D03*
X1156200D03*
X1164700D03*
X1217500Y1266500D03*
Y1274500D03*
X1277800Y1101300D03*
Y1109300D03*
G54D25*
X1250100Y954600D03*
X1266100D03*
X1308500Y1026400D03*
X1324500D03*
G54D26*
X1232890Y1122210D03*
X1237890D03*
X1242900D03*
X1247900D03*
Y1201200D03*
X1242900D03*
X1237890D03*
X1232890D03*
X1252880Y1122210D03*
X1257880D03*
X1262890D03*
X1267890D03*
X1272890D03*
X1277900D03*
X1282900D03*
X1287880D03*
X1292890D03*
Y1201200D03*
X1287880D03*
X1282900D03*
X1277900D03*
X1272890D03*
X1267890D03*
X1262890D03*
X1257880D03*
X1252880D03*
X1297890Y1122210D03*
Y1201200D03*
G54D17*
X1164800Y1012700D03*
Y1004700D03*
X1159000Y1161000D03*
Y1153000D03*
X1145300Y1205000D03*
X1158200Y1183400D03*
Y1175400D03*
X1145300Y1213000D03*
X1173300Y988100D03*
Y996100D03*
X1168000Y1161000D03*
Y1153000D03*
X1180000Y1205200D03*
X1167000Y1183300D03*
Y1175300D03*
X1180000Y1213200D03*
X1209000Y1282500D03*
Y1274500D03*
X1226000Y1282500D03*
Y1274500D03*
X1214500Y1317500D03*
Y1309500D03*
X1232500Y1317500D03*
Y1309500D03*
X1223500Y1317500D03*
Y1309500D03*
X1286500Y1226000D03*
Y1218000D03*
X1272100Y1226000D03*
Y1218000D03*
X1258500Y1317500D03*
Y1309500D03*
Y1335500D03*
Y1343500D03*
Y1367500D03*
Y1359500D03*
X1299900Y1226000D03*
Y1218000D03*
X1348000Y1239000D03*
Y1231000D03*
X1401900Y1189100D03*
Y1181100D03*
G54D35*
X1283300Y1363950D03*
G54D27*
X1225880Y1164190D03*
Y1159190D03*
Y1154210D03*
Y1149210D03*
Y1144200D03*
Y1139200D03*
Y1134200D03*
Y1129190D03*
Y1194190D03*
Y1189190D03*
Y1184210D03*
Y1179210D03*
Y1174200D03*
Y1169200D03*
X1304900Y1129190D03*
Y1134200D03*
Y1139200D03*
Y1144200D03*
Y1149210D03*
Y1154210D03*
Y1159190D03*
Y1164190D03*
Y1169200D03*
Y1174200D03*
Y1179210D03*
Y1184210D03*
Y1189190D03*
Y1194190D03*
G54D18*
X1148700Y1087400D03*
X1156700D03*
X1148800Y1099800D03*
X1156800D03*
X1180400Y974200D03*
X1188400D03*
X1205000Y1118500D03*
Y1127000D03*
X1205200Y1194100D03*
X1213000Y1118500D03*
Y1127000D03*
X1213200Y1194100D03*
X1251500Y1227000D03*
X1224900Y1223400D03*
X1232900D03*
X1224900Y1214800D03*
X1232900D03*
X1250500Y1300500D03*
Y1326500D03*
Y1386500D03*
X1259500Y1227000D03*
X1258500Y1300500D03*
Y1326500D03*
Y1386500D03*
X1317700Y1203300D03*
X1325700D03*
X1303500Y1272000D03*
X1311500D03*
X1303500Y1263000D03*
X1311500D03*
X1303500Y1281000D03*
X1311500D03*
G54D36*
X1326800Y921200D03*
Y946600D03*
X1381300Y921200D03*
Y946600D03*
G54D19*
X1155200Y1205000D03*
X1170200D03*
G54D37*
X1338000Y1231000D03*
Y1245500D03*
X1326490Y1231000D03*
Y1245500D03*
G54D28*
X1265400Y1161700D03*
G54D29*
X1245500Y1252500D03*
Y1289500D03*
X1265000Y1252500D03*
X1258500D03*
X1252000D03*
Y1289500D03*
X1258500D03*
X1265000D03*
G54D38*
X1361900Y971500D03*
Y987500D03*
G54D39*
G01X1054000Y900000D02*
X1127500D01*
Y917500D01*
X1214500D01*
Y900000D01*
X1470000D01*
Y1467500D01*
X1054000D01*
Y900000D01*
M02*
