%TF.GenerationSoftware,KiCad,Pcbnew,no-vcs-found-2c23c4c~60~ubuntu14.04.1*%
%TF.CreationDate,2017-10-20T13:03:47+02:00*%
%TF.ProjectId,RCCAR_IF_Board_GPS,52434341525F49465F426F6172645F47,rev?*%
%TF.SameCoordinates,Original*%
%TF.FileFunction,Soldermask,Bot*%
%TF.FilePolarity,Negative*%
%FSLAX46Y46*%
G04 Gerber Fmt 4.6, Leading zero omitted, Abs format (unit mm)*
G04 Created by KiCad (PCBNEW no-vcs-found-2c23c4c~60~ubuntu14.04.1) date Fri Oct 20 13:03:47 2017*
%MOMM*%
%LPD*%
G01*
G04 APERTURE LIST*
%ADD10C,6.101600*%
%ADD11R,1.300480X1.800860*%
%ADD12O,1.300480X1.800860*%
%ADD13R,1.828800X2.133600*%
%ADD14O,1.828800X2.133600*%
%ADD15R,0.601600X1.001600*%
%ADD16C,2.601600*%
%ADD17R,0.851600X0.901600*%
%ADD18R,0.701600X0.501600*%
%ADD19C,1.000760*%
%ADD20R,1.101600X0.901600*%
%ADD21R,0.801600X1.601600*%
%ADD22C,1.001600*%
%ADD23R,0.901600X1.101600*%
%ADD24R,1.601600X0.801600*%
%ADD25R,2.101600X0.901600*%
G04 APERTURE END LIST*
D10*
%TO.C,1PIN*%
X170500000Y-76000000D03*
%TD*%
%TO.C,1PIN*%
X106500000Y-82000000D03*
%TD*%
%TO.C,1PIN*%
X106500000Y-117000000D03*
%TD*%
%TO.C,1PIN*%
X170500000Y-123000000D03*
%TD*%
D11*
%TO.C,P1*%
X104932480Y-74295000D03*
D12*
X108935520Y-74295000D03*
X106934000Y-74295000D03*
X110934500Y-74295000D03*
%TD*%
D11*
%TO.C,P3*%
X142527020Y-124841000D03*
D12*
X138523980Y-124841000D03*
X140525500Y-124841000D03*
X136525000Y-124841000D03*
%TD*%
D11*
%TO.C,P4*%
X132034280Y-124841000D03*
D12*
X128031240Y-124841000D03*
X130032760Y-124841000D03*
X126032260Y-124841000D03*
%TD*%
%TO.C,P5*%
X127508000Y-74295000D03*
X125509020Y-74295000D03*
X123507500Y-74295000D03*
D11*
X115501420Y-74295000D03*
D12*
X119504460Y-74295000D03*
X117502940Y-74295000D03*
X121503440Y-74295000D03*
X129506980Y-74295000D03*
%TD*%
D11*
%TO.C,P6*%
X146994940Y-74295000D03*
D12*
X150997980Y-74295000D03*
X148996460Y-74295000D03*
X152996960Y-74295000D03*
X154998480Y-74295000D03*
X157000000Y-74295000D03*
%TD*%
D11*
%TO.C,P7*%
X157038040Y-124841000D03*
D12*
X153035000Y-124841000D03*
X155036520Y-124841000D03*
X151036020Y-124841000D03*
X149034500Y-124841000D03*
X147032980Y-124841000D03*
%TD*%
D11*
%TO.C,P8*%
X121493280Y-124841000D03*
D12*
X117490240Y-124841000D03*
X119491760Y-124841000D03*
X115491260Y-124841000D03*
%TD*%
D11*
%TO.C,P9*%
X110952280Y-124841000D03*
D12*
X106949240Y-124841000D03*
X108950760Y-124841000D03*
X104950260Y-124841000D03*
%TD*%
D13*
%TO.C,P11*%
X108984000Y-97409000D03*
D14*
X106444000Y-97409000D03*
X103904000Y-97409000D03*
%TD*%
D13*
%TO.C,P12*%
X108984000Y-94234000D03*
D14*
X106444000Y-94234000D03*
X103904000Y-94234000D03*
%TD*%
D13*
%TO.C,P14*%
X108984000Y-91059000D03*
D14*
X106444000Y-91059000D03*
X103904000Y-91059000D03*
%TD*%
D15*
%TO.C,R20*%
X170549000Y-114046000D03*
X169049000Y-114046000D03*
%TD*%
D16*
%TO.C,J1*%
X179197000Y-80264000D03*
X176657000Y-77724000D03*
X176657000Y-82804000D03*
X181737000Y-82804000D03*
X181737000Y-77724000D03*
%TD*%
%TO.C,J2*%
X179197000Y-97790000D03*
X176657000Y-95250000D03*
X176657000Y-100330000D03*
X181737000Y-100330000D03*
X181737000Y-95250000D03*
%TD*%
D17*
%TO.C,C75*%
X171958000Y-112788000D03*
X171958000Y-114288000D03*
%TD*%
D16*
%TO.C,J3*%
X179197000Y-116078000D03*
X176657000Y-113538000D03*
X176657000Y-118618000D03*
X181737000Y-118618000D03*
X181737000Y-113538000D03*
%TD*%
D18*
%TO.C,L18*%
X171958000Y-116089000D03*
X171958000Y-115189000D03*
%TD*%
D19*
%TO.C,P2*%
X140499740Y-77177900D03*
X136100460Y-77177900D03*
%TD*%
%TO.C,P13*%
X107012740Y-108498640D03*
X107012740Y-104099360D03*
%TD*%
D14*
%TO.C,P15*%
X103904000Y-87884000D03*
X106444000Y-87884000D03*
D13*
X108984000Y-87884000D03*
%TD*%
D20*
%TO.C,U9*%
X133510000Y-75705000D03*
X140810000Y-75705000D03*
X140810000Y-73505000D03*
X133510000Y-73505000D03*
D21*
X139410000Y-76355000D03*
X137910000Y-76355000D03*
X134910000Y-76355000D03*
D22*
X138660000Y-74605000D03*
X135660000Y-74605000D03*
%TD*%
%TO.C,U10*%
X148407000Y-115848000D03*
X148407000Y-118848000D03*
%TD*%
D23*
%TO.C,U11*%
X105748000Y-111195000D03*
X105748000Y-103895000D03*
X103548000Y-103895000D03*
X103548000Y-111195000D03*
D24*
X106398000Y-105295000D03*
X106398000Y-106795000D03*
X106398000Y-109795000D03*
D22*
X104648000Y-106045000D03*
X104648000Y-109045000D03*
%TD*%
D25*
%TO.C,U13*%
X157700000Y-106800000D03*
X157700000Y-107900000D03*
X157700000Y-109000000D03*
X157700000Y-110100000D03*
X157700000Y-111200000D03*
X157700000Y-112300000D03*
X157700000Y-113400000D03*
X157700000Y-116400000D03*
X157700000Y-117500000D03*
X157700000Y-118600000D03*
X157700000Y-119700000D03*
X157700000Y-120800000D03*
X145500000Y-120800000D03*
X145500000Y-119700000D03*
X145500000Y-118600000D03*
X145500000Y-117500000D03*
X145500000Y-116400000D03*
X145500000Y-113400000D03*
X145500000Y-112300000D03*
X145500000Y-111200000D03*
X145500000Y-110100000D03*
X145500000Y-109000000D03*
X145500000Y-107900000D03*
X145500000Y-106800000D03*
%TD*%
M02*
