%TF.GenerationSoftware,KiCad,Pcbnew,no-vcs-found-2c23c4c~60~ubuntu14.04.1*%
%TF.CreationDate,2017-10-20T13:03:47+02:00*%
%TF.ProjectId,RCCAR_IF_Board_GPS,52434341525F49465F426F6172645F47,rev?*%
%TF.SameCoordinates,Original*%
%TF.FileFunction,Paste,Bot*%
%TF.FilePolarity,Positive*%
%FSLAX46Y46*%
G04 Gerber Fmt 4.6, Leading zero omitted, Abs format (unit mm)*
G04 Created by KiCad (PCBNEW no-vcs-found-2c23c4c~60~ubuntu14.04.1) date Fri Oct 20 13:03:47 2017*
%MOMM*%
%LPD*%
G01*
G04 APERTURE LIST*
%ADD10R,0.500000X0.900000*%
%ADD11R,0.750000X0.800000*%
%ADD12R,0.600000X0.400000*%
%ADD13R,1.000000X0.800000*%
%ADD14R,0.700000X1.500000*%
%ADD15R,0.800000X1.000000*%
%ADD16R,1.500000X0.700000*%
%ADD17R,2.000000X0.800000*%
G04 APERTURE END LIST*
D10*
%TO.C,R20*%
X170549000Y-114046000D03*
X169049000Y-114046000D03*
%TD*%
D11*
%TO.C,C75*%
X171958000Y-112788000D03*
X171958000Y-114288000D03*
%TD*%
D12*
%TO.C,L18*%
X171958000Y-116089000D03*
X171958000Y-115189000D03*
%TD*%
D13*
%TO.C,U9*%
X133510000Y-75705000D03*
X140810000Y-75705000D03*
X140810000Y-73505000D03*
X133510000Y-73505000D03*
D14*
X139410000Y-76355000D03*
X137910000Y-76355000D03*
X134910000Y-76355000D03*
%TD*%
D15*
%TO.C,U11*%
X105748000Y-111195000D03*
X105748000Y-103895000D03*
X103548000Y-103895000D03*
X103548000Y-111195000D03*
D16*
X106398000Y-105295000D03*
X106398000Y-106795000D03*
X106398000Y-109795000D03*
%TD*%
D17*
%TO.C,U13*%
X157700000Y-106800000D03*
X157700000Y-107900000D03*
X157700000Y-109000000D03*
X157700000Y-110100000D03*
X157700000Y-111200000D03*
X157700000Y-112300000D03*
X157700000Y-113400000D03*
X157700000Y-116400000D03*
X157700000Y-117500000D03*
X157700000Y-118600000D03*
X157700000Y-119700000D03*
X157700000Y-120800000D03*
X145500000Y-120800000D03*
X145500000Y-119700000D03*
X145500000Y-118600000D03*
X145500000Y-117500000D03*
X145500000Y-116400000D03*
X145500000Y-113400000D03*
X145500000Y-112300000D03*
X145500000Y-111200000D03*
X145500000Y-110100000D03*
X145500000Y-109000000D03*
X145500000Y-107900000D03*
X145500000Y-106800000D03*
%TD*%
M02*
