M48
METRIC,TZ
T1C0.300
T2C0.701
T3C0.762
T4C1.016
T5C1.250
T6C1.600
T7C4.000
%
G90
G05
T1
X109.41Y-94.615
X110.109Y-94.615
X111.476Y-77.153
X112.204Y-77.153
X112.585Y-87.124
X112.585Y-87.82
X113.064Y-79.621
X113.093Y-78.994
X115.189Y-99.695
X115.189Y-101.028
X115.697Y-105.918
X116.205Y-106.489
X116.903Y-97.218
X117.03Y-93.091
X117.221Y-81.216
X117.602Y-111.252
X117.983Y-81.216
X118.11Y-104.14
X118.364Y-93.917
X118.872Y-83.439
X118.935Y-87.122
X119.761Y-99.06
X120.206Y-106.299
X121.221Y-77.66
X121.793Y-99.568
X121.793Y-111.697
X122.682Y-89.916
X122.745Y-99.568
X122.745Y-105.283
X123.444Y-89.916
X124.396Y-102.933
X124.968Y-98.234
X125.158Y-112.522
X125.539Y-96.329
X125.92Y-91.885
X126.174Y-97.917
X126.492Y-99.314
X126.555Y-109.918
X126.873Y-85.09
X127.Y-93.154
X127.381Y-121.158
X127.698Y-92.456
X128.841Y-97.917
X130.175Y-84.201
X130.937Y-121.158
X131.166Y-95.161
X131.526Y-94.587
X131.572Y-106.362
X131.889Y-93.98
X132.186Y-105.37
X132.207Y-103.314
X132.524Y-93.091
X132.784Y-105.986
X132.842Y-92.456
X133.032Y-99.822
X133.35Y-107.061
X133.508Y-103.305
X133.54Y-104.775
X133.85Y-77.184
X133.85Y-77.892
X134.239Y-92.075
X134.493Y-98.425
X134.493Y-101.092
X134.683Y-84.582
X134.81Y-88.138
X134.938Y-103.95
X135.001Y-106.362
X135.191Y-97.583
X135.255Y-101.727
X135.763Y-106.807
X135.953Y-89.98
X136.462Y-107.505
X136.525Y-111.442
X136.588Y-92.583
X137.096Y-108.077
X137.16Y-96.647
X137.414Y-101.155
X137.477Y-91.123
X138.049Y-99.504
X138.176Y-92.519
X138.43Y-83.312
X138.493Y-118.364
X138.62Y-100.774
X139.129Y-102.933
X139.763Y-91.44
X139.827Y-120.904
X139.891Y-97.028
X139.954Y-109.283
X140.208Y-104.902
X141.415Y-102.235
X141.605Y-98.933
X142.875Y-104.267
X143.827Y-109.664
X144.78Y-109.728
X145.606Y-92.202
X145.669Y-109.664
X145.796Y-103.188
X146.113Y-88.837
X146.304Y-79.184
X146.304Y-79.883
X146.401Y-109.607
X146.431Y-92.202
X146.924Y-95.824
X147.13Y-99.314
X147.193Y-89.027
X147.193Y-109.41
X147.257Y-87.249
X147.591Y-96.129
X147.955Y-91.885
X147.955Y-109.347
X148.145Y-85.408
X148.209Y-99.06
X148.425Y-95.739
X148.43Y-87.249
X148.59Y-92.202
X148.653Y-109.156
X148.717Y-104.331
X148.78Y-86.614
X149.095Y-95.842
X149.098Y-98.933
X149.415Y-108.902
X149.542Y-90.106
X149.733Y-97.218
X149.796Y-96.202
X150.097Y-84.201
X150.304Y-108.267
X151.042Y-91.666
X151.316Y-87.084
X151.316Y-88.758
X151.32Y-87.884
X151.664Y-91.397
X151.835Y-78.493
X152.146Y-87.058
X152.146Y-87.884
X152.146Y-88.773
X152.273Y-92.075
X152.337Y-83.248
X152.853Y-92.6
X152.971Y-87.884
X152.971Y-88.773
X152.992Y-87.084
X153.543Y-84.455
X153.606Y-83.121
X154.051Y-102.997
X154.051Y-104.14
X154.051Y-105.283
X154.051Y-106.172
X154.178Y-101.854
X154.749Y-83.058
X154.749Y-110.49
X154.991Y-91.465
X155.13Y-99.06
X155.702Y-80.518
X155.749Y-86.567
X155.766Y-85.534
X155.766Y-89.281
X156.019Y-108.14
X156.591Y-98.615
X156.718Y-85.407
X156.718Y-90.742
X156.781Y-84.201
X157.035Y-97.663
X157.042Y-91.736
X157.162Y-103.505
X157.162Y-104.775
X157.29Y-89.281
X157.543Y-100.139
X157.671Y-86.487
X157.734Y-90.297
X157.797Y-83.947
X157.797Y-91.694
X157.861Y-99.187
X157.924Y-85.153
X157.988Y-81.534
X158.178Y-97.853
X158.242Y-89.344
X158.496Y-86.423
X158.623Y-90.551
X159.004Y-98.933
X159.195Y-83.693
X159.195Y-91.694
X159.258Y-85.026
X159.258Y-108.712
X159.512Y-86.36
X159.512Y-89.344
X159.702Y-90.487
X159.829Y-97.472
X159.957Y-110.871
X160.008Y-118.017
X160.147Y-99.314
X160.528Y-96.456
X160.591Y-85.09
X160.655Y-86.423
X160.719Y-117.665
X160.782Y-109.918
X160.845Y-83.502
X161.29Y-99.187
X161.417Y-89.916
X161.481Y-95.694
X161.481Y-117.03
X161.544Y-81.471
X161.544Y-97.79
X161.544Y-109.982
X161.725Y-107.275
X161.734Y-84.01
X161.734Y-105.6
X161.734Y-106.489
X161.798Y-86.233
X161.925Y-94.662
X161.988Y-85.026
X161.988Y-97.091
X162.052Y-83.058
X162.321Y-109.979
X162.56Y-82.423
X162.56Y-98.044
X162.623Y-96.393
X162.623Y-105.6
X162.623Y-106.426
X162.623Y-107.251
X162.687Y-94.09
X162.75Y-95.504
X162.919Y-87.376
X162.919Y-88.626
X162.941Y-84.201
X163.385Y-105.537
X163.385Y-106.426
X163.449Y-107.251
X163.576Y-88.011
X163.639Y-93.535
X163.703Y-95.059
X164.169Y-87.376
X164.169Y-88.626
X164.846Y-95.123
X164.909Y-109.664
X164.973Y-83.058
X165.036Y-81.788
X165.608Y-86.169
X165.608Y-89.662
X165.608Y-93.916
X165.798Y-84.709
X166.116Y-95.123
X166.221Y-109.954
X166.379Y-109.295
X166.433Y-82.74
X166.497Y-103.95
X166.834Y-108.025
X167.069Y-95.186
X167.132Y-84.152
X167.132Y-85.388
X167.259Y-99.123
X167.513Y-92.202
X167.513Y-93.472
X167.831Y-89.599
X167.894Y-90.868
X167.894Y-109.537
X167.957Y-83.185
X167.957Y-85.153
X168.021Y-84.138
X168.021Y-86.233
X168.021Y-95.186
X168.846Y-91.948
X168.846Y-93.218
X168.974Y-81.915
X169.037Y-90.932
X169.164Y-109.855
X169.227Y-79.502
X169.227Y-95.186
X169.672Y-89.599
X169.672Y-93.916
X169.799Y-104.648
X169.926Y-106.045
X169.926Y-107.696
X169.926Y-109.093
X169.989Y-95.123
X170.18Y-86.106
X170.18Y-103.886
X170.307Y-92.265
X170.37Y-73.088
X170.434Y-81.09
X170.498Y-86.995
X170.624Y-75.565
X170.624Y-110.109
X170.751Y-77.343
X170.879Y-91.123
X170.879Y-93.281
X171.069Y-78.232
X171.069Y-83.82
X171.069Y-84.709
X171.132Y-103.441
X171.196Y-89.599
X171.26Y-81.724
X171.323Y-95.123
X171.386Y-74.422
X171.386Y-79.883
X171.45Y-82.486
X171.45Y-96.647
X171.513Y-105.156
X171.513Y-107.632
X171.831Y-77.025
X171.831Y-87.122
X171.894Y-73.343
X171.958Y-92.583
X172.022Y-94.107
X172.085Y-103.759
X172.212Y-95.694
X172.275Y-91.44
X172.403Y-106.426
X172.466Y-75.692
X172.466Y-80.073
X172.466Y-86.487
X172.72Y-82.233
X172.784Y-83.439
X172.784Y-89.599
X173.037Y-96.583
X173.101Y-87.122
X173.228Y-85.026
X173.291Y-93.726
X173.355Y-78.549
X173.355Y-92.519
X173.355Y-103.505
X173.418Y-95.186
X173.609Y-76.772
X173.672Y-91.123
X173.672Y-104.712
X173.863Y-74.486
X173.927Y-83.312
X173.99Y-94.678
X174.053Y-81.216
X174.117Y-89.599
X174.244Y-101.473
X174.244Y-102.743
X174.244Y-103.759
X174.308Y-87.122
X174.434Y-73.025
X174.434Y-92.265
X174.561Y-93.408
X174.625Y-78.168
X174.625Y-79.438
X174.752Y-100.584
X174.815Y-95.059
X175.006Y-76.517
X175.07Y-84.645
X175.07Y-91.44
X175.323Y-87.122
X175.387Y-94.297
X175.641Y-90.742
X175.704Y-85.598
X175.704Y-104.712
X175.768Y-89.662
X175.895Y-74.295
X175.958Y-72.962
X176.085Y-102.171
X176.149Y-93.535
X176.213Y-103.505
X176.276Y-87.122
X176.339Y-75.438
X176.657Y-79.536
X176.657Y-80.753
X176.657Y-90.297
X176.847Y-91.885
X176.975Y-85.407
X177.165Y-89.535
X177.292Y-93.027
X177.355Y-73.596
X177.355Y-90.614
X177.482Y-87.122
X177.482Y-101.917
X177.736Y-75.184
X177.99Y-103.695
X178.054Y-86.614
X178.117Y-84.328
X178.117Y-85.598
X178.181Y-91.885
X178.244Y-93.853
X178.308Y-102.743
X178.562Y-89.662
X178.625Y-76.136
X178.625Y-101.346
X178.684Y-95.25
X178.689Y-73.088
X178.758Y-100.33
X178.771Y-77.724
X178.943Y-93.154
X179.641Y-73.977
X179.768Y-100.33
X179.768Y-102.997
X179.863Y-77.724
X179.895Y-95.25
X179.959Y-91.376
X180.149Y-89.599
X180.149Y-101.917
X180.213Y-93.916
X180.276Y-85.344
X180.276Y-87.503
X180.276Y-88.519
X180.34Y-75.692
X180.34Y-84.455
X180.34Y-86.423
X180.911Y-103.06
X181.229Y-93.218
X181.419Y-84.391
X181.673Y-73.596
X181.673Y-90.805
X181.737Y-97.4
X181.737Y-98.437
X181.8Y-75.629
X181.864Y-79.883
X181.864Y-88.011
X181.927Y-80.645
X181.927Y-89.535
X181.991Y-86.233
X182.372Y-85.026
X182.435Y-102.616
T2
X104.932Y-74.295
X104.95Y-124.841
X106.934Y-74.295
X106.949Y-124.841
X108.936Y-74.295
X108.951Y-124.841
X110.934Y-74.295
X110.952Y-124.841
X115.491Y-124.841
X115.501Y-74.295
X117.49Y-124.841
X117.503Y-74.295
X119.492Y-124.841
X119.504Y-74.295
X121.493Y-124.841
X121.503Y-74.295
X123.507Y-74.295
X125.509Y-74.295
X126.032Y-124.841
X127.508Y-74.295
X128.031Y-124.841
X129.507Y-74.295
X130.033Y-124.841
X132.034Y-124.841
X136.525Y-124.841
X138.524Y-124.841
X140.525Y-124.841
X142.527Y-124.841
X146.995Y-74.295
X147.033Y-124.841
X148.996Y-74.295
X149.034Y-124.841
X150.998Y-74.295
X151.036Y-124.841
X152.997Y-74.295
X153.035Y-124.841
X154.998Y-74.295
X155.037Y-124.841
X157.Y-74.295
X157.038Y-124.841
T3
X174.117Y-106.172
X174.117Y-108.712
X174.117Y-111.252
X174.117Y-113.792
X174.117Y-116.332
X174.117Y-118.872
X174.117Y-121.412
X174.117Y-123.952
X181.737Y-106.172
X181.737Y-108.712
X181.737Y-111.252
X181.737Y-113.792
X181.737Y-116.332
X181.737Y-118.872
X181.737Y-121.412
X181.737Y-123.952
T4
X104.394Y-88.773
X104.394Y-92.075
X104.394Y-97.155
X104.394Y-100.457
X106.934Y-88.773
X106.934Y-92.075
X106.934Y-97.155
X106.934Y-100.457
X109.474Y-88.773
X109.474Y-92.075
X109.474Y-97.155
X109.474Y-100.457
X145.288Y-116.649
X145.288Y-119.189
X147.828Y-116.649
X147.828Y-119.189
T5
X107.188Y-104.775
X107.188Y-109.855
T6
X176.657Y-77.724
X176.657Y-82.804
X176.657Y-95.25
X176.657Y-100.33
X179.197Y-80.264
X179.197Y-97.79
X181.737Y-77.724
X181.737Y-82.804
X181.737Y-95.25
X181.737Y-100.33
T7
X106.5Y-82.
X106.5Y-117.
X166.5Y-76.
X166.5Y-123.
T0
M30
