G04 #@! TF.FileFunction,Soldermask,Top*
%FSLAX46Y46*%
G04 Gerber Fmt 4.6, Leading zero omitted, Abs format (unit mm)*
G04 Created by KiCad (PCBNEW (2015-09-15 BZR 6201)-product) date tor 18 feb 2016 10:56:40*
%MOMM*%
G01*
G04 APERTURE LIST*
%ADD10C,0.100000*%
%ADD11O,0.351600X0.801600*%
%ADD12O,0.801600X0.351600*%
%ADD13R,1.826600X1.826600*%
%ADD14O,0.951600X0.401600*%
%ADD15O,0.401600X0.951600*%
%ADD16C,6.101600*%
%ADD17R,0.851600X0.901600*%
%ADD18R,0.901600X0.851600*%
%ADD19R,0.701600X0.601600*%
%ADD20R,0.601600X0.701600*%
%ADD21R,2.250440X1.902460*%
%ADD22R,0.899160X0.899160*%
%ADD23R,0.701600X0.501600*%
%ADD24R,0.501600X0.701600*%
%ADD25R,0.601600X1.001600*%
%ADD26R,5.397500X2.100580*%
%ADD27R,1.300480X1.800860*%
%ADD28O,1.300480X1.800860*%
%ADD29R,0.601980X2.402840*%
%ADD30R,2.100580X2.600960*%
%ADD31C,1.000760*%
%ADD32R,1.828800X2.133600*%
%ADD33O,1.828800X2.133600*%
%ADD34R,1.828800X1.828800*%
%ADD35O,1.828800X1.828800*%
%ADD36R,1.001600X0.601600*%
%ADD37R,1.925600X1.625600*%
%ADD38O,1.925600X1.625600*%
%ADD39R,1.776600X1.776600*%
%ADD40R,0.901600X0.451600*%
%ADD41R,0.451600X0.901600*%
%ADD42R,1.351600X1.351600*%
%ADD43R,1.551600X0.551600*%
%ADD44O,0.711200X1.574800*%
%ADD45R,3.101340X3.101340*%
%ADD46C,3.101340*%
%ADD47R,1.902460X1.300480*%
%ADD48R,1.300480X1.902460*%
%ADD49C,2.601600*%
G04 APERTURE END LIST*
D10*
D11*
X160838000Y-108813000D03*
X161338000Y-108813000D03*
X161838000Y-108813000D03*
X162338000Y-108813000D03*
X162838000Y-108813000D03*
X163338000Y-108813000D03*
X163838000Y-108813000D03*
X164338000Y-108813000D03*
D12*
X164988000Y-108163000D03*
X164988000Y-107663000D03*
X164988000Y-107163000D03*
X164988000Y-106663000D03*
X164988000Y-106163000D03*
X164988000Y-105663000D03*
X164988000Y-105163000D03*
X164988000Y-104663000D03*
D11*
X164338000Y-104013000D03*
X163838000Y-104013000D03*
X163338000Y-104013000D03*
X162838000Y-104013000D03*
X162338000Y-104013000D03*
X161838000Y-104013000D03*
X161338000Y-104013000D03*
X160838000Y-104013000D03*
D12*
X160188000Y-104663000D03*
X160188000Y-105163000D03*
X160188000Y-105663000D03*
X160188000Y-106163000D03*
X160188000Y-106663000D03*
X160188000Y-107163000D03*
X160188000Y-107663000D03*
X160188000Y-108163000D03*
D13*
X163450500Y-105550500D03*
X161725500Y-105550500D03*
X163450500Y-107275500D03*
X161725500Y-107275500D03*
D14*
X116252000Y-102331000D03*
X116252000Y-102831000D03*
X116252000Y-103331000D03*
X116252000Y-103831000D03*
X116252000Y-104331000D03*
X116252000Y-104831000D03*
D15*
X116952000Y-105531000D03*
X117452000Y-105531000D03*
X117952000Y-105531000D03*
X118452000Y-105531000D03*
X118952000Y-105531000D03*
X119452000Y-105531000D03*
D14*
X120152000Y-104831000D03*
X120152000Y-104331000D03*
X120152000Y-103831000D03*
X120152000Y-103331000D03*
X120152000Y-102831000D03*
X120152000Y-102331000D03*
D15*
X119452000Y-101631000D03*
X118952000Y-101631000D03*
X118452000Y-101631000D03*
X117952000Y-101631000D03*
X117452000Y-101631000D03*
X116952000Y-101631000D03*
D16*
X166500000Y-76000000D03*
X106500000Y-82000000D03*
X106500000Y-117000000D03*
D10*
G36*
X122514992Y-109735180D02*
X121912820Y-109133008D01*
X122550348Y-108495480D01*
X123152520Y-109097652D01*
X122514992Y-109735180D01*
X122514992Y-109735180D01*
G37*
G36*
X123575652Y-108674520D02*
X122973480Y-108072348D01*
X123611008Y-107434820D01*
X124213180Y-108036992D01*
X123575652Y-108674520D01*
X123575652Y-108674520D01*
G37*
G36*
X149867180Y-107355008D02*
X149265008Y-107957180D01*
X148627480Y-107319652D01*
X149229652Y-106717480D01*
X149867180Y-107355008D01*
X149867180Y-107355008D01*
G37*
G36*
X148806520Y-106294348D02*
X148204348Y-106896520D01*
X147566820Y-106258992D01*
X148168992Y-105656820D01*
X148806520Y-106294348D01*
X148806520Y-106294348D01*
G37*
D17*
X141859000Y-90182000D03*
X141859000Y-91682000D03*
D10*
G36*
X128922678Y-112895820D02*
X129524850Y-113497992D01*
X128887322Y-114135520D01*
X128285150Y-113533348D01*
X128922678Y-112895820D01*
X128922678Y-112895820D01*
G37*
G36*
X127862018Y-113956480D02*
X128464190Y-114558652D01*
X127826662Y-115196180D01*
X127224490Y-114594008D01*
X127862018Y-113956480D01*
X127862018Y-113956480D01*
G37*
D18*
X150471000Y-78105000D03*
X148971000Y-78105000D03*
D10*
G36*
X131358008Y-115054820D02*
X131960180Y-115656992D01*
X131322652Y-116294520D01*
X130720480Y-115692348D01*
X131358008Y-115054820D01*
X131358008Y-115054820D01*
G37*
G36*
X130297348Y-116115480D02*
X130899520Y-116717652D01*
X130261992Y-117355180D01*
X129659820Y-116753008D01*
X130297348Y-116115480D01*
X130297348Y-116115480D01*
G37*
G36*
X131531992Y-118625180D02*
X130929820Y-118023008D01*
X131567348Y-117385480D01*
X132169520Y-117987652D01*
X131531992Y-118625180D01*
X131531992Y-118625180D01*
G37*
G36*
X132592652Y-117564520D02*
X131990480Y-116962348D01*
X132628008Y-116324820D01*
X133230180Y-116926992D01*
X132592652Y-117564520D01*
X132592652Y-117564520D01*
G37*
G36*
X132341180Y-113324008D02*
X131739008Y-113926180D01*
X131101480Y-113288652D01*
X131703652Y-112686480D01*
X132341180Y-113324008D01*
X132341180Y-113324008D01*
G37*
G36*
X131280520Y-112263348D02*
X130678348Y-112865520D01*
X130040820Y-112227992D01*
X130642992Y-111625820D01*
X131280520Y-112263348D01*
X131280520Y-112263348D01*
G37*
G36*
X129547180Y-108625008D02*
X128945008Y-109227180D01*
X128307480Y-108589652D01*
X128909652Y-107987480D01*
X129547180Y-108625008D01*
X129547180Y-108625008D01*
G37*
G36*
X128486520Y-107564348D02*
X127884348Y-108166520D01*
X127246820Y-107528992D01*
X127848992Y-106926820D01*
X128486520Y-107564348D01*
X128486520Y-107564348D01*
G37*
G36*
X125770008Y-99687820D02*
X126372180Y-100289992D01*
X125734652Y-100927520D01*
X125132480Y-100325348D01*
X125770008Y-99687820D01*
X125770008Y-99687820D01*
G37*
G36*
X124709348Y-100748480D02*
X125311520Y-101350652D01*
X124673992Y-101988180D01*
X124071820Y-101386008D01*
X124709348Y-100748480D01*
X124709348Y-100748480D01*
G37*
D18*
X140323000Y-90297000D03*
X138823000Y-90297000D03*
D10*
G36*
X141079322Y-115599510D02*
X140477150Y-114997338D01*
X141114678Y-114359810D01*
X141716850Y-114961982D01*
X141079322Y-115599510D01*
X141079322Y-115599510D01*
G37*
G36*
X142139982Y-114538850D02*
X141537810Y-113936678D01*
X142175338Y-113299150D01*
X142777510Y-113901322D01*
X142139982Y-114538850D01*
X142139982Y-114538850D01*
G37*
D19*
X149754500Y-83439000D03*
X150854500Y-83439000D03*
D20*
X151574500Y-93387000D03*
X151574500Y-92287000D03*
X155956000Y-91736000D03*
X155956000Y-90636000D03*
D17*
X151511000Y-96317500D03*
X151511000Y-94817500D03*
D20*
X155511500Y-83079500D03*
X155511500Y-84179500D03*
D17*
X158877000Y-94817500D03*
X158877000Y-96317500D03*
X149860000Y-93460000D03*
X149860000Y-91960000D03*
D18*
X170549000Y-82677000D03*
X169049000Y-82677000D03*
D19*
X170222000Y-84074000D03*
X169122000Y-84074000D03*
X170222000Y-85344000D03*
X169122000Y-85344000D03*
D20*
X167132000Y-87207000D03*
X167132000Y-88307000D03*
X172466000Y-87207000D03*
X172466000Y-88307000D03*
D19*
X177885000Y-88392000D03*
X178985000Y-88392000D03*
D20*
X176530000Y-89450000D03*
X176530000Y-88350000D03*
X160782000Y-111337000D03*
X160782000Y-112437000D03*
X162814000Y-111337000D03*
X162814000Y-112437000D03*
D17*
X164211000Y-112637000D03*
X164211000Y-111137000D03*
X153035000Y-110605000D03*
X153035000Y-109105000D03*
D18*
X155079000Y-113792000D03*
X156579000Y-113792000D03*
D19*
X155152000Y-106426000D03*
X156252000Y-106426000D03*
X167852000Y-108648500D03*
X168952000Y-108648500D03*
X155152000Y-104140000D03*
X156252000Y-104140000D03*
X167852000Y-107442000D03*
X168952000Y-107442000D03*
X156252000Y-105283000D03*
X155152000Y-105283000D03*
X167852000Y-104648000D03*
X168952000Y-104648000D03*
X156252000Y-101854000D03*
X155152000Y-101854000D03*
X156252000Y-102997000D03*
X155152000Y-102997000D03*
D20*
X158877000Y-102785000D03*
X158877000Y-101685000D03*
X160020000Y-100880000D03*
X160020000Y-99780000D03*
D19*
X172424000Y-101473000D03*
X173524000Y-101473000D03*
D20*
X161290000Y-100880000D03*
X161290000Y-99780000D03*
D19*
X168698000Y-101473000D03*
X167598000Y-101473000D03*
X170011000Y-102743000D03*
X171111000Y-102743000D03*
X172424000Y-102743000D03*
X173524000Y-102743000D03*
D20*
X170053000Y-99145000D03*
X170053000Y-100245000D03*
X164973000Y-98764000D03*
X164973000Y-99864000D03*
X162560000Y-98764000D03*
X162560000Y-99864000D03*
D19*
X167598000Y-97790000D03*
X168698000Y-97790000D03*
D20*
X172212000Y-97832000D03*
X172212000Y-96732000D03*
D18*
X112637000Y-86106000D03*
X111137000Y-86106000D03*
X112637000Y-84582000D03*
X111137000Y-84582000D03*
X115709000Y-87757000D03*
X117209000Y-87757000D03*
X117336000Y-82296000D03*
X115836000Y-82296000D03*
D21*
X117627400Y-79502000D03*
X120878600Y-79502000D03*
D18*
X128385000Y-87503000D03*
X126885000Y-87503000D03*
X128385000Y-85852000D03*
X126885000Y-85852000D03*
X131711000Y-89027000D03*
X133211000Y-89027000D03*
X133211000Y-83693000D03*
X131711000Y-83693000D03*
D17*
X115443000Y-93611000D03*
X115443000Y-95111000D03*
X115443000Y-89940000D03*
X115443000Y-91440000D03*
D18*
X118735911Y-110940552D03*
X120235911Y-110940552D03*
X118987000Y-107442000D03*
X117487000Y-107442000D03*
X119138000Y-100076000D03*
X120638000Y-100076000D03*
D17*
X114681000Y-104890000D03*
X114681000Y-103390000D03*
D18*
X114566000Y-107442000D03*
X116066000Y-107442000D03*
D17*
X121793000Y-104025000D03*
X121793000Y-105525000D03*
D21*
X126874400Y-79500000D03*
X130125600Y-79500000D03*
D22*
X124942600Y-93281500D03*
X123444000Y-93281500D03*
X124968000Y-95059500D03*
X123469400Y-95059500D03*
D10*
G36*
X132811761Y-119864477D02*
X132103523Y-119156239D01*
X132528919Y-118730843D01*
X133237157Y-119439081D01*
X132811761Y-119864477D01*
X132811761Y-119864477D01*
G37*
G36*
X133872421Y-118803817D02*
X133164183Y-118095579D01*
X133589579Y-117670183D01*
X134297817Y-118378421D01*
X133872421Y-118803817D01*
X133872421Y-118803817D01*
G37*
D23*
X169164000Y-87318000D03*
X169164000Y-86418000D03*
D24*
X169222000Y-88392000D03*
X170122000Y-88392000D03*
X174302000Y-88265000D03*
X175202000Y-88265000D03*
X167063000Y-102743000D03*
X167963000Y-102743000D03*
X163946000Y-101092000D03*
X164846000Y-101092000D03*
D23*
X168783000Y-99245000D03*
X168783000Y-100145000D03*
D25*
X156591000Y-100203000D03*
X155091000Y-100203000D03*
D23*
X163830000Y-98864000D03*
X163830000Y-99764000D03*
X166243000Y-98864000D03*
X166243000Y-99764000D03*
D24*
X171011000Y-97790000D03*
X170111000Y-97790000D03*
X164396000Y-97536000D03*
X165296000Y-97536000D03*
X174249500Y-97790000D03*
X173349500Y-97790000D03*
D26*
X122936000Y-83469480D03*
X122936000Y-86964520D03*
D23*
X157988000Y-87492000D03*
X157988000Y-88392000D03*
D26*
X138684000Y-84752480D03*
X138684000Y-88247520D03*
D27*
X104932480Y-74295000D03*
D28*
X108935520Y-74295000D03*
X106934000Y-74295000D03*
X110934500Y-74295000D03*
D29*
X139900300Y-79776320D03*
X139100200Y-79776320D03*
X138300100Y-79776320D03*
X137500000Y-79776320D03*
X136699900Y-79776320D03*
D30*
X142750180Y-79677260D03*
X142750180Y-74178160D03*
X133850020Y-79677260D03*
X133850020Y-74178160D03*
D31*
X140499740Y-77177900D03*
X136100460Y-77177900D03*
D27*
X142527020Y-124841000D03*
D28*
X138523980Y-124841000D03*
X140525500Y-124841000D03*
X136525000Y-124841000D03*
D27*
X132034280Y-124841000D03*
D28*
X128031240Y-124841000D03*
X130032760Y-124841000D03*
X126032260Y-124841000D03*
X127508000Y-74295000D03*
X125509020Y-74295000D03*
X123507500Y-74295000D03*
D27*
X115501420Y-74295000D03*
D28*
X119504460Y-74295000D03*
X117502940Y-74295000D03*
X121503440Y-74295000D03*
X129506980Y-74295000D03*
D27*
X146994940Y-74295000D03*
D28*
X150997980Y-74295000D03*
X148996460Y-74295000D03*
X152996960Y-74295000D03*
X154998480Y-74295000D03*
X157000000Y-74295000D03*
D27*
X157038040Y-124841000D03*
D28*
X153035000Y-124841000D03*
X155036520Y-124841000D03*
X151036020Y-124841000D03*
X149034500Y-124841000D03*
X147032980Y-124841000D03*
D27*
X121493280Y-124841000D03*
D28*
X117490240Y-124841000D03*
X119491760Y-124841000D03*
X115491260Y-124841000D03*
D27*
X110952280Y-124841000D03*
D28*
X106949240Y-124841000D03*
X108950760Y-124841000D03*
X104950260Y-124841000D03*
D32*
X109474000Y-100457000D03*
D33*
X106934000Y-100457000D03*
X104394000Y-100457000D03*
D32*
X109474000Y-97155000D03*
D33*
X106934000Y-97155000D03*
X104394000Y-97155000D03*
D32*
X109474000Y-92075000D03*
D33*
X106934000Y-92075000D03*
X104394000Y-92075000D03*
D32*
X109474000Y-88773000D03*
D33*
X106934000Y-88773000D03*
X104394000Y-88773000D03*
D34*
X147828000Y-119189500D03*
D35*
X145288000Y-119189500D03*
X147828000Y-116649500D03*
X145288000Y-116649500D03*
D25*
X122023000Y-93281500D03*
X120523000Y-93281500D03*
X122023000Y-95059500D03*
X120523000Y-95059500D03*
D10*
G36*
X134193147Y-115577909D02*
X133484909Y-116286147D01*
X133059513Y-115860751D01*
X133767751Y-115152513D01*
X134193147Y-115577909D01*
X134193147Y-115577909D01*
G37*
G36*
X133132487Y-114517249D02*
X132424249Y-115225487D01*
X131998853Y-114800091D01*
X132707091Y-114091853D01*
X133132487Y-114517249D01*
X133132487Y-114517249D01*
G37*
D36*
X152082500Y-80149000D03*
X152082500Y-81649000D03*
X153733500Y-81649000D03*
X153733500Y-80149000D03*
D25*
X162040000Y-91694000D03*
X160540000Y-91694000D03*
D36*
X144653000Y-89420000D03*
X144653000Y-90920000D03*
D25*
X164731000Y-91694000D03*
X166231000Y-91694000D03*
D36*
X146304000Y-89420000D03*
X146304000Y-90920000D03*
X147955000Y-89420000D03*
X147955000Y-90920000D03*
D25*
X167842500Y-106045000D03*
X169342500Y-106045000D03*
D24*
X170111000Y-101473000D03*
X171011000Y-101473000D03*
D36*
X112522000Y-82411000D03*
X112522000Y-80911000D03*
X114173000Y-80911000D03*
X114173000Y-82411000D03*
D25*
X105156000Y-94615000D03*
X103656000Y-94615000D03*
X108192000Y-94615000D03*
X106692000Y-94615000D03*
X112534000Y-93472000D03*
X114034000Y-93472000D03*
X112534000Y-89916000D03*
X114034000Y-89916000D03*
X120235911Y-120338552D03*
X118735911Y-120338552D03*
D36*
X123041911Y-116516552D03*
X123041911Y-115016552D03*
X146304000Y-85189000D03*
X146304000Y-83689000D03*
X144653000Y-85177000D03*
X144653000Y-83677000D03*
X143002000Y-85177000D03*
X143002000Y-83677000D03*
D25*
X140081000Y-119253000D03*
X138581000Y-119253000D03*
X142113000Y-120904000D03*
X140613000Y-120904000D03*
D36*
X118364000Y-97524000D03*
X118364000Y-96024000D03*
X120015000Y-98286000D03*
X120015000Y-96786000D03*
X127127000Y-89166000D03*
X127127000Y-90666000D03*
X128905000Y-89166000D03*
X128905000Y-90666000D03*
X128397000Y-84316000D03*
X128397000Y-82816000D03*
X126746000Y-82816000D03*
X126746000Y-84316000D03*
D37*
X181737000Y-123952000D03*
D38*
X174117000Y-123952000D03*
X181737000Y-121412000D03*
X174117000Y-121412000D03*
X181737000Y-118872000D03*
X174117000Y-118872000D03*
X181737000Y-116332000D03*
X174117000Y-116332000D03*
X181737000Y-113792000D03*
X174117000Y-113792000D03*
X181737000Y-111252000D03*
X174117000Y-111252000D03*
X181737000Y-108712000D03*
X174117000Y-108712000D03*
X181737000Y-106172000D03*
X174117000Y-106172000D03*
D10*
G36*
X127111077Y-105088187D02*
X126841245Y-104818355D01*
X127973747Y-103685853D01*
X128243579Y-103955685D01*
X127111077Y-105088187D01*
X127111077Y-105088187D01*
G37*
G36*
X127464630Y-105441740D02*
X127194798Y-105171908D01*
X128327300Y-104039406D01*
X128597132Y-104309238D01*
X127464630Y-105441740D01*
X127464630Y-105441740D01*
G37*
G36*
X127818184Y-105795294D02*
X127548352Y-105525462D01*
X128680854Y-104392960D01*
X128950686Y-104662792D01*
X127818184Y-105795294D01*
X127818184Y-105795294D01*
G37*
G36*
X128171737Y-106148847D02*
X127901905Y-105879015D01*
X129034407Y-104746513D01*
X129304239Y-105016345D01*
X128171737Y-106148847D01*
X128171737Y-106148847D01*
G37*
G36*
X128525290Y-106502400D02*
X128255458Y-106232568D01*
X129387960Y-105100066D01*
X129657792Y-105369898D01*
X128525290Y-106502400D01*
X128525290Y-106502400D01*
G37*
G36*
X128878844Y-106855954D02*
X128609012Y-106586122D01*
X129741514Y-105453620D01*
X130011346Y-105723452D01*
X128878844Y-106855954D01*
X128878844Y-106855954D01*
G37*
G36*
X129232397Y-107209507D02*
X128962565Y-106939675D01*
X130095067Y-105807173D01*
X130364899Y-106077005D01*
X129232397Y-107209507D01*
X129232397Y-107209507D01*
G37*
G36*
X129585950Y-107563061D02*
X129316118Y-107293229D01*
X130448620Y-106160727D01*
X130718452Y-106430559D01*
X129585950Y-107563061D01*
X129585950Y-107563061D01*
G37*
G36*
X129939504Y-107916614D02*
X129669672Y-107646782D01*
X130802174Y-106514280D01*
X131072006Y-106784112D01*
X129939504Y-107916614D01*
X129939504Y-107916614D01*
G37*
G36*
X130293057Y-108270167D02*
X130023225Y-108000335D01*
X131155727Y-106867833D01*
X131425559Y-107137665D01*
X130293057Y-108270167D01*
X130293057Y-108270167D01*
G37*
G36*
X130646611Y-108623721D02*
X130376779Y-108353889D01*
X131509281Y-107221387D01*
X131779113Y-107491219D01*
X130646611Y-108623721D01*
X130646611Y-108623721D01*
G37*
G36*
X131000164Y-108977274D02*
X130730332Y-108707442D01*
X131862834Y-107574940D01*
X132132666Y-107844772D01*
X131000164Y-108977274D01*
X131000164Y-108977274D01*
G37*
G36*
X131353717Y-109330828D02*
X131083885Y-109060996D01*
X132216387Y-107928494D01*
X132486219Y-108198326D01*
X131353717Y-109330828D01*
X131353717Y-109330828D01*
G37*
G36*
X131707271Y-109684381D02*
X131437439Y-109414549D01*
X132569941Y-108282047D01*
X132839773Y-108551879D01*
X131707271Y-109684381D01*
X131707271Y-109684381D01*
G37*
G36*
X132060824Y-110037934D02*
X131790992Y-109768102D01*
X132923494Y-108635600D01*
X133193326Y-108905432D01*
X132060824Y-110037934D01*
X132060824Y-110037934D01*
G37*
G36*
X132414378Y-110391488D02*
X132144546Y-110121656D01*
X133277048Y-108989154D01*
X133546880Y-109258986D01*
X132414378Y-110391488D01*
X132414378Y-110391488D01*
G37*
G36*
X132767931Y-110745041D02*
X132498099Y-110475209D01*
X133630601Y-109342707D01*
X133900433Y-109612539D01*
X132767931Y-110745041D01*
X132767931Y-110745041D01*
G37*
G36*
X133121484Y-111098595D02*
X132851652Y-110828763D01*
X133984154Y-109696261D01*
X134253986Y-109966093D01*
X133121484Y-111098595D01*
X133121484Y-111098595D01*
G37*
G36*
X133475038Y-111452148D02*
X133205206Y-111182316D01*
X134337708Y-110049814D01*
X134607540Y-110319646D01*
X133475038Y-111452148D01*
X133475038Y-111452148D01*
G37*
G36*
X133828591Y-111805701D02*
X133558759Y-111535869D01*
X134691261Y-110403367D01*
X134961093Y-110673199D01*
X133828591Y-111805701D01*
X133828591Y-111805701D01*
G37*
G36*
X134182145Y-112159255D02*
X133912313Y-111889423D01*
X135044815Y-110756921D01*
X135314647Y-111026753D01*
X134182145Y-112159255D01*
X134182145Y-112159255D01*
G37*
G36*
X134535698Y-112512808D02*
X134265866Y-112242976D01*
X135398368Y-111110474D01*
X135668200Y-111380306D01*
X134535698Y-112512808D01*
X134535698Y-112512808D01*
G37*
G36*
X134889251Y-112866361D02*
X134619419Y-112596529D01*
X135751921Y-111464027D01*
X136021753Y-111733859D01*
X134889251Y-112866361D01*
X134889251Y-112866361D01*
G37*
G36*
X135242805Y-113219915D02*
X134972973Y-112950083D01*
X136105475Y-111817581D01*
X136375307Y-112087413D01*
X135242805Y-113219915D01*
X135242805Y-113219915D01*
G37*
G36*
X135596358Y-113573468D02*
X135326526Y-113303636D01*
X136459028Y-112171134D01*
X136728860Y-112440966D01*
X135596358Y-113573468D01*
X135596358Y-113573468D01*
G37*
G36*
X139415866Y-113303636D02*
X139146034Y-113573468D01*
X138013532Y-112440966D01*
X138283364Y-112171134D01*
X139415866Y-113303636D01*
X139415866Y-113303636D01*
G37*
G36*
X139769419Y-112950083D02*
X139499587Y-113219915D01*
X138367085Y-112087413D01*
X138636917Y-111817581D01*
X139769419Y-112950083D01*
X139769419Y-112950083D01*
G37*
G36*
X140122973Y-112596529D02*
X139853141Y-112866361D01*
X138720639Y-111733859D01*
X138990471Y-111464027D01*
X140122973Y-112596529D01*
X140122973Y-112596529D01*
G37*
G36*
X140476526Y-112242976D02*
X140206694Y-112512808D01*
X139074192Y-111380306D01*
X139344024Y-111110474D01*
X140476526Y-112242976D01*
X140476526Y-112242976D01*
G37*
G36*
X140830079Y-111889423D02*
X140560247Y-112159255D01*
X139427745Y-111026753D01*
X139697577Y-110756921D01*
X140830079Y-111889423D01*
X140830079Y-111889423D01*
G37*
G36*
X141183633Y-111535869D02*
X140913801Y-111805701D01*
X139781299Y-110673199D01*
X140051131Y-110403367D01*
X141183633Y-111535869D01*
X141183633Y-111535869D01*
G37*
G36*
X141537186Y-111182316D02*
X141267354Y-111452148D01*
X140134852Y-110319646D01*
X140404684Y-110049814D01*
X141537186Y-111182316D01*
X141537186Y-111182316D01*
G37*
G36*
X141890740Y-110828763D02*
X141620908Y-111098595D01*
X140488406Y-109966093D01*
X140758238Y-109696261D01*
X141890740Y-110828763D01*
X141890740Y-110828763D01*
G37*
G36*
X142244293Y-110475209D02*
X141974461Y-110745041D01*
X140841959Y-109612539D01*
X141111791Y-109342707D01*
X142244293Y-110475209D01*
X142244293Y-110475209D01*
G37*
G36*
X142597846Y-110121656D02*
X142328014Y-110391488D01*
X141195512Y-109258986D01*
X141465344Y-108989154D01*
X142597846Y-110121656D01*
X142597846Y-110121656D01*
G37*
G36*
X142951400Y-109768102D02*
X142681568Y-110037934D01*
X141549066Y-108905432D01*
X141818898Y-108635600D01*
X142951400Y-109768102D01*
X142951400Y-109768102D01*
G37*
G36*
X143304953Y-109414549D02*
X143035121Y-109684381D01*
X141902619Y-108551879D01*
X142172451Y-108282047D01*
X143304953Y-109414549D01*
X143304953Y-109414549D01*
G37*
G36*
X143658507Y-109060996D02*
X143388675Y-109330828D01*
X142256173Y-108198326D01*
X142526005Y-107928494D01*
X143658507Y-109060996D01*
X143658507Y-109060996D01*
G37*
G36*
X144012060Y-108707442D02*
X143742228Y-108977274D01*
X142609726Y-107844772D01*
X142879558Y-107574940D01*
X144012060Y-108707442D01*
X144012060Y-108707442D01*
G37*
G36*
X144365613Y-108353889D02*
X144095781Y-108623721D01*
X142963279Y-107491219D01*
X143233111Y-107221387D01*
X144365613Y-108353889D01*
X144365613Y-108353889D01*
G37*
G36*
X144719167Y-108000335D02*
X144449335Y-108270167D01*
X143316833Y-107137665D01*
X143586665Y-106867833D01*
X144719167Y-108000335D01*
X144719167Y-108000335D01*
G37*
G36*
X145072720Y-107646782D02*
X144802888Y-107916614D01*
X143670386Y-106784112D01*
X143940218Y-106514280D01*
X145072720Y-107646782D01*
X145072720Y-107646782D01*
G37*
G36*
X145426274Y-107293229D02*
X145156442Y-107563061D01*
X144023940Y-106430559D01*
X144293772Y-106160727D01*
X145426274Y-107293229D01*
X145426274Y-107293229D01*
G37*
G36*
X145779827Y-106939675D02*
X145509995Y-107209507D01*
X144377493Y-106077005D01*
X144647325Y-105807173D01*
X145779827Y-106939675D01*
X145779827Y-106939675D01*
G37*
G36*
X146133380Y-106586122D02*
X145863548Y-106855954D01*
X144731046Y-105723452D01*
X145000878Y-105453620D01*
X146133380Y-106586122D01*
X146133380Y-106586122D01*
G37*
G36*
X146486934Y-106232568D02*
X146217102Y-106502400D01*
X145084600Y-105369898D01*
X145354432Y-105100066D01*
X146486934Y-106232568D01*
X146486934Y-106232568D01*
G37*
G36*
X146840487Y-105879015D02*
X146570655Y-106148847D01*
X145438153Y-105016345D01*
X145707985Y-104746513D01*
X146840487Y-105879015D01*
X146840487Y-105879015D01*
G37*
G36*
X147194040Y-105525462D02*
X146924208Y-105795294D01*
X145791706Y-104662792D01*
X146061538Y-104392960D01*
X147194040Y-105525462D01*
X147194040Y-105525462D01*
G37*
G36*
X147547594Y-105171908D02*
X147277762Y-105441740D01*
X146145260Y-104309238D01*
X146415092Y-104039406D01*
X147547594Y-105171908D01*
X147547594Y-105171908D01*
G37*
G36*
X147901147Y-104818355D02*
X147631315Y-105088187D01*
X146498813Y-103955685D01*
X146768645Y-103685853D01*
X147901147Y-104818355D01*
X147901147Y-104818355D01*
G37*
G36*
X146768645Y-102401181D02*
X146498813Y-102131349D01*
X147631315Y-100998847D01*
X147901147Y-101268679D01*
X146768645Y-102401181D01*
X146768645Y-102401181D01*
G37*
G36*
X146415092Y-102047628D02*
X146145260Y-101777796D01*
X147277762Y-100645294D01*
X147547594Y-100915126D01*
X146415092Y-102047628D01*
X146415092Y-102047628D01*
G37*
G36*
X146061538Y-101694074D02*
X145791706Y-101424242D01*
X146924208Y-100291740D01*
X147194040Y-100561572D01*
X146061538Y-101694074D01*
X146061538Y-101694074D01*
G37*
G36*
X145707985Y-101340521D02*
X145438153Y-101070689D01*
X146570655Y-99938187D01*
X146840487Y-100208019D01*
X145707985Y-101340521D01*
X145707985Y-101340521D01*
G37*
G36*
X145354432Y-100986968D02*
X145084600Y-100717136D01*
X146217102Y-99584634D01*
X146486934Y-99854466D01*
X145354432Y-100986968D01*
X145354432Y-100986968D01*
G37*
G36*
X145000878Y-100633414D02*
X144731046Y-100363582D01*
X145863548Y-99231080D01*
X146133380Y-99500912D01*
X145000878Y-100633414D01*
X145000878Y-100633414D01*
G37*
G36*
X144647325Y-100279861D02*
X144377493Y-100010029D01*
X145509995Y-98877527D01*
X145779827Y-99147359D01*
X144647325Y-100279861D01*
X144647325Y-100279861D01*
G37*
G36*
X144293772Y-99926307D02*
X144023940Y-99656475D01*
X145156442Y-98523973D01*
X145426274Y-98793805D01*
X144293772Y-99926307D01*
X144293772Y-99926307D01*
G37*
G36*
X143940218Y-99572754D02*
X143670386Y-99302922D01*
X144802888Y-98170420D01*
X145072720Y-98440252D01*
X143940218Y-99572754D01*
X143940218Y-99572754D01*
G37*
G36*
X143586665Y-99219201D02*
X143316833Y-98949369D01*
X144449335Y-97816867D01*
X144719167Y-98086699D01*
X143586665Y-99219201D01*
X143586665Y-99219201D01*
G37*
G36*
X143233111Y-98865647D02*
X142963279Y-98595815D01*
X144095781Y-97463313D01*
X144365613Y-97733145D01*
X143233111Y-98865647D01*
X143233111Y-98865647D01*
G37*
G36*
X142879558Y-98512094D02*
X142609726Y-98242262D01*
X143742228Y-97109760D01*
X144012060Y-97379592D01*
X142879558Y-98512094D01*
X142879558Y-98512094D01*
G37*
G36*
X142526005Y-98158540D02*
X142256173Y-97888708D01*
X143388675Y-96756206D01*
X143658507Y-97026038D01*
X142526005Y-98158540D01*
X142526005Y-98158540D01*
G37*
G36*
X142172451Y-97804987D02*
X141902619Y-97535155D01*
X143035121Y-96402653D01*
X143304953Y-96672485D01*
X142172451Y-97804987D01*
X142172451Y-97804987D01*
G37*
G36*
X141818898Y-97451434D02*
X141549066Y-97181602D01*
X142681568Y-96049100D01*
X142951400Y-96318932D01*
X141818898Y-97451434D01*
X141818898Y-97451434D01*
G37*
G36*
X141465344Y-97097880D02*
X141195512Y-96828048D01*
X142328014Y-95695546D01*
X142597846Y-95965378D01*
X141465344Y-97097880D01*
X141465344Y-97097880D01*
G37*
G36*
X141111791Y-96744327D02*
X140841959Y-96474495D01*
X141974461Y-95341993D01*
X142244293Y-95611825D01*
X141111791Y-96744327D01*
X141111791Y-96744327D01*
G37*
G36*
X140758238Y-96390773D02*
X140488406Y-96120941D01*
X141620908Y-94988439D01*
X141890740Y-95258271D01*
X140758238Y-96390773D01*
X140758238Y-96390773D01*
G37*
G36*
X140404684Y-96037220D02*
X140134852Y-95767388D01*
X141267354Y-94634886D01*
X141537186Y-94904718D01*
X140404684Y-96037220D01*
X140404684Y-96037220D01*
G37*
G36*
X140051131Y-95683667D02*
X139781299Y-95413835D01*
X140913801Y-94281333D01*
X141183633Y-94551165D01*
X140051131Y-95683667D01*
X140051131Y-95683667D01*
G37*
G36*
X139697577Y-95330113D02*
X139427745Y-95060281D01*
X140560247Y-93927779D01*
X140830079Y-94197611D01*
X139697577Y-95330113D01*
X139697577Y-95330113D01*
G37*
G36*
X139344024Y-94976560D02*
X139074192Y-94706728D01*
X140206694Y-93574226D01*
X140476526Y-93844058D01*
X139344024Y-94976560D01*
X139344024Y-94976560D01*
G37*
G36*
X138990471Y-94623007D02*
X138720639Y-94353175D01*
X139853141Y-93220673D01*
X140122973Y-93490505D01*
X138990471Y-94623007D01*
X138990471Y-94623007D01*
G37*
G36*
X138636917Y-94269453D02*
X138367085Y-93999621D01*
X139499587Y-92867119D01*
X139769419Y-93136951D01*
X138636917Y-94269453D01*
X138636917Y-94269453D01*
G37*
G36*
X138283364Y-93915900D02*
X138013532Y-93646068D01*
X139146034Y-92513566D01*
X139415866Y-92783398D01*
X138283364Y-93915900D01*
X138283364Y-93915900D01*
G37*
G36*
X136728860Y-93646068D02*
X136459028Y-93915900D01*
X135326526Y-92783398D01*
X135596358Y-92513566D01*
X136728860Y-93646068D01*
X136728860Y-93646068D01*
G37*
G36*
X136375307Y-93999621D02*
X136105475Y-94269453D01*
X134972973Y-93136951D01*
X135242805Y-92867119D01*
X136375307Y-93999621D01*
X136375307Y-93999621D01*
G37*
G36*
X136021753Y-94353175D02*
X135751921Y-94623007D01*
X134619419Y-93490505D01*
X134889251Y-93220673D01*
X136021753Y-94353175D01*
X136021753Y-94353175D01*
G37*
G36*
X135668200Y-94706728D02*
X135398368Y-94976560D01*
X134265866Y-93844058D01*
X134535698Y-93574226D01*
X135668200Y-94706728D01*
X135668200Y-94706728D01*
G37*
G36*
X135314647Y-95060281D02*
X135044815Y-95330113D01*
X133912313Y-94197611D01*
X134182145Y-93927779D01*
X135314647Y-95060281D01*
X135314647Y-95060281D01*
G37*
G36*
X134961093Y-95413835D02*
X134691261Y-95683667D01*
X133558759Y-94551165D01*
X133828591Y-94281333D01*
X134961093Y-95413835D01*
X134961093Y-95413835D01*
G37*
G36*
X134607540Y-95767388D02*
X134337708Y-96037220D01*
X133205206Y-94904718D01*
X133475038Y-94634886D01*
X134607540Y-95767388D01*
X134607540Y-95767388D01*
G37*
G36*
X134253986Y-96120941D02*
X133984154Y-96390773D01*
X132851652Y-95258271D01*
X133121484Y-94988439D01*
X134253986Y-96120941D01*
X134253986Y-96120941D01*
G37*
G36*
X133900433Y-96474495D02*
X133630601Y-96744327D01*
X132498099Y-95611825D01*
X132767931Y-95341993D01*
X133900433Y-96474495D01*
X133900433Y-96474495D01*
G37*
G36*
X133546880Y-96828048D02*
X133277048Y-97097880D01*
X132144546Y-95965378D01*
X132414378Y-95695546D01*
X133546880Y-96828048D01*
X133546880Y-96828048D01*
G37*
G36*
X133193326Y-97181602D02*
X132923494Y-97451434D01*
X131790992Y-96318932D01*
X132060824Y-96049100D01*
X133193326Y-97181602D01*
X133193326Y-97181602D01*
G37*
G36*
X132839773Y-97535155D02*
X132569941Y-97804987D01*
X131437439Y-96672485D01*
X131707271Y-96402653D01*
X132839773Y-97535155D01*
X132839773Y-97535155D01*
G37*
G36*
X132486219Y-97888708D02*
X132216387Y-98158540D01*
X131083885Y-97026038D01*
X131353717Y-96756206D01*
X132486219Y-97888708D01*
X132486219Y-97888708D01*
G37*
G36*
X132132666Y-98242262D02*
X131862834Y-98512094D01*
X130730332Y-97379592D01*
X131000164Y-97109760D01*
X132132666Y-98242262D01*
X132132666Y-98242262D01*
G37*
G36*
X131779113Y-98595815D02*
X131509281Y-98865647D01*
X130376779Y-97733145D01*
X130646611Y-97463313D01*
X131779113Y-98595815D01*
X131779113Y-98595815D01*
G37*
G36*
X131425559Y-98949369D02*
X131155727Y-99219201D01*
X130023225Y-98086699D01*
X130293057Y-97816867D01*
X131425559Y-98949369D01*
X131425559Y-98949369D01*
G37*
G36*
X131072006Y-99302922D02*
X130802174Y-99572754D01*
X129669672Y-98440252D01*
X129939504Y-98170420D01*
X131072006Y-99302922D01*
X131072006Y-99302922D01*
G37*
G36*
X130718452Y-99656475D02*
X130448620Y-99926307D01*
X129316118Y-98793805D01*
X129585950Y-98523973D01*
X130718452Y-99656475D01*
X130718452Y-99656475D01*
G37*
G36*
X130364899Y-100010029D02*
X130095067Y-100279861D01*
X128962565Y-99147359D01*
X129232397Y-98877527D01*
X130364899Y-100010029D01*
X130364899Y-100010029D01*
G37*
G36*
X130011346Y-100363582D02*
X129741514Y-100633414D01*
X128609012Y-99500912D01*
X128878844Y-99231080D01*
X130011346Y-100363582D01*
X130011346Y-100363582D01*
G37*
G36*
X129657792Y-100717136D02*
X129387960Y-100986968D01*
X128255458Y-99854466D01*
X128525290Y-99584634D01*
X129657792Y-100717136D01*
X129657792Y-100717136D01*
G37*
G36*
X129304239Y-101070689D02*
X129034407Y-101340521D01*
X127901905Y-100208019D01*
X128171737Y-99938187D01*
X129304239Y-101070689D01*
X129304239Y-101070689D01*
G37*
G36*
X128950686Y-101424242D02*
X128680854Y-101694074D01*
X127548352Y-100561572D01*
X127818184Y-100291740D01*
X128950686Y-101424242D01*
X128950686Y-101424242D01*
G37*
G36*
X128597132Y-101777796D02*
X128327300Y-102047628D01*
X127194798Y-100915126D01*
X127464630Y-100645294D01*
X128597132Y-101777796D01*
X128597132Y-101777796D01*
G37*
G36*
X128243579Y-102131349D02*
X127973747Y-102401181D01*
X126841245Y-101268679D01*
X127111077Y-100998847D01*
X128243579Y-102131349D01*
X128243579Y-102131349D01*
G37*
D14*
X149704000Y-86421000D03*
X149704000Y-86921000D03*
X149704000Y-87421000D03*
X149704000Y-87921000D03*
X149704000Y-88421000D03*
X149704000Y-88921000D03*
X149704000Y-89421000D03*
D15*
X150654000Y-90371000D03*
X151154000Y-90371000D03*
X151654000Y-90371000D03*
X152154000Y-90371000D03*
X152654000Y-90371000D03*
X153154000Y-90371000D03*
X153654000Y-90371000D03*
D14*
X154604000Y-89421000D03*
X154604000Y-88921000D03*
X154604000Y-88421000D03*
X154604000Y-87921000D03*
X154604000Y-87421000D03*
X154604000Y-86921000D03*
X154604000Y-86421000D03*
D15*
X153654000Y-85471000D03*
X153154000Y-85471000D03*
X152654000Y-85471000D03*
X152154000Y-85471000D03*
X151654000Y-85471000D03*
X151154000Y-85471000D03*
X150654000Y-85471000D03*
D39*
X152991500Y-88758500D03*
X152991500Y-87083500D03*
X151316500Y-88758500D03*
X151316500Y-87083500D03*
D40*
X161544000Y-87026000D03*
X161544000Y-87676000D03*
X161544000Y-88326000D03*
X161544000Y-88976000D03*
D41*
X162569000Y-90001000D03*
X163219000Y-90001000D03*
X163869000Y-90001000D03*
X164519000Y-90001000D03*
D40*
X165544000Y-88976000D03*
X165544000Y-88326000D03*
X165544000Y-87676000D03*
X165544000Y-87026000D03*
D41*
X164519000Y-86001000D03*
X163869000Y-86001000D03*
X163219000Y-86001000D03*
X162569000Y-86001000D03*
D42*
X164169000Y-88626000D03*
X164169000Y-87376000D03*
X162919000Y-88626000D03*
X162919000Y-87376000D03*
D43*
X114513000Y-84115000D03*
X114513000Y-84765000D03*
X114513000Y-85415000D03*
X114513000Y-86065000D03*
X118913000Y-86065000D03*
X118913000Y-85415000D03*
X118913000Y-84765000D03*
X118913000Y-84115000D03*
X130261000Y-85385000D03*
X130261000Y-86035000D03*
X130261000Y-86685000D03*
X130261000Y-87335000D03*
X134661000Y-87335000D03*
X134661000Y-86685000D03*
X134661000Y-86035000D03*
X134661000Y-85385000D03*
D44*
X121333769Y-112764952D03*
X120063769Y-112764952D03*
X118793769Y-112764952D03*
X117523769Y-112764952D03*
X117523769Y-118352952D03*
X118793769Y-118352952D03*
X120063769Y-118352952D03*
X121333769Y-118352952D03*
D45*
X107188000Y-109855000D03*
D46*
X107188000Y-104775000D03*
D10*
G36*
X124137801Y-108812064D02*
X125057379Y-107892486D01*
X126402621Y-109237728D01*
X125483043Y-110157306D01*
X124137801Y-108812064D01*
X124137801Y-108812064D01*
G37*
G36*
X122370486Y-110579379D02*
X123290064Y-109659801D01*
X124635306Y-111005043D01*
X123715728Y-111924621D01*
X122370486Y-110579379D01*
X122370486Y-110579379D01*
G37*
G36*
X125057379Y-113266272D02*
X125976957Y-112346694D01*
X127322199Y-113691936D01*
X126402621Y-114611514D01*
X125057379Y-113266272D01*
X125057379Y-113266272D01*
G37*
G36*
X126824694Y-111498957D02*
X127744272Y-110579379D01*
X129089514Y-111924621D01*
X128169936Y-112844199D01*
X126824694Y-111498957D01*
X126824694Y-111498957D01*
G37*
D47*
X153294080Y-93365320D03*
X153294080Y-95864680D03*
X157093920Y-95864680D03*
X157093920Y-93365320D03*
D48*
X154579320Y-111881920D03*
X157078680Y-111881920D03*
X157078680Y-108082080D03*
X154579320Y-108082080D03*
D16*
X166500000Y-123000000D03*
D36*
X146304000Y-82145000D03*
X146304000Y-80645000D03*
D25*
X111899000Y-100457000D03*
X113399000Y-100457000D03*
X111899000Y-97155000D03*
X113399000Y-97155000D03*
D18*
X162572000Y-81407000D03*
X164072000Y-81407000D03*
D19*
X162835500Y-83375500D03*
X163935500Y-83375500D03*
X165015000Y-84645500D03*
X163915000Y-84645500D03*
D25*
X159270000Y-81407000D03*
X160770000Y-81407000D03*
D22*
X124955300Y-91503500D03*
X123456700Y-91503500D03*
D25*
X122035000Y-91503500D03*
X120535000Y-91503500D03*
D49*
X179197000Y-80264000D03*
X176657000Y-77724000D03*
X176657000Y-82804000D03*
X181737000Y-82804000D03*
X181737000Y-77724000D03*
X179197000Y-97790000D03*
X176657000Y-95250000D03*
X176657000Y-100330000D03*
X181737000Y-100330000D03*
X181737000Y-95250000D03*
M02*
