%TF.GenerationSoftware,KiCad,Pcbnew,no-vcs-found-2c23c4c~60~ubuntu14.04.1*%
%TF.CreationDate,2017-10-20T13:03:47+02:00*%
%TF.ProjectId,RCCAR_IF_Board_GPS,52434341525F49465F426F6172645F47,rev?*%
%TF.SameCoordinates,Original*%
%TF.FileFunction,Legend,Bot*%
%TF.FilePolarity,Positive*%
%FSLAX46Y46*%
G04 Gerber Fmt 4.6, Leading zero omitted, Abs format (unit mm)*
G04 Created by KiCad (PCBNEW no-vcs-found-2c23c4c~60~ubuntu14.04.1) date Fri Oct 20 13:03:47 2017*
%MOMM*%
%LPD*%
G01*
G04 APERTURE LIST*
%ADD10C,0.200000*%
%ADD11C,0.300000*%
%ADD12C,0.152400*%
%ADD13C,0.279400*%
%ADD14C,0.150000*%
%ADD15C,0.101600*%
%ADD16C,6.101600*%
%ADD17R,1.300480X1.800860*%
%ADD18O,1.300480X1.800860*%
%ADD19R,1.828800X2.133600*%
%ADD20O,1.828800X2.133600*%
%ADD21R,0.601600X1.001600*%
%ADD22C,2.601600*%
%ADD23R,0.851600X0.901600*%
%ADD24R,0.701600X0.501600*%
%ADD25C,1.000760*%
%ADD26R,1.101600X0.901600*%
%ADD27R,0.801600X1.601600*%
%ADD28C,1.001600*%
%ADD29R,0.901600X1.101600*%
%ADD30R,1.601600X0.801600*%
%ADD31R,2.101600X0.901600*%
G04 APERTURE END LIST*
D10*
X160020000Y-121920000D02*
X158115000Y-123571000D01*
D11*
X180272142Y-109994000D02*
X180415000Y-109922571D01*
X180629285Y-109922571D01*
X180843571Y-109994000D01*
X180986428Y-110136857D01*
X181057857Y-110279714D01*
X181129285Y-110565428D01*
X181129285Y-110779714D01*
X181057857Y-111065428D01*
X180986428Y-111208285D01*
X180843571Y-111351142D01*
X180629285Y-111422571D01*
X180486428Y-111422571D01*
X180272142Y-111351142D01*
X180200714Y-111279714D01*
X180200714Y-110779714D01*
X180486428Y-110779714D01*
X179557857Y-111422571D02*
X179557857Y-109922571D01*
X178986428Y-109922571D01*
X178843571Y-109994000D01*
X178772142Y-110065428D01*
X178700714Y-110208285D01*
X178700714Y-110422571D01*
X178772142Y-110565428D01*
X178843571Y-110636857D01*
X178986428Y-110708285D01*
X179557857Y-110708285D01*
X178129285Y-111351142D02*
X177915000Y-111422571D01*
X177557857Y-111422571D01*
X177415000Y-111351142D01*
X177343571Y-111279714D01*
X177272142Y-111136857D01*
X177272142Y-110994000D01*
X177343571Y-110851142D01*
X177415000Y-110779714D01*
X177557857Y-110708285D01*
X177843571Y-110636857D01*
X177986428Y-110565428D01*
X178057857Y-110494000D01*
X178129285Y-110351142D01*
X178129285Y-110208285D01*
X178057857Y-110065428D01*
X177986428Y-109994000D01*
X177843571Y-109922571D01*
X177486428Y-109922571D01*
X177272142Y-109994000D01*
D12*
X105494666Y-102002166D02*
X105325333Y-102002166D01*
X105240666Y-102044500D01*
X105156000Y-102129166D01*
X105113666Y-102298500D01*
X105113666Y-102594833D01*
X105156000Y-102764166D01*
X105240666Y-102848833D01*
X105325333Y-102891166D01*
X105494666Y-102891166D01*
X105579333Y-102848833D01*
X105664000Y-102764166D01*
X105706333Y-102594833D01*
X105706333Y-102298500D01*
X105664000Y-102129166D01*
X105579333Y-102044500D01*
X105494666Y-102002166D01*
X104436333Y-102425500D02*
X104732666Y-102425500D01*
X104732666Y-102891166D02*
X104732666Y-102002166D01*
X104309333Y-102002166D01*
X103674333Y-102425500D02*
X103970666Y-102425500D01*
X103970666Y-102891166D02*
X103970666Y-102002166D01*
X103547333Y-102002166D01*
X107863216Y-102848833D02*
X108582883Y-102848833D01*
X108667550Y-102891166D01*
X108709883Y-102933500D01*
X108752216Y-103018166D01*
X108752216Y-103187500D01*
X108709883Y-103272166D01*
X108667550Y-103314500D01*
X108582883Y-103356833D01*
X107863216Y-103356833D01*
X108752216Y-103780166D02*
X107863216Y-103780166D01*
X108201883Y-103780166D02*
X108159550Y-103864833D01*
X108159550Y-104034166D01*
X108201883Y-104118833D01*
X108244216Y-104161166D01*
X108328883Y-104203500D01*
X108582883Y-104203500D01*
X108667550Y-104161166D01*
X108709883Y-104118833D01*
X108752216Y-104034166D01*
X108752216Y-103864833D01*
X108709883Y-103780166D01*
X108752216Y-104711500D02*
X108709883Y-104626833D01*
X108625216Y-104584500D01*
X107863216Y-104584500D01*
X108752216Y-105177166D02*
X108709883Y-105092500D01*
X108667550Y-105050166D01*
X108582883Y-105007833D01*
X108328883Y-105007833D01*
X108244216Y-105050166D01*
X108201883Y-105092500D01*
X108159550Y-105177166D01*
X108159550Y-105304166D01*
X108201883Y-105388833D01*
X108244216Y-105431166D01*
X108328883Y-105473500D01*
X108582883Y-105473500D01*
X108667550Y-105431166D01*
X108709883Y-105388833D01*
X108752216Y-105304166D01*
X108752216Y-105177166D01*
X108752216Y-105769833D02*
X108159550Y-106235500D01*
X108159550Y-105769833D02*
X108752216Y-106235500D01*
X107863216Y-107251500D02*
X108582883Y-107251500D01*
X108667550Y-107293833D01*
X108709883Y-107336166D01*
X108752216Y-107420833D01*
X108752216Y-107590166D01*
X108709883Y-107674833D01*
X108667550Y-107717166D01*
X108582883Y-107759500D01*
X107863216Y-107759500D01*
X108709883Y-108140500D02*
X108752216Y-108267500D01*
X108752216Y-108479166D01*
X108709883Y-108563833D01*
X108667550Y-108606166D01*
X108582883Y-108648500D01*
X108498216Y-108648500D01*
X108413550Y-108606166D01*
X108371216Y-108563833D01*
X108328883Y-108479166D01*
X108286550Y-108309833D01*
X108244216Y-108225166D01*
X108201883Y-108182833D01*
X108117216Y-108140500D01*
X108032550Y-108140500D01*
X107947883Y-108182833D01*
X107905550Y-108225166D01*
X107863216Y-108309833D01*
X107863216Y-108521500D01*
X107905550Y-108648500D01*
X108286550Y-109325833D02*
X108328883Y-109452833D01*
X108371216Y-109495166D01*
X108455883Y-109537500D01*
X108582883Y-109537500D01*
X108667550Y-109495166D01*
X108709883Y-109452833D01*
X108752216Y-109368166D01*
X108752216Y-109029500D01*
X107863216Y-109029500D01*
X107863216Y-109325833D01*
X107905550Y-109410500D01*
X107947883Y-109452833D01*
X108032550Y-109495166D01*
X108117216Y-109495166D01*
X108201883Y-109452833D01*
X108244216Y-109410500D01*
X108286550Y-109325833D01*
X108286550Y-109029500D01*
X110238116Y-104415166D02*
X109349116Y-104415166D01*
X109349116Y-104753833D01*
X109391450Y-104838500D01*
X109433783Y-104880833D01*
X109518450Y-104923166D01*
X109645450Y-104923166D01*
X109730116Y-104880833D01*
X109772450Y-104838500D01*
X109814783Y-104753833D01*
X109814783Y-104415166D01*
X110238116Y-105431166D02*
X110195783Y-105346500D01*
X110153450Y-105304166D01*
X110068783Y-105261833D01*
X109814783Y-105261833D01*
X109730116Y-105304166D01*
X109687783Y-105346500D01*
X109645450Y-105431166D01*
X109645450Y-105558166D01*
X109687783Y-105642833D01*
X109730116Y-105685166D01*
X109814783Y-105727500D01*
X110068783Y-105727500D01*
X110153450Y-105685166D01*
X110195783Y-105642833D01*
X110238116Y-105558166D01*
X110238116Y-105431166D01*
X109645450Y-106023833D02*
X110238116Y-106193166D01*
X109814783Y-106362500D01*
X110238116Y-106531833D01*
X109645450Y-106701166D01*
X110195783Y-107378500D02*
X110238116Y-107293833D01*
X110238116Y-107124500D01*
X110195783Y-107039833D01*
X110111116Y-106997500D01*
X109772450Y-106997500D01*
X109687783Y-107039833D01*
X109645450Y-107124500D01*
X109645450Y-107293833D01*
X109687783Y-107378500D01*
X109772450Y-107420833D01*
X109857116Y-107420833D01*
X109941783Y-106997500D01*
X110238116Y-107801833D02*
X109645450Y-107801833D01*
X109814783Y-107801833D02*
X109730116Y-107844166D01*
X109687783Y-107886500D01*
X109645450Y-107971166D01*
X109645450Y-108055833D01*
X105579333Y-112162166D02*
X105410000Y-112162166D01*
X105325333Y-112204500D01*
X105240666Y-112289166D01*
X105198333Y-112458500D01*
X105198333Y-112754833D01*
X105240666Y-112924166D01*
X105325333Y-113008833D01*
X105410000Y-113051166D01*
X105579333Y-113051166D01*
X105664000Y-113008833D01*
X105748666Y-112924166D01*
X105791000Y-112754833D01*
X105791000Y-112458500D01*
X105748666Y-112289166D01*
X105664000Y-112204500D01*
X105579333Y-112162166D01*
X104817333Y-113051166D02*
X104817333Y-112162166D01*
X104309333Y-113051166D01*
X104309333Y-112162166D01*
X131466166Y-74125666D02*
X131466166Y-74295000D01*
X131508500Y-74379666D01*
X131593166Y-74464333D01*
X131762500Y-74506666D01*
X132058833Y-74506666D01*
X132228166Y-74464333D01*
X132312833Y-74379666D01*
X132355166Y-74295000D01*
X132355166Y-74125666D01*
X132312833Y-74041000D01*
X132228166Y-73956333D01*
X132058833Y-73914000D01*
X131762500Y-73914000D01*
X131593166Y-73956333D01*
X131508500Y-74041000D01*
X131466166Y-74125666D01*
X132355166Y-74887666D02*
X131466166Y-74887666D01*
X132355166Y-75395666D01*
X131466166Y-75395666D01*
X142007166Y-73829333D02*
X142007166Y-73998666D01*
X142049500Y-74083333D01*
X142134166Y-74168000D01*
X142303500Y-74210333D01*
X142599833Y-74210333D01*
X142769166Y-74168000D01*
X142853833Y-74083333D01*
X142896166Y-73998666D01*
X142896166Y-73829333D01*
X142853833Y-73744666D01*
X142769166Y-73660000D01*
X142599833Y-73617666D01*
X142303500Y-73617666D01*
X142134166Y-73660000D01*
X142049500Y-73744666D01*
X142007166Y-73829333D01*
X142430500Y-74887666D02*
X142430500Y-74591333D01*
X142896166Y-74591333D02*
X142007166Y-74591333D01*
X142007166Y-75014666D01*
X142430500Y-75649666D02*
X142430500Y-75353333D01*
X142896166Y-75353333D02*
X142007166Y-75353333D01*
X142007166Y-75776666D01*
X139297833Y-77891216D02*
X139297833Y-78610883D01*
X139255500Y-78695550D01*
X139213166Y-78737883D01*
X139128500Y-78780216D01*
X138959166Y-78780216D01*
X138874500Y-78737883D01*
X138832166Y-78695550D01*
X138789833Y-78610883D01*
X138789833Y-77891216D01*
X138408833Y-78737883D02*
X138281833Y-78780216D01*
X138070166Y-78780216D01*
X137985500Y-78737883D01*
X137943166Y-78695550D01*
X137900833Y-78610883D01*
X137900833Y-78526216D01*
X137943166Y-78441550D01*
X137985500Y-78399216D01*
X138070166Y-78356883D01*
X138239500Y-78314550D01*
X138324166Y-78272216D01*
X138366500Y-78229883D01*
X138408833Y-78145216D01*
X138408833Y-78060550D01*
X138366500Y-77975883D01*
X138324166Y-77933550D01*
X138239500Y-77891216D01*
X138027833Y-77891216D01*
X137900833Y-77933550D01*
X137223500Y-78314550D02*
X137096500Y-78356883D01*
X137054166Y-78399216D01*
X137011833Y-78483883D01*
X137011833Y-78610883D01*
X137054166Y-78695550D01*
X137096500Y-78737883D01*
X137181166Y-78780216D01*
X137519833Y-78780216D01*
X137519833Y-77891216D01*
X137223500Y-77891216D01*
X137138833Y-77933550D01*
X137096500Y-77975883D01*
X137054166Y-78060550D01*
X137054166Y-78145216D01*
X137096500Y-78229883D01*
X137138833Y-78272216D01*
X137223500Y-78314550D01*
X137519833Y-78314550D01*
X139932833Y-80266116D02*
X139932833Y-79377116D01*
X139594166Y-79377116D01*
X139509500Y-79419450D01*
X139467166Y-79461783D01*
X139424833Y-79546450D01*
X139424833Y-79673450D01*
X139467166Y-79758116D01*
X139509500Y-79800450D01*
X139594166Y-79842783D01*
X139932833Y-79842783D01*
X138916833Y-80266116D02*
X139001500Y-80223783D01*
X139043833Y-80181450D01*
X139086166Y-80096783D01*
X139086166Y-79842783D01*
X139043833Y-79758116D01*
X139001500Y-79715783D01*
X138916833Y-79673450D01*
X138789833Y-79673450D01*
X138705166Y-79715783D01*
X138662833Y-79758116D01*
X138620500Y-79842783D01*
X138620500Y-80096783D01*
X138662833Y-80181450D01*
X138705166Y-80223783D01*
X138789833Y-80266116D01*
X138916833Y-80266116D01*
X138324166Y-79673450D02*
X138154833Y-80266116D01*
X137985500Y-79842783D01*
X137816166Y-80266116D01*
X137646833Y-79673450D01*
X136969500Y-80223783D02*
X137054166Y-80266116D01*
X137223500Y-80266116D01*
X137308166Y-80223783D01*
X137350500Y-80139116D01*
X137350500Y-79800450D01*
X137308166Y-79715783D01*
X137223500Y-79673450D01*
X137054166Y-79673450D01*
X136969500Y-79715783D01*
X136927166Y-79800450D01*
X136927166Y-79885116D01*
X137350500Y-79969783D01*
X136546166Y-80266116D02*
X136546166Y-79673450D01*
X136546166Y-79842783D02*
X136503833Y-79758116D01*
X136461500Y-79715783D01*
X136376833Y-79673450D01*
X136292166Y-79673450D01*
X112310333Y-91418833D02*
X112183333Y-91461166D01*
X111971666Y-91461166D01*
X111887000Y-91418833D01*
X111844666Y-91376500D01*
X111802333Y-91291833D01*
X111802333Y-91207166D01*
X111844666Y-91122500D01*
X111887000Y-91080166D01*
X111971666Y-91037833D01*
X112141000Y-90995500D01*
X112225666Y-90953166D01*
X112268000Y-90910833D01*
X112310333Y-90826166D01*
X112310333Y-90741500D01*
X112268000Y-90656833D01*
X112225666Y-90614500D01*
X112141000Y-90572166D01*
X111929333Y-90572166D01*
X111802333Y-90614500D01*
X111506000Y-90572166D02*
X110955666Y-90572166D01*
X111252000Y-90910833D01*
X111125000Y-90910833D01*
X111040333Y-90953166D01*
X110998000Y-90995500D01*
X110955666Y-91080166D01*
X110955666Y-91291833D01*
X110998000Y-91376500D01*
X111040333Y-91418833D01*
X111125000Y-91461166D01*
X111379000Y-91461166D01*
X111463666Y-91418833D01*
X111506000Y-91376500D01*
X112437333Y-88243833D02*
X112310333Y-88286166D01*
X112098666Y-88286166D01*
X112014000Y-88243833D01*
X111971666Y-88201500D01*
X111929333Y-88116833D01*
X111929333Y-88032166D01*
X111971666Y-87947500D01*
X112014000Y-87905166D01*
X112098666Y-87862833D01*
X112268000Y-87820500D01*
X112352666Y-87778166D01*
X112395000Y-87735833D01*
X112437333Y-87651166D01*
X112437333Y-87566500D01*
X112395000Y-87481833D01*
X112352666Y-87439500D01*
X112268000Y-87397166D01*
X112056333Y-87397166D01*
X111929333Y-87439500D01*
X111167333Y-87693500D02*
X111167333Y-88286166D01*
X111379000Y-87354833D02*
X111590666Y-87989833D01*
X111040333Y-87989833D01*
X112310333Y-94720833D02*
X112183333Y-94763166D01*
X111971666Y-94763166D01*
X111887000Y-94720833D01*
X111844666Y-94678500D01*
X111802333Y-94593833D01*
X111802333Y-94509166D01*
X111844666Y-94424500D01*
X111887000Y-94382166D01*
X111971666Y-94339833D01*
X112141000Y-94297500D01*
X112225666Y-94255166D01*
X112268000Y-94212833D01*
X112310333Y-94128166D01*
X112310333Y-94043500D01*
X112268000Y-93958833D01*
X112225666Y-93916500D01*
X112141000Y-93874166D01*
X111929333Y-93874166D01*
X111802333Y-93916500D01*
X111463666Y-93958833D02*
X111421333Y-93916500D01*
X111336666Y-93874166D01*
X111125000Y-93874166D01*
X111040333Y-93916500D01*
X110998000Y-93958833D01*
X110955666Y-94043500D01*
X110955666Y-94128166D01*
X110998000Y-94255166D01*
X111506000Y-94763166D01*
X110955666Y-94763166D01*
X112310333Y-97768833D02*
X112183333Y-97811166D01*
X111971666Y-97811166D01*
X111887000Y-97768833D01*
X111844666Y-97726500D01*
X111802333Y-97641833D01*
X111802333Y-97557166D01*
X111844666Y-97472500D01*
X111887000Y-97430166D01*
X111971666Y-97387833D01*
X112141000Y-97345500D01*
X112225666Y-97303166D01*
X112268000Y-97260833D01*
X112310333Y-97176166D01*
X112310333Y-97091500D01*
X112268000Y-97006833D01*
X112225666Y-96964500D01*
X112141000Y-96922166D01*
X111929333Y-96922166D01*
X111802333Y-96964500D01*
X110955666Y-97811166D02*
X111463666Y-97811166D01*
X111209666Y-97811166D02*
X111209666Y-96922166D01*
X111294333Y-97049166D01*
X111379000Y-97133833D01*
X111463666Y-97176166D01*
D11*
X115918142Y-91448285D02*
X115989571Y-91662571D01*
X115989571Y-92019714D01*
X115918142Y-92162571D01*
X115846714Y-92234000D01*
X115703857Y-92305428D01*
X115561000Y-92305428D01*
X115418142Y-92234000D01*
X115346714Y-92162571D01*
X115275285Y-92019714D01*
X115203857Y-91734000D01*
X115132428Y-91591142D01*
X115061000Y-91519714D01*
X114918142Y-91448285D01*
X114775285Y-91448285D01*
X114632428Y-91519714D01*
X114561000Y-91591142D01*
X114489571Y-91734000D01*
X114489571Y-92091142D01*
X114561000Y-92305428D01*
X115918142Y-93519714D02*
X115989571Y-93376857D01*
X115989571Y-93091142D01*
X115918142Y-92948285D01*
X115775285Y-92876857D01*
X115203857Y-92876857D01*
X115061000Y-92948285D01*
X114989571Y-93091142D01*
X114989571Y-93376857D01*
X115061000Y-93519714D01*
X115203857Y-93591142D01*
X115346714Y-93591142D01*
X115489571Y-92876857D01*
X115989571Y-94234000D02*
X114989571Y-94234000D01*
X115275285Y-94234000D02*
X115132428Y-94305428D01*
X115061000Y-94376857D01*
X114989571Y-94519714D01*
X114989571Y-94662571D01*
X114989571Y-95019714D02*
X115989571Y-95376857D01*
X114989571Y-95734000D01*
X115989571Y-96519714D02*
X115918142Y-96376857D01*
X115846714Y-96305428D01*
X115703857Y-96234000D01*
X115275285Y-96234000D01*
X115132428Y-96305428D01*
X115061000Y-96376857D01*
X114989571Y-96519714D01*
X114989571Y-96734000D01*
X115061000Y-96876857D01*
X115132428Y-96948285D01*
X115275285Y-97019714D01*
X115703857Y-97019714D01*
X115846714Y-96948285D01*
X115918142Y-96876857D01*
X115989571Y-96734000D01*
X115989571Y-96519714D01*
X117039571Y-92984000D02*
X117039571Y-93269714D01*
X117111000Y-93412571D01*
X117253857Y-93555428D01*
X117539571Y-93626857D01*
X118039571Y-93626857D01*
X118325285Y-93555428D01*
X118468142Y-93412571D01*
X118539571Y-93269714D01*
X118539571Y-92984000D01*
X118468142Y-92841142D01*
X118325285Y-92698285D01*
X118039571Y-92626857D01*
X117539571Y-92626857D01*
X117253857Y-92698285D01*
X117111000Y-92841142D01*
X117039571Y-92984000D01*
X117539571Y-94912571D02*
X118539571Y-94912571D01*
X117539571Y-94269714D02*
X118325285Y-94269714D01*
X118468142Y-94341142D01*
X118539571Y-94484000D01*
X118539571Y-94698285D01*
X118468142Y-94841142D01*
X118396714Y-94912571D01*
X117539571Y-95412571D02*
X117539571Y-95984000D01*
X117039571Y-95626857D02*
X118325285Y-95626857D01*
X118468142Y-95698285D01*
X118539571Y-95841142D01*
X118539571Y-95984000D01*
D12*
X109601000Y-100181833D02*
X109474000Y-100224166D01*
X109262333Y-100224166D01*
X109177666Y-100181833D01*
X109135333Y-100139500D01*
X109093000Y-100054833D01*
X109093000Y-99970166D01*
X109135333Y-99885500D01*
X109177666Y-99843166D01*
X109262333Y-99800833D01*
X109431666Y-99758500D01*
X109516333Y-99716166D01*
X109558666Y-99673833D01*
X109601000Y-99589166D01*
X109601000Y-99504500D01*
X109558666Y-99419833D01*
X109516333Y-99377500D01*
X109431666Y-99335166D01*
X109220000Y-99335166D01*
X109093000Y-99377500D01*
X107653666Y-99335166D02*
X107357333Y-100224166D01*
X107061000Y-99335166D01*
X106764666Y-99885500D02*
X106087333Y-99885500D01*
X106426000Y-100224166D02*
X106426000Y-99546833D01*
X104690333Y-99377500D02*
X104775000Y-99335166D01*
X104902000Y-99335166D01*
X105029000Y-99377500D01*
X105113666Y-99462166D01*
X105156000Y-99546833D01*
X105198333Y-99716166D01*
X105198333Y-99843166D01*
X105156000Y-100012500D01*
X105113666Y-100097166D01*
X105029000Y-100181833D01*
X104902000Y-100224166D01*
X104817333Y-100224166D01*
X104690333Y-100181833D01*
X104648000Y-100139500D01*
X104648000Y-99843166D01*
X104817333Y-99843166D01*
X104267000Y-100224166D02*
X104267000Y-99335166D01*
X103759000Y-100224166D01*
X103759000Y-99335166D01*
X103335666Y-100224166D02*
X103335666Y-99335166D01*
X103124000Y-99335166D01*
X102997000Y-99377500D01*
X102912333Y-99462166D01*
X102870000Y-99546833D01*
X102827666Y-99716166D01*
X102827666Y-99843166D01*
X102870000Y-100012500D01*
X102912333Y-100097166D01*
X102997000Y-100181833D01*
X103124000Y-100224166D01*
X103335666Y-100224166D01*
X180848000Y-122510550D02*
X180721000Y-122552883D01*
X180678666Y-122595216D01*
X180636333Y-122679883D01*
X180636333Y-122806883D01*
X180678666Y-122891550D01*
X180721000Y-122933883D01*
X180805666Y-122976216D01*
X181144333Y-122976216D01*
X181144333Y-122087216D01*
X180848000Y-122087216D01*
X180763333Y-122129550D01*
X180721000Y-122171883D01*
X180678666Y-122256550D01*
X180678666Y-122341216D01*
X180721000Y-122425883D01*
X180763333Y-122468216D01*
X180848000Y-122510550D01*
X181144333Y-122510550D01*
X179916666Y-122933883D02*
X180001333Y-122976216D01*
X180170666Y-122976216D01*
X180255333Y-122933883D01*
X180297666Y-122849216D01*
X180297666Y-122510550D01*
X180255333Y-122425883D01*
X180170666Y-122383550D01*
X180001333Y-122383550D01*
X179916666Y-122425883D01*
X179874333Y-122510550D01*
X179874333Y-122595216D01*
X180297666Y-122679883D01*
X179493333Y-122383550D02*
X179493333Y-122976216D01*
X179493333Y-122468216D02*
X179451000Y-122425883D01*
X179366333Y-122383550D01*
X179239333Y-122383550D01*
X179154666Y-122425883D01*
X179112333Y-122510550D01*
X179112333Y-122976216D01*
X178689000Y-122383550D02*
X178689000Y-123145550D01*
X178731333Y-123230216D01*
X178816000Y-123272550D01*
X178858333Y-123272550D01*
X178689000Y-122087216D02*
X178731333Y-122129550D01*
X178689000Y-122171883D01*
X178646666Y-122129550D01*
X178689000Y-122087216D01*
X178689000Y-122171883D01*
X177884666Y-122976216D02*
X177884666Y-122510550D01*
X177927000Y-122425883D01*
X178011666Y-122383550D01*
X178181000Y-122383550D01*
X178265666Y-122425883D01*
X177884666Y-122933883D02*
X177969333Y-122976216D01*
X178181000Y-122976216D01*
X178265666Y-122933883D01*
X178308000Y-122849216D01*
X178308000Y-122764550D01*
X178265666Y-122679883D01*
X178181000Y-122637550D01*
X177969333Y-122637550D01*
X177884666Y-122595216D01*
X177461333Y-122976216D02*
X177461333Y-122383550D01*
X177461333Y-122468216D02*
X177419000Y-122425883D01*
X177334333Y-122383550D01*
X177207333Y-122383550D01*
X177122666Y-122425883D01*
X177080333Y-122510550D01*
X177080333Y-122976216D01*
X177080333Y-122510550D02*
X177038000Y-122425883D01*
X176953333Y-122383550D01*
X176826333Y-122383550D01*
X176741666Y-122425883D01*
X176699333Y-122510550D01*
X176699333Y-122976216D01*
X176276000Y-122976216D02*
X176276000Y-122383550D01*
X176276000Y-122087216D02*
X176318333Y-122129550D01*
X176276000Y-122171883D01*
X176233666Y-122129550D01*
X176276000Y-122087216D01*
X176276000Y-122171883D01*
X175852666Y-122383550D02*
X175852666Y-122976216D01*
X175852666Y-122468216D02*
X175810333Y-122425883D01*
X175725666Y-122383550D01*
X175598666Y-122383550D01*
X175514000Y-122425883D01*
X175471666Y-122510550D01*
X175471666Y-122976216D01*
X180445833Y-123573116D02*
X180149500Y-124462116D01*
X179853166Y-123573116D01*
X179218166Y-124419783D02*
X179302833Y-124462116D01*
X179472166Y-124462116D01*
X179556833Y-124419783D01*
X179599166Y-124335116D01*
X179599166Y-123996450D01*
X179556833Y-123911783D01*
X179472166Y-123869450D01*
X179302833Y-123869450D01*
X179218166Y-123911783D01*
X179175833Y-123996450D01*
X179175833Y-124081116D01*
X179599166Y-124165783D01*
X178413833Y-124462116D02*
X178413833Y-123573116D01*
X178413833Y-124419783D02*
X178498500Y-124462116D01*
X178667833Y-124462116D01*
X178752500Y-124419783D01*
X178794833Y-124377450D01*
X178837166Y-124292783D01*
X178837166Y-124038783D01*
X178794833Y-123954116D01*
X178752500Y-123911783D01*
X178667833Y-123869450D01*
X178498500Y-123869450D01*
X178413833Y-123911783D01*
X177609500Y-124462116D02*
X177609500Y-123573116D01*
X177609500Y-124419783D02*
X177694166Y-124462116D01*
X177863500Y-124462116D01*
X177948166Y-124419783D01*
X177990500Y-124377450D01*
X178032833Y-124292783D01*
X178032833Y-124038783D01*
X177990500Y-123954116D01*
X177948166Y-123911783D01*
X177863500Y-123869450D01*
X177694166Y-123869450D01*
X177609500Y-123911783D01*
X176847500Y-124419783D02*
X176932166Y-124462116D01*
X177101500Y-124462116D01*
X177186166Y-124419783D01*
X177228500Y-124335116D01*
X177228500Y-123996450D01*
X177186166Y-123911783D01*
X177101500Y-123869450D01*
X176932166Y-123869450D01*
X176847500Y-123911783D01*
X176805166Y-123996450D01*
X176805166Y-124081116D01*
X177228500Y-124165783D01*
X176424166Y-124462116D02*
X176424166Y-123869450D01*
X176424166Y-124038783D02*
X176381833Y-123954116D01*
X176339500Y-123911783D01*
X176254833Y-123869450D01*
X176170166Y-123869450D01*
D13*
X153162000Y-95050428D02*
X153670000Y-94324714D01*
X154032857Y-95050428D02*
X154032857Y-93526428D01*
X153452285Y-93526428D01*
X153307142Y-93599000D01*
X153234571Y-93671571D01*
X153162000Y-93816714D01*
X153162000Y-94034428D01*
X153234571Y-94179571D01*
X153307142Y-94252142D01*
X153452285Y-94324714D01*
X154032857Y-94324714D01*
X152726571Y-93526428D02*
X151855714Y-93526428D01*
X152291142Y-95050428D02*
X152291142Y-93526428D01*
X151347714Y-95050428D02*
X151347714Y-93526428D01*
X150476857Y-95050428D02*
X151130000Y-94179571D01*
X150476857Y-93526428D02*
X151347714Y-94397285D01*
X147791714Y-94905285D02*
X147864285Y-94977857D01*
X148082000Y-95050428D01*
X148227142Y-95050428D01*
X148444857Y-94977857D01*
X148590000Y-94832714D01*
X148662571Y-94687571D01*
X148735142Y-94397285D01*
X148735142Y-94179571D01*
X148662571Y-93889285D01*
X148590000Y-93744142D01*
X148444857Y-93599000D01*
X148227142Y-93526428D01*
X148082000Y-93526428D01*
X147864285Y-93599000D01*
X147791714Y-93671571D01*
X146920857Y-95050428D02*
X147066000Y-94977857D01*
X147138571Y-94905285D01*
X147211142Y-94760142D01*
X147211142Y-94324714D01*
X147138571Y-94179571D01*
X147066000Y-94107000D01*
X146920857Y-94034428D01*
X146703142Y-94034428D01*
X146558000Y-94107000D01*
X146485428Y-94179571D01*
X146412857Y-94324714D01*
X146412857Y-94760142D01*
X146485428Y-94905285D01*
X146558000Y-94977857D01*
X146703142Y-95050428D01*
X146920857Y-95050428D01*
X145759714Y-94034428D02*
X145759714Y-95050428D01*
X145759714Y-94179571D02*
X145687142Y-94107000D01*
X145542000Y-94034428D01*
X145324285Y-94034428D01*
X145179142Y-94107000D01*
X145106571Y-94252142D01*
X145106571Y-95050428D01*
X144598571Y-94034428D02*
X144018000Y-94034428D01*
X144380857Y-93526428D02*
X144380857Y-94832714D01*
X144308285Y-94977857D01*
X144163142Y-95050428D01*
X144018000Y-95050428D01*
X143510000Y-95050428D02*
X143510000Y-94034428D01*
X143510000Y-94324714D02*
X143437428Y-94179571D01*
X143364857Y-94107000D01*
X143219714Y-94034428D01*
X143074571Y-94034428D01*
X142348857Y-95050428D02*
X142494000Y-94977857D01*
X142566571Y-94905285D01*
X142639142Y-94760142D01*
X142639142Y-94324714D01*
X142566571Y-94179571D01*
X142494000Y-94107000D01*
X142348857Y-94034428D01*
X142131142Y-94034428D01*
X141986000Y-94107000D01*
X141913428Y-94179571D01*
X141840857Y-94324714D01*
X141840857Y-94760142D01*
X141913428Y-94905285D01*
X141986000Y-94977857D01*
X142131142Y-95050428D01*
X142348857Y-95050428D01*
X140970000Y-95050428D02*
X141115142Y-94977857D01*
X141187714Y-94832714D01*
X141187714Y-93526428D01*
X140171714Y-95050428D02*
X140316857Y-94977857D01*
X140389428Y-94832714D01*
X140389428Y-93526428D01*
X139010571Y-94977857D02*
X139155714Y-95050428D01*
X139446000Y-95050428D01*
X139591142Y-94977857D01*
X139663714Y-94832714D01*
X139663714Y-94252142D01*
X139591142Y-94107000D01*
X139446000Y-94034428D01*
X139155714Y-94034428D01*
X139010571Y-94107000D01*
X138938000Y-94252142D01*
X138938000Y-94397285D01*
X139663714Y-94542428D01*
X138284857Y-95050428D02*
X138284857Y-94034428D01*
X138284857Y-94324714D02*
X138212285Y-94179571D01*
X138139714Y-94107000D01*
X137994571Y-94034428D01*
X137849428Y-94034428D01*
X136398000Y-93526428D02*
X135890000Y-95050428D01*
X135382000Y-93526428D01*
X134075714Y-95050428D02*
X134946571Y-95050428D01*
X134511142Y-95050428D02*
X134511142Y-93526428D01*
X134656285Y-93744142D01*
X134801428Y-93889285D01*
X134946571Y-93961857D01*
X133422571Y-94905285D02*
X133350000Y-94977857D01*
X133422571Y-95050428D01*
X133495142Y-94977857D01*
X133422571Y-94905285D01*
X133422571Y-95050428D01*
X132769428Y-93671571D02*
X132696857Y-93599000D01*
X132551714Y-93526428D01*
X132188857Y-93526428D01*
X132043714Y-93599000D01*
X131971142Y-93671571D01*
X131898571Y-93816714D01*
X131898571Y-93961857D01*
X131971142Y-94179571D01*
X132842000Y-95050428D01*
X131898571Y-95050428D01*
D11*
X172453714Y-80810571D02*
X172953714Y-80096285D01*
X173310857Y-80810571D02*
X173310857Y-79310571D01*
X172739428Y-79310571D01*
X172596571Y-79382000D01*
X172525142Y-79453428D01*
X172453714Y-79596285D01*
X172453714Y-79810571D01*
X172525142Y-79953428D01*
X172596571Y-80024857D01*
X172739428Y-80096285D01*
X173310857Y-80096285D01*
X171168000Y-80810571D02*
X171168000Y-80024857D01*
X171239428Y-79882000D01*
X171382285Y-79810571D01*
X171668000Y-79810571D01*
X171810857Y-79882000D01*
X171168000Y-80739142D02*
X171310857Y-80810571D01*
X171668000Y-80810571D01*
X171810857Y-80739142D01*
X171882285Y-80596285D01*
X171882285Y-80453428D01*
X171810857Y-80310571D01*
X171668000Y-80239142D01*
X171310857Y-80239142D01*
X171168000Y-80167714D01*
X169810857Y-80810571D02*
X169810857Y-79310571D01*
X169810857Y-80739142D02*
X169953714Y-80810571D01*
X170239428Y-80810571D01*
X170382285Y-80739142D01*
X170453714Y-80667714D01*
X170525142Y-80524857D01*
X170525142Y-80096285D01*
X170453714Y-79953428D01*
X170382285Y-79882000D01*
X170239428Y-79810571D01*
X169953714Y-79810571D01*
X169810857Y-79882000D01*
X169096571Y-80810571D02*
X169096571Y-79810571D01*
X169096571Y-79310571D02*
X169168000Y-79382000D01*
X169096571Y-79453428D01*
X169025142Y-79382000D01*
X169096571Y-79310571D01*
X169096571Y-79453428D01*
X168168000Y-80810571D02*
X168310857Y-80739142D01*
X168382285Y-80667714D01*
X168453714Y-80524857D01*
X168453714Y-80096285D01*
X168382285Y-79953428D01*
X168310857Y-79882000D01*
X168168000Y-79810571D01*
X167953714Y-79810571D01*
X167810857Y-79882000D01*
X167739428Y-79953428D01*
X167668000Y-80096285D01*
X167668000Y-80524857D01*
X167739428Y-80667714D01*
X167810857Y-80739142D01*
X167953714Y-80810571D01*
X168168000Y-80810571D01*
X173382285Y-82003428D02*
X173310857Y-81932000D01*
X173168000Y-81860571D01*
X172810857Y-81860571D01*
X172668000Y-81932000D01*
X172596571Y-82003428D01*
X172525142Y-82146285D01*
X172525142Y-82289142D01*
X172596571Y-82503428D01*
X173453714Y-83360571D01*
X172525142Y-83360571D01*
X171882285Y-83217714D02*
X171810857Y-83289142D01*
X171882285Y-83360571D01*
X171953714Y-83289142D01*
X171882285Y-83217714D01*
X171882285Y-83360571D01*
X170525142Y-82360571D02*
X170525142Y-83360571D01*
X170882285Y-81789142D02*
X171239428Y-82860571D01*
X170310857Y-82860571D01*
X168953714Y-81932000D02*
X169096571Y-81860571D01*
X169310857Y-81860571D01*
X169525142Y-81932000D01*
X169668000Y-82074857D01*
X169739428Y-82217714D01*
X169810857Y-82503428D01*
X169810857Y-82717714D01*
X169739428Y-83003428D01*
X169668000Y-83146285D01*
X169525142Y-83289142D01*
X169310857Y-83360571D01*
X169168000Y-83360571D01*
X168953714Y-83289142D01*
X168882285Y-83217714D01*
X168882285Y-82717714D01*
X169168000Y-82717714D01*
X168239428Y-83360571D02*
X168239428Y-81860571D01*
X168239428Y-82574857D02*
X167382285Y-82574857D01*
X167382285Y-83360571D02*
X167382285Y-81860571D01*
X166810857Y-82360571D02*
X166025142Y-82360571D01*
X166810857Y-83360571D01*
X166025142Y-83360571D01*
X172517214Y-97320571D02*
X173017214Y-96606285D01*
X173374357Y-97320571D02*
X173374357Y-95820571D01*
X172802928Y-95820571D01*
X172660071Y-95892000D01*
X172588642Y-95963428D01*
X172517214Y-96106285D01*
X172517214Y-96320571D01*
X172588642Y-96463428D01*
X172660071Y-96534857D01*
X172802928Y-96606285D01*
X173374357Y-96606285D01*
X171231500Y-97320571D02*
X171231500Y-96534857D01*
X171302928Y-96392000D01*
X171445785Y-96320571D01*
X171731500Y-96320571D01*
X171874357Y-96392000D01*
X171231500Y-97249142D02*
X171374357Y-97320571D01*
X171731500Y-97320571D01*
X171874357Y-97249142D01*
X171945785Y-97106285D01*
X171945785Y-96963428D01*
X171874357Y-96820571D01*
X171731500Y-96749142D01*
X171374357Y-96749142D01*
X171231500Y-96677714D01*
X169874357Y-97320571D02*
X169874357Y-95820571D01*
X169874357Y-97249142D02*
X170017214Y-97320571D01*
X170302928Y-97320571D01*
X170445785Y-97249142D01*
X170517214Y-97177714D01*
X170588642Y-97034857D01*
X170588642Y-96606285D01*
X170517214Y-96463428D01*
X170445785Y-96392000D01*
X170302928Y-96320571D01*
X170017214Y-96320571D01*
X169874357Y-96392000D01*
X169160071Y-97320571D02*
X169160071Y-96320571D01*
X169160071Y-95820571D02*
X169231500Y-95892000D01*
X169160071Y-95963428D01*
X169088642Y-95892000D01*
X169160071Y-95820571D01*
X169160071Y-95963428D01*
X168231500Y-97320571D02*
X168374357Y-97249142D01*
X168445785Y-97177714D01*
X168517214Y-97034857D01*
X168517214Y-96606285D01*
X168445785Y-96463428D01*
X168374357Y-96392000D01*
X168231500Y-96320571D01*
X168017214Y-96320571D01*
X167874357Y-96392000D01*
X167802928Y-96463428D01*
X167731500Y-96606285D01*
X167731500Y-97034857D01*
X167802928Y-97177714D01*
X167874357Y-97249142D01*
X168017214Y-97320571D01*
X168231500Y-97320571D01*
X172731500Y-98870571D02*
X172731500Y-99870571D01*
X173088642Y-98299142D02*
X173445785Y-99370571D01*
X172517214Y-99370571D01*
X172017214Y-98513428D02*
X171945785Y-98442000D01*
X171802928Y-98370571D01*
X171445785Y-98370571D01*
X171302928Y-98442000D01*
X171231500Y-98513428D01*
X171160071Y-98656285D01*
X171160071Y-98799142D01*
X171231500Y-99013428D01*
X172088642Y-99870571D01*
X171160071Y-99870571D01*
X170231500Y-98370571D02*
X170088642Y-98370571D01*
X169945785Y-98442000D01*
X169874357Y-98513428D01*
X169802928Y-98656285D01*
X169731500Y-98942000D01*
X169731500Y-99299142D01*
X169802928Y-99584857D01*
X169874357Y-99727714D01*
X169945785Y-99799142D01*
X170088642Y-99870571D01*
X170231500Y-99870571D01*
X170374357Y-99799142D01*
X170445785Y-99727714D01*
X170517214Y-99584857D01*
X170588642Y-99299142D01*
X170588642Y-98942000D01*
X170517214Y-98656285D01*
X170445785Y-98513428D01*
X170374357Y-98442000D01*
X170231500Y-98370571D01*
X169088642Y-99299142D02*
X167945785Y-99299142D01*
X166588642Y-98870571D02*
X166588642Y-99870571D01*
X166945785Y-98299142D02*
X167302928Y-99370571D01*
X166374357Y-99370571D01*
X165945785Y-98370571D02*
X164945785Y-98370571D01*
X165588642Y-99870571D01*
X164088642Y-98370571D02*
X163945785Y-98370571D01*
X163802928Y-98442000D01*
X163731500Y-98513428D01*
X163660071Y-98656285D01*
X163588642Y-98942000D01*
X163588642Y-99299142D01*
X163660071Y-99584857D01*
X163731500Y-99727714D01*
X163802928Y-99799142D01*
X163945785Y-99870571D01*
X164088642Y-99870571D01*
X164231500Y-99799142D01*
X164302928Y-99727714D01*
X164374357Y-99584857D01*
X164445785Y-99299142D01*
X164445785Y-98942000D01*
X164374357Y-98656285D01*
X164302928Y-98513428D01*
X164231500Y-98442000D01*
X164088642Y-98370571D01*
X162945785Y-99870571D02*
X162945785Y-98370571D01*
X162445785Y-99442000D01*
X161945785Y-98370571D01*
X161945785Y-99870571D01*
X161231500Y-99870571D02*
X161231500Y-98370571D01*
X161231500Y-99084857D02*
X160374357Y-99084857D01*
X160374357Y-99870571D02*
X160374357Y-98370571D01*
X159802928Y-98870571D02*
X159017214Y-98870571D01*
X159802928Y-99870571D01*
X159017214Y-99870571D01*
D10*
X107950000Y-77533500D02*
X110553500Y-80454500D01*
D11*
X116756285Y-81895071D02*
X116756285Y-80395071D01*
X116184857Y-80395071D01*
X116042000Y-80466500D01*
X115970571Y-80537928D01*
X115899142Y-80680785D01*
X115899142Y-80895071D01*
X115970571Y-81037928D01*
X116042000Y-81109357D01*
X116184857Y-81180785D01*
X116756285Y-81180785D01*
X115042000Y-81895071D02*
X115184857Y-81823642D01*
X115256285Y-81752214D01*
X115327714Y-81609357D01*
X115327714Y-81180785D01*
X115256285Y-81037928D01*
X115184857Y-80966500D01*
X115042000Y-80895071D01*
X114827714Y-80895071D01*
X114684857Y-80966500D01*
X114613428Y-81037928D01*
X114542000Y-81180785D01*
X114542000Y-81609357D01*
X114613428Y-81752214D01*
X114684857Y-81823642D01*
X114827714Y-81895071D01*
X115042000Y-81895071D01*
X114042000Y-80895071D02*
X113756285Y-81895071D01*
X113470571Y-81180785D01*
X113184857Y-81895071D01*
X112899142Y-80895071D01*
X111756285Y-81823642D02*
X111899142Y-81895071D01*
X112184857Y-81895071D01*
X112327714Y-81823642D01*
X112399142Y-81680785D01*
X112399142Y-81109357D01*
X112327714Y-80966500D01*
X112184857Y-80895071D01*
X111899142Y-80895071D01*
X111756285Y-80966500D01*
X111684857Y-81109357D01*
X111684857Y-81252214D01*
X112399142Y-81395071D01*
X111042000Y-81895071D02*
X111042000Y-80895071D01*
X111042000Y-81180785D02*
X110970571Y-81037928D01*
X110899142Y-80966500D01*
X110756285Y-80895071D01*
X110613428Y-80895071D01*
D12*
X110574666Y-75797833D02*
X110574666Y-75628500D01*
X110617000Y-75543833D01*
X110659333Y-75501500D01*
X110786333Y-75416833D01*
X110955666Y-75374500D01*
X111294333Y-75374500D01*
X111379000Y-75416833D01*
X111421333Y-75459166D01*
X111463666Y-75543833D01*
X111463666Y-75713166D01*
X111421333Y-75797833D01*
X111379000Y-75840166D01*
X111294333Y-75882500D01*
X111082666Y-75882500D01*
X110998000Y-75840166D01*
X110955666Y-75797833D01*
X110913333Y-75713166D01*
X110913333Y-75543833D01*
X110955666Y-75459166D01*
X110998000Y-75416833D01*
X111082666Y-75374500D01*
X111125000Y-76263500D02*
X111125000Y-76940833D01*
X110574666Y-77279500D02*
X110574666Y-77829833D01*
X110913333Y-77533500D01*
X110913333Y-77660500D01*
X110955666Y-77745166D01*
X110998000Y-77787500D01*
X111082666Y-77829833D01*
X111294333Y-77829833D01*
X111379000Y-77787500D01*
X111421333Y-77745166D01*
X111463666Y-77660500D01*
X111463666Y-77406500D01*
X111421333Y-77321833D01*
X111379000Y-77279500D01*
X110574666Y-78380166D02*
X110574666Y-78464833D01*
X110617000Y-78549500D01*
X110659333Y-78591833D01*
X110744000Y-78634166D01*
X110913333Y-78676500D01*
X111125000Y-78676500D01*
X111294333Y-78634166D01*
X111379000Y-78591833D01*
X111421333Y-78549500D01*
X111463666Y-78464833D01*
X111463666Y-78380166D01*
X111421333Y-78295500D01*
X111379000Y-78253166D01*
X111294333Y-78210833D01*
X111125000Y-78168500D01*
X110913333Y-78168500D01*
X110744000Y-78210833D01*
X110659333Y-78253166D01*
X110617000Y-78295500D01*
X110574666Y-78380166D01*
X110574666Y-78930500D02*
X111463666Y-79226833D01*
X110574666Y-79523166D01*
X108542666Y-76602166D02*
X108542666Y-76178833D01*
X108966000Y-76136500D01*
X108923666Y-76178833D01*
X108881333Y-76263500D01*
X108881333Y-76475166D01*
X108923666Y-76559833D01*
X108966000Y-76602166D01*
X109050666Y-76644500D01*
X109262333Y-76644500D01*
X109347000Y-76602166D01*
X109389333Y-76559833D01*
X109431666Y-76475166D01*
X109431666Y-76263500D01*
X109389333Y-76178833D01*
X109347000Y-76136500D01*
X108542666Y-76898500D02*
X109431666Y-77194833D01*
X108542666Y-77491166D01*
X106510666Y-75395666D02*
X106510666Y-75946000D01*
X106849333Y-75649666D01*
X106849333Y-75776666D01*
X106891666Y-75861333D01*
X106934000Y-75903666D01*
X107018666Y-75946000D01*
X107230333Y-75946000D01*
X107315000Y-75903666D01*
X107357333Y-75861333D01*
X107399666Y-75776666D01*
X107399666Y-75522666D01*
X107357333Y-75438000D01*
X107315000Y-75395666D01*
X107315000Y-76327000D02*
X107357333Y-76369333D01*
X107399666Y-76327000D01*
X107357333Y-76284666D01*
X107315000Y-76327000D01*
X107399666Y-76327000D01*
X106510666Y-76665666D02*
X106510666Y-77216000D01*
X106849333Y-76919666D01*
X106849333Y-77046666D01*
X106891666Y-77131333D01*
X106934000Y-77173666D01*
X107018666Y-77216000D01*
X107230333Y-77216000D01*
X107315000Y-77173666D01*
X107357333Y-77131333D01*
X107399666Y-77046666D01*
X107399666Y-76792666D01*
X107357333Y-76708000D01*
X107315000Y-76665666D01*
X106510666Y-77470000D02*
X107399666Y-77766333D01*
X106510666Y-78062666D01*
X104457500Y-76094166D02*
X104415166Y-76009500D01*
X104415166Y-75882500D01*
X104457500Y-75755500D01*
X104542166Y-75670833D01*
X104626833Y-75628500D01*
X104796166Y-75586166D01*
X104923166Y-75586166D01*
X105092500Y-75628500D01*
X105177166Y-75670833D01*
X105261833Y-75755500D01*
X105304166Y-75882500D01*
X105304166Y-75967166D01*
X105261833Y-76094166D01*
X105219500Y-76136500D01*
X104923166Y-76136500D01*
X104923166Y-75967166D01*
X105304166Y-76517500D02*
X104415166Y-76517500D01*
X105304166Y-77025500D01*
X104415166Y-77025500D01*
X105304166Y-77448833D02*
X104415166Y-77448833D01*
X104415166Y-77660500D01*
X104457500Y-77787500D01*
X104542166Y-77872166D01*
X104626833Y-77914500D01*
X104796166Y-77956833D01*
X104923166Y-77956833D01*
X105092500Y-77914500D01*
X105177166Y-77872166D01*
X105261833Y-77787500D01*
X105304166Y-77660500D01*
X105304166Y-77448833D01*
D11*
X124471714Y-80998142D02*
X124257428Y-81069571D01*
X123900285Y-81069571D01*
X123757428Y-80998142D01*
X123686000Y-80926714D01*
X123614571Y-80783857D01*
X123614571Y-80641000D01*
X123686000Y-80498142D01*
X123757428Y-80426714D01*
X123900285Y-80355285D01*
X124186000Y-80283857D01*
X124328857Y-80212428D01*
X124400285Y-80141000D01*
X124471714Y-79998142D01*
X124471714Y-79855285D01*
X124400285Y-79712428D01*
X124328857Y-79641000D01*
X124186000Y-79569571D01*
X123828857Y-79569571D01*
X123614571Y-79641000D01*
X122971714Y-81069571D02*
X122971714Y-79569571D01*
X122400285Y-79569571D01*
X122257428Y-79641000D01*
X122186000Y-79712428D01*
X122114571Y-79855285D01*
X122114571Y-80069571D01*
X122186000Y-80212428D01*
X122257428Y-80283857D01*
X122400285Y-80355285D01*
X122971714Y-80355285D01*
X121471714Y-81069571D02*
X121471714Y-79569571D01*
D12*
X115125500Y-75967166D02*
X115083166Y-75882500D01*
X115083166Y-75755500D01*
X115125500Y-75628500D01*
X115210166Y-75543833D01*
X115294833Y-75501500D01*
X115464166Y-75459166D01*
X115591166Y-75459166D01*
X115760500Y-75501500D01*
X115845166Y-75543833D01*
X115929833Y-75628500D01*
X115972166Y-75755500D01*
X115972166Y-75840166D01*
X115929833Y-75967166D01*
X115887500Y-76009500D01*
X115591166Y-76009500D01*
X115591166Y-75840166D01*
X115972166Y-76390500D02*
X115083166Y-76390500D01*
X115972166Y-76898500D01*
X115083166Y-76898500D01*
X115972166Y-77321833D02*
X115083166Y-77321833D01*
X115083166Y-77533500D01*
X115125500Y-77660500D01*
X115210166Y-77745166D01*
X115294833Y-77787500D01*
X115464166Y-77829833D01*
X115591166Y-77829833D01*
X115760500Y-77787500D01*
X115845166Y-77745166D01*
X115929833Y-77660500D01*
X115972166Y-77533500D01*
X115972166Y-77321833D01*
X117877166Y-75607333D02*
X116988166Y-75607333D01*
X116988166Y-75946000D01*
X117030500Y-76030666D01*
X117072833Y-76073000D01*
X117157500Y-76115333D01*
X117284500Y-76115333D01*
X117369166Y-76073000D01*
X117411500Y-76030666D01*
X117453833Y-75946000D01*
X117453833Y-75607333D01*
X117877166Y-76496333D02*
X116988166Y-76496333D01*
X116988166Y-76708000D01*
X117030500Y-76835000D01*
X117115166Y-76919666D01*
X117199833Y-76962000D01*
X117369166Y-77004333D01*
X117496166Y-77004333D01*
X117665500Y-76962000D01*
X117750166Y-76919666D01*
X117834833Y-76835000D01*
X117877166Y-76708000D01*
X117877166Y-76496333D01*
X117284500Y-77766333D02*
X117877166Y-77766333D01*
X116945833Y-77554666D02*
X117580833Y-77343000D01*
X117580833Y-77893333D01*
X119972666Y-75607333D02*
X119083666Y-75607333D01*
X119083666Y-75946000D01*
X119126000Y-76030666D01*
X119168333Y-76073000D01*
X119253000Y-76115333D01*
X119380000Y-76115333D01*
X119464666Y-76073000D01*
X119507000Y-76030666D01*
X119549333Y-75946000D01*
X119549333Y-75607333D01*
X119972666Y-76496333D02*
X119083666Y-76496333D01*
X119083666Y-76708000D01*
X119126000Y-76835000D01*
X119210666Y-76919666D01*
X119295333Y-76962000D01*
X119464666Y-77004333D01*
X119591666Y-77004333D01*
X119761000Y-76962000D01*
X119845666Y-76919666D01*
X119930333Y-76835000D01*
X119972666Y-76708000D01*
X119972666Y-76496333D01*
X119083666Y-77300666D02*
X119083666Y-77851000D01*
X119422333Y-77554666D01*
X119422333Y-77681666D01*
X119464666Y-77766333D01*
X119507000Y-77808666D01*
X119591666Y-77851000D01*
X119803333Y-77851000D01*
X119888000Y-77808666D01*
X119930333Y-77766333D01*
X119972666Y-77681666D01*
X119972666Y-77427666D01*
X119930333Y-77343000D01*
X119888000Y-77300666D01*
X122004666Y-75607333D02*
X121115666Y-75607333D01*
X121115666Y-75946000D01*
X121158000Y-76030666D01*
X121200333Y-76073000D01*
X121285000Y-76115333D01*
X121412000Y-76115333D01*
X121496666Y-76073000D01*
X121539000Y-76030666D01*
X121581333Y-75946000D01*
X121581333Y-75607333D01*
X122004666Y-76496333D02*
X121115666Y-76496333D01*
X121115666Y-76708000D01*
X121158000Y-76835000D01*
X121242666Y-76919666D01*
X121327333Y-76962000D01*
X121496666Y-77004333D01*
X121623666Y-77004333D01*
X121793000Y-76962000D01*
X121877666Y-76919666D01*
X121962333Y-76835000D01*
X122004666Y-76708000D01*
X122004666Y-76496333D01*
X121200333Y-77343000D02*
X121158000Y-77385333D01*
X121115666Y-77470000D01*
X121115666Y-77681666D01*
X121158000Y-77766333D01*
X121200333Y-77808666D01*
X121285000Y-77851000D01*
X121369666Y-77851000D01*
X121496666Y-77808666D01*
X122004666Y-77300666D01*
X122004666Y-77851000D01*
X124036666Y-75628500D02*
X123147666Y-75628500D01*
X123782666Y-75924833D01*
X123147666Y-76221166D01*
X124036666Y-76221166D01*
X123147666Y-76813833D02*
X123147666Y-76983166D01*
X123190000Y-77067833D01*
X123274666Y-77152500D01*
X123444000Y-77194833D01*
X123740333Y-77194833D01*
X123909666Y-77152500D01*
X123994333Y-77067833D01*
X124036666Y-76983166D01*
X124036666Y-76813833D01*
X123994333Y-76729166D01*
X123909666Y-76644500D01*
X123740333Y-76602166D01*
X123444000Y-76602166D01*
X123274666Y-76644500D01*
X123190000Y-76729166D01*
X123147666Y-76813833D01*
X123994333Y-77533500D02*
X124036666Y-77660500D01*
X124036666Y-77872166D01*
X123994333Y-77956833D01*
X123952000Y-77999166D01*
X123867333Y-78041500D01*
X123782666Y-78041500D01*
X123698000Y-77999166D01*
X123655666Y-77956833D01*
X123613333Y-77872166D01*
X123571000Y-77702833D01*
X123528666Y-77618166D01*
X123486333Y-77575833D01*
X123401666Y-77533500D01*
X123317000Y-77533500D01*
X123232333Y-77575833D01*
X123190000Y-77618166D01*
X123147666Y-77702833D01*
X123147666Y-77914500D01*
X123190000Y-78041500D01*
X124036666Y-78422500D02*
X123147666Y-78422500D01*
X126068666Y-75628500D02*
X125179666Y-75628500D01*
X125814666Y-75924833D01*
X125179666Y-76221166D01*
X126068666Y-76221166D01*
X126068666Y-76644500D02*
X125179666Y-76644500D01*
X126026333Y-77025500D02*
X126068666Y-77152500D01*
X126068666Y-77364166D01*
X126026333Y-77448833D01*
X125984000Y-77491166D01*
X125899333Y-77533500D01*
X125814666Y-77533500D01*
X125730000Y-77491166D01*
X125687666Y-77448833D01*
X125645333Y-77364166D01*
X125603000Y-77194833D01*
X125560666Y-77110166D01*
X125518333Y-77067833D01*
X125433666Y-77025500D01*
X125349000Y-77025500D01*
X125264333Y-77067833D01*
X125222000Y-77110166D01*
X125179666Y-77194833D01*
X125179666Y-77406500D01*
X125222000Y-77533500D01*
X125179666Y-78083833D02*
X125179666Y-78253166D01*
X125222000Y-78337833D01*
X125306666Y-78422500D01*
X125476000Y-78464833D01*
X125772333Y-78464833D01*
X125941666Y-78422500D01*
X126026333Y-78337833D01*
X126068666Y-78253166D01*
X126068666Y-78083833D01*
X126026333Y-77999166D01*
X125941666Y-77914500D01*
X125772333Y-77872166D01*
X125476000Y-77872166D01*
X125306666Y-77914500D01*
X125222000Y-77999166D01*
X125179666Y-78083833D01*
X127994833Y-75628500D02*
X128037166Y-75755500D01*
X128037166Y-75967166D01*
X127994833Y-76051833D01*
X127952500Y-76094166D01*
X127867833Y-76136500D01*
X127783166Y-76136500D01*
X127698500Y-76094166D01*
X127656166Y-76051833D01*
X127613833Y-75967166D01*
X127571500Y-75797833D01*
X127529166Y-75713166D01*
X127486833Y-75670833D01*
X127402166Y-75628500D01*
X127317500Y-75628500D01*
X127232833Y-75670833D01*
X127190500Y-75713166D01*
X127148166Y-75797833D01*
X127148166Y-76009500D01*
X127190500Y-76136500D01*
X127952500Y-77025500D02*
X127994833Y-76983166D01*
X128037166Y-76856166D01*
X128037166Y-76771500D01*
X127994833Y-76644500D01*
X127910166Y-76559833D01*
X127825500Y-76517500D01*
X127656166Y-76475166D01*
X127529166Y-76475166D01*
X127359833Y-76517500D01*
X127275166Y-76559833D01*
X127190500Y-76644500D01*
X127148166Y-76771500D01*
X127148166Y-76856166D01*
X127190500Y-76983166D01*
X127232833Y-77025500D01*
X128037166Y-77406500D02*
X127148166Y-77406500D01*
X128037166Y-77914500D02*
X127529166Y-77533500D01*
X127148166Y-77914500D02*
X127656166Y-77406500D01*
X129116666Y-75649666D02*
X129116666Y-76200000D01*
X129455333Y-75903666D01*
X129455333Y-76030666D01*
X129497666Y-76115333D01*
X129540000Y-76157666D01*
X129624666Y-76200000D01*
X129836333Y-76200000D01*
X129921000Y-76157666D01*
X129963333Y-76115333D01*
X130005666Y-76030666D01*
X130005666Y-75776666D01*
X129963333Y-75692000D01*
X129921000Y-75649666D01*
X129921000Y-76581000D02*
X129963333Y-76623333D01*
X130005666Y-76581000D01*
X129963333Y-76538666D01*
X129921000Y-76581000D01*
X130005666Y-76581000D01*
X129116666Y-76919666D02*
X129116666Y-77470000D01*
X129455333Y-77173666D01*
X129455333Y-77300666D01*
X129497666Y-77385333D01*
X129540000Y-77427666D01*
X129624666Y-77470000D01*
X129836333Y-77470000D01*
X129921000Y-77427666D01*
X129963333Y-77385333D01*
X130005666Y-77300666D01*
X130005666Y-77046666D01*
X129963333Y-76962000D01*
X129921000Y-76919666D01*
X129116666Y-77724000D02*
X130005666Y-78020333D01*
X129116666Y-78316666D01*
X147531666Y-75565000D02*
X146642666Y-75565000D01*
X147531666Y-76073000D01*
X146642666Y-76073000D01*
X147447000Y-77004333D02*
X147489333Y-76962000D01*
X147531666Y-76835000D01*
X147531666Y-76750333D01*
X147489333Y-76623333D01*
X147404666Y-76538666D01*
X147320000Y-76496333D01*
X147150666Y-76454000D01*
X147023666Y-76454000D01*
X146854333Y-76496333D01*
X146769666Y-76538666D01*
X146685000Y-76623333D01*
X146642666Y-76750333D01*
X146642666Y-76835000D01*
X146685000Y-76962000D01*
X146727333Y-77004333D01*
D11*
X139179857Y-81220571D02*
X139179857Y-82434857D01*
X139108428Y-82577714D01*
X139037000Y-82649142D01*
X138894142Y-82720571D01*
X138608428Y-82720571D01*
X138465571Y-82649142D01*
X138394142Y-82577714D01*
X138322714Y-82434857D01*
X138322714Y-81220571D01*
X137679857Y-82649142D02*
X137465571Y-82720571D01*
X137108428Y-82720571D01*
X136965571Y-82649142D01*
X136894142Y-82577714D01*
X136822714Y-82434857D01*
X136822714Y-82292000D01*
X136894142Y-82149142D01*
X136965571Y-82077714D01*
X137108428Y-82006285D01*
X137394142Y-81934857D01*
X137537000Y-81863428D01*
X137608428Y-81792000D01*
X137679857Y-81649142D01*
X137679857Y-81506285D01*
X137608428Y-81363428D01*
X137537000Y-81292000D01*
X137394142Y-81220571D01*
X137037000Y-81220571D01*
X136822714Y-81292000D01*
X135679857Y-81934857D02*
X135465571Y-82006285D01*
X135394142Y-82077714D01*
X135322714Y-82220571D01*
X135322714Y-82434857D01*
X135394142Y-82577714D01*
X135465571Y-82649142D01*
X135608428Y-82720571D01*
X136179857Y-82720571D01*
X136179857Y-81220571D01*
X135679857Y-81220571D01*
X135537000Y-81292000D01*
X135465571Y-81363428D01*
X135394142Y-81506285D01*
X135394142Y-81649142D01*
X135465571Y-81792000D01*
X135537000Y-81863428D01*
X135679857Y-81934857D01*
X136179857Y-81934857D01*
X154626214Y-81569642D02*
X154411928Y-81641071D01*
X154054785Y-81641071D01*
X153911928Y-81569642D01*
X153840500Y-81498214D01*
X153769071Y-81355357D01*
X153769071Y-81212500D01*
X153840500Y-81069642D01*
X153911928Y-80998214D01*
X154054785Y-80926785D01*
X154340500Y-80855357D01*
X154483357Y-80783928D01*
X154554785Y-80712500D01*
X154626214Y-80569642D01*
X154626214Y-80426785D01*
X154554785Y-80283928D01*
X154483357Y-80212500D01*
X154340500Y-80141071D01*
X153983357Y-80141071D01*
X153769071Y-80212500D01*
X153269071Y-80141071D02*
X152911928Y-81641071D01*
X152626214Y-80569642D01*
X152340500Y-81641071D01*
X151983357Y-80141071D01*
X151411928Y-81641071D02*
X151411928Y-80141071D01*
X151054785Y-80141071D01*
X150840500Y-80212500D01*
X150697642Y-80355357D01*
X150626214Y-80498214D01*
X150554785Y-80783928D01*
X150554785Y-80998214D01*
X150626214Y-81283928D01*
X150697642Y-81426785D01*
X150840500Y-81569642D01*
X151054785Y-81641071D01*
X151411928Y-81641071D01*
D12*
X156548666Y-75459166D02*
X156548666Y-76009500D01*
X156887333Y-75713166D01*
X156887333Y-75840166D01*
X156929666Y-75924833D01*
X156972000Y-75967166D01*
X157056666Y-76009500D01*
X157268333Y-76009500D01*
X157353000Y-75967166D01*
X157395333Y-75924833D01*
X157437666Y-75840166D01*
X157437666Y-75586166D01*
X157395333Y-75501500D01*
X157353000Y-75459166D01*
X157353000Y-76390500D02*
X157395333Y-76432833D01*
X157437666Y-76390500D01*
X157395333Y-76348166D01*
X157353000Y-76390500D01*
X157437666Y-76390500D01*
X156548666Y-76729166D02*
X156548666Y-77279500D01*
X156887333Y-76983166D01*
X156887333Y-77110166D01*
X156929666Y-77194833D01*
X156972000Y-77237166D01*
X157056666Y-77279500D01*
X157268333Y-77279500D01*
X157353000Y-77237166D01*
X157395333Y-77194833D01*
X157437666Y-77110166D01*
X157437666Y-76856166D01*
X157395333Y-76771500D01*
X157353000Y-76729166D01*
X156548666Y-77533500D02*
X157437666Y-77829833D01*
X156548666Y-78126166D01*
X149436666Y-75565000D02*
X148547666Y-75565000D01*
X149436666Y-76073000D01*
X148547666Y-76073000D01*
X149436666Y-77004333D02*
X149013333Y-76708000D01*
X149436666Y-76496333D02*
X148547666Y-76496333D01*
X148547666Y-76835000D01*
X148590000Y-76919666D01*
X148632333Y-76962000D01*
X148717000Y-77004333D01*
X148844000Y-77004333D01*
X148928666Y-76962000D01*
X148971000Y-76919666D01*
X149013333Y-76835000D01*
X149013333Y-76496333D01*
X149394333Y-77343000D02*
X149436666Y-77470000D01*
X149436666Y-77681666D01*
X149394333Y-77766333D01*
X149352000Y-77808666D01*
X149267333Y-77851000D01*
X149182666Y-77851000D01*
X149098000Y-77808666D01*
X149055666Y-77766333D01*
X149013333Y-77681666D01*
X148971000Y-77512333D01*
X148928666Y-77427666D01*
X148886333Y-77385333D01*
X148801666Y-77343000D01*
X148717000Y-77343000D01*
X148632333Y-77385333D01*
X148590000Y-77427666D01*
X148547666Y-77512333D01*
X148547666Y-77724000D01*
X148590000Y-77851000D01*
X148547666Y-78105000D02*
X148547666Y-78613000D01*
X149436666Y-78359000D02*
X148547666Y-78359000D01*
X151426333Y-75586166D02*
X151468666Y-75713166D01*
X151468666Y-75924833D01*
X151426333Y-76009500D01*
X151384000Y-76051833D01*
X151299333Y-76094166D01*
X151214666Y-76094166D01*
X151130000Y-76051833D01*
X151087666Y-76009500D01*
X151045333Y-75924833D01*
X151003000Y-75755500D01*
X150960666Y-75670833D01*
X150918333Y-75628500D01*
X150833666Y-75586166D01*
X150749000Y-75586166D01*
X150664333Y-75628500D01*
X150622000Y-75670833D01*
X150579666Y-75755500D01*
X150579666Y-75967166D01*
X150622000Y-76094166D01*
X150579666Y-76390500D02*
X151468666Y-76602166D01*
X150833666Y-76771500D01*
X151468666Y-76940833D01*
X150579666Y-77152500D01*
X151468666Y-77491166D02*
X150579666Y-77491166D01*
X150579666Y-77702833D01*
X150622000Y-77829833D01*
X150706666Y-77914500D01*
X150791333Y-77956833D01*
X150960666Y-77999166D01*
X151087666Y-77999166D01*
X151257000Y-77956833D01*
X151341666Y-77914500D01*
X151426333Y-77829833D01*
X151468666Y-77702833D01*
X151468666Y-77491166D01*
X151468666Y-78380166D02*
X150579666Y-78380166D01*
X150579666Y-78972833D02*
X150579666Y-79142166D01*
X150622000Y-79226833D01*
X150706666Y-79311500D01*
X150876000Y-79353833D01*
X151172333Y-79353833D01*
X151341666Y-79311500D01*
X151426333Y-79226833D01*
X151468666Y-79142166D01*
X151468666Y-78972833D01*
X151426333Y-78888166D01*
X151341666Y-78803500D01*
X151172333Y-78761166D01*
X150876000Y-78761166D01*
X150706666Y-78803500D01*
X150622000Y-78888166D01*
X150579666Y-78972833D01*
X152590500Y-76030666D02*
X152548166Y-75946000D01*
X152548166Y-75819000D01*
X152590500Y-75692000D01*
X152675166Y-75607333D01*
X152759833Y-75565000D01*
X152929166Y-75522666D01*
X153056166Y-75522666D01*
X153225500Y-75565000D01*
X153310166Y-75607333D01*
X153394833Y-75692000D01*
X153437166Y-75819000D01*
X153437166Y-75903666D01*
X153394833Y-76030666D01*
X153352500Y-76073000D01*
X153056166Y-76073000D01*
X153056166Y-75903666D01*
X153437166Y-76454000D02*
X152548166Y-76454000D01*
X153437166Y-76962000D01*
X152548166Y-76962000D01*
X153437166Y-77385333D02*
X152548166Y-77385333D01*
X152548166Y-77597000D01*
X152590500Y-77724000D01*
X152675166Y-77808666D01*
X152759833Y-77851000D01*
X152929166Y-77893333D01*
X153056166Y-77893333D01*
X153225500Y-77851000D01*
X153310166Y-77808666D01*
X153394833Y-77724000D01*
X153437166Y-77597000D01*
X153437166Y-77385333D01*
X155426833Y-75522666D02*
X155469166Y-75649666D01*
X155469166Y-75861333D01*
X155426833Y-75946000D01*
X155384500Y-75988333D01*
X155299833Y-76030666D01*
X155215166Y-76030666D01*
X155130500Y-75988333D01*
X155088166Y-75946000D01*
X155045833Y-75861333D01*
X155003500Y-75692000D01*
X154961166Y-75607333D01*
X154918833Y-75565000D01*
X154834166Y-75522666D01*
X154749500Y-75522666D01*
X154664833Y-75565000D01*
X154622500Y-75607333D01*
X154580166Y-75692000D01*
X154580166Y-75903666D01*
X154622500Y-76030666D01*
X154580166Y-76327000D02*
X155469166Y-76538666D01*
X154834166Y-76708000D01*
X155469166Y-76877333D01*
X154580166Y-77089000D01*
X155384500Y-77935666D02*
X155426833Y-77893333D01*
X155469166Y-77766333D01*
X155469166Y-77681666D01*
X155426833Y-77554666D01*
X155342166Y-77470000D01*
X155257500Y-77427666D01*
X155088166Y-77385333D01*
X154961166Y-77385333D01*
X154791833Y-77427666D01*
X154707166Y-77470000D01*
X154622500Y-77554666D01*
X154580166Y-77681666D01*
X154580166Y-77766333D01*
X154622500Y-77893333D01*
X154664833Y-77935666D01*
X155469166Y-78740000D02*
X155469166Y-78316666D01*
X154580166Y-78316666D01*
X155469166Y-79036333D02*
X154580166Y-79036333D01*
X155469166Y-79544333D02*
X154961166Y-79163333D01*
X154580166Y-79544333D02*
X155088166Y-79036333D01*
D11*
X112851285Y-119661714D02*
X112922714Y-119733142D01*
X113137000Y-119804571D01*
X113279857Y-119804571D01*
X113494142Y-119733142D01*
X113637000Y-119590285D01*
X113708428Y-119447428D01*
X113779857Y-119161714D01*
X113779857Y-118947428D01*
X113708428Y-118661714D01*
X113637000Y-118518857D01*
X113494142Y-118376000D01*
X113279857Y-118304571D01*
X113137000Y-118304571D01*
X112922714Y-118376000D01*
X112851285Y-118447428D01*
X112279857Y-119376000D02*
X111565571Y-119376000D01*
X112422714Y-119804571D02*
X111922714Y-118304571D01*
X111422714Y-119804571D01*
X110922714Y-119804571D02*
X110922714Y-118304571D01*
X110065571Y-119804571D01*
X110065571Y-118304571D01*
X119645785Y-119661714D02*
X119717214Y-119733142D01*
X119931500Y-119804571D01*
X120074357Y-119804571D01*
X120288642Y-119733142D01*
X120431500Y-119590285D01*
X120502928Y-119447428D01*
X120574357Y-119161714D01*
X120574357Y-118947428D01*
X120502928Y-118661714D01*
X120431500Y-118518857D01*
X120288642Y-118376000D01*
X120074357Y-118304571D01*
X119931500Y-118304571D01*
X119717214Y-118376000D01*
X119645785Y-118447428D01*
X119074357Y-119376000D02*
X118360071Y-119376000D01*
X119217214Y-119804571D02*
X118717214Y-118304571D01*
X118217214Y-119804571D01*
X117717214Y-119804571D02*
X117717214Y-118304571D01*
X116860071Y-119804571D01*
X116860071Y-118304571D01*
D12*
X117919500Y-120882833D02*
X117961833Y-120840500D01*
X118004166Y-120713500D01*
X118004166Y-120628833D01*
X117961833Y-120501833D01*
X117877166Y-120417166D01*
X117792500Y-120374833D01*
X117623166Y-120332500D01*
X117496166Y-120332500D01*
X117326833Y-120374833D01*
X117242166Y-120417166D01*
X117157500Y-120501833D01*
X117115166Y-120628833D01*
X117115166Y-120713500D01*
X117157500Y-120840500D01*
X117199833Y-120882833D01*
X117750166Y-121221500D02*
X117750166Y-121644833D01*
X118004166Y-121136833D02*
X117115166Y-121433166D01*
X118004166Y-121729500D01*
X118004166Y-122025833D02*
X117115166Y-122025833D01*
X118004166Y-122533833D01*
X117115166Y-122533833D01*
X118004166Y-122957166D02*
X117115166Y-122957166D01*
X117538500Y-122957166D02*
X117538500Y-123465166D01*
X118004166Y-123465166D02*
X117115166Y-123465166D01*
X119951500Y-120861666D02*
X119993833Y-120819333D01*
X120036166Y-120692333D01*
X120036166Y-120607666D01*
X119993833Y-120480666D01*
X119909166Y-120396000D01*
X119824500Y-120353666D01*
X119655166Y-120311333D01*
X119528166Y-120311333D01*
X119358833Y-120353666D01*
X119274166Y-120396000D01*
X119189500Y-120480666D01*
X119147166Y-120607666D01*
X119147166Y-120692333D01*
X119189500Y-120819333D01*
X119231833Y-120861666D01*
X119782166Y-121200333D02*
X119782166Y-121623666D01*
X120036166Y-121115666D02*
X119147166Y-121412000D01*
X120036166Y-121708333D01*
X120036166Y-122004666D02*
X119147166Y-122004666D01*
X120036166Y-122512666D01*
X119147166Y-122512666D01*
X120036166Y-123359333D02*
X120036166Y-122936000D01*
X119147166Y-122936000D01*
X107315000Y-121009833D02*
X107357333Y-120967500D01*
X107399666Y-120840500D01*
X107399666Y-120755833D01*
X107357333Y-120628833D01*
X107272666Y-120544166D01*
X107188000Y-120501833D01*
X107018666Y-120459500D01*
X106891666Y-120459500D01*
X106722333Y-120501833D01*
X106637666Y-120544166D01*
X106553000Y-120628833D01*
X106510666Y-120755833D01*
X106510666Y-120840500D01*
X106553000Y-120967500D01*
X106595333Y-121009833D01*
X107145666Y-121348500D02*
X107145666Y-121771833D01*
X107399666Y-121263833D02*
X106510666Y-121560166D01*
X107399666Y-121856500D01*
X107399666Y-122152833D02*
X106510666Y-122152833D01*
X107399666Y-122660833D01*
X106510666Y-122660833D01*
X107399666Y-123084166D02*
X106510666Y-123084166D01*
X106934000Y-123084166D02*
X106934000Y-123592166D01*
X107399666Y-123592166D02*
X106510666Y-123592166D01*
X109410500Y-120988666D02*
X109452833Y-120946333D01*
X109495166Y-120819333D01*
X109495166Y-120734666D01*
X109452833Y-120607666D01*
X109368166Y-120523000D01*
X109283500Y-120480666D01*
X109114166Y-120438333D01*
X108987166Y-120438333D01*
X108817833Y-120480666D01*
X108733166Y-120523000D01*
X108648500Y-120607666D01*
X108606166Y-120734666D01*
X108606166Y-120819333D01*
X108648500Y-120946333D01*
X108690833Y-120988666D01*
X109241166Y-121327333D02*
X109241166Y-121750666D01*
X109495166Y-121242666D02*
X108606166Y-121539000D01*
X109495166Y-121835333D01*
X109495166Y-122131666D02*
X108606166Y-122131666D01*
X109495166Y-122639666D01*
X108606166Y-122639666D01*
X109495166Y-123486333D02*
X109495166Y-123063000D01*
X108606166Y-123063000D01*
X104415166Y-122385666D02*
X104415166Y-121962333D01*
X104838500Y-121920000D01*
X104796166Y-121962333D01*
X104753833Y-122047000D01*
X104753833Y-122258666D01*
X104796166Y-122343333D01*
X104838500Y-122385666D01*
X104923166Y-122428000D01*
X105134833Y-122428000D01*
X105219500Y-122385666D01*
X105261833Y-122343333D01*
X105304166Y-122258666D01*
X105304166Y-122047000D01*
X105261833Y-121962333D01*
X105219500Y-121920000D01*
X104415166Y-122682000D02*
X105304166Y-122978333D01*
X104415166Y-123274666D01*
X115019666Y-122258666D02*
X115019666Y-121835333D01*
X115443000Y-121793000D01*
X115400666Y-121835333D01*
X115358333Y-121920000D01*
X115358333Y-122131666D01*
X115400666Y-122216333D01*
X115443000Y-122258666D01*
X115527666Y-122301000D01*
X115739333Y-122301000D01*
X115824000Y-122258666D01*
X115866333Y-122216333D01*
X115908666Y-122131666D01*
X115908666Y-121920000D01*
X115866333Y-121835333D01*
X115824000Y-121793000D01*
X115019666Y-122555000D02*
X115908666Y-122851333D01*
X115019666Y-123147666D01*
X110553500Y-121687166D02*
X110511166Y-121602500D01*
X110511166Y-121475500D01*
X110553500Y-121348500D01*
X110638166Y-121263833D01*
X110722833Y-121221500D01*
X110892166Y-121179166D01*
X111019166Y-121179166D01*
X111188500Y-121221500D01*
X111273166Y-121263833D01*
X111357833Y-121348500D01*
X111400166Y-121475500D01*
X111400166Y-121560166D01*
X111357833Y-121687166D01*
X111315500Y-121729500D01*
X111019166Y-121729500D01*
X111019166Y-121560166D01*
X111400166Y-122110500D02*
X110511166Y-122110500D01*
X111400166Y-122618500D01*
X110511166Y-122618500D01*
X111400166Y-123041833D02*
X110511166Y-123041833D01*
X110511166Y-123253500D01*
X110553500Y-123380500D01*
X110638166Y-123465166D01*
X110722833Y-123507500D01*
X110892166Y-123549833D01*
X111019166Y-123549833D01*
X111188500Y-123507500D01*
X111273166Y-123465166D01*
X111357833Y-123380500D01*
X111400166Y-123253500D01*
X111400166Y-123041833D01*
X121094500Y-121750666D02*
X121052166Y-121666000D01*
X121052166Y-121539000D01*
X121094500Y-121412000D01*
X121179166Y-121327333D01*
X121263833Y-121285000D01*
X121433166Y-121242666D01*
X121560166Y-121242666D01*
X121729500Y-121285000D01*
X121814166Y-121327333D01*
X121898833Y-121412000D01*
X121941166Y-121539000D01*
X121941166Y-121623666D01*
X121898833Y-121750666D01*
X121856500Y-121793000D01*
X121560166Y-121793000D01*
X121560166Y-121623666D01*
X121941166Y-122174000D02*
X121052166Y-122174000D01*
X121941166Y-122682000D01*
X121052166Y-122682000D01*
X121941166Y-123105333D02*
X121052166Y-123105333D01*
X121052166Y-123317000D01*
X121094500Y-123444000D01*
X121179166Y-123528666D01*
X121263833Y-123571000D01*
X121433166Y-123613333D01*
X121560166Y-123613333D01*
X121729500Y-123571000D01*
X121814166Y-123528666D01*
X121898833Y-123444000D01*
X121941166Y-123317000D01*
X121941166Y-123105333D01*
X127656166Y-121750666D02*
X127656166Y-122258666D01*
X128545166Y-122004666D02*
X127656166Y-122004666D01*
X127656166Y-122470333D02*
X128545166Y-123063000D01*
X127656166Y-123063000D02*
X128545166Y-122470333D01*
X130577166Y-122279833D02*
X130153833Y-121983500D01*
X130577166Y-121771833D02*
X129688166Y-121771833D01*
X129688166Y-122110500D01*
X129730500Y-122195166D01*
X129772833Y-122237500D01*
X129857500Y-122279833D01*
X129984500Y-122279833D01*
X130069166Y-122237500D01*
X130111500Y-122195166D01*
X130153833Y-122110500D01*
X130153833Y-121771833D01*
X129688166Y-122576166D02*
X130577166Y-123168833D01*
X129688166Y-123168833D02*
X130577166Y-122576166D01*
D11*
X131488357Y-118304571D02*
X131488357Y-119518857D01*
X131416928Y-119661714D01*
X131345500Y-119733142D01*
X131202642Y-119804571D01*
X130916928Y-119804571D01*
X130774071Y-119733142D01*
X130702642Y-119661714D01*
X130631214Y-119518857D01*
X130631214Y-118304571D01*
X129988357Y-119376000D02*
X129274071Y-119376000D01*
X130131214Y-119804571D02*
X129631214Y-118304571D01*
X129131214Y-119804571D01*
X127774071Y-119804571D02*
X128274071Y-119090285D01*
X128631214Y-119804571D02*
X128631214Y-118304571D01*
X128059785Y-118304571D01*
X127916928Y-118376000D01*
X127845500Y-118447428D01*
X127774071Y-118590285D01*
X127774071Y-118804571D01*
X127845500Y-118947428D01*
X127916928Y-119018857D01*
X128059785Y-119090285D01*
X128631214Y-119090285D01*
X127345500Y-118304571D02*
X126488357Y-118304571D01*
X126916928Y-119804571D02*
X126916928Y-118304571D01*
D12*
X131635500Y-121750666D02*
X131593166Y-121666000D01*
X131593166Y-121539000D01*
X131635500Y-121412000D01*
X131720166Y-121327333D01*
X131804833Y-121285000D01*
X131974166Y-121242666D01*
X132101166Y-121242666D01*
X132270500Y-121285000D01*
X132355166Y-121327333D01*
X132439833Y-121412000D01*
X132482166Y-121539000D01*
X132482166Y-121623666D01*
X132439833Y-121750666D01*
X132397500Y-121793000D01*
X132101166Y-121793000D01*
X132101166Y-121623666D01*
X132482166Y-122174000D02*
X131593166Y-122174000D01*
X132482166Y-122682000D01*
X131593166Y-122682000D01*
X132482166Y-123105333D02*
X131593166Y-123105333D01*
X131593166Y-123317000D01*
X131635500Y-123444000D01*
X131720166Y-123528666D01*
X131804833Y-123571000D01*
X131974166Y-123613333D01*
X132101166Y-123613333D01*
X132270500Y-123571000D01*
X132355166Y-123528666D01*
X132439833Y-123444000D01*
X132482166Y-123317000D01*
X132482166Y-123105333D01*
X125624166Y-120798166D02*
X125624166Y-121348500D01*
X125962833Y-121052166D01*
X125962833Y-121179166D01*
X126005166Y-121263833D01*
X126047500Y-121306166D01*
X126132166Y-121348500D01*
X126343833Y-121348500D01*
X126428500Y-121306166D01*
X126470833Y-121263833D01*
X126513166Y-121179166D01*
X126513166Y-120925166D01*
X126470833Y-120840500D01*
X126428500Y-120798166D01*
X126428500Y-121729500D02*
X126470833Y-121771833D01*
X126513166Y-121729500D01*
X126470833Y-121687166D01*
X126428500Y-121729500D01*
X126513166Y-121729500D01*
X125624166Y-122068166D02*
X125624166Y-122618500D01*
X125962833Y-122322166D01*
X125962833Y-122449166D01*
X126005166Y-122533833D01*
X126047500Y-122576166D01*
X126132166Y-122618500D01*
X126343833Y-122618500D01*
X126428500Y-122576166D01*
X126470833Y-122533833D01*
X126513166Y-122449166D01*
X126513166Y-122195166D01*
X126470833Y-122110500D01*
X126428500Y-122068166D01*
X125624166Y-122872500D02*
X126513166Y-123168833D01*
X125624166Y-123465166D01*
D11*
X141164285Y-120185571D02*
X141164285Y-118685571D01*
X140521428Y-118828428D02*
X140450000Y-118757000D01*
X140307142Y-118685571D01*
X139950000Y-118685571D01*
X139807142Y-118757000D01*
X139735714Y-118828428D01*
X139664285Y-118971285D01*
X139664285Y-119114142D01*
X139735714Y-119328428D01*
X140592857Y-120185571D01*
X139664285Y-120185571D01*
X138164285Y-120042714D02*
X138235714Y-120114142D01*
X138450000Y-120185571D01*
X138592857Y-120185571D01*
X138807142Y-120114142D01*
X138950000Y-119971285D01*
X139021428Y-119828428D01*
X139092857Y-119542714D01*
X139092857Y-119328428D01*
X139021428Y-119042714D01*
X138950000Y-118899857D01*
X138807142Y-118757000D01*
X138592857Y-118685571D01*
X138450000Y-118685571D01*
X138235714Y-118757000D01*
X138164285Y-118828428D01*
D12*
X142240000Y-121941166D02*
X142197666Y-121856500D01*
X142197666Y-121729500D01*
X142240000Y-121602500D01*
X142324666Y-121517833D01*
X142409333Y-121475500D01*
X142578666Y-121433166D01*
X142705666Y-121433166D01*
X142875000Y-121475500D01*
X142959666Y-121517833D01*
X143044333Y-121602500D01*
X143086666Y-121729500D01*
X143086666Y-121814166D01*
X143044333Y-121941166D01*
X143002000Y-121983500D01*
X142705666Y-121983500D01*
X142705666Y-121814166D01*
X143086666Y-122364500D02*
X142197666Y-122364500D01*
X143086666Y-122872500D01*
X142197666Y-122872500D01*
X143086666Y-123295833D02*
X142197666Y-123295833D01*
X142197666Y-123507500D01*
X142240000Y-123634500D01*
X142324666Y-123719166D01*
X142409333Y-123761500D01*
X142578666Y-123803833D01*
X142705666Y-123803833D01*
X142875000Y-123761500D01*
X142959666Y-123719166D01*
X143044333Y-123634500D01*
X143086666Y-123507500D01*
X143086666Y-123295833D01*
X140821833Y-121602500D02*
X140864166Y-121729500D01*
X140864166Y-121941166D01*
X140821833Y-122025833D01*
X140779500Y-122068166D01*
X140694833Y-122110500D01*
X140610166Y-122110500D01*
X140525500Y-122068166D01*
X140483166Y-122025833D01*
X140440833Y-121941166D01*
X140398500Y-121771833D01*
X140356166Y-121687166D01*
X140313833Y-121644833D01*
X140229166Y-121602500D01*
X140144500Y-121602500D01*
X140059833Y-121644833D01*
X140017500Y-121687166D01*
X139975166Y-121771833D01*
X139975166Y-121983500D01*
X140017500Y-122110500D01*
X140864166Y-122491500D02*
X139975166Y-122491500D01*
X139975166Y-122703166D01*
X140017500Y-122830166D01*
X140102166Y-122914833D01*
X140186833Y-122957166D01*
X140356166Y-122999500D01*
X140483166Y-122999500D01*
X140652500Y-122957166D01*
X140737166Y-122914833D01*
X140821833Y-122830166D01*
X140864166Y-122703166D01*
X140864166Y-122491500D01*
X140610166Y-123338166D02*
X140610166Y-123761500D01*
X140864166Y-123253500D02*
X139975166Y-123549833D01*
X140864166Y-123846166D01*
X138916833Y-121560166D02*
X138959166Y-121687166D01*
X138959166Y-121898833D01*
X138916833Y-121983500D01*
X138874500Y-122025833D01*
X138789833Y-122068166D01*
X138705166Y-122068166D01*
X138620500Y-122025833D01*
X138578166Y-121983500D01*
X138535833Y-121898833D01*
X138493500Y-121729500D01*
X138451166Y-121644833D01*
X138408833Y-121602500D01*
X138324166Y-121560166D01*
X138239500Y-121560166D01*
X138154833Y-121602500D01*
X138112500Y-121644833D01*
X138070166Y-121729500D01*
X138070166Y-121941166D01*
X138112500Y-122068166D01*
X138874500Y-122957166D02*
X138916833Y-122914833D01*
X138959166Y-122787833D01*
X138959166Y-122703166D01*
X138916833Y-122576166D01*
X138832166Y-122491500D01*
X138747500Y-122449166D01*
X138578166Y-122406833D01*
X138451166Y-122406833D01*
X138281833Y-122449166D01*
X138197166Y-122491500D01*
X138112500Y-122576166D01*
X138070166Y-122703166D01*
X138070166Y-122787833D01*
X138112500Y-122914833D01*
X138154833Y-122957166D01*
X138959166Y-123761500D02*
X138959166Y-123338166D01*
X138070166Y-123338166D01*
X136101666Y-122152833D02*
X136990666Y-122449166D01*
X136101666Y-122745500D01*
X136652000Y-123041833D02*
X136652000Y-123719166D01*
X136990666Y-123380500D02*
X136313333Y-123380500D01*
D11*
X169536428Y-116709000D02*
X168822142Y-116709000D01*
X169679285Y-117137571D02*
X169179285Y-115637571D01*
X168679285Y-117137571D01*
X168179285Y-117137571D02*
X168179285Y-115637571D01*
X167822142Y-115637571D01*
X167607857Y-115709000D01*
X167465000Y-115851857D01*
X167393571Y-115994714D01*
X167322142Y-116280428D01*
X167322142Y-116494714D01*
X167393571Y-116780428D01*
X167465000Y-116923285D01*
X167607857Y-117066142D01*
X167822142Y-117137571D01*
X168179285Y-117137571D01*
X165822142Y-116994714D02*
X165893571Y-117066142D01*
X166107857Y-117137571D01*
X166250714Y-117137571D01*
X166465000Y-117066142D01*
X166607857Y-116923285D01*
X166679285Y-116780428D01*
X166750714Y-116494714D01*
X166750714Y-116280428D01*
X166679285Y-115994714D01*
X166607857Y-115851857D01*
X166465000Y-115709000D01*
X166250714Y-115637571D01*
X166107857Y-115637571D01*
X165893571Y-115709000D01*
X165822142Y-115780428D01*
X165536428Y-117280428D02*
X164393571Y-117280428D01*
X163250714Y-115709000D02*
X163393571Y-115637571D01*
X163607857Y-115637571D01*
X163822142Y-115709000D01*
X163965000Y-115851857D01*
X164036428Y-115994714D01*
X164107857Y-116280428D01*
X164107857Y-116494714D01*
X164036428Y-116780428D01*
X163965000Y-116923285D01*
X163822142Y-117066142D01*
X163607857Y-117137571D01*
X163465000Y-117137571D01*
X163250714Y-117066142D01*
X163179285Y-116994714D01*
X163179285Y-116494714D01*
X163465000Y-116494714D01*
X162536428Y-117137571D02*
X162536428Y-115637571D01*
X161965000Y-115637571D01*
X161822142Y-115709000D01*
X161750714Y-115780428D01*
X161679285Y-115923285D01*
X161679285Y-116137571D01*
X161750714Y-116280428D01*
X161822142Y-116351857D01*
X161965000Y-116423285D01*
X162536428Y-116423285D01*
X161036428Y-117137571D02*
X161036428Y-115637571D01*
X160036428Y-115637571D02*
X159750714Y-115637571D01*
X159607857Y-115709000D01*
X159465000Y-115851857D01*
X159393571Y-116137571D01*
X159393571Y-116637571D01*
X159465000Y-116923285D01*
X159607857Y-117066142D01*
X159750714Y-117137571D01*
X160036428Y-117137571D01*
X160179285Y-117066142D01*
X160322142Y-116923285D01*
X160393571Y-116637571D01*
X160393571Y-116137571D01*
X160322142Y-115851857D01*
X160179285Y-115709000D01*
X160036428Y-115637571D01*
D12*
X166814500Y-118702666D02*
X166772166Y-118618000D01*
X166772166Y-118491000D01*
X166814500Y-118364000D01*
X166899166Y-118279333D01*
X166983833Y-118237000D01*
X167153166Y-118194666D01*
X167280166Y-118194666D01*
X167449500Y-118237000D01*
X167534166Y-118279333D01*
X167618833Y-118364000D01*
X167661166Y-118491000D01*
X167661166Y-118575666D01*
X167618833Y-118702666D01*
X167576500Y-118745000D01*
X167280166Y-118745000D01*
X167280166Y-118575666D01*
X167661166Y-119126000D02*
X166772166Y-119126000D01*
X167661166Y-119634000D01*
X166772166Y-119634000D01*
X167661166Y-120057333D02*
X166772166Y-120057333D01*
X166772166Y-120269000D01*
X166814500Y-120396000D01*
X166899166Y-120480666D01*
X166983833Y-120523000D01*
X167153166Y-120565333D01*
X167280166Y-120565333D01*
X167449500Y-120523000D01*
X167534166Y-120480666D01*
X167618833Y-120396000D01*
X167661166Y-120269000D01*
X167661166Y-120057333D01*
X166010166Y-118300500D02*
X165121166Y-118300500D01*
X165121166Y-118639166D01*
X165163500Y-118723833D01*
X165205833Y-118766166D01*
X165290500Y-118808500D01*
X165417500Y-118808500D01*
X165502166Y-118766166D01*
X165544500Y-118723833D01*
X165586833Y-118639166D01*
X165586833Y-118300500D01*
X165925500Y-119697500D02*
X165967833Y-119655166D01*
X166010166Y-119528166D01*
X166010166Y-119443500D01*
X165967833Y-119316500D01*
X165883166Y-119231833D01*
X165798500Y-119189500D01*
X165629166Y-119147166D01*
X165502166Y-119147166D01*
X165332833Y-119189500D01*
X165248166Y-119231833D01*
X165163500Y-119316500D01*
X165121166Y-119443500D01*
X165121166Y-119528166D01*
X165163500Y-119655166D01*
X165205833Y-119697500D01*
X165121166Y-119993833D02*
X165121166Y-120544166D01*
X165459833Y-120247833D01*
X165459833Y-120374833D01*
X165502166Y-120459500D01*
X165544500Y-120501833D01*
X165629166Y-120544166D01*
X165840833Y-120544166D01*
X165925500Y-120501833D01*
X165967833Y-120459500D01*
X166010166Y-120374833D01*
X166010166Y-120120833D01*
X165967833Y-120036166D01*
X165925500Y-119993833D01*
X166094833Y-120713500D02*
X166094833Y-121390833D01*
X165756166Y-121560166D02*
X165756166Y-121983500D01*
X166010166Y-121475500D02*
X165121166Y-121771833D01*
X166010166Y-122068166D01*
X166010166Y-122364500D02*
X165121166Y-122364500D01*
X165121166Y-122576166D01*
X165163500Y-122703166D01*
X165248166Y-122787833D01*
X165332833Y-122830166D01*
X165502166Y-122872500D01*
X165629166Y-122872500D01*
X165798500Y-122830166D01*
X165883166Y-122787833D01*
X165967833Y-122703166D01*
X166010166Y-122576166D01*
X166010166Y-122364500D01*
X166010166Y-123719166D02*
X166010166Y-123211166D01*
X166010166Y-123465166D02*
X165121166Y-123465166D01*
X165248166Y-123380500D01*
X165332833Y-123295833D01*
X165375166Y-123211166D01*
X165121166Y-124015500D02*
X165121166Y-124565833D01*
X165459833Y-124269500D01*
X165459833Y-124396500D01*
X165502166Y-124481166D01*
X165544500Y-124523500D01*
X165629166Y-124565833D01*
X165840833Y-124565833D01*
X165925500Y-124523500D01*
X165967833Y-124481166D01*
X166010166Y-124396500D01*
X166010166Y-124142500D01*
X165967833Y-124057833D01*
X165925500Y-124015500D01*
X164486166Y-118300500D02*
X163597166Y-118300500D01*
X163597166Y-118639166D01*
X163639500Y-118723833D01*
X163681833Y-118766166D01*
X163766500Y-118808500D01*
X163893500Y-118808500D01*
X163978166Y-118766166D01*
X164020500Y-118723833D01*
X164062833Y-118639166D01*
X164062833Y-118300500D01*
X164401500Y-119697500D02*
X164443833Y-119655166D01*
X164486166Y-119528166D01*
X164486166Y-119443500D01*
X164443833Y-119316500D01*
X164359166Y-119231833D01*
X164274500Y-119189500D01*
X164105166Y-119147166D01*
X163978166Y-119147166D01*
X163808833Y-119189500D01*
X163724166Y-119231833D01*
X163639500Y-119316500D01*
X163597166Y-119443500D01*
X163597166Y-119528166D01*
X163639500Y-119655166D01*
X163681833Y-119697500D01*
X163681833Y-120036166D02*
X163639500Y-120078500D01*
X163597166Y-120163166D01*
X163597166Y-120374833D01*
X163639500Y-120459500D01*
X163681833Y-120501833D01*
X163766500Y-120544166D01*
X163851166Y-120544166D01*
X163978166Y-120501833D01*
X164486166Y-119993833D01*
X164486166Y-120544166D01*
X164570833Y-120713500D02*
X164570833Y-121390833D01*
X164232166Y-121560166D02*
X164232166Y-121983500D01*
X164486166Y-121475500D02*
X163597166Y-121771833D01*
X164486166Y-122068166D01*
X164486166Y-122364500D02*
X163597166Y-122364500D01*
X163597166Y-122576166D01*
X163639500Y-122703166D01*
X163724166Y-122787833D01*
X163808833Y-122830166D01*
X163978166Y-122872500D01*
X164105166Y-122872500D01*
X164274500Y-122830166D01*
X164359166Y-122787833D01*
X164443833Y-122703166D01*
X164486166Y-122576166D01*
X164486166Y-122364500D01*
X164486166Y-123719166D02*
X164486166Y-123211166D01*
X164486166Y-123465166D02*
X163597166Y-123465166D01*
X163724166Y-123380500D01*
X163808833Y-123295833D01*
X163851166Y-123211166D01*
X163681833Y-124057833D02*
X163639500Y-124100166D01*
X163597166Y-124184833D01*
X163597166Y-124396500D01*
X163639500Y-124481166D01*
X163681833Y-124523500D01*
X163766500Y-124565833D01*
X163851166Y-124565833D01*
X163978166Y-124523500D01*
X164486166Y-124015500D01*
X164486166Y-124565833D01*
X163089166Y-118300500D02*
X162200166Y-118300500D01*
X162200166Y-118639166D01*
X162242500Y-118723833D01*
X162284833Y-118766166D01*
X162369500Y-118808500D01*
X162496500Y-118808500D01*
X162581166Y-118766166D01*
X162623500Y-118723833D01*
X162665833Y-118639166D01*
X162665833Y-118300500D01*
X163004500Y-119697500D02*
X163046833Y-119655166D01*
X163089166Y-119528166D01*
X163089166Y-119443500D01*
X163046833Y-119316500D01*
X162962166Y-119231833D01*
X162877500Y-119189500D01*
X162708166Y-119147166D01*
X162581166Y-119147166D01*
X162411833Y-119189500D01*
X162327166Y-119231833D01*
X162242500Y-119316500D01*
X162200166Y-119443500D01*
X162200166Y-119528166D01*
X162242500Y-119655166D01*
X162284833Y-119697500D01*
X163089166Y-120544166D02*
X163089166Y-120036166D01*
X163089166Y-120290166D02*
X162200166Y-120290166D01*
X162327166Y-120205500D01*
X162411833Y-120120833D01*
X162454166Y-120036166D01*
X163173833Y-120713500D02*
X163173833Y-121390833D01*
X162835166Y-121560166D02*
X162835166Y-121983500D01*
X163089166Y-121475500D02*
X162200166Y-121771833D01*
X163089166Y-122068166D01*
X163089166Y-122364500D02*
X162200166Y-122364500D01*
X162200166Y-122576166D01*
X162242500Y-122703166D01*
X162327166Y-122787833D01*
X162411833Y-122830166D01*
X162581166Y-122872500D01*
X162708166Y-122872500D01*
X162877500Y-122830166D01*
X162962166Y-122787833D01*
X163046833Y-122703166D01*
X163089166Y-122576166D01*
X163089166Y-122364500D01*
X163089166Y-123719166D02*
X163089166Y-123211166D01*
X163089166Y-123465166D02*
X162200166Y-123465166D01*
X162327166Y-123380500D01*
X162411833Y-123295833D01*
X162454166Y-123211166D01*
X163089166Y-124565833D02*
X163089166Y-124057833D01*
X163089166Y-124311833D02*
X162200166Y-124311833D01*
X162327166Y-124227166D01*
X162411833Y-124142500D01*
X162454166Y-124057833D01*
X161565166Y-118300500D02*
X160676166Y-118300500D01*
X160676166Y-118639166D01*
X160718500Y-118723833D01*
X160760833Y-118766166D01*
X160845500Y-118808500D01*
X160972500Y-118808500D01*
X161057166Y-118766166D01*
X161099500Y-118723833D01*
X161141833Y-118639166D01*
X161141833Y-118300500D01*
X161480500Y-119697500D02*
X161522833Y-119655166D01*
X161565166Y-119528166D01*
X161565166Y-119443500D01*
X161522833Y-119316500D01*
X161438166Y-119231833D01*
X161353500Y-119189500D01*
X161184166Y-119147166D01*
X161057166Y-119147166D01*
X160887833Y-119189500D01*
X160803166Y-119231833D01*
X160718500Y-119316500D01*
X160676166Y-119443500D01*
X160676166Y-119528166D01*
X160718500Y-119655166D01*
X160760833Y-119697500D01*
X160676166Y-120247833D02*
X160676166Y-120332500D01*
X160718500Y-120417166D01*
X160760833Y-120459500D01*
X160845500Y-120501833D01*
X161014833Y-120544166D01*
X161226500Y-120544166D01*
X161395833Y-120501833D01*
X161480500Y-120459500D01*
X161522833Y-120417166D01*
X161565166Y-120332500D01*
X161565166Y-120247833D01*
X161522833Y-120163166D01*
X161480500Y-120120833D01*
X161395833Y-120078500D01*
X161226500Y-120036166D01*
X161014833Y-120036166D01*
X160845500Y-120078500D01*
X160760833Y-120120833D01*
X160718500Y-120163166D01*
X160676166Y-120247833D01*
X161649833Y-120713500D02*
X161649833Y-121390833D01*
X161311166Y-121560166D02*
X161311166Y-121983500D01*
X161565166Y-121475500D02*
X160676166Y-121771833D01*
X161565166Y-122068166D01*
X161565166Y-122364500D02*
X160676166Y-122364500D01*
X160676166Y-122576166D01*
X160718500Y-122703166D01*
X160803166Y-122787833D01*
X160887833Y-122830166D01*
X161057166Y-122872500D01*
X161184166Y-122872500D01*
X161353500Y-122830166D01*
X161438166Y-122787833D01*
X161522833Y-122703166D01*
X161565166Y-122576166D01*
X161565166Y-122364500D01*
X161565166Y-123719166D02*
X161565166Y-123211166D01*
X161565166Y-123465166D02*
X160676166Y-123465166D01*
X160803166Y-123380500D01*
X160887833Y-123295833D01*
X160930166Y-123211166D01*
X160676166Y-124269500D02*
X160676166Y-124354166D01*
X160718500Y-124438833D01*
X160760833Y-124481166D01*
X160845500Y-124523500D01*
X161014833Y-124565833D01*
X161226500Y-124565833D01*
X161395833Y-124523500D01*
X161480500Y-124481166D01*
X161522833Y-124438833D01*
X161565166Y-124354166D01*
X161565166Y-124269500D01*
X161522833Y-124184833D01*
X161480500Y-124142500D01*
X161395833Y-124100166D01*
X161226500Y-124057833D01*
X161014833Y-124057833D01*
X160845500Y-124100166D01*
X160760833Y-124142500D01*
X160718500Y-124184833D01*
X160676166Y-124269500D01*
X159279166Y-118321666D02*
X159279166Y-118872000D01*
X159617833Y-118575666D01*
X159617833Y-118702666D01*
X159660166Y-118787333D01*
X159702500Y-118829666D01*
X159787166Y-118872000D01*
X159998833Y-118872000D01*
X160083500Y-118829666D01*
X160125833Y-118787333D01*
X160168166Y-118702666D01*
X160168166Y-118448666D01*
X160125833Y-118364000D01*
X160083500Y-118321666D01*
X160083500Y-119253000D02*
X160125833Y-119295333D01*
X160168166Y-119253000D01*
X160125833Y-119210666D01*
X160083500Y-119253000D01*
X160168166Y-119253000D01*
X159279166Y-119591666D02*
X159279166Y-120142000D01*
X159617833Y-119845666D01*
X159617833Y-119972666D01*
X159660166Y-120057333D01*
X159702500Y-120099666D01*
X159787166Y-120142000D01*
X159998833Y-120142000D01*
X160083500Y-120099666D01*
X160125833Y-120057333D01*
X160168166Y-119972666D01*
X160168166Y-119718666D01*
X160125833Y-119634000D01*
X160083500Y-119591666D01*
X159279166Y-120396000D02*
X160168166Y-120692333D01*
X159279166Y-120988666D01*
D14*
%TO.C,R20*%
X169299000Y-114721000D02*
X170299000Y-114721000D01*
X170299000Y-113371000D02*
X169299000Y-113371000D01*
%TO.C,C75*%
X171358000Y-113188000D02*
X171358000Y-113888000D01*
X172558000Y-113888000D02*
X172558000Y-113188000D01*
%TO.C,L18*%
X172483000Y-115389000D02*
X172483000Y-115889000D01*
X171433000Y-115889000D02*
X171433000Y-115389000D01*
%TO.C,U9*%
X140510000Y-74205000D02*
X140510000Y-75005000D01*
X133810000Y-75005000D02*
X133810000Y-74205000D01*
X135560000Y-75905000D02*
X137260000Y-75905000D01*
X134310000Y-73305000D02*
X140010000Y-73305000D01*
X137060000Y-72005000D02*
X137060000Y-73305000D01*
X135960000Y-71805000D02*
X136860000Y-71805000D01*
X135760000Y-73305000D02*
X135760000Y-72005000D01*
X137060000Y-72005000D02*
X136860000Y-71805000D01*
X135760000Y-72005000D02*
X135960000Y-71805000D01*
X138560000Y-75905000D02*
X138760000Y-75905000D01*
X136410000Y-73605000D02*
X136410000Y-73305000D01*
X137910000Y-73605000D02*
X137910000Y-73305000D01*
%TO.C,U11*%
X104248000Y-104195000D02*
X105048000Y-104195000D01*
X105048000Y-110895000D02*
X104248000Y-110895000D01*
X105948000Y-109145000D02*
X105948000Y-107445000D01*
X103348000Y-110395000D02*
X103348000Y-104695000D01*
X102048000Y-107645000D02*
X103348000Y-107645000D01*
X101848000Y-108745000D02*
X101848000Y-107845000D01*
X103348000Y-108945000D02*
X102048000Y-108945000D01*
X102048000Y-107645000D02*
X101848000Y-107845000D01*
X102048000Y-108945000D02*
X101848000Y-108745000D01*
X105948000Y-106145000D02*
X105948000Y-105945000D01*
X103648000Y-108295000D02*
X103348000Y-108295000D01*
X103648000Y-106795000D02*
X103348000Y-106795000D01*
%TO.C,U13*%
X145500000Y-121800000D02*
X157700000Y-121800000D01*
X157700000Y-121800000D02*
X157700000Y-105800000D01*
X157700000Y-105800000D02*
X145500000Y-105800000D01*
X145500000Y-105800000D02*
X145500000Y-121800000D01*
%TO.C,R20*%
D15*
X170207214Y-112936261D02*
X170418880Y-112633880D01*
X170570071Y-112936261D02*
X170570071Y-112301261D01*
X170328166Y-112301261D01*
X170267690Y-112331500D01*
X170237452Y-112361738D01*
X170207214Y-112422214D01*
X170207214Y-112512928D01*
X170237452Y-112573404D01*
X170267690Y-112603642D01*
X170328166Y-112633880D01*
X170570071Y-112633880D01*
X169965309Y-112361738D02*
X169935071Y-112331500D01*
X169874595Y-112301261D01*
X169723404Y-112301261D01*
X169662928Y-112331500D01*
X169632690Y-112361738D01*
X169602452Y-112422214D01*
X169602452Y-112482690D01*
X169632690Y-112573404D01*
X169995547Y-112936261D01*
X169602452Y-112936261D01*
X169209357Y-112301261D02*
X169148880Y-112301261D01*
X169088404Y-112331500D01*
X169058166Y-112361738D01*
X169027928Y-112422214D01*
X168997690Y-112543166D01*
X168997690Y-112694357D01*
X169027928Y-112815309D01*
X169058166Y-112875785D01*
X169088404Y-112906023D01*
X169148880Y-112936261D01*
X169209357Y-112936261D01*
X169269833Y-112906023D01*
X169300071Y-112875785D01*
X169330309Y-112815309D01*
X169360547Y-112694357D01*
X169360547Y-112543166D01*
X169330309Y-112422214D01*
X169300071Y-112361738D01*
X169269833Y-112331500D01*
X169209357Y-112301261D01*
%TO.C,C75*%
X173708785Y-112494785D02*
X173739023Y-112464547D01*
X173769261Y-112373833D01*
X173769261Y-112313357D01*
X173739023Y-112222642D01*
X173678547Y-112162166D01*
X173618071Y-112131928D01*
X173497119Y-112101690D01*
X173406404Y-112101690D01*
X173285452Y-112131928D01*
X173224976Y-112162166D01*
X173164500Y-112222642D01*
X173134261Y-112313357D01*
X173134261Y-112373833D01*
X173164500Y-112464547D01*
X173194738Y-112494785D01*
X173134261Y-112706452D02*
X173134261Y-113129785D01*
X173769261Y-112857642D01*
X173134261Y-113674071D02*
X173134261Y-113371690D01*
X173436642Y-113341452D01*
X173406404Y-113371690D01*
X173376166Y-113432166D01*
X173376166Y-113583357D01*
X173406404Y-113643833D01*
X173436642Y-113674071D01*
X173497119Y-113704309D01*
X173648309Y-113704309D01*
X173708785Y-113674071D01*
X173739023Y-113643833D01*
X173769261Y-113583357D01*
X173769261Y-113432166D01*
X173739023Y-113371690D01*
X173708785Y-113341452D01*
%TO.C,L18*%
X173769261Y-115542785D02*
X173769261Y-115240404D01*
X173134261Y-115240404D01*
X173769261Y-116087071D02*
X173769261Y-115724214D01*
X173769261Y-115905642D02*
X173134261Y-115905642D01*
X173224976Y-115845166D01*
X173285452Y-115784690D01*
X173315690Y-115724214D01*
X173406404Y-116449928D02*
X173376166Y-116389452D01*
X173345928Y-116359214D01*
X173285452Y-116328976D01*
X173255214Y-116328976D01*
X173194738Y-116359214D01*
X173164500Y-116389452D01*
X173134261Y-116449928D01*
X173134261Y-116570880D01*
X173164500Y-116631357D01*
X173194738Y-116661595D01*
X173255214Y-116691833D01*
X173285452Y-116691833D01*
X173345928Y-116661595D01*
X173376166Y-116631357D01*
X173406404Y-116570880D01*
X173406404Y-116449928D01*
X173436642Y-116389452D01*
X173466880Y-116359214D01*
X173527357Y-116328976D01*
X173648309Y-116328976D01*
X173708785Y-116359214D01*
X173739023Y-116389452D01*
X173769261Y-116449928D01*
X173769261Y-116570880D01*
X173739023Y-116631357D01*
X173708785Y-116661595D01*
X173648309Y-116691833D01*
X173527357Y-116691833D01*
X173466880Y-116661595D01*
X173436642Y-116631357D01*
X173406404Y-116570880D01*
%TO.C,U9*%
X137770809Y-74455261D02*
X137770809Y-74969309D01*
X137740571Y-75029785D01*
X137710333Y-75060023D01*
X137649857Y-75090261D01*
X137528904Y-75090261D01*
X137468428Y-75060023D01*
X137438190Y-75029785D01*
X137407952Y-74969309D01*
X137407952Y-74455261D01*
X137075333Y-75090261D02*
X136954380Y-75090261D01*
X136893904Y-75060023D01*
X136863666Y-75029785D01*
X136803190Y-74939071D01*
X136772952Y-74818119D01*
X136772952Y-74576214D01*
X136803190Y-74515738D01*
X136833428Y-74485500D01*
X136893904Y-74455261D01*
X137014857Y-74455261D01*
X137075333Y-74485500D01*
X137105571Y-74515738D01*
X137135809Y-74576214D01*
X137135809Y-74727404D01*
X137105571Y-74787880D01*
X137075333Y-74818119D01*
X137014857Y-74848357D01*
X136893904Y-74848357D01*
X136833428Y-74818119D01*
X136803190Y-74787880D01*
X136772952Y-74727404D01*
%TO.C,U11*%
X104300261Y-106782809D02*
X104814309Y-106782809D01*
X104874785Y-106813047D01*
X104905023Y-106843285D01*
X104935261Y-106903761D01*
X104935261Y-107024714D01*
X104905023Y-107085190D01*
X104874785Y-107115428D01*
X104814309Y-107145666D01*
X104300261Y-107145666D01*
X104935261Y-107780666D02*
X104935261Y-107417809D01*
X104935261Y-107599238D02*
X104300261Y-107599238D01*
X104390976Y-107538761D01*
X104451452Y-107478285D01*
X104481690Y-107417809D01*
X104935261Y-108385428D02*
X104935261Y-108022571D01*
X104935261Y-108204000D02*
X104300261Y-108204000D01*
X104390976Y-108143523D01*
X104451452Y-108083047D01*
X104481690Y-108022571D01*
%TO.C,U13*%
X152486190Y-104252261D02*
X152486190Y-104766309D01*
X152455952Y-104826785D01*
X152425714Y-104857023D01*
X152365238Y-104887261D01*
X152244285Y-104887261D01*
X152183809Y-104857023D01*
X152153571Y-104826785D01*
X152123333Y-104766309D01*
X152123333Y-104252261D01*
X151488333Y-104887261D02*
X151851190Y-104887261D01*
X151669761Y-104887261D02*
X151669761Y-104252261D01*
X151730238Y-104342976D01*
X151790714Y-104403452D01*
X151851190Y-104433690D01*
X151276666Y-104252261D02*
X150883571Y-104252261D01*
X151095238Y-104494166D01*
X151004523Y-104494166D01*
X150944047Y-104524404D01*
X150913809Y-104554642D01*
X150883571Y-104615119D01*
X150883571Y-104766309D01*
X150913809Y-104826785D01*
X150944047Y-104857023D01*
X151004523Y-104887261D01*
X151185952Y-104887261D01*
X151246428Y-104857023D01*
X151276666Y-104826785D01*
%TD*%
%LPC*%
D16*
%TO.C,1PIN*%
X170500000Y-76000000D03*
%TD*%
%TO.C,1PIN*%
X106500000Y-82000000D03*
%TD*%
%TO.C,1PIN*%
X106500000Y-117000000D03*
%TD*%
%TO.C,1PIN*%
X170500000Y-123000000D03*
%TD*%
D17*
%TO.C,P1*%
X104932480Y-74295000D03*
D18*
X108935520Y-74295000D03*
X106934000Y-74295000D03*
X110934500Y-74295000D03*
%TD*%
D17*
%TO.C,P3*%
X142527020Y-124841000D03*
D18*
X138523980Y-124841000D03*
X140525500Y-124841000D03*
X136525000Y-124841000D03*
%TD*%
D17*
%TO.C,P4*%
X132034280Y-124841000D03*
D18*
X128031240Y-124841000D03*
X130032760Y-124841000D03*
X126032260Y-124841000D03*
%TD*%
%TO.C,P5*%
X127508000Y-74295000D03*
X125509020Y-74295000D03*
X123507500Y-74295000D03*
D17*
X115501420Y-74295000D03*
D18*
X119504460Y-74295000D03*
X117502940Y-74295000D03*
X121503440Y-74295000D03*
X129506980Y-74295000D03*
%TD*%
D17*
%TO.C,P6*%
X146994940Y-74295000D03*
D18*
X150997980Y-74295000D03*
X148996460Y-74295000D03*
X152996960Y-74295000D03*
X154998480Y-74295000D03*
X157000000Y-74295000D03*
%TD*%
D17*
%TO.C,P7*%
X157038040Y-124841000D03*
D18*
X153035000Y-124841000D03*
X155036520Y-124841000D03*
X151036020Y-124841000D03*
X149034500Y-124841000D03*
X147032980Y-124841000D03*
%TD*%
D17*
%TO.C,P8*%
X121493280Y-124841000D03*
D18*
X117490240Y-124841000D03*
X119491760Y-124841000D03*
X115491260Y-124841000D03*
%TD*%
D17*
%TO.C,P9*%
X110952280Y-124841000D03*
D18*
X106949240Y-124841000D03*
X108950760Y-124841000D03*
X104950260Y-124841000D03*
%TD*%
D19*
%TO.C,P11*%
X108984000Y-97409000D03*
D20*
X106444000Y-97409000D03*
X103904000Y-97409000D03*
%TD*%
D19*
%TO.C,P12*%
X108984000Y-94234000D03*
D20*
X106444000Y-94234000D03*
X103904000Y-94234000D03*
%TD*%
D19*
%TO.C,P14*%
X108984000Y-91059000D03*
D20*
X106444000Y-91059000D03*
X103904000Y-91059000D03*
%TD*%
D21*
%TO.C,R20*%
X170549000Y-114046000D03*
X169049000Y-114046000D03*
%TD*%
D22*
%TO.C,J1*%
X179197000Y-80264000D03*
X176657000Y-77724000D03*
X176657000Y-82804000D03*
X181737000Y-82804000D03*
X181737000Y-77724000D03*
%TD*%
%TO.C,J2*%
X179197000Y-97790000D03*
X176657000Y-95250000D03*
X176657000Y-100330000D03*
X181737000Y-100330000D03*
X181737000Y-95250000D03*
%TD*%
D23*
%TO.C,C75*%
X171958000Y-112788000D03*
X171958000Y-114288000D03*
%TD*%
D22*
%TO.C,J3*%
X179197000Y-116078000D03*
X176657000Y-113538000D03*
X176657000Y-118618000D03*
X181737000Y-118618000D03*
X181737000Y-113538000D03*
%TD*%
D24*
%TO.C,L18*%
X171958000Y-116089000D03*
X171958000Y-115189000D03*
%TD*%
D25*
%TO.C,P2*%
X140499740Y-77177900D03*
X136100460Y-77177900D03*
%TD*%
%TO.C,P13*%
X107012740Y-108498640D03*
X107012740Y-104099360D03*
%TD*%
D20*
%TO.C,P15*%
X103904000Y-87884000D03*
X106444000Y-87884000D03*
D19*
X108984000Y-87884000D03*
%TD*%
D26*
%TO.C,U9*%
X133510000Y-75705000D03*
X140810000Y-75705000D03*
X140810000Y-73505000D03*
X133510000Y-73505000D03*
D27*
X139410000Y-76355000D03*
X137910000Y-76355000D03*
X134910000Y-76355000D03*
D28*
X138660000Y-74605000D03*
X135660000Y-74605000D03*
%TD*%
%TO.C,U10*%
X148407000Y-115848000D03*
X148407000Y-118848000D03*
%TD*%
D29*
%TO.C,U11*%
X105748000Y-111195000D03*
X105748000Y-103895000D03*
X103548000Y-103895000D03*
X103548000Y-111195000D03*
D30*
X106398000Y-105295000D03*
X106398000Y-106795000D03*
X106398000Y-109795000D03*
D28*
X104648000Y-106045000D03*
X104648000Y-109045000D03*
%TD*%
D31*
%TO.C,U13*%
X157700000Y-106800000D03*
X157700000Y-107900000D03*
X157700000Y-109000000D03*
X157700000Y-110100000D03*
X157700000Y-111200000D03*
X157700000Y-112300000D03*
X157700000Y-113400000D03*
X157700000Y-116400000D03*
X157700000Y-117500000D03*
X157700000Y-118600000D03*
X157700000Y-119700000D03*
X157700000Y-120800000D03*
X145500000Y-120800000D03*
X145500000Y-119700000D03*
X145500000Y-118600000D03*
X145500000Y-117500000D03*
X145500000Y-116400000D03*
X145500000Y-113400000D03*
X145500000Y-112300000D03*
X145500000Y-111200000D03*
X145500000Y-110100000D03*
X145500000Y-109000000D03*
X145500000Y-107900000D03*
X145500000Y-106800000D03*
%TD*%
M02*
