G04 #@! TF.FileFunction,Soldermask,Top*
%FSLAX46Y46*%
G04 Gerber Fmt 4.6, Leading zero omitted, Abs format (unit mm)*
G04 Created by KiCad (PCBNEW (2015-09-15 BZR 6201)-product) date tor 18 feb 2016 12:46:51*
%MOMM*%
G01*
G04 APERTURE LIST*
%ADD10C,0.100000*%
%ADD11C,6.101600*%
%ADD12R,0.901600X0.851600*%
%ADD13R,0.851600X0.901600*%
%ADD14R,2.250440X1.602740*%
%ADD15R,0.601600X0.701600*%
%ADD16R,0.701600X0.601600*%
%ADD17C,2.601600*%
%ADD18R,0.801600X1.401600*%
%ADD19R,0.701600X0.501600*%
%ADD20R,0.601600X1.001600*%
%ADD21R,0.501600X0.701600*%
%ADD22R,1.800860X1.300480*%
%ADD23O,1.800860X1.300480*%
%ADD24R,0.601980X2.402840*%
%ADD25R,2.100580X2.600960*%
%ADD26C,1.000760*%
%ADD27O,1.300480X1.800860*%
%ADD28R,1.300480X1.800860*%
%ADD29R,1.001600X0.601600*%
%ADD30R,0.751600X1.161600*%
%ADD31O,0.951600X0.401600*%
%ADD32O,0.401600X0.951600*%
%ADD33R,1.776600X1.776600*%
%ADD34R,0.901600X0.451600*%
%ADD35R,0.451600X0.901600*%
%ADD36R,1.351600X1.351600*%
%ADD37O,0.711200X1.574800*%
%ADD38R,1.902460X1.300480*%
%ADD39R,0.899160X0.899160*%
G04 APERTURE END LIST*
D10*
D11*
X230000000Y-112500000D03*
D12*
X174205200Y-110388400D03*
X175705200Y-110388400D03*
X174205200Y-112064800D03*
X175705200Y-112064800D03*
D13*
X177647600Y-106742800D03*
X177647600Y-108242800D03*
D14*
X183156860Y-96393000D03*
X186159140Y-96393000D03*
D10*
G36*
X184190008Y-105402820D02*
X184792180Y-106004992D01*
X184154652Y-106642520D01*
X183552480Y-106040348D01*
X184190008Y-105402820D01*
X184190008Y-105402820D01*
G37*
G36*
X183129348Y-106463480D02*
X183731520Y-107065652D01*
X183093992Y-107703180D01*
X182491820Y-107101008D01*
X183129348Y-106463480D01*
X183129348Y-106463480D01*
G37*
G36*
X203748008Y-105275820D02*
X204350180Y-105877992D01*
X203712652Y-106515520D01*
X203110480Y-105913348D01*
X203748008Y-105275820D01*
X203748008Y-105275820D01*
G37*
G36*
X202687348Y-106336480D02*
X203289520Y-106938652D01*
X202651992Y-107576180D01*
X202049820Y-106974008D01*
X202687348Y-106336480D01*
X202687348Y-106336480D01*
G37*
D12*
X199759000Y-97663000D03*
X198259000Y-97663000D03*
D10*
G36*
X192539180Y-113197008D02*
X191937008Y-113799180D01*
X191299480Y-113161652D01*
X191901652Y-112559480D01*
X192539180Y-113197008D01*
X192539180Y-113197008D01*
G37*
G36*
X191478520Y-112136348D02*
X190876348Y-112738520D01*
X190238820Y-112100992D01*
X190840992Y-111498820D01*
X191478520Y-112136348D01*
X191478520Y-112136348D01*
G37*
G36*
X191396180Y-114340008D02*
X190794008Y-114942180D01*
X190156480Y-114304652D01*
X190758652Y-113702480D01*
X191396180Y-114340008D01*
X191396180Y-114340008D01*
G37*
G36*
X190335520Y-113279348D02*
X189733348Y-113881520D01*
X189095820Y-113243992D01*
X189697992Y-112641820D01*
X190335520Y-113279348D01*
X190335520Y-113279348D01*
G37*
D12*
X217944000Y-95631000D03*
X219444000Y-95631000D03*
D10*
G36*
X188173992Y-113037180D02*
X187571820Y-112435008D01*
X188209348Y-111797480D01*
X188811520Y-112399652D01*
X188173992Y-113037180D01*
X188173992Y-113037180D01*
G37*
G36*
X189234652Y-111976520D02*
X188632480Y-111374348D01*
X189270008Y-110736820D01*
X189872180Y-111338992D01*
X189234652Y-111976520D01*
X189234652Y-111976520D01*
G37*
G36*
X185738662Y-103915510D02*
X185136490Y-103313338D01*
X185774018Y-102675810D01*
X186376190Y-103277982D01*
X185738662Y-103915510D01*
X185738662Y-103915510D01*
G37*
G36*
X186799322Y-102854850D02*
X186197150Y-102252678D01*
X186834678Y-101615150D01*
X187436850Y-102217322D01*
X186799322Y-102854850D01*
X186799322Y-102854850D01*
G37*
G36*
X198391678Y-111013150D02*
X198993850Y-111615322D01*
X198356322Y-112252850D01*
X197754150Y-111650678D01*
X198391678Y-111013150D01*
X198391678Y-111013150D01*
G37*
G36*
X197331018Y-112073810D02*
X197933190Y-112675982D01*
X197295662Y-113313510D01*
X196693490Y-112711338D01*
X197331018Y-112073810D01*
X197331018Y-112073810D01*
G37*
G36*
X197365180Y-96687008D02*
X196763008Y-97289180D01*
X196125480Y-96651652D01*
X196727652Y-96049480D01*
X197365180Y-96687008D01*
X197365180Y-96687008D01*
G37*
G36*
X196304520Y-95626348D02*
X195702348Y-96228520D01*
X195064820Y-95590992D01*
X195666992Y-94988820D01*
X196304520Y-95626348D01*
X196304520Y-95626348D01*
G37*
G36*
X205112180Y-104434008D02*
X204510008Y-105036180D01*
X203872480Y-104398652D01*
X204474652Y-103796480D01*
X205112180Y-104434008D01*
X205112180Y-104434008D01*
G37*
G36*
X204051520Y-103373348D02*
X203449348Y-103975520D01*
X202811820Y-103337992D01*
X203413992Y-102735820D01*
X204051520Y-103373348D01*
X204051520Y-103373348D01*
G37*
D15*
X208026000Y-100415000D03*
X208026000Y-101515000D03*
D16*
X207561000Y-110871000D03*
X208661000Y-110871000D03*
X214799000Y-108585000D03*
X213699000Y-108585000D03*
D13*
X211074000Y-113780000D03*
X211074000Y-112280000D03*
D16*
X213783000Y-101854000D03*
X212683000Y-101854000D03*
D13*
X218440000Y-112280000D03*
X218440000Y-113780000D03*
X214757000Y-100445000D03*
X214757000Y-98945000D03*
D12*
X227826000Y-100203000D03*
X226326000Y-100203000D03*
D16*
X227626000Y-101600000D03*
X226526000Y-101600000D03*
X227626000Y-102870000D03*
X226526000Y-102870000D03*
D15*
X224790000Y-105241000D03*
X224790000Y-106341000D03*
D12*
X223254000Y-100076000D03*
X221754000Y-100076000D03*
D16*
X220557000Y-101473000D03*
X221657000Y-101473000D03*
D15*
X228600000Y-105241000D03*
X228600000Y-106341000D03*
D16*
X222800000Y-102616000D03*
X221700000Y-102616000D03*
D15*
X233375200Y-106188600D03*
X233375200Y-105088600D03*
X232029000Y-107357000D03*
X232029000Y-106257000D03*
D12*
X180836000Y-106235500D03*
X179336000Y-106235500D03*
D17*
X231521000Y-94742000D03*
X228981000Y-92202000D03*
X228981000Y-97282000D03*
X234061000Y-97282000D03*
X234061000Y-92202000D03*
D18*
X174172800Y-104851200D03*
X176072800Y-104851200D03*
D19*
X215773000Y-105595000D03*
X215773000Y-106495000D03*
X226441000Y-104844000D03*
X226441000Y-103944000D03*
D20*
X216166000Y-98933000D03*
X217666000Y-98933000D03*
D21*
X226372000Y-106299000D03*
X227272000Y-106299000D03*
X229928000Y-106299000D03*
X230828000Y-106299000D03*
D22*
X174244000Y-101031040D03*
D23*
X174244000Y-97028000D03*
X174244000Y-99029520D03*
D24*
X208732120Y-97292160D03*
X207932020Y-97292160D03*
X207131920Y-97292160D03*
X206331820Y-97292160D03*
X205531720Y-97292160D03*
D25*
X211582000Y-97193100D03*
X211582000Y-91694000D03*
X202681840Y-97193100D03*
X202681840Y-91694000D03*
D26*
X209331560Y-94693740D03*
X204932280Y-94693740D03*
D27*
X197137020Y-91694000D03*
X195138040Y-91694000D03*
X193136520Y-91694000D03*
D28*
X185130440Y-91694000D03*
D27*
X189133480Y-91694000D03*
X187131960Y-91694000D03*
X191132460Y-91694000D03*
X199136000Y-91694000D03*
D28*
X215198960Y-91694000D03*
D27*
X219202000Y-91694000D03*
X217200480Y-91694000D03*
X221200980Y-91694000D03*
X223202500Y-91694000D03*
X225204020Y-91694000D03*
D28*
X174591980Y-91694000D03*
D27*
X178595020Y-91694000D03*
X176593500Y-91694000D03*
X180594000Y-91694000D03*
D20*
X200775000Y-95885000D03*
X199275000Y-95885000D03*
D10*
G36*
X205605091Y-103586147D02*
X204896853Y-102877909D01*
X205322249Y-102452513D01*
X206030487Y-103160751D01*
X205605091Y-103586147D01*
X205605091Y-103586147D01*
G37*
G36*
X206665751Y-102525487D02*
X205957513Y-101817249D01*
X206382909Y-101391853D01*
X207091147Y-102100091D01*
X206665751Y-102525487D01*
X206665751Y-102525487D01*
G37*
G36*
X205097091Y-101681147D02*
X204388853Y-100972909D01*
X204814249Y-100547513D01*
X205522487Y-101255751D01*
X205097091Y-101681147D01*
X205097091Y-101681147D01*
G37*
G36*
X206157751Y-100620487D02*
X205449513Y-99912249D01*
X205874909Y-99486853D01*
X206583147Y-100195091D01*
X206157751Y-100620487D01*
X206157751Y-100620487D01*
G37*
G36*
X203169761Y-101258977D02*
X202461523Y-100550739D01*
X202886919Y-100125343D01*
X203595157Y-100833581D01*
X203169761Y-101258977D01*
X203169761Y-101258977D01*
G37*
G36*
X204230421Y-100198317D02*
X203522183Y-99490079D01*
X203947579Y-99064683D01*
X204655817Y-99772921D01*
X204230421Y-100198317D01*
X204230421Y-100198317D01*
G37*
D29*
X209550000Y-99580000D03*
X209550000Y-101080000D03*
X211201000Y-101080000D03*
X211201000Y-99580000D03*
D20*
X220738000Y-111379000D03*
X222238000Y-111379000D03*
D29*
X202565000Y-109105000D03*
X202565000Y-110605000D03*
D20*
X222389000Y-109728000D03*
X223889000Y-109728000D03*
D29*
X204343000Y-109105000D03*
X204343000Y-110605000D03*
X205994000Y-109117000D03*
X205994000Y-110617000D03*
D20*
X179590000Y-95631000D03*
X181090000Y-95631000D03*
D29*
X178181000Y-97270000D03*
X178181000Y-95770000D03*
D30*
X174172800Y-108661200D03*
X175122800Y-108661200D03*
X176072800Y-108661200D03*
X176072800Y-106461200D03*
X174172800Y-106461200D03*
D31*
X207444000Y-104545000D03*
X207444000Y-105045000D03*
X207444000Y-105545000D03*
X207444000Y-106045000D03*
X207444000Y-106545000D03*
X207444000Y-107045000D03*
X207444000Y-107545000D03*
D32*
X208394000Y-108495000D03*
X208894000Y-108495000D03*
X209394000Y-108495000D03*
X209894000Y-108495000D03*
X210394000Y-108495000D03*
X210894000Y-108495000D03*
X211394000Y-108495000D03*
D31*
X212344000Y-107545000D03*
X212344000Y-107045000D03*
X212344000Y-106545000D03*
X212344000Y-106045000D03*
X212344000Y-105545000D03*
X212344000Y-105045000D03*
X212344000Y-104545000D03*
D32*
X211394000Y-103595000D03*
X210894000Y-103595000D03*
X210394000Y-103595000D03*
X209894000Y-103595000D03*
X209394000Y-103595000D03*
X208894000Y-103595000D03*
X208394000Y-103595000D03*
D33*
X210731500Y-106882500D03*
X210731500Y-105207500D03*
X209056500Y-106882500D03*
X209056500Y-105207500D03*
D34*
X219266000Y-105014000D03*
X219266000Y-105664000D03*
X219266000Y-106314000D03*
X219266000Y-106964000D03*
D35*
X220291000Y-107989000D03*
X220941000Y-107989000D03*
X221591000Y-107989000D03*
X222241000Y-107989000D03*
D34*
X223266000Y-106964000D03*
X223266000Y-106314000D03*
X223266000Y-105664000D03*
X223266000Y-105014000D03*
D35*
X222241000Y-103989000D03*
X221591000Y-103989000D03*
X220941000Y-103989000D03*
X220291000Y-103989000D03*
D36*
X221891000Y-106614000D03*
X221891000Y-105364000D03*
X220641000Y-106614000D03*
X220641000Y-105364000D03*
D37*
X178460400Y-104343200D03*
X179730400Y-104343200D03*
X181000400Y-104343200D03*
X182270400Y-104343200D03*
X182270400Y-98755200D03*
X181000400Y-98755200D03*
X179730400Y-98755200D03*
X178460400Y-98755200D03*
D38*
X212857080Y-111399320D03*
X212857080Y-113898680D03*
X216656920Y-113898680D03*
X216656920Y-111399320D03*
D10*
G36*
X187616676Y-106667642D02*
X187368057Y-106419023D01*
X188147006Y-105640074D01*
X188395625Y-105888693D01*
X187616676Y-106667642D01*
X187616676Y-106667642D01*
G37*
G36*
X187970229Y-107021196D02*
X187721610Y-106772577D01*
X188500559Y-105993628D01*
X188749178Y-106242247D01*
X187970229Y-107021196D01*
X187970229Y-107021196D01*
G37*
G36*
X188323783Y-107374749D02*
X188075164Y-107126130D01*
X188854113Y-106347181D01*
X189102732Y-106595800D01*
X188323783Y-107374749D01*
X188323783Y-107374749D01*
G37*
G36*
X188677336Y-107728302D02*
X188428717Y-107479683D01*
X189207666Y-106700734D01*
X189456285Y-106949353D01*
X188677336Y-107728302D01*
X188677336Y-107728302D01*
G37*
G36*
X189030889Y-108081856D02*
X188782270Y-107833237D01*
X189561219Y-107054288D01*
X189809838Y-107302907D01*
X189030889Y-108081856D01*
X189030889Y-108081856D01*
G37*
G36*
X189384443Y-108435409D02*
X189135824Y-108186790D01*
X189914773Y-107407841D01*
X190163392Y-107656460D01*
X189384443Y-108435409D01*
X189384443Y-108435409D01*
G37*
G36*
X189737996Y-108788963D02*
X189489377Y-108540344D01*
X190268326Y-107761395D01*
X190516945Y-108010014D01*
X189737996Y-108788963D01*
X189737996Y-108788963D01*
G37*
G36*
X190091550Y-109142516D02*
X189842931Y-108893897D01*
X190621880Y-108114948D01*
X190870499Y-108363567D01*
X190091550Y-109142516D01*
X190091550Y-109142516D01*
G37*
G36*
X190445103Y-109496069D02*
X190196484Y-109247450D01*
X190975433Y-108468501D01*
X191224052Y-108717120D01*
X190445103Y-109496069D01*
X190445103Y-109496069D01*
G37*
G36*
X190798656Y-109849623D02*
X190550037Y-109601004D01*
X191328986Y-108822055D01*
X191577605Y-109070674D01*
X190798656Y-109849623D01*
X190798656Y-109849623D01*
G37*
G36*
X191152210Y-110203176D02*
X190903591Y-109954557D01*
X191682540Y-109175608D01*
X191931159Y-109424227D01*
X191152210Y-110203176D01*
X191152210Y-110203176D01*
G37*
G36*
X191505763Y-110556730D02*
X191257144Y-110308111D01*
X192036093Y-109529162D01*
X192284712Y-109777781D01*
X191505763Y-110556730D01*
X191505763Y-110556730D01*
G37*
G36*
X191859317Y-110910283D02*
X191610698Y-110661664D01*
X192389647Y-109882715D01*
X192638266Y-110131334D01*
X191859317Y-110910283D01*
X191859317Y-110910283D01*
G37*
G36*
X192212870Y-111263836D02*
X191964251Y-111015217D01*
X192743200Y-110236268D01*
X192991819Y-110484887D01*
X192212870Y-111263836D01*
X192212870Y-111263836D01*
G37*
G36*
X192566423Y-111617390D02*
X192317804Y-111368771D01*
X193096753Y-110589822D01*
X193345372Y-110838441D01*
X192566423Y-111617390D01*
X192566423Y-111617390D01*
G37*
G36*
X192919977Y-111970943D02*
X192671358Y-111722324D01*
X193450307Y-110943375D01*
X193698926Y-111191994D01*
X192919977Y-111970943D01*
X192919977Y-111970943D01*
G37*
G36*
X196456642Y-111722324D02*
X196208023Y-111970943D01*
X195429074Y-111191994D01*
X195677693Y-110943375D01*
X196456642Y-111722324D01*
X196456642Y-111722324D01*
G37*
G36*
X196810196Y-111368771D02*
X196561577Y-111617390D01*
X195782628Y-110838441D01*
X196031247Y-110589822D01*
X196810196Y-111368771D01*
X196810196Y-111368771D01*
G37*
G36*
X197163749Y-111015217D02*
X196915130Y-111263836D01*
X196136181Y-110484887D01*
X196384800Y-110236268D01*
X197163749Y-111015217D01*
X197163749Y-111015217D01*
G37*
G36*
X197517302Y-110661664D02*
X197268683Y-110910283D01*
X196489734Y-110131334D01*
X196738353Y-109882715D01*
X197517302Y-110661664D01*
X197517302Y-110661664D01*
G37*
G36*
X197870856Y-110308111D02*
X197622237Y-110556730D01*
X196843288Y-109777781D01*
X197091907Y-109529162D01*
X197870856Y-110308111D01*
X197870856Y-110308111D01*
G37*
G36*
X198224409Y-109954557D02*
X197975790Y-110203176D01*
X197196841Y-109424227D01*
X197445460Y-109175608D01*
X198224409Y-109954557D01*
X198224409Y-109954557D01*
G37*
G36*
X198577963Y-109601004D02*
X198329344Y-109849623D01*
X197550395Y-109070674D01*
X197799014Y-108822055D01*
X198577963Y-109601004D01*
X198577963Y-109601004D01*
G37*
G36*
X198931516Y-109247450D02*
X198682897Y-109496069D01*
X197903948Y-108717120D01*
X198152567Y-108468501D01*
X198931516Y-109247450D01*
X198931516Y-109247450D01*
G37*
G36*
X199285069Y-108893897D02*
X199036450Y-109142516D01*
X198257501Y-108363567D01*
X198506120Y-108114948D01*
X199285069Y-108893897D01*
X199285069Y-108893897D01*
G37*
G36*
X199638623Y-108540344D02*
X199390004Y-108788963D01*
X198611055Y-108010014D01*
X198859674Y-107761395D01*
X199638623Y-108540344D01*
X199638623Y-108540344D01*
G37*
G36*
X199992176Y-108186790D02*
X199743557Y-108435409D01*
X198964608Y-107656460D01*
X199213227Y-107407841D01*
X199992176Y-108186790D01*
X199992176Y-108186790D01*
G37*
G36*
X200345730Y-107833237D02*
X200097111Y-108081856D01*
X199318162Y-107302907D01*
X199566781Y-107054288D01*
X200345730Y-107833237D01*
X200345730Y-107833237D01*
G37*
G36*
X200699283Y-107479683D02*
X200450664Y-107728302D01*
X199671715Y-106949353D01*
X199920334Y-106700734D01*
X200699283Y-107479683D01*
X200699283Y-107479683D01*
G37*
G36*
X201052836Y-107126130D02*
X200804217Y-107374749D01*
X200025268Y-106595800D01*
X200273887Y-106347181D01*
X201052836Y-107126130D01*
X201052836Y-107126130D01*
G37*
G36*
X201406390Y-106772577D02*
X201157771Y-107021196D01*
X200378822Y-106242247D01*
X200627441Y-105993628D01*
X201406390Y-106772577D01*
X201406390Y-106772577D01*
G37*
G36*
X201759943Y-106419023D02*
X201511324Y-106667642D01*
X200732375Y-105888693D01*
X200980994Y-105640074D01*
X201759943Y-106419023D01*
X201759943Y-106419023D01*
G37*
G36*
X200980994Y-103909926D02*
X200732375Y-103661307D01*
X201511324Y-102882358D01*
X201759943Y-103130977D01*
X200980994Y-103909926D01*
X200980994Y-103909926D01*
G37*
G36*
X200627441Y-103556372D02*
X200378822Y-103307753D01*
X201157771Y-102528804D01*
X201406390Y-102777423D01*
X200627441Y-103556372D01*
X200627441Y-103556372D01*
G37*
G36*
X200273887Y-103202819D02*
X200025268Y-102954200D01*
X200804217Y-102175251D01*
X201052836Y-102423870D01*
X200273887Y-103202819D01*
X200273887Y-103202819D01*
G37*
G36*
X199920334Y-102849266D02*
X199671715Y-102600647D01*
X200450664Y-101821698D01*
X200699283Y-102070317D01*
X199920334Y-102849266D01*
X199920334Y-102849266D01*
G37*
G36*
X199566781Y-102495712D02*
X199318162Y-102247093D01*
X200097111Y-101468144D01*
X200345730Y-101716763D01*
X199566781Y-102495712D01*
X199566781Y-102495712D01*
G37*
G36*
X199213227Y-102142159D02*
X198964608Y-101893540D01*
X199743557Y-101114591D01*
X199992176Y-101363210D01*
X199213227Y-102142159D01*
X199213227Y-102142159D01*
G37*
G36*
X198859674Y-101788605D02*
X198611055Y-101539986D01*
X199390004Y-100761037D01*
X199638623Y-101009656D01*
X198859674Y-101788605D01*
X198859674Y-101788605D01*
G37*
G36*
X198506120Y-101435052D02*
X198257501Y-101186433D01*
X199036450Y-100407484D01*
X199285069Y-100656103D01*
X198506120Y-101435052D01*
X198506120Y-101435052D01*
G37*
G36*
X198152567Y-101081499D02*
X197903948Y-100832880D01*
X198682897Y-100053931D01*
X198931516Y-100302550D01*
X198152567Y-101081499D01*
X198152567Y-101081499D01*
G37*
G36*
X197799014Y-100727945D02*
X197550395Y-100479326D01*
X198329344Y-99700377D01*
X198577963Y-99948996D01*
X197799014Y-100727945D01*
X197799014Y-100727945D01*
G37*
G36*
X197445460Y-100374392D02*
X197196841Y-100125773D01*
X197975790Y-99346824D01*
X198224409Y-99595443D01*
X197445460Y-100374392D01*
X197445460Y-100374392D01*
G37*
G36*
X197091907Y-100020838D02*
X196843288Y-99772219D01*
X197622237Y-98993270D01*
X197870856Y-99241889D01*
X197091907Y-100020838D01*
X197091907Y-100020838D01*
G37*
G36*
X196738353Y-99667285D02*
X196489734Y-99418666D01*
X197268683Y-98639717D01*
X197517302Y-98888336D01*
X196738353Y-99667285D01*
X196738353Y-99667285D01*
G37*
G36*
X196384800Y-99313732D02*
X196136181Y-99065113D01*
X196915130Y-98286164D01*
X197163749Y-98534783D01*
X196384800Y-99313732D01*
X196384800Y-99313732D01*
G37*
G36*
X196031247Y-98960178D02*
X195782628Y-98711559D01*
X196561577Y-97932610D01*
X196810196Y-98181229D01*
X196031247Y-98960178D01*
X196031247Y-98960178D01*
G37*
G36*
X195677693Y-98606625D02*
X195429074Y-98358006D01*
X196208023Y-97579057D01*
X196456642Y-97827676D01*
X195677693Y-98606625D01*
X195677693Y-98606625D01*
G37*
G36*
X193698926Y-98358006D02*
X193450307Y-98606625D01*
X192671358Y-97827676D01*
X192919977Y-97579057D01*
X193698926Y-98358006D01*
X193698926Y-98358006D01*
G37*
G36*
X193345372Y-98711559D02*
X193096753Y-98960178D01*
X192317804Y-98181229D01*
X192566423Y-97932610D01*
X193345372Y-98711559D01*
X193345372Y-98711559D01*
G37*
G36*
X192991819Y-99065113D02*
X192743200Y-99313732D01*
X191964251Y-98534783D01*
X192212870Y-98286164D01*
X192991819Y-99065113D01*
X192991819Y-99065113D01*
G37*
G36*
X192638266Y-99418666D02*
X192389647Y-99667285D01*
X191610698Y-98888336D01*
X191859317Y-98639717D01*
X192638266Y-99418666D01*
X192638266Y-99418666D01*
G37*
G36*
X192284712Y-99772219D02*
X192036093Y-100020838D01*
X191257144Y-99241889D01*
X191505763Y-98993270D01*
X192284712Y-99772219D01*
X192284712Y-99772219D01*
G37*
G36*
X191931159Y-100125773D02*
X191682540Y-100374392D01*
X190903591Y-99595443D01*
X191152210Y-99346824D01*
X191931159Y-100125773D01*
X191931159Y-100125773D01*
G37*
G36*
X191577605Y-100479326D02*
X191328986Y-100727945D01*
X190550037Y-99948996D01*
X190798656Y-99700377D01*
X191577605Y-100479326D01*
X191577605Y-100479326D01*
G37*
G36*
X191224052Y-100832880D02*
X190975433Y-101081499D01*
X190196484Y-100302550D01*
X190445103Y-100053931D01*
X191224052Y-100832880D01*
X191224052Y-100832880D01*
G37*
G36*
X190870499Y-101186433D02*
X190621880Y-101435052D01*
X189842931Y-100656103D01*
X190091550Y-100407484D01*
X190870499Y-101186433D01*
X190870499Y-101186433D01*
G37*
G36*
X190516945Y-101539986D02*
X190268326Y-101788605D01*
X189489377Y-101009656D01*
X189737996Y-100761037D01*
X190516945Y-101539986D01*
X190516945Y-101539986D01*
G37*
G36*
X190163392Y-101893540D02*
X189914773Y-102142159D01*
X189135824Y-101363210D01*
X189384443Y-101114591D01*
X190163392Y-101893540D01*
X190163392Y-101893540D01*
G37*
G36*
X189809838Y-102247093D02*
X189561219Y-102495712D01*
X188782270Y-101716763D01*
X189030889Y-101468144D01*
X189809838Y-102247093D01*
X189809838Y-102247093D01*
G37*
G36*
X189456285Y-102600647D02*
X189207666Y-102849266D01*
X188428717Y-102070317D01*
X188677336Y-101821698D01*
X189456285Y-102600647D01*
X189456285Y-102600647D01*
G37*
G36*
X189102732Y-102954200D02*
X188854113Y-103202819D01*
X188075164Y-102423870D01*
X188323783Y-102175251D01*
X189102732Y-102954200D01*
X189102732Y-102954200D01*
G37*
G36*
X188749178Y-103307753D02*
X188500559Y-103556372D01*
X187721610Y-102777423D01*
X187970229Y-102528804D01*
X188749178Y-103307753D01*
X188749178Y-103307753D01*
G37*
G36*
X188395625Y-103661307D02*
X188147006Y-103909926D01*
X187368057Y-103130977D01*
X187616676Y-102882358D01*
X188395625Y-103661307D01*
X188395625Y-103661307D01*
G37*
G36*
X184716801Y-106653064D02*
X185636379Y-105733486D01*
X186981621Y-107078728D01*
X186062043Y-107998306D01*
X184716801Y-106653064D01*
X184716801Y-106653064D01*
G37*
G36*
X182949486Y-108420379D02*
X183869064Y-107500801D01*
X185214306Y-108846043D01*
X184294728Y-109765621D01*
X182949486Y-108420379D01*
X182949486Y-108420379D01*
G37*
G36*
X185636379Y-111107272D02*
X186555957Y-110187694D01*
X187901199Y-111532936D01*
X186981621Y-112452514D01*
X185636379Y-111107272D01*
X185636379Y-111107272D01*
G37*
G36*
X187403694Y-109339957D02*
X188323272Y-108420379D01*
X189668514Y-109765621D01*
X188748936Y-110685199D01*
X187403694Y-109339957D01*
X187403694Y-109339957D01*
G37*
D11*
X181000000Y-112500000D03*
D28*
X207678019Y-114300000D03*
D27*
X203674979Y-114300000D03*
X205676499Y-114300000D03*
X201675999Y-114300000D03*
D20*
X194576000Y-114935000D03*
X196076000Y-114935000D03*
X197243000Y-114935000D03*
X198743000Y-114935000D03*
X175756000Y-115189000D03*
X174256000Y-115189000D03*
X175756000Y-113538000D03*
X174256000Y-113538000D03*
D39*
X187439300Y-115189000D03*
X185940700Y-115189000D03*
X187439300Y-113919000D03*
X185940700Y-113919000D03*
M02*
