G04 #@! TF.FileFunction,Legend,Bot*
%FSLAX46Y46*%
G04 Gerber Fmt 4.6, Leading zero omitted, Abs format (unit mm)*
G04 Created by KiCad (PCBNEW (2015-09-15 BZR 6201)-product) date tor 18 feb 2016 12:46:51*
%MOMM*%
G01*
G04 APERTURE LIST*
%ADD10C,0.100000*%
%ADD11C,0.300000*%
%ADD12C,0.177800*%
%ADD13C,0.200000*%
%ADD14C,6.101600*%
%ADD15C,2.601600*%
%ADD16R,1.800860X1.300480*%
%ADD17O,1.800860X1.300480*%
%ADD18C,1.000760*%
%ADD19O,1.300480X1.800860*%
%ADD20R,1.300480X1.800860*%
G04 APERTURE END LIST*
D10*
D11*
X209679999Y-102659571D02*
X210179999Y-101945286D01*
X210537142Y-102659571D02*
X210537142Y-101159571D01*
X209965714Y-101159571D01*
X209822856Y-101231000D01*
X209751428Y-101302429D01*
X209679999Y-101445286D01*
X209679999Y-101659571D01*
X209751428Y-101802429D01*
X209822856Y-101873857D01*
X209965714Y-101945286D01*
X210537142Y-101945286D01*
X208537142Y-101873857D02*
X209037142Y-101873857D01*
X209037142Y-102659571D02*
X209037142Y-101159571D01*
X208322856Y-101159571D01*
X207751428Y-102659571D02*
X207751428Y-101159571D01*
X207251428Y-102231000D01*
X206751428Y-101159571D01*
X206751428Y-102659571D01*
X205822856Y-102659571D02*
X205965714Y-102588143D01*
X206037142Y-102516714D01*
X206108571Y-102373857D01*
X206108571Y-101945286D01*
X206037142Y-101802429D01*
X205965714Y-101731000D01*
X205822856Y-101659571D01*
X205608571Y-101659571D01*
X205465714Y-101731000D01*
X205394285Y-101802429D01*
X205322856Y-101945286D01*
X205322856Y-102373857D01*
X205394285Y-102516714D01*
X205465714Y-102588143D01*
X205608571Y-102659571D01*
X205822856Y-102659571D01*
X204894285Y-101659571D02*
X204322856Y-101659571D01*
X204679999Y-101159571D02*
X204679999Y-102445286D01*
X204608571Y-102588143D01*
X204465713Y-102659571D01*
X204322856Y-102659571D01*
X203251428Y-102588143D02*
X203394285Y-102659571D01*
X203679999Y-102659571D01*
X203822856Y-102588143D01*
X203894285Y-102445286D01*
X203894285Y-101873857D01*
X203822856Y-101731000D01*
X203679999Y-101659571D01*
X203394285Y-101659571D01*
X203251428Y-101731000D01*
X203179999Y-101873857D01*
X203179999Y-102016714D01*
X203894285Y-102159571D01*
X201394285Y-102659571D02*
X201394285Y-101159571D01*
X200822857Y-101159571D01*
X200679999Y-101231000D01*
X200608571Y-101302429D01*
X200537142Y-101445286D01*
X200537142Y-101659571D01*
X200608571Y-101802429D01*
X200679999Y-101873857D01*
X200822857Y-101945286D01*
X201394285Y-101945286D01*
X199965714Y-102231000D02*
X199251428Y-102231000D01*
X200108571Y-102659571D02*
X199608571Y-101159571D01*
X199108571Y-102659571D01*
X197680000Y-101159571D02*
X197180000Y-102659571D01*
X196680000Y-101159571D01*
X195394286Y-102659571D02*
X196251429Y-102659571D01*
X195822857Y-102659571D02*
X195822857Y-101159571D01*
X195965714Y-101373857D01*
X196108572Y-101516714D01*
X196251429Y-101588143D01*
X194751429Y-102516714D02*
X194680001Y-102588143D01*
X194751429Y-102659571D01*
X194822858Y-102588143D01*
X194751429Y-102516714D01*
X194751429Y-102659571D01*
X193751429Y-101159571D02*
X193608572Y-101159571D01*
X193465715Y-101231000D01*
X193394286Y-101302429D01*
X193322857Y-101445286D01*
X193251429Y-101731000D01*
X193251429Y-102088143D01*
X193322857Y-102373857D01*
X193394286Y-102516714D01*
X193465715Y-102588143D01*
X193608572Y-102659571D01*
X193751429Y-102659571D01*
X193894286Y-102588143D01*
X193965715Y-102516714D01*
X194037143Y-102373857D01*
X194108572Y-102088143D01*
X194108572Y-101731000D01*
X194037143Y-101445286D01*
X193965715Y-101302429D01*
X193894286Y-101231000D01*
X193751429Y-101159571D01*
D12*
X223955429Y-114372571D02*
X223846572Y-114408857D01*
X223810287Y-114445143D01*
X223774001Y-114517714D01*
X223774001Y-114626571D01*
X223810287Y-114699143D01*
X223846572Y-114735429D01*
X223919144Y-114771714D01*
X224209429Y-114771714D01*
X224209429Y-114009714D01*
X223955429Y-114009714D01*
X223882858Y-114046000D01*
X223846572Y-114082286D01*
X223810287Y-114154857D01*
X223810287Y-114227429D01*
X223846572Y-114300000D01*
X223882858Y-114336286D01*
X223955429Y-114372571D01*
X224209429Y-114372571D01*
X223157144Y-114735429D02*
X223229715Y-114771714D01*
X223374858Y-114771714D01*
X223447429Y-114735429D01*
X223483715Y-114662857D01*
X223483715Y-114372571D01*
X223447429Y-114300000D01*
X223374858Y-114263714D01*
X223229715Y-114263714D01*
X223157144Y-114300000D01*
X223120858Y-114372571D01*
X223120858Y-114445143D01*
X223483715Y-114517714D01*
X222794286Y-114263714D02*
X222794286Y-114771714D01*
X222794286Y-114336286D02*
X222758001Y-114300000D01*
X222685429Y-114263714D01*
X222576572Y-114263714D01*
X222504001Y-114300000D01*
X222467715Y-114372571D01*
X222467715Y-114771714D01*
X222104857Y-114263714D02*
X222104857Y-114916857D01*
X222141143Y-114989429D01*
X222213715Y-115025714D01*
X222250000Y-115025714D01*
X222104857Y-114009714D02*
X222141143Y-114046000D01*
X222104857Y-114082286D01*
X222068572Y-114046000D01*
X222104857Y-114009714D01*
X222104857Y-114082286D01*
X221415429Y-114771714D02*
X221415429Y-114372571D01*
X221451715Y-114300000D01*
X221524286Y-114263714D01*
X221669429Y-114263714D01*
X221742000Y-114300000D01*
X221415429Y-114735429D02*
X221488000Y-114771714D01*
X221669429Y-114771714D01*
X221742000Y-114735429D01*
X221778286Y-114662857D01*
X221778286Y-114590286D01*
X221742000Y-114517714D01*
X221669429Y-114481429D01*
X221488000Y-114481429D01*
X221415429Y-114445143D01*
X221052571Y-114771714D02*
X221052571Y-114263714D01*
X221052571Y-114336286D02*
X221016286Y-114300000D01*
X220943714Y-114263714D01*
X220834857Y-114263714D01*
X220762286Y-114300000D01*
X220726000Y-114372571D01*
X220726000Y-114771714D01*
X220726000Y-114372571D02*
X220689714Y-114300000D01*
X220617143Y-114263714D01*
X220508286Y-114263714D01*
X220435714Y-114300000D01*
X220399429Y-114372571D01*
X220399429Y-114771714D01*
X220036571Y-114771714D02*
X220036571Y-114263714D01*
X220036571Y-114009714D02*
X220072857Y-114046000D01*
X220036571Y-114082286D01*
X220000286Y-114046000D01*
X220036571Y-114009714D01*
X220036571Y-114082286D01*
X219673714Y-114263714D02*
X219673714Y-114771714D01*
X219673714Y-114336286D02*
X219637429Y-114300000D01*
X219564857Y-114263714D01*
X219456000Y-114263714D01*
X219383429Y-114300000D01*
X219347143Y-114372571D01*
X219347143Y-114771714D01*
X218512572Y-114009714D02*
X218258572Y-114771714D01*
X218004572Y-114009714D01*
X217460286Y-114735429D02*
X217532857Y-114771714D01*
X217678000Y-114771714D01*
X217750571Y-114735429D01*
X217786857Y-114662857D01*
X217786857Y-114372571D01*
X217750571Y-114300000D01*
X217678000Y-114263714D01*
X217532857Y-114263714D01*
X217460286Y-114300000D01*
X217424000Y-114372571D01*
X217424000Y-114445143D01*
X217786857Y-114517714D01*
X216770857Y-114771714D02*
X216770857Y-114009714D01*
X216770857Y-114735429D02*
X216843428Y-114771714D01*
X216988571Y-114771714D01*
X217061143Y-114735429D01*
X217097428Y-114699143D01*
X217133714Y-114626571D01*
X217133714Y-114408857D01*
X217097428Y-114336286D01*
X217061143Y-114300000D01*
X216988571Y-114263714D01*
X216843428Y-114263714D01*
X216770857Y-114300000D01*
X216081428Y-114771714D02*
X216081428Y-114009714D01*
X216081428Y-114735429D02*
X216153999Y-114771714D01*
X216299142Y-114771714D01*
X216371714Y-114735429D01*
X216407999Y-114699143D01*
X216444285Y-114626571D01*
X216444285Y-114408857D01*
X216407999Y-114336286D01*
X216371714Y-114300000D01*
X216299142Y-114263714D01*
X216153999Y-114263714D01*
X216081428Y-114300000D01*
X215428285Y-114735429D02*
X215500856Y-114771714D01*
X215645999Y-114771714D01*
X215718570Y-114735429D01*
X215754856Y-114662857D01*
X215754856Y-114372571D01*
X215718570Y-114300000D01*
X215645999Y-114263714D01*
X215500856Y-114263714D01*
X215428285Y-114300000D01*
X215391999Y-114372571D01*
X215391999Y-114445143D01*
X215754856Y-114517714D01*
X215065427Y-114771714D02*
X215065427Y-114263714D01*
X215065427Y-114408857D02*
X215029142Y-114336286D01*
X214992856Y-114300000D01*
X214920285Y-114263714D01*
X214847713Y-114263714D01*
D11*
X232052571Y-101205571D02*
X232552571Y-100491286D01*
X232909714Y-101205571D02*
X232909714Y-99705571D01*
X232338286Y-99705571D01*
X232195428Y-99777000D01*
X232124000Y-99848429D01*
X232052571Y-99991286D01*
X232052571Y-100205571D01*
X232124000Y-100348429D01*
X232195428Y-100419857D01*
X232338286Y-100491286D01*
X232909714Y-100491286D01*
X230766857Y-101205571D02*
X230766857Y-100419857D01*
X230838286Y-100277000D01*
X230981143Y-100205571D01*
X231266857Y-100205571D01*
X231409714Y-100277000D01*
X230766857Y-101134143D02*
X230909714Y-101205571D01*
X231266857Y-101205571D01*
X231409714Y-101134143D01*
X231481143Y-100991286D01*
X231481143Y-100848429D01*
X231409714Y-100705571D01*
X231266857Y-100634143D01*
X230909714Y-100634143D01*
X230766857Y-100562714D01*
X229409714Y-101205571D02*
X229409714Y-99705571D01*
X229409714Y-101134143D02*
X229552571Y-101205571D01*
X229838285Y-101205571D01*
X229981143Y-101134143D01*
X230052571Y-101062714D01*
X230124000Y-100919857D01*
X230124000Y-100491286D01*
X230052571Y-100348429D01*
X229981143Y-100277000D01*
X229838285Y-100205571D01*
X229552571Y-100205571D01*
X229409714Y-100277000D01*
X228695428Y-101205571D02*
X228695428Y-100205571D01*
X228695428Y-99705571D02*
X228766857Y-99777000D01*
X228695428Y-99848429D01*
X228624000Y-99777000D01*
X228695428Y-99705571D01*
X228695428Y-99848429D01*
X227766856Y-101205571D02*
X227909714Y-101134143D01*
X227981142Y-101062714D01*
X228052571Y-100919857D01*
X228052571Y-100491286D01*
X227981142Y-100348429D01*
X227909714Y-100277000D01*
X227766856Y-100205571D01*
X227552571Y-100205571D01*
X227409714Y-100277000D01*
X227338285Y-100348429D01*
X227266856Y-100491286D01*
X227266856Y-100919857D01*
X227338285Y-101062714D01*
X227409714Y-101134143D01*
X227552571Y-101205571D01*
X227766856Y-101205571D01*
X234338286Y-102248429D02*
X234266857Y-102177000D01*
X234124000Y-102105571D01*
X233766857Y-102105571D01*
X233624000Y-102177000D01*
X233552571Y-102248429D01*
X233481143Y-102391286D01*
X233481143Y-102534143D01*
X233552571Y-102748429D01*
X234409714Y-103605571D01*
X233481143Y-103605571D01*
X232838286Y-103462714D02*
X232766858Y-103534143D01*
X232838286Y-103605571D01*
X232909715Y-103534143D01*
X232838286Y-103462714D01*
X232838286Y-103605571D01*
X231481143Y-102605571D02*
X231481143Y-103605571D01*
X231838286Y-102034143D02*
X232195429Y-103105571D01*
X231266857Y-103105571D01*
X228766858Y-102177000D02*
X228909715Y-102105571D01*
X229124001Y-102105571D01*
X229338286Y-102177000D01*
X229481144Y-102319857D01*
X229552572Y-102462714D01*
X229624001Y-102748429D01*
X229624001Y-102962714D01*
X229552572Y-103248429D01*
X229481144Y-103391286D01*
X229338286Y-103534143D01*
X229124001Y-103605571D01*
X228981144Y-103605571D01*
X228766858Y-103534143D01*
X228695429Y-103462714D01*
X228695429Y-102962714D01*
X228981144Y-102962714D01*
X228052572Y-103605571D02*
X228052572Y-102105571D01*
X228052572Y-102819857D02*
X227195429Y-102819857D01*
X227195429Y-103605571D02*
X227195429Y-102105571D01*
X226624000Y-102605571D02*
X225838286Y-102605571D01*
X226624000Y-103605571D01*
X225838286Y-103605571D01*
D12*
X222957571Y-96465571D02*
X222921286Y-96356714D01*
X222921286Y-96175285D01*
X222957571Y-96102714D01*
X222993857Y-96066428D01*
X223066429Y-96030143D01*
X223139000Y-96030143D01*
X223211571Y-96066428D01*
X223247857Y-96102714D01*
X223284143Y-96175285D01*
X223320429Y-96320428D01*
X223356714Y-96393000D01*
X223393000Y-96429285D01*
X223465571Y-96465571D01*
X223538143Y-96465571D01*
X223610714Y-96429285D01*
X223647000Y-96393000D01*
X223683286Y-96320428D01*
X223683286Y-96139000D01*
X223647000Y-96030143D01*
X223683286Y-95776143D02*
X222921286Y-95594714D01*
X223465571Y-95449571D01*
X222921286Y-95304429D01*
X223683286Y-95123000D01*
X222993857Y-94397286D02*
X222957571Y-94433572D01*
X222921286Y-94542429D01*
X222921286Y-94615000D01*
X222957571Y-94723857D01*
X223030143Y-94796429D01*
X223102714Y-94832714D01*
X223247857Y-94869000D01*
X223356714Y-94869000D01*
X223501857Y-94832714D01*
X223574429Y-94796429D01*
X223647000Y-94723857D01*
X223683286Y-94615000D01*
X223683286Y-94542429D01*
X223647000Y-94433572D01*
X223610714Y-94397286D01*
X222921286Y-93707857D02*
X222921286Y-94070714D01*
X223683286Y-94070714D01*
X222921286Y-93453857D02*
X223683286Y-93453857D01*
X222921286Y-93018429D02*
X223356714Y-93345000D01*
X223683286Y-93018429D02*
X223247857Y-93453857D01*
X218893571Y-96229714D02*
X218857286Y-96120857D01*
X218857286Y-95939428D01*
X218893571Y-95866857D01*
X218929857Y-95830571D01*
X219002429Y-95794286D01*
X219075000Y-95794286D01*
X219147571Y-95830571D01*
X219183857Y-95866857D01*
X219220143Y-95939428D01*
X219256429Y-96084571D01*
X219292714Y-96157143D01*
X219329000Y-96193428D01*
X219401571Y-96229714D01*
X219474143Y-96229714D01*
X219546714Y-96193428D01*
X219583000Y-96157143D01*
X219619286Y-96084571D01*
X219619286Y-95903143D01*
X219583000Y-95794286D01*
X219619286Y-95540286D02*
X218857286Y-95358857D01*
X219401571Y-95213714D01*
X218857286Y-95068572D01*
X219619286Y-94887143D01*
X218857286Y-94596857D02*
X219619286Y-94596857D01*
X219619286Y-94415429D01*
X219583000Y-94306572D01*
X219510429Y-94234000D01*
X219437857Y-94197715D01*
X219292714Y-94161429D01*
X219183857Y-94161429D01*
X219038714Y-94197715D01*
X218966143Y-94234000D01*
X218893571Y-94306572D01*
X218857286Y-94415429D01*
X218857286Y-94596857D01*
X218857286Y-93834857D02*
X219619286Y-93834857D01*
X219619286Y-93326858D02*
X219619286Y-93181715D01*
X219583000Y-93109143D01*
X219510429Y-93036572D01*
X219365286Y-93000286D01*
X219111286Y-93000286D01*
X218966143Y-93036572D01*
X218893571Y-93109143D01*
X218857286Y-93181715D01*
X218857286Y-93326858D01*
X218893571Y-93399429D01*
X218966143Y-93472000D01*
X219111286Y-93508286D01*
X219365286Y-93508286D01*
X219510429Y-93472000D01*
X219583000Y-93399429D01*
X219619286Y-93326858D01*
X216825286Y-95612856D02*
X217587286Y-95612856D01*
X216825286Y-95177428D01*
X217587286Y-95177428D01*
X216825286Y-94379142D02*
X217188143Y-94633142D01*
X216825286Y-94814570D02*
X217587286Y-94814570D01*
X217587286Y-94524285D01*
X217551000Y-94451713D01*
X217514714Y-94415428D01*
X217442143Y-94379142D01*
X217333286Y-94379142D01*
X217260714Y-94415428D01*
X217224429Y-94451713D01*
X217188143Y-94524285D01*
X217188143Y-94814570D01*
X216861571Y-94088856D02*
X216825286Y-93979999D01*
X216825286Y-93798570D01*
X216861571Y-93725999D01*
X216897857Y-93689713D01*
X216970429Y-93653428D01*
X217043000Y-93653428D01*
X217115571Y-93689713D01*
X217151857Y-93725999D01*
X217188143Y-93798570D01*
X217224429Y-93943713D01*
X217260714Y-94016285D01*
X217297000Y-94052570D01*
X217369571Y-94088856D01*
X217442143Y-94088856D01*
X217514714Y-94052570D01*
X217551000Y-94016285D01*
X217587286Y-93943713D01*
X217587286Y-93762285D01*
X217551000Y-93653428D01*
X217587286Y-93435714D02*
X217587286Y-93000285D01*
X216825286Y-93217999D02*
X217587286Y-93217999D01*
X214793286Y-94451714D02*
X215555286Y-94451714D01*
X214793286Y-94016286D01*
X215555286Y-94016286D01*
X214865857Y-93218000D02*
X214829571Y-93254286D01*
X214793286Y-93363143D01*
X214793286Y-93435714D01*
X214829571Y-93544571D01*
X214902143Y-93617143D01*
X214974714Y-93653428D01*
X215119857Y-93689714D01*
X215228714Y-93689714D01*
X215373857Y-93653428D01*
X215446429Y-93617143D01*
X215519000Y-93544571D01*
X215555286Y-93435714D01*
X215555286Y-93363143D01*
X215519000Y-93254286D01*
X215482714Y-93218000D01*
X221615000Y-94687572D02*
X221651286Y-94760143D01*
X221651286Y-94869000D01*
X221615000Y-94977857D01*
X221542429Y-95050429D01*
X221469857Y-95086714D01*
X221324714Y-95123000D01*
X221215857Y-95123000D01*
X221070714Y-95086714D01*
X220998143Y-95050429D01*
X220925571Y-94977857D01*
X220889286Y-94869000D01*
X220889286Y-94796429D01*
X220925571Y-94687572D01*
X220961857Y-94651286D01*
X221215857Y-94651286D01*
X221215857Y-94796429D01*
X220889286Y-94324714D02*
X221651286Y-94324714D01*
X220889286Y-93889286D01*
X221651286Y-93889286D01*
X220889286Y-93526428D02*
X221651286Y-93526428D01*
X221651286Y-93345000D01*
X221615000Y-93236143D01*
X221542429Y-93163571D01*
X221469857Y-93127286D01*
X221324714Y-93091000D01*
X221215857Y-93091000D01*
X221070714Y-93127286D01*
X220998143Y-93163571D01*
X220925571Y-93236143D01*
X220889286Y-93345000D01*
X220889286Y-93526428D01*
X225588286Y-95358857D02*
X225588286Y-94887143D01*
X225298000Y-95141143D01*
X225298000Y-95032285D01*
X225261714Y-94959714D01*
X225225429Y-94923428D01*
X225152857Y-94887143D01*
X224971429Y-94887143D01*
X224898857Y-94923428D01*
X224862571Y-94959714D01*
X224826286Y-95032285D01*
X224826286Y-95250000D01*
X224862571Y-95322571D01*
X224898857Y-95358857D01*
X224898857Y-94560571D02*
X224862571Y-94524286D01*
X224826286Y-94560571D01*
X224862571Y-94596857D01*
X224898857Y-94560571D01*
X224826286Y-94560571D01*
X225588286Y-94270286D02*
X225588286Y-93798572D01*
X225298000Y-94052572D01*
X225298000Y-93943714D01*
X225261714Y-93871143D01*
X225225429Y-93834857D01*
X225152857Y-93798572D01*
X224971429Y-93798572D01*
X224898857Y-93834857D01*
X224862571Y-93871143D01*
X224826286Y-93943714D01*
X224826286Y-94161429D01*
X224862571Y-94234000D01*
X224898857Y-94270286D01*
X225588286Y-93580858D02*
X224826286Y-93326858D01*
X225588286Y-93072858D01*
D11*
X223015714Y-98524143D02*
X222801428Y-98595571D01*
X222444285Y-98595571D01*
X222301428Y-98524143D01*
X222229999Y-98452714D01*
X222158571Y-98309857D01*
X222158571Y-98167000D01*
X222229999Y-98024143D01*
X222301428Y-97952714D01*
X222444285Y-97881286D01*
X222729999Y-97809857D01*
X222872857Y-97738429D01*
X222944285Y-97667000D01*
X223015714Y-97524143D01*
X223015714Y-97381286D01*
X222944285Y-97238429D01*
X222872857Y-97167000D01*
X222729999Y-97095571D01*
X222372857Y-97095571D01*
X222158571Y-97167000D01*
X221658571Y-97095571D02*
X221301428Y-98595571D01*
X221015714Y-97524143D01*
X220730000Y-98595571D01*
X220372857Y-97095571D01*
X219801428Y-98595571D02*
X219801428Y-97095571D01*
X219444285Y-97095571D01*
X219230000Y-97167000D01*
X219087142Y-97309857D01*
X219015714Y-97452714D01*
X218944285Y-97738429D01*
X218944285Y-97952714D01*
X219015714Y-98238429D01*
X219087142Y-98381286D01*
X219230000Y-98524143D01*
X219444285Y-98595571D01*
X219801428Y-98595571D01*
D12*
X196795571Y-96919142D02*
X196759286Y-96810285D01*
X196759286Y-96628856D01*
X196795571Y-96556285D01*
X196831857Y-96519999D01*
X196904429Y-96483714D01*
X196977000Y-96483714D01*
X197049571Y-96519999D01*
X197085857Y-96556285D01*
X197122143Y-96628856D01*
X197158429Y-96773999D01*
X197194714Y-96846571D01*
X197231000Y-96882856D01*
X197303571Y-96919142D01*
X197376143Y-96919142D01*
X197448714Y-96882856D01*
X197485000Y-96846571D01*
X197521286Y-96773999D01*
X197521286Y-96592571D01*
X197485000Y-96483714D01*
X196831857Y-95721714D02*
X196795571Y-95758000D01*
X196759286Y-95866857D01*
X196759286Y-95939428D01*
X196795571Y-96048285D01*
X196868143Y-96120857D01*
X196940714Y-96157142D01*
X197085857Y-96193428D01*
X197194714Y-96193428D01*
X197339857Y-96157142D01*
X197412429Y-96120857D01*
X197485000Y-96048285D01*
X197521286Y-95939428D01*
X197521286Y-95866857D01*
X197485000Y-95758000D01*
X197448714Y-95721714D01*
X196759286Y-95395142D02*
X197521286Y-95395142D01*
X196759286Y-94959714D02*
X197194714Y-95286285D01*
X197521286Y-94959714D02*
X197085857Y-95395142D01*
X196686714Y-94814571D02*
X196686714Y-94234000D01*
X197521286Y-94161429D02*
X197521286Y-93726000D01*
X196759286Y-93943714D02*
X197521286Y-93943714D01*
X197521286Y-93544572D02*
X196759286Y-93036572D01*
X197521286Y-93036572D02*
X196759286Y-93544572D01*
X194727286Y-97608570D02*
X195489286Y-97608570D01*
X194945000Y-97354570D01*
X195489286Y-97100570D01*
X194727286Y-97100570D01*
X194727286Y-96737713D02*
X195489286Y-96737713D01*
X194763571Y-96411142D02*
X194727286Y-96302285D01*
X194727286Y-96120856D01*
X194763571Y-96048285D01*
X194799857Y-96011999D01*
X194872429Y-95975714D01*
X194945000Y-95975714D01*
X195017571Y-96011999D01*
X195053857Y-96048285D01*
X195090143Y-96120856D01*
X195126429Y-96265999D01*
X195162714Y-96338571D01*
X195199000Y-96374856D01*
X195271571Y-96411142D01*
X195344143Y-96411142D01*
X195416714Y-96374856D01*
X195453000Y-96338571D01*
X195489286Y-96265999D01*
X195489286Y-96084571D01*
X195453000Y-95975714D01*
X195489286Y-95504000D02*
X195489286Y-95358857D01*
X195453000Y-95286285D01*
X195380429Y-95213714D01*
X195235286Y-95177428D01*
X194981286Y-95177428D01*
X194836143Y-95213714D01*
X194763571Y-95286285D01*
X194727286Y-95358857D01*
X194727286Y-95504000D01*
X194763571Y-95576571D01*
X194836143Y-95649142D01*
X194981286Y-95685428D01*
X195235286Y-95685428D01*
X195380429Y-95649142D01*
X195453000Y-95576571D01*
X195489286Y-95504000D01*
X194654714Y-95032285D02*
X194654714Y-94451714D01*
X194727286Y-93834857D02*
X195090143Y-94088857D01*
X194727286Y-94270285D02*
X195489286Y-94270285D01*
X195489286Y-93980000D01*
X195453000Y-93907428D01*
X195416714Y-93871143D01*
X195344143Y-93834857D01*
X195235286Y-93834857D01*
X195162714Y-93871143D01*
X195126429Y-93907428D01*
X195090143Y-93980000D01*
X195090143Y-94270285D01*
X195489286Y-93580857D02*
X194727286Y-93072857D01*
X195489286Y-93072857D02*
X194727286Y-93580857D01*
X192822286Y-95558428D02*
X193584286Y-95558428D01*
X193040000Y-95304428D01*
X193584286Y-95050428D01*
X192822286Y-95050428D01*
X193584286Y-94542429D02*
X193584286Y-94397286D01*
X193548000Y-94324714D01*
X193475429Y-94252143D01*
X193330286Y-94215857D01*
X193076286Y-94215857D01*
X192931143Y-94252143D01*
X192858571Y-94324714D01*
X192822286Y-94397286D01*
X192822286Y-94542429D01*
X192858571Y-94615000D01*
X192931143Y-94687571D01*
X193076286Y-94723857D01*
X193330286Y-94723857D01*
X193475429Y-94687571D01*
X193548000Y-94615000D01*
X193584286Y-94542429D01*
X192858571Y-93925571D02*
X192822286Y-93816714D01*
X192822286Y-93635285D01*
X192858571Y-93562714D01*
X192894857Y-93526428D01*
X192967429Y-93490143D01*
X193040000Y-93490143D01*
X193112571Y-93526428D01*
X193148857Y-93562714D01*
X193185143Y-93635285D01*
X193221429Y-93780428D01*
X193257714Y-93853000D01*
X193294000Y-93889285D01*
X193366571Y-93925571D01*
X193439143Y-93925571D01*
X193511714Y-93889285D01*
X193548000Y-93853000D01*
X193584286Y-93780428D01*
X193584286Y-93599000D01*
X193548000Y-93490143D01*
X192822286Y-93163571D02*
X193584286Y-93163571D01*
X190826571Y-94887142D02*
X190790286Y-94778285D01*
X190790286Y-94596856D01*
X190826571Y-94524285D01*
X190862857Y-94487999D01*
X190935429Y-94451714D01*
X191008000Y-94451714D01*
X191080571Y-94487999D01*
X191116857Y-94524285D01*
X191153143Y-94596856D01*
X191189429Y-94741999D01*
X191225714Y-94814571D01*
X191262000Y-94850856D01*
X191334571Y-94887142D01*
X191407143Y-94887142D01*
X191479714Y-94850856D01*
X191516000Y-94814571D01*
X191552286Y-94741999D01*
X191552286Y-94560571D01*
X191516000Y-94451714D01*
X190862857Y-93689714D02*
X190826571Y-93726000D01*
X190790286Y-93834857D01*
X190790286Y-93907428D01*
X190826571Y-94016285D01*
X190899143Y-94088857D01*
X190971714Y-94125142D01*
X191116857Y-94161428D01*
X191225714Y-94161428D01*
X191370857Y-94125142D01*
X191443429Y-94088857D01*
X191516000Y-94016285D01*
X191552286Y-93907428D01*
X191552286Y-93834857D01*
X191516000Y-93726000D01*
X191479714Y-93689714D01*
X190790286Y-93000285D02*
X190790286Y-93363142D01*
X191552286Y-93363142D01*
X188794571Y-94905285D02*
X188758286Y-94796428D01*
X188758286Y-94614999D01*
X188794571Y-94542428D01*
X188830857Y-94506142D01*
X188903429Y-94469857D01*
X188976000Y-94469857D01*
X189048571Y-94506142D01*
X189084857Y-94542428D01*
X189121143Y-94614999D01*
X189157429Y-94760142D01*
X189193714Y-94832714D01*
X189230000Y-94868999D01*
X189302571Y-94905285D01*
X189375143Y-94905285D01*
X189447714Y-94868999D01*
X189484000Y-94832714D01*
X189520286Y-94760142D01*
X189520286Y-94578714D01*
X189484000Y-94469857D01*
X188758286Y-94143285D02*
X189520286Y-94143285D01*
X189520286Y-93961857D01*
X189484000Y-93853000D01*
X189411429Y-93780428D01*
X189338857Y-93744143D01*
X189193714Y-93707857D01*
X189084857Y-93707857D01*
X188939714Y-93744143D01*
X188867143Y-93780428D01*
X188794571Y-93853000D01*
X188758286Y-93961857D01*
X188758286Y-94143285D01*
X188976000Y-93417571D02*
X188976000Y-93054714D01*
X188758286Y-93490143D02*
X189520286Y-93236143D01*
X188758286Y-92982143D01*
X186944000Y-94923428D02*
X186944000Y-94560571D01*
X186726286Y-94996000D02*
X187488286Y-94742000D01*
X186726286Y-94488000D01*
X186726286Y-94233999D02*
X187488286Y-94233999D01*
X187488286Y-94052571D01*
X187452000Y-93943714D01*
X187379429Y-93871142D01*
X187306857Y-93834857D01*
X187161714Y-93798571D01*
X187052857Y-93798571D01*
X186907714Y-93834857D01*
X186835143Y-93871142D01*
X186762571Y-93943714D01*
X186726286Y-94052571D01*
X186726286Y-94233999D01*
X186798857Y-93036571D02*
X186762571Y-93072857D01*
X186726286Y-93181714D01*
X186726286Y-93254285D01*
X186762571Y-93363142D01*
X186835143Y-93435714D01*
X186907714Y-93471999D01*
X187052857Y-93508285D01*
X187161714Y-93508285D01*
X187306857Y-93471999D01*
X187379429Y-93435714D01*
X187452000Y-93363142D01*
X187488286Y-93254285D01*
X187488286Y-93181714D01*
X187452000Y-93072857D01*
X187415714Y-93036571D01*
X199426286Y-95231857D02*
X199426286Y-94760143D01*
X199136000Y-95014143D01*
X199136000Y-94905285D01*
X199099714Y-94832714D01*
X199063429Y-94796428D01*
X198990857Y-94760143D01*
X198809429Y-94760143D01*
X198736857Y-94796428D01*
X198700571Y-94832714D01*
X198664286Y-94905285D01*
X198664286Y-95123000D01*
X198700571Y-95195571D01*
X198736857Y-95231857D01*
X198736857Y-94433571D02*
X198700571Y-94397286D01*
X198664286Y-94433571D01*
X198700571Y-94469857D01*
X198736857Y-94433571D01*
X198664286Y-94433571D01*
X199426286Y-94143286D02*
X199426286Y-93671572D01*
X199136000Y-93925572D01*
X199136000Y-93816714D01*
X199099714Y-93744143D01*
X199063429Y-93707857D01*
X198990857Y-93671572D01*
X198809429Y-93671572D01*
X198736857Y-93707857D01*
X198700571Y-93744143D01*
X198664286Y-93816714D01*
X198664286Y-94034429D01*
X198700571Y-94107000D01*
X198736857Y-94143286D01*
X199426286Y-93453858D02*
X198664286Y-93199858D01*
X199426286Y-92945858D01*
X185420000Y-94560572D02*
X185456286Y-94633143D01*
X185456286Y-94742000D01*
X185420000Y-94850857D01*
X185347429Y-94923429D01*
X185274857Y-94959714D01*
X185129714Y-94996000D01*
X185020857Y-94996000D01*
X184875714Y-94959714D01*
X184803143Y-94923429D01*
X184730571Y-94850857D01*
X184694286Y-94742000D01*
X184694286Y-94669429D01*
X184730571Y-94560572D01*
X184766857Y-94524286D01*
X185020857Y-94524286D01*
X185020857Y-94669429D01*
X184694286Y-94197714D02*
X185456286Y-94197714D01*
X184694286Y-93762286D01*
X185456286Y-93762286D01*
X184694286Y-93399428D02*
X185456286Y-93399428D01*
X185456286Y-93218000D01*
X185420000Y-93109143D01*
X185347429Y-93036571D01*
X185274857Y-93000286D01*
X185129714Y-92964000D01*
X185020857Y-92964000D01*
X184875714Y-93000286D01*
X184803143Y-93036571D01*
X184730571Y-93109143D01*
X184694286Y-93218000D01*
X184694286Y-93399428D01*
D11*
X192535714Y-98706714D02*
X192607143Y-98778143D01*
X192821429Y-98849571D01*
X192964286Y-98849571D01*
X193178571Y-98778143D01*
X193321429Y-98635286D01*
X193392857Y-98492429D01*
X193464286Y-98206714D01*
X193464286Y-97992429D01*
X193392857Y-97706714D01*
X193321429Y-97563857D01*
X193178571Y-97421000D01*
X192964286Y-97349571D01*
X192821429Y-97349571D01*
X192607143Y-97421000D01*
X192535714Y-97492429D01*
X191607143Y-97349571D02*
X191321429Y-97349571D01*
X191178571Y-97421000D01*
X191035714Y-97563857D01*
X190964286Y-97849571D01*
X190964286Y-98349571D01*
X191035714Y-98635286D01*
X191178571Y-98778143D01*
X191321429Y-98849571D01*
X191607143Y-98849571D01*
X191750000Y-98778143D01*
X191892857Y-98635286D01*
X191964286Y-98349571D01*
X191964286Y-97849571D01*
X191892857Y-97563857D01*
X191750000Y-97421000D01*
X191607143Y-97349571D01*
X190321428Y-98849571D02*
X190321428Y-97349571D01*
X189821428Y-98421000D01*
X189321428Y-97349571D01*
X189321428Y-98849571D01*
X188607142Y-98849571D02*
X188607142Y-97349571D01*
X188107142Y-98421000D01*
X187607142Y-97349571D01*
X187607142Y-98849571D01*
D13*
X183134000Y-95377000D02*
X181737000Y-92583000D01*
D12*
X175006000Y-94687572D02*
X175042286Y-94760143D01*
X175042286Y-94869000D01*
X175006000Y-94977857D01*
X174933429Y-95050429D01*
X174860857Y-95086714D01*
X174715714Y-95123000D01*
X174606857Y-95123000D01*
X174461714Y-95086714D01*
X174389143Y-95050429D01*
X174316571Y-94977857D01*
X174280286Y-94869000D01*
X174280286Y-94796429D01*
X174316571Y-94687572D01*
X174352857Y-94651286D01*
X174606857Y-94651286D01*
X174606857Y-94796429D01*
X174280286Y-94324714D02*
X175042286Y-94324714D01*
X174280286Y-93889286D01*
X175042286Y-93889286D01*
X174280286Y-93526428D02*
X175042286Y-93526428D01*
X175042286Y-93345000D01*
X175006000Y-93236143D01*
X174933429Y-93163571D01*
X174860857Y-93127286D01*
X174715714Y-93091000D01*
X174606857Y-93091000D01*
X174461714Y-93127286D01*
X174389143Y-93163571D01*
X174316571Y-93236143D01*
X174280286Y-93345000D01*
X174280286Y-93526428D01*
X181011286Y-93744142D02*
X181011286Y-94106999D01*
X180648429Y-94143285D01*
X180684714Y-94106999D01*
X180721000Y-94034428D01*
X180721000Y-93852999D01*
X180684714Y-93780428D01*
X180648429Y-93744142D01*
X180575857Y-93707857D01*
X180394429Y-93707857D01*
X180321857Y-93744142D01*
X180285571Y-93780428D01*
X180249286Y-93852999D01*
X180249286Y-94034428D01*
X180285571Y-94106999D01*
X180321857Y-94143285D01*
X181011286Y-93490143D02*
X180249286Y-93236143D01*
X181011286Y-92982143D01*
X178289857Y-95250000D02*
X178253571Y-95286286D01*
X178217286Y-95395143D01*
X178217286Y-95467714D01*
X178253571Y-95576571D01*
X178326143Y-95649143D01*
X178398714Y-95685428D01*
X178543857Y-95721714D01*
X178652714Y-95721714D01*
X178797857Y-95685428D01*
X178870429Y-95649143D01*
X178943000Y-95576571D01*
X178979286Y-95467714D01*
X178979286Y-95395143D01*
X178943000Y-95286286D01*
X178906714Y-95250000D01*
X178435000Y-94959714D02*
X178435000Y-94596857D01*
X178217286Y-95032286D02*
X178979286Y-94778286D01*
X178217286Y-94524286D01*
X178217286Y-94270285D02*
X178979286Y-94270285D01*
X178217286Y-93834857D01*
X178979286Y-93834857D01*
X178217286Y-93471999D02*
X178979286Y-93471999D01*
X178616429Y-93471999D02*
X178616429Y-93036571D01*
X178217286Y-93036571D02*
X178979286Y-93036571D01*
X176384857Y-95159286D02*
X176348571Y-95195572D01*
X176312286Y-95304429D01*
X176312286Y-95377000D01*
X176348571Y-95485857D01*
X176421143Y-95558429D01*
X176493714Y-95594714D01*
X176638857Y-95631000D01*
X176747714Y-95631000D01*
X176892857Y-95594714D01*
X176965429Y-95558429D01*
X177038000Y-95485857D01*
X177074286Y-95377000D01*
X177074286Y-95304429D01*
X177038000Y-95195572D01*
X177001714Y-95159286D01*
X176530000Y-94869000D02*
X176530000Y-94506143D01*
X176312286Y-94941572D02*
X177074286Y-94687572D01*
X176312286Y-94433572D01*
X176312286Y-94179571D02*
X177074286Y-94179571D01*
X176312286Y-93744143D01*
X177074286Y-93744143D01*
X176312286Y-93018428D02*
X176312286Y-93381285D01*
X177074286Y-93381285D01*
D11*
X184606285Y-97309714D02*
X184677714Y-97381143D01*
X184892000Y-97452571D01*
X185034857Y-97452571D01*
X185249142Y-97381143D01*
X185392000Y-97238286D01*
X185463428Y-97095429D01*
X185534857Y-96809714D01*
X185534857Y-96595429D01*
X185463428Y-96309714D01*
X185392000Y-96166857D01*
X185249142Y-96024000D01*
X185034857Y-95952571D01*
X184892000Y-95952571D01*
X184677714Y-96024000D01*
X184606285Y-96095429D01*
X184034857Y-97024000D02*
X183320571Y-97024000D01*
X184177714Y-97452571D02*
X183677714Y-95952571D01*
X183177714Y-97452571D01*
X182677714Y-97452571D02*
X182677714Y-95952571D01*
X181820571Y-97452571D01*
X181820571Y-95952571D01*
D12*
X177364572Y-100711000D02*
X177437143Y-100674714D01*
X177546000Y-100674714D01*
X177654857Y-100711000D01*
X177727429Y-100783571D01*
X177763714Y-100856143D01*
X177800000Y-101001286D01*
X177800000Y-101110143D01*
X177763714Y-101255286D01*
X177727429Y-101327857D01*
X177654857Y-101400429D01*
X177546000Y-101436714D01*
X177473429Y-101436714D01*
X177364572Y-101400429D01*
X177328286Y-101364143D01*
X177328286Y-101110143D01*
X177473429Y-101110143D01*
X177001714Y-101436714D02*
X177001714Y-100674714D01*
X176566286Y-101436714D01*
X176566286Y-100674714D01*
X176203428Y-101436714D02*
X176203428Y-100674714D01*
X176022000Y-100674714D01*
X175913143Y-100711000D01*
X175840571Y-100783571D01*
X175804286Y-100856143D01*
X175768000Y-101001286D01*
X175768000Y-101110143D01*
X175804286Y-101255286D01*
X175840571Y-101327857D01*
X175913143Y-101400429D01*
X176022000Y-101436714D01*
X176203428Y-101436714D01*
X176929142Y-96737714D02*
X177291999Y-96737714D01*
X177328285Y-97100571D01*
X177291999Y-97064286D01*
X177219428Y-97028000D01*
X177037999Y-97028000D01*
X176965428Y-97064286D01*
X176929142Y-97100571D01*
X176892857Y-97173143D01*
X176892857Y-97354571D01*
X176929142Y-97427143D01*
X176965428Y-97463429D01*
X177037999Y-97499714D01*
X177219428Y-97499714D01*
X177291999Y-97463429D01*
X177328285Y-97427143D01*
X176675143Y-96737714D02*
X176421143Y-97499714D01*
X176167143Y-96737714D01*
X177908857Y-98769714D02*
X177437143Y-98769714D01*
X177691143Y-99060000D01*
X177582285Y-99060000D01*
X177509714Y-99096286D01*
X177473428Y-99132571D01*
X177437143Y-99205143D01*
X177437143Y-99386571D01*
X177473428Y-99459143D01*
X177509714Y-99495429D01*
X177582285Y-99531714D01*
X177800000Y-99531714D01*
X177872571Y-99495429D01*
X177908857Y-99459143D01*
X177110571Y-99459143D02*
X177074286Y-99495429D01*
X177110571Y-99531714D01*
X177146857Y-99495429D01*
X177110571Y-99459143D01*
X177110571Y-99531714D01*
X176820286Y-98769714D02*
X176348572Y-98769714D01*
X176602572Y-99060000D01*
X176493714Y-99060000D01*
X176421143Y-99096286D01*
X176384857Y-99132571D01*
X176348572Y-99205143D01*
X176348572Y-99386571D01*
X176384857Y-99459143D01*
X176421143Y-99495429D01*
X176493714Y-99531714D01*
X176711429Y-99531714D01*
X176784000Y-99495429D01*
X176820286Y-99459143D01*
X176130858Y-98769714D02*
X175876858Y-99531714D01*
X175622858Y-98769714D01*
D11*
X179026429Y-102786285D02*
X180526429Y-102786285D01*
X180526429Y-102214857D01*
X180455000Y-102071999D01*
X180383571Y-102000571D01*
X180240714Y-101929142D01*
X180026429Y-101929142D01*
X179883571Y-102000571D01*
X179812143Y-102071999D01*
X179740714Y-102214857D01*
X179740714Y-102786285D01*
X179026429Y-101071999D02*
X179097857Y-101214857D01*
X179169286Y-101286285D01*
X179312143Y-101357714D01*
X179740714Y-101357714D01*
X179883571Y-101286285D01*
X179955000Y-101214857D01*
X180026429Y-101071999D01*
X180026429Y-100857714D01*
X179955000Y-100714857D01*
X179883571Y-100643428D01*
X179740714Y-100571999D01*
X179312143Y-100571999D01*
X179169286Y-100643428D01*
X179097857Y-100714857D01*
X179026429Y-100857714D01*
X179026429Y-101071999D01*
X180026429Y-100071999D02*
X179026429Y-99786285D01*
X179740714Y-99500571D01*
X179026429Y-99214856D01*
X180026429Y-98929142D01*
X179097857Y-97786285D02*
X179026429Y-97929142D01*
X179026429Y-98214856D01*
X179097857Y-98357713D01*
X179240714Y-98429142D01*
X179812143Y-98429142D01*
X179955000Y-98357713D01*
X180026429Y-98214856D01*
X180026429Y-97929142D01*
X179955000Y-97786285D01*
X179812143Y-97714856D01*
X179669286Y-97714856D01*
X179526429Y-98429142D01*
X179026429Y-97071999D02*
X180026429Y-97071999D01*
X179740714Y-97071999D02*
X179883571Y-97000571D01*
X179955000Y-96929142D01*
X180026429Y-96786285D01*
X180026429Y-96643428D01*
X205934285Y-109390571D02*
X205934285Y-107890571D01*
X205291428Y-108033429D02*
X205219999Y-107962000D01*
X205077142Y-107890571D01*
X204719999Y-107890571D01*
X204577142Y-107962000D01*
X204505713Y-108033429D01*
X204434285Y-108176286D01*
X204434285Y-108319143D01*
X204505713Y-108533429D01*
X205362856Y-109390571D01*
X204434285Y-109390571D01*
X202934285Y-109247714D02*
X203005714Y-109319143D01*
X203220000Y-109390571D01*
X203362857Y-109390571D01*
X203577142Y-109319143D01*
X203720000Y-109176286D01*
X203791428Y-109033429D01*
X203862857Y-108747714D01*
X203862857Y-108533429D01*
X203791428Y-108247714D01*
X203720000Y-108104857D01*
X203577142Y-107962000D01*
X203362857Y-107890571D01*
X203220000Y-107890571D01*
X203005714Y-107962000D01*
X202934285Y-108033429D01*
D12*
X201966286Y-112757857D02*
X201966286Y-112286143D01*
X201676000Y-112540143D01*
X201676000Y-112431285D01*
X201639714Y-112358714D01*
X201603429Y-112322428D01*
X201530857Y-112286143D01*
X201349429Y-112286143D01*
X201276857Y-112322428D01*
X201240571Y-112358714D01*
X201204286Y-112431285D01*
X201204286Y-112649000D01*
X201240571Y-112721571D01*
X201276857Y-112757857D01*
X201276857Y-111959571D02*
X201240571Y-111923286D01*
X201204286Y-111959571D01*
X201240571Y-111995857D01*
X201276857Y-111959571D01*
X201204286Y-111959571D01*
X201966286Y-111669286D02*
X201966286Y-111197572D01*
X201676000Y-111451572D01*
X201676000Y-111342714D01*
X201639714Y-111270143D01*
X201603429Y-111233857D01*
X201530857Y-111197572D01*
X201349429Y-111197572D01*
X201276857Y-111233857D01*
X201240571Y-111270143D01*
X201204286Y-111342714D01*
X201204286Y-111560429D01*
X201240571Y-111633000D01*
X201276857Y-111669286D01*
X201966286Y-110979858D02*
X201204286Y-110725858D01*
X201966286Y-110471858D01*
X203399571Y-112558285D02*
X203363286Y-112449428D01*
X203363286Y-112267999D01*
X203399571Y-112195428D01*
X203435857Y-112159142D01*
X203508429Y-112122857D01*
X203581000Y-112122857D01*
X203653571Y-112159142D01*
X203689857Y-112195428D01*
X203726143Y-112267999D01*
X203762429Y-112413142D01*
X203798714Y-112485714D01*
X203835000Y-112521999D01*
X203907571Y-112558285D01*
X203980143Y-112558285D01*
X204052714Y-112521999D01*
X204089000Y-112485714D01*
X204125286Y-112413142D01*
X204125286Y-112231714D01*
X204089000Y-112122857D01*
X203363286Y-111796285D02*
X204125286Y-111796285D01*
X204125286Y-111614857D01*
X204089000Y-111506000D01*
X204016429Y-111433428D01*
X203943857Y-111397143D01*
X203798714Y-111360857D01*
X203689857Y-111360857D01*
X203544714Y-111397143D01*
X203472143Y-111433428D01*
X203399571Y-111506000D01*
X203363286Y-111614857D01*
X203363286Y-111796285D01*
X203581000Y-111070571D02*
X203581000Y-110707714D01*
X203363286Y-111143143D02*
X204125286Y-110889143D01*
X203363286Y-110635143D01*
X205304571Y-112540142D02*
X205268286Y-112431285D01*
X205268286Y-112249856D01*
X205304571Y-112177285D01*
X205340857Y-112140999D01*
X205413429Y-112104714D01*
X205486000Y-112104714D01*
X205558571Y-112140999D01*
X205594857Y-112177285D01*
X205631143Y-112249856D01*
X205667429Y-112394999D01*
X205703714Y-112467571D01*
X205740000Y-112503856D01*
X205812571Y-112540142D01*
X205885143Y-112540142D01*
X205957714Y-112503856D01*
X205994000Y-112467571D01*
X206030286Y-112394999D01*
X206030286Y-112213571D01*
X205994000Y-112104714D01*
X205340857Y-111342714D02*
X205304571Y-111379000D01*
X205268286Y-111487857D01*
X205268286Y-111560428D01*
X205304571Y-111669285D01*
X205377143Y-111741857D01*
X205449714Y-111778142D01*
X205594857Y-111814428D01*
X205703714Y-111814428D01*
X205848857Y-111778142D01*
X205921429Y-111741857D01*
X205994000Y-111669285D01*
X206030286Y-111560428D01*
X206030286Y-111487857D01*
X205994000Y-111379000D01*
X205957714Y-111342714D01*
X205268286Y-110653285D02*
X205268286Y-111016142D01*
X206030286Y-111016142D01*
X208026000Y-112213572D02*
X208062286Y-112286143D01*
X208062286Y-112395000D01*
X208026000Y-112503857D01*
X207953429Y-112576429D01*
X207880857Y-112612714D01*
X207735714Y-112649000D01*
X207626857Y-112649000D01*
X207481714Y-112612714D01*
X207409143Y-112576429D01*
X207336571Y-112503857D01*
X207300286Y-112395000D01*
X207300286Y-112322429D01*
X207336571Y-112213572D01*
X207372857Y-112177286D01*
X207626857Y-112177286D01*
X207626857Y-112322429D01*
X207300286Y-111850714D02*
X208062286Y-111850714D01*
X207300286Y-111415286D01*
X208062286Y-111415286D01*
X207300286Y-111052428D02*
X208062286Y-111052428D01*
X208062286Y-110871000D01*
X208026000Y-110762143D01*
X207953429Y-110689571D01*
X207880857Y-110653286D01*
X207735714Y-110617000D01*
X207626857Y-110617000D01*
X207481714Y-110653286D01*
X207409143Y-110689571D01*
X207336571Y-110762143D01*
X207300286Y-110871000D01*
X207300286Y-111052428D01*
%LPC*%
D14*
X230000000Y-112500000D03*
D15*
X231521000Y-94742000D03*
X228981000Y-92202000D03*
X228981000Y-97282000D03*
X234061000Y-97282000D03*
X234061000Y-92202000D03*
D16*
X174244000Y-101031040D03*
D17*
X174244000Y-97028000D03*
X174244000Y-99029520D03*
D18*
X209331560Y-94693740D03*
X204932280Y-94693740D03*
D19*
X197137020Y-91694000D03*
X195138040Y-91694000D03*
X193136520Y-91694000D03*
D20*
X185130440Y-91694000D03*
D19*
X189133480Y-91694000D03*
X187131960Y-91694000D03*
X191132460Y-91694000D03*
X199136000Y-91694000D03*
D20*
X215198960Y-91694000D03*
D19*
X219202000Y-91694000D03*
X217200480Y-91694000D03*
X221200980Y-91694000D03*
X223202500Y-91694000D03*
X225204020Y-91694000D03*
D20*
X174591980Y-91694000D03*
D19*
X178595020Y-91694000D03*
X176593500Y-91694000D03*
X180594000Y-91694000D03*
D14*
X181000000Y-112500000D03*
D20*
X207678019Y-114300000D03*
D19*
X203674979Y-114300000D03*
X205676499Y-114300000D03*
X201675999Y-114300000D03*
M02*
