G04 #@! TF.FileFunction,Legend,Top*
%FSLAX46Y46*%
G04 Gerber Fmt 4.6, Leading zero omitted, Abs format (unit mm)*
G04 Created by KiCad (PCBNEW (2015-09-15 BZR 6201)-product) date tor 18 feb 2016 12:46:51*
%MOMM*%
G01*
G04 APERTURE LIST*
%ADD10C,0.100000*%
%ADD11C,0.150000*%
%ADD12C,0.381000*%
%ADD13C,0.200660*%
%ADD14C,0.114300*%
%ADD15C,6.101600*%
%ADD16R,0.901600X0.851600*%
%ADD17R,0.851600X0.901600*%
%ADD18R,2.250440X1.602740*%
%ADD19R,0.601600X0.701600*%
%ADD20R,0.701600X0.601600*%
%ADD21C,2.601600*%
%ADD22R,0.801600X1.401600*%
%ADD23R,0.701600X0.501600*%
%ADD24R,0.601600X1.001600*%
%ADD25R,0.501600X0.701600*%
%ADD26R,1.800860X1.300480*%
%ADD27O,1.800860X1.300480*%
%ADD28R,0.601980X2.402840*%
%ADD29R,2.100580X2.600960*%
%ADD30C,1.000760*%
%ADD31O,1.300480X1.800860*%
%ADD32R,1.300480X1.800860*%
%ADD33R,1.001600X0.601600*%
%ADD34R,0.751600X1.161600*%
%ADD35O,0.951600X0.401600*%
%ADD36O,0.401600X0.951600*%
%ADD37R,1.776600X1.776600*%
%ADD38R,0.901600X0.451600*%
%ADD39R,0.451600X0.901600*%
%ADD40R,1.351600X1.351600*%
%ADD41O,0.711200X1.574800*%
%ADD42R,1.902460X1.300480*%
%ADD43R,0.899160X0.899160*%
G04 APERTURE END LIST*
D10*
D11*
X233512834Y-112500000D02*
G75*
G03X233512834Y-112500000I-3512834J0D01*
G01*
X174605200Y-109788400D02*
X175305200Y-109788400D01*
X175305200Y-110988400D02*
X174605200Y-110988400D01*
X174605200Y-111464800D02*
X175305200Y-111464800D01*
X175305200Y-112664800D02*
X174605200Y-112664800D01*
X178247600Y-107142800D02*
X178247600Y-107842800D01*
X177047600Y-107842800D02*
X177047600Y-107142800D01*
X187258960Y-95194120D02*
X182057040Y-95194120D01*
X182057040Y-97591880D02*
X187258960Y-97591880D01*
X188257180Y-98691700D02*
X188257180Y-97591880D01*
X188856620Y-98191320D02*
X187657740Y-98191320D01*
X187754260Y-97591880D02*
X187754260Y-95194120D01*
X184313751Y-106729777D02*
X183818777Y-107224751D01*
X182970249Y-106376223D02*
X183465223Y-105881249D01*
X203871751Y-106602777D02*
X203376777Y-107097751D01*
X202528249Y-106249223D02*
X203023223Y-105754249D01*
X199359000Y-98263000D02*
X198659000Y-98263000D01*
X198659000Y-97063000D02*
X199359000Y-97063000D01*
X191212223Y-113320751D02*
X190717249Y-112825777D01*
X191565777Y-111977249D02*
X192060751Y-112472223D01*
X190069223Y-114463751D02*
X189574249Y-113968777D01*
X190422777Y-113120249D02*
X190917751Y-113615223D01*
X218344000Y-95031000D02*
X219044000Y-95031000D01*
X219044000Y-96231000D02*
X218344000Y-96231000D01*
X188050249Y-111710223D02*
X188545223Y-111215249D01*
X189393751Y-112063777D02*
X188898777Y-112558751D01*
X185614919Y-102588553D02*
X186109893Y-102093579D01*
X186958421Y-102942107D02*
X186463447Y-103437081D01*
X198515421Y-112340107D02*
X198020447Y-112835081D01*
X197171919Y-111986553D02*
X197666893Y-111491579D01*
X196038223Y-96810751D02*
X195543249Y-96315777D01*
X196391777Y-95467249D02*
X196886751Y-95962223D01*
X203785223Y-104557751D02*
X203290249Y-104062777D01*
X204138777Y-103214249D02*
X204633751Y-103709223D01*
X208501000Y-101215000D02*
X208501000Y-100715000D01*
X207551000Y-100715000D02*
X207551000Y-101215000D01*
X208361000Y-110396000D02*
X207861000Y-110396000D01*
X207861000Y-111346000D02*
X208361000Y-111346000D01*
X213999000Y-109060000D02*
X214499000Y-109060000D01*
X214499000Y-108110000D02*
X213999000Y-108110000D01*
X210474000Y-113380000D02*
X210474000Y-112680000D01*
X211674000Y-112680000D02*
X211674000Y-113380000D01*
X212983000Y-102329000D02*
X213483000Y-102329000D01*
X213483000Y-101379000D02*
X212983000Y-101379000D01*
X219040000Y-112680000D02*
X219040000Y-113380000D01*
X217840000Y-113380000D02*
X217840000Y-112680000D01*
X214157000Y-100045000D02*
X214157000Y-99345000D01*
X215357000Y-99345000D02*
X215357000Y-100045000D01*
X227426000Y-100803000D02*
X226726000Y-100803000D01*
X226726000Y-99603000D02*
X227426000Y-99603000D01*
X226826000Y-102075000D02*
X227326000Y-102075000D01*
X227326000Y-101125000D02*
X226826000Y-101125000D01*
X226826000Y-103345000D02*
X227326000Y-103345000D01*
X227326000Y-102395000D02*
X226826000Y-102395000D01*
X225265000Y-106041000D02*
X225265000Y-105541000D01*
X224315000Y-105541000D02*
X224315000Y-106041000D01*
X222854000Y-100676000D02*
X222154000Y-100676000D01*
X222154000Y-99476000D02*
X222854000Y-99476000D01*
X221357000Y-100998000D02*
X220857000Y-100998000D01*
X220857000Y-101948000D02*
X221357000Y-101948000D01*
X229075000Y-106041000D02*
X229075000Y-105541000D01*
X228125000Y-105541000D02*
X228125000Y-106041000D01*
X222000000Y-103091000D02*
X222500000Y-103091000D01*
X222500000Y-102141000D02*
X222000000Y-102141000D01*
X232900200Y-105388600D02*
X232900200Y-105888600D01*
X233850200Y-105888600D02*
X233850200Y-105388600D01*
X231554000Y-106557000D02*
X231554000Y-107057000D01*
X232504000Y-107057000D02*
X232504000Y-106557000D01*
X180436000Y-106835500D02*
X179736000Y-106835500D01*
X179736000Y-105635500D02*
X180436000Y-105635500D01*
D12*
X243262800Y-92042000D02*
X242662800Y-92042000D01*
X243262800Y-97442000D02*
X242662800Y-97442000D01*
X237862800Y-97442000D02*
X234862800Y-97442000D01*
X234862800Y-92042000D02*
X237862800Y-92042000D01*
X242562800Y-97942000D02*
X242662800Y-97442000D01*
X242662800Y-97442000D02*
X242662800Y-92042000D01*
X242662800Y-92042000D02*
X242562800Y-91542000D01*
X237862800Y-97442000D02*
X237862800Y-92042000D01*
X237862800Y-92042000D02*
X237962800Y-91542000D01*
X237962800Y-97942000D02*
X237862800Y-97442000D01*
X238662800Y-97942000D02*
X237962800Y-91542000D01*
X240162800Y-97942000D02*
X239462800Y-91542000D01*
X239362800Y-97942000D02*
X238662800Y-91542000D01*
X240962800Y-97942000D02*
X240262800Y-91542000D01*
X241762800Y-97942000D02*
X241062800Y-91542000D01*
X237962800Y-97942000D02*
X242562800Y-97942000D01*
X242562800Y-97942000D02*
X241862800Y-91542000D01*
X237962800Y-91542000D02*
X242562800Y-91542000D01*
X243262800Y-97442000D02*
X243262800Y-92042000D01*
X234862800Y-98042000D02*
X228262800Y-98042000D01*
X228262800Y-98042000D02*
X228261000Y-91442000D01*
X228262800Y-91442000D02*
X234862800Y-91442000D01*
X234862800Y-91442000D02*
X234862800Y-98042000D01*
D11*
X175722800Y-105726200D02*
X174522800Y-105726200D01*
X174522800Y-103976200D02*
X175722800Y-103976200D01*
X216298000Y-106295000D02*
X216298000Y-105795000D01*
X215248000Y-105795000D02*
X215248000Y-106295000D01*
X225916000Y-104144000D02*
X225916000Y-104644000D01*
X226966000Y-104644000D02*
X226966000Y-104144000D01*
X217416000Y-99608000D02*
X216416000Y-99608000D01*
X216416000Y-98258000D02*
X217416000Y-98258000D01*
X227072000Y-105774000D02*
X226572000Y-105774000D01*
X226572000Y-106824000D02*
X227072000Y-106824000D01*
X230628000Y-105774000D02*
X230128000Y-105774000D01*
X230128000Y-106824000D02*
X230628000Y-106824000D01*
D12*
X172544740Y-103030020D02*
X172544740Y-95029020D01*
X176545240Y-95529400D02*
X176545240Y-102529640D01*
X177043080Y-103030020D02*
X177043080Y-95029020D01*
X176044860Y-99931220D02*
X176545240Y-99931220D01*
X176044860Y-100129340D02*
X176044860Y-99931220D01*
X176545240Y-100129340D02*
X176044860Y-100129340D01*
X176545240Y-98130360D02*
X176044860Y-98130360D01*
X176044860Y-98130360D02*
X176044860Y-97932240D01*
X176044860Y-97932240D02*
X176545240Y-97932240D01*
X173743620Y-95029020D02*
X173743620Y-95529400D01*
X175044100Y-95529400D02*
X175044100Y-95029020D01*
X175044100Y-102529640D02*
X175044100Y-103030020D01*
X173743620Y-102529640D02*
X173743620Y-103030020D01*
X172544740Y-100530660D02*
X173045120Y-100530660D01*
X173045120Y-100530660D02*
X173045120Y-102529640D01*
X173045120Y-102529640D02*
X176545240Y-102529640D01*
X176545240Y-95529400D02*
X173045120Y-95529400D01*
X173045120Y-95529400D02*
X173045120Y-97528380D01*
X173045120Y-97528380D02*
X172544740Y-97528380D01*
X172544740Y-103030020D02*
X177043080Y-103030020D01*
X172544740Y-95029020D02*
X177043080Y-95029020D01*
X172544740Y-101330760D02*
X172344080Y-101330760D01*
X172344080Y-101330760D02*
X172344080Y-101630480D01*
X172344080Y-101630480D02*
X172544740Y-101630480D01*
D11*
X210982560Y-90243660D02*
X203281280Y-90243660D01*
X210982560Y-89242900D02*
X203281280Y-89242900D01*
X203281280Y-89242900D02*
X203281280Y-98442780D01*
X203281280Y-98442780D02*
X210982560Y-98442780D01*
X210982560Y-98442780D02*
X210982560Y-89242900D01*
D12*
X183136540Y-94493080D02*
X201134980Y-94493080D01*
X200634600Y-93995240D02*
X183636920Y-93995240D01*
X183136540Y-89994740D02*
X201134980Y-89994740D01*
X194035680Y-93995240D02*
X194035680Y-93494860D01*
X194035680Y-93494860D02*
X194233800Y-93494860D01*
X194233800Y-93494860D02*
X194233800Y-93995240D01*
X198033640Y-93995240D02*
X198033640Y-93494860D01*
X198033640Y-93494860D02*
X198231760Y-93494860D01*
X198231760Y-93494860D02*
X198231760Y-93995240D01*
X192031620Y-93995240D02*
X192031620Y-93494860D01*
X192031620Y-93494860D02*
X192229740Y-93494860D01*
X192229740Y-93494860D02*
X192229740Y-93995240D01*
X196232780Y-93494860D02*
X196232780Y-93995240D01*
X196034660Y-93494860D02*
X196232780Y-93494860D01*
X196034660Y-93995240D02*
X196034660Y-93494860D01*
X188231780Y-93494860D02*
X188231780Y-93995240D01*
X188033660Y-93494860D02*
X188231780Y-93494860D01*
X188033660Y-93995240D02*
X188033660Y-93494860D01*
X186230260Y-93494860D02*
X186230260Y-93995240D01*
X186032140Y-93494860D02*
X186230260Y-93494860D01*
X186032140Y-93995240D02*
X186032140Y-93494860D01*
X190032640Y-93995240D02*
X190032640Y-93494860D01*
X190032640Y-93494860D02*
X190230760Y-93494860D01*
X190230760Y-93494860D02*
X190230760Y-93995240D01*
X201134980Y-91193620D02*
X200634600Y-91193620D01*
X200634600Y-92494100D02*
X201134980Y-92494100D01*
X183631840Y-92494100D02*
X183131460Y-92494100D01*
X183631840Y-91193620D02*
X183131460Y-91193620D01*
X185630820Y-89994740D02*
X185630820Y-90495120D01*
X185630820Y-90495120D02*
X183631840Y-90495120D01*
X183631840Y-90495120D02*
X183631840Y-93995240D01*
X200634600Y-93995240D02*
X200634600Y-90495120D01*
X200634600Y-90495120D02*
X198635620Y-90495120D01*
X198635620Y-90495120D02*
X198635620Y-89994740D01*
X183131460Y-89994740D02*
X183131460Y-94493080D01*
X201134980Y-89994740D02*
X201134980Y-94493080D01*
X184830720Y-89994740D02*
X184830720Y-89794080D01*
X184830720Y-89794080D02*
X184531000Y-89794080D01*
X184531000Y-89794080D02*
X184531000Y-89994740D01*
X227203000Y-89994740D02*
X213202520Y-89994740D01*
X213202520Y-94493080D02*
X227203000Y-94493080D01*
X226702620Y-93995240D02*
X213702900Y-93995240D01*
X222100140Y-93995240D02*
X222100140Y-93494860D01*
X222100140Y-93494860D02*
X222298260Y-93494860D01*
X222298260Y-93494860D02*
X222298260Y-93995240D01*
X224299780Y-93494860D02*
X224299780Y-93995240D01*
X224101660Y-93494860D02*
X224299780Y-93494860D01*
X224101660Y-93995240D02*
X224101660Y-93494860D01*
X218300300Y-93494860D02*
X218300300Y-93995240D01*
X218102180Y-93494860D02*
X218300300Y-93494860D01*
X218102180Y-93995240D02*
X218102180Y-93494860D01*
X216298780Y-93494860D02*
X216298780Y-93995240D01*
X216100660Y-93494860D02*
X216298780Y-93494860D01*
X216100660Y-93995240D02*
X216100660Y-93494860D01*
X220101160Y-93995240D02*
X220101160Y-93494860D01*
X220101160Y-93494860D02*
X220299280Y-93494860D01*
X220299280Y-93494860D02*
X220299280Y-93995240D01*
X227203000Y-91193620D02*
X226702620Y-91193620D01*
X226702620Y-92494100D02*
X227203000Y-92494100D01*
X213700360Y-92494100D02*
X213199980Y-92494100D01*
X213700360Y-91193620D02*
X213199980Y-91193620D01*
X215699340Y-89994740D02*
X215699340Y-90495120D01*
X215699340Y-90495120D02*
X213700360Y-90495120D01*
X213700360Y-90495120D02*
X213700360Y-93995240D01*
X226702620Y-93995240D02*
X226702620Y-90495120D01*
X226702620Y-90495120D02*
X224703640Y-90495120D01*
X224703640Y-90495120D02*
X224703640Y-89994740D01*
X213199980Y-89994740D02*
X213199980Y-94493080D01*
X227203000Y-89994740D02*
X227203000Y-94493080D01*
X214899240Y-89994740D02*
X214899240Y-89794080D01*
X214899240Y-89794080D02*
X214599520Y-89794080D01*
X214599520Y-89794080D02*
X214599520Y-89994740D01*
X177693320Y-93494860D02*
X177693320Y-93995240D01*
X177495200Y-93494860D02*
X177693320Y-93494860D01*
X177495200Y-93995240D02*
X177495200Y-93494860D01*
X172593000Y-94493080D02*
X182595520Y-94493080D01*
X182095140Y-93995240D02*
X173093380Y-93995240D01*
X172593000Y-89994740D02*
X182595520Y-89994740D01*
X175691800Y-93494860D02*
X175691800Y-93995240D01*
X175493680Y-93494860D02*
X175691800Y-93494860D01*
X175493680Y-93995240D02*
X175493680Y-93494860D01*
X179494180Y-93995240D02*
X179494180Y-93494860D01*
X179494180Y-93494860D02*
X179692300Y-93494860D01*
X179692300Y-93494860D02*
X179692300Y-93995240D01*
X182595520Y-91193620D02*
X182095140Y-91193620D01*
X182095140Y-92494100D02*
X182595520Y-92494100D01*
X173093380Y-92494100D02*
X172593000Y-92494100D01*
X173093380Y-91193620D02*
X172593000Y-91193620D01*
X175092360Y-89994740D02*
X175092360Y-90495120D01*
X175092360Y-90495120D02*
X173093380Y-90495120D01*
X173093380Y-90495120D02*
X173093380Y-93995240D01*
X182095140Y-93995240D02*
X182095140Y-90495120D01*
X182095140Y-90495120D02*
X180096160Y-90495120D01*
X180096160Y-90495120D02*
X180096160Y-89994740D01*
X172593000Y-89994740D02*
X172593000Y-94493080D01*
X182595520Y-89994740D02*
X182595520Y-94493080D01*
X174292260Y-89994740D02*
X174292260Y-89794080D01*
X174292260Y-89794080D02*
X173992540Y-89794080D01*
X173992540Y-89794080D02*
X173992540Y-89994740D01*
D11*
X199525000Y-95210000D02*
X200525000Y-95210000D01*
X200525000Y-96560000D02*
X199525000Y-96560000D01*
X206824850Y-102612744D02*
X206117744Y-103319850D01*
X205163150Y-102365256D02*
X205870256Y-101658150D01*
X206316850Y-100707744D02*
X205609744Y-101414850D01*
X204655150Y-100460256D02*
X205362256Y-99753150D01*
X204389520Y-100285574D02*
X203682414Y-100992680D01*
X202727820Y-100038086D02*
X203434926Y-99330980D01*
X208875000Y-100830000D02*
X208875000Y-99830000D01*
X210225000Y-99830000D02*
X210225000Y-100830000D01*
X211876000Y-99830000D02*
X211876000Y-100830000D01*
X210526000Y-100830000D02*
X210526000Y-99830000D01*
X221988000Y-112054000D02*
X220988000Y-112054000D01*
X220988000Y-110704000D02*
X221988000Y-110704000D01*
X201890000Y-110355000D02*
X201890000Y-109355000D01*
X203240000Y-109355000D02*
X203240000Y-110355000D01*
X223639000Y-110403000D02*
X222639000Y-110403000D01*
X222639000Y-109053000D02*
X223639000Y-109053000D01*
X203668000Y-110355000D02*
X203668000Y-109355000D01*
X205018000Y-109355000D02*
X205018000Y-110355000D01*
X205319000Y-110367000D02*
X205319000Y-109367000D01*
X206669000Y-109367000D02*
X206669000Y-110367000D01*
X180840000Y-96306000D02*
X179840000Y-96306000D01*
X179840000Y-94956000D02*
X180840000Y-94956000D01*
X178856000Y-96020000D02*
X178856000Y-97020000D01*
X177506000Y-97020000D02*
X177506000Y-96020000D01*
X173522800Y-107861200D02*
G75*
G03X173522800Y-107861200I-100000J0D01*
G01*
X173672800Y-107311200D02*
X173672800Y-107811200D01*
X176572800Y-107311200D02*
X173672800Y-107311200D01*
X176572800Y-107811200D02*
X176572800Y-107311200D01*
X173672800Y-107811200D02*
X176572800Y-107811200D01*
X212519000Y-103420000D02*
X212519000Y-104170000D01*
X207269000Y-108670000D02*
X207269000Y-107920000D01*
X212519000Y-108670000D02*
X212519000Y-107920000D01*
X207269000Y-103420000D02*
X208019000Y-103420000D01*
X207269000Y-108670000D02*
X208019000Y-108670000D01*
X212519000Y-108670000D02*
X211769000Y-108670000D01*
X212519000Y-103420000D02*
X211769000Y-103420000D01*
X223416000Y-103839000D02*
X223416000Y-104614000D01*
X219116000Y-108139000D02*
X219116000Y-107364000D01*
X223416000Y-108139000D02*
X223416000Y-107364000D01*
X219116000Y-103839000D02*
X219891000Y-103839000D01*
X219116000Y-108139000D02*
X219891000Y-108139000D01*
X223416000Y-108139000D02*
X222641000Y-108139000D01*
X223416000Y-103839000D02*
X222641000Y-103839000D01*
X178587400Y-102311200D02*
G75*
G03X178587400Y-102311200I-127000J0D01*
G01*
X177825400Y-102946200D02*
X182905400Y-102946200D01*
X177825400Y-99644200D02*
X182905400Y-99644200D01*
X177825400Y-103454200D02*
X182905400Y-103454200D01*
X177825400Y-103454200D02*
X177825400Y-99644200D01*
X182905400Y-103454200D02*
X182905400Y-99644200D01*
D13*
X212257640Y-111048800D02*
X217256360Y-111048800D01*
X217256360Y-111048800D02*
X217256360Y-114249200D01*
X217256360Y-114249200D02*
X212257640Y-114249200D01*
X212257640Y-114249200D02*
X212257640Y-111048800D01*
D11*
X187245445Y-104775000D02*
X188005585Y-105535140D01*
X194564000Y-97456445D02*
X195324140Y-98216585D01*
X201882555Y-104775000D02*
X201122415Y-104014860D01*
X194564000Y-112093555D02*
X193803860Y-111333415D01*
X187245445Y-104775000D02*
X188005585Y-104014860D01*
X194564000Y-112093555D02*
X195324140Y-111333415D01*
X201882555Y-104775000D02*
X201122415Y-105535140D01*
X194564000Y-97456445D02*
X193803860Y-98216585D01*
X188005585Y-105535140D02*
X187280800Y-106259924D01*
D13*
X185673198Y-106194173D02*
X189207827Y-109728802D01*
X189207827Y-109728802D02*
X186944802Y-111991827D01*
X186944802Y-111991827D02*
X183410173Y-108457198D01*
X183410173Y-108457198D02*
X185673198Y-106194173D01*
D11*
X184512834Y-112500000D02*
G75*
G03X184512834Y-112500000I-3512834J0D01*
G01*
D12*
X204576679Y-112499140D02*
X204576679Y-111998760D01*
X204774799Y-112499140D02*
X204576679Y-112499140D01*
X204774799Y-111998760D02*
X204774799Y-112499140D01*
X209676999Y-111500920D02*
X199674479Y-111500920D01*
X200174859Y-111998760D02*
X209176619Y-111998760D01*
X209676999Y-115999260D02*
X199674479Y-115999260D01*
X206578199Y-112499140D02*
X206578199Y-111998760D01*
X206776319Y-112499140D02*
X206578199Y-112499140D01*
X206776319Y-111998760D02*
X206776319Y-112499140D01*
X202775819Y-111998760D02*
X202775819Y-112499140D01*
X202775819Y-112499140D02*
X202577699Y-112499140D01*
X202577699Y-112499140D02*
X202577699Y-111998760D01*
X199674479Y-114800380D02*
X200174859Y-114800380D01*
X200174859Y-113499900D02*
X199674479Y-113499900D01*
X209176619Y-113499900D02*
X209676999Y-113499900D01*
X209176619Y-114800380D02*
X209676999Y-114800380D01*
X207177639Y-115999260D02*
X207177639Y-115498880D01*
X207177639Y-115498880D02*
X209176619Y-115498880D01*
X209176619Y-115498880D02*
X209176619Y-111998760D01*
X200174859Y-111998760D02*
X200174859Y-115498880D01*
X200174859Y-115498880D02*
X202173839Y-115498880D01*
X202173839Y-115498880D02*
X202173839Y-115999260D01*
X209676999Y-115999260D02*
X209676999Y-111500920D01*
X199674479Y-115999260D02*
X199674479Y-111500920D01*
X207977739Y-115999260D02*
X207977739Y-116199920D01*
X207977739Y-116199920D02*
X208277459Y-116199920D01*
X208277459Y-116199920D02*
X208277459Y-115999260D01*
D11*
X195826000Y-115610000D02*
X194826000Y-115610000D01*
X194826000Y-114260000D02*
X195826000Y-114260000D01*
X198493000Y-115610000D02*
X197493000Y-115610000D01*
X197493000Y-114260000D02*
X198493000Y-114260000D01*
X174506000Y-114514000D02*
X175506000Y-114514000D01*
X175506000Y-115864000D02*
X174506000Y-115864000D01*
X174506000Y-112863000D02*
X175506000Y-112863000D01*
X175506000Y-114213000D02*
X174506000Y-114213000D01*
X185590000Y-115739000D02*
X187490000Y-115739000D01*
X185590000Y-114639000D02*
X187490000Y-114639000D01*
X186490000Y-115189000D02*
X186940000Y-115189000D01*
X186440000Y-114939000D02*
X186440000Y-115439000D01*
X186440000Y-115189000D02*
X186690000Y-114939000D01*
X186690000Y-114939000D02*
X186690000Y-115439000D01*
X186690000Y-115439000D02*
X186440000Y-115189000D01*
X185590000Y-114469000D02*
X187490000Y-114469000D01*
X185590000Y-113369000D02*
X187490000Y-113369000D01*
X186490000Y-113919000D02*
X186940000Y-113919000D01*
X186440000Y-113669000D02*
X186440000Y-114169000D01*
X186440000Y-113919000D02*
X186690000Y-113669000D01*
X186690000Y-113669000D02*
X186690000Y-114169000D01*
X186690000Y-114169000D02*
X186440000Y-113919000D01*
D14*
X173200786Y-110468833D02*
X173231024Y-110499071D01*
X173261262Y-110589786D01*
X173261262Y-110650262D01*
X173231024Y-110740976D01*
X173170548Y-110801452D01*
X173110071Y-110831691D01*
X172989119Y-110861929D01*
X172898405Y-110861929D01*
X172777452Y-110831691D01*
X172716976Y-110801452D01*
X172656500Y-110740976D01*
X172626262Y-110650262D01*
X172626262Y-110589786D01*
X172656500Y-110499071D01*
X172686738Y-110468833D01*
X173261262Y-109864071D02*
X173261262Y-110226929D01*
X173261262Y-110045500D02*
X172626262Y-110045500D01*
X172716976Y-110105976D01*
X172777452Y-110166452D01*
X172807690Y-110226929D01*
X173200786Y-111992833D02*
X173231024Y-112023071D01*
X173261262Y-112113786D01*
X173261262Y-112174262D01*
X173231024Y-112264976D01*
X173170548Y-112325452D01*
X173110071Y-112355691D01*
X172989119Y-112385929D01*
X172898405Y-112385929D01*
X172777452Y-112355691D01*
X172716976Y-112325452D01*
X172656500Y-112264976D01*
X172626262Y-112174262D01*
X172626262Y-112113786D01*
X172656500Y-112023071D01*
X172686738Y-111992833D01*
X172686738Y-111750929D02*
X172656500Y-111720691D01*
X172626262Y-111660214D01*
X172626262Y-111509024D01*
X172656500Y-111448548D01*
X172686738Y-111418310D01*
X172747214Y-111388071D01*
X172807690Y-111388071D01*
X172898405Y-111418310D01*
X173261262Y-111781167D01*
X173261262Y-111388071D01*
X177899786Y-109579833D02*
X177930024Y-109610071D01*
X177960262Y-109700786D01*
X177960262Y-109761262D01*
X177930024Y-109851976D01*
X177869548Y-109912452D01*
X177809071Y-109942691D01*
X177688119Y-109972929D01*
X177597405Y-109972929D01*
X177476452Y-109942691D01*
X177415976Y-109912452D01*
X177355500Y-109851976D01*
X177325262Y-109761262D01*
X177325262Y-109700786D01*
X177355500Y-109610071D01*
X177385738Y-109579833D01*
X177325262Y-109368167D02*
X177325262Y-108975071D01*
X177567167Y-109186738D01*
X177567167Y-109096024D01*
X177597405Y-109035548D01*
X177627643Y-109005310D01*
X177688119Y-108975071D01*
X177839310Y-108975071D01*
X177899786Y-109005310D01*
X177930024Y-109035548D01*
X177960262Y-109096024D01*
X177960262Y-109277452D01*
X177930024Y-109337929D01*
X177899786Y-109368167D01*
X188514567Y-96568986D02*
X188484329Y-96599224D01*
X188393614Y-96629462D01*
X188333138Y-96629462D01*
X188242424Y-96599224D01*
X188181948Y-96538748D01*
X188151709Y-96478271D01*
X188121471Y-96357319D01*
X188121471Y-96266605D01*
X188151709Y-96145652D01*
X188181948Y-96085176D01*
X188242424Y-96024700D01*
X188333138Y-95994462D01*
X188393614Y-95994462D01*
X188484329Y-96024700D01*
X188514567Y-96054938D01*
X189058852Y-96206129D02*
X189058852Y-96629462D01*
X188907662Y-95964224D02*
X188756471Y-96417795D01*
X189149567Y-96417795D01*
D11*
X187876228Y-98265289D02*
X188638133Y-98265289D01*
X188257181Y-98646241D02*
X188257181Y-97884336D01*
D14*
X182203527Y-108185197D02*
X182203527Y-108227960D01*
X182160763Y-108313487D01*
X182118000Y-108356250D01*
X182032474Y-108399013D01*
X181946948Y-108399013D01*
X181882802Y-108377631D01*
X181775895Y-108313487D01*
X181711750Y-108249342D01*
X181647605Y-108142434D01*
X181626224Y-108078289D01*
X181626224Y-107992763D01*
X181668987Y-107907237D01*
X181711750Y-107864474D01*
X181797277Y-107821710D01*
X181840040Y-107821710D01*
X182203526Y-107372698D02*
X181989710Y-107586514D01*
X182182144Y-107821711D01*
X182182144Y-107778948D01*
X182203527Y-107714803D01*
X182310434Y-107607895D01*
X182374579Y-107586514D01*
X182417342Y-107586514D01*
X182481487Y-107607895D01*
X182588395Y-107714803D01*
X182609776Y-107778948D01*
X182609776Y-107821711D01*
X182588394Y-107885856D01*
X182481487Y-107992763D01*
X182417342Y-108014145D01*
X182374579Y-108014145D01*
X201888527Y-108058197D02*
X201888527Y-108100960D01*
X201845763Y-108186487D01*
X201803000Y-108229250D01*
X201717474Y-108272013D01*
X201631948Y-108272013D01*
X201567802Y-108250631D01*
X201460895Y-108186487D01*
X201396750Y-108122342D01*
X201332605Y-108015434D01*
X201311224Y-107951289D01*
X201311224Y-107865763D01*
X201353987Y-107780237D01*
X201396750Y-107737474D01*
X201482277Y-107694710D01*
X201525040Y-107694710D01*
X201867144Y-107267080D02*
X201781619Y-107352606D01*
X201760237Y-107416750D01*
X201760237Y-107459513D01*
X201781618Y-107566421D01*
X201845763Y-107673330D01*
X202016816Y-107844382D01*
X202080960Y-107865764D01*
X202123724Y-107865763D01*
X202187868Y-107844381D01*
X202273394Y-107758856D01*
X202294776Y-107694711D01*
X202294776Y-107651948D01*
X202273395Y-107587803D01*
X202166487Y-107480895D01*
X202102342Y-107459514D01*
X202059579Y-107459514D01*
X201995434Y-107480895D01*
X201909908Y-107566421D01*
X201888527Y-107630566D01*
X201888526Y-107673330D01*
X201909907Y-107737474D01*
X198903167Y-99286786D02*
X198872929Y-99317024D01*
X198782214Y-99347262D01*
X198721738Y-99347262D01*
X198631024Y-99317024D01*
X198570548Y-99256548D01*
X198540309Y-99196071D01*
X198510071Y-99075119D01*
X198510071Y-98984405D01*
X198540309Y-98863452D01*
X198570548Y-98802976D01*
X198631024Y-98742500D01*
X198721738Y-98712262D01*
X198782214Y-98712262D01*
X198872929Y-98742500D01*
X198903167Y-98772738D01*
X199114833Y-98712262D02*
X199538167Y-98712262D01*
X199266024Y-99347262D01*
X192590644Y-114350973D02*
X192547881Y-114350973D01*
X192462354Y-114308209D01*
X192419591Y-114265446D01*
X192376828Y-114179920D01*
X192376828Y-114094394D01*
X192398210Y-114030248D01*
X192462354Y-113923341D01*
X192526499Y-113859196D01*
X192633407Y-113795051D01*
X192697552Y-113773670D01*
X192783078Y-113773670D01*
X192868604Y-113816433D01*
X192911367Y-113859196D01*
X192954131Y-113944723D01*
X192954131Y-113987486D01*
X193061038Y-114393736D02*
X193039657Y-114329591D01*
X193039656Y-114286827D01*
X193061038Y-114222682D01*
X193082420Y-114201301D01*
X193146564Y-114179919D01*
X193189328Y-114179920D01*
X193253472Y-114201302D01*
X193338998Y-114286827D01*
X193360380Y-114350972D01*
X193360380Y-114393735D01*
X193338999Y-114457880D01*
X193317618Y-114479262D01*
X193253472Y-114500643D01*
X193210709Y-114500643D01*
X193146564Y-114479262D01*
X193061038Y-114393736D01*
X192996894Y-114372354D01*
X192954130Y-114372353D01*
X192889985Y-114393735D01*
X192804459Y-114479262D01*
X192783077Y-114543406D01*
X192783078Y-114586170D01*
X192804460Y-114650314D01*
X192889985Y-114735840D01*
X192954130Y-114757222D01*
X192996893Y-114757222D01*
X193061038Y-114735841D01*
X193146565Y-114650314D01*
X193167946Y-114586169D01*
X193167946Y-114543406D01*
X193146564Y-114479262D01*
X191534803Y-115401527D02*
X191492040Y-115401527D01*
X191406513Y-115358763D01*
X191363750Y-115316000D01*
X191320987Y-115230474D01*
X191320987Y-115144948D01*
X191342369Y-115080802D01*
X191406513Y-114973895D01*
X191470658Y-114909750D01*
X191577566Y-114845605D01*
X191641711Y-114824224D01*
X191727237Y-114824224D01*
X191812763Y-114866987D01*
X191855526Y-114909750D01*
X191898290Y-114995277D01*
X191898290Y-115038040D01*
X191705856Y-115658105D02*
X191791381Y-115743631D01*
X191855526Y-115765013D01*
X191898289Y-115765013D01*
X192005197Y-115743631D01*
X192112105Y-115679487D01*
X192283158Y-115508434D01*
X192304539Y-115444289D01*
X192304539Y-115401526D01*
X192283157Y-115337381D01*
X192197631Y-115251856D01*
X192133487Y-115230474D01*
X192090723Y-115230473D01*
X192026579Y-115251855D01*
X191919670Y-115358763D01*
X191898289Y-115422907D01*
X191898290Y-115465671D01*
X191919671Y-115529816D01*
X192005197Y-115615342D01*
X192069342Y-115636723D01*
X192112105Y-115636723D01*
X192176250Y-115615342D01*
X220825786Y-95984786D02*
X220795548Y-96015024D01*
X220704833Y-96045262D01*
X220644357Y-96045262D01*
X220553643Y-96015024D01*
X220493167Y-95954548D01*
X220462928Y-95894071D01*
X220432690Y-95773119D01*
X220432690Y-95682405D01*
X220462928Y-95561452D01*
X220493167Y-95500976D01*
X220553643Y-95440500D01*
X220644357Y-95410262D01*
X220704833Y-95410262D01*
X220795548Y-95440500D01*
X220825786Y-95470738D01*
X221430548Y-96045262D02*
X221067690Y-96045262D01*
X221249119Y-96045262D02*
X221249119Y-95410262D01*
X221188643Y-95500976D01*
X221128167Y-95561452D01*
X221067690Y-95591690D01*
X221823643Y-95410262D02*
X221884119Y-95410262D01*
X221944595Y-95440500D01*
X221974833Y-95470738D01*
X222005071Y-95531214D01*
X222035310Y-95652167D01*
X222035310Y-95803357D01*
X222005071Y-95924310D01*
X221974833Y-95984786D01*
X221944595Y-96015024D01*
X221884119Y-96045262D01*
X221823643Y-96045262D01*
X221763167Y-96015024D01*
X221732929Y-95984786D01*
X221702690Y-95924310D01*
X221672452Y-95803357D01*
X221672452Y-95652167D01*
X221702690Y-95531214D01*
X221732929Y-95470738D01*
X221763167Y-95440500D01*
X221823643Y-95410262D01*
X189669987Y-110488711D02*
X189627224Y-110488711D01*
X189541698Y-110445947D01*
X189498935Y-110403184D01*
X189456172Y-110317658D01*
X189456172Y-110232132D01*
X189477553Y-110167986D01*
X189541698Y-110061079D01*
X189605842Y-109996935D01*
X189712750Y-109932789D01*
X189776895Y-109911409D01*
X189862421Y-109911409D01*
X189947947Y-109954172D01*
X189990710Y-109996935D01*
X190033474Y-110082461D01*
X190033474Y-110125224D01*
X190054856Y-110959105D02*
X189798276Y-110702526D01*
X189926566Y-110830816D02*
X190375579Y-110381803D01*
X190268671Y-110403184D01*
X190183145Y-110403184D01*
X190119000Y-110381802D01*
X190482487Y-111386737D02*
X190225907Y-111130157D01*
X190354197Y-111258447D02*
X190803210Y-110809434D01*
X190696302Y-110830816D01*
X190610777Y-110830816D01*
X190546631Y-110809433D01*
X185291711Y-102303013D02*
X185291711Y-102345776D01*
X185248947Y-102431302D01*
X185206184Y-102474065D01*
X185120658Y-102516828D01*
X185035132Y-102516828D01*
X184970986Y-102495447D01*
X184864079Y-102431302D01*
X184799935Y-102367158D01*
X184735789Y-102260250D01*
X184714409Y-102196105D01*
X184714409Y-102110579D01*
X184757172Y-102025053D01*
X184799935Y-101982290D01*
X184885461Y-101939526D01*
X184928224Y-101939526D01*
X185762105Y-101918144D02*
X185505526Y-102174724D01*
X185633816Y-102046434D02*
X185184803Y-101597421D01*
X185206184Y-101704329D01*
X185206184Y-101789855D01*
X185184802Y-101854000D01*
X185462763Y-101319461D02*
X185740724Y-101041500D01*
X185762105Y-101362224D01*
X185826250Y-101298080D01*
X185890394Y-101276698D01*
X185933157Y-101276698D01*
X185997302Y-101298079D01*
X186104211Y-101404987D01*
X186125591Y-101469132D01*
X186125591Y-101511895D01*
X186104210Y-101576040D01*
X185975921Y-101704329D01*
X185911776Y-101725711D01*
X185869013Y-101725711D01*
X199515712Y-110939013D02*
X199515712Y-110981776D01*
X199472948Y-111067302D01*
X199430185Y-111110065D01*
X199344659Y-111152828D01*
X199259133Y-111152828D01*
X199194987Y-111131447D01*
X199088080Y-111067302D01*
X199023936Y-111003158D01*
X198959790Y-110896250D01*
X198938410Y-110832105D01*
X198938410Y-110746579D01*
X198981173Y-110661053D01*
X199023936Y-110618290D01*
X199109462Y-110575526D01*
X199152225Y-110575526D01*
X199986106Y-110554144D02*
X199729527Y-110810724D01*
X199857817Y-110682434D02*
X199408804Y-110233421D01*
X199430185Y-110340329D01*
X199430185Y-110425855D01*
X199408803Y-110490000D01*
X200071632Y-109869935D02*
X200370974Y-110169277D01*
X199793672Y-109805790D02*
X200007487Y-110233421D01*
X200285448Y-109955461D01*
X193393786Y-95603786D02*
X193363548Y-95634024D01*
X193272833Y-95664262D01*
X193212357Y-95664262D01*
X193121643Y-95634024D01*
X193061167Y-95573548D01*
X193030928Y-95513071D01*
X193000690Y-95392119D01*
X193000690Y-95301405D01*
X193030928Y-95180452D01*
X193061167Y-95119976D01*
X193121643Y-95059500D01*
X193212357Y-95029262D01*
X193272833Y-95029262D01*
X193363548Y-95059500D01*
X193393786Y-95089738D01*
X193998548Y-95664262D02*
X193635690Y-95664262D01*
X193817119Y-95664262D02*
X193817119Y-95029262D01*
X193756643Y-95119976D01*
X193696167Y-95180452D01*
X193635690Y-95210690D01*
X194573071Y-95029262D02*
X194270690Y-95029262D01*
X194240452Y-95331643D01*
X194270690Y-95301405D01*
X194331167Y-95271167D01*
X194482357Y-95271167D01*
X194542833Y-95301405D01*
X194573071Y-95331643D01*
X194603310Y-95392119D01*
X194603310Y-95543310D01*
X194573071Y-95603786D01*
X194542833Y-95634024D01*
X194482357Y-95664262D01*
X194331167Y-95664262D01*
X194270690Y-95634024D01*
X194240452Y-95603786D01*
X201671487Y-101979711D02*
X201628724Y-101979711D01*
X201543198Y-101936947D01*
X201500435Y-101894184D01*
X201457672Y-101808658D01*
X201457672Y-101723132D01*
X201479053Y-101658986D01*
X201543198Y-101552079D01*
X201607342Y-101487935D01*
X201714250Y-101423789D01*
X201778395Y-101402409D01*
X201863921Y-101402409D01*
X201949447Y-101445172D01*
X201992210Y-101487935D01*
X202034974Y-101573461D01*
X202034974Y-101616224D01*
X202056356Y-102450105D02*
X201799776Y-102193526D01*
X201928066Y-102321816D02*
X202377079Y-101872803D01*
X202270171Y-101894184D01*
X202184645Y-101894184D01*
X202120500Y-101872802D01*
X202890236Y-102385960D02*
X202804710Y-102300434D01*
X202740565Y-102279053D01*
X202697802Y-102279053D01*
X202590894Y-102300433D01*
X202483986Y-102364579D01*
X202312933Y-102535631D01*
X202291552Y-102599776D01*
X202291553Y-102642539D01*
X202312934Y-102706684D01*
X202398460Y-102792210D01*
X202462605Y-102813591D01*
X202505368Y-102813591D01*
X202569513Y-102792211D01*
X202676421Y-102685302D01*
X202697802Y-102621157D01*
X202697802Y-102578394D01*
X202676420Y-102514250D01*
X202590894Y-102428724D01*
X202526750Y-102407342D01*
X202483986Y-102407342D01*
X202419842Y-102428723D01*
X207363786Y-99540786D02*
X207333548Y-99571024D01*
X207242833Y-99601262D01*
X207182357Y-99601262D01*
X207091643Y-99571024D01*
X207031167Y-99510548D01*
X207000928Y-99450071D01*
X206970690Y-99329119D01*
X206970690Y-99238405D01*
X207000928Y-99117452D01*
X207031167Y-99056976D01*
X207091643Y-98996500D01*
X207182357Y-98966262D01*
X207242833Y-98966262D01*
X207333548Y-98996500D01*
X207363786Y-99026738D01*
X207968548Y-99601262D02*
X207605690Y-99601262D01*
X207787119Y-99601262D02*
X207787119Y-98966262D01*
X207726643Y-99056976D01*
X207666167Y-99117452D01*
X207605690Y-99147690D01*
X208180214Y-98966262D02*
X208603548Y-98966262D01*
X208331405Y-99601262D01*
X207702786Y-109397786D02*
X207672548Y-109428024D01*
X207581833Y-109458262D01*
X207521357Y-109458262D01*
X207430643Y-109428024D01*
X207370167Y-109367548D01*
X207339928Y-109307071D01*
X207309690Y-109186119D01*
X207309690Y-109095405D01*
X207339928Y-108974452D01*
X207370167Y-108913976D01*
X207430643Y-108853500D01*
X207521357Y-108823262D01*
X207581833Y-108823262D01*
X207672548Y-108853500D01*
X207702786Y-108883738D01*
X208307548Y-109458262D02*
X207944690Y-109458262D01*
X208126119Y-109458262D02*
X208126119Y-108823262D01*
X208065643Y-108913976D01*
X208005167Y-108974452D01*
X207944690Y-109004690D01*
X208670405Y-109095405D02*
X208609929Y-109065167D01*
X208579690Y-109034929D01*
X208549452Y-108974452D01*
X208549452Y-108944214D01*
X208579690Y-108883738D01*
X208609929Y-108853500D01*
X208670405Y-108823262D01*
X208791357Y-108823262D01*
X208851833Y-108853500D01*
X208882071Y-108883738D01*
X208912310Y-108944214D01*
X208912310Y-108974452D01*
X208882071Y-109034929D01*
X208851833Y-109065167D01*
X208791357Y-109095405D01*
X208670405Y-109095405D01*
X208609929Y-109125643D01*
X208579690Y-109155881D01*
X208549452Y-109216357D01*
X208549452Y-109337310D01*
X208579690Y-109397786D01*
X208609929Y-109428024D01*
X208670405Y-109458262D01*
X208791357Y-109458262D01*
X208851833Y-109428024D01*
X208882071Y-109397786D01*
X208912310Y-109337310D01*
X208912310Y-109216357D01*
X208882071Y-109155881D01*
X208851833Y-109125643D01*
X208791357Y-109095405D01*
X215872786Y-108811786D02*
X215842548Y-108842024D01*
X215751833Y-108872262D01*
X215691357Y-108872262D01*
X215600643Y-108842024D01*
X215540167Y-108781548D01*
X215509928Y-108721071D01*
X215479690Y-108600119D01*
X215479690Y-108509405D01*
X215509928Y-108388452D01*
X215540167Y-108327976D01*
X215600643Y-108267500D01*
X215691357Y-108237262D01*
X215751833Y-108237262D01*
X215842548Y-108267500D01*
X215872786Y-108297738D01*
X216477548Y-108872262D02*
X216114690Y-108872262D01*
X216296119Y-108872262D02*
X216296119Y-108237262D01*
X216235643Y-108327976D01*
X216175167Y-108388452D01*
X216114690Y-108418690D01*
X216779929Y-108872262D02*
X216900881Y-108872262D01*
X216961357Y-108842024D01*
X216991595Y-108811786D01*
X217052071Y-108721071D01*
X217082310Y-108600119D01*
X217082310Y-108358214D01*
X217052071Y-108297738D01*
X217021833Y-108267500D01*
X216961357Y-108237262D01*
X216840405Y-108237262D01*
X216779929Y-108267500D01*
X216749690Y-108297738D01*
X216719452Y-108358214D01*
X216719452Y-108509405D01*
X216749690Y-108569881D01*
X216779929Y-108600119D01*
X216840405Y-108630357D01*
X216961357Y-108630357D01*
X217021833Y-108600119D01*
X217052071Y-108569881D01*
X217082310Y-108509405D01*
X211300786Y-111152214D02*
X211331024Y-111182452D01*
X211361262Y-111273167D01*
X211361262Y-111333643D01*
X211331024Y-111424357D01*
X211270548Y-111484833D01*
X211210071Y-111515072D01*
X211089119Y-111545310D01*
X210998405Y-111545310D01*
X210877452Y-111515072D01*
X210816976Y-111484833D01*
X210756500Y-111424357D01*
X210726262Y-111333643D01*
X210726262Y-111273167D01*
X210756500Y-111182452D01*
X210786738Y-111152214D01*
X210786738Y-110910310D02*
X210756500Y-110880072D01*
X210726262Y-110819595D01*
X210726262Y-110668405D01*
X210756500Y-110607929D01*
X210786738Y-110577691D01*
X210847214Y-110547452D01*
X210907690Y-110547452D01*
X210998405Y-110577691D01*
X211361262Y-110940548D01*
X211361262Y-110547452D01*
X210726262Y-110154357D02*
X210726262Y-110093881D01*
X210756500Y-110033405D01*
X210786738Y-110003167D01*
X210847214Y-109972929D01*
X210968167Y-109942690D01*
X211119357Y-109942690D01*
X211240310Y-109972929D01*
X211300786Y-110003167D01*
X211331024Y-110033405D01*
X211361262Y-110093881D01*
X211361262Y-110154357D01*
X211331024Y-110214833D01*
X211300786Y-110245071D01*
X211240310Y-110275310D01*
X211119357Y-110305548D01*
X210968167Y-110305548D01*
X210847214Y-110275310D01*
X210786738Y-110245071D01*
X210756500Y-110214833D01*
X210726262Y-110154357D01*
X214983786Y-102080786D02*
X214953548Y-102111024D01*
X214862833Y-102141262D01*
X214802357Y-102141262D01*
X214711643Y-102111024D01*
X214651167Y-102050548D01*
X214620928Y-101990071D01*
X214590690Y-101869119D01*
X214590690Y-101778405D01*
X214620928Y-101657452D01*
X214651167Y-101596976D01*
X214711643Y-101536500D01*
X214802357Y-101506262D01*
X214862833Y-101506262D01*
X214953548Y-101536500D01*
X214983786Y-101566738D01*
X215225690Y-101566738D02*
X215255928Y-101536500D01*
X215316405Y-101506262D01*
X215467595Y-101506262D01*
X215528071Y-101536500D01*
X215558309Y-101566738D01*
X215588548Y-101627214D01*
X215588548Y-101687690D01*
X215558309Y-101778405D01*
X215195452Y-102141262D01*
X215588548Y-102141262D01*
X216193310Y-102141262D02*
X215830452Y-102141262D01*
X216011881Y-102141262D02*
X216011881Y-101506262D01*
X215951405Y-101596976D01*
X215890929Y-101657452D01*
X215830452Y-101687690D01*
X219809786Y-113438214D02*
X219840024Y-113468452D01*
X219870262Y-113559167D01*
X219870262Y-113619643D01*
X219840024Y-113710357D01*
X219779548Y-113770833D01*
X219719071Y-113801072D01*
X219598119Y-113831310D01*
X219507405Y-113831310D01*
X219386452Y-113801072D01*
X219325976Y-113770833D01*
X219265500Y-113710357D01*
X219235262Y-113619643D01*
X219235262Y-113559167D01*
X219265500Y-113468452D01*
X219295738Y-113438214D01*
X219295738Y-113196310D02*
X219265500Y-113166072D01*
X219235262Y-113105595D01*
X219235262Y-112954405D01*
X219265500Y-112893929D01*
X219295738Y-112863691D01*
X219356214Y-112833452D01*
X219416690Y-112833452D01*
X219507405Y-112863691D01*
X219870262Y-113226548D01*
X219870262Y-112833452D01*
X219295738Y-112591548D02*
X219265500Y-112561310D01*
X219235262Y-112500833D01*
X219235262Y-112349643D01*
X219265500Y-112289167D01*
X219295738Y-112258929D01*
X219356214Y-112228690D01*
X219416690Y-112228690D01*
X219507405Y-112258929D01*
X219870262Y-112621786D01*
X219870262Y-112228690D01*
X214983786Y-97690214D02*
X215014024Y-97720452D01*
X215044262Y-97811167D01*
X215044262Y-97871643D01*
X215014024Y-97962357D01*
X214953548Y-98022833D01*
X214893071Y-98053072D01*
X214772119Y-98083310D01*
X214681405Y-98083310D01*
X214560452Y-98053072D01*
X214499976Y-98022833D01*
X214439500Y-97962357D01*
X214409262Y-97871643D01*
X214409262Y-97811167D01*
X214439500Y-97720452D01*
X214469738Y-97690214D01*
X214469738Y-97448310D02*
X214439500Y-97418072D01*
X214409262Y-97357595D01*
X214409262Y-97206405D01*
X214439500Y-97145929D01*
X214469738Y-97115691D01*
X214530214Y-97085452D01*
X214590690Y-97085452D01*
X214681405Y-97115691D01*
X215044262Y-97478548D01*
X215044262Y-97085452D01*
X214409262Y-96873786D02*
X214409262Y-96480690D01*
X214651167Y-96692357D01*
X214651167Y-96601643D01*
X214681405Y-96541167D01*
X214711643Y-96510929D01*
X214772119Y-96480690D01*
X214923310Y-96480690D01*
X214983786Y-96510929D01*
X215014024Y-96541167D01*
X215044262Y-96601643D01*
X215044262Y-96783071D01*
X215014024Y-96843548D01*
X214983786Y-96873786D01*
X229080786Y-100429786D02*
X229050548Y-100460024D01*
X228959833Y-100490262D01*
X228899357Y-100490262D01*
X228808643Y-100460024D01*
X228748167Y-100399548D01*
X228717928Y-100339071D01*
X228687690Y-100218119D01*
X228687690Y-100127405D01*
X228717928Y-100006452D01*
X228748167Y-99945976D01*
X228808643Y-99885500D01*
X228899357Y-99855262D01*
X228959833Y-99855262D01*
X229050548Y-99885500D01*
X229080786Y-99915738D01*
X229322690Y-99915738D02*
X229352928Y-99885500D01*
X229413405Y-99855262D01*
X229564595Y-99855262D01*
X229625071Y-99885500D01*
X229655309Y-99915738D01*
X229685548Y-99976214D01*
X229685548Y-100036690D01*
X229655309Y-100127405D01*
X229292452Y-100490262D01*
X229685548Y-100490262D01*
X230229833Y-100066929D02*
X230229833Y-100490262D01*
X230078643Y-99825024D02*
X229927452Y-100278595D01*
X230320548Y-100278595D01*
X228826786Y-101826786D02*
X228796548Y-101857024D01*
X228705833Y-101887262D01*
X228645357Y-101887262D01*
X228554643Y-101857024D01*
X228494167Y-101796548D01*
X228463928Y-101736071D01*
X228433690Y-101615119D01*
X228433690Y-101524405D01*
X228463928Y-101403452D01*
X228494167Y-101342976D01*
X228554643Y-101282500D01*
X228645357Y-101252262D01*
X228705833Y-101252262D01*
X228796548Y-101282500D01*
X228826786Y-101312738D01*
X229068690Y-101312738D02*
X229098928Y-101282500D01*
X229159405Y-101252262D01*
X229310595Y-101252262D01*
X229371071Y-101282500D01*
X229401309Y-101312738D01*
X229431548Y-101373214D01*
X229431548Y-101433690D01*
X229401309Y-101524405D01*
X229038452Y-101887262D01*
X229431548Y-101887262D01*
X230006071Y-101252262D02*
X229703690Y-101252262D01*
X229673452Y-101554643D01*
X229703690Y-101524405D01*
X229764167Y-101494167D01*
X229915357Y-101494167D01*
X229975833Y-101524405D01*
X230006071Y-101554643D01*
X230036310Y-101615119D01*
X230036310Y-101766310D01*
X230006071Y-101826786D01*
X229975833Y-101857024D01*
X229915357Y-101887262D01*
X229764167Y-101887262D01*
X229703690Y-101857024D01*
X229673452Y-101826786D01*
X228826786Y-103096786D02*
X228796548Y-103127024D01*
X228705833Y-103157262D01*
X228645357Y-103157262D01*
X228554643Y-103127024D01*
X228494167Y-103066548D01*
X228463928Y-103006071D01*
X228433690Y-102885119D01*
X228433690Y-102794405D01*
X228463928Y-102673452D01*
X228494167Y-102612976D01*
X228554643Y-102552500D01*
X228645357Y-102522262D01*
X228705833Y-102522262D01*
X228796548Y-102552500D01*
X228826786Y-102582738D01*
X229068690Y-102582738D02*
X229098928Y-102552500D01*
X229159405Y-102522262D01*
X229310595Y-102522262D01*
X229371071Y-102552500D01*
X229401309Y-102582738D01*
X229431548Y-102643214D01*
X229431548Y-102703690D01*
X229401309Y-102794405D01*
X229038452Y-103157262D01*
X229431548Y-103157262D01*
X229975833Y-102522262D02*
X229854881Y-102522262D01*
X229794405Y-102552500D01*
X229764167Y-102582738D01*
X229703690Y-102673452D01*
X229673452Y-102794405D01*
X229673452Y-103036310D01*
X229703690Y-103096786D01*
X229733929Y-103127024D01*
X229794405Y-103157262D01*
X229915357Y-103157262D01*
X229975833Y-103127024D01*
X230006071Y-103096786D01*
X230036310Y-103036310D01*
X230036310Y-102885119D01*
X230006071Y-102824643D01*
X229975833Y-102794405D01*
X229915357Y-102764167D01*
X229794405Y-102764167D01*
X229733929Y-102794405D01*
X229703690Y-102824643D01*
X229673452Y-102885119D01*
X225016786Y-108358214D02*
X225047024Y-108388452D01*
X225077262Y-108479167D01*
X225077262Y-108539643D01*
X225047024Y-108630357D01*
X224986548Y-108690833D01*
X224926071Y-108721072D01*
X224805119Y-108751310D01*
X224714405Y-108751310D01*
X224593452Y-108721072D01*
X224532976Y-108690833D01*
X224472500Y-108630357D01*
X224442262Y-108539643D01*
X224442262Y-108479167D01*
X224472500Y-108388452D01*
X224502738Y-108358214D01*
X224502738Y-108116310D02*
X224472500Y-108086072D01*
X224442262Y-108025595D01*
X224442262Y-107874405D01*
X224472500Y-107813929D01*
X224502738Y-107783691D01*
X224563214Y-107753452D01*
X224623690Y-107753452D01*
X224714405Y-107783691D01*
X225077262Y-108146548D01*
X225077262Y-107753452D01*
X224442262Y-107541786D02*
X224442262Y-107118452D01*
X225077262Y-107390595D01*
X219682786Y-100302786D02*
X219652548Y-100333024D01*
X219561833Y-100363262D01*
X219501357Y-100363262D01*
X219410643Y-100333024D01*
X219350167Y-100272548D01*
X219319928Y-100212071D01*
X219289690Y-100091119D01*
X219289690Y-100000405D01*
X219319928Y-99879452D01*
X219350167Y-99818976D01*
X219410643Y-99758500D01*
X219501357Y-99728262D01*
X219561833Y-99728262D01*
X219652548Y-99758500D01*
X219682786Y-99788738D01*
X219924690Y-99788738D02*
X219954928Y-99758500D01*
X220015405Y-99728262D01*
X220166595Y-99728262D01*
X220227071Y-99758500D01*
X220257309Y-99788738D01*
X220287548Y-99849214D01*
X220287548Y-99909690D01*
X220257309Y-100000405D01*
X219894452Y-100363262D01*
X220287548Y-100363262D01*
X220650405Y-100000405D02*
X220589929Y-99970167D01*
X220559690Y-99939929D01*
X220529452Y-99879452D01*
X220529452Y-99849214D01*
X220559690Y-99788738D01*
X220589929Y-99758500D01*
X220650405Y-99728262D01*
X220771357Y-99728262D01*
X220831833Y-99758500D01*
X220862071Y-99788738D01*
X220892310Y-99849214D01*
X220892310Y-99879452D01*
X220862071Y-99939929D01*
X220831833Y-99970167D01*
X220771357Y-100000405D01*
X220650405Y-100000405D01*
X220589929Y-100030643D01*
X220559690Y-100060881D01*
X220529452Y-100121357D01*
X220529452Y-100242310D01*
X220559690Y-100302786D01*
X220589929Y-100333024D01*
X220650405Y-100363262D01*
X220771357Y-100363262D01*
X220831833Y-100333024D01*
X220862071Y-100302786D01*
X220892310Y-100242310D01*
X220892310Y-100121357D01*
X220862071Y-100060881D01*
X220831833Y-100030643D01*
X220771357Y-100000405D01*
X218581786Y-101699786D02*
X218551548Y-101730024D01*
X218460833Y-101760262D01*
X218400357Y-101760262D01*
X218309643Y-101730024D01*
X218249167Y-101669548D01*
X218218928Y-101609071D01*
X218188690Y-101488119D01*
X218188690Y-101397405D01*
X218218928Y-101276452D01*
X218249167Y-101215976D01*
X218309643Y-101155500D01*
X218400357Y-101125262D01*
X218460833Y-101125262D01*
X218551548Y-101155500D01*
X218581786Y-101185738D01*
X218823690Y-101185738D02*
X218853928Y-101155500D01*
X218914405Y-101125262D01*
X219065595Y-101125262D01*
X219126071Y-101155500D01*
X219156309Y-101185738D01*
X219186548Y-101246214D01*
X219186548Y-101306690D01*
X219156309Y-101397405D01*
X218793452Y-101760262D01*
X219186548Y-101760262D01*
X219488929Y-101760262D02*
X219609881Y-101760262D01*
X219670357Y-101730024D01*
X219700595Y-101699786D01*
X219761071Y-101609071D01*
X219791310Y-101488119D01*
X219791310Y-101246214D01*
X219761071Y-101185738D01*
X219730833Y-101155500D01*
X219670357Y-101125262D01*
X219549405Y-101125262D01*
X219488929Y-101155500D01*
X219458690Y-101185738D01*
X219428452Y-101246214D01*
X219428452Y-101397405D01*
X219458690Y-101457881D01*
X219488929Y-101488119D01*
X219549405Y-101518357D01*
X219670357Y-101518357D01*
X219730833Y-101488119D01*
X219761071Y-101457881D01*
X219791310Y-101397405D01*
X228826786Y-108358214D02*
X228857024Y-108388452D01*
X228887262Y-108479167D01*
X228887262Y-108539643D01*
X228857024Y-108630357D01*
X228796548Y-108690833D01*
X228736071Y-108721072D01*
X228615119Y-108751310D01*
X228524405Y-108751310D01*
X228403452Y-108721072D01*
X228342976Y-108690833D01*
X228282500Y-108630357D01*
X228252262Y-108539643D01*
X228252262Y-108479167D01*
X228282500Y-108388452D01*
X228312738Y-108358214D01*
X228252262Y-108146548D02*
X228252262Y-107753452D01*
X228494167Y-107965119D01*
X228494167Y-107874405D01*
X228524405Y-107813929D01*
X228554643Y-107783691D01*
X228615119Y-107753452D01*
X228766310Y-107753452D01*
X228826786Y-107783691D01*
X228857024Y-107813929D01*
X228887262Y-107874405D01*
X228887262Y-108055833D01*
X228857024Y-108116310D01*
X228826786Y-108146548D01*
X228252262Y-107360357D02*
X228252262Y-107299881D01*
X228282500Y-107239405D01*
X228312738Y-107209167D01*
X228373214Y-107178929D01*
X228494167Y-107148690D01*
X228645357Y-107148690D01*
X228766310Y-107178929D01*
X228826786Y-107209167D01*
X228857024Y-107239405D01*
X228887262Y-107299881D01*
X228887262Y-107360357D01*
X228857024Y-107420833D01*
X228826786Y-107451071D01*
X228766310Y-107481310D01*
X228645357Y-107511548D01*
X228494167Y-107511548D01*
X228373214Y-107481310D01*
X228312738Y-107451071D01*
X228282500Y-107420833D01*
X228252262Y-107360357D01*
X219809786Y-102842786D02*
X219779548Y-102873024D01*
X219688833Y-102903262D01*
X219628357Y-102903262D01*
X219537643Y-102873024D01*
X219477167Y-102812548D01*
X219446928Y-102752071D01*
X219416690Y-102631119D01*
X219416690Y-102540405D01*
X219446928Y-102419452D01*
X219477167Y-102358976D01*
X219537643Y-102298500D01*
X219628357Y-102268262D01*
X219688833Y-102268262D01*
X219779548Y-102298500D01*
X219809786Y-102328738D01*
X220021452Y-102268262D02*
X220414548Y-102268262D01*
X220202881Y-102510167D01*
X220293595Y-102510167D01*
X220354071Y-102540405D01*
X220384309Y-102570643D01*
X220414548Y-102631119D01*
X220414548Y-102782310D01*
X220384309Y-102842786D01*
X220354071Y-102873024D01*
X220293595Y-102903262D01*
X220112167Y-102903262D01*
X220051690Y-102873024D01*
X220021452Y-102842786D01*
X221019310Y-102903262D02*
X220656452Y-102903262D01*
X220837881Y-102903262D02*
X220837881Y-102268262D01*
X220777405Y-102358976D01*
X220716929Y-102419452D01*
X220656452Y-102449690D01*
X233652786Y-103913214D02*
X233683024Y-103943452D01*
X233713262Y-104034167D01*
X233713262Y-104094643D01*
X233683024Y-104185357D01*
X233622548Y-104245833D01*
X233562071Y-104276072D01*
X233441119Y-104306310D01*
X233350405Y-104306310D01*
X233229452Y-104276072D01*
X233168976Y-104245833D01*
X233108500Y-104185357D01*
X233078262Y-104094643D01*
X233078262Y-104034167D01*
X233108500Y-103943452D01*
X233138738Y-103913214D01*
X233078262Y-103701548D02*
X233078262Y-103308452D01*
X233320167Y-103520119D01*
X233320167Y-103429405D01*
X233350405Y-103368929D01*
X233380643Y-103338691D01*
X233441119Y-103308452D01*
X233592310Y-103308452D01*
X233652786Y-103338691D01*
X233683024Y-103368929D01*
X233713262Y-103429405D01*
X233713262Y-103610833D01*
X233683024Y-103671310D01*
X233652786Y-103701548D01*
X233138738Y-103066548D02*
X233108500Y-103036310D01*
X233078262Y-102975833D01*
X233078262Y-102824643D01*
X233108500Y-102764167D01*
X233138738Y-102733929D01*
X233199214Y-102703690D01*
X233259690Y-102703690D01*
X233350405Y-102733929D01*
X233713262Y-103096786D01*
X233713262Y-102703690D01*
X232281186Y-105166614D02*
X232311424Y-105196852D01*
X232341662Y-105287567D01*
X232341662Y-105348043D01*
X232311424Y-105438757D01*
X232250948Y-105499233D01*
X232190471Y-105529472D01*
X232069519Y-105559710D01*
X231978805Y-105559710D01*
X231857852Y-105529472D01*
X231797376Y-105499233D01*
X231736900Y-105438757D01*
X231706662Y-105348043D01*
X231706662Y-105287567D01*
X231736900Y-105196852D01*
X231767138Y-105166614D01*
X231706662Y-104954948D02*
X231706662Y-104561852D01*
X231948567Y-104773519D01*
X231948567Y-104682805D01*
X231978805Y-104622329D01*
X232009043Y-104592091D01*
X232069519Y-104561852D01*
X232220710Y-104561852D01*
X232281186Y-104592091D01*
X232311424Y-104622329D01*
X232341662Y-104682805D01*
X232341662Y-104864233D01*
X232311424Y-104924710D01*
X232281186Y-104954948D01*
X231706662Y-104350186D02*
X231706662Y-103957090D01*
X231948567Y-104168757D01*
X231948567Y-104078043D01*
X231978805Y-104017567D01*
X232009043Y-103987329D01*
X232069519Y-103957090D01*
X232220710Y-103957090D01*
X232281186Y-103987329D01*
X232311424Y-104017567D01*
X232341662Y-104078043D01*
X232341662Y-104259471D01*
X232311424Y-104319948D01*
X232281186Y-104350186D01*
X179677786Y-107795786D02*
X179647548Y-107826024D01*
X179556833Y-107856262D01*
X179496357Y-107856262D01*
X179405643Y-107826024D01*
X179345167Y-107765548D01*
X179314928Y-107705071D01*
X179284690Y-107584119D01*
X179284690Y-107493405D01*
X179314928Y-107372452D01*
X179345167Y-107311976D01*
X179405643Y-107251500D01*
X179496357Y-107221262D01*
X179556833Y-107221262D01*
X179647548Y-107251500D01*
X179677786Y-107281738D01*
X179889452Y-107221262D02*
X180282548Y-107221262D01*
X180070881Y-107463167D01*
X180161595Y-107463167D01*
X180222071Y-107493405D01*
X180252309Y-107523643D01*
X180282548Y-107584119D01*
X180282548Y-107735310D01*
X180252309Y-107795786D01*
X180222071Y-107826024D01*
X180161595Y-107856262D01*
X179980167Y-107856262D01*
X179919690Y-107826024D01*
X179889452Y-107795786D01*
X180826833Y-107432929D02*
X180826833Y-107856262D01*
X180675643Y-107191024D02*
X180524452Y-107644595D01*
X180917548Y-107644595D01*
X232579333Y-98585262D02*
X232579333Y-99038833D01*
X232549095Y-99129548D01*
X232488619Y-99190024D01*
X232397904Y-99220262D01*
X232337428Y-99220262D01*
X233214334Y-99220262D02*
X232851476Y-99220262D01*
X233032905Y-99220262D02*
X233032905Y-98585262D01*
X232972429Y-98675976D01*
X232911953Y-98736452D01*
X232851476Y-98766690D01*
X173261262Y-104880834D02*
X173261262Y-105183215D01*
X172626262Y-105183215D01*
X173261262Y-104336547D02*
X173261262Y-104699405D01*
X173261262Y-104517976D02*
X172626262Y-104517976D01*
X172716976Y-104578452D01*
X172777452Y-104638928D01*
X172807690Y-104699405D01*
X216060262Y-104499834D02*
X216060262Y-104802215D01*
X215425262Y-104802215D01*
X215485738Y-104318405D02*
X215455500Y-104288167D01*
X215425262Y-104227690D01*
X215425262Y-104076500D01*
X215455500Y-104016024D01*
X215485738Y-103985786D01*
X215546214Y-103955547D01*
X215606690Y-103955547D01*
X215697405Y-103985786D01*
X216060262Y-104348643D01*
X216060262Y-103955547D01*
X227871262Y-104372834D02*
X227871262Y-104675215D01*
X227236262Y-104675215D01*
X227236262Y-104221643D02*
X227236262Y-103828547D01*
X227478167Y-104040214D01*
X227478167Y-103949500D01*
X227508405Y-103889024D01*
X227538643Y-103858786D01*
X227599119Y-103828547D01*
X227750310Y-103828547D01*
X227810786Y-103858786D01*
X227841024Y-103889024D01*
X227871262Y-103949500D01*
X227871262Y-104130928D01*
X227841024Y-104191405D01*
X227810786Y-104221643D01*
X216683166Y-100617262D02*
X216380785Y-100617262D01*
X216380785Y-99982262D01*
X217166976Y-100193929D02*
X217166976Y-100617262D01*
X217015786Y-99952024D02*
X216864595Y-100405595D01*
X217257691Y-100405595D01*
X226716166Y-107729262D02*
X226413785Y-107729262D01*
X226413785Y-107094262D01*
X227230214Y-107094262D02*
X226927833Y-107094262D01*
X226897595Y-107396643D01*
X226927833Y-107366405D01*
X226988310Y-107336167D01*
X227139500Y-107336167D01*
X227199976Y-107366405D01*
X227230214Y-107396643D01*
X227260453Y-107457119D01*
X227260453Y-107608310D01*
X227230214Y-107668786D01*
X227199976Y-107699024D01*
X227139500Y-107729262D01*
X226988310Y-107729262D01*
X226927833Y-107699024D01*
X226897595Y-107668786D01*
X230203166Y-107856262D02*
X229900785Y-107856262D01*
X229900785Y-107221262D01*
X230686976Y-107221262D02*
X230566024Y-107221262D01*
X230505548Y-107251500D01*
X230475310Y-107281738D01*
X230414833Y-107372452D01*
X230384595Y-107493405D01*
X230384595Y-107735310D01*
X230414833Y-107795786D01*
X230445072Y-107826024D01*
X230505548Y-107856262D01*
X230626500Y-107856262D01*
X230686976Y-107826024D01*
X230717214Y-107795786D01*
X230747453Y-107735310D01*
X230747453Y-107584119D01*
X230717214Y-107523643D01*
X230686976Y-107493405D01*
X230626500Y-107463167D01*
X230505548Y-107463167D01*
X230445072Y-107493405D01*
X230414833Y-107523643D01*
X230384595Y-107584119D01*
X175928262Y-99528691D02*
X175293262Y-99528691D01*
X175293262Y-99286786D01*
X175323500Y-99226310D01*
X175353738Y-99196071D01*
X175414214Y-99165833D01*
X175504929Y-99165833D01*
X175565405Y-99196071D01*
X175595643Y-99226310D01*
X175625881Y-99286786D01*
X175625881Y-99528691D01*
X175928262Y-98561071D02*
X175928262Y-98923929D01*
X175928262Y-98742500D02*
X175293262Y-98742500D01*
X175383976Y-98802976D01*
X175444452Y-98863452D01*
X175474690Y-98923929D01*
X206668309Y-93251262D02*
X206668309Y-92616262D01*
X206910214Y-92616262D01*
X206970690Y-92646500D01*
X207000929Y-92676738D01*
X207031167Y-92737214D01*
X207031167Y-92827929D01*
X207000929Y-92888405D01*
X206970690Y-92918643D01*
X206910214Y-92948881D01*
X206668309Y-92948881D01*
X207273071Y-92676738D02*
X207303309Y-92646500D01*
X207363786Y-92616262D01*
X207514976Y-92616262D01*
X207575452Y-92646500D01*
X207605690Y-92676738D01*
X207635929Y-92737214D01*
X207635929Y-92797690D01*
X207605690Y-92888405D01*
X207242833Y-93251262D01*
X207635929Y-93251262D01*
X189269309Y-95410262D02*
X189269309Y-94775262D01*
X189511214Y-94775262D01*
X189571690Y-94805500D01*
X189601929Y-94835738D01*
X189632167Y-94896214D01*
X189632167Y-94986929D01*
X189601929Y-95047405D01*
X189571690Y-95077643D01*
X189511214Y-95107881D01*
X189269309Y-95107881D01*
X189843833Y-94775262D02*
X190236929Y-94775262D01*
X190025262Y-95017167D01*
X190115976Y-95017167D01*
X190176452Y-95047405D01*
X190206690Y-95077643D01*
X190236929Y-95138119D01*
X190236929Y-95289310D01*
X190206690Y-95349786D01*
X190176452Y-95380024D01*
X190115976Y-95410262D01*
X189934548Y-95410262D01*
X189874071Y-95380024D01*
X189843833Y-95349786D01*
X226132329Y-95537262D02*
X226132329Y-94902262D01*
X226374234Y-94902262D01*
X226434710Y-94932500D01*
X226464949Y-94962738D01*
X226495187Y-95023214D01*
X226495187Y-95113929D01*
X226464949Y-95174405D01*
X226434710Y-95204643D01*
X226374234Y-95234881D01*
X226132329Y-95234881D01*
X227039472Y-95113929D02*
X227039472Y-95537262D01*
X226888282Y-94872024D02*
X226737091Y-95325595D01*
X227130187Y-95325595D01*
X177204309Y-93251262D02*
X177204309Y-92616262D01*
X177446214Y-92616262D01*
X177506690Y-92646500D01*
X177536929Y-92676738D01*
X177567167Y-92737214D01*
X177567167Y-92827929D01*
X177536929Y-92888405D01*
X177506690Y-92918643D01*
X177446214Y-92948881D01*
X177204309Y-92948881D01*
X178141690Y-92616262D02*
X177839309Y-92616262D01*
X177809071Y-92918643D01*
X177839309Y-92888405D01*
X177899786Y-92858167D01*
X178050976Y-92858167D01*
X178111452Y-92888405D01*
X178141690Y-92918643D01*
X178171929Y-92979119D01*
X178171929Y-93130310D01*
X178141690Y-93190786D01*
X178111452Y-93221024D01*
X178050976Y-93251262D01*
X177899786Y-93251262D01*
X177839309Y-93221024D01*
X177809071Y-93190786D01*
X198014167Y-96172262D02*
X197802500Y-95869881D01*
X197651309Y-96172262D02*
X197651309Y-95537262D01*
X197893214Y-95537262D01*
X197953690Y-95567500D01*
X197983929Y-95597738D01*
X198014167Y-95658214D01*
X198014167Y-95748929D01*
X197983929Y-95809405D01*
X197953690Y-95839643D01*
X197893214Y-95869881D01*
X197651309Y-95869881D01*
X198618929Y-96172262D02*
X198256071Y-96172262D01*
X198437500Y-96172262D02*
X198437500Y-95537262D01*
X198377024Y-95627976D01*
X198316548Y-95688452D01*
X198256071Y-95718690D01*
X206312790Y-104417960D02*
X205949303Y-104353816D01*
X206056210Y-104674539D02*
X205607198Y-104225527D01*
X205778250Y-104054474D01*
X205842395Y-104033093D01*
X205885158Y-104033092D01*
X205949303Y-104054473D01*
X206013448Y-104118619D01*
X206034830Y-104182763D01*
X206034829Y-104225527D01*
X206013447Y-104289671D01*
X205842395Y-104460724D01*
X206077592Y-103840658D02*
X206077592Y-103797895D01*
X206098974Y-103733750D01*
X206205881Y-103626843D01*
X206270026Y-103605461D01*
X206312789Y-103605461D01*
X206376934Y-103626842D01*
X206419697Y-103669605D01*
X206462460Y-103755132D01*
X206462460Y-104268290D01*
X206740421Y-103990329D01*
X204217290Y-102131960D02*
X203853803Y-102067816D01*
X203960710Y-102388539D02*
X203511698Y-101939527D01*
X203682750Y-101768474D01*
X203746895Y-101747093D01*
X203789658Y-101747092D01*
X203853803Y-101768473D01*
X203917948Y-101832619D01*
X203939330Y-101896763D01*
X203939329Y-101939527D01*
X203917947Y-102003671D01*
X203746895Y-102174724D01*
X203917947Y-101533277D02*
X204195908Y-101255316D01*
X204217290Y-101576040D01*
X204281434Y-101511895D01*
X204345579Y-101490514D01*
X204388342Y-101490514D01*
X204452487Y-101511895D01*
X204559395Y-101618803D01*
X204580776Y-101682948D01*
X204580776Y-101725711D01*
X204559394Y-101789856D01*
X204431105Y-101918144D01*
X204366960Y-101939527D01*
X204324197Y-101939527D01*
X202439290Y-99845960D02*
X202075803Y-99781816D01*
X202182710Y-100102539D02*
X201733698Y-99653527D01*
X201904750Y-99482474D01*
X201968895Y-99461093D01*
X202011658Y-99461092D01*
X202075803Y-99482473D01*
X202139948Y-99546619D01*
X202161330Y-99610763D01*
X202161329Y-99653527D01*
X202139947Y-99717671D01*
X201968895Y-99888724D01*
X202524816Y-99161751D02*
X202824157Y-99461093D01*
X202246856Y-99097606D02*
X202460670Y-99525237D01*
X202738631Y-99247276D01*
X209583262Y-102213833D02*
X209280881Y-102425500D01*
X209583262Y-102576691D02*
X208948262Y-102576691D01*
X208948262Y-102334786D01*
X208978500Y-102274310D01*
X209008738Y-102244071D01*
X209069214Y-102213833D01*
X209159929Y-102213833D01*
X209220405Y-102244071D01*
X209250643Y-102274310D01*
X209280881Y-102334786D01*
X209280881Y-102576691D01*
X208948262Y-101639310D02*
X208948262Y-101941691D01*
X209250643Y-101971929D01*
X209220405Y-101941691D01*
X209190167Y-101881214D01*
X209190167Y-101730024D01*
X209220405Y-101669548D01*
X209250643Y-101639310D01*
X209311119Y-101609071D01*
X209462310Y-101609071D01*
X209522786Y-101639310D01*
X209553024Y-101669548D01*
X209583262Y-101730024D01*
X209583262Y-101881214D01*
X209553024Y-101941691D01*
X209522786Y-101971929D01*
X212885262Y-100308833D02*
X212582881Y-100520500D01*
X212885262Y-100671691D02*
X212250262Y-100671691D01*
X212250262Y-100429786D01*
X212280500Y-100369310D01*
X212310738Y-100339071D01*
X212371214Y-100308833D01*
X212461929Y-100308833D01*
X212522405Y-100339071D01*
X212552643Y-100369310D01*
X212582881Y-100429786D01*
X212582881Y-100671691D01*
X212250262Y-99764548D02*
X212250262Y-99885500D01*
X212280500Y-99945976D01*
X212310738Y-99976214D01*
X212401452Y-100036691D01*
X212522405Y-100066929D01*
X212764310Y-100066929D01*
X212824786Y-100036691D01*
X212855024Y-100006452D01*
X212885262Y-99945976D01*
X212885262Y-99825024D01*
X212855024Y-99764548D01*
X212824786Y-99734310D01*
X212764310Y-99704071D01*
X212613119Y-99704071D01*
X212552643Y-99734310D01*
X212522405Y-99764548D01*
X212492167Y-99825024D01*
X212492167Y-99945976D01*
X212522405Y-100006452D01*
X212552643Y-100036691D01*
X212613119Y-100066929D01*
X223287167Y-111666262D02*
X223075500Y-111363881D01*
X222924309Y-111666262D02*
X222924309Y-111031262D01*
X223166214Y-111031262D01*
X223226690Y-111061500D01*
X223256929Y-111091738D01*
X223287167Y-111152214D01*
X223287167Y-111242929D01*
X223256929Y-111303405D01*
X223226690Y-111333643D01*
X223166214Y-111363881D01*
X222924309Y-111363881D01*
X223498833Y-111031262D02*
X223922167Y-111031262D01*
X223650024Y-111666262D01*
X201582262Y-109833833D02*
X201279881Y-110045500D01*
X201582262Y-110196691D02*
X200947262Y-110196691D01*
X200947262Y-109954786D01*
X200977500Y-109894310D01*
X201007738Y-109864071D01*
X201068214Y-109833833D01*
X201158929Y-109833833D01*
X201219405Y-109864071D01*
X201249643Y-109894310D01*
X201279881Y-109954786D01*
X201279881Y-110196691D01*
X201219405Y-109470976D02*
X201189167Y-109531452D01*
X201158929Y-109561691D01*
X201098452Y-109591929D01*
X201068214Y-109591929D01*
X201007738Y-109561691D01*
X200977500Y-109531452D01*
X200947262Y-109470976D01*
X200947262Y-109350024D01*
X200977500Y-109289548D01*
X201007738Y-109259310D01*
X201068214Y-109229071D01*
X201098452Y-109229071D01*
X201158929Y-109259310D01*
X201189167Y-109289548D01*
X201219405Y-109350024D01*
X201219405Y-109470976D01*
X201249643Y-109531452D01*
X201279881Y-109561691D01*
X201340357Y-109591929D01*
X201461310Y-109591929D01*
X201521786Y-109561691D01*
X201552024Y-109531452D01*
X201582262Y-109470976D01*
X201582262Y-109350024D01*
X201552024Y-109289548D01*
X201521786Y-109259310D01*
X201461310Y-109229071D01*
X201340357Y-109229071D01*
X201279881Y-109259310D01*
X201249643Y-109289548D01*
X201219405Y-109350024D01*
X224938167Y-110015262D02*
X224726500Y-109712881D01*
X224575309Y-110015262D02*
X224575309Y-109380262D01*
X224817214Y-109380262D01*
X224877690Y-109410500D01*
X224907929Y-109440738D01*
X224938167Y-109501214D01*
X224938167Y-109591929D01*
X224907929Y-109652405D01*
X224877690Y-109682643D01*
X224817214Y-109712881D01*
X224575309Y-109712881D01*
X225240548Y-110015262D02*
X225361500Y-110015262D01*
X225421976Y-109985024D01*
X225452214Y-109954786D01*
X225512690Y-109864071D01*
X225542929Y-109743119D01*
X225542929Y-109501214D01*
X225512690Y-109440738D01*
X225482452Y-109410500D01*
X225421976Y-109380262D01*
X225301024Y-109380262D01*
X225240548Y-109410500D01*
X225210309Y-109440738D01*
X225180071Y-109501214D01*
X225180071Y-109652405D01*
X225210309Y-109712881D01*
X225240548Y-109743119D01*
X225301024Y-109773357D01*
X225421976Y-109773357D01*
X225482452Y-109743119D01*
X225512690Y-109712881D01*
X225542929Y-109652405D01*
X204757262Y-107977214D02*
X204454881Y-108188881D01*
X204757262Y-108340072D02*
X204122262Y-108340072D01*
X204122262Y-108098167D01*
X204152500Y-108037691D01*
X204182738Y-108007452D01*
X204243214Y-107977214D01*
X204333929Y-107977214D01*
X204394405Y-108007452D01*
X204424643Y-108037691D01*
X204454881Y-108098167D01*
X204454881Y-108340072D01*
X204757262Y-107372452D02*
X204757262Y-107735310D01*
X204757262Y-107553881D02*
X204122262Y-107553881D01*
X204212976Y-107614357D01*
X204273452Y-107674833D01*
X204303690Y-107735310D01*
X204122262Y-106979357D02*
X204122262Y-106918881D01*
X204152500Y-106858405D01*
X204182738Y-106828167D01*
X204243214Y-106797929D01*
X204364167Y-106767690D01*
X204515357Y-106767690D01*
X204636310Y-106797929D01*
X204696786Y-106828167D01*
X204727024Y-106858405D01*
X204757262Y-106918881D01*
X204757262Y-106979357D01*
X204727024Y-107039833D01*
X204696786Y-107070071D01*
X204636310Y-107100310D01*
X204515357Y-107130548D01*
X204364167Y-107130548D01*
X204243214Y-107100310D01*
X204182738Y-107070071D01*
X204152500Y-107039833D01*
X204122262Y-106979357D01*
X206281262Y-108104214D02*
X205978881Y-108315881D01*
X206281262Y-108467072D02*
X205646262Y-108467072D01*
X205646262Y-108225167D01*
X205676500Y-108164691D01*
X205706738Y-108134452D01*
X205767214Y-108104214D01*
X205857929Y-108104214D01*
X205918405Y-108134452D01*
X205948643Y-108164691D01*
X205978881Y-108225167D01*
X205978881Y-108467072D01*
X206281262Y-107499452D02*
X206281262Y-107862310D01*
X206281262Y-107680881D02*
X205646262Y-107680881D01*
X205736976Y-107741357D01*
X205797452Y-107801833D01*
X205827690Y-107862310D01*
X206281262Y-106894690D02*
X206281262Y-107257548D01*
X206281262Y-107076119D02*
X205646262Y-107076119D01*
X205736976Y-107136595D01*
X205797452Y-107197071D01*
X205827690Y-107257548D01*
X180058786Y-97315262D02*
X179847119Y-97012881D01*
X179695928Y-97315262D02*
X179695928Y-96680262D01*
X179937833Y-96680262D01*
X179998309Y-96710500D01*
X180028548Y-96740738D01*
X180058786Y-96801214D01*
X180058786Y-96891929D01*
X180028548Y-96952405D01*
X179998309Y-96982643D01*
X179937833Y-97012881D01*
X179695928Y-97012881D01*
X180663548Y-97315262D02*
X180300690Y-97315262D01*
X180482119Y-97315262D02*
X180482119Y-96680262D01*
X180421643Y-96770976D01*
X180361167Y-96831452D01*
X180300690Y-96861690D01*
X180905452Y-96740738D02*
X180935690Y-96710500D01*
X180996167Y-96680262D01*
X181147357Y-96680262D01*
X181207833Y-96710500D01*
X181238071Y-96740738D01*
X181268310Y-96801214D01*
X181268310Y-96861690D01*
X181238071Y-96952405D01*
X180875214Y-97315262D01*
X181268310Y-97315262D01*
X177960262Y-98960214D02*
X177657881Y-99171881D01*
X177960262Y-99323072D02*
X177325262Y-99323072D01*
X177325262Y-99081167D01*
X177355500Y-99020691D01*
X177385738Y-98990452D01*
X177446214Y-98960214D01*
X177536929Y-98960214D01*
X177597405Y-98990452D01*
X177627643Y-99020691D01*
X177657881Y-99081167D01*
X177657881Y-99323072D01*
X177960262Y-98355452D02*
X177960262Y-98718310D01*
X177960262Y-98536881D02*
X177325262Y-98536881D01*
X177415976Y-98597357D01*
X177476452Y-98657833D01*
X177506690Y-98718310D01*
X177325262Y-98143786D02*
X177325262Y-97750690D01*
X177567167Y-97962357D01*
X177567167Y-97871643D01*
X177597405Y-97811167D01*
X177627643Y-97780929D01*
X177688119Y-97750690D01*
X177839310Y-97750690D01*
X177899786Y-97780929D01*
X177930024Y-97811167D01*
X177960262Y-97871643D01*
X177960262Y-98053071D01*
X177930024Y-98113548D01*
X177899786Y-98143786D01*
X172626262Y-107544810D02*
X173140310Y-107544810D01*
X173200786Y-107514571D01*
X173231024Y-107484333D01*
X173261262Y-107423857D01*
X173261262Y-107302905D01*
X173231024Y-107242429D01*
X173200786Y-107212190D01*
X173140310Y-107181952D01*
X172626262Y-107181952D01*
X173261262Y-106546952D02*
X173261262Y-106909810D01*
X173261262Y-106728381D02*
X172626262Y-106728381D01*
X172716976Y-106788857D01*
X172777452Y-106849333D01*
X172807690Y-106909810D01*
X213130190Y-103665262D02*
X213130190Y-104179310D01*
X213160429Y-104239786D01*
X213190667Y-104270024D01*
X213251143Y-104300262D01*
X213372095Y-104300262D01*
X213432571Y-104270024D01*
X213462810Y-104239786D01*
X213493048Y-104179310D01*
X213493048Y-103665262D01*
X213734952Y-103665262D02*
X214128048Y-103665262D01*
X213916381Y-103907167D01*
X214007095Y-103907167D01*
X214067571Y-103937405D01*
X214097809Y-103967643D01*
X214128048Y-104028119D01*
X214128048Y-104179310D01*
X214097809Y-104239786D01*
X214067571Y-104270024D01*
X214007095Y-104300262D01*
X213825667Y-104300262D01*
X213765190Y-104270024D01*
X213734952Y-104239786D01*
X217448190Y-103792262D02*
X217448190Y-104306310D01*
X217478429Y-104366786D01*
X217508667Y-104397024D01*
X217569143Y-104427262D01*
X217690095Y-104427262D01*
X217750571Y-104397024D01*
X217780810Y-104366786D01*
X217811048Y-104306310D01*
X217811048Y-103792262D01*
X218385571Y-104003929D02*
X218385571Y-104427262D01*
X218234381Y-103762024D02*
X218083190Y-104215595D01*
X218476286Y-104215595D01*
X179881590Y-101201462D02*
X179881590Y-101715510D01*
X179911829Y-101775986D01*
X179942067Y-101806224D01*
X180002543Y-101836462D01*
X180123495Y-101836462D01*
X180183971Y-101806224D01*
X180214210Y-101775986D01*
X180244448Y-101715510D01*
X180244448Y-101201462D01*
X180849209Y-101201462D02*
X180546828Y-101201462D01*
X180516590Y-101503843D01*
X180546828Y-101473605D01*
X180607305Y-101443367D01*
X180758495Y-101443367D01*
X180818971Y-101473605D01*
X180849209Y-101503843D01*
X180879448Y-101564319D01*
X180879448Y-101715510D01*
X180849209Y-101775986D01*
X180818971Y-101806224D01*
X180758495Y-101836462D01*
X180607305Y-101836462D01*
X180546828Y-101806224D01*
X180516590Y-101775986D01*
X214242952Y-112428262D02*
X214666286Y-113063262D01*
X214666286Y-112428262D02*
X214242952Y-113063262D01*
X214877952Y-112488738D02*
X214908190Y-112458500D01*
X214968667Y-112428262D01*
X215119857Y-112428262D01*
X215180333Y-112458500D01*
X215210571Y-112488738D01*
X215240810Y-112549214D01*
X215240810Y-112609690D01*
X215210571Y-112700405D01*
X214847714Y-113063262D01*
X215240810Y-113063262D01*
X193087007Y-103220217D02*
X193450494Y-103583704D01*
X193514639Y-103605085D01*
X193557402Y-103605085D01*
X193621546Y-103583704D01*
X193707072Y-103498178D01*
X193728454Y-103434033D01*
X193728454Y-103391269D01*
X193707073Y-103327125D01*
X193343586Y-102963638D01*
X193578783Y-102813968D02*
X193578783Y-102771205D01*
X193600165Y-102707059D01*
X193707072Y-102600152D01*
X193771217Y-102578770D01*
X193813980Y-102578770D01*
X193878125Y-102600151D01*
X193920888Y-102642914D01*
X193963651Y-102728442D01*
X193963651Y-103241599D01*
X194241612Y-102963638D01*
X186259505Y-108308414D02*
X186109835Y-109056769D01*
X186558847Y-108607757D02*
X185810492Y-108757427D01*
X186516084Y-109463019D02*
X186259505Y-109206440D01*
X186387795Y-109334730D02*
X186836808Y-108885717D01*
X186729900Y-108907098D01*
X186644374Y-108907098D01*
X186580229Y-108885716D01*
X210097309Y-115857262D02*
X210097309Y-115222262D01*
X210339214Y-115222262D01*
X210399690Y-115252500D01*
X210429929Y-115282738D01*
X210460167Y-115343214D01*
X210460167Y-115433929D01*
X210429929Y-115494405D01*
X210399690Y-115524643D01*
X210339214Y-115554881D01*
X210097309Y-115554881D01*
X211004452Y-115222262D02*
X210883500Y-115222262D01*
X210823024Y-115252500D01*
X210792786Y-115282738D01*
X210732309Y-115373452D01*
X210702071Y-115494405D01*
X210702071Y-115736310D01*
X210732309Y-115796786D01*
X210762548Y-115827024D01*
X210823024Y-115857262D01*
X210943976Y-115857262D01*
X211004452Y-115827024D01*
X211034690Y-115796786D01*
X211064929Y-115736310D01*
X211064929Y-115585119D01*
X211034690Y-115524643D01*
X211004452Y-115494405D01*
X210943976Y-115464167D01*
X210823024Y-115464167D01*
X210762548Y-115494405D01*
X210732309Y-115524643D01*
X210702071Y-115585119D01*
X194790786Y-114079262D02*
X194579119Y-113776881D01*
X194427928Y-114079262D02*
X194427928Y-113444262D01*
X194669833Y-113444262D01*
X194730309Y-113474500D01*
X194760548Y-113504738D01*
X194790786Y-113565214D01*
X194790786Y-113655929D01*
X194760548Y-113716405D01*
X194730309Y-113746643D01*
X194669833Y-113776881D01*
X194427928Y-113776881D01*
X195395548Y-114079262D02*
X195032690Y-114079262D01*
X195214119Y-114079262D02*
X195214119Y-113444262D01*
X195153643Y-113534976D01*
X195093167Y-113595452D01*
X195032690Y-113625690D01*
X195939833Y-113655929D02*
X195939833Y-114079262D01*
X195788643Y-113414024D02*
X195637452Y-113867595D01*
X196030548Y-113867595D01*
X197584786Y-114079262D02*
X197373119Y-113776881D01*
X197221928Y-114079262D02*
X197221928Y-113444262D01*
X197463833Y-113444262D01*
X197524309Y-113474500D01*
X197554548Y-113504738D01*
X197584786Y-113565214D01*
X197584786Y-113655929D01*
X197554548Y-113716405D01*
X197524309Y-113746643D01*
X197463833Y-113776881D01*
X197221928Y-113776881D01*
X198189548Y-114079262D02*
X197826690Y-114079262D01*
X198008119Y-114079262D02*
X198008119Y-113444262D01*
X197947643Y-113534976D01*
X197887167Y-113595452D01*
X197826690Y-113625690D01*
X198764071Y-113444262D02*
X198461690Y-113444262D01*
X198431452Y-113746643D01*
X198461690Y-113716405D01*
X198522167Y-113686167D01*
X198673357Y-113686167D01*
X198733833Y-113716405D01*
X198764071Y-113746643D01*
X198794310Y-113807119D01*
X198794310Y-113958310D01*
X198764071Y-114018786D01*
X198733833Y-114049024D01*
X198673357Y-114079262D01*
X198522167Y-114079262D01*
X198461690Y-114049024D01*
X198431452Y-114018786D01*
X173515262Y-115724214D02*
X173212881Y-115935881D01*
X173515262Y-116087072D02*
X172880262Y-116087072D01*
X172880262Y-115845167D01*
X172910500Y-115784691D01*
X172940738Y-115754452D01*
X173001214Y-115724214D01*
X173091929Y-115724214D01*
X173152405Y-115754452D01*
X173182643Y-115784691D01*
X173212881Y-115845167D01*
X173212881Y-116087072D01*
X173515262Y-115119452D02*
X173515262Y-115482310D01*
X173515262Y-115300881D02*
X172880262Y-115300881D01*
X172970976Y-115361357D01*
X173031452Y-115421833D01*
X173061690Y-115482310D01*
X172880262Y-114575167D02*
X172880262Y-114696119D01*
X172910500Y-114756595D01*
X172940738Y-114786833D01*
X173031452Y-114847310D01*
X173152405Y-114877548D01*
X173394310Y-114877548D01*
X173454786Y-114847310D01*
X173485024Y-114817071D01*
X173515262Y-114756595D01*
X173515262Y-114635643D01*
X173485024Y-114575167D01*
X173454786Y-114544929D01*
X173394310Y-114514690D01*
X173243119Y-114514690D01*
X173182643Y-114544929D01*
X173152405Y-114575167D01*
X173122167Y-114635643D01*
X173122167Y-114756595D01*
X173152405Y-114817071D01*
X173182643Y-114847310D01*
X173243119Y-114877548D01*
X173515262Y-113819214D02*
X173212881Y-114030881D01*
X173515262Y-114182072D02*
X172880262Y-114182072D01*
X172880262Y-113940167D01*
X172910500Y-113879691D01*
X172940738Y-113849452D01*
X173001214Y-113819214D01*
X173091929Y-113819214D01*
X173152405Y-113849452D01*
X173182643Y-113879691D01*
X173212881Y-113940167D01*
X173212881Y-114182072D01*
X173515262Y-113214452D02*
X173515262Y-113577310D01*
X173515262Y-113395881D02*
X172880262Y-113395881D01*
X172970976Y-113456357D01*
X173031452Y-113516833D01*
X173061690Y-113577310D01*
X172880262Y-113002786D02*
X172880262Y-112579452D01*
X173515262Y-112851595D01*
X188380309Y-115603262D02*
X188380309Y-114968262D01*
X188531500Y-114968262D01*
X188622214Y-114998500D01*
X188682690Y-115058976D01*
X188712929Y-115119452D01*
X188743167Y-115240405D01*
X188743167Y-115331119D01*
X188712929Y-115452071D01*
X188682690Y-115512548D01*
X188622214Y-115573024D01*
X188531500Y-115603262D01*
X188380309Y-115603262D01*
X189347929Y-115603262D02*
X188985071Y-115603262D01*
X189166500Y-115603262D02*
X189166500Y-114968262D01*
X189106024Y-115058976D01*
X189045548Y-115119452D01*
X188985071Y-115149690D01*
X185459309Y-112936262D02*
X185459309Y-112301262D01*
X185610500Y-112301262D01*
X185701214Y-112331500D01*
X185761690Y-112391976D01*
X185791929Y-112452452D01*
X185822167Y-112573405D01*
X185822167Y-112664119D01*
X185791929Y-112785071D01*
X185761690Y-112845548D01*
X185701214Y-112906024D01*
X185610500Y-112936262D01*
X185459309Y-112936262D01*
X186064071Y-112361738D02*
X186094309Y-112331500D01*
X186154786Y-112301262D01*
X186305976Y-112301262D01*
X186366452Y-112331500D01*
X186396690Y-112361738D01*
X186426929Y-112422214D01*
X186426929Y-112482690D01*
X186396690Y-112573405D01*
X186033833Y-112936262D01*
X186426929Y-112936262D01*
%LPC*%
D15*
X230000000Y-112500000D03*
D16*
X174205200Y-110388400D03*
X175705200Y-110388400D03*
X174205200Y-112064800D03*
X175705200Y-112064800D03*
D17*
X177647600Y-106742800D03*
X177647600Y-108242800D03*
D18*
X183156860Y-96393000D03*
X186159140Y-96393000D03*
D10*
G36*
X184190008Y-105402820D02*
X184792180Y-106004992D01*
X184154652Y-106642520D01*
X183552480Y-106040348D01*
X184190008Y-105402820D01*
X184190008Y-105402820D01*
G37*
G36*
X183129348Y-106463480D02*
X183731520Y-107065652D01*
X183093992Y-107703180D01*
X182491820Y-107101008D01*
X183129348Y-106463480D01*
X183129348Y-106463480D01*
G37*
G36*
X203748008Y-105275820D02*
X204350180Y-105877992D01*
X203712652Y-106515520D01*
X203110480Y-105913348D01*
X203748008Y-105275820D01*
X203748008Y-105275820D01*
G37*
G36*
X202687348Y-106336480D02*
X203289520Y-106938652D01*
X202651992Y-107576180D01*
X202049820Y-106974008D01*
X202687348Y-106336480D01*
X202687348Y-106336480D01*
G37*
D16*
X199759000Y-97663000D03*
X198259000Y-97663000D03*
D10*
G36*
X192539180Y-113197008D02*
X191937008Y-113799180D01*
X191299480Y-113161652D01*
X191901652Y-112559480D01*
X192539180Y-113197008D01*
X192539180Y-113197008D01*
G37*
G36*
X191478520Y-112136348D02*
X190876348Y-112738520D01*
X190238820Y-112100992D01*
X190840992Y-111498820D01*
X191478520Y-112136348D01*
X191478520Y-112136348D01*
G37*
G36*
X191396180Y-114340008D02*
X190794008Y-114942180D01*
X190156480Y-114304652D01*
X190758652Y-113702480D01*
X191396180Y-114340008D01*
X191396180Y-114340008D01*
G37*
G36*
X190335520Y-113279348D02*
X189733348Y-113881520D01*
X189095820Y-113243992D01*
X189697992Y-112641820D01*
X190335520Y-113279348D01*
X190335520Y-113279348D01*
G37*
D16*
X217944000Y-95631000D03*
X219444000Y-95631000D03*
D10*
G36*
X188173992Y-113037180D02*
X187571820Y-112435008D01*
X188209348Y-111797480D01*
X188811520Y-112399652D01*
X188173992Y-113037180D01*
X188173992Y-113037180D01*
G37*
G36*
X189234652Y-111976520D02*
X188632480Y-111374348D01*
X189270008Y-110736820D01*
X189872180Y-111338992D01*
X189234652Y-111976520D01*
X189234652Y-111976520D01*
G37*
G36*
X185738662Y-103915510D02*
X185136490Y-103313338D01*
X185774018Y-102675810D01*
X186376190Y-103277982D01*
X185738662Y-103915510D01*
X185738662Y-103915510D01*
G37*
G36*
X186799322Y-102854850D02*
X186197150Y-102252678D01*
X186834678Y-101615150D01*
X187436850Y-102217322D01*
X186799322Y-102854850D01*
X186799322Y-102854850D01*
G37*
G36*
X198391678Y-111013150D02*
X198993850Y-111615322D01*
X198356322Y-112252850D01*
X197754150Y-111650678D01*
X198391678Y-111013150D01*
X198391678Y-111013150D01*
G37*
G36*
X197331018Y-112073810D02*
X197933190Y-112675982D01*
X197295662Y-113313510D01*
X196693490Y-112711338D01*
X197331018Y-112073810D01*
X197331018Y-112073810D01*
G37*
G36*
X197365180Y-96687008D02*
X196763008Y-97289180D01*
X196125480Y-96651652D01*
X196727652Y-96049480D01*
X197365180Y-96687008D01*
X197365180Y-96687008D01*
G37*
G36*
X196304520Y-95626348D02*
X195702348Y-96228520D01*
X195064820Y-95590992D01*
X195666992Y-94988820D01*
X196304520Y-95626348D01*
X196304520Y-95626348D01*
G37*
G36*
X205112180Y-104434008D02*
X204510008Y-105036180D01*
X203872480Y-104398652D01*
X204474652Y-103796480D01*
X205112180Y-104434008D01*
X205112180Y-104434008D01*
G37*
G36*
X204051520Y-103373348D02*
X203449348Y-103975520D01*
X202811820Y-103337992D01*
X203413992Y-102735820D01*
X204051520Y-103373348D01*
X204051520Y-103373348D01*
G37*
D19*
X208026000Y-100415000D03*
X208026000Y-101515000D03*
D20*
X207561000Y-110871000D03*
X208661000Y-110871000D03*
X214799000Y-108585000D03*
X213699000Y-108585000D03*
D17*
X211074000Y-113780000D03*
X211074000Y-112280000D03*
D20*
X213783000Y-101854000D03*
X212683000Y-101854000D03*
D17*
X218440000Y-112280000D03*
X218440000Y-113780000D03*
X214757000Y-100445000D03*
X214757000Y-98945000D03*
D16*
X227826000Y-100203000D03*
X226326000Y-100203000D03*
D20*
X227626000Y-101600000D03*
X226526000Y-101600000D03*
X227626000Y-102870000D03*
X226526000Y-102870000D03*
D19*
X224790000Y-105241000D03*
X224790000Y-106341000D03*
D16*
X223254000Y-100076000D03*
X221754000Y-100076000D03*
D20*
X220557000Y-101473000D03*
X221657000Y-101473000D03*
D19*
X228600000Y-105241000D03*
X228600000Y-106341000D03*
D20*
X222800000Y-102616000D03*
X221700000Y-102616000D03*
D19*
X233375200Y-106188600D03*
X233375200Y-105088600D03*
X232029000Y-107357000D03*
X232029000Y-106257000D03*
D16*
X180836000Y-106235500D03*
X179336000Y-106235500D03*
D21*
X231521000Y-94742000D03*
X228981000Y-92202000D03*
X228981000Y-97282000D03*
X234061000Y-97282000D03*
X234061000Y-92202000D03*
D22*
X174172800Y-104851200D03*
X176072800Y-104851200D03*
D23*
X215773000Y-105595000D03*
X215773000Y-106495000D03*
X226441000Y-104844000D03*
X226441000Y-103944000D03*
D24*
X216166000Y-98933000D03*
X217666000Y-98933000D03*
D25*
X226372000Y-106299000D03*
X227272000Y-106299000D03*
X229928000Y-106299000D03*
X230828000Y-106299000D03*
D26*
X174244000Y-101031040D03*
D27*
X174244000Y-97028000D03*
X174244000Y-99029520D03*
D28*
X208732120Y-97292160D03*
X207932020Y-97292160D03*
X207131920Y-97292160D03*
X206331820Y-97292160D03*
X205531720Y-97292160D03*
D29*
X211582000Y-97193100D03*
X211582000Y-91694000D03*
X202681840Y-97193100D03*
X202681840Y-91694000D03*
D30*
X209331560Y-94693740D03*
X204932280Y-94693740D03*
D31*
X197137020Y-91694000D03*
X195138040Y-91694000D03*
X193136520Y-91694000D03*
D32*
X185130440Y-91694000D03*
D31*
X189133480Y-91694000D03*
X187131960Y-91694000D03*
X191132460Y-91694000D03*
X199136000Y-91694000D03*
D32*
X215198960Y-91694000D03*
D31*
X219202000Y-91694000D03*
X217200480Y-91694000D03*
X221200980Y-91694000D03*
X223202500Y-91694000D03*
X225204020Y-91694000D03*
D32*
X174591980Y-91694000D03*
D31*
X178595020Y-91694000D03*
X176593500Y-91694000D03*
X180594000Y-91694000D03*
D24*
X200775000Y-95885000D03*
X199275000Y-95885000D03*
D10*
G36*
X205605091Y-103586147D02*
X204896853Y-102877909D01*
X205322249Y-102452513D01*
X206030487Y-103160751D01*
X205605091Y-103586147D01*
X205605091Y-103586147D01*
G37*
G36*
X206665751Y-102525487D02*
X205957513Y-101817249D01*
X206382909Y-101391853D01*
X207091147Y-102100091D01*
X206665751Y-102525487D01*
X206665751Y-102525487D01*
G37*
G36*
X205097091Y-101681147D02*
X204388853Y-100972909D01*
X204814249Y-100547513D01*
X205522487Y-101255751D01*
X205097091Y-101681147D01*
X205097091Y-101681147D01*
G37*
G36*
X206157751Y-100620487D02*
X205449513Y-99912249D01*
X205874909Y-99486853D01*
X206583147Y-100195091D01*
X206157751Y-100620487D01*
X206157751Y-100620487D01*
G37*
G36*
X203169761Y-101258977D02*
X202461523Y-100550739D01*
X202886919Y-100125343D01*
X203595157Y-100833581D01*
X203169761Y-101258977D01*
X203169761Y-101258977D01*
G37*
G36*
X204230421Y-100198317D02*
X203522183Y-99490079D01*
X203947579Y-99064683D01*
X204655817Y-99772921D01*
X204230421Y-100198317D01*
X204230421Y-100198317D01*
G37*
D33*
X209550000Y-99580000D03*
X209550000Y-101080000D03*
X211201000Y-101080000D03*
X211201000Y-99580000D03*
D24*
X220738000Y-111379000D03*
X222238000Y-111379000D03*
D33*
X202565000Y-109105000D03*
X202565000Y-110605000D03*
D24*
X222389000Y-109728000D03*
X223889000Y-109728000D03*
D33*
X204343000Y-109105000D03*
X204343000Y-110605000D03*
X205994000Y-109117000D03*
X205994000Y-110617000D03*
D24*
X179590000Y-95631000D03*
X181090000Y-95631000D03*
D33*
X178181000Y-97270000D03*
X178181000Y-95770000D03*
D34*
X174172800Y-108661200D03*
X175122800Y-108661200D03*
X176072800Y-108661200D03*
X176072800Y-106461200D03*
X174172800Y-106461200D03*
D35*
X207444000Y-104545000D03*
X207444000Y-105045000D03*
X207444000Y-105545000D03*
X207444000Y-106045000D03*
X207444000Y-106545000D03*
X207444000Y-107045000D03*
X207444000Y-107545000D03*
D36*
X208394000Y-108495000D03*
X208894000Y-108495000D03*
X209394000Y-108495000D03*
X209894000Y-108495000D03*
X210394000Y-108495000D03*
X210894000Y-108495000D03*
X211394000Y-108495000D03*
D35*
X212344000Y-107545000D03*
X212344000Y-107045000D03*
X212344000Y-106545000D03*
X212344000Y-106045000D03*
X212344000Y-105545000D03*
X212344000Y-105045000D03*
X212344000Y-104545000D03*
D36*
X211394000Y-103595000D03*
X210894000Y-103595000D03*
X210394000Y-103595000D03*
X209894000Y-103595000D03*
X209394000Y-103595000D03*
X208894000Y-103595000D03*
X208394000Y-103595000D03*
D37*
X210731500Y-106882500D03*
X210731500Y-105207500D03*
X209056500Y-106882500D03*
X209056500Y-105207500D03*
D38*
X219266000Y-105014000D03*
X219266000Y-105664000D03*
X219266000Y-106314000D03*
X219266000Y-106964000D03*
D39*
X220291000Y-107989000D03*
X220941000Y-107989000D03*
X221591000Y-107989000D03*
X222241000Y-107989000D03*
D38*
X223266000Y-106964000D03*
X223266000Y-106314000D03*
X223266000Y-105664000D03*
X223266000Y-105014000D03*
D39*
X222241000Y-103989000D03*
X221591000Y-103989000D03*
X220941000Y-103989000D03*
X220291000Y-103989000D03*
D40*
X221891000Y-106614000D03*
X221891000Y-105364000D03*
X220641000Y-106614000D03*
X220641000Y-105364000D03*
D41*
X178460400Y-104343200D03*
X179730400Y-104343200D03*
X181000400Y-104343200D03*
X182270400Y-104343200D03*
X182270400Y-98755200D03*
X181000400Y-98755200D03*
X179730400Y-98755200D03*
X178460400Y-98755200D03*
D42*
X212857080Y-111399320D03*
X212857080Y-113898680D03*
X216656920Y-113898680D03*
X216656920Y-111399320D03*
D10*
G36*
X187616676Y-106667642D02*
X187368057Y-106419023D01*
X188147006Y-105640074D01*
X188395625Y-105888693D01*
X187616676Y-106667642D01*
X187616676Y-106667642D01*
G37*
G36*
X187970229Y-107021196D02*
X187721610Y-106772577D01*
X188500559Y-105993628D01*
X188749178Y-106242247D01*
X187970229Y-107021196D01*
X187970229Y-107021196D01*
G37*
G36*
X188323783Y-107374749D02*
X188075164Y-107126130D01*
X188854113Y-106347181D01*
X189102732Y-106595800D01*
X188323783Y-107374749D01*
X188323783Y-107374749D01*
G37*
G36*
X188677336Y-107728302D02*
X188428717Y-107479683D01*
X189207666Y-106700734D01*
X189456285Y-106949353D01*
X188677336Y-107728302D01*
X188677336Y-107728302D01*
G37*
G36*
X189030889Y-108081856D02*
X188782270Y-107833237D01*
X189561219Y-107054288D01*
X189809838Y-107302907D01*
X189030889Y-108081856D01*
X189030889Y-108081856D01*
G37*
G36*
X189384443Y-108435409D02*
X189135824Y-108186790D01*
X189914773Y-107407841D01*
X190163392Y-107656460D01*
X189384443Y-108435409D01*
X189384443Y-108435409D01*
G37*
G36*
X189737996Y-108788963D02*
X189489377Y-108540344D01*
X190268326Y-107761395D01*
X190516945Y-108010014D01*
X189737996Y-108788963D01*
X189737996Y-108788963D01*
G37*
G36*
X190091550Y-109142516D02*
X189842931Y-108893897D01*
X190621880Y-108114948D01*
X190870499Y-108363567D01*
X190091550Y-109142516D01*
X190091550Y-109142516D01*
G37*
G36*
X190445103Y-109496069D02*
X190196484Y-109247450D01*
X190975433Y-108468501D01*
X191224052Y-108717120D01*
X190445103Y-109496069D01*
X190445103Y-109496069D01*
G37*
G36*
X190798656Y-109849623D02*
X190550037Y-109601004D01*
X191328986Y-108822055D01*
X191577605Y-109070674D01*
X190798656Y-109849623D01*
X190798656Y-109849623D01*
G37*
G36*
X191152210Y-110203176D02*
X190903591Y-109954557D01*
X191682540Y-109175608D01*
X191931159Y-109424227D01*
X191152210Y-110203176D01*
X191152210Y-110203176D01*
G37*
G36*
X191505763Y-110556730D02*
X191257144Y-110308111D01*
X192036093Y-109529162D01*
X192284712Y-109777781D01*
X191505763Y-110556730D01*
X191505763Y-110556730D01*
G37*
G36*
X191859317Y-110910283D02*
X191610698Y-110661664D01*
X192389647Y-109882715D01*
X192638266Y-110131334D01*
X191859317Y-110910283D01*
X191859317Y-110910283D01*
G37*
G36*
X192212870Y-111263836D02*
X191964251Y-111015217D01*
X192743200Y-110236268D01*
X192991819Y-110484887D01*
X192212870Y-111263836D01*
X192212870Y-111263836D01*
G37*
G36*
X192566423Y-111617390D02*
X192317804Y-111368771D01*
X193096753Y-110589822D01*
X193345372Y-110838441D01*
X192566423Y-111617390D01*
X192566423Y-111617390D01*
G37*
G36*
X192919977Y-111970943D02*
X192671358Y-111722324D01*
X193450307Y-110943375D01*
X193698926Y-111191994D01*
X192919977Y-111970943D01*
X192919977Y-111970943D01*
G37*
G36*
X196456642Y-111722324D02*
X196208023Y-111970943D01*
X195429074Y-111191994D01*
X195677693Y-110943375D01*
X196456642Y-111722324D01*
X196456642Y-111722324D01*
G37*
G36*
X196810196Y-111368771D02*
X196561577Y-111617390D01*
X195782628Y-110838441D01*
X196031247Y-110589822D01*
X196810196Y-111368771D01*
X196810196Y-111368771D01*
G37*
G36*
X197163749Y-111015217D02*
X196915130Y-111263836D01*
X196136181Y-110484887D01*
X196384800Y-110236268D01*
X197163749Y-111015217D01*
X197163749Y-111015217D01*
G37*
G36*
X197517302Y-110661664D02*
X197268683Y-110910283D01*
X196489734Y-110131334D01*
X196738353Y-109882715D01*
X197517302Y-110661664D01*
X197517302Y-110661664D01*
G37*
G36*
X197870856Y-110308111D02*
X197622237Y-110556730D01*
X196843288Y-109777781D01*
X197091907Y-109529162D01*
X197870856Y-110308111D01*
X197870856Y-110308111D01*
G37*
G36*
X198224409Y-109954557D02*
X197975790Y-110203176D01*
X197196841Y-109424227D01*
X197445460Y-109175608D01*
X198224409Y-109954557D01*
X198224409Y-109954557D01*
G37*
G36*
X198577963Y-109601004D02*
X198329344Y-109849623D01*
X197550395Y-109070674D01*
X197799014Y-108822055D01*
X198577963Y-109601004D01*
X198577963Y-109601004D01*
G37*
G36*
X198931516Y-109247450D02*
X198682897Y-109496069D01*
X197903948Y-108717120D01*
X198152567Y-108468501D01*
X198931516Y-109247450D01*
X198931516Y-109247450D01*
G37*
G36*
X199285069Y-108893897D02*
X199036450Y-109142516D01*
X198257501Y-108363567D01*
X198506120Y-108114948D01*
X199285069Y-108893897D01*
X199285069Y-108893897D01*
G37*
G36*
X199638623Y-108540344D02*
X199390004Y-108788963D01*
X198611055Y-108010014D01*
X198859674Y-107761395D01*
X199638623Y-108540344D01*
X199638623Y-108540344D01*
G37*
G36*
X199992176Y-108186790D02*
X199743557Y-108435409D01*
X198964608Y-107656460D01*
X199213227Y-107407841D01*
X199992176Y-108186790D01*
X199992176Y-108186790D01*
G37*
G36*
X200345730Y-107833237D02*
X200097111Y-108081856D01*
X199318162Y-107302907D01*
X199566781Y-107054288D01*
X200345730Y-107833237D01*
X200345730Y-107833237D01*
G37*
G36*
X200699283Y-107479683D02*
X200450664Y-107728302D01*
X199671715Y-106949353D01*
X199920334Y-106700734D01*
X200699283Y-107479683D01*
X200699283Y-107479683D01*
G37*
G36*
X201052836Y-107126130D02*
X200804217Y-107374749D01*
X200025268Y-106595800D01*
X200273887Y-106347181D01*
X201052836Y-107126130D01*
X201052836Y-107126130D01*
G37*
G36*
X201406390Y-106772577D02*
X201157771Y-107021196D01*
X200378822Y-106242247D01*
X200627441Y-105993628D01*
X201406390Y-106772577D01*
X201406390Y-106772577D01*
G37*
G36*
X201759943Y-106419023D02*
X201511324Y-106667642D01*
X200732375Y-105888693D01*
X200980994Y-105640074D01*
X201759943Y-106419023D01*
X201759943Y-106419023D01*
G37*
G36*
X200980994Y-103909926D02*
X200732375Y-103661307D01*
X201511324Y-102882358D01*
X201759943Y-103130977D01*
X200980994Y-103909926D01*
X200980994Y-103909926D01*
G37*
G36*
X200627441Y-103556372D02*
X200378822Y-103307753D01*
X201157771Y-102528804D01*
X201406390Y-102777423D01*
X200627441Y-103556372D01*
X200627441Y-103556372D01*
G37*
G36*
X200273887Y-103202819D02*
X200025268Y-102954200D01*
X200804217Y-102175251D01*
X201052836Y-102423870D01*
X200273887Y-103202819D01*
X200273887Y-103202819D01*
G37*
G36*
X199920334Y-102849266D02*
X199671715Y-102600647D01*
X200450664Y-101821698D01*
X200699283Y-102070317D01*
X199920334Y-102849266D01*
X199920334Y-102849266D01*
G37*
G36*
X199566781Y-102495712D02*
X199318162Y-102247093D01*
X200097111Y-101468144D01*
X200345730Y-101716763D01*
X199566781Y-102495712D01*
X199566781Y-102495712D01*
G37*
G36*
X199213227Y-102142159D02*
X198964608Y-101893540D01*
X199743557Y-101114591D01*
X199992176Y-101363210D01*
X199213227Y-102142159D01*
X199213227Y-102142159D01*
G37*
G36*
X198859674Y-101788605D02*
X198611055Y-101539986D01*
X199390004Y-100761037D01*
X199638623Y-101009656D01*
X198859674Y-101788605D01*
X198859674Y-101788605D01*
G37*
G36*
X198506120Y-101435052D02*
X198257501Y-101186433D01*
X199036450Y-100407484D01*
X199285069Y-100656103D01*
X198506120Y-101435052D01*
X198506120Y-101435052D01*
G37*
G36*
X198152567Y-101081499D02*
X197903948Y-100832880D01*
X198682897Y-100053931D01*
X198931516Y-100302550D01*
X198152567Y-101081499D01*
X198152567Y-101081499D01*
G37*
G36*
X197799014Y-100727945D02*
X197550395Y-100479326D01*
X198329344Y-99700377D01*
X198577963Y-99948996D01*
X197799014Y-100727945D01*
X197799014Y-100727945D01*
G37*
G36*
X197445460Y-100374392D02*
X197196841Y-100125773D01*
X197975790Y-99346824D01*
X198224409Y-99595443D01*
X197445460Y-100374392D01*
X197445460Y-100374392D01*
G37*
G36*
X197091907Y-100020838D02*
X196843288Y-99772219D01*
X197622237Y-98993270D01*
X197870856Y-99241889D01*
X197091907Y-100020838D01*
X197091907Y-100020838D01*
G37*
G36*
X196738353Y-99667285D02*
X196489734Y-99418666D01*
X197268683Y-98639717D01*
X197517302Y-98888336D01*
X196738353Y-99667285D01*
X196738353Y-99667285D01*
G37*
G36*
X196384800Y-99313732D02*
X196136181Y-99065113D01*
X196915130Y-98286164D01*
X197163749Y-98534783D01*
X196384800Y-99313732D01*
X196384800Y-99313732D01*
G37*
G36*
X196031247Y-98960178D02*
X195782628Y-98711559D01*
X196561577Y-97932610D01*
X196810196Y-98181229D01*
X196031247Y-98960178D01*
X196031247Y-98960178D01*
G37*
G36*
X195677693Y-98606625D02*
X195429074Y-98358006D01*
X196208023Y-97579057D01*
X196456642Y-97827676D01*
X195677693Y-98606625D01*
X195677693Y-98606625D01*
G37*
G36*
X193698926Y-98358006D02*
X193450307Y-98606625D01*
X192671358Y-97827676D01*
X192919977Y-97579057D01*
X193698926Y-98358006D01*
X193698926Y-98358006D01*
G37*
G36*
X193345372Y-98711559D02*
X193096753Y-98960178D01*
X192317804Y-98181229D01*
X192566423Y-97932610D01*
X193345372Y-98711559D01*
X193345372Y-98711559D01*
G37*
G36*
X192991819Y-99065113D02*
X192743200Y-99313732D01*
X191964251Y-98534783D01*
X192212870Y-98286164D01*
X192991819Y-99065113D01*
X192991819Y-99065113D01*
G37*
G36*
X192638266Y-99418666D02*
X192389647Y-99667285D01*
X191610698Y-98888336D01*
X191859317Y-98639717D01*
X192638266Y-99418666D01*
X192638266Y-99418666D01*
G37*
G36*
X192284712Y-99772219D02*
X192036093Y-100020838D01*
X191257144Y-99241889D01*
X191505763Y-98993270D01*
X192284712Y-99772219D01*
X192284712Y-99772219D01*
G37*
G36*
X191931159Y-100125773D02*
X191682540Y-100374392D01*
X190903591Y-99595443D01*
X191152210Y-99346824D01*
X191931159Y-100125773D01*
X191931159Y-100125773D01*
G37*
G36*
X191577605Y-100479326D02*
X191328986Y-100727945D01*
X190550037Y-99948996D01*
X190798656Y-99700377D01*
X191577605Y-100479326D01*
X191577605Y-100479326D01*
G37*
G36*
X191224052Y-100832880D02*
X190975433Y-101081499D01*
X190196484Y-100302550D01*
X190445103Y-100053931D01*
X191224052Y-100832880D01*
X191224052Y-100832880D01*
G37*
G36*
X190870499Y-101186433D02*
X190621880Y-101435052D01*
X189842931Y-100656103D01*
X190091550Y-100407484D01*
X190870499Y-101186433D01*
X190870499Y-101186433D01*
G37*
G36*
X190516945Y-101539986D02*
X190268326Y-101788605D01*
X189489377Y-101009656D01*
X189737996Y-100761037D01*
X190516945Y-101539986D01*
X190516945Y-101539986D01*
G37*
G36*
X190163392Y-101893540D02*
X189914773Y-102142159D01*
X189135824Y-101363210D01*
X189384443Y-101114591D01*
X190163392Y-101893540D01*
X190163392Y-101893540D01*
G37*
G36*
X189809838Y-102247093D02*
X189561219Y-102495712D01*
X188782270Y-101716763D01*
X189030889Y-101468144D01*
X189809838Y-102247093D01*
X189809838Y-102247093D01*
G37*
G36*
X189456285Y-102600647D02*
X189207666Y-102849266D01*
X188428717Y-102070317D01*
X188677336Y-101821698D01*
X189456285Y-102600647D01*
X189456285Y-102600647D01*
G37*
G36*
X189102732Y-102954200D02*
X188854113Y-103202819D01*
X188075164Y-102423870D01*
X188323783Y-102175251D01*
X189102732Y-102954200D01*
X189102732Y-102954200D01*
G37*
G36*
X188749178Y-103307753D02*
X188500559Y-103556372D01*
X187721610Y-102777423D01*
X187970229Y-102528804D01*
X188749178Y-103307753D01*
X188749178Y-103307753D01*
G37*
G36*
X188395625Y-103661307D02*
X188147006Y-103909926D01*
X187368057Y-103130977D01*
X187616676Y-102882358D01*
X188395625Y-103661307D01*
X188395625Y-103661307D01*
G37*
G36*
X184716801Y-106653064D02*
X185636379Y-105733486D01*
X186981621Y-107078728D01*
X186062043Y-107998306D01*
X184716801Y-106653064D01*
X184716801Y-106653064D01*
G37*
G36*
X182949486Y-108420379D02*
X183869064Y-107500801D01*
X185214306Y-108846043D01*
X184294728Y-109765621D01*
X182949486Y-108420379D01*
X182949486Y-108420379D01*
G37*
G36*
X185636379Y-111107272D02*
X186555957Y-110187694D01*
X187901199Y-111532936D01*
X186981621Y-112452514D01*
X185636379Y-111107272D01*
X185636379Y-111107272D01*
G37*
G36*
X187403694Y-109339957D02*
X188323272Y-108420379D01*
X189668514Y-109765621D01*
X188748936Y-110685199D01*
X187403694Y-109339957D01*
X187403694Y-109339957D01*
G37*
D15*
X181000000Y-112500000D03*
D32*
X207678019Y-114300000D03*
D31*
X203674979Y-114300000D03*
X205676499Y-114300000D03*
X201675999Y-114300000D03*
D24*
X194576000Y-114935000D03*
X196076000Y-114935000D03*
X197243000Y-114935000D03*
X198743000Y-114935000D03*
X175756000Y-115189000D03*
X174256000Y-115189000D03*
X175756000Y-113538000D03*
X174256000Y-113538000D03*
D43*
X187439300Y-115189000D03*
X185940700Y-115189000D03*
X187439300Y-113919000D03*
X185940700Y-113919000D03*
M02*
