M48
METRIC,TZ
T1C0.300
T2C0.701
T3C1.600
T4C4.000
%
G90
G05
T1
X173.228Y-109.093
X176.479Y-113.529
X176.784Y-115.062
X176.836Y-109.653
X177.927Y-105.791
X179.324Y-94.615
X179.578Y-107.315
X180.721Y-107.188
X182.118Y-102.616
X182.372Y-100.584
X183.896Y-99.187
X185.039Y-115.189
X185.166Y-107.823
X185.928Y-109.728
X186.055Y-98.171
X186.055Y-112.776
X188.595Y-113.919
X188.595Y-114.935
X189.103Y-105.664
X189.865Y-103.759
X190.627Y-105.156
X191.389Y-102.616
X191.897Y-101.346
X192.405Y-112.268
X192.913Y-106.299
X193.167Y-108.077
X193.167Y-112.522
X193.548Y-109.22
X193.675Y-100.203
X193.675Y-110.363
X194.056Y-102.743
X194.183Y-97.028
X194.31Y-105.283
X194.31Y-106.299
X194.644Y-110.461
X194.818Y-100.965
X195.32Y-100.439
X195.58Y-113.157
X196.079Y-99.409
X196.262Y-109.221
X196.723Y-105.283
X196.781Y-108.786
X196.82Y-108.083
X197.358Y-101.473
X197.586Y-107.984
X197.993Y-101.981
X197.993Y-107.442
X198.882Y-104.058
X199.136Y-113.792
X199.243Y-103.2
X199.247Y-105.711
X199.498Y-106.477
X199.723Y-104.474
X199.898Y-94.996
X200.794Y-104.641
X201.295Y-94.742
X201.422Y-105.41
X201.549Y-110.617
X202.438Y-103.632
X202.819Y-105.537
X204.724Y-109.855
X205.232Y-105.283
X205.867Y-104.902
X206.375Y-104.394
X206.555Y-106.981
X207.01Y-109.855
X207.264Y-108.712
X207.899Y-103.044
X209.042Y-109.728
X209.056Y-105.207
X209.056Y-106.882
X209.64Y-110.047
X209.677Y-96.774
X209.804Y-98.933
X209.804Y-102.235
X209.931Y-106.045
X210.439Y-110.363
X210.731Y-105.207
X210.731Y-106.882
X211.201Y-100.457
X211.328Y-102.24
X212.217Y-99.695
X212.217Y-100.838
X212.979Y-99.06
X212.979Y-112.649
X213.614Y-103.632
X213.614Y-109.474
X213.741Y-102.743
X213.868Y-104.394
X214.131Y-101.071
X214.376Y-107.188
X214.757Y-109.22
X214.799Y-108.067
X215.138Y-103.124
X215.138Y-104.521
X215.392Y-109.347
X215.773Y-101.981
X216.154Y-107.569
X216.154Y-112.903
X216.408Y-104.394
X216.662Y-108.458
X216.662Y-109.601
X216.916Y-101.981
X216.916Y-103.378
X217.551Y-107.569
X217.805Y-104.521
X217.805Y-108.585
X217.932Y-103.378
X218.186Y-102.108
X218.313Y-109.982
X218.821Y-108.839
X219.075Y-103.886
X219.329Y-102.616
X219.329Y-107.823
X220.218Y-112.141
X220.291Y-102.008
X220.472Y-102.87
X220.641Y-105.364
X220.641Y-106.614
X220.853Y-109.347
X220.853Y-112.776
X221.234Y-106.045
X221.488Y-109.982
X221.742Y-97.155
X221.891Y-105.364
X221.891Y-106.614
X221.996Y-98.933
X222.25Y-112.395
X222.758Y-101.473
X222.885Y-102.108
X223.012Y-96.774
X223.012Y-98.044
X223.012Y-111.506
X223.012Y-103.124
X223.254Y-100.715
X223.393Y-102.616
X223.393Y-107.696
X223.774Y-103.886
X223.901Y-101.473
X224.028Y-110.871
X224.155Y-108.839
X224.238Y-105.014
X224.282Y-100.33
X224.663Y-103.124
X224.79Y-96.647
X224.917Y-98.298
X225.044Y-109.728
X225.171Y-100.203
X225.171Y-101.092
X225.171Y-107.696
X225.298Y-102.362
X225.298Y-103.886
X225.298Y-105.156
X226.187Y-99.314
X226.314Y-97.155
X226.441Y-98.552
X226.949Y-91.567
X227.076Y-107.569
X227.457Y-104.521
X227.584Y-103.378
X227.626Y-102.232
X227.826Y-99.523
X227.826Y-100.991
X227.838Y-108.458
X227.965Y-94.107
X228.045Y-105.241
X228.092Y-94.996
X228.6Y-90.17
X228.854Y-100.838
X228.854Y-103.632
X228.854Y-107.442
X228.981Y-99.314
X228.981Y-102.235
X229.106Y-105.241
X229.489Y-100.203
X229.616Y-108.204
X229.87Y-104.267
X230.124Y-90.17
X230.251Y-107.442
X230.505Y-99.187
X230.505Y-100.33
X230.505Y-102.489
X230.632Y-103.378
X230.759Y-101.473
X230.886Y-91.059
X230.886Y-104.648
X231.013Y-108.331
X231.267Y-91.948
X231.394Y-90.17
X231.394Y-107.442
X231.902Y-104.648
X232.156Y-108.458
X232.41Y-91.186
X232.664Y-107.442
X232.664Y-99.568
X232.791Y-101.854
X233.045Y-100.711
X233.045Y-108.585
X233.68Y-102.743
X233.807Y-90.17
X234.188Y-107.442
X234.442Y-104.013
X234.569Y-105.918
X234.696Y-94.869
X234.696Y-99.441
X234.696Y-101.6
X234.823Y-100.584
X234.95Y-105.029
X235.077Y-103.124
X235.077Y-106.934
X235.204Y-90.424
X235.204Y-93.599
X235.331Y-95.758
X235.458Y-98.806
T2
X174.244Y-97.028
X174.244Y-99.03
X174.244Y-101.031
X174.592Y-91.694
X176.594Y-91.694
X178.595Y-91.694
X180.594Y-91.694
X185.13Y-91.694
X187.132Y-91.694
X189.133Y-91.694
X191.132Y-91.694
X193.137Y-91.694
X195.138Y-91.694
X197.137Y-91.694
X199.136Y-91.694
X201.676Y-114.3
X203.675Y-114.3
X205.676Y-114.3
X207.678Y-114.3
X215.199Y-91.694
X217.2Y-91.694
X219.202Y-91.694
X221.201Y-91.694
X223.202Y-91.694
X225.204Y-91.694
T3
X228.981Y-92.202
X228.981Y-97.282
X231.521Y-94.742
X234.061Y-92.202
X234.061Y-97.282
T4
X181.Y-112.5
X230.Y-112.5
T0
M30
