G04 #@! TF.FileFunction,Copper,L2,Inr,Signal*
%FSLAX46Y46*%
G04 Gerber Fmt 4.6, Leading zero omitted, Abs format (unit mm)*
G04 Created by KiCad (PCBNEW (2015-09-15 BZR 6201)-product) date tor 18 feb 2016 12:46:51*
%MOMM*%
G01*
G04 APERTURE LIST*
%ADD10C,0.100000*%
%ADD11C,6.000000*%
%ADD12C,2.500000*%
%ADD13R,1.699260X1.198880*%
%ADD14O,1.699260X1.198880*%
%ADD15O,1.198880X1.699260*%
%ADD16R,1.198880X1.699260*%
%ADD17C,0.500000*%
%ADD18C,0.304800*%
%ADD19C,0.254000*%
%ADD20C,0.406400*%
G04 APERTURE END LIST*
D10*
D11*
X230000000Y-112500000D03*
D12*
X231521000Y-94742000D03*
X228981000Y-92202000D03*
X228981000Y-97282000D03*
X234061000Y-97282000D03*
X234061000Y-92202000D03*
D13*
X174244000Y-101031040D03*
D14*
X174244000Y-97028000D03*
X174244000Y-99029520D03*
D15*
X197137020Y-91694000D03*
X195138040Y-91694000D03*
X193136520Y-91694000D03*
D16*
X185130440Y-91694000D03*
D15*
X189133480Y-91694000D03*
X187131960Y-91694000D03*
X191132460Y-91694000D03*
X199136000Y-91694000D03*
D16*
X215198960Y-91694000D03*
D15*
X219202000Y-91694000D03*
X217200480Y-91694000D03*
X221200980Y-91694000D03*
X223202500Y-91694000D03*
X225204020Y-91694000D03*
D16*
X174591980Y-91694000D03*
D15*
X178595020Y-91694000D03*
X176593500Y-91694000D03*
X180594000Y-91694000D03*
D11*
X181000000Y-112500000D03*
D16*
X207678019Y-114300000D03*
D15*
X203674979Y-114300000D03*
X205676499Y-114300000D03*
X201675999Y-114300000D03*
D17*
X176836183Y-109653183D03*
X173228000Y-109093000D03*
X199898000Y-94996000D03*
X225044000Y-109728000D03*
X224028000Y-110871000D03*
X223012000Y-111506000D03*
X222250000Y-112395000D03*
X220853000Y-112776000D03*
X221234000Y-106045000D03*
X219329000Y-107823000D03*
X225171000Y-107696000D03*
X223393000Y-107696000D03*
X224155000Y-108839000D03*
X214757000Y-109220000D03*
X214376004Y-107188000D03*
X214799000Y-108067148D03*
X214131303Y-101070697D03*
X220472000Y-102870000D03*
X220291000Y-102007816D03*
X223254000Y-100715124D03*
X223393000Y-102616000D03*
X222885000Y-102108000D03*
X223012003Y-103123997D03*
X224238196Y-105014000D03*
X225298000Y-105156000D03*
X227826000Y-99523200D03*
X227826000Y-100991375D03*
X227457000Y-104521000D03*
X227584000Y-103378000D03*
X227626000Y-102232475D03*
X228045200Y-105241000D03*
X229105543Y-105241000D03*
X229870000Y-104267000D03*
X230886000Y-104648000D03*
X231394000Y-107442000D03*
X232663996Y-107441996D03*
X221742000Y-97155000D03*
X223012000Y-98044000D03*
X223012000Y-96774000D03*
X224790000Y-96647000D03*
X224917000Y-98298000D03*
X226441000Y-98552000D03*
X226314000Y-97155000D03*
X235458000Y-98806000D03*
X235331000Y-95758000D03*
X234696000Y-94869000D03*
X235204000Y-93599000D03*
X235204000Y-90424000D03*
X233807000Y-90170000D03*
X231394000Y-90170000D03*
X232410000Y-91186000D03*
X231267000Y-91948000D03*
X230886000Y-91059000D03*
X230124000Y-90170000D03*
X228600000Y-90170000D03*
X226949000Y-91567000D03*
X227965000Y-94107000D03*
X228092000Y-94996000D03*
X196723000Y-105283000D03*
X194310000Y-105283000D03*
X194310000Y-106299000D03*
X193167000Y-108077000D03*
X191897000Y-101346000D03*
X193675000Y-100203000D03*
X194056000Y-102743000D03*
X190627000Y-105156000D03*
X191389000Y-102616000D03*
X215138000Y-103124000D03*
X215773000Y-101981000D03*
X216916000Y-101981000D03*
X216916000Y-103378000D03*
X217932000Y-103378000D03*
X218186000Y-102108000D03*
X219329000Y-102616000D03*
X219075000Y-103886000D03*
X217805000Y-104521000D03*
X216408000Y-104394000D03*
X215138000Y-104521000D03*
X213868000Y-104394000D03*
X213614000Y-103632000D03*
X218313000Y-109982000D03*
X216662000Y-109601000D03*
X215392000Y-109347000D03*
X216662000Y-108458000D03*
X217805000Y-108585000D03*
X218821000Y-108839000D03*
X217551000Y-107569000D03*
X216154000Y-107569000D03*
X223774000Y-103886000D03*
X225298000Y-103886000D03*
X224663000Y-103124000D03*
X225298000Y-102362000D03*
X225171000Y-101092000D03*
X222758000Y-101473000D03*
X223901000Y-101473000D03*
X224282000Y-100330000D03*
X225171000Y-100203000D03*
X231902000Y-104648000D03*
X230632000Y-103378000D03*
X228854000Y-103632000D03*
X228981000Y-102235000D03*
X230505000Y-102489000D03*
X230759000Y-101473000D03*
X228854000Y-100838000D03*
X228981000Y-99314000D03*
X229489000Y-100203000D03*
X230505000Y-100330000D03*
X230505000Y-99187000D03*
X227076000Y-107569000D03*
X227838000Y-108458000D03*
X228854000Y-107442000D03*
X229616000Y-108204000D03*
X230251000Y-107442000D03*
X232156000Y-108458000D03*
X233045000Y-108585000D03*
X234188000Y-107442000D03*
X235077000Y-106934000D03*
X234569000Y-105918000D03*
X234950000Y-105029000D03*
X234442000Y-104013000D03*
X235077000Y-103124000D03*
X234696000Y-101600000D03*
X233680000Y-102743000D03*
X232791000Y-101854000D03*
X233045000Y-100711000D03*
X234823000Y-100584000D03*
X234696000Y-99441000D03*
X232664000Y-99568000D03*
X231013000Y-108331000D03*
X212217000Y-99695000D03*
X194183000Y-97028000D03*
X194644180Y-110460758D03*
X179578000Y-107315000D03*
X183896000Y-99187000D03*
X189865000Y-103759000D03*
X185166000Y-107823000D03*
X185928000Y-109728000D03*
X193548000Y-109220000D03*
X212979000Y-112649000D03*
X216154000Y-112903000D03*
X220641000Y-106614000D03*
X221891000Y-106614000D03*
X221891000Y-105364000D03*
X220641000Y-105364000D03*
X209931000Y-106045000D03*
X202438000Y-103632000D03*
X202819000Y-105537000D03*
X213741000Y-102743000D03*
X210731500Y-106882500D03*
X209056500Y-106882500D03*
X209056500Y-105207500D03*
X210731500Y-105207500D03*
X212217000Y-100838000D03*
X212979000Y-99060000D03*
X209804000Y-98933000D03*
X201422000Y-105410000D03*
X186055000Y-98171000D03*
X193675000Y-110363000D03*
X189103000Y-105664000D03*
X180721000Y-107188000D03*
X177927000Y-105791000D03*
X213614000Y-109474000D03*
X210439000Y-110363000D03*
X194818000Y-100965000D03*
X226187000Y-99314000D03*
X221996000Y-98933000D03*
X209677000Y-96774000D03*
X201295000Y-94742000D03*
X179324000Y-94615000D03*
X211328000Y-102240427D03*
X211201000Y-100457000D03*
X201549000Y-110617000D03*
X220218000Y-112141000D03*
X196781459Y-108785922D03*
X204724000Y-109855000D03*
X220853000Y-109347000D03*
X206554509Y-106980820D03*
X199498177Y-106476763D03*
X196261820Y-109221127D03*
X221488000Y-109982000D03*
X207010000Y-109855000D03*
X192913000Y-106299000D03*
X196079098Y-99409464D03*
X195319770Y-100439005D03*
X196820351Y-108082929D03*
X209640098Y-110046915D03*
X197586302Y-107984241D03*
X209042000Y-109728000D03*
X197993000Y-107441998D03*
X207264000Y-108712000D03*
X199246662Y-105710820D03*
X209804000Y-102235000D03*
X200794356Y-104640644D03*
X205232000Y-105283000D03*
X199723266Y-104474180D03*
X207899000Y-103043820D03*
X198882018Y-104058368D03*
X205867000Y-104902000D03*
X199243478Y-103199976D03*
X206375000Y-104394000D03*
X182372000Y-100584000D03*
X182118000Y-102616000D03*
X199136000Y-113792000D03*
X197993000Y-101981000D03*
X197358000Y-101473000D03*
X195580000Y-113157000D03*
X185039000Y-115189000D03*
X176784000Y-115062000D03*
X176479179Y-113529428D03*
X186055000Y-112776000D03*
X192405000Y-112268000D03*
X188595000Y-113919000D03*
X188595000Y-114935000D03*
X193167000Y-112522000D03*
D18*
X214376004Y-107541553D02*
X214376004Y-107188000D01*
X214376004Y-111125004D02*
X214376004Y-107541553D01*
X216154000Y-112903000D02*
X214376004Y-111125004D01*
D19*
X214070504Y-106882500D02*
X214126005Y-106938001D01*
X210731500Y-106882500D02*
X214070504Y-106882500D01*
X214126005Y-106938001D02*
X214376004Y-107188000D01*
D18*
X221234000Y-102108000D02*
X220721999Y-102620001D01*
X222885000Y-102108000D02*
X221234000Y-102108000D01*
X220721999Y-102620001D02*
X220472000Y-102870000D01*
X231013000Y-104775000D02*
X230886000Y-104648000D01*
X231013000Y-108331000D02*
X231013000Y-104775000D01*
X212217000Y-99695000D02*
X213741000Y-101219000D01*
X213741000Y-101219000D02*
X213741000Y-102743000D01*
X221200980Y-91694000D02*
X221200980Y-93057980D01*
X221200980Y-93057980D02*
X222758000Y-94615000D01*
X222758000Y-94615000D02*
X226314000Y-94615000D01*
X226314000Y-94615000D02*
X228981000Y-97282000D01*
D19*
X194183000Y-97028000D02*
X189865000Y-101346000D01*
X189865000Y-101346000D02*
X189865000Y-103759000D01*
X203708000Y-106045000D02*
X207127500Y-106045000D01*
X207127500Y-106045000D02*
X207965000Y-105207500D01*
X207965000Y-105207500D02*
X209056500Y-105207500D01*
X203200000Y-105537000D02*
X203708000Y-106045000D01*
X202819000Y-105537000D02*
X203200000Y-105537000D01*
X194644180Y-110316180D02*
X194644180Y-110460758D01*
X193548000Y-109220000D02*
X194644180Y-110316180D01*
D20*
X175113950Y-93472000D02*
X182346600Y-93472000D01*
X182346600Y-93472000D02*
X184124600Y-91694000D01*
X184124600Y-91694000D02*
X185130440Y-91694000D01*
X174591980Y-92950030D02*
X175113950Y-93472000D01*
X181483000Y-99441000D02*
X179578000Y-101346000D01*
X179578000Y-101346000D02*
X179578000Y-107315000D01*
X183642000Y-99441000D02*
X181483000Y-99441000D01*
X183896000Y-99187000D02*
X183642000Y-99441000D01*
D19*
X185166000Y-107823000D02*
X185801000Y-107823000D01*
X185801000Y-107823000D02*
X189865000Y-103759000D01*
X185928000Y-109728000D02*
X185928000Y-108585000D01*
X185928000Y-108585000D02*
X185166000Y-107823000D01*
D20*
X176022000Y-94380050D02*
X176022000Y-99503230D01*
X176022000Y-99503230D02*
X174494190Y-101031040D01*
X174494190Y-101031040D02*
X174244000Y-101031040D01*
X174591980Y-91694000D02*
X174591980Y-92950030D01*
X174591980Y-92950030D02*
X176022000Y-94380050D01*
D18*
X216154000Y-112903000D02*
X215900000Y-112649000D01*
X215900000Y-112649000D02*
X212979000Y-112649000D01*
D19*
X202819000Y-105537000D02*
X202819000Y-104013000D01*
X202819000Y-104013000D02*
X202438000Y-103632000D01*
X210731500Y-105207500D02*
X210731500Y-104116000D01*
X210731500Y-104116000D02*
X212104500Y-102743000D01*
X212104500Y-102743000D02*
X213741000Y-102743000D01*
G36*
X235544000Y-91506055D02*
X235457554Y-91344325D01*
X235238622Y-91203983D01*
X234240605Y-92202000D01*
X235238622Y-93200017D01*
X235457554Y-93059675D01*
X235544000Y-92881887D01*
X235544000Y-96586055D01*
X235457554Y-96424325D01*
X235238622Y-96283983D01*
X234240605Y-97282000D01*
X235238622Y-98280017D01*
X235457554Y-98139675D01*
X235544000Y-97961887D01*
X235544000Y-116044000D01*
X172456000Y-116044000D01*
X172456000Y-115115056D01*
X176152171Y-115115056D01*
X176174509Y-115236769D01*
X176220063Y-115351824D01*
X176287097Y-115455841D01*
X176373058Y-115544856D01*
X176474671Y-115615479D01*
X176588067Y-115665020D01*
X176708926Y-115691593D01*
X176832644Y-115694184D01*
X176954509Y-115672696D01*
X177069880Y-115627947D01*
X177174362Y-115561641D01*
X177263975Y-115476303D01*
X177335306Y-115375185D01*
X177385638Y-115262138D01*
X177413053Y-115141468D01*
X177415027Y-115000127D01*
X177390991Y-114878739D01*
X177343836Y-114764330D01*
X177275356Y-114661260D01*
X177188161Y-114573454D01*
X177085571Y-114504256D01*
X176971495Y-114456303D01*
X176850277Y-114431420D01*
X176726534Y-114430557D01*
X176604981Y-114453744D01*
X176490246Y-114500100D01*
X176386700Y-114567858D01*
X176298287Y-114654439D01*
X176228375Y-114756543D01*
X176179627Y-114870281D01*
X176153898Y-114991323D01*
X176152171Y-115115056D01*
X172456000Y-115115056D01*
X172456000Y-113582484D01*
X175847350Y-113582484D01*
X175869688Y-113704197D01*
X175915242Y-113819252D01*
X175982276Y-113923269D01*
X176068237Y-114012284D01*
X176169850Y-114082907D01*
X176283246Y-114132448D01*
X176404105Y-114159021D01*
X176527823Y-114161612D01*
X176649688Y-114140124D01*
X176765059Y-114095375D01*
X176869541Y-114029069D01*
X176959154Y-113943731D01*
X177030485Y-113842613D01*
X177080817Y-113729566D01*
X177108232Y-113608896D01*
X177110206Y-113467555D01*
X177086170Y-113346167D01*
X177039015Y-113231758D01*
X176970535Y-113128688D01*
X176883340Y-113040882D01*
X176780750Y-112971684D01*
X176666674Y-112923731D01*
X176545456Y-112898848D01*
X176421713Y-112897985D01*
X176300160Y-112921172D01*
X176185425Y-112967528D01*
X176081879Y-113035286D01*
X175993466Y-113121867D01*
X175923554Y-113223971D01*
X175874806Y-113337709D01*
X175849077Y-113458751D01*
X175847350Y-113582484D01*
X172456000Y-113582484D01*
X172456000Y-112784284D01*
X177614556Y-112784284D01*
X177734249Y-113436439D01*
X177978333Y-114052926D01*
X178337512Y-114610262D01*
X178798104Y-115087219D01*
X179342566Y-115465630D01*
X179950158Y-115731080D01*
X180597739Y-115873460D01*
X181260642Y-115887346D01*
X181913617Y-115772209D01*
X182531793Y-115532434D01*
X182989355Y-115242056D01*
X184407171Y-115242056D01*
X184429509Y-115363769D01*
X184475063Y-115478824D01*
X184542097Y-115582841D01*
X184628058Y-115671856D01*
X184729671Y-115742479D01*
X184843067Y-115792020D01*
X184963926Y-115818593D01*
X185087644Y-115821184D01*
X185209509Y-115799696D01*
X185324880Y-115754947D01*
X185429362Y-115688641D01*
X185518975Y-115603303D01*
X185590306Y-115502185D01*
X185640638Y-115389138D01*
X185668053Y-115268468D01*
X185670027Y-115127127D01*
X185645991Y-115005739D01*
X185598836Y-114891330D01*
X185530356Y-114788260D01*
X185443161Y-114700454D01*
X185340571Y-114631256D01*
X185226495Y-114583303D01*
X185105277Y-114558420D01*
X184981534Y-114557557D01*
X184859981Y-114580744D01*
X184745246Y-114627100D01*
X184641700Y-114694858D01*
X184553287Y-114781439D01*
X184483375Y-114883543D01*
X184434627Y-114997281D01*
X184408898Y-115118323D01*
X184407171Y-115242056D01*
X182989355Y-115242056D01*
X183091623Y-115177155D01*
X183571784Y-114719904D01*
X183953986Y-114178098D01*
X184045721Y-113972056D01*
X187963171Y-113972056D01*
X187985509Y-114093769D01*
X188031063Y-114208824D01*
X188098097Y-114312841D01*
X188184058Y-114401856D01*
X188219577Y-114426542D01*
X188197700Y-114440858D01*
X188109287Y-114527439D01*
X188039375Y-114629543D01*
X187990627Y-114743281D01*
X187964898Y-114864323D01*
X187963171Y-114988056D01*
X187985509Y-115109769D01*
X188031063Y-115224824D01*
X188098097Y-115328841D01*
X188184058Y-115417856D01*
X188285671Y-115488479D01*
X188399067Y-115538020D01*
X188519926Y-115564593D01*
X188643644Y-115567184D01*
X188765509Y-115545696D01*
X188880880Y-115500947D01*
X188985362Y-115434641D01*
X189074975Y-115349303D01*
X189146306Y-115248185D01*
X189196638Y-115135138D01*
X189224053Y-115014468D01*
X189226027Y-114873127D01*
X189201991Y-114751739D01*
X189154836Y-114637330D01*
X189086356Y-114534260D01*
X188999161Y-114446454D01*
X188971226Y-114427612D01*
X188985362Y-114418641D01*
X189074975Y-114333303D01*
X189146306Y-114232185D01*
X189196638Y-114119138D01*
X189224053Y-113998468D01*
X189226027Y-113857127D01*
X189223637Y-113845056D01*
X198504171Y-113845056D01*
X198526509Y-113966769D01*
X198572063Y-114081824D01*
X198639097Y-114185841D01*
X198725058Y-114274856D01*
X198826671Y-114345479D01*
X198940067Y-114395020D01*
X199060926Y-114421593D01*
X199184644Y-114424184D01*
X199306509Y-114402696D01*
X199421880Y-114357947D01*
X199526362Y-114291641D01*
X199615975Y-114206303D01*
X199687306Y-114105185D01*
X199714611Y-114043856D01*
X200695559Y-114043856D01*
X200695559Y-114556144D01*
X200714231Y-114746579D01*
X200769537Y-114929761D01*
X200859370Y-115098711D01*
X200980307Y-115246996D01*
X201127744Y-115368966D01*
X201296063Y-115459976D01*
X201478854Y-115516559D01*
X201669154Y-115536560D01*
X201859715Y-115519218D01*
X202043278Y-115465192D01*
X202212852Y-115376541D01*
X202361977Y-115256642D01*
X202484973Y-115110060D01*
X202577156Y-114942380D01*
X202635014Y-114759989D01*
X202656343Y-114569833D01*
X202656439Y-114556144D01*
X202656439Y-114043856D01*
X202694539Y-114043856D01*
X202694539Y-114556144D01*
X202713211Y-114746579D01*
X202768517Y-114929761D01*
X202858350Y-115098711D01*
X202979287Y-115246996D01*
X203126724Y-115368966D01*
X203295043Y-115459976D01*
X203477834Y-115516559D01*
X203668134Y-115536560D01*
X203858695Y-115519218D01*
X204042258Y-115465192D01*
X204211832Y-115376541D01*
X204360957Y-115256642D01*
X204483953Y-115110060D01*
X204576136Y-114942380D01*
X204633994Y-114759989D01*
X204655323Y-114569833D01*
X204655419Y-114556144D01*
X204655419Y-114043856D01*
X204696059Y-114043856D01*
X204696059Y-114556144D01*
X204714731Y-114746579D01*
X204770037Y-114929761D01*
X204859870Y-115098711D01*
X204980807Y-115246996D01*
X205128244Y-115368966D01*
X205296563Y-115459976D01*
X205479354Y-115516559D01*
X205669654Y-115536560D01*
X205860215Y-115519218D01*
X206043778Y-115465192D01*
X206213352Y-115376541D01*
X206362477Y-115256642D01*
X206485473Y-115110060D01*
X206577656Y-114942380D01*
X206635514Y-114759989D01*
X206656843Y-114569833D01*
X206656939Y-114556144D01*
X206656939Y-114522250D01*
X206697579Y-114522250D01*
X206697579Y-115187155D01*
X206712221Y-115260764D01*
X206740941Y-115330101D01*
X206782637Y-115392504D01*
X206835706Y-115445572D01*
X206898108Y-115487268D01*
X206967446Y-115515988D01*
X207041054Y-115530630D01*
X207455769Y-115530630D01*
X207551019Y-115435380D01*
X207551019Y-114427000D01*
X207805019Y-114427000D01*
X207805019Y-115435380D01*
X207900269Y-115530630D01*
X208314984Y-115530630D01*
X208388592Y-115515988D01*
X208457930Y-115487268D01*
X208520332Y-115445572D01*
X208573401Y-115392504D01*
X208615097Y-115330101D01*
X208643817Y-115260764D01*
X208658459Y-115187155D01*
X208658459Y-114522250D01*
X208563209Y-114427000D01*
X207805019Y-114427000D01*
X207551019Y-114427000D01*
X206792829Y-114427000D01*
X206697579Y-114522250D01*
X206656939Y-114522250D01*
X206656939Y-114043856D01*
X206638267Y-113853421D01*
X206582961Y-113670239D01*
X206493128Y-113501289D01*
X206420996Y-113412845D01*
X206697579Y-113412845D01*
X206697579Y-114077750D01*
X206792829Y-114173000D01*
X207551019Y-114173000D01*
X207551019Y-113164620D01*
X207805019Y-113164620D01*
X207805019Y-114173000D01*
X208563209Y-114173000D01*
X208658459Y-114077750D01*
X208658459Y-113412845D01*
X208643817Y-113339236D01*
X208615097Y-113269899D01*
X208573401Y-113207496D01*
X208520332Y-113154428D01*
X208457930Y-113112732D01*
X208388592Y-113084012D01*
X208314984Y-113069370D01*
X207900269Y-113069370D01*
X207805019Y-113164620D01*
X207551019Y-113164620D01*
X207455769Y-113069370D01*
X207041054Y-113069370D01*
X206967446Y-113084012D01*
X206898108Y-113112732D01*
X206835706Y-113154428D01*
X206782637Y-113207496D01*
X206740941Y-113269899D01*
X206712221Y-113339236D01*
X206697579Y-113412845D01*
X206420996Y-113412845D01*
X206372191Y-113353004D01*
X206224754Y-113231034D01*
X206056435Y-113140024D01*
X205873644Y-113083441D01*
X205683344Y-113063440D01*
X205492783Y-113080782D01*
X205309220Y-113134808D01*
X205139646Y-113223459D01*
X204990521Y-113343358D01*
X204867525Y-113489940D01*
X204775342Y-113657620D01*
X204717484Y-113840011D01*
X204696155Y-114030167D01*
X204696059Y-114043856D01*
X204655419Y-114043856D01*
X204636747Y-113853421D01*
X204581441Y-113670239D01*
X204491608Y-113501289D01*
X204370671Y-113353004D01*
X204223234Y-113231034D01*
X204054915Y-113140024D01*
X203872124Y-113083441D01*
X203681824Y-113063440D01*
X203491263Y-113080782D01*
X203307700Y-113134808D01*
X203138126Y-113223459D01*
X202989001Y-113343358D01*
X202866005Y-113489940D01*
X202773822Y-113657620D01*
X202715964Y-113840011D01*
X202694635Y-114030167D01*
X202694539Y-114043856D01*
X202656439Y-114043856D01*
X202637767Y-113853421D01*
X202582461Y-113670239D01*
X202492628Y-113501289D01*
X202371691Y-113353004D01*
X202224254Y-113231034D01*
X202055935Y-113140024D01*
X201873144Y-113083441D01*
X201682844Y-113063440D01*
X201492283Y-113080782D01*
X201308720Y-113134808D01*
X201139146Y-113223459D01*
X200990021Y-113343358D01*
X200867025Y-113489940D01*
X200774842Y-113657620D01*
X200716984Y-113840011D01*
X200695655Y-114030167D01*
X200695559Y-114043856D01*
X199714611Y-114043856D01*
X199737638Y-113992138D01*
X199765053Y-113871468D01*
X199767027Y-113730127D01*
X199742991Y-113608739D01*
X199695836Y-113494330D01*
X199627356Y-113391260D01*
X199540161Y-113303454D01*
X199437571Y-113234256D01*
X199323495Y-113186303D01*
X199202277Y-113161420D01*
X199078534Y-113160557D01*
X198956981Y-113183744D01*
X198842246Y-113230100D01*
X198738700Y-113297858D01*
X198650287Y-113384439D01*
X198580375Y-113486543D01*
X198531627Y-113600281D01*
X198505898Y-113721323D01*
X198504171Y-113845056D01*
X189223637Y-113845056D01*
X189201991Y-113735739D01*
X189154836Y-113621330D01*
X189086356Y-113518260D01*
X188999161Y-113430454D01*
X188896571Y-113361256D01*
X188782495Y-113313303D01*
X188661277Y-113288420D01*
X188537534Y-113287557D01*
X188415981Y-113310744D01*
X188301246Y-113357100D01*
X188197700Y-113424858D01*
X188109287Y-113511439D01*
X188039375Y-113613543D01*
X187990627Y-113727281D01*
X187964898Y-113848323D01*
X187963171Y-113972056D01*
X184045721Y-113972056D01*
X184223672Y-113572373D01*
X184370570Y-112925802D01*
X184371920Y-112829056D01*
X185423171Y-112829056D01*
X185445509Y-112950769D01*
X185491063Y-113065824D01*
X185558097Y-113169841D01*
X185644058Y-113258856D01*
X185745671Y-113329479D01*
X185859067Y-113379020D01*
X185979926Y-113405593D01*
X186103644Y-113408184D01*
X186225509Y-113386696D01*
X186340880Y-113341947D01*
X186445362Y-113275641D01*
X186514232Y-113210056D01*
X194948171Y-113210056D01*
X194970509Y-113331769D01*
X195016063Y-113446824D01*
X195083097Y-113550841D01*
X195169058Y-113639856D01*
X195270671Y-113710479D01*
X195384067Y-113760020D01*
X195504926Y-113786593D01*
X195628644Y-113789184D01*
X195750509Y-113767696D01*
X195865880Y-113722947D01*
X195970362Y-113656641D01*
X196059975Y-113571303D01*
X196131306Y-113470185D01*
X196181638Y-113357138D01*
X196209053Y-113236468D01*
X196211027Y-113095127D01*
X196186991Y-112973739D01*
X196139836Y-112859330D01*
X196089976Y-112784284D01*
X226614556Y-112784284D01*
X226734249Y-113436439D01*
X226978333Y-114052926D01*
X227337512Y-114610262D01*
X227798104Y-115087219D01*
X228342566Y-115465630D01*
X228950158Y-115731080D01*
X229597739Y-115873460D01*
X230260642Y-115887346D01*
X230913617Y-115772209D01*
X231531793Y-115532434D01*
X232091623Y-115177155D01*
X232571784Y-114719904D01*
X232953986Y-114178098D01*
X233223672Y-113572373D01*
X233370570Y-112925802D01*
X233381145Y-112168476D01*
X233252358Y-111518055D01*
X232999690Y-110905037D01*
X232632765Y-110352770D01*
X232165558Y-109882290D01*
X231615866Y-109511518D01*
X231004626Y-109254576D01*
X230355121Y-109121252D01*
X229692089Y-109116623D01*
X229040785Y-109240866D01*
X228426017Y-109489248D01*
X227871202Y-109852309D01*
X227397472Y-110316220D01*
X227022872Y-110863310D01*
X226761669Y-111472741D01*
X226623814Y-112121300D01*
X226614556Y-112784284D01*
X196089976Y-112784284D01*
X196071356Y-112756260D01*
X195984161Y-112668454D01*
X195881571Y-112599256D01*
X195767495Y-112551303D01*
X195646277Y-112526420D01*
X195522534Y-112525557D01*
X195400981Y-112548744D01*
X195286246Y-112595100D01*
X195182700Y-112662858D01*
X195094287Y-112749439D01*
X195024375Y-112851543D01*
X194975627Y-112965281D01*
X194949898Y-113086323D01*
X194948171Y-113210056D01*
X186514232Y-113210056D01*
X186534975Y-113190303D01*
X186606306Y-113089185D01*
X186656638Y-112976138D01*
X186684053Y-112855468D01*
X186686027Y-112714127D01*
X186661991Y-112592739D01*
X186614836Y-112478330D01*
X186546356Y-112375260D01*
X186492530Y-112321056D01*
X191773171Y-112321056D01*
X191795509Y-112442769D01*
X191841063Y-112557824D01*
X191908097Y-112661841D01*
X191994058Y-112750856D01*
X192095671Y-112821479D01*
X192209067Y-112871020D01*
X192329926Y-112897593D01*
X192453644Y-112900184D01*
X192575509Y-112878696D01*
X192632030Y-112856773D01*
X192670097Y-112915841D01*
X192756058Y-113004856D01*
X192857671Y-113075479D01*
X192971067Y-113125020D01*
X193091926Y-113151593D01*
X193215644Y-113154184D01*
X193337509Y-113132696D01*
X193452880Y-113087947D01*
X193557362Y-113021641D01*
X193646975Y-112936303D01*
X193718306Y-112835185D01*
X193768638Y-112722138D01*
X193796053Y-112601468D01*
X193798027Y-112460127D01*
X193773991Y-112338739D01*
X193726836Y-112224330D01*
X193706722Y-112194056D01*
X219586171Y-112194056D01*
X219608509Y-112315769D01*
X219654063Y-112430824D01*
X219721097Y-112534841D01*
X219807058Y-112623856D01*
X219908671Y-112694479D01*
X220022067Y-112744020D01*
X220142926Y-112770593D01*
X220266644Y-112773184D01*
X220388509Y-112751696D01*
X220503880Y-112706947D01*
X220608362Y-112640641D01*
X220697975Y-112555303D01*
X220769306Y-112454185D01*
X220819638Y-112341138D01*
X220847053Y-112220468D01*
X220849027Y-112079127D01*
X220824991Y-111957739D01*
X220777836Y-111843330D01*
X220709356Y-111740260D01*
X220622161Y-111652454D01*
X220519571Y-111583256D01*
X220405495Y-111535303D01*
X220284277Y-111510420D01*
X220160534Y-111509557D01*
X220038981Y-111532744D01*
X219924246Y-111579100D01*
X219820700Y-111646858D01*
X219732287Y-111733439D01*
X219662375Y-111835543D01*
X219613627Y-111949281D01*
X219587898Y-112070323D01*
X219586171Y-112194056D01*
X193706722Y-112194056D01*
X193658356Y-112121260D01*
X193571161Y-112033454D01*
X193468571Y-111964256D01*
X193354495Y-111916303D01*
X193233277Y-111891420D01*
X193109534Y-111890557D01*
X192987981Y-111913744D01*
X192940095Y-111933091D01*
X192896356Y-111867260D01*
X192809161Y-111779454D01*
X192706571Y-111710256D01*
X192592495Y-111662303D01*
X192471277Y-111637420D01*
X192347534Y-111636557D01*
X192225981Y-111659744D01*
X192111246Y-111706100D01*
X192007700Y-111773858D01*
X191919287Y-111860439D01*
X191849375Y-111962543D01*
X191800627Y-112076281D01*
X191774898Y-112197323D01*
X191773171Y-112321056D01*
X186492530Y-112321056D01*
X186459161Y-112287454D01*
X186356571Y-112218256D01*
X186242495Y-112170303D01*
X186121277Y-112145420D01*
X185997534Y-112144557D01*
X185875981Y-112167744D01*
X185761246Y-112214100D01*
X185657700Y-112281858D01*
X185569287Y-112368439D01*
X185499375Y-112470543D01*
X185450627Y-112584281D01*
X185424898Y-112705323D01*
X185423171Y-112829056D01*
X184371920Y-112829056D01*
X184381145Y-112168476D01*
X184252358Y-111518055D01*
X183999690Y-110905037D01*
X183674813Y-110416056D01*
X193043171Y-110416056D01*
X193065509Y-110537769D01*
X193111063Y-110652824D01*
X193178097Y-110756841D01*
X193264058Y-110845856D01*
X193365671Y-110916479D01*
X193479067Y-110966020D01*
X193599926Y-110992593D01*
X193723644Y-110995184D01*
X193845509Y-110973696D01*
X193960880Y-110928947D01*
X194065362Y-110862641D01*
X194154975Y-110777303D01*
X194226306Y-110676185D01*
X194229034Y-110670056D01*
X200917171Y-110670056D01*
X200939509Y-110791769D01*
X200985063Y-110906824D01*
X201052097Y-111010841D01*
X201138058Y-111099856D01*
X201239671Y-111170479D01*
X201353067Y-111220020D01*
X201473926Y-111246593D01*
X201597644Y-111249184D01*
X201719509Y-111227696D01*
X201834880Y-111182947D01*
X201939362Y-111116641D01*
X202028975Y-111031303D01*
X202100306Y-110930185D01*
X202150638Y-110817138D01*
X202178053Y-110696468D01*
X202180027Y-110555127D01*
X202155991Y-110433739D01*
X202108836Y-110319330D01*
X202040356Y-110216260D01*
X201953161Y-110128454D01*
X201850571Y-110059256D01*
X201736495Y-110011303D01*
X201615277Y-109986420D01*
X201491534Y-109985557D01*
X201369981Y-110008744D01*
X201255246Y-110055100D01*
X201151700Y-110122858D01*
X201063287Y-110209439D01*
X200993375Y-110311543D01*
X200944627Y-110425281D01*
X200918898Y-110546323D01*
X200917171Y-110670056D01*
X194229034Y-110670056D01*
X194276638Y-110563138D01*
X194304053Y-110442468D01*
X194306027Y-110301127D01*
X194281991Y-110179739D01*
X194234836Y-110065330D01*
X194166356Y-109962260D01*
X194112530Y-109908056D01*
X204092171Y-109908056D01*
X204114509Y-110029769D01*
X204160063Y-110144824D01*
X204227097Y-110248841D01*
X204313058Y-110337856D01*
X204414671Y-110408479D01*
X204528067Y-110458020D01*
X204648926Y-110484593D01*
X204772644Y-110487184D01*
X204894509Y-110465696D01*
X205009880Y-110420947D01*
X205114362Y-110354641D01*
X205203975Y-110269303D01*
X205275306Y-110168185D01*
X205325638Y-110055138D01*
X205353053Y-109934468D01*
X205353421Y-109908056D01*
X206378171Y-109908056D01*
X206400509Y-110029769D01*
X206446063Y-110144824D01*
X206513097Y-110248841D01*
X206599058Y-110337856D01*
X206700671Y-110408479D01*
X206814067Y-110458020D01*
X206934926Y-110484593D01*
X207058644Y-110487184D01*
X207180509Y-110465696D01*
X207295880Y-110420947D01*
X207400362Y-110354641D01*
X207489975Y-110269303D01*
X207561306Y-110168185D01*
X207611638Y-110055138D01*
X207639053Y-109934468D01*
X207641027Y-109793127D01*
X207638637Y-109781056D01*
X208410171Y-109781056D01*
X208432509Y-109902769D01*
X208478063Y-110017824D01*
X208545097Y-110121841D01*
X208631058Y-110210856D01*
X208732671Y-110281479D01*
X208846067Y-110331020D01*
X208966926Y-110357593D01*
X209090644Y-110360184D01*
X209091206Y-110360085D01*
X209143195Y-110440756D01*
X209229156Y-110529771D01*
X209330769Y-110600394D01*
X209444165Y-110649935D01*
X209565024Y-110676508D01*
X209688742Y-110679099D01*
X209810607Y-110657611D01*
X209868125Y-110635301D01*
X209875063Y-110652824D01*
X209942097Y-110756841D01*
X210028058Y-110845856D01*
X210129671Y-110916479D01*
X210243067Y-110966020D01*
X210363926Y-110992593D01*
X210487644Y-110995184D01*
X210609509Y-110973696D01*
X210724880Y-110928947D01*
X210829362Y-110862641D01*
X210918975Y-110777303D01*
X210990306Y-110676185D01*
X211040638Y-110563138D01*
X211068053Y-110442468D01*
X211070027Y-110301127D01*
X211045991Y-110179739D01*
X210998836Y-110065330D01*
X210930356Y-109962260D01*
X210843161Y-109874454D01*
X210740571Y-109805256D01*
X210626495Y-109757303D01*
X210505277Y-109732420D01*
X210381534Y-109731557D01*
X210259981Y-109754744D01*
X210210449Y-109774756D01*
X210199934Y-109749245D01*
X210131454Y-109646175D01*
X210044259Y-109558369D01*
X209997836Y-109527056D01*
X212982171Y-109527056D01*
X213004509Y-109648769D01*
X213050063Y-109763824D01*
X213117097Y-109867841D01*
X213203058Y-109956856D01*
X213304671Y-110027479D01*
X213418067Y-110077020D01*
X213538926Y-110103593D01*
X213662644Y-110106184D01*
X213784509Y-110084696D01*
X213899880Y-110039947D01*
X214004362Y-109973641D01*
X214093975Y-109888303D01*
X214165306Y-109787185D01*
X214215638Y-109674138D01*
X214243053Y-109553468D01*
X214245027Y-109412127D01*
X214242637Y-109400056D01*
X220221171Y-109400056D01*
X220243509Y-109521769D01*
X220289063Y-109636824D01*
X220356097Y-109740841D01*
X220442058Y-109829856D01*
X220543671Y-109900479D01*
X220657067Y-109950020D01*
X220777926Y-109976593D01*
X220856964Y-109978248D01*
X220856171Y-110035056D01*
X220878509Y-110156769D01*
X220924063Y-110271824D01*
X220991097Y-110375841D01*
X221077058Y-110464856D01*
X221178671Y-110535479D01*
X221292067Y-110585020D01*
X221412926Y-110611593D01*
X221536644Y-110614184D01*
X221658509Y-110592696D01*
X221773880Y-110547947D01*
X221878362Y-110481641D01*
X221967975Y-110396303D01*
X222039306Y-110295185D01*
X222089638Y-110182138D01*
X222117053Y-110061468D01*
X222119027Y-109920127D01*
X222094991Y-109798739D01*
X222047836Y-109684330D01*
X221979356Y-109581260D01*
X221892161Y-109493454D01*
X221789571Y-109424256D01*
X221675495Y-109376303D01*
X221554277Y-109351420D01*
X221483108Y-109350924D01*
X221484027Y-109285127D01*
X221459991Y-109163739D01*
X221412836Y-109049330D01*
X221344356Y-108946260D01*
X221257161Y-108858454D01*
X221154571Y-108789256D01*
X221040495Y-108741303D01*
X220919277Y-108716420D01*
X220795534Y-108715557D01*
X220673981Y-108738744D01*
X220559246Y-108785100D01*
X220455700Y-108852858D01*
X220367287Y-108939439D01*
X220297375Y-109041543D01*
X220248627Y-109155281D01*
X220222898Y-109276323D01*
X220221171Y-109400056D01*
X214242637Y-109400056D01*
X214220991Y-109290739D01*
X214173836Y-109176330D01*
X214105356Y-109073260D01*
X214018161Y-108985454D01*
X213915571Y-108916256D01*
X213801495Y-108868303D01*
X213680277Y-108843420D01*
X213556534Y-108842557D01*
X213434981Y-108865744D01*
X213320246Y-108912100D01*
X213216700Y-108979858D01*
X213128287Y-109066439D01*
X213058375Y-109168543D01*
X213009627Y-109282281D01*
X212983898Y-109403323D01*
X212982171Y-109527056D01*
X209997836Y-109527056D01*
X209941669Y-109489171D01*
X209827593Y-109441218D01*
X209706375Y-109416335D01*
X209592008Y-109415537D01*
X209533356Y-109327260D01*
X209446161Y-109239454D01*
X209343571Y-109170256D01*
X209229495Y-109122303D01*
X209108277Y-109097420D01*
X208984534Y-109096557D01*
X208862981Y-109119744D01*
X208748246Y-109166100D01*
X208644700Y-109233858D01*
X208556287Y-109320439D01*
X208486375Y-109422543D01*
X208437627Y-109536281D01*
X208411898Y-109657323D01*
X208410171Y-109781056D01*
X207638637Y-109781056D01*
X207616991Y-109671739D01*
X207569836Y-109557330D01*
X207501356Y-109454260D01*
X207414161Y-109366454D01*
X207366949Y-109334609D01*
X207434509Y-109322696D01*
X207549880Y-109277947D01*
X207654362Y-109211641D01*
X207743975Y-109126303D01*
X207815306Y-109025185D01*
X207865638Y-108912138D01*
X207893053Y-108791468D01*
X207895027Y-108650127D01*
X207870991Y-108528739D01*
X207823836Y-108414330D01*
X207755356Y-108311260D01*
X207668161Y-108223454D01*
X207565571Y-108154256D01*
X207451495Y-108106303D01*
X207330277Y-108081420D01*
X207206534Y-108080557D01*
X207084981Y-108103744D01*
X206970246Y-108150100D01*
X206866700Y-108217858D01*
X206778287Y-108304439D01*
X206708375Y-108406543D01*
X206659627Y-108520281D01*
X206633898Y-108641323D01*
X206632171Y-108765056D01*
X206654509Y-108886769D01*
X206700063Y-109001824D01*
X206767097Y-109105841D01*
X206853058Y-109194856D01*
X206906883Y-109232265D01*
X206830981Y-109246744D01*
X206716246Y-109293100D01*
X206612700Y-109360858D01*
X206524287Y-109447439D01*
X206454375Y-109549543D01*
X206405627Y-109663281D01*
X206379898Y-109784323D01*
X206378171Y-109908056D01*
X205353421Y-109908056D01*
X205355027Y-109793127D01*
X205330991Y-109671739D01*
X205283836Y-109557330D01*
X205215356Y-109454260D01*
X205128161Y-109366454D01*
X205025571Y-109297256D01*
X204911495Y-109249303D01*
X204790277Y-109224420D01*
X204666534Y-109223557D01*
X204544981Y-109246744D01*
X204430246Y-109293100D01*
X204326700Y-109360858D01*
X204238287Y-109447439D01*
X204168375Y-109549543D01*
X204119627Y-109663281D01*
X204093898Y-109784323D01*
X204092171Y-109908056D01*
X194112530Y-109908056D01*
X194079161Y-109874454D01*
X193976571Y-109805256D01*
X193862495Y-109757303D01*
X193741277Y-109732420D01*
X193617534Y-109731557D01*
X193495981Y-109754744D01*
X193381246Y-109801100D01*
X193277700Y-109868858D01*
X193189287Y-109955439D01*
X193119375Y-110057543D01*
X193070627Y-110171281D01*
X193044898Y-110292323D01*
X193043171Y-110416056D01*
X183674813Y-110416056D01*
X183632765Y-110352770D01*
X183165558Y-109882290D01*
X182615866Y-109511518D01*
X182051270Y-109274183D01*
X195629991Y-109274183D01*
X195652329Y-109395896D01*
X195697883Y-109510951D01*
X195764917Y-109614968D01*
X195850878Y-109703983D01*
X195952491Y-109774606D01*
X196065887Y-109824147D01*
X196186746Y-109850720D01*
X196310464Y-109853311D01*
X196432329Y-109831823D01*
X196547700Y-109787074D01*
X196652182Y-109720768D01*
X196741795Y-109635430D01*
X196813126Y-109534312D01*
X196863458Y-109421265D01*
X196865598Y-109411847D01*
X196951968Y-109396618D01*
X197067339Y-109351869D01*
X197171821Y-109285563D01*
X197261434Y-109200225D01*
X197332765Y-109099107D01*
X197383097Y-108986060D01*
X197410512Y-108865390D01*
X197412486Y-108724049D01*
X197388450Y-108602661D01*
X197380287Y-108582856D01*
X197390369Y-108587261D01*
X197511228Y-108613834D01*
X197634946Y-108616425D01*
X197756811Y-108594937D01*
X197872182Y-108550188D01*
X197976664Y-108483882D01*
X198066277Y-108398544D01*
X198137608Y-108297426D01*
X198187940Y-108184379D01*
X198215355Y-108063709D01*
X198215792Y-108032415D01*
X198278880Y-108007945D01*
X198383362Y-107941639D01*
X198472975Y-107856301D01*
X198544306Y-107755183D01*
X198594638Y-107642136D01*
X198622053Y-107521466D01*
X198624027Y-107380125D01*
X198599991Y-107258737D01*
X198552836Y-107144328D01*
X198484356Y-107041258D01*
X198397161Y-106953452D01*
X198294571Y-106884254D01*
X198180495Y-106836301D01*
X198059277Y-106811418D01*
X197935534Y-106810555D01*
X197813981Y-106833742D01*
X197699246Y-106880098D01*
X197595700Y-106947856D01*
X197507287Y-107034437D01*
X197437375Y-107136541D01*
X197388627Y-107250279D01*
X197362898Y-107371321D01*
X197362581Y-107394046D01*
X197292548Y-107422341D01*
X197189002Y-107490099D01*
X197140427Y-107537667D01*
X197121922Y-107525185D01*
X197007846Y-107477232D01*
X196886628Y-107452349D01*
X196762885Y-107451486D01*
X196641332Y-107474673D01*
X196526597Y-107521029D01*
X196423051Y-107588787D01*
X196334638Y-107675368D01*
X196264726Y-107777472D01*
X196215978Y-107891210D01*
X196190249Y-108012252D01*
X196188522Y-108135985D01*
X196210860Y-108257698D01*
X196256414Y-108372753D01*
X196277346Y-108405233D01*
X196225834Y-108480465D01*
X196177086Y-108594203D01*
X196176935Y-108594914D01*
X196082801Y-108612871D01*
X195968066Y-108659227D01*
X195864520Y-108726985D01*
X195776107Y-108813566D01*
X195706195Y-108915670D01*
X195657447Y-109029408D01*
X195631718Y-109150450D01*
X195629991Y-109274183D01*
X182051270Y-109274183D01*
X182004626Y-109254576D01*
X181355121Y-109121252D01*
X180692089Y-109116623D01*
X180040785Y-109240866D01*
X179426017Y-109489248D01*
X178871202Y-109852309D01*
X178397472Y-110316220D01*
X178022872Y-110863310D01*
X177761669Y-111472741D01*
X177623814Y-112121300D01*
X177614556Y-112784284D01*
X172456000Y-112784284D01*
X172456000Y-109146056D01*
X172596171Y-109146056D01*
X172618509Y-109267769D01*
X172664063Y-109382824D01*
X172731097Y-109486841D01*
X172817058Y-109575856D01*
X172918671Y-109646479D01*
X173032067Y-109696020D01*
X173152926Y-109722593D01*
X173276644Y-109725184D01*
X173384086Y-109706239D01*
X176204354Y-109706239D01*
X176226692Y-109827952D01*
X176272246Y-109943007D01*
X176339280Y-110047024D01*
X176425241Y-110136039D01*
X176526854Y-110206662D01*
X176640250Y-110256203D01*
X176761109Y-110282776D01*
X176884827Y-110285367D01*
X177006692Y-110263879D01*
X177122063Y-110219130D01*
X177226545Y-110152824D01*
X177316158Y-110067486D01*
X177387489Y-109966368D01*
X177437821Y-109853321D01*
X177465236Y-109732651D01*
X177467210Y-109591310D01*
X177443174Y-109469922D01*
X177396019Y-109355513D01*
X177327539Y-109252443D01*
X177240344Y-109164637D01*
X177137754Y-109095439D01*
X177023678Y-109047486D01*
X176902460Y-109022603D01*
X176778717Y-109021740D01*
X176657164Y-109044927D01*
X176542429Y-109091283D01*
X176438883Y-109159041D01*
X176350470Y-109245622D01*
X176280558Y-109347726D01*
X176231810Y-109461464D01*
X176206081Y-109582506D01*
X176204354Y-109706239D01*
X173384086Y-109706239D01*
X173398509Y-109703696D01*
X173513880Y-109658947D01*
X173618362Y-109592641D01*
X173707975Y-109507303D01*
X173779306Y-109406185D01*
X173829638Y-109293138D01*
X173857053Y-109172468D01*
X173859027Y-109031127D01*
X173834991Y-108909739D01*
X173787836Y-108795330D01*
X173719356Y-108692260D01*
X173632161Y-108604454D01*
X173529571Y-108535256D01*
X173415495Y-108487303D01*
X173294277Y-108462420D01*
X173170534Y-108461557D01*
X173048981Y-108484744D01*
X172934246Y-108531100D01*
X172830700Y-108598858D01*
X172742287Y-108685439D01*
X172672375Y-108787543D01*
X172623627Y-108901281D01*
X172597898Y-109022323D01*
X172596171Y-109146056D01*
X172456000Y-109146056D01*
X172456000Y-107241056D01*
X180089171Y-107241056D01*
X180111509Y-107362769D01*
X180157063Y-107477824D01*
X180224097Y-107581841D01*
X180310058Y-107670856D01*
X180411671Y-107741479D01*
X180525067Y-107791020D01*
X180645926Y-107817593D01*
X180769644Y-107820184D01*
X180891509Y-107798696D01*
X181006880Y-107753947D01*
X181111362Y-107687641D01*
X181200975Y-107602303D01*
X181272306Y-107501185D01*
X181322638Y-107388138D01*
X181350053Y-107267468D01*
X181352027Y-107126127D01*
X181327991Y-107004739D01*
X181280836Y-106890330D01*
X181212356Y-106787260D01*
X181125161Y-106699454D01*
X181022571Y-106630256D01*
X180908495Y-106582303D01*
X180787277Y-106557420D01*
X180663534Y-106556557D01*
X180541981Y-106579744D01*
X180427246Y-106626100D01*
X180323700Y-106693858D01*
X180235287Y-106780439D01*
X180165375Y-106882543D01*
X180116627Y-106996281D01*
X180090898Y-107117323D01*
X180089171Y-107241056D01*
X172456000Y-107241056D01*
X172456000Y-105844056D01*
X177295171Y-105844056D01*
X177317509Y-105965769D01*
X177363063Y-106080824D01*
X177430097Y-106184841D01*
X177516058Y-106273856D01*
X177617671Y-106344479D01*
X177731067Y-106394020D01*
X177851926Y-106420593D01*
X177975644Y-106423184D01*
X178097509Y-106401696D01*
X178212880Y-106356947D01*
X178220587Y-106352056D01*
X192281171Y-106352056D01*
X192303509Y-106473769D01*
X192349063Y-106588824D01*
X192416097Y-106692841D01*
X192502058Y-106781856D01*
X192603671Y-106852479D01*
X192717067Y-106902020D01*
X192837926Y-106928593D01*
X192961644Y-106931184D01*
X193083509Y-106909696D01*
X193198880Y-106864947D01*
X193303362Y-106798641D01*
X193392975Y-106713303D01*
X193464306Y-106612185D01*
X193514638Y-106499138D01*
X193542053Y-106378468D01*
X193544027Y-106237127D01*
X193519991Y-106115739D01*
X193472836Y-106001330D01*
X193404356Y-105898260D01*
X193317161Y-105810454D01*
X193248107Y-105763876D01*
X198614833Y-105763876D01*
X198637171Y-105885589D01*
X198682725Y-106000644D01*
X198749759Y-106104661D01*
X198835720Y-106193676D01*
X198910645Y-106245750D01*
X198893804Y-106285044D01*
X198868075Y-106406086D01*
X198866348Y-106529819D01*
X198888686Y-106651532D01*
X198934240Y-106766587D01*
X199001274Y-106870604D01*
X199087235Y-106959619D01*
X199188848Y-107030242D01*
X199302244Y-107079783D01*
X199423103Y-107106356D01*
X199546821Y-107108947D01*
X199668686Y-107087459D01*
X199784057Y-107042710D01*
X199797977Y-107033876D01*
X205922680Y-107033876D01*
X205945018Y-107155589D01*
X205990572Y-107270644D01*
X206057606Y-107374661D01*
X206143567Y-107463676D01*
X206245180Y-107534299D01*
X206358576Y-107583840D01*
X206479435Y-107610413D01*
X206603153Y-107613004D01*
X206725018Y-107591516D01*
X206840389Y-107546767D01*
X206944871Y-107480461D01*
X207034484Y-107395123D01*
X207105815Y-107294005D01*
X207156147Y-107180958D01*
X207183562Y-107060288D01*
X207185536Y-106918947D01*
X207161500Y-106797559D01*
X207114345Y-106683150D01*
X207045865Y-106580080D01*
X206958670Y-106492274D01*
X206856080Y-106423076D01*
X206742004Y-106375123D01*
X206620786Y-106350240D01*
X206497043Y-106349377D01*
X206375490Y-106372564D01*
X206260755Y-106418920D01*
X206157209Y-106486678D01*
X206068796Y-106573259D01*
X205998884Y-106675363D01*
X205950136Y-106789101D01*
X205924407Y-106910143D01*
X205922680Y-107033876D01*
X199797977Y-107033876D01*
X199888539Y-106976404D01*
X199978152Y-106891066D01*
X200049483Y-106789948D01*
X200099815Y-106676901D01*
X200127230Y-106556231D01*
X200129204Y-106414890D01*
X200105168Y-106293502D01*
X200058013Y-106179093D01*
X199989533Y-106076023D01*
X199902338Y-105988217D01*
X199834327Y-105942343D01*
X199848300Y-105910958D01*
X199875715Y-105790288D01*
X199877689Y-105648947D01*
X199853653Y-105527559D01*
X199806498Y-105413150D01*
X199738018Y-105310080D01*
X199650823Y-105222274D01*
X199548233Y-105153076D01*
X199434157Y-105105123D01*
X199312939Y-105080240D01*
X199189196Y-105079377D01*
X199067643Y-105102564D01*
X198952908Y-105148920D01*
X198849362Y-105216678D01*
X198760949Y-105303259D01*
X198691037Y-105405363D01*
X198642289Y-105519101D01*
X198616560Y-105640143D01*
X198614833Y-105763876D01*
X193248107Y-105763876D01*
X193214571Y-105741256D01*
X193100495Y-105693303D01*
X192979277Y-105668420D01*
X192855534Y-105667557D01*
X192733981Y-105690744D01*
X192619246Y-105737100D01*
X192515700Y-105804858D01*
X192427287Y-105891439D01*
X192357375Y-105993543D01*
X192308627Y-106107281D01*
X192282898Y-106228323D01*
X192281171Y-106352056D01*
X178220587Y-106352056D01*
X178317362Y-106290641D01*
X178406975Y-106205303D01*
X178478306Y-106104185D01*
X178528638Y-105991138D01*
X178556053Y-105870468D01*
X178558027Y-105729127D01*
X178555637Y-105717056D01*
X188471171Y-105717056D01*
X188493509Y-105838769D01*
X188539063Y-105953824D01*
X188606097Y-106057841D01*
X188692058Y-106146856D01*
X188793671Y-106217479D01*
X188907067Y-106267020D01*
X189027926Y-106293593D01*
X189151644Y-106296184D01*
X189273509Y-106274696D01*
X189388880Y-106229947D01*
X189493362Y-106163641D01*
X189582975Y-106078303D01*
X189654306Y-105977185D01*
X189704638Y-105864138D01*
X189732053Y-105743468D01*
X189734027Y-105602127D01*
X189709991Y-105480739D01*
X189662836Y-105366330D01*
X189594356Y-105263260D01*
X189507161Y-105175454D01*
X189404571Y-105106256D01*
X189290495Y-105058303D01*
X189169277Y-105033420D01*
X189045534Y-105032557D01*
X188923981Y-105055744D01*
X188809246Y-105102100D01*
X188705700Y-105169858D01*
X188617287Y-105256439D01*
X188547375Y-105358543D01*
X188498627Y-105472281D01*
X188472898Y-105593323D01*
X188471171Y-105717056D01*
X178555637Y-105717056D01*
X178533991Y-105607739D01*
X178486836Y-105493330D01*
X178418356Y-105390260D01*
X178331161Y-105302454D01*
X178228571Y-105233256D01*
X178114495Y-105185303D01*
X177993277Y-105160420D01*
X177869534Y-105159557D01*
X177747981Y-105182744D01*
X177633246Y-105229100D01*
X177529700Y-105296858D01*
X177441287Y-105383439D01*
X177371375Y-105485543D01*
X177322627Y-105599281D01*
X177296898Y-105720323D01*
X177295171Y-105844056D01*
X172456000Y-105844056D01*
X172456000Y-104111424D01*
X198250189Y-104111424D01*
X198272527Y-104233137D01*
X198318081Y-104348192D01*
X198385115Y-104452209D01*
X198471076Y-104541224D01*
X198572689Y-104611847D01*
X198686085Y-104661388D01*
X198806944Y-104687961D01*
X198930662Y-104690552D01*
X199052527Y-104669064D01*
X199113151Y-104645550D01*
X199113775Y-104648949D01*
X199159329Y-104764004D01*
X199226363Y-104868021D01*
X199312324Y-104957036D01*
X199413937Y-105027659D01*
X199527333Y-105077200D01*
X199648192Y-105103773D01*
X199771910Y-105106364D01*
X199893775Y-105084876D01*
X200009146Y-105040127D01*
X200113628Y-104973821D01*
X200203241Y-104888483D01*
X200210001Y-104878900D01*
X200230419Y-104930468D01*
X200297453Y-105034485D01*
X200383414Y-105123500D01*
X200485027Y-105194123D01*
X200598423Y-105243664D01*
X200719282Y-105270237D01*
X200806196Y-105272057D01*
X200791898Y-105339323D01*
X200790171Y-105463056D01*
X200812509Y-105584769D01*
X200858063Y-105699824D01*
X200925097Y-105803841D01*
X201011058Y-105892856D01*
X201112671Y-105963479D01*
X201226067Y-106013020D01*
X201346926Y-106039593D01*
X201470644Y-106042184D01*
X201592509Y-106020696D01*
X201707880Y-105975947D01*
X201812362Y-105909641D01*
X201901975Y-105824303D01*
X201973306Y-105723185D01*
X202023638Y-105610138D01*
X202051053Y-105489468D01*
X202053027Y-105348127D01*
X202050637Y-105336056D01*
X204600171Y-105336056D01*
X204622509Y-105457769D01*
X204668063Y-105572824D01*
X204735097Y-105676841D01*
X204821058Y-105765856D01*
X204922671Y-105836479D01*
X205036067Y-105886020D01*
X205156926Y-105912593D01*
X205280644Y-105915184D01*
X205402509Y-105893696D01*
X205517880Y-105848947D01*
X205622362Y-105782641D01*
X205711975Y-105697303D01*
X205783306Y-105596185D01*
X205811878Y-105532011D01*
X205915644Y-105534184D01*
X206037509Y-105512696D01*
X206152880Y-105467947D01*
X206257362Y-105401641D01*
X206346975Y-105316303D01*
X206418306Y-105215185D01*
X206468638Y-105102138D01*
X206488492Y-105014750D01*
X206545509Y-105004696D01*
X206660880Y-104959947D01*
X206765362Y-104893641D01*
X206854975Y-104808303D01*
X206926306Y-104707185D01*
X206976638Y-104594138D01*
X207004053Y-104473468D01*
X207006027Y-104332127D01*
X206981991Y-104210739D01*
X206934836Y-104096330D01*
X206866356Y-103993260D01*
X206779161Y-103905454D01*
X206676571Y-103836256D01*
X206562495Y-103788303D01*
X206441277Y-103763420D01*
X206317534Y-103762557D01*
X206195981Y-103785744D01*
X206081246Y-103832100D01*
X205977700Y-103899858D01*
X205889287Y-103986439D01*
X205819375Y-104088543D01*
X205770627Y-104202281D01*
X205753856Y-104281178D01*
X205687981Y-104293744D01*
X205573246Y-104340100D01*
X205469700Y-104407858D01*
X205381287Y-104494439D01*
X205311375Y-104596543D01*
X205287459Y-104652345D01*
X205174534Y-104651557D01*
X205052981Y-104674744D01*
X204938246Y-104721100D01*
X204834700Y-104788858D01*
X204746287Y-104875439D01*
X204676375Y-104977543D01*
X204627627Y-105091281D01*
X204601898Y-105212323D01*
X204600171Y-105336056D01*
X202050637Y-105336056D01*
X202028991Y-105226739D01*
X201981836Y-105112330D01*
X201913356Y-105009260D01*
X201826161Y-104921454D01*
X201723571Y-104852256D01*
X201609495Y-104804303D01*
X201488277Y-104779420D01*
X201410059Y-104778874D01*
X201423409Y-104720112D01*
X201425383Y-104578771D01*
X201401347Y-104457383D01*
X201354192Y-104342974D01*
X201285712Y-104239904D01*
X201198517Y-104152098D01*
X201095927Y-104082900D01*
X200981851Y-104034947D01*
X200860633Y-104010064D01*
X200736890Y-104009201D01*
X200615337Y-104032388D01*
X200500602Y-104078744D01*
X200397056Y-104146502D01*
X200308643Y-104233083D01*
X200307255Y-104235110D01*
X200283102Y-104176510D01*
X200214622Y-104073440D01*
X200127427Y-103985634D01*
X200024837Y-103916436D01*
X199910761Y-103868483D01*
X199789543Y-103843600D01*
X199665800Y-103842737D01*
X199544247Y-103865924D01*
X199491417Y-103887269D01*
X199489009Y-103875107D01*
X199455771Y-103794465D01*
X199529358Y-103765923D01*
X199633840Y-103699617D01*
X199723453Y-103614279D01*
X199794784Y-103513161D01*
X199845116Y-103400114D01*
X199872531Y-103279444D01*
X199874505Y-103138103D01*
X199866342Y-103096876D01*
X207267171Y-103096876D01*
X207289509Y-103218589D01*
X207335063Y-103333644D01*
X207402097Y-103437661D01*
X207488058Y-103526676D01*
X207589671Y-103597299D01*
X207703067Y-103646840D01*
X207823926Y-103673413D01*
X207947644Y-103676004D01*
X208069509Y-103654516D01*
X208184880Y-103609767D01*
X208289362Y-103543461D01*
X208378975Y-103458123D01*
X208450306Y-103357005D01*
X208500638Y-103243958D01*
X208528053Y-103123288D01*
X208530027Y-102981947D01*
X208505991Y-102860559D01*
X208458836Y-102746150D01*
X208390356Y-102643080D01*
X208303161Y-102555274D01*
X208200571Y-102486076D01*
X208086495Y-102438123D01*
X207965277Y-102413240D01*
X207841534Y-102412377D01*
X207719981Y-102435564D01*
X207605246Y-102481920D01*
X207501700Y-102549678D01*
X207413287Y-102636259D01*
X207343375Y-102738363D01*
X207294627Y-102852101D01*
X207268898Y-102973143D01*
X207267171Y-103096876D01*
X199866342Y-103096876D01*
X199850469Y-103016715D01*
X199803314Y-102902306D01*
X199734834Y-102799236D01*
X199647639Y-102711430D01*
X199545049Y-102642232D01*
X199430973Y-102594279D01*
X199309755Y-102569396D01*
X199186012Y-102568533D01*
X199064459Y-102591720D01*
X198949724Y-102638076D01*
X198846178Y-102705834D01*
X198757765Y-102792415D01*
X198687853Y-102894519D01*
X198639105Y-103008257D01*
X198613376Y-103129299D01*
X198611649Y-103253032D01*
X198633987Y-103374745D01*
X198669229Y-103463756D01*
X198588264Y-103496468D01*
X198484718Y-103564226D01*
X198396305Y-103650807D01*
X198326393Y-103752911D01*
X198277645Y-103866649D01*
X198251916Y-103987691D01*
X198250189Y-104111424D01*
X172456000Y-104111424D01*
X172456000Y-102669056D01*
X181486171Y-102669056D01*
X181508509Y-102790769D01*
X181554063Y-102905824D01*
X181621097Y-103009841D01*
X181707058Y-103098856D01*
X181808671Y-103169479D01*
X181922067Y-103219020D01*
X182042926Y-103245593D01*
X182166644Y-103248184D01*
X182288509Y-103226696D01*
X182403880Y-103181947D01*
X182508362Y-103115641D01*
X182597975Y-103030303D01*
X182669306Y-102929185D01*
X182719638Y-102816138D01*
X182747053Y-102695468D01*
X182749027Y-102554127D01*
X182724991Y-102432739D01*
X182677836Y-102318330D01*
X182609356Y-102215260D01*
X182522161Y-102127454D01*
X182419571Y-102058256D01*
X182305495Y-102010303D01*
X182184277Y-101985420D01*
X182060534Y-101984557D01*
X181938981Y-102007744D01*
X181824246Y-102054100D01*
X181720700Y-102121858D01*
X181632287Y-102208439D01*
X181562375Y-102310543D01*
X181513627Y-102424281D01*
X181487898Y-102545323D01*
X181486171Y-102669056D01*
X172456000Y-102669056D01*
X172456000Y-101253290D01*
X173013370Y-101253290D01*
X173013370Y-101668005D01*
X173028012Y-101741613D01*
X173056732Y-101810951D01*
X173098428Y-101873353D01*
X173151496Y-101926422D01*
X173213899Y-101968118D01*
X173283236Y-101996838D01*
X173356845Y-102011480D01*
X174021750Y-102011480D01*
X174117000Y-101916230D01*
X174117000Y-101158040D01*
X174371000Y-101158040D01*
X174371000Y-101916230D01*
X174466250Y-102011480D01*
X175131155Y-102011480D01*
X175204764Y-101996838D01*
X175274101Y-101968118D01*
X175336504Y-101926422D01*
X175389572Y-101873353D01*
X175431268Y-101810951D01*
X175459988Y-101741613D01*
X175474630Y-101668005D01*
X175474630Y-101253290D01*
X175379380Y-101158040D01*
X174371000Y-101158040D01*
X174117000Y-101158040D01*
X173108620Y-101158040D01*
X173013370Y-101253290D01*
X172456000Y-101253290D01*
X172456000Y-100394075D01*
X173013370Y-100394075D01*
X173013370Y-100808790D01*
X173108620Y-100904040D01*
X174117000Y-100904040D01*
X174117000Y-100145850D01*
X174371000Y-100145850D01*
X174371000Y-100904040D01*
X175379380Y-100904040D01*
X175474630Y-100808790D01*
X175474630Y-100637056D01*
X181740171Y-100637056D01*
X181762509Y-100758769D01*
X181808063Y-100873824D01*
X181875097Y-100977841D01*
X181961058Y-101066856D01*
X182062671Y-101137479D01*
X182176067Y-101187020D01*
X182296926Y-101213593D01*
X182420644Y-101216184D01*
X182542509Y-101194696D01*
X182657880Y-101149947D01*
X182762362Y-101083641D01*
X182831232Y-101018056D01*
X194186171Y-101018056D01*
X194208509Y-101139769D01*
X194254063Y-101254824D01*
X194321097Y-101358841D01*
X194407058Y-101447856D01*
X194508671Y-101518479D01*
X194622067Y-101568020D01*
X194742926Y-101594593D01*
X194866644Y-101597184D01*
X194988509Y-101575696D01*
X195103880Y-101530947D01*
X195111587Y-101526056D01*
X196726171Y-101526056D01*
X196748509Y-101647769D01*
X196794063Y-101762824D01*
X196861097Y-101866841D01*
X196947058Y-101955856D01*
X197048671Y-102026479D01*
X197162067Y-102076020D01*
X197282926Y-102102593D01*
X197374100Y-102104502D01*
X197383509Y-102155769D01*
X197429063Y-102270824D01*
X197496097Y-102374841D01*
X197582058Y-102463856D01*
X197683671Y-102534479D01*
X197797067Y-102584020D01*
X197917926Y-102610593D01*
X198041644Y-102613184D01*
X198163509Y-102591696D01*
X198278880Y-102546947D01*
X198383362Y-102480641D01*
X198472975Y-102395303D01*
X198544306Y-102294185D01*
X198547034Y-102288056D01*
X209172171Y-102288056D01*
X209194509Y-102409769D01*
X209240063Y-102524824D01*
X209307097Y-102628841D01*
X209393058Y-102717856D01*
X209494671Y-102788479D01*
X209608067Y-102838020D01*
X209728926Y-102864593D01*
X209852644Y-102867184D01*
X209974509Y-102845696D01*
X210089880Y-102800947D01*
X210194362Y-102734641D01*
X210283975Y-102649303D01*
X210355306Y-102548185D01*
X210405638Y-102435138D01*
X210433053Y-102314468D01*
X210433346Y-102293483D01*
X210696171Y-102293483D01*
X210718509Y-102415196D01*
X210764063Y-102530251D01*
X210831097Y-102634268D01*
X210917058Y-102723283D01*
X211018671Y-102793906D01*
X211132067Y-102843447D01*
X211252926Y-102870020D01*
X211376644Y-102872611D01*
X211498509Y-102851123D01*
X211613880Y-102806374D01*
X211718362Y-102740068D01*
X211807975Y-102654730D01*
X211879306Y-102553612D01*
X211929638Y-102440565D01*
X211957053Y-102319895D01*
X211959027Y-102178554D01*
X211934991Y-102057166D01*
X211887836Y-101942757D01*
X211819356Y-101839687D01*
X211732161Y-101751881D01*
X211629571Y-101682683D01*
X211515495Y-101634730D01*
X211394277Y-101609847D01*
X211270534Y-101608984D01*
X211148981Y-101632171D01*
X211034246Y-101678527D01*
X210930700Y-101746285D01*
X210842287Y-101832866D01*
X210772375Y-101934970D01*
X210723627Y-102048708D01*
X210697898Y-102169750D01*
X210696171Y-102293483D01*
X210433346Y-102293483D01*
X210435027Y-102173127D01*
X210410991Y-102051739D01*
X210363836Y-101937330D01*
X210295356Y-101834260D01*
X210208161Y-101746454D01*
X210105571Y-101677256D01*
X209991495Y-101629303D01*
X209870277Y-101604420D01*
X209746534Y-101603557D01*
X209624981Y-101626744D01*
X209510246Y-101673100D01*
X209406700Y-101740858D01*
X209318287Y-101827439D01*
X209248375Y-101929543D01*
X209199627Y-102043281D01*
X209173898Y-102164323D01*
X209172171Y-102288056D01*
X198547034Y-102288056D01*
X198594638Y-102181138D01*
X198622053Y-102060468D01*
X198624027Y-101919127D01*
X198599991Y-101797739D01*
X198552836Y-101683330D01*
X198484356Y-101580260D01*
X198397161Y-101492454D01*
X198294571Y-101423256D01*
X198180495Y-101375303D01*
X198059277Y-101350420D01*
X197976893Y-101349845D01*
X197964991Y-101289739D01*
X197917836Y-101175330D01*
X197849356Y-101072260D01*
X197762161Y-100984454D01*
X197659571Y-100915256D01*
X197545495Y-100867303D01*
X197424277Y-100842420D01*
X197300534Y-100841557D01*
X197178981Y-100864744D01*
X197064246Y-100911100D01*
X196960700Y-100978858D01*
X196872287Y-101065439D01*
X196802375Y-101167543D01*
X196753627Y-101281281D01*
X196727898Y-101402323D01*
X196726171Y-101526056D01*
X195111587Y-101526056D01*
X195208362Y-101464641D01*
X195297975Y-101379303D01*
X195369306Y-101278185D01*
X195419638Y-101165138D01*
X195444011Y-101057859D01*
X195490279Y-101049701D01*
X195605650Y-101004952D01*
X195710132Y-100938646D01*
X195799745Y-100853308D01*
X195871076Y-100752190D01*
X195921408Y-100639143D01*
X195948823Y-100518473D01*
X195948940Y-100510056D01*
X210569171Y-100510056D01*
X210591509Y-100631769D01*
X210637063Y-100746824D01*
X210704097Y-100850841D01*
X210790058Y-100939856D01*
X210891671Y-101010479D01*
X211005067Y-101060020D01*
X211125926Y-101086593D01*
X211249644Y-101089184D01*
X211371509Y-101067696D01*
X211486880Y-101022947D01*
X211591362Y-100956641D01*
X211596338Y-100951902D01*
X211607509Y-101012769D01*
X211653063Y-101127824D01*
X211720097Y-101231841D01*
X211806058Y-101320856D01*
X211907671Y-101391479D01*
X212021067Y-101441020D01*
X212141926Y-101467593D01*
X212265644Y-101470184D01*
X212387509Y-101448696D01*
X212502880Y-101403947D01*
X212607362Y-101337641D01*
X212696975Y-101252303D01*
X212768306Y-101151185D01*
X212818638Y-101038138D01*
X212846053Y-100917468D01*
X212848027Y-100776127D01*
X212823991Y-100654739D01*
X212776836Y-100540330D01*
X212708356Y-100437260D01*
X212621161Y-100349454D01*
X212518571Y-100280256D01*
X212404495Y-100232303D01*
X212283277Y-100207420D01*
X212159534Y-100206557D01*
X212037981Y-100229744D01*
X211923246Y-100276100D01*
X211821626Y-100342598D01*
X211807991Y-100273739D01*
X211760836Y-100159330D01*
X211692356Y-100056260D01*
X211605161Y-99968454D01*
X211502571Y-99899256D01*
X211388495Y-99851303D01*
X211267277Y-99826420D01*
X211143534Y-99825557D01*
X211021981Y-99848744D01*
X210907246Y-99895100D01*
X210803700Y-99962858D01*
X210715287Y-100049439D01*
X210645375Y-100151543D01*
X210596627Y-100265281D01*
X210570898Y-100386323D01*
X210569171Y-100510056D01*
X195948940Y-100510056D01*
X195950797Y-100377132D01*
X195926761Y-100255744D01*
X195879606Y-100141335D01*
X195811126Y-100038265D01*
X195723931Y-99950459D01*
X195621341Y-99881261D01*
X195507265Y-99833308D01*
X195386047Y-99808425D01*
X195262304Y-99807562D01*
X195140751Y-99830749D01*
X195026016Y-99877105D01*
X194922470Y-99944863D01*
X194834057Y-100031444D01*
X194764145Y-100133548D01*
X194715397Y-100247286D01*
X194694376Y-100346177D01*
X194638981Y-100356744D01*
X194524246Y-100403100D01*
X194420700Y-100470858D01*
X194332287Y-100557439D01*
X194262375Y-100659543D01*
X194213627Y-100773281D01*
X194187898Y-100894323D01*
X194186171Y-101018056D01*
X182831232Y-101018056D01*
X182851975Y-100998303D01*
X182923306Y-100897185D01*
X182973638Y-100784138D01*
X183001053Y-100663468D01*
X183003027Y-100522127D01*
X182978991Y-100400739D01*
X182931836Y-100286330D01*
X182863356Y-100183260D01*
X182776161Y-100095454D01*
X182673571Y-100026256D01*
X182559495Y-99978303D01*
X182438277Y-99953420D01*
X182314534Y-99952557D01*
X182192981Y-99975744D01*
X182078246Y-100022100D01*
X181974700Y-100089858D01*
X181886287Y-100176439D01*
X181816375Y-100278543D01*
X181767627Y-100392281D01*
X181741898Y-100513323D01*
X181740171Y-100637056D01*
X175474630Y-100637056D01*
X175474630Y-100394075D01*
X175459988Y-100320467D01*
X175431268Y-100251129D01*
X175389572Y-100188727D01*
X175336504Y-100135658D01*
X175274101Y-100093962D01*
X175204764Y-100065242D01*
X175131155Y-100050600D01*
X174466250Y-100050600D01*
X174371000Y-100145850D01*
X174117000Y-100145850D01*
X174021750Y-100050600D01*
X173356845Y-100050600D01*
X173283236Y-100065242D01*
X173213899Y-100093962D01*
X173151496Y-100135658D01*
X173098428Y-100188727D01*
X173056732Y-100251129D01*
X173028012Y-100320467D01*
X173013370Y-100394075D01*
X172456000Y-100394075D01*
X172456000Y-99022675D01*
X173007440Y-99022675D01*
X173024782Y-99213236D01*
X173078808Y-99396799D01*
X173167459Y-99566373D01*
X173287358Y-99715498D01*
X173433940Y-99838494D01*
X173601620Y-99930677D01*
X173784011Y-99988535D01*
X173974167Y-100009864D01*
X173987856Y-100009960D01*
X174500144Y-100009960D01*
X174690579Y-99991288D01*
X174873761Y-99935982D01*
X175042711Y-99846149D01*
X175190996Y-99725212D01*
X175312966Y-99577775D01*
X175375284Y-99462520D01*
X195447269Y-99462520D01*
X195469607Y-99584233D01*
X195515161Y-99699288D01*
X195582195Y-99803305D01*
X195668156Y-99892320D01*
X195769769Y-99962943D01*
X195883165Y-100012484D01*
X196004024Y-100039057D01*
X196127742Y-100041648D01*
X196249607Y-100020160D01*
X196364978Y-99975411D01*
X196469460Y-99909105D01*
X196559073Y-99823767D01*
X196630404Y-99722649D01*
X196680736Y-99609602D01*
X196708151Y-99488932D01*
X196710125Y-99347591D01*
X196686089Y-99226203D01*
X196638934Y-99111794D01*
X196570454Y-99008724D01*
X196547944Y-98986056D01*
X209172171Y-98986056D01*
X209194509Y-99107769D01*
X209240063Y-99222824D01*
X209307097Y-99326841D01*
X209393058Y-99415856D01*
X209494671Y-99486479D01*
X209608067Y-99536020D01*
X209728926Y-99562593D01*
X209852644Y-99565184D01*
X209974509Y-99543696D01*
X210089880Y-99498947D01*
X210194362Y-99432641D01*
X210283975Y-99347303D01*
X210355306Y-99246185D01*
X210405638Y-99133138D01*
X210410200Y-99113056D01*
X212347171Y-99113056D01*
X212369509Y-99234769D01*
X212415063Y-99349824D01*
X212482097Y-99453841D01*
X212568058Y-99542856D01*
X212669671Y-99613479D01*
X212783067Y-99663020D01*
X212903926Y-99689593D01*
X213027644Y-99692184D01*
X213149509Y-99670696D01*
X213264880Y-99625947D01*
X213369362Y-99559641D01*
X213458975Y-99474303D01*
X213530306Y-99373185D01*
X213580638Y-99260138D01*
X213608053Y-99139468D01*
X213610027Y-98998127D01*
X213607637Y-98986056D01*
X221364171Y-98986056D01*
X221386509Y-99107769D01*
X221432063Y-99222824D01*
X221499097Y-99326841D01*
X221585058Y-99415856D01*
X221686671Y-99486479D01*
X221800067Y-99536020D01*
X221920926Y-99562593D01*
X222044644Y-99565184D01*
X222166509Y-99543696D01*
X222281880Y-99498947D01*
X222386362Y-99432641D01*
X222455232Y-99367056D01*
X225555171Y-99367056D01*
X225577509Y-99488769D01*
X225623063Y-99603824D01*
X225690097Y-99707841D01*
X225776058Y-99796856D01*
X225877671Y-99867479D01*
X225991067Y-99917020D01*
X226111926Y-99943593D01*
X226235644Y-99946184D01*
X226357509Y-99924696D01*
X226472880Y-99879947D01*
X226577362Y-99813641D01*
X226666975Y-99728303D01*
X226738306Y-99627185D01*
X226788638Y-99514138D01*
X226816053Y-99393468D01*
X226818027Y-99252127D01*
X226793991Y-99130739D01*
X226746836Y-99016330D01*
X226678356Y-98913260D01*
X226591161Y-98825454D01*
X226488571Y-98756256D01*
X226374495Y-98708303D01*
X226253277Y-98683420D01*
X226129534Y-98682557D01*
X226007981Y-98705744D01*
X225893246Y-98752100D01*
X225789700Y-98819858D01*
X225701287Y-98906439D01*
X225631375Y-99008543D01*
X225582627Y-99122281D01*
X225556898Y-99243323D01*
X225555171Y-99367056D01*
X222455232Y-99367056D01*
X222475975Y-99347303D01*
X222547306Y-99246185D01*
X222597638Y-99133138D01*
X222625053Y-99012468D01*
X222627027Y-98871127D01*
X222602991Y-98749739D01*
X222555836Y-98635330D01*
X222487356Y-98532260D01*
X222415224Y-98459622D01*
X227982983Y-98459622D01*
X228123325Y-98678554D01*
X228412259Y-98819043D01*
X228723050Y-98900465D01*
X229043753Y-98919690D01*
X229362044Y-98875980D01*
X229665693Y-98771014D01*
X229838675Y-98678554D01*
X229979017Y-98459622D01*
X233062983Y-98459622D01*
X233203325Y-98678554D01*
X233492259Y-98819043D01*
X233803050Y-98900465D01*
X234123753Y-98919690D01*
X234442044Y-98875980D01*
X234745693Y-98771014D01*
X234918675Y-98678554D01*
X235059017Y-98459622D01*
X234061000Y-97461605D01*
X233062983Y-98459622D01*
X229979017Y-98459622D01*
X228981000Y-97461605D01*
X227982983Y-98459622D01*
X222415224Y-98459622D01*
X222400161Y-98444454D01*
X222297571Y-98375256D01*
X222183495Y-98327303D01*
X222062277Y-98302420D01*
X221938534Y-98301557D01*
X221816981Y-98324744D01*
X221702246Y-98371100D01*
X221598700Y-98438858D01*
X221510287Y-98525439D01*
X221440375Y-98627543D01*
X221391627Y-98741281D01*
X221365898Y-98862323D01*
X221364171Y-98986056D01*
X213607637Y-98986056D01*
X213585991Y-98876739D01*
X213538836Y-98762330D01*
X213470356Y-98659260D01*
X213383161Y-98571454D01*
X213280571Y-98502256D01*
X213166495Y-98454303D01*
X213045277Y-98429420D01*
X212921534Y-98428557D01*
X212799981Y-98451744D01*
X212685246Y-98498100D01*
X212581700Y-98565858D01*
X212493287Y-98652439D01*
X212423375Y-98754543D01*
X212374627Y-98868281D01*
X212348898Y-98989323D01*
X212347171Y-99113056D01*
X210410200Y-99113056D01*
X210433053Y-99012468D01*
X210435027Y-98871127D01*
X210410991Y-98749739D01*
X210363836Y-98635330D01*
X210295356Y-98532260D01*
X210208161Y-98444454D01*
X210105571Y-98375256D01*
X209991495Y-98327303D01*
X209870277Y-98302420D01*
X209746534Y-98301557D01*
X209624981Y-98324744D01*
X209510246Y-98371100D01*
X209406700Y-98438858D01*
X209318287Y-98525439D01*
X209248375Y-98627543D01*
X209199627Y-98741281D01*
X209173898Y-98862323D01*
X209172171Y-98986056D01*
X196547944Y-98986056D01*
X196483259Y-98920918D01*
X196380669Y-98851720D01*
X196266593Y-98803767D01*
X196145375Y-98778884D01*
X196021632Y-98778021D01*
X195900079Y-98801208D01*
X195785344Y-98847564D01*
X195681798Y-98915322D01*
X195593385Y-99001903D01*
X195523473Y-99104007D01*
X195474725Y-99217745D01*
X195448996Y-99338787D01*
X195447269Y-99462520D01*
X175375284Y-99462520D01*
X175403976Y-99409456D01*
X175460559Y-99226665D01*
X175480560Y-99036365D01*
X175463218Y-98845804D01*
X175409192Y-98662241D01*
X175320541Y-98492667D01*
X175200642Y-98343542D01*
X175058244Y-98224056D01*
X185423171Y-98224056D01*
X185445509Y-98345769D01*
X185491063Y-98460824D01*
X185558097Y-98564841D01*
X185644058Y-98653856D01*
X185745671Y-98724479D01*
X185859067Y-98774020D01*
X185979926Y-98800593D01*
X186103644Y-98803184D01*
X186225509Y-98781696D01*
X186340880Y-98736947D01*
X186445362Y-98670641D01*
X186534975Y-98585303D01*
X186606306Y-98484185D01*
X186656638Y-98371138D01*
X186684053Y-98250468D01*
X186686027Y-98109127D01*
X186661991Y-97987739D01*
X186614836Y-97873330D01*
X186546356Y-97770260D01*
X186459161Y-97682454D01*
X186356571Y-97613256D01*
X186242495Y-97565303D01*
X186121277Y-97540420D01*
X185997534Y-97539557D01*
X185875981Y-97562744D01*
X185761246Y-97609100D01*
X185657700Y-97676858D01*
X185569287Y-97763439D01*
X185499375Y-97865543D01*
X185450627Y-97979281D01*
X185424898Y-98100323D01*
X185423171Y-98224056D01*
X175058244Y-98224056D01*
X175054060Y-98220546D01*
X174886380Y-98128363D01*
X174703989Y-98070505D01*
X174513833Y-98049176D01*
X174500144Y-98049080D01*
X173987856Y-98049080D01*
X173797421Y-98067752D01*
X173614239Y-98123058D01*
X173445289Y-98212891D01*
X173297004Y-98333828D01*
X173175034Y-98481265D01*
X173084024Y-98649584D01*
X173027441Y-98832375D01*
X173007440Y-99022675D01*
X172456000Y-99022675D01*
X172456000Y-97021155D01*
X173007440Y-97021155D01*
X173024782Y-97211716D01*
X173078808Y-97395279D01*
X173167459Y-97564853D01*
X173287358Y-97713978D01*
X173433940Y-97836974D01*
X173601620Y-97929157D01*
X173784011Y-97987015D01*
X173974167Y-98008344D01*
X173987856Y-98008440D01*
X174500144Y-98008440D01*
X174690579Y-97989768D01*
X174873761Y-97934462D01*
X175042711Y-97844629D01*
X175190996Y-97723692D01*
X175312966Y-97576255D01*
X175403976Y-97407936D01*
X175460559Y-97225145D01*
X175480560Y-97034845D01*
X175463218Y-96844284D01*
X175458148Y-96827056D01*
X209045171Y-96827056D01*
X209067509Y-96948769D01*
X209113063Y-97063824D01*
X209180097Y-97167841D01*
X209266058Y-97256856D01*
X209367671Y-97327479D01*
X209481067Y-97377020D01*
X209601926Y-97403593D01*
X209725644Y-97406184D01*
X209847509Y-97384696D01*
X209950489Y-97344753D01*
X227343310Y-97344753D01*
X227387020Y-97663044D01*
X227491986Y-97966693D01*
X227584446Y-98139675D01*
X227803378Y-98280017D01*
X228801395Y-97282000D01*
X229160605Y-97282000D01*
X230158622Y-98280017D01*
X230377554Y-98139675D01*
X230518043Y-97850741D01*
X230599465Y-97539950D01*
X230611166Y-97344753D01*
X232423310Y-97344753D01*
X232467020Y-97663044D01*
X232571986Y-97966693D01*
X232664446Y-98139675D01*
X232883378Y-98280017D01*
X233881395Y-97282000D01*
X232883378Y-96283983D01*
X232664446Y-96424325D01*
X232523957Y-96713259D01*
X232442535Y-97024050D01*
X232423310Y-97344753D01*
X230611166Y-97344753D01*
X230618690Y-97219247D01*
X230574980Y-96900956D01*
X230470014Y-96597307D01*
X230377554Y-96424325D01*
X230158622Y-96283983D01*
X229160605Y-97282000D01*
X228801395Y-97282000D01*
X227803378Y-96283983D01*
X227584446Y-96424325D01*
X227443957Y-96713259D01*
X227362535Y-97024050D01*
X227343310Y-97344753D01*
X209950489Y-97344753D01*
X209962880Y-97339947D01*
X210067362Y-97273641D01*
X210156975Y-97188303D01*
X210228306Y-97087185D01*
X210278638Y-96974138D01*
X210306053Y-96853468D01*
X210308027Y-96712127D01*
X210283991Y-96590739D01*
X210236836Y-96476330D01*
X210168356Y-96373260D01*
X210081161Y-96285454D01*
X209978571Y-96216256D01*
X209864495Y-96168303D01*
X209743277Y-96143420D01*
X209619534Y-96142557D01*
X209497981Y-96165744D01*
X209383246Y-96212100D01*
X209279700Y-96279858D01*
X209191287Y-96366439D01*
X209121375Y-96468543D01*
X209072627Y-96582281D01*
X209046898Y-96703323D01*
X209045171Y-96827056D01*
X175458148Y-96827056D01*
X175409192Y-96660721D01*
X175320541Y-96491147D01*
X175200642Y-96342022D01*
X175054060Y-96219026D01*
X174886380Y-96126843D01*
X174815562Y-96104378D01*
X227982983Y-96104378D01*
X228981000Y-97102395D01*
X229979017Y-96104378D01*
X229838675Y-95885446D01*
X229549741Y-95744957D01*
X229238950Y-95663535D01*
X228918247Y-95644310D01*
X228599956Y-95688020D01*
X228296307Y-95792986D01*
X228123325Y-95885446D01*
X227982983Y-96104378D01*
X174815562Y-96104378D01*
X174703989Y-96068985D01*
X174513833Y-96047656D01*
X174500144Y-96047560D01*
X173987856Y-96047560D01*
X173797421Y-96066232D01*
X173614239Y-96121538D01*
X173445289Y-96211371D01*
X173297004Y-96332308D01*
X173175034Y-96479745D01*
X173084024Y-96648064D01*
X173027441Y-96830855D01*
X173007440Y-97021155D01*
X172456000Y-97021155D01*
X172456000Y-94668056D01*
X178692171Y-94668056D01*
X178714509Y-94789769D01*
X178760063Y-94904824D01*
X178827097Y-95008841D01*
X178913058Y-95097856D01*
X179014671Y-95168479D01*
X179128067Y-95218020D01*
X179248926Y-95244593D01*
X179372644Y-95247184D01*
X179494509Y-95225696D01*
X179609880Y-95180947D01*
X179714362Y-95114641D01*
X179783232Y-95049056D01*
X199266171Y-95049056D01*
X199288509Y-95170769D01*
X199334063Y-95285824D01*
X199401097Y-95389841D01*
X199487058Y-95478856D01*
X199588671Y-95549479D01*
X199702067Y-95599020D01*
X199822926Y-95625593D01*
X199946644Y-95628184D01*
X200068509Y-95606696D01*
X200183880Y-95561947D01*
X200288362Y-95495641D01*
X200377975Y-95410303D01*
X200449306Y-95309185D01*
X200499638Y-95196138D01*
X200527053Y-95075468D01*
X200529027Y-94934127D01*
X200504991Y-94812739D01*
X200497703Y-94795056D01*
X200663171Y-94795056D01*
X200685509Y-94916769D01*
X200731063Y-95031824D01*
X200798097Y-95135841D01*
X200884058Y-95224856D01*
X200985671Y-95295479D01*
X201099067Y-95345020D01*
X201219926Y-95371593D01*
X201343644Y-95374184D01*
X201465509Y-95352696D01*
X201580880Y-95307947D01*
X201685362Y-95241641D01*
X201774975Y-95156303D01*
X201846306Y-95055185D01*
X201896638Y-94942138D01*
X201924053Y-94821468D01*
X201924861Y-94763577D01*
X204100608Y-94763577D01*
X204130012Y-94923787D01*
X204189974Y-95075233D01*
X204278210Y-95212149D01*
X204391360Y-95329319D01*
X204525113Y-95422280D01*
X204674375Y-95487491D01*
X204833460Y-95522468D01*
X204996310Y-95525879D01*
X205156720Y-95497595D01*
X205308582Y-95438691D01*
X205446110Y-95351413D01*
X205564067Y-95239084D01*
X205657960Y-95105983D01*
X205724211Y-94957180D01*
X205760298Y-94798343D01*
X205760783Y-94763577D01*
X208499888Y-94763577D01*
X208529292Y-94923787D01*
X208589254Y-95075233D01*
X208677490Y-95212149D01*
X208790640Y-95329319D01*
X208924393Y-95422280D01*
X209073655Y-95487491D01*
X209232740Y-95522468D01*
X209395590Y-95525879D01*
X209556000Y-95497595D01*
X209707862Y-95438691D01*
X209845390Y-95351413D01*
X209963347Y-95239084D01*
X210057240Y-95105983D01*
X210123491Y-94957180D01*
X210141221Y-94879139D01*
X229887856Y-94879139D01*
X229945596Y-95193740D01*
X230063343Y-95491134D01*
X230236611Y-95759994D01*
X230458801Y-95990079D01*
X230721451Y-96172625D01*
X231014555Y-96300679D01*
X231326949Y-96369363D01*
X231646734Y-96376062D01*
X231961731Y-96320519D01*
X232259940Y-96204852D01*
X232418261Y-96104378D01*
X233062983Y-96104378D01*
X234061000Y-97102395D01*
X235059017Y-96104378D01*
X234918675Y-95885446D01*
X234629741Y-95744957D01*
X234318950Y-95663535D01*
X233998247Y-95644310D01*
X233679956Y-95688020D01*
X233376307Y-95792986D01*
X233203325Y-95885446D01*
X233062983Y-96104378D01*
X232418261Y-96104378D01*
X232530003Y-96033465D01*
X232761633Y-95812886D01*
X232946008Y-95551517D01*
X233076105Y-95259315D01*
X233146969Y-94947408D01*
X233152070Y-94582072D01*
X233089943Y-94268308D01*
X232968056Y-93972587D01*
X232791050Y-93706172D01*
X232565669Y-93479212D01*
X232418021Y-93379622D01*
X233062983Y-93379622D01*
X233203325Y-93598554D01*
X233492259Y-93739043D01*
X233803050Y-93820465D01*
X234123753Y-93839690D01*
X234442044Y-93795980D01*
X234745693Y-93691014D01*
X234918675Y-93598554D01*
X235059017Y-93379622D01*
X234061000Y-92381605D01*
X233062983Y-93379622D01*
X232418021Y-93379622D01*
X232300497Y-93300351D01*
X232005634Y-93176402D01*
X231692311Y-93112086D01*
X231372463Y-93109853D01*
X231058273Y-93169788D01*
X230761708Y-93289608D01*
X230494064Y-93464749D01*
X230265536Y-93688541D01*
X230084828Y-93952458D01*
X229958823Y-94246448D01*
X229892322Y-94559314D01*
X229887856Y-94879139D01*
X210141221Y-94879139D01*
X210159578Y-94798343D01*
X210162176Y-94612297D01*
X210130538Y-94452514D01*
X210068467Y-94301920D01*
X209978328Y-94166249D01*
X209863553Y-94050670D01*
X209728515Y-93959586D01*
X209578358Y-93896466D01*
X209418799Y-93863713D01*
X209255918Y-93862576D01*
X209095918Y-93893098D01*
X208944894Y-93954115D01*
X208808597Y-94043305D01*
X208692220Y-94157270D01*
X208600195Y-94291669D01*
X208536028Y-94441382D01*
X208502162Y-94600708D01*
X208499888Y-94763577D01*
X205760783Y-94763577D01*
X205762896Y-94612297D01*
X205731258Y-94452514D01*
X205669187Y-94301920D01*
X205579048Y-94166249D01*
X205464273Y-94050670D01*
X205329235Y-93959586D01*
X205179078Y-93896466D01*
X205019519Y-93863713D01*
X204856638Y-93862576D01*
X204696638Y-93893098D01*
X204545614Y-93954115D01*
X204409317Y-94043305D01*
X204292940Y-94157270D01*
X204200915Y-94291669D01*
X204136748Y-94441382D01*
X204102882Y-94600708D01*
X204100608Y-94763577D01*
X201924861Y-94763577D01*
X201926027Y-94680127D01*
X201901991Y-94558739D01*
X201854836Y-94444330D01*
X201786356Y-94341260D01*
X201699161Y-94253454D01*
X201596571Y-94184256D01*
X201482495Y-94136303D01*
X201361277Y-94111420D01*
X201237534Y-94110557D01*
X201115981Y-94133744D01*
X201001246Y-94180100D01*
X200897700Y-94247858D01*
X200809287Y-94334439D01*
X200739375Y-94436543D01*
X200690627Y-94550281D01*
X200664898Y-94671323D01*
X200663171Y-94795056D01*
X200497703Y-94795056D01*
X200457836Y-94698330D01*
X200389356Y-94595260D01*
X200302161Y-94507454D01*
X200199571Y-94438256D01*
X200085495Y-94390303D01*
X199964277Y-94365420D01*
X199840534Y-94364557D01*
X199718981Y-94387744D01*
X199604246Y-94434100D01*
X199500700Y-94501858D01*
X199412287Y-94588439D01*
X199342375Y-94690543D01*
X199293627Y-94804281D01*
X199267898Y-94925323D01*
X199266171Y-95049056D01*
X179783232Y-95049056D01*
X179803975Y-95029303D01*
X179875306Y-94928185D01*
X179925638Y-94815138D01*
X179953053Y-94694468D01*
X179955027Y-94553127D01*
X179930991Y-94431739D01*
X179883836Y-94317330D01*
X179815356Y-94214260D01*
X179728161Y-94126454D01*
X179625571Y-94057256D01*
X179511495Y-94009303D01*
X179390277Y-93984420D01*
X179266534Y-93983557D01*
X179144981Y-94006744D01*
X179030246Y-94053100D01*
X178926700Y-94120858D01*
X178838287Y-94207439D01*
X178768375Y-94309543D01*
X178719627Y-94423281D01*
X178693898Y-94544323D01*
X178692171Y-94668056D01*
X172456000Y-94668056D01*
X172456000Y-93379622D01*
X227982983Y-93379622D01*
X228123325Y-93598554D01*
X228412259Y-93739043D01*
X228723050Y-93820465D01*
X229043753Y-93839690D01*
X229362044Y-93795980D01*
X229665693Y-93691014D01*
X229838675Y-93598554D01*
X229979017Y-93379622D01*
X228981000Y-92381605D01*
X227982983Y-93379622D01*
X172456000Y-93379622D01*
X172456000Y-91916250D01*
X173611540Y-91916250D01*
X173611540Y-92581155D01*
X173626182Y-92654764D01*
X173654902Y-92724101D01*
X173696598Y-92786504D01*
X173749667Y-92839572D01*
X173812069Y-92881268D01*
X173881407Y-92909988D01*
X173955015Y-92924630D01*
X174369730Y-92924630D01*
X174464980Y-92829380D01*
X174464980Y-91821000D01*
X174718980Y-91821000D01*
X174718980Y-92829380D01*
X174814230Y-92924630D01*
X175228945Y-92924630D01*
X175302553Y-92909988D01*
X175371891Y-92881268D01*
X175434293Y-92839572D01*
X175487362Y-92786504D01*
X175529058Y-92724101D01*
X175557778Y-92654764D01*
X175572420Y-92581155D01*
X175572420Y-91916250D01*
X175477170Y-91821000D01*
X174718980Y-91821000D01*
X174464980Y-91821000D01*
X173706790Y-91821000D01*
X173611540Y-91916250D01*
X172456000Y-91916250D01*
X172456000Y-90806845D01*
X173611540Y-90806845D01*
X173611540Y-91471750D01*
X173706790Y-91567000D01*
X174464980Y-91567000D01*
X174464980Y-90558620D01*
X174718980Y-90558620D01*
X174718980Y-91567000D01*
X175477170Y-91567000D01*
X175572420Y-91471750D01*
X175572420Y-91437856D01*
X175613060Y-91437856D01*
X175613060Y-91950144D01*
X175631732Y-92140579D01*
X175687038Y-92323761D01*
X175776871Y-92492711D01*
X175897808Y-92640996D01*
X176045245Y-92762966D01*
X176213564Y-92853976D01*
X176396355Y-92910559D01*
X176586655Y-92930560D01*
X176777216Y-92913218D01*
X176960779Y-92859192D01*
X177130353Y-92770541D01*
X177279478Y-92650642D01*
X177402474Y-92504060D01*
X177494657Y-92336380D01*
X177552515Y-92153989D01*
X177573844Y-91963833D01*
X177573940Y-91950144D01*
X177573940Y-91437856D01*
X177614580Y-91437856D01*
X177614580Y-91950144D01*
X177633252Y-92140579D01*
X177688558Y-92323761D01*
X177778391Y-92492711D01*
X177899328Y-92640996D01*
X178046765Y-92762966D01*
X178215084Y-92853976D01*
X178397875Y-92910559D01*
X178588175Y-92930560D01*
X178778736Y-92913218D01*
X178962299Y-92859192D01*
X179131873Y-92770541D01*
X179280998Y-92650642D01*
X179403994Y-92504060D01*
X179496177Y-92336380D01*
X179554035Y-92153989D01*
X179575364Y-91963833D01*
X179575460Y-91950144D01*
X179575460Y-91437856D01*
X179613560Y-91437856D01*
X179613560Y-91950144D01*
X179632232Y-92140579D01*
X179687538Y-92323761D01*
X179777371Y-92492711D01*
X179898308Y-92640996D01*
X180045745Y-92762966D01*
X180214064Y-92853976D01*
X180396855Y-92910559D01*
X180587155Y-92930560D01*
X180777716Y-92913218D01*
X180961279Y-92859192D01*
X181130853Y-92770541D01*
X181279978Y-92650642D01*
X181402974Y-92504060D01*
X181495157Y-92336380D01*
X181553015Y-92153989D01*
X181574344Y-91963833D01*
X181574440Y-91950144D01*
X181574440Y-91916250D01*
X184150000Y-91916250D01*
X184150000Y-92581155D01*
X184164642Y-92654764D01*
X184193362Y-92724101D01*
X184235058Y-92786504D01*
X184288127Y-92839572D01*
X184350529Y-92881268D01*
X184419867Y-92909988D01*
X184493475Y-92924630D01*
X184908190Y-92924630D01*
X185003440Y-92829380D01*
X185003440Y-91821000D01*
X185257440Y-91821000D01*
X185257440Y-92829380D01*
X185352690Y-92924630D01*
X185767405Y-92924630D01*
X185841013Y-92909988D01*
X185910351Y-92881268D01*
X185972753Y-92839572D01*
X186025822Y-92786504D01*
X186067518Y-92724101D01*
X186096238Y-92654764D01*
X186110880Y-92581155D01*
X186110880Y-91916250D01*
X186015630Y-91821000D01*
X185257440Y-91821000D01*
X185003440Y-91821000D01*
X184245250Y-91821000D01*
X184150000Y-91916250D01*
X181574440Y-91916250D01*
X181574440Y-91437856D01*
X181555768Y-91247421D01*
X181500462Y-91064239D01*
X181410629Y-90895289D01*
X181338497Y-90806845D01*
X184150000Y-90806845D01*
X184150000Y-91471750D01*
X184245250Y-91567000D01*
X185003440Y-91567000D01*
X185003440Y-90558620D01*
X185257440Y-90558620D01*
X185257440Y-91567000D01*
X186015630Y-91567000D01*
X186110880Y-91471750D01*
X186110880Y-91437856D01*
X186151520Y-91437856D01*
X186151520Y-91950144D01*
X186170192Y-92140579D01*
X186225498Y-92323761D01*
X186315331Y-92492711D01*
X186436268Y-92640996D01*
X186583705Y-92762966D01*
X186752024Y-92853976D01*
X186934815Y-92910559D01*
X187125115Y-92930560D01*
X187315676Y-92913218D01*
X187499239Y-92859192D01*
X187668813Y-92770541D01*
X187817938Y-92650642D01*
X187940934Y-92504060D01*
X188033117Y-92336380D01*
X188090975Y-92153989D01*
X188112304Y-91963833D01*
X188112400Y-91950144D01*
X188112400Y-91437856D01*
X188153040Y-91437856D01*
X188153040Y-91950144D01*
X188171712Y-92140579D01*
X188227018Y-92323761D01*
X188316851Y-92492711D01*
X188437788Y-92640996D01*
X188585225Y-92762966D01*
X188753544Y-92853976D01*
X188936335Y-92910559D01*
X189126635Y-92930560D01*
X189317196Y-92913218D01*
X189500759Y-92859192D01*
X189670333Y-92770541D01*
X189819458Y-92650642D01*
X189942454Y-92504060D01*
X190034637Y-92336380D01*
X190092495Y-92153989D01*
X190113824Y-91963833D01*
X190113920Y-91950144D01*
X190113920Y-91437856D01*
X190152020Y-91437856D01*
X190152020Y-91950144D01*
X190170692Y-92140579D01*
X190225998Y-92323761D01*
X190315831Y-92492711D01*
X190436768Y-92640996D01*
X190584205Y-92762966D01*
X190752524Y-92853976D01*
X190935315Y-92910559D01*
X191125615Y-92930560D01*
X191316176Y-92913218D01*
X191499739Y-92859192D01*
X191669313Y-92770541D01*
X191818438Y-92650642D01*
X191941434Y-92504060D01*
X192033617Y-92336380D01*
X192091475Y-92153989D01*
X192112804Y-91963833D01*
X192112900Y-91950144D01*
X192112900Y-91437856D01*
X192156080Y-91437856D01*
X192156080Y-91950144D01*
X192174752Y-92140579D01*
X192230058Y-92323761D01*
X192319891Y-92492711D01*
X192440828Y-92640996D01*
X192588265Y-92762966D01*
X192756584Y-92853976D01*
X192939375Y-92910559D01*
X193129675Y-92930560D01*
X193320236Y-92913218D01*
X193503799Y-92859192D01*
X193673373Y-92770541D01*
X193822498Y-92650642D01*
X193945494Y-92504060D01*
X194037677Y-92336380D01*
X194095535Y-92153989D01*
X194116864Y-91963833D01*
X194116960Y-91950144D01*
X194116960Y-91437856D01*
X194157600Y-91437856D01*
X194157600Y-91950144D01*
X194176272Y-92140579D01*
X194231578Y-92323761D01*
X194321411Y-92492711D01*
X194442348Y-92640996D01*
X194589785Y-92762966D01*
X194758104Y-92853976D01*
X194940895Y-92910559D01*
X195131195Y-92930560D01*
X195321756Y-92913218D01*
X195505319Y-92859192D01*
X195674893Y-92770541D01*
X195824018Y-92650642D01*
X195947014Y-92504060D01*
X196039197Y-92336380D01*
X196097055Y-92153989D01*
X196118384Y-91963833D01*
X196118480Y-91950144D01*
X196118480Y-91437856D01*
X196156580Y-91437856D01*
X196156580Y-91950144D01*
X196175252Y-92140579D01*
X196230558Y-92323761D01*
X196320391Y-92492711D01*
X196441328Y-92640996D01*
X196588765Y-92762966D01*
X196757084Y-92853976D01*
X196939875Y-92910559D01*
X197130175Y-92930560D01*
X197320736Y-92913218D01*
X197504299Y-92859192D01*
X197673873Y-92770541D01*
X197822998Y-92650642D01*
X197945994Y-92504060D01*
X198038177Y-92336380D01*
X198096035Y-92153989D01*
X198117364Y-91963833D01*
X198117460Y-91950144D01*
X198117460Y-91437856D01*
X198155560Y-91437856D01*
X198155560Y-91950144D01*
X198174232Y-92140579D01*
X198229538Y-92323761D01*
X198319371Y-92492711D01*
X198440308Y-92640996D01*
X198587745Y-92762966D01*
X198756064Y-92853976D01*
X198938855Y-92910559D01*
X199129155Y-92930560D01*
X199319716Y-92913218D01*
X199503279Y-92859192D01*
X199672853Y-92770541D01*
X199821978Y-92650642D01*
X199944974Y-92504060D01*
X200037157Y-92336380D01*
X200095015Y-92153989D01*
X200116344Y-91963833D01*
X200116440Y-91950144D01*
X200116440Y-91437856D01*
X200097768Y-91247421D01*
X200042462Y-91064239D01*
X199952629Y-90895289D01*
X199911101Y-90844370D01*
X214216677Y-90844370D01*
X214216677Y-92543630D01*
X214221515Y-92604303D01*
X214253384Y-92707210D01*
X214312660Y-92797165D01*
X214394650Y-92867045D01*
X214492862Y-92911316D01*
X214599520Y-92926473D01*
X215798400Y-92926473D01*
X215859073Y-92921635D01*
X215961980Y-92889766D01*
X216051935Y-92830490D01*
X216121815Y-92748500D01*
X216166086Y-92650288D01*
X216181243Y-92543630D01*
X216181243Y-91437856D01*
X216220040Y-91437856D01*
X216220040Y-91950144D01*
X216238712Y-92140579D01*
X216294018Y-92323761D01*
X216383851Y-92492711D01*
X216504788Y-92640996D01*
X216652225Y-92762966D01*
X216820544Y-92853976D01*
X217003335Y-92910559D01*
X217193635Y-92930560D01*
X217384196Y-92913218D01*
X217567759Y-92859192D01*
X217737333Y-92770541D01*
X217886458Y-92650642D01*
X218009454Y-92504060D01*
X218101637Y-92336380D01*
X218159495Y-92153989D01*
X218180824Y-91963833D01*
X218180920Y-91950144D01*
X218180920Y-91437856D01*
X218221560Y-91437856D01*
X218221560Y-91950144D01*
X218240232Y-92140579D01*
X218295538Y-92323761D01*
X218385371Y-92492711D01*
X218506308Y-92640996D01*
X218653745Y-92762966D01*
X218822064Y-92853976D01*
X219004855Y-92910559D01*
X219195155Y-92930560D01*
X219385716Y-92913218D01*
X219569279Y-92859192D01*
X219738853Y-92770541D01*
X219887978Y-92650642D01*
X220010974Y-92504060D01*
X220103157Y-92336380D01*
X220161015Y-92153989D01*
X220180852Y-91977133D01*
X220205498Y-91977133D01*
X220231053Y-92170709D01*
X220293882Y-92355580D01*
X220391570Y-92524641D01*
X220520363Y-92671396D01*
X220675312Y-92790205D01*
X220850462Y-92876502D01*
X220923461Y-92884534D01*
X221073980Y-92820222D01*
X221073980Y-91821000D01*
X221327980Y-91821000D01*
X221327980Y-92820222D01*
X221478499Y-92884534D01*
X221551498Y-92876502D01*
X221726648Y-92790205D01*
X221881597Y-92671396D01*
X222010390Y-92524641D01*
X222108078Y-92355580D01*
X222170907Y-92170709D01*
X222196462Y-91977133D01*
X222094109Y-91821000D01*
X221327980Y-91821000D01*
X221073980Y-91821000D01*
X220307851Y-91821000D01*
X220205498Y-91977133D01*
X220180852Y-91977133D01*
X220182344Y-91963833D01*
X220182440Y-91950144D01*
X220182440Y-91437856D01*
X220179794Y-91410867D01*
X220205498Y-91410867D01*
X220307851Y-91567000D01*
X221073980Y-91567000D01*
X221073980Y-90567778D01*
X221327980Y-90567778D01*
X221327980Y-91567000D01*
X222094109Y-91567000D01*
X222178769Y-91437856D01*
X222222060Y-91437856D01*
X222222060Y-91950144D01*
X222240732Y-92140579D01*
X222296038Y-92323761D01*
X222385871Y-92492711D01*
X222506808Y-92640996D01*
X222654245Y-92762966D01*
X222822564Y-92853976D01*
X223005355Y-92910559D01*
X223195655Y-92930560D01*
X223386216Y-92913218D01*
X223569779Y-92859192D01*
X223739353Y-92770541D01*
X223888478Y-92650642D01*
X224011474Y-92504060D01*
X224103657Y-92336380D01*
X224161515Y-92153989D01*
X224182844Y-91963833D01*
X224182940Y-91950144D01*
X224182940Y-91437856D01*
X224223580Y-91437856D01*
X224223580Y-91950144D01*
X224242252Y-92140579D01*
X224297558Y-92323761D01*
X224387391Y-92492711D01*
X224508328Y-92640996D01*
X224655765Y-92762966D01*
X224824084Y-92853976D01*
X225006875Y-92910559D01*
X225197175Y-92930560D01*
X225387736Y-92913218D01*
X225571299Y-92859192D01*
X225740873Y-92770541D01*
X225889998Y-92650642D01*
X226012994Y-92504060D01*
X226105177Y-92336380D01*
X226127898Y-92264753D01*
X227343310Y-92264753D01*
X227387020Y-92583044D01*
X227491986Y-92886693D01*
X227584446Y-93059675D01*
X227803378Y-93200017D01*
X228801395Y-92202000D01*
X229160605Y-92202000D01*
X230158622Y-93200017D01*
X230377554Y-93059675D01*
X230518043Y-92770741D01*
X230599465Y-92459950D01*
X230611166Y-92264753D01*
X232423310Y-92264753D01*
X232467020Y-92583044D01*
X232571986Y-92886693D01*
X232664446Y-93059675D01*
X232883378Y-93200017D01*
X233881395Y-92202000D01*
X232883378Y-91203983D01*
X232664446Y-91344325D01*
X232523957Y-91633259D01*
X232442535Y-91944050D01*
X232423310Y-92264753D01*
X230611166Y-92264753D01*
X230618690Y-92139247D01*
X230574980Y-91820956D01*
X230470014Y-91517307D01*
X230377554Y-91344325D01*
X230158622Y-91203983D01*
X229160605Y-92202000D01*
X228801395Y-92202000D01*
X227803378Y-91203983D01*
X227584446Y-91344325D01*
X227443957Y-91633259D01*
X227362535Y-91944050D01*
X227343310Y-92264753D01*
X226127898Y-92264753D01*
X226163035Y-92153989D01*
X226184364Y-91963833D01*
X226184460Y-91950144D01*
X226184460Y-91437856D01*
X226165788Y-91247421D01*
X226110482Y-91064239D01*
X226089288Y-91024378D01*
X227982983Y-91024378D01*
X228981000Y-92022395D01*
X229979017Y-91024378D01*
X233062983Y-91024378D01*
X234061000Y-92022395D01*
X235059017Y-91024378D01*
X234918675Y-90805446D01*
X234629741Y-90664957D01*
X234318950Y-90583535D01*
X233998247Y-90564310D01*
X233679956Y-90608020D01*
X233376307Y-90712986D01*
X233203325Y-90805446D01*
X233062983Y-91024378D01*
X229979017Y-91024378D01*
X229838675Y-90805446D01*
X229549741Y-90664957D01*
X229238950Y-90583535D01*
X228918247Y-90564310D01*
X228599956Y-90608020D01*
X228296307Y-90712986D01*
X228123325Y-90805446D01*
X227982983Y-91024378D01*
X226089288Y-91024378D01*
X226020649Y-90895289D01*
X225899712Y-90747004D01*
X225752275Y-90625034D01*
X225583956Y-90534024D01*
X225401165Y-90477441D01*
X225210865Y-90457440D01*
X225020304Y-90474782D01*
X224836741Y-90528808D01*
X224667167Y-90617459D01*
X224518042Y-90737358D01*
X224395046Y-90883940D01*
X224302863Y-91051620D01*
X224245005Y-91234011D01*
X224223676Y-91424167D01*
X224223580Y-91437856D01*
X224182940Y-91437856D01*
X224164268Y-91247421D01*
X224108962Y-91064239D01*
X224019129Y-90895289D01*
X223898192Y-90747004D01*
X223750755Y-90625034D01*
X223582436Y-90534024D01*
X223399645Y-90477441D01*
X223209345Y-90457440D01*
X223018784Y-90474782D01*
X222835221Y-90528808D01*
X222665647Y-90617459D01*
X222516522Y-90737358D01*
X222393526Y-90883940D01*
X222301343Y-91051620D01*
X222243485Y-91234011D01*
X222222156Y-91424167D01*
X222222060Y-91437856D01*
X222178769Y-91437856D01*
X222196462Y-91410867D01*
X222170907Y-91217291D01*
X222108078Y-91032420D01*
X222010390Y-90863359D01*
X221881597Y-90716604D01*
X221726648Y-90597795D01*
X221551498Y-90511498D01*
X221478499Y-90503466D01*
X221327980Y-90567778D01*
X221073980Y-90567778D01*
X220923461Y-90503466D01*
X220850462Y-90511498D01*
X220675312Y-90597795D01*
X220520363Y-90716604D01*
X220391570Y-90863359D01*
X220293882Y-91032420D01*
X220231053Y-91217291D01*
X220205498Y-91410867D01*
X220179794Y-91410867D01*
X220163768Y-91247421D01*
X220108462Y-91064239D01*
X220018629Y-90895289D01*
X219897692Y-90747004D01*
X219750255Y-90625034D01*
X219581936Y-90534024D01*
X219399145Y-90477441D01*
X219208845Y-90457440D01*
X219018284Y-90474782D01*
X218834721Y-90528808D01*
X218665147Y-90617459D01*
X218516022Y-90737358D01*
X218393026Y-90883940D01*
X218300843Y-91051620D01*
X218242985Y-91234011D01*
X218221656Y-91424167D01*
X218221560Y-91437856D01*
X218180920Y-91437856D01*
X218162248Y-91247421D01*
X218106942Y-91064239D01*
X218017109Y-90895289D01*
X217896172Y-90747004D01*
X217748735Y-90625034D01*
X217580416Y-90534024D01*
X217397625Y-90477441D01*
X217207325Y-90457440D01*
X217016764Y-90474782D01*
X216833201Y-90528808D01*
X216663627Y-90617459D01*
X216514502Y-90737358D01*
X216391506Y-90883940D01*
X216299323Y-91051620D01*
X216241465Y-91234011D01*
X216220136Y-91424167D01*
X216220040Y-91437856D01*
X216181243Y-91437856D01*
X216181243Y-90844370D01*
X216176405Y-90783697D01*
X216144536Y-90680790D01*
X216085260Y-90590835D01*
X216003270Y-90520955D01*
X215905058Y-90476684D01*
X215798400Y-90461527D01*
X214599520Y-90461527D01*
X214538847Y-90466365D01*
X214435940Y-90498234D01*
X214345985Y-90557510D01*
X214276105Y-90639500D01*
X214231834Y-90737712D01*
X214216677Y-90844370D01*
X199911101Y-90844370D01*
X199831692Y-90747004D01*
X199684255Y-90625034D01*
X199515936Y-90534024D01*
X199333145Y-90477441D01*
X199142845Y-90457440D01*
X198952284Y-90474782D01*
X198768721Y-90528808D01*
X198599147Y-90617459D01*
X198450022Y-90737358D01*
X198327026Y-90883940D01*
X198234843Y-91051620D01*
X198176985Y-91234011D01*
X198155656Y-91424167D01*
X198155560Y-91437856D01*
X198117460Y-91437856D01*
X198098788Y-91247421D01*
X198043482Y-91064239D01*
X197953649Y-90895289D01*
X197832712Y-90747004D01*
X197685275Y-90625034D01*
X197516956Y-90534024D01*
X197334165Y-90477441D01*
X197143865Y-90457440D01*
X196953304Y-90474782D01*
X196769741Y-90528808D01*
X196600167Y-90617459D01*
X196451042Y-90737358D01*
X196328046Y-90883940D01*
X196235863Y-91051620D01*
X196178005Y-91234011D01*
X196156676Y-91424167D01*
X196156580Y-91437856D01*
X196118480Y-91437856D01*
X196099808Y-91247421D01*
X196044502Y-91064239D01*
X195954669Y-90895289D01*
X195833732Y-90747004D01*
X195686295Y-90625034D01*
X195517976Y-90534024D01*
X195335185Y-90477441D01*
X195144885Y-90457440D01*
X194954324Y-90474782D01*
X194770761Y-90528808D01*
X194601187Y-90617459D01*
X194452062Y-90737358D01*
X194329066Y-90883940D01*
X194236883Y-91051620D01*
X194179025Y-91234011D01*
X194157696Y-91424167D01*
X194157600Y-91437856D01*
X194116960Y-91437856D01*
X194098288Y-91247421D01*
X194042982Y-91064239D01*
X193953149Y-90895289D01*
X193832212Y-90747004D01*
X193684775Y-90625034D01*
X193516456Y-90534024D01*
X193333665Y-90477441D01*
X193143365Y-90457440D01*
X192952804Y-90474782D01*
X192769241Y-90528808D01*
X192599667Y-90617459D01*
X192450542Y-90737358D01*
X192327546Y-90883940D01*
X192235363Y-91051620D01*
X192177505Y-91234011D01*
X192156176Y-91424167D01*
X192156080Y-91437856D01*
X192112900Y-91437856D01*
X192094228Y-91247421D01*
X192038922Y-91064239D01*
X191949089Y-90895289D01*
X191828152Y-90747004D01*
X191680715Y-90625034D01*
X191512396Y-90534024D01*
X191329605Y-90477441D01*
X191139305Y-90457440D01*
X190948744Y-90474782D01*
X190765181Y-90528808D01*
X190595607Y-90617459D01*
X190446482Y-90737358D01*
X190323486Y-90883940D01*
X190231303Y-91051620D01*
X190173445Y-91234011D01*
X190152116Y-91424167D01*
X190152020Y-91437856D01*
X190113920Y-91437856D01*
X190095248Y-91247421D01*
X190039942Y-91064239D01*
X189950109Y-90895289D01*
X189829172Y-90747004D01*
X189681735Y-90625034D01*
X189513416Y-90534024D01*
X189330625Y-90477441D01*
X189140325Y-90457440D01*
X188949764Y-90474782D01*
X188766201Y-90528808D01*
X188596627Y-90617459D01*
X188447502Y-90737358D01*
X188324506Y-90883940D01*
X188232323Y-91051620D01*
X188174465Y-91234011D01*
X188153136Y-91424167D01*
X188153040Y-91437856D01*
X188112400Y-91437856D01*
X188093728Y-91247421D01*
X188038422Y-91064239D01*
X187948589Y-90895289D01*
X187827652Y-90747004D01*
X187680215Y-90625034D01*
X187511896Y-90534024D01*
X187329105Y-90477441D01*
X187138805Y-90457440D01*
X186948244Y-90474782D01*
X186764681Y-90528808D01*
X186595107Y-90617459D01*
X186445982Y-90737358D01*
X186322986Y-90883940D01*
X186230803Y-91051620D01*
X186172945Y-91234011D01*
X186151616Y-91424167D01*
X186151520Y-91437856D01*
X186110880Y-91437856D01*
X186110880Y-90806845D01*
X186096238Y-90733236D01*
X186067518Y-90663899D01*
X186025822Y-90601496D01*
X185972753Y-90548428D01*
X185910351Y-90506732D01*
X185841013Y-90478012D01*
X185767405Y-90463370D01*
X185352690Y-90463370D01*
X185257440Y-90558620D01*
X185003440Y-90558620D01*
X184908190Y-90463370D01*
X184493475Y-90463370D01*
X184419867Y-90478012D01*
X184350529Y-90506732D01*
X184288127Y-90548428D01*
X184235058Y-90601496D01*
X184193362Y-90663899D01*
X184164642Y-90733236D01*
X184150000Y-90806845D01*
X181338497Y-90806845D01*
X181289692Y-90747004D01*
X181142255Y-90625034D01*
X180973936Y-90534024D01*
X180791145Y-90477441D01*
X180600845Y-90457440D01*
X180410284Y-90474782D01*
X180226721Y-90528808D01*
X180057147Y-90617459D01*
X179908022Y-90737358D01*
X179785026Y-90883940D01*
X179692843Y-91051620D01*
X179634985Y-91234011D01*
X179613656Y-91424167D01*
X179613560Y-91437856D01*
X179575460Y-91437856D01*
X179556788Y-91247421D01*
X179501482Y-91064239D01*
X179411649Y-90895289D01*
X179290712Y-90747004D01*
X179143275Y-90625034D01*
X178974956Y-90534024D01*
X178792165Y-90477441D01*
X178601865Y-90457440D01*
X178411304Y-90474782D01*
X178227741Y-90528808D01*
X178058167Y-90617459D01*
X177909042Y-90737358D01*
X177786046Y-90883940D01*
X177693863Y-91051620D01*
X177636005Y-91234011D01*
X177614676Y-91424167D01*
X177614580Y-91437856D01*
X177573940Y-91437856D01*
X177555268Y-91247421D01*
X177499962Y-91064239D01*
X177410129Y-90895289D01*
X177289192Y-90747004D01*
X177141755Y-90625034D01*
X176973436Y-90534024D01*
X176790645Y-90477441D01*
X176600345Y-90457440D01*
X176409784Y-90474782D01*
X176226221Y-90528808D01*
X176056647Y-90617459D01*
X175907522Y-90737358D01*
X175784526Y-90883940D01*
X175692343Y-91051620D01*
X175634485Y-91234011D01*
X175613156Y-91424167D01*
X175613060Y-91437856D01*
X175572420Y-91437856D01*
X175572420Y-90806845D01*
X175557778Y-90733236D01*
X175529058Y-90663899D01*
X175487362Y-90601496D01*
X175434293Y-90548428D01*
X175371891Y-90506732D01*
X175302553Y-90478012D01*
X175228945Y-90463370D01*
X174814230Y-90463370D01*
X174718980Y-90558620D01*
X174464980Y-90558620D01*
X174369730Y-90463370D01*
X173955015Y-90463370D01*
X173881407Y-90478012D01*
X173812069Y-90506732D01*
X173749667Y-90548428D01*
X173696598Y-90601496D01*
X173654902Y-90663899D01*
X173626182Y-90733236D01*
X173611540Y-90806845D01*
X172456000Y-90806845D01*
X172456000Y-89956000D01*
X235544000Y-89956000D01*
X235544000Y-91506055D01*
X235544000Y-91506055D01*
G37*
X235544000Y-91506055D02*
X235457554Y-91344325D01*
X235238622Y-91203983D01*
X234240605Y-92202000D01*
X235238622Y-93200017D01*
X235457554Y-93059675D01*
X235544000Y-92881887D01*
X235544000Y-96586055D01*
X235457554Y-96424325D01*
X235238622Y-96283983D01*
X234240605Y-97282000D01*
X235238622Y-98280017D01*
X235457554Y-98139675D01*
X235544000Y-97961887D01*
X235544000Y-116044000D01*
X172456000Y-116044000D01*
X172456000Y-115115056D01*
X176152171Y-115115056D01*
X176174509Y-115236769D01*
X176220063Y-115351824D01*
X176287097Y-115455841D01*
X176373058Y-115544856D01*
X176474671Y-115615479D01*
X176588067Y-115665020D01*
X176708926Y-115691593D01*
X176832644Y-115694184D01*
X176954509Y-115672696D01*
X177069880Y-115627947D01*
X177174362Y-115561641D01*
X177263975Y-115476303D01*
X177335306Y-115375185D01*
X177385638Y-115262138D01*
X177413053Y-115141468D01*
X177415027Y-115000127D01*
X177390991Y-114878739D01*
X177343836Y-114764330D01*
X177275356Y-114661260D01*
X177188161Y-114573454D01*
X177085571Y-114504256D01*
X176971495Y-114456303D01*
X176850277Y-114431420D01*
X176726534Y-114430557D01*
X176604981Y-114453744D01*
X176490246Y-114500100D01*
X176386700Y-114567858D01*
X176298287Y-114654439D01*
X176228375Y-114756543D01*
X176179627Y-114870281D01*
X176153898Y-114991323D01*
X176152171Y-115115056D01*
X172456000Y-115115056D01*
X172456000Y-113582484D01*
X175847350Y-113582484D01*
X175869688Y-113704197D01*
X175915242Y-113819252D01*
X175982276Y-113923269D01*
X176068237Y-114012284D01*
X176169850Y-114082907D01*
X176283246Y-114132448D01*
X176404105Y-114159021D01*
X176527823Y-114161612D01*
X176649688Y-114140124D01*
X176765059Y-114095375D01*
X176869541Y-114029069D01*
X176959154Y-113943731D01*
X177030485Y-113842613D01*
X177080817Y-113729566D01*
X177108232Y-113608896D01*
X177110206Y-113467555D01*
X177086170Y-113346167D01*
X177039015Y-113231758D01*
X176970535Y-113128688D01*
X176883340Y-113040882D01*
X176780750Y-112971684D01*
X176666674Y-112923731D01*
X176545456Y-112898848D01*
X176421713Y-112897985D01*
X176300160Y-112921172D01*
X176185425Y-112967528D01*
X176081879Y-113035286D01*
X175993466Y-113121867D01*
X175923554Y-113223971D01*
X175874806Y-113337709D01*
X175849077Y-113458751D01*
X175847350Y-113582484D01*
X172456000Y-113582484D01*
X172456000Y-112784284D01*
X177614556Y-112784284D01*
X177734249Y-113436439D01*
X177978333Y-114052926D01*
X178337512Y-114610262D01*
X178798104Y-115087219D01*
X179342566Y-115465630D01*
X179950158Y-115731080D01*
X180597739Y-115873460D01*
X181260642Y-115887346D01*
X181913617Y-115772209D01*
X182531793Y-115532434D01*
X182989355Y-115242056D01*
X184407171Y-115242056D01*
X184429509Y-115363769D01*
X184475063Y-115478824D01*
X184542097Y-115582841D01*
X184628058Y-115671856D01*
X184729671Y-115742479D01*
X184843067Y-115792020D01*
X184963926Y-115818593D01*
X185087644Y-115821184D01*
X185209509Y-115799696D01*
X185324880Y-115754947D01*
X185429362Y-115688641D01*
X185518975Y-115603303D01*
X185590306Y-115502185D01*
X185640638Y-115389138D01*
X185668053Y-115268468D01*
X185670027Y-115127127D01*
X185645991Y-115005739D01*
X185598836Y-114891330D01*
X185530356Y-114788260D01*
X185443161Y-114700454D01*
X185340571Y-114631256D01*
X185226495Y-114583303D01*
X185105277Y-114558420D01*
X184981534Y-114557557D01*
X184859981Y-114580744D01*
X184745246Y-114627100D01*
X184641700Y-114694858D01*
X184553287Y-114781439D01*
X184483375Y-114883543D01*
X184434627Y-114997281D01*
X184408898Y-115118323D01*
X184407171Y-115242056D01*
X182989355Y-115242056D01*
X183091623Y-115177155D01*
X183571784Y-114719904D01*
X183953986Y-114178098D01*
X184045721Y-113972056D01*
X187963171Y-113972056D01*
X187985509Y-114093769D01*
X188031063Y-114208824D01*
X188098097Y-114312841D01*
X188184058Y-114401856D01*
X188219577Y-114426542D01*
X188197700Y-114440858D01*
X188109287Y-114527439D01*
X188039375Y-114629543D01*
X187990627Y-114743281D01*
X187964898Y-114864323D01*
X187963171Y-114988056D01*
X187985509Y-115109769D01*
X188031063Y-115224824D01*
X188098097Y-115328841D01*
X188184058Y-115417856D01*
X188285671Y-115488479D01*
X188399067Y-115538020D01*
X188519926Y-115564593D01*
X188643644Y-115567184D01*
X188765509Y-115545696D01*
X188880880Y-115500947D01*
X188985362Y-115434641D01*
X189074975Y-115349303D01*
X189146306Y-115248185D01*
X189196638Y-115135138D01*
X189224053Y-115014468D01*
X189226027Y-114873127D01*
X189201991Y-114751739D01*
X189154836Y-114637330D01*
X189086356Y-114534260D01*
X188999161Y-114446454D01*
X188971226Y-114427612D01*
X188985362Y-114418641D01*
X189074975Y-114333303D01*
X189146306Y-114232185D01*
X189196638Y-114119138D01*
X189224053Y-113998468D01*
X189226027Y-113857127D01*
X189223637Y-113845056D01*
X198504171Y-113845056D01*
X198526509Y-113966769D01*
X198572063Y-114081824D01*
X198639097Y-114185841D01*
X198725058Y-114274856D01*
X198826671Y-114345479D01*
X198940067Y-114395020D01*
X199060926Y-114421593D01*
X199184644Y-114424184D01*
X199306509Y-114402696D01*
X199421880Y-114357947D01*
X199526362Y-114291641D01*
X199615975Y-114206303D01*
X199687306Y-114105185D01*
X199714611Y-114043856D01*
X200695559Y-114043856D01*
X200695559Y-114556144D01*
X200714231Y-114746579D01*
X200769537Y-114929761D01*
X200859370Y-115098711D01*
X200980307Y-115246996D01*
X201127744Y-115368966D01*
X201296063Y-115459976D01*
X201478854Y-115516559D01*
X201669154Y-115536560D01*
X201859715Y-115519218D01*
X202043278Y-115465192D01*
X202212852Y-115376541D01*
X202361977Y-115256642D01*
X202484973Y-115110060D01*
X202577156Y-114942380D01*
X202635014Y-114759989D01*
X202656343Y-114569833D01*
X202656439Y-114556144D01*
X202656439Y-114043856D01*
X202694539Y-114043856D01*
X202694539Y-114556144D01*
X202713211Y-114746579D01*
X202768517Y-114929761D01*
X202858350Y-115098711D01*
X202979287Y-115246996D01*
X203126724Y-115368966D01*
X203295043Y-115459976D01*
X203477834Y-115516559D01*
X203668134Y-115536560D01*
X203858695Y-115519218D01*
X204042258Y-115465192D01*
X204211832Y-115376541D01*
X204360957Y-115256642D01*
X204483953Y-115110060D01*
X204576136Y-114942380D01*
X204633994Y-114759989D01*
X204655323Y-114569833D01*
X204655419Y-114556144D01*
X204655419Y-114043856D01*
X204696059Y-114043856D01*
X204696059Y-114556144D01*
X204714731Y-114746579D01*
X204770037Y-114929761D01*
X204859870Y-115098711D01*
X204980807Y-115246996D01*
X205128244Y-115368966D01*
X205296563Y-115459976D01*
X205479354Y-115516559D01*
X205669654Y-115536560D01*
X205860215Y-115519218D01*
X206043778Y-115465192D01*
X206213352Y-115376541D01*
X206362477Y-115256642D01*
X206485473Y-115110060D01*
X206577656Y-114942380D01*
X206635514Y-114759989D01*
X206656843Y-114569833D01*
X206656939Y-114556144D01*
X206656939Y-114522250D01*
X206697579Y-114522250D01*
X206697579Y-115187155D01*
X206712221Y-115260764D01*
X206740941Y-115330101D01*
X206782637Y-115392504D01*
X206835706Y-115445572D01*
X206898108Y-115487268D01*
X206967446Y-115515988D01*
X207041054Y-115530630D01*
X207455769Y-115530630D01*
X207551019Y-115435380D01*
X207551019Y-114427000D01*
X207805019Y-114427000D01*
X207805019Y-115435380D01*
X207900269Y-115530630D01*
X208314984Y-115530630D01*
X208388592Y-115515988D01*
X208457930Y-115487268D01*
X208520332Y-115445572D01*
X208573401Y-115392504D01*
X208615097Y-115330101D01*
X208643817Y-115260764D01*
X208658459Y-115187155D01*
X208658459Y-114522250D01*
X208563209Y-114427000D01*
X207805019Y-114427000D01*
X207551019Y-114427000D01*
X206792829Y-114427000D01*
X206697579Y-114522250D01*
X206656939Y-114522250D01*
X206656939Y-114043856D01*
X206638267Y-113853421D01*
X206582961Y-113670239D01*
X206493128Y-113501289D01*
X206420996Y-113412845D01*
X206697579Y-113412845D01*
X206697579Y-114077750D01*
X206792829Y-114173000D01*
X207551019Y-114173000D01*
X207551019Y-113164620D01*
X207805019Y-113164620D01*
X207805019Y-114173000D01*
X208563209Y-114173000D01*
X208658459Y-114077750D01*
X208658459Y-113412845D01*
X208643817Y-113339236D01*
X208615097Y-113269899D01*
X208573401Y-113207496D01*
X208520332Y-113154428D01*
X208457930Y-113112732D01*
X208388592Y-113084012D01*
X208314984Y-113069370D01*
X207900269Y-113069370D01*
X207805019Y-113164620D01*
X207551019Y-113164620D01*
X207455769Y-113069370D01*
X207041054Y-113069370D01*
X206967446Y-113084012D01*
X206898108Y-113112732D01*
X206835706Y-113154428D01*
X206782637Y-113207496D01*
X206740941Y-113269899D01*
X206712221Y-113339236D01*
X206697579Y-113412845D01*
X206420996Y-113412845D01*
X206372191Y-113353004D01*
X206224754Y-113231034D01*
X206056435Y-113140024D01*
X205873644Y-113083441D01*
X205683344Y-113063440D01*
X205492783Y-113080782D01*
X205309220Y-113134808D01*
X205139646Y-113223459D01*
X204990521Y-113343358D01*
X204867525Y-113489940D01*
X204775342Y-113657620D01*
X204717484Y-113840011D01*
X204696155Y-114030167D01*
X204696059Y-114043856D01*
X204655419Y-114043856D01*
X204636747Y-113853421D01*
X204581441Y-113670239D01*
X204491608Y-113501289D01*
X204370671Y-113353004D01*
X204223234Y-113231034D01*
X204054915Y-113140024D01*
X203872124Y-113083441D01*
X203681824Y-113063440D01*
X203491263Y-113080782D01*
X203307700Y-113134808D01*
X203138126Y-113223459D01*
X202989001Y-113343358D01*
X202866005Y-113489940D01*
X202773822Y-113657620D01*
X202715964Y-113840011D01*
X202694635Y-114030167D01*
X202694539Y-114043856D01*
X202656439Y-114043856D01*
X202637767Y-113853421D01*
X202582461Y-113670239D01*
X202492628Y-113501289D01*
X202371691Y-113353004D01*
X202224254Y-113231034D01*
X202055935Y-113140024D01*
X201873144Y-113083441D01*
X201682844Y-113063440D01*
X201492283Y-113080782D01*
X201308720Y-113134808D01*
X201139146Y-113223459D01*
X200990021Y-113343358D01*
X200867025Y-113489940D01*
X200774842Y-113657620D01*
X200716984Y-113840011D01*
X200695655Y-114030167D01*
X200695559Y-114043856D01*
X199714611Y-114043856D01*
X199737638Y-113992138D01*
X199765053Y-113871468D01*
X199767027Y-113730127D01*
X199742991Y-113608739D01*
X199695836Y-113494330D01*
X199627356Y-113391260D01*
X199540161Y-113303454D01*
X199437571Y-113234256D01*
X199323495Y-113186303D01*
X199202277Y-113161420D01*
X199078534Y-113160557D01*
X198956981Y-113183744D01*
X198842246Y-113230100D01*
X198738700Y-113297858D01*
X198650287Y-113384439D01*
X198580375Y-113486543D01*
X198531627Y-113600281D01*
X198505898Y-113721323D01*
X198504171Y-113845056D01*
X189223637Y-113845056D01*
X189201991Y-113735739D01*
X189154836Y-113621330D01*
X189086356Y-113518260D01*
X188999161Y-113430454D01*
X188896571Y-113361256D01*
X188782495Y-113313303D01*
X188661277Y-113288420D01*
X188537534Y-113287557D01*
X188415981Y-113310744D01*
X188301246Y-113357100D01*
X188197700Y-113424858D01*
X188109287Y-113511439D01*
X188039375Y-113613543D01*
X187990627Y-113727281D01*
X187964898Y-113848323D01*
X187963171Y-113972056D01*
X184045721Y-113972056D01*
X184223672Y-113572373D01*
X184370570Y-112925802D01*
X184371920Y-112829056D01*
X185423171Y-112829056D01*
X185445509Y-112950769D01*
X185491063Y-113065824D01*
X185558097Y-113169841D01*
X185644058Y-113258856D01*
X185745671Y-113329479D01*
X185859067Y-113379020D01*
X185979926Y-113405593D01*
X186103644Y-113408184D01*
X186225509Y-113386696D01*
X186340880Y-113341947D01*
X186445362Y-113275641D01*
X186514232Y-113210056D01*
X194948171Y-113210056D01*
X194970509Y-113331769D01*
X195016063Y-113446824D01*
X195083097Y-113550841D01*
X195169058Y-113639856D01*
X195270671Y-113710479D01*
X195384067Y-113760020D01*
X195504926Y-113786593D01*
X195628644Y-113789184D01*
X195750509Y-113767696D01*
X195865880Y-113722947D01*
X195970362Y-113656641D01*
X196059975Y-113571303D01*
X196131306Y-113470185D01*
X196181638Y-113357138D01*
X196209053Y-113236468D01*
X196211027Y-113095127D01*
X196186991Y-112973739D01*
X196139836Y-112859330D01*
X196089976Y-112784284D01*
X226614556Y-112784284D01*
X226734249Y-113436439D01*
X226978333Y-114052926D01*
X227337512Y-114610262D01*
X227798104Y-115087219D01*
X228342566Y-115465630D01*
X228950158Y-115731080D01*
X229597739Y-115873460D01*
X230260642Y-115887346D01*
X230913617Y-115772209D01*
X231531793Y-115532434D01*
X232091623Y-115177155D01*
X232571784Y-114719904D01*
X232953986Y-114178098D01*
X233223672Y-113572373D01*
X233370570Y-112925802D01*
X233381145Y-112168476D01*
X233252358Y-111518055D01*
X232999690Y-110905037D01*
X232632765Y-110352770D01*
X232165558Y-109882290D01*
X231615866Y-109511518D01*
X231004626Y-109254576D01*
X230355121Y-109121252D01*
X229692089Y-109116623D01*
X229040785Y-109240866D01*
X228426017Y-109489248D01*
X227871202Y-109852309D01*
X227397472Y-110316220D01*
X227022872Y-110863310D01*
X226761669Y-111472741D01*
X226623814Y-112121300D01*
X226614556Y-112784284D01*
X196089976Y-112784284D01*
X196071356Y-112756260D01*
X195984161Y-112668454D01*
X195881571Y-112599256D01*
X195767495Y-112551303D01*
X195646277Y-112526420D01*
X195522534Y-112525557D01*
X195400981Y-112548744D01*
X195286246Y-112595100D01*
X195182700Y-112662858D01*
X195094287Y-112749439D01*
X195024375Y-112851543D01*
X194975627Y-112965281D01*
X194949898Y-113086323D01*
X194948171Y-113210056D01*
X186514232Y-113210056D01*
X186534975Y-113190303D01*
X186606306Y-113089185D01*
X186656638Y-112976138D01*
X186684053Y-112855468D01*
X186686027Y-112714127D01*
X186661991Y-112592739D01*
X186614836Y-112478330D01*
X186546356Y-112375260D01*
X186492530Y-112321056D01*
X191773171Y-112321056D01*
X191795509Y-112442769D01*
X191841063Y-112557824D01*
X191908097Y-112661841D01*
X191994058Y-112750856D01*
X192095671Y-112821479D01*
X192209067Y-112871020D01*
X192329926Y-112897593D01*
X192453644Y-112900184D01*
X192575509Y-112878696D01*
X192632030Y-112856773D01*
X192670097Y-112915841D01*
X192756058Y-113004856D01*
X192857671Y-113075479D01*
X192971067Y-113125020D01*
X193091926Y-113151593D01*
X193215644Y-113154184D01*
X193337509Y-113132696D01*
X193452880Y-113087947D01*
X193557362Y-113021641D01*
X193646975Y-112936303D01*
X193718306Y-112835185D01*
X193768638Y-112722138D01*
X193796053Y-112601468D01*
X193798027Y-112460127D01*
X193773991Y-112338739D01*
X193726836Y-112224330D01*
X193706722Y-112194056D01*
X219586171Y-112194056D01*
X219608509Y-112315769D01*
X219654063Y-112430824D01*
X219721097Y-112534841D01*
X219807058Y-112623856D01*
X219908671Y-112694479D01*
X220022067Y-112744020D01*
X220142926Y-112770593D01*
X220266644Y-112773184D01*
X220388509Y-112751696D01*
X220503880Y-112706947D01*
X220608362Y-112640641D01*
X220697975Y-112555303D01*
X220769306Y-112454185D01*
X220819638Y-112341138D01*
X220847053Y-112220468D01*
X220849027Y-112079127D01*
X220824991Y-111957739D01*
X220777836Y-111843330D01*
X220709356Y-111740260D01*
X220622161Y-111652454D01*
X220519571Y-111583256D01*
X220405495Y-111535303D01*
X220284277Y-111510420D01*
X220160534Y-111509557D01*
X220038981Y-111532744D01*
X219924246Y-111579100D01*
X219820700Y-111646858D01*
X219732287Y-111733439D01*
X219662375Y-111835543D01*
X219613627Y-111949281D01*
X219587898Y-112070323D01*
X219586171Y-112194056D01*
X193706722Y-112194056D01*
X193658356Y-112121260D01*
X193571161Y-112033454D01*
X193468571Y-111964256D01*
X193354495Y-111916303D01*
X193233277Y-111891420D01*
X193109534Y-111890557D01*
X192987981Y-111913744D01*
X192940095Y-111933091D01*
X192896356Y-111867260D01*
X192809161Y-111779454D01*
X192706571Y-111710256D01*
X192592495Y-111662303D01*
X192471277Y-111637420D01*
X192347534Y-111636557D01*
X192225981Y-111659744D01*
X192111246Y-111706100D01*
X192007700Y-111773858D01*
X191919287Y-111860439D01*
X191849375Y-111962543D01*
X191800627Y-112076281D01*
X191774898Y-112197323D01*
X191773171Y-112321056D01*
X186492530Y-112321056D01*
X186459161Y-112287454D01*
X186356571Y-112218256D01*
X186242495Y-112170303D01*
X186121277Y-112145420D01*
X185997534Y-112144557D01*
X185875981Y-112167744D01*
X185761246Y-112214100D01*
X185657700Y-112281858D01*
X185569287Y-112368439D01*
X185499375Y-112470543D01*
X185450627Y-112584281D01*
X185424898Y-112705323D01*
X185423171Y-112829056D01*
X184371920Y-112829056D01*
X184381145Y-112168476D01*
X184252358Y-111518055D01*
X183999690Y-110905037D01*
X183674813Y-110416056D01*
X193043171Y-110416056D01*
X193065509Y-110537769D01*
X193111063Y-110652824D01*
X193178097Y-110756841D01*
X193264058Y-110845856D01*
X193365671Y-110916479D01*
X193479067Y-110966020D01*
X193599926Y-110992593D01*
X193723644Y-110995184D01*
X193845509Y-110973696D01*
X193960880Y-110928947D01*
X194065362Y-110862641D01*
X194154975Y-110777303D01*
X194226306Y-110676185D01*
X194229034Y-110670056D01*
X200917171Y-110670056D01*
X200939509Y-110791769D01*
X200985063Y-110906824D01*
X201052097Y-111010841D01*
X201138058Y-111099856D01*
X201239671Y-111170479D01*
X201353067Y-111220020D01*
X201473926Y-111246593D01*
X201597644Y-111249184D01*
X201719509Y-111227696D01*
X201834880Y-111182947D01*
X201939362Y-111116641D01*
X202028975Y-111031303D01*
X202100306Y-110930185D01*
X202150638Y-110817138D01*
X202178053Y-110696468D01*
X202180027Y-110555127D01*
X202155991Y-110433739D01*
X202108836Y-110319330D01*
X202040356Y-110216260D01*
X201953161Y-110128454D01*
X201850571Y-110059256D01*
X201736495Y-110011303D01*
X201615277Y-109986420D01*
X201491534Y-109985557D01*
X201369981Y-110008744D01*
X201255246Y-110055100D01*
X201151700Y-110122858D01*
X201063287Y-110209439D01*
X200993375Y-110311543D01*
X200944627Y-110425281D01*
X200918898Y-110546323D01*
X200917171Y-110670056D01*
X194229034Y-110670056D01*
X194276638Y-110563138D01*
X194304053Y-110442468D01*
X194306027Y-110301127D01*
X194281991Y-110179739D01*
X194234836Y-110065330D01*
X194166356Y-109962260D01*
X194112530Y-109908056D01*
X204092171Y-109908056D01*
X204114509Y-110029769D01*
X204160063Y-110144824D01*
X204227097Y-110248841D01*
X204313058Y-110337856D01*
X204414671Y-110408479D01*
X204528067Y-110458020D01*
X204648926Y-110484593D01*
X204772644Y-110487184D01*
X204894509Y-110465696D01*
X205009880Y-110420947D01*
X205114362Y-110354641D01*
X205203975Y-110269303D01*
X205275306Y-110168185D01*
X205325638Y-110055138D01*
X205353053Y-109934468D01*
X205353421Y-109908056D01*
X206378171Y-109908056D01*
X206400509Y-110029769D01*
X206446063Y-110144824D01*
X206513097Y-110248841D01*
X206599058Y-110337856D01*
X206700671Y-110408479D01*
X206814067Y-110458020D01*
X206934926Y-110484593D01*
X207058644Y-110487184D01*
X207180509Y-110465696D01*
X207295880Y-110420947D01*
X207400362Y-110354641D01*
X207489975Y-110269303D01*
X207561306Y-110168185D01*
X207611638Y-110055138D01*
X207639053Y-109934468D01*
X207641027Y-109793127D01*
X207638637Y-109781056D01*
X208410171Y-109781056D01*
X208432509Y-109902769D01*
X208478063Y-110017824D01*
X208545097Y-110121841D01*
X208631058Y-110210856D01*
X208732671Y-110281479D01*
X208846067Y-110331020D01*
X208966926Y-110357593D01*
X209090644Y-110360184D01*
X209091206Y-110360085D01*
X209143195Y-110440756D01*
X209229156Y-110529771D01*
X209330769Y-110600394D01*
X209444165Y-110649935D01*
X209565024Y-110676508D01*
X209688742Y-110679099D01*
X209810607Y-110657611D01*
X209868125Y-110635301D01*
X209875063Y-110652824D01*
X209942097Y-110756841D01*
X210028058Y-110845856D01*
X210129671Y-110916479D01*
X210243067Y-110966020D01*
X210363926Y-110992593D01*
X210487644Y-110995184D01*
X210609509Y-110973696D01*
X210724880Y-110928947D01*
X210829362Y-110862641D01*
X210918975Y-110777303D01*
X210990306Y-110676185D01*
X211040638Y-110563138D01*
X211068053Y-110442468D01*
X211070027Y-110301127D01*
X211045991Y-110179739D01*
X210998836Y-110065330D01*
X210930356Y-109962260D01*
X210843161Y-109874454D01*
X210740571Y-109805256D01*
X210626495Y-109757303D01*
X210505277Y-109732420D01*
X210381534Y-109731557D01*
X210259981Y-109754744D01*
X210210449Y-109774756D01*
X210199934Y-109749245D01*
X210131454Y-109646175D01*
X210044259Y-109558369D01*
X209997836Y-109527056D01*
X212982171Y-109527056D01*
X213004509Y-109648769D01*
X213050063Y-109763824D01*
X213117097Y-109867841D01*
X213203058Y-109956856D01*
X213304671Y-110027479D01*
X213418067Y-110077020D01*
X213538926Y-110103593D01*
X213662644Y-110106184D01*
X213784509Y-110084696D01*
X213899880Y-110039947D01*
X214004362Y-109973641D01*
X214093975Y-109888303D01*
X214165306Y-109787185D01*
X214215638Y-109674138D01*
X214243053Y-109553468D01*
X214245027Y-109412127D01*
X214242637Y-109400056D01*
X220221171Y-109400056D01*
X220243509Y-109521769D01*
X220289063Y-109636824D01*
X220356097Y-109740841D01*
X220442058Y-109829856D01*
X220543671Y-109900479D01*
X220657067Y-109950020D01*
X220777926Y-109976593D01*
X220856964Y-109978248D01*
X220856171Y-110035056D01*
X220878509Y-110156769D01*
X220924063Y-110271824D01*
X220991097Y-110375841D01*
X221077058Y-110464856D01*
X221178671Y-110535479D01*
X221292067Y-110585020D01*
X221412926Y-110611593D01*
X221536644Y-110614184D01*
X221658509Y-110592696D01*
X221773880Y-110547947D01*
X221878362Y-110481641D01*
X221967975Y-110396303D01*
X222039306Y-110295185D01*
X222089638Y-110182138D01*
X222117053Y-110061468D01*
X222119027Y-109920127D01*
X222094991Y-109798739D01*
X222047836Y-109684330D01*
X221979356Y-109581260D01*
X221892161Y-109493454D01*
X221789571Y-109424256D01*
X221675495Y-109376303D01*
X221554277Y-109351420D01*
X221483108Y-109350924D01*
X221484027Y-109285127D01*
X221459991Y-109163739D01*
X221412836Y-109049330D01*
X221344356Y-108946260D01*
X221257161Y-108858454D01*
X221154571Y-108789256D01*
X221040495Y-108741303D01*
X220919277Y-108716420D01*
X220795534Y-108715557D01*
X220673981Y-108738744D01*
X220559246Y-108785100D01*
X220455700Y-108852858D01*
X220367287Y-108939439D01*
X220297375Y-109041543D01*
X220248627Y-109155281D01*
X220222898Y-109276323D01*
X220221171Y-109400056D01*
X214242637Y-109400056D01*
X214220991Y-109290739D01*
X214173836Y-109176330D01*
X214105356Y-109073260D01*
X214018161Y-108985454D01*
X213915571Y-108916256D01*
X213801495Y-108868303D01*
X213680277Y-108843420D01*
X213556534Y-108842557D01*
X213434981Y-108865744D01*
X213320246Y-108912100D01*
X213216700Y-108979858D01*
X213128287Y-109066439D01*
X213058375Y-109168543D01*
X213009627Y-109282281D01*
X212983898Y-109403323D01*
X212982171Y-109527056D01*
X209997836Y-109527056D01*
X209941669Y-109489171D01*
X209827593Y-109441218D01*
X209706375Y-109416335D01*
X209592008Y-109415537D01*
X209533356Y-109327260D01*
X209446161Y-109239454D01*
X209343571Y-109170256D01*
X209229495Y-109122303D01*
X209108277Y-109097420D01*
X208984534Y-109096557D01*
X208862981Y-109119744D01*
X208748246Y-109166100D01*
X208644700Y-109233858D01*
X208556287Y-109320439D01*
X208486375Y-109422543D01*
X208437627Y-109536281D01*
X208411898Y-109657323D01*
X208410171Y-109781056D01*
X207638637Y-109781056D01*
X207616991Y-109671739D01*
X207569836Y-109557330D01*
X207501356Y-109454260D01*
X207414161Y-109366454D01*
X207366949Y-109334609D01*
X207434509Y-109322696D01*
X207549880Y-109277947D01*
X207654362Y-109211641D01*
X207743975Y-109126303D01*
X207815306Y-109025185D01*
X207865638Y-108912138D01*
X207893053Y-108791468D01*
X207895027Y-108650127D01*
X207870991Y-108528739D01*
X207823836Y-108414330D01*
X207755356Y-108311260D01*
X207668161Y-108223454D01*
X207565571Y-108154256D01*
X207451495Y-108106303D01*
X207330277Y-108081420D01*
X207206534Y-108080557D01*
X207084981Y-108103744D01*
X206970246Y-108150100D01*
X206866700Y-108217858D01*
X206778287Y-108304439D01*
X206708375Y-108406543D01*
X206659627Y-108520281D01*
X206633898Y-108641323D01*
X206632171Y-108765056D01*
X206654509Y-108886769D01*
X206700063Y-109001824D01*
X206767097Y-109105841D01*
X206853058Y-109194856D01*
X206906883Y-109232265D01*
X206830981Y-109246744D01*
X206716246Y-109293100D01*
X206612700Y-109360858D01*
X206524287Y-109447439D01*
X206454375Y-109549543D01*
X206405627Y-109663281D01*
X206379898Y-109784323D01*
X206378171Y-109908056D01*
X205353421Y-109908056D01*
X205355027Y-109793127D01*
X205330991Y-109671739D01*
X205283836Y-109557330D01*
X205215356Y-109454260D01*
X205128161Y-109366454D01*
X205025571Y-109297256D01*
X204911495Y-109249303D01*
X204790277Y-109224420D01*
X204666534Y-109223557D01*
X204544981Y-109246744D01*
X204430246Y-109293100D01*
X204326700Y-109360858D01*
X204238287Y-109447439D01*
X204168375Y-109549543D01*
X204119627Y-109663281D01*
X204093898Y-109784323D01*
X204092171Y-109908056D01*
X194112530Y-109908056D01*
X194079161Y-109874454D01*
X193976571Y-109805256D01*
X193862495Y-109757303D01*
X193741277Y-109732420D01*
X193617534Y-109731557D01*
X193495981Y-109754744D01*
X193381246Y-109801100D01*
X193277700Y-109868858D01*
X193189287Y-109955439D01*
X193119375Y-110057543D01*
X193070627Y-110171281D01*
X193044898Y-110292323D01*
X193043171Y-110416056D01*
X183674813Y-110416056D01*
X183632765Y-110352770D01*
X183165558Y-109882290D01*
X182615866Y-109511518D01*
X182051270Y-109274183D01*
X195629991Y-109274183D01*
X195652329Y-109395896D01*
X195697883Y-109510951D01*
X195764917Y-109614968D01*
X195850878Y-109703983D01*
X195952491Y-109774606D01*
X196065887Y-109824147D01*
X196186746Y-109850720D01*
X196310464Y-109853311D01*
X196432329Y-109831823D01*
X196547700Y-109787074D01*
X196652182Y-109720768D01*
X196741795Y-109635430D01*
X196813126Y-109534312D01*
X196863458Y-109421265D01*
X196865598Y-109411847D01*
X196951968Y-109396618D01*
X197067339Y-109351869D01*
X197171821Y-109285563D01*
X197261434Y-109200225D01*
X197332765Y-109099107D01*
X197383097Y-108986060D01*
X197410512Y-108865390D01*
X197412486Y-108724049D01*
X197388450Y-108602661D01*
X197380287Y-108582856D01*
X197390369Y-108587261D01*
X197511228Y-108613834D01*
X197634946Y-108616425D01*
X197756811Y-108594937D01*
X197872182Y-108550188D01*
X197976664Y-108483882D01*
X198066277Y-108398544D01*
X198137608Y-108297426D01*
X198187940Y-108184379D01*
X198215355Y-108063709D01*
X198215792Y-108032415D01*
X198278880Y-108007945D01*
X198383362Y-107941639D01*
X198472975Y-107856301D01*
X198544306Y-107755183D01*
X198594638Y-107642136D01*
X198622053Y-107521466D01*
X198624027Y-107380125D01*
X198599991Y-107258737D01*
X198552836Y-107144328D01*
X198484356Y-107041258D01*
X198397161Y-106953452D01*
X198294571Y-106884254D01*
X198180495Y-106836301D01*
X198059277Y-106811418D01*
X197935534Y-106810555D01*
X197813981Y-106833742D01*
X197699246Y-106880098D01*
X197595700Y-106947856D01*
X197507287Y-107034437D01*
X197437375Y-107136541D01*
X197388627Y-107250279D01*
X197362898Y-107371321D01*
X197362581Y-107394046D01*
X197292548Y-107422341D01*
X197189002Y-107490099D01*
X197140427Y-107537667D01*
X197121922Y-107525185D01*
X197007846Y-107477232D01*
X196886628Y-107452349D01*
X196762885Y-107451486D01*
X196641332Y-107474673D01*
X196526597Y-107521029D01*
X196423051Y-107588787D01*
X196334638Y-107675368D01*
X196264726Y-107777472D01*
X196215978Y-107891210D01*
X196190249Y-108012252D01*
X196188522Y-108135985D01*
X196210860Y-108257698D01*
X196256414Y-108372753D01*
X196277346Y-108405233D01*
X196225834Y-108480465D01*
X196177086Y-108594203D01*
X196176935Y-108594914D01*
X196082801Y-108612871D01*
X195968066Y-108659227D01*
X195864520Y-108726985D01*
X195776107Y-108813566D01*
X195706195Y-108915670D01*
X195657447Y-109029408D01*
X195631718Y-109150450D01*
X195629991Y-109274183D01*
X182051270Y-109274183D01*
X182004626Y-109254576D01*
X181355121Y-109121252D01*
X180692089Y-109116623D01*
X180040785Y-109240866D01*
X179426017Y-109489248D01*
X178871202Y-109852309D01*
X178397472Y-110316220D01*
X178022872Y-110863310D01*
X177761669Y-111472741D01*
X177623814Y-112121300D01*
X177614556Y-112784284D01*
X172456000Y-112784284D01*
X172456000Y-109146056D01*
X172596171Y-109146056D01*
X172618509Y-109267769D01*
X172664063Y-109382824D01*
X172731097Y-109486841D01*
X172817058Y-109575856D01*
X172918671Y-109646479D01*
X173032067Y-109696020D01*
X173152926Y-109722593D01*
X173276644Y-109725184D01*
X173384086Y-109706239D01*
X176204354Y-109706239D01*
X176226692Y-109827952D01*
X176272246Y-109943007D01*
X176339280Y-110047024D01*
X176425241Y-110136039D01*
X176526854Y-110206662D01*
X176640250Y-110256203D01*
X176761109Y-110282776D01*
X176884827Y-110285367D01*
X177006692Y-110263879D01*
X177122063Y-110219130D01*
X177226545Y-110152824D01*
X177316158Y-110067486D01*
X177387489Y-109966368D01*
X177437821Y-109853321D01*
X177465236Y-109732651D01*
X177467210Y-109591310D01*
X177443174Y-109469922D01*
X177396019Y-109355513D01*
X177327539Y-109252443D01*
X177240344Y-109164637D01*
X177137754Y-109095439D01*
X177023678Y-109047486D01*
X176902460Y-109022603D01*
X176778717Y-109021740D01*
X176657164Y-109044927D01*
X176542429Y-109091283D01*
X176438883Y-109159041D01*
X176350470Y-109245622D01*
X176280558Y-109347726D01*
X176231810Y-109461464D01*
X176206081Y-109582506D01*
X176204354Y-109706239D01*
X173384086Y-109706239D01*
X173398509Y-109703696D01*
X173513880Y-109658947D01*
X173618362Y-109592641D01*
X173707975Y-109507303D01*
X173779306Y-109406185D01*
X173829638Y-109293138D01*
X173857053Y-109172468D01*
X173859027Y-109031127D01*
X173834991Y-108909739D01*
X173787836Y-108795330D01*
X173719356Y-108692260D01*
X173632161Y-108604454D01*
X173529571Y-108535256D01*
X173415495Y-108487303D01*
X173294277Y-108462420D01*
X173170534Y-108461557D01*
X173048981Y-108484744D01*
X172934246Y-108531100D01*
X172830700Y-108598858D01*
X172742287Y-108685439D01*
X172672375Y-108787543D01*
X172623627Y-108901281D01*
X172597898Y-109022323D01*
X172596171Y-109146056D01*
X172456000Y-109146056D01*
X172456000Y-107241056D01*
X180089171Y-107241056D01*
X180111509Y-107362769D01*
X180157063Y-107477824D01*
X180224097Y-107581841D01*
X180310058Y-107670856D01*
X180411671Y-107741479D01*
X180525067Y-107791020D01*
X180645926Y-107817593D01*
X180769644Y-107820184D01*
X180891509Y-107798696D01*
X181006880Y-107753947D01*
X181111362Y-107687641D01*
X181200975Y-107602303D01*
X181272306Y-107501185D01*
X181322638Y-107388138D01*
X181350053Y-107267468D01*
X181352027Y-107126127D01*
X181327991Y-107004739D01*
X181280836Y-106890330D01*
X181212356Y-106787260D01*
X181125161Y-106699454D01*
X181022571Y-106630256D01*
X180908495Y-106582303D01*
X180787277Y-106557420D01*
X180663534Y-106556557D01*
X180541981Y-106579744D01*
X180427246Y-106626100D01*
X180323700Y-106693858D01*
X180235287Y-106780439D01*
X180165375Y-106882543D01*
X180116627Y-106996281D01*
X180090898Y-107117323D01*
X180089171Y-107241056D01*
X172456000Y-107241056D01*
X172456000Y-105844056D01*
X177295171Y-105844056D01*
X177317509Y-105965769D01*
X177363063Y-106080824D01*
X177430097Y-106184841D01*
X177516058Y-106273856D01*
X177617671Y-106344479D01*
X177731067Y-106394020D01*
X177851926Y-106420593D01*
X177975644Y-106423184D01*
X178097509Y-106401696D01*
X178212880Y-106356947D01*
X178220587Y-106352056D01*
X192281171Y-106352056D01*
X192303509Y-106473769D01*
X192349063Y-106588824D01*
X192416097Y-106692841D01*
X192502058Y-106781856D01*
X192603671Y-106852479D01*
X192717067Y-106902020D01*
X192837926Y-106928593D01*
X192961644Y-106931184D01*
X193083509Y-106909696D01*
X193198880Y-106864947D01*
X193303362Y-106798641D01*
X193392975Y-106713303D01*
X193464306Y-106612185D01*
X193514638Y-106499138D01*
X193542053Y-106378468D01*
X193544027Y-106237127D01*
X193519991Y-106115739D01*
X193472836Y-106001330D01*
X193404356Y-105898260D01*
X193317161Y-105810454D01*
X193248107Y-105763876D01*
X198614833Y-105763876D01*
X198637171Y-105885589D01*
X198682725Y-106000644D01*
X198749759Y-106104661D01*
X198835720Y-106193676D01*
X198910645Y-106245750D01*
X198893804Y-106285044D01*
X198868075Y-106406086D01*
X198866348Y-106529819D01*
X198888686Y-106651532D01*
X198934240Y-106766587D01*
X199001274Y-106870604D01*
X199087235Y-106959619D01*
X199188848Y-107030242D01*
X199302244Y-107079783D01*
X199423103Y-107106356D01*
X199546821Y-107108947D01*
X199668686Y-107087459D01*
X199784057Y-107042710D01*
X199797977Y-107033876D01*
X205922680Y-107033876D01*
X205945018Y-107155589D01*
X205990572Y-107270644D01*
X206057606Y-107374661D01*
X206143567Y-107463676D01*
X206245180Y-107534299D01*
X206358576Y-107583840D01*
X206479435Y-107610413D01*
X206603153Y-107613004D01*
X206725018Y-107591516D01*
X206840389Y-107546767D01*
X206944871Y-107480461D01*
X207034484Y-107395123D01*
X207105815Y-107294005D01*
X207156147Y-107180958D01*
X207183562Y-107060288D01*
X207185536Y-106918947D01*
X207161500Y-106797559D01*
X207114345Y-106683150D01*
X207045865Y-106580080D01*
X206958670Y-106492274D01*
X206856080Y-106423076D01*
X206742004Y-106375123D01*
X206620786Y-106350240D01*
X206497043Y-106349377D01*
X206375490Y-106372564D01*
X206260755Y-106418920D01*
X206157209Y-106486678D01*
X206068796Y-106573259D01*
X205998884Y-106675363D01*
X205950136Y-106789101D01*
X205924407Y-106910143D01*
X205922680Y-107033876D01*
X199797977Y-107033876D01*
X199888539Y-106976404D01*
X199978152Y-106891066D01*
X200049483Y-106789948D01*
X200099815Y-106676901D01*
X200127230Y-106556231D01*
X200129204Y-106414890D01*
X200105168Y-106293502D01*
X200058013Y-106179093D01*
X199989533Y-106076023D01*
X199902338Y-105988217D01*
X199834327Y-105942343D01*
X199848300Y-105910958D01*
X199875715Y-105790288D01*
X199877689Y-105648947D01*
X199853653Y-105527559D01*
X199806498Y-105413150D01*
X199738018Y-105310080D01*
X199650823Y-105222274D01*
X199548233Y-105153076D01*
X199434157Y-105105123D01*
X199312939Y-105080240D01*
X199189196Y-105079377D01*
X199067643Y-105102564D01*
X198952908Y-105148920D01*
X198849362Y-105216678D01*
X198760949Y-105303259D01*
X198691037Y-105405363D01*
X198642289Y-105519101D01*
X198616560Y-105640143D01*
X198614833Y-105763876D01*
X193248107Y-105763876D01*
X193214571Y-105741256D01*
X193100495Y-105693303D01*
X192979277Y-105668420D01*
X192855534Y-105667557D01*
X192733981Y-105690744D01*
X192619246Y-105737100D01*
X192515700Y-105804858D01*
X192427287Y-105891439D01*
X192357375Y-105993543D01*
X192308627Y-106107281D01*
X192282898Y-106228323D01*
X192281171Y-106352056D01*
X178220587Y-106352056D01*
X178317362Y-106290641D01*
X178406975Y-106205303D01*
X178478306Y-106104185D01*
X178528638Y-105991138D01*
X178556053Y-105870468D01*
X178558027Y-105729127D01*
X178555637Y-105717056D01*
X188471171Y-105717056D01*
X188493509Y-105838769D01*
X188539063Y-105953824D01*
X188606097Y-106057841D01*
X188692058Y-106146856D01*
X188793671Y-106217479D01*
X188907067Y-106267020D01*
X189027926Y-106293593D01*
X189151644Y-106296184D01*
X189273509Y-106274696D01*
X189388880Y-106229947D01*
X189493362Y-106163641D01*
X189582975Y-106078303D01*
X189654306Y-105977185D01*
X189704638Y-105864138D01*
X189732053Y-105743468D01*
X189734027Y-105602127D01*
X189709991Y-105480739D01*
X189662836Y-105366330D01*
X189594356Y-105263260D01*
X189507161Y-105175454D01*
X189404571Y-105106256D01*
X189290495Y-105058303D01*
X189169277Y-105033420D01*
X189045534Y-105032557D01*
X188923981Y-105055744D01*
X188809246Y-105102100D01*
X188705700Y-105169858D01*
X188617287Y-105256439D01*
X188547375Y-105358543D01*
X188498627Y-105472281D01*
X188472898Y-105593323D01*
X188471171Y-105717056D01*
X178555637Y-105717056D01*
X178533991Y-105607739D01*
X178486836Y-105493330D01*
X178418356Y-105390260D01*
X178331161Y-105302454D01*
X178228571Y-105233256D01*
X178114495Y-105185303D01*
X177993277Y-105160420D01*
X177869534Y-105159557D01*
X177747981Y-105182744D01*
X177633246Y-105229100D01*
X177529700Y-105296858D01*
X177441287Y-105383439D01*
X177371375Y-105485543D01*
X177322627Y-105599281D01*
X177296898Y-105720323D01*
X177295171Y-105844056D01*
X172456000Y-105844056D01*
X172456000Y-104111424D01*
X198250189Y-104111424D01*
X198272527Y-104233137D01*
X198318081Y-104348192D01*
X198385115Y-104452209D01*
X198471076Y-104541224D01*
X198572689Y-104611847D01*
X198686085Y-104661388D01*
X198806944Y-104687961D01*
X198930662Y-104690552D01*
X199052527Y-104669064D01*
X199113151Y-104645550D01*
X199113775Y-104648949D01*
X199159329Y-104764004D01*
X199226363Y-104868021D01*
X199312324Y-104957036D01*
X199413937Y-105027659D01*
X199527333Y-105077200D01*
X199648192Y-105103773D01*
X199771910Y-105106364D01*
X199893775Y-105084876D01*
X200009146Y-105040127D01*
X200113628Y-104973821D01*
X200203241Y-104888483D01*
X200210001Y-104878900D01*
X200230419Y-104930468D01*
X200297453Y-105034485D01*
X200383414Y-105123500D01*
X200485027Y-105194123D01*
X200598423Y-105243664D01*
X200719282Y-105270237D01*
X200806196Y-105272057D01*
X200791898Y-105339323D01*
X200790171Y-105463056D01*
X200812509Y-105584769D01*
X200858063Y-105699824D01*
X200925097Y-105803841D01*
X201011058Y-105892856D01*
X201112671Y-105963479D01*
X201226067Y-106013020D01*
X201346926Y-106039593D01*
X201470644Y-106042184D01*
X201592509Y-106020696D01*
X201707880Y-105975947D01*
X201812362Y-105909641D01*
X201901975Y-105824303D01*
X201973306Y-105723185D01*
X202023638Y-105610138D01*
X202051053Y-105489468D01*
X202053027Y-105348127D01*
X202050637Y-105336056D01*
X204600171Y-105336056D01*
X204622509Y-105457769D01*
X204668063Y-105572824D01*
X204735097Y-105676841D01*
X204821058Y-105765856D01*
X204922671Y-105836479D01*
X205036067Y-105886020D01*
X205156926Y-105912593D01*
X205280644Y-105915184D01*
X205402509Y-105893696D01*
X205517880Y-105848947D01*
X205622362Y-105782641D01*
X205711975Y-105697303D01*
X205783306Y-105596185D01*
X205811878Y-105532011D01*
X205915644Y-105534184D01*
X206037509Y-105512696D01*
X206152880Y-105467947D01*
X206257362Y-105401641D01*
X206346975Y-105316303D01*
X206418306Y-105215185D01*
X206468638Y-105102138D01*
X206488492Y-105014750D01*
X206545509Y-105004696D01*
X206660880Y-104959947D01*
X206765362Y-104893641D01*
X206854975Y-104808303D01*
X206926306Y-104707185D01*
X206976638Y-104594138D01*
X207004053Y-104473468D01*
X207006027Y-104332127D01*
X206981991Y-104210739D01*
X206934836Y-104096330D01*
X206866356Y-103993260D01*
X206779161Y-103905454D01*
X206676571Y-103836256D01*
X206562495Y-103788303D01*
X206441277Y-103763420D01*
X206317534Y-103762557D01*
X206195981Y-103785744D01*
X206081246Y-103832100D01*
X205977700Y-103899858D01*
X205889287Y-103986439D01*
X205819375Y-104088543D01*
X205770627Y-104202281D01*
X205753856Y-104281178D01*
X205687981Y-104293744D01*
X205573246Y-104340100D01*
X205469700Y-104407858D01*
X205381287Y-104494439D01*
X205311375Y-104596543D01*
X205287459Y-104652345D01*
X205174534Y-104651557D01*
X205052981Y-104674744D01*
X204938246Y-104721100D01*
X204834700Y-104788858D01*
X204746287Y-104875439D01*
X204676375Y-104977543D01*
X204627627Y-105091281D01*
X204601898Y-105212323D01*
X204600171Y-105336056D01*
X202050637Y-105336056D01*
X202028991Y-105226739D01*
X201981836Y-105112330D01*
X201913356Y-105009260D01*
X201826161Y-104921454D01*
X201723571Y-104852256D01*
X201609495Y-104804303D01*
X201488277Y-104779420D01*
X201410059Y-104778874D01*
X201423409Y-104720112D01*
X201425383Y-104578771D01*
X201401347Y-104457383D01*
X201354192Y-104342974D01*
X201285712Y-104239904D01*
X201198517Y-104152098D01*
X201095927Y-104082900D01*
X200981851Y-104034947D01*
X200860633Y-104010064D01*
X200736890Y-104009201D01*
X200615337Y-104032388D01*
X200500602Y-104078744D01*
X200397056Y-104146502D01*
X200308643Y-104233083D01*
X200307255Y-104235110D01*
X200283102Y-104176510D01*
X200214622Y-104073440D01*
X200127427Y-103985634D01*
X200024837Y-103916436D01*
X199910761Y-103868483D01*
X199789543Y-103843600D01*
X199665800Y-103842737D01*
X199544247Y-103865924D01*
X199491417Y-103887269D01*
X199489009Y-103875107D01*
X199455771Y-103794465D01*
X199529358Y-103765923D01*
X199633840Y-103699617D01*
X199723453Y-103614279D01*
X199794784Y-103513161D01*
X199845116Y-103400114D01*
X199872531Y-103279444D01*
X199874505Y-103138103D01*
X199866342Y-103096876D01*
X207267171Y-103096876D01*
X207289509Y-103218589D01*
X207335063Y-103333644D01*
X207402097Y-103437661D01*
X207488058Y-103526676D01*
X207589671Y-103597299D01*
X207703067Y-103646840D01*
X207823926Y-103673413D01*
X207947644Y-103676004D01*
X208069509Y-103654516D01*
X208184880Y-103609767D01*
X208289362Y-103543461D01*
X208378975Y-103458123D01*
X208450306Y-103357005D01*
X208500638Y-103243958D01*
X208528053Y-103123288D01*
X208530027Y-102981947D01*
X208505991Y-102860559D01*
X208458836Y-102746150D01*
X208390356Y-102643080D01*
X208303161Y-102555274D01*
X208200571Y-102486076D01*
X208086495Y-102438123D01*
X207965277Y-102413240D01*
X207841534Y-102412377D01*
X207719981Y-102435564D01*
X207605246Y-102481920D01*
X207501700Y-102549678D01*
X207413287Y-102636259D01*
X207343375Y-102738363D01*
X207294627Y-102852101D01*
X207268898Y-102973143D01*
X207267171Y-103096876D01*
X199866342Y-103096876D01*
X199850469Y-103016715D01*
X199803314Y-102902306D01*
X199734834Y-102799236D01*
X199647639Y-102711430D01*
X199545049Y-102642232D01*
X199430973Y-102594279D01*
X199309755Y-102569396D01*
X199186012Y-102568533D01*
X199064459Y-102591720D01*
X198949724Y-102638076D01*
X198846178Y-102705834D01*
X198757765Y-102792415D01*
X198687853Y-102894519D01*
X198639105Y-103008257D01*
X198613376Y-103129299D01*
X198611649Y-103253032D01*
X198633987Y-103374745D01*
X198669229Y-103463756D01*
X198588264Y-103496468D01*
X198484718Y-103564226D01*
X198396305Y-103650807D01*
X198326393Y-103752911D01*
X198277645Y-103866649D01*
X198251916Y-103987691D01*
X198250189Y-104111424D01*
X172456000Y-104111424D01*
X172456000Y-102669056D01*
X181486171Y-102669056D01*
X181508509Y-102790769D01*
X181554063Y-102905824D01*
X181621097Y-103009841D01*
X181707058Y-103098856D01*
X181808671Y-103169479D01*
X181922067Y-103219020D01*
X182042926Y-103245593D01*
X182166644Y-103248184D01*
X182288509Y-103226696D01*
X182403880Y-103181947D01*
X182508362Y-103115641D01*
X182597975Y-103030303D01*
X182669306Y-102929185D01*
X182719638Y-102816138D01*
X182747053Y-102695468D01*
X182749027Y-102554127D01*
X182724991Y-102432739D01*
X182677836Y-102318330D01*
X182609356Y-102215260D01*
X182522161Y-102127454D01*
X182419571Y-102058256D01*
X182305495Y-102010303D01*
X182184277Y-101985420D01*
X182060534Y-101984557D01*
X181938981Y-102007744D01*
X181824246Y-102054100D01*
X181720700Y-102121858D01*
X181632287Y-102208439D01*
X181562375Y-102310543D01*
X181513627Y-102424281D01*
X181487898Y-102545323D01*
X181486171Y-102669056D01*
X172456000Y-102669056D01*
X172456000Y-101253290D01*
X173013370Y-101253290D01*
X173013370Y-101668005D01*
X173028012Y-101741613D01*
X173056732Y-101810951D01*
X173098428Y-101873353D01*
X173151496Y-101926422D01*
X173213899Y-101968118D01*
X173283236Y-101996838D01*
X173356845Y-102011480D01*
X174021750Y-102011480D01*
X174117000Y-101916230D01*
X174117000Y-101158040D01*
X174371000Y-101158040D01*
X174371000Y-101916230D01*
X174466250Y-102011480D01*
X175131155Y-102011480D01*
X175204764Y-101996838D01*
X175274101Y-101968118D01*
X175336504Y-101926422D01*
X175389572Y-101873353D01*
X175431268Y-101810951D01*
X175459988Y-101741613D01*
X175474630Y-101668005D01*
X175474630Y-101253290D01*
X175379380Y-101158040D01*
X174371000Y-101158040D01*
X174117000Y-101158040D01*
X173108620Y-101158040D01*
X173013370Y-101253290D01*
X172456000Y-101253290D01*
X172456000Y-100394075D01*
X173013370Y-100394075D01*
X173013370Y-100808790D01*
X173108620Y-100904040D01*
X174117000Y-100904040D01*
X174117000Y-100145850D01*
X174371000Y-100145850D01*
X174371000Y-100904040D01*
X175379380Y-100904040D01*
X175474630Y-100808790D01*
X175474630Y-100637056D01*
X181740171Y-100637056D01*
X181762509Y-100758769D01*
X181808063Y-100873824D01*
X181875097Y-100977841D01*
X181961058Y-101066856D01*
X182062671Y-101137479D01*
X182176067Y-101187020D01*
X182296926Y-101213593D01*
X182420644Y-101216184D01*
X182542509Y-101194696D01*
X182657880Y-101149947D01*
X182762362Y-101083641D01*
X182831232Y-101018056D01*
X194186171Y-101018056D01*
X194208509Y-101139769D01*
X194254063Y-101254824D01*
X194321097Y-101358841D01*
X194407058Y-101447856D01*
X194508671Y-101518479D01*
X194622067Y-101568020D01*
X194742926Y-101594593D01*
X194866644Y-101597184D01*
X194988509Y-101575696D01*
X195103880Y-101530947D01*
X195111587Y-101526056D01*
X196726171Y-101526056D01*
X196748509Y-101647769D01*
X196794063Y-101762824D01*
X196861097Y-101866841D01*
X196947058Y-101955856D01*
X197048671Y-102026479D01*
X197162067Y-102076020D01*
X197282926Y-102102593D01*
X197374100Y-102104502D01*
X197383509Y-102155769D01*
X197429063Y-102270824D01*
X197496097Y-102374841D01*
X197582058Y-102463856D01*
X197683671Y-102534479D01*
X197797067Y-102584020D01*
X197917926Y-102610593D01*
X198041644Y-102613184D01*
X198163509Y-102591696D01*
X198278880Y-102546947D01*
X198383362Y-102480641D01*
X198472975Y-102395303D01*
X198544306Y-102294185D01*
X198547034Y-102288056D01*
X209172171Y-102288056D01*
X209194509Y-102409769D01*
X209240063Y-102524824D01*
X209307097Y-102628841D01*
X209393058Y-102717856D01*
X209494671Y-102788479D01*
X209608067Y-102838020D01*
X209728926Y-102864593D01*
X209852644Y-102867184D01*
X209974509Y-102845696D01*
X210089880Y-102800947D01*
X210194362Y-102734641D01*
X210283975Y-102649303D01*
X210355306Y-102548185D01*
X210405638Y-102435138D01*
X210433053Y-102314468D01*
X210433346Y-102293483D01*
X210696171Y-102293483D01*
X210718509Y-102415196D01*
X210764063Y-102530251D01*
X210831097Y-102634268D01*
X210917058Y-102723283D01*
X211018671Y-102793906D01*
X211132067Y-102843447D01*
X211252926Y-102870020D01*
X211376644Y-102872611D01*
X211498509Y-102851123D01*
X211613880Y-102806374D01*
X211718362Y-102740068D01*
X211807975Y-102654730D01*
X211879306Y-102553612D01*
X211929638Y-102440565D01*
X211957053Y-102319895D01*
X211959027Y-102178554D01*
X211934991Y-102057166D01*
X211887836Y-101942757D01*
X211819356Y-101839687D01*
X211732161Y-101751881D01*
X211629571Y-101682683D01*
X211515495Y-101634730D01*
X211394277Y-101609847D01*
X211270534Y-101608984D01*
X211148981Y-101632171D01*
X211034246Y-101678527D01*
X210930700Y-101746285D01*
X210842287Y-101832866D01*
X210772375Y-101934970D01*
X210723627Y-102048708D01*
X210697898Y-102169750D01*
X210696171Y-102293483D01*
X210433346Y-102293483D01*
X210435027Y-102173127D01*
X210410991Y-102051739D01*
X210363836Y-101937330D01*
X210295356Y-101834260D01*
X210208161Y-101746454D01*
X210105571Y-101677256D01*
X209991495Y-101629303D01*
X209870277Y-101604420D01*
X209746534Y-101603557D01*
X209624981Y-101626744D01*
X209510246Y-101673100D01*
X209406700Y-101740858D01*
X209318287Y-101827439D01*
X209248375Y-101929543D01*
X209199627Y-102043281D01*
X209173898Y-102164323D01*
X209172171Y-102288056D01*
X198547034Y-102288056D01*
X198594638Y-102181138D01*
X198622053Y-102060468D01*
X198624027Y-101919127D01*
X198599991Y-101797739D01*
X198552836Y-101683330D01*
X198484356Y-101580260D01*
X198397161Y-101492454D01*
X198294571Y-101423256D01*
X198180495Y-101375303D01*
X198059277Y-101350420D01*
X197976893Y-101349845D01*
X197964991Y-101289739D01*
X197917836Y-101175330D01*
X197849356Y-101072260D01*
X197762161Y-100984454D01*
X197659571Y-100915256D01*
X197545495Y-100867303D01*
X197424277Y-100842420D01*
X197300534Y-100841557D01*
X197178981Y-100864744D01*
X197064246Y-100911100D01*
X196960700Y-100978858D01*
X196872287Y-101065439D01*
X196802375Y-101167543D01*
X196753627Y-101281281D01*
X196727898Y-101402323D01*
X196726171Y-101526056D01*
X195111587Y-101526056D01*
X195208362Y-101464641D01*
X195297975Y-101379303D01*
X195369306Y-101278185D01*
X195419638Y-101165138D01*
X195444011Y-101057859D01*
X195490279Y-101049701D01*
X195605650Y-101004952D01*
X195710132Y-100938646D01*
X195799745Y-100853308D01*
X195871076Y-100752190D01*
X195921408Y-100639143D01*
X195948823Y-100518473D01*
X195948940Y-100510056D01*
X210569171Y-100510056D01*
X210591509Y-100631769D01*
X210637063Y-100746824D01*
X210704097Y-100850841D01*
X210790058Y-100939856D01*
X210891671Y-101010479D01*
X211005067Y-101060020D01*
X211125926Y-101086593D01*
X211249644Y-101089184D01*
X211371509Y-101067696D01*
X211486880Y-101022947D01*
X211591362Y-100956641D01*
X211596338Y-100951902D01*
X211607509Y-101012769D01*
X211653063Y-101127824D01*
X211720097Y-101231841D01*
X211806058Y-101320856D01*
X211907671Y-101391479D01*
X212021067Y-101441020D01*
X212141926Y-101467593D01*
X212265644Y-101470184D01*
X212387509Y-101448696D01*
X212502880Y-101403947D01*
X212607362Y-101337641D01*
X212696975Y-101252303D01*
X212768306Y-101151185D01*
X212818638Y-101038138D01*
X212846053Y-100917468D01*
X212848027Y-100776127D01*
X212823991Y-100654739D01*
X212776836Y-100540330D01*
X212708356Y-100437260D01*
X212621161Y-100349454D01*
X212518571Y-100280256D01*
X212404495Y-100232303D01*
X212283277Y-100207420D01*
X212159534Y-100206557D01*
X212037981Y-100229744D01*
X211923246Y-100276100D01*
X211821626Y-100342598D01*
X211807991Y-100273739D01*
X211760836Y-100159330D01*
X211692356Y-100056260D01*
X211605161Y-99968454D01*
X211502571Y-99899256D01*
X211388495Y-99851303D01*
X211267277Y-99826420D01*
X211143534Y-99825557D01*
X211021981Y-99848744D01*
X210907246Y-99895100D01*
X210803700Y-99962858D01*
X210715287Y-100049439D01*
X210645375Y-100151543D01*
X210596627Y-100265281D01*
X210570898Y-100386323D01*
X210569171Y-100510056D01*
X195948940Y-100510056D01*
X195950797Y-100377132D01*
X195926761Y-100255744D01*
X195879606Y-100141335D01*
X195811126Y-100038265D01*
X195723931Y-99950459D01*
X195621341Y-99881261D01*
X195507265Y-99833308D01*
X195386047Y-99808425D01*
X195262304Y-99807562D01*
X195140751Y-99830749D01*
X195026016Y-99877105D01*
X194922470Y-99944863D01*
X194834057Y-100031444D01*
X194764145Y-100133548D01*
X194715397Y-100247286D01*
X194694376Y-100346177D01*
X194638981Y-100356744D01*
X194524246Y-100403100D01*
X194420700Y-100470858D01*
X194332287Y-100557439D01*
X194262375Y-100659543D01*
X194213627Y-100773281D01*
X194187898Y-100894323D01*
X194186171Y-101018056D01*
X182831232Y-101018056D01*
X182851975Y-100998303D01*
X182923306Y-100897185D01*
X182973638Y-100784138D01*
X183001053Y-100663468D01*
X183003027Y-100522127D01*
X182978991Y-100400739D01*
X182931836Y-100286330D01*
X182863356Y-100183260D01*
X182776161Y-100095454D01*
X182673571Y-100026256D01*
X182559495Y-99978303D01*
X182438277Y-99953420D01*
X182314534Y-99952557D01*
X182192981Y-99975744D01*
X182078246Y-100022100D01*
X181974700Y-100089858D01*
X181886287Y-100176439D01*
X181816375Y-100278543D01*
X181767627Y-100392281D01*
X181741898Y-100513323D01*
X181740171Y-100637056D01*
X175474630Y-100637056D01*
X175474630Y-100394075D01*
X175459988Y-100320467D01*
X175431268Y-100251129D01*
X175389572Y-100188727D01*
X175336504Y-100135658D01*
X175274101Y-100093962D01*
X175204764Y-100065242D01*
X175131155Y-100050600D01*
X174466250Y-100050600D01*
X174371000Y-100145850D01*
X174117000Y-100145850D01*
X174021750Y-100050600D01*
X173356845Y-100050600D01*
X173283236Y-100065242D01*
X173213899Y-100093962D01*
X173151496Y-100135658D01*
X173098428Y-100188727D01*
X173056732Y-100251129D01*
X173028012Y-100320467D01*
X173013370Y-100394075D01*
X172456000Y-100394075D01*
X172456000Y-99022675D01*
X173007440Y-99022675D01*
X173024782Y-99213236D01*
X173078808Y-99396799D01*
X173167459Y-99566373D01*
X173287358Y-99715498D01*
X173433940Y-99838494D01*
X173601620Y-99930677D01*
X173784011Y-99988535D01*
X173974167Y-100009864D01*
X173987856Y-100009960D01*
X174500144Y-100009960D01*
X174690579Y-99991288D01*
X174873761Y-99935982D01*
X175042711Y-99846149D01*
X175190996Y-99725212D01*
X175312966Y-99577775D01*
X175375284Y-99462520D01*
X195447269Y-99462520D01*
X195469607Y-99584233D01*
X195515161Y-99699288D01*
X195582195Y-99803305D01*
X195668156Y-99892320D01*
X195769769Y-99962943D01*
X195883165Y-100012484D01*
X196004024Y-100039057D01*
X196127742Y-100041648D01*
X196249607Y-100020160D01*
X196364978Y-99975411D01*
X196469460Y-99909105D01*
X196559073Y-99823767D01*
X196630404Y-99722649D01*
X196680736Y-99609602D01*
X196708151Y-99488932D01*
X196710125Y-99347591D01*
X196686089Y-99226203D01*
X196638934Y-99111794D01*
X196570454Y-99008724D01*
X196547944Y-98986056D01*
X209172171Y-98986056D01*
X209194509Y-99107769D01*
X209240063Y-99222824D01*
X209307097Y-99326841D01*
X209393058Y-99415856D01*
X209494671Y-99486479D01*
X209608067Y-99536020D01*
X209728926Y-99562593D01*
X209852644Y-99565184D01*
X209974509Y-99543696D01*
X210089880Y-99498947D01*
X210194362Y-99432641D01*
X210283975Y-99347303D01*
X210355306Y-99246185D01*
X210405638Y-99133138D01*
X210410200Y-99113056D01*
X212347171Y-99113056D01*
X212369509Y-99234769D01*
X212415063Y-99349824D01*
X212482097Y-99453841D01*
X212568058Y-99542856D01*
X212669671Y-99613479D01*
X212783067Y-99663020D01*
X212903926Y-99689593D01*
X213027644Y-99692184D01*
X213149509Y-99670696D01*
X213264880Y-99625947D01*
X213369362Y-99559641D01*
X213458975Y-99474303D01*
X213530306Y-99373185D01*
X213580638Y-99260138D01*
X213608053Y-99139468D01*
X213610027Y-98998127D01*
X213607637Y-98986056D01*
X221364171Y-98986056D01*
X221386509Y-99107769D01*
X221432063Y-99222824D01*
X221499097Y-99326841D01*
X221585058Y-99415856D01*
X221686671Y-99486479D01*
X221800067Y-99536020D01*
X221920926Y-99562593D01*
X222044644Y-99565184D01*
X222166509Y-99543696D01*
X222281880Y-99498947D01*
X222386362Y-99432641D01*
X222455232Y-99367056D01*
X225555171Y-99367056D01*
X225577509Y-99488769D01*
X225623063Y-99603824D01*
X225690097Y-99707841D01*
X225776058Y-99796856D01*
X225877671Y-99867479D01*
X225991067Y-99917020D01*
X226111926Y-99943593D01*
X226235644Y-99946184D01*
X226357509Y-99924696D01*
X226472880Y-99879947D01*
X226577362Y-99813641D01*
X226666975Y-99728303D01*
X226738306Y-99627185D01*
X226788638Y-99514138D01*
X226816053Y-99393468D01*
X226818027Y-99252127D01*
X226793991Y-99130739D01*
X226746836Y-99016330D01*
X226678356Y-98913260D01*
X226591161Y-98825454D01*
X226488571Y-98756256D01*
X226374495Y-98708303D01*
X226253277Y-98683420D01*
X226129534Y-98682557D01*
X226007981Y-98705744D01*
X225893246Y-98752100D01*
X225789700Y-98819858D01*
X225701287Y-98906439D01*
X225631375Y-99008543D01*
X225582627Y-99122281D01*
X225556898Y-99243323D01*
X225555171Y-99367056D01*
X222455232Y-99367056D01*
X222475975Y-99347303D01*
X222547306Y-99246185D01*
X222597638Y-99133138D01*
X222625053Y-99012468D01*
X222627027Y-98871127D01*
X222602991Y-98749739D01*
X222555836Y-98635330D01*
X222487356Y-98532260D01*
X222415224Y-98459622D01*
X227982983Y-98459622D01*
X228123325Y-98678554D01*
X228412259Y-98819043D01*
X228723050Y-98900465D01*
X229043753Y-98919690D01*
X229362044Y-98875980D01*
X229665693Y-98771014D01*
X229838675Y-98678554D01*
X229979017Y-98459622D01*
X233062983Y-98459622D01*
X233203325Y-98678554D01*
X233492259Y-98819043D01*
X233803050Y-98900465D01*
X234123753Y-98919690D01*
X234442044Y-98875980D01*
X234745693Y-98771014D01*
X234918675Y-98678554D01*
X235059017Y-98459622D01*
X234061000Y-97461605D01*
X233062983Y-98459622D01*
X229979017Y-98459622D01*
X228981000Y-97461605D01*
X227982983Y-98459622D01*
X222415224Y-98459622D01*
X222400161Y-98444454D01*
X222297571Y-98375256D01*
X222183495Y-98327303D01*
X222062277Y-98302420D01*
X221938534Y-98301557D01*
X221816981Y-98324744D01*
X221702246Y-98371100D01*
X221598700Y-98438858D01*
X221510287Y-98525439D01*
X221440375Y-98627543D01*
X221391627Y-98741281D01*
X221365898Y-98862323D01*
X221364171Y-98986056D01*
X213607637Y-98986056D01*
X213585991Y-98876739D01*
X213538836Y-98762330D01*
X213470356Y-98659260D01*
X213383161Y-98571454D01*
X213280571Y-98502256D01*
X213166495Y-98454303D01*
X213045277Y-98429420D01*
X212921534Y-98428557D01*
X212799981Y-98451744D01*
X212685246Y-98498100D01*
X212581700Y-98565858D01*
X212493287Y-98652439D01*
X212423375Y-98754543D01*
X212374627Y-98868281D01*
X212348898Y-98989323D01*
X212347171Y-99113056D01*
X210410200Y-99113056D01*
X210433053Y-99012468D01*
X210435027Y-98871127D01*
X210410991Y-98749739D01*
X210363836Y-98635330D01*
X210295356Y-98532260D01*
X210208161Y-98444454D01*
X210105571Y-98375256D01*
X209991495Y-98327303D01*
X209870277Y-98302420D01*
X209746534Y-98301557D01*
X209624981Y-98324744D01*
X209510246Y-98371100D01*
X209406700Y-98438858D01*
X209318287Y-98525439D01*
X209248375Y-98627543D01*
X209199627Y-98741281D01*
X209173898Y-98862323D01*
X209172171Y-98986056D01*
X196547944Y-98986056D01*
X196483259Y-98920918D01*
X196380669Y-98851720D01*
X196266593Y-98803767D01*
X196145375Y-98778884D01*
X196021632Y-98778021D01*
X195900079Y-98801208D01*
X195785344Y-98847564D01*
X195681798Y-98915322D01*
X195593385Y-99001903D01*
X195523473Y-99104007D01*
X195474725Y-99217745D01*
X195448996Y-99338787D01*
X195447269Y-99462520D01*
X175375284Y-99462520D01*
X175403976Y-99409456D01*
X175460559Y-99226665D01*
X175480560Y-99036365D01*
X175463218Y-98845804D01*
X175409192Y-98662241D01*
X175320541Y-98492667D01*
X175200642Y-98343542D01*
X175058244Y-98224056D01*
X185423171Y-98224056D01*
X185445509Y-98345769D01*
X185491063Y-98460824D01*
X185558097Y-98564841D01*
X185644058Y-98653856D01*
X185745671Y-98724479D01*
X185859067Y-98774020D01*
X185979926Y-98800593D01*
X186103644Y-98803184D01*
X186225509Y-98781696D01*
X186340880Y-98736947D01*
X186445362Y-98670641D01*
X186534975Y-98585303D01*
X186606306Y-98484185D01*
X186656638Y-98371138D01*
X186684053Y-98250468D01*
X186686027Y-98109127D01*
X186661991Y-97987739D01*
X186614836Y-97873330D01*
X186546356Y-97770260D01*
X186459161Y-97682454D01*
X186356571Y-97613256D01*
X186242495Y-97565303D01*
X186121277Y-97540420D01*
X185997534Y-97539557D01*
X185875981Y-97562744D01*
X185761246Y-97609100D01*
X185657700Y-97676858D01*
X185569287Y-97763439D01*
X185499375Y-97865543D01*
X185450627Y-97979281D01*
X185424898Y-98100323D01*
X185423171Y-98224056D01*
X175058244Y-98224056D01*
X175054060Y-98220546D01*
X174886380Y-98128363D01*
X174703989Y-98070505D01*
X174513833Y-98049176D01*
X174500144Y-98049080D01*
X173987856Y-98049080D01*
X173797421Y-98067752D01*
X173614239Y-98123058D01*
X173445289Y-98212891D01*
X173297004Y-98333828D01*
X173175034Y-98481265D01*
X173084024Y-98649584D01*
X173027441Y-98832375D01*
X173007440Y-99022675D01*
X172456000Y-99022675D01*
X172456000Y-97021155D01*
X173007440Y-97021155D01*
X173024782Y-97211716D01*
X173078808Y-97395279D01*
X173167459Y-97564853D01*
X173287358Y-97713978D01*
X173433940Y-97836974D01*
X173601620Y-97929157D01*
X173784011Y-97987015D01*
X173974167Y-98008344D01*
X173987856Y-98008440D01*
X174500144Y-98008440D01*
X174690579Y-97989768D01*
X174873761Y-97934462D01*
X175042711Y-97844629D01*
X175190996Y-97723692D01*
X175312966Y-97576255D01*
X175403976Y-97407936D01*
X175460559Y-97225145D01*
X175480560Y-97034845D01*
X175463218Y-96844284D01*
X175458148Y-96827056D01*
X209045171Y-96827056D01*
X209067509Y-96948769D01*
X209113063Y-97063824D01*
X209180097Y-97167841D01*
X209266058Y-97256856D01*
X209367671Y-97327479D01*
X209481067Y-97377020D01*
X209601926Y-97403593D01*
X209725644Y-97406184D01*
X209847509Y-97384696D01*
X209950489Y-97344753D01*
X227343310Y-97344753D01*
X227387020Y-97663044D01*
X227491986Y-97966693D01*
X227584446Y-98139675D01*
X227803378Y-98280017D01*
X228801395Y-97282000D01*
X229160605Y-97282000D01*
X230158622Y-98280017D01*
X230377554Y-98139675D01*
X230518043Y-97850741D01*
X230599465Y-97539950D01*
X230611166Y-97344753D01*
X232423310Y-97344753D01*
X232467020Y-97663044D01*
X232571986Y-97966693D01*
X232664446Y-98139675D01*
X232883378Y-98280017D01*
X233881395Y-97282000D01*
X232883378Y-96283983D01*
X232664446Y-96424325D01*
X232523957Y-96713259D01*
X232442535Y-97024050D01*
X232423310Y-97344753D01*
X230611166Y-97344753D01*
X230618690Y-97219247D01*
X230574980Y-96900956D01*
X230470014Y-96597307D01*
X230377554Y-96424325D01*
X230158622Y-96283983D01*
X229160605Y-97282000D01*
X228801395Y-97282000D01*
X227803378Y-96283983D01*
X227584446Y-96424325D01*
X227443957Y-96713259D01*
X227362535Y-97024050D01*
X227343310Y-97344753D01*
X209950489Y-97344753D01*
X209962880Y-97339947D01*
X210067362Y-97273641D01*
X210156975Y-97188303D01*
X210228306Y-97087185D01*
X210278638Y-96974138D01*
X210306053Y-96853468D01*
X210308027Y-96712127D01*
X210283991Y-96590739D01*
X210236836Y-96476330D01*
X210168356Y-96373260D01*
X210081161Y-96285454D01*
X209978571Y-96216256D01*
X209864495Y-96168303D01*
X209743277Y-96143420D01*
X209619534Y-96142557D01*
X209497981Y-96165744D01*
X209383246Y-96212100D01*
X209279700Y-96279858D01*
X209191287Y-96366439D01*
X209121375Y-96468543D01*
X209072627Y-96582281D01*
X209046898Y-96703323D01*
X209045171Y-96827056D01*
X175458148Y-96827056D01*
X175409192Y-96660721D01*
X175320541Y-96491147D01*
X175200642Y-96342022D01*
X175054060Y-96219026D01*
X174886380Y-96126843D01*
X174815562Y-96104378D01*
X227982983Y-96104378D01*
X228981000Y-97102395D01*
X229979017Y-96104378D01*
X229838675Y-95885446D01*
X229549741Y-95744957D01*
X229238950Y-95663535D01*
X228918247Y-95644310D01*
X228599956Y-95688020D01*
X228296307Y-95792986D01*
X228123325Y-95885446D01*
X227982983Y-96104378D01*
X174815562Y-96104378D01*
X174703989Y-96068985D01*
X174513833Y-96047656D01*
X174500144Y-96047560D01*
X173987856Y-96047560D01*
X173797421Y-96066232D01*
X173614239Y-96121538D01*
X173445289Y-96211371D01*
X173297004Y-96332308D01*
X173175034Y-96479745D01*
X173084024Y-96648064D01*
X173027441Y-96830855D01*
X173007440Y-97021155D01*
X172456000Y-97021155D01*
X172456000Y-94668056D01*
X178692171Y-94668056D01*
X178714509Y-94789769D01*
X178760063Y-94904824D01*
X178827097Y-95008841D01*
X178913058Y-95097856D01*
X179014671Y-95168479D01*
X179128067Y-95218020D01*
X179248926Y-95244593D01*
X179372644Y-95247184D01*
X179494509Y-95225696D01*
X179609880Y-95180947D01*
X179714362Y-95114641D01*
X179783232Y-95049056D01*
X199266171Y-95049056D01*
X199288509Y-95170769D01*
X199334063Y-95285824D01*
X199401097Y-95389841D01*
X199487058Y-95478856D01*
X199588671Y-95549479D01*
X199702067Y-95599020D01*
X199822926Y-95625593D01*
X199946644Y-95628184D01*
X200068509Y-95606696D01*
X200183880Y-95561947D01*
X200288362Y-95495641D01*
X200377975Y-95410303D01*
X200449306Y-95309185D01*
X200499638Y-95196138D01*
X200527053Y-95075468D01*
X200529027Y-94934127D01*
X200504991Y-94812739D01*
X200497703Y-94795056D01*
X200663171Y-94795056D01*
X200685509Y-94916769D01*
X200731063Y-95031824D01*
X200798097Y-95135841D01*
X200884058Y-95224856D01*
X200985671Y-95295479D01*
X201099067Y-95345020D01*
X201219926Y-95371593D01*
X201343644Y-95374184D01*
X201465509Y-95352696D01*
X201580880Y-95307947D01*
X201685362Y-95241641D01*
X201774975Y-95156303D01*
X201846306Y-95055185D01*
X201896638Y-94942138D01*
X201924053Y-94821468D01*
X201924861Y-94763577D01*
X204100608Y-94763577D01*
X204130012Y-94923787D01*
X204189974Y-95075233D01*
X204278210Y-95212149D01*
X204391360Y-95329319D01*
X204525113Y-95422280D01*
X204674375Y-95487491D01*
X204833460Y-95522468D01*
X204996310Y-95525879D01*
X205156720Y-95497595D01*
X205308582Y-95438691D01*
X205446110Y-95351413D01*
X205564067Y-95239084D01*
X205657960Y-95105983D01*
X205724211Y-94957180D01*
X205760298Y-94798343D01*
X205760783Y-94763577D01*
X208499888Y-94763577D01*
X208529292Y-94923787D01*
X208589254Y-95075233D01*
X208677490Y-95212149D01*
X208790640Y-95329319D01*
X208924393Y-95422280D01*
X209073655Y-95487491D01*
X209232740Y-95522468D01*
X209395590Y-95525879D01*
X209556000Y-95497595D01*
X209707862Y-95438691D01*
X209845390Y-95351413D01*
X209963347Y-95239084D01*
X210057240Y-95105983D01*
X210123491Y-94957180D01*
X210141221Y-94879139D01*
X229887856Y-94879139D01*
X229945596Y-95193740D01*
X230063343Y-95491134D01*
X230236611Y-95759994D01*
X230458801Y-95990079D01*
X230721451Y-96172625D01*
X231014555Y-96300679D01*
X231326949Y-96369363D01*
X231646734Y-96376062D01*
X231961731Y-96320519D01*
X232259940Y-96204852D01*
X232418261Y-96104378D01*
X233062983Y-96104378D01*
X234061000Y-97102395D01*
X235059017Y-96104378D01*
X234918675Y-95885446D01*
X234629741Y-95744957D01*
X234318950Y-95663535D01*
X233998247Y-95644310D01*
X233679956Y-95688020D01*
X233376307Y-95792986D01*
X233203325Y-95885446D01*
X233062983Y-96104378D01*
X232418261Y-96104378D01*
X232530003Y-96033465D01*
X232761633Y-95812886D01*
X232946008Y-95551517D01*
X233076105Y-95259315D01*
X233146969Y-94947408D01*
X233152070Y-94582072D01*
X233089943Y-94268308D01*
X232968056Y-93972587D01*
X232791050Y-93706172D01*
X232565669Y-93479212D01*
X232418021Y-93379622D01*
X233062983Y-93379622D01*
X233203325Y-93598554D01*
X233492259Y-93739043D01*
X233803050Y-93820465D01*
X234123753Y-93839690D01*
X234442044Y-93795980D01*
X234745693Y-93691014D01*
X234918675Y-93598554D01*
X235059017Y-93379622D01*
X234061000Y-92381605D01*
X233062983Y-93379622D01*
X232418021Y-93379622D01*
X232300497Y-93300351D01*
X232005634Y-93176402D01*
X231692311Y-93112086D01*
X231372463Y-93109853D01*
X231058273Y-93169788D01*
X230761708Y-93289608D01*
X230494064Y-93464749D01*
X230265536Y-93688541D01*
X230084828Y-93952458D01*
X229958823Y-94246448D01*
X229892322Y-94559314D01*
X229887856Y-94879139D01*
X210141221Y-94879139D01*
X210159578Y-94798343D01*
X210162176Y-94612297D01*
X210130538Y-94452514D01*
X210068467Y-94301920D01*
X209978328Y-94166249D01*
X209863553Y-94050670D01*
X209728515Y-93959586D01*
X209578358Y-93896466D01*
X209418799Y-93863713D01*
X209255918Y-93862576D01*
X209095918Y-93893098D01*
X208944894Y-93954115D01*
X208808597Y-94043305D01*
X208692220Y-94157270D01*
X208600195Y-94291669D01*
X208536028Y-94441382D01*
X208502162Y-94600708D01*
X208499888Y-94763577D01*
X205760783Y-94763577D01*
X205762896Y-94612297D01*
X205731258Y-94452514D01*
X205669187Y-94301920D01*
X205579048Y-94166249D01*
X205464273Y-94050670D01*
X205329235Y-93959586D01*
X205179078Y-93896466D01*
X205019519Y-93863713D01*
X204856638Y-93862576D01*
X204696638Y-93893098D01*
X204545614Y-93954115D01*
X204409317Y-94043305D01*
X204292940Y-94157270D01*
X204200915Y-94291669D01*
X204136748Y-94441382D01*
X204102882Y-94600708D01*
X204100608Y-94763577D01*
X201924861Y-94763577D01*
X201926027Y-94680127D01*
X201901991Y-94558739D01*
X201854836Y-94444330D01*
X201786356Y-94341260D01*
X201699161Y-94253454D01*
X201596571Y-94184256D01*
X201482495Y-94136303D01*
X201361277Y-94111420D01*
X201237534Y-94110557D01*
X201115981Y-94133744D01*
X201001246Y-94180100D01*
X200897700Y-94247858D01*
X200809287Y-94334439D01*
X200739375Y-94436543D01*
X200690627Y-94550281D01*
X200664898Y-94671323D01*
X200663171Y-94795056D01*
X200497703Y-94795056D01*
X200457836Y-94698330D01*
X200389356Y-94595260D01*
X200302161Y-94507454D01*
X200199571Y-94438256D01*
X200085495Y-94390303D01*
X199964277Y-94365420D01*
X199840534Y-94364557D01*
X199718981Y-94387744D01*
X199604246Y-94434100D01*
X199500700Y-94501858D01*
X199412287Y-94588439D01*
X199342375Y-94690543D01*
X199293627Y-94804281D01*
X199267898Y-94925323D01*
X199266171Y-95049056D01*
X179783232Y-95049056D01*
X179803975Y-95029303D01*
X179875306Y-94928185D01*
X179925638Y-94815138D01*
X179953053Y-94694468D01*
X179955027Y-94553127D01*
X179930991Y-94431739D01*
X179883836Y-94317330D01*
X179815356Y-94214260D01*
X179728161Y-94126454D01*
X179625571Y-94057256D01*
X179511495Y-94009303D01*
X179390277Y-93984420D01*
X179266534Y-93983557D01*
X179144981Y-94006744D01*
X179030246Y-94053100D01*
X178926700Y-94120858D01*
X178838287Y-94207439D01*
X178768375Y-94309543D01*
X178719627Y-94423281D01*
X178693898Y-94544323D01*
X178692171Y-94668056D01*
X172456000Y-94668056D01*
X172456000Y-93379622D01*
X227982983Y-93379622D01*
X228123325Y-93598554D01*
X228412259Y-93739043D01*
X228723050Y-93820465D01*
X229043753Y-93839690D01*
X229362044Y-93795980D01*
X229665693Y-93691014D01*
X229838675Y-93598554D01*
X229979017Y-93379622D01*
X228981000Y-92381605D01*
X227982983Y-93379622D01*
X172456000Y-93379622D01*
X172456000Y-91916250D01*
X173611540Y-91916250D01*
X173611540Y-92581155D01*
X173626182Y-92654764D01*
X173654902Y-92724101D01*
X173696598Y-92786504D01*
X173749667Y-92839572D01*
X173812069Y-92881268D01*
X173881407Y-92909988D01*
X173955015Y-92924630D01*
X174369730Y-92924630D01*
X174464980Y-92829380D01*
X174464980Y-91821000D01*
X174718980Y-91821000D01*
X174718980Y-92829380D01*
X174814230Y-92924630D01*
X175228945Y-92924630D01*
X175302553Y-92909988D01*
X175371891Y-92881268D01*
X175434293Y-92839572D01*
X175487362Y-92786504D01*
X175529058Y-92724101D01*
X175557778Y-92654764D01*
X175572420Y-92581155D01*
X175572420Y-91916250D01*
X175477170Y-91821000D01*
X174718980Y-91821000D01*
X174464980Y-91821000D01*
X173706790Y-91821000D01*
X173611540Y-91916250D01*
X172456000Y-91916250D01*
X172456000Y-90806845D01*
X173611540Y-90806845D01*
X173611540Y-91471750D01*
X173706790Y-91567000D01*
X174464980Y-91567000D01*
X174464980Y-90558620D01*
X174718980Y-90558620D01*
X174718980Y-91567000D01*
X175477170Y-91567000D01*
X175572420Y-91471750D01*
X175572420Y-91437856D01*
X175613060Y-91437856D01*
X175613060Y-91950144D01*
X175631732Y-92140579D01*
X175687038Y-92323761D01*
X175776871Y-92492711D01*
X175897808Y-92640996D01*
X176045245Y-92762966D01*
X176213564Y-92853976D01*
X176396355Y-92910559D01*
X176586655Y-92930560D01*
X176777216Y-92913218D01*
X176960779Y-92859192D01*
X177130353Y-92770541D01*
X177279478Y-92650642D01*
X177402474Y-92504060D01*
X177494657Y-92336380D01*
X177552515Y-92153989D01*
X177573844Y-91963833D01*
X177573940Y-91950144D01*
X177573940Y-91437856D01*
X177614580Y-91437856D01*
X177614580Y-91950144D01*
X177633252Y-92140579D01*
X177688558Y-92323761D01*
X177778391Y-92492711D01*
X177899328Y-92640996D01*
X178046765Y-92762966D01*
X178215084Y-92853976D01*
X178397875Y-92910559D01*
X178588175Y-92930560D01*
X178778736Y-92913218D01*
X178962299Y-92859192D01*
X179131873Y-92770541D01*
X179280998Y-92650642D01*
X179403994Y-92504060D01*
X179496177Y-92336380D01*
X179554035Y-92153989D01*
X179575364Y-91963833D01*
X179575460Y-91950144D01*
X179575460Y-91437856D01*
X179613560Y-91437856D01*
X179613560Y-91950144D01*
X179632232Y-92140579D01*
X179687538Y-92323761D01*
X179777371Y-92492711D01*
X179898308Y-92640996D01*
X180045745Y-92762966D01*
X180214064Y-92853976D01*
X180396855Y-92910559D01*
X180587155Y-92930560D01*
X180777716Y-92913218D01*
X180961279Y-92859192D01*
X181130853Y-92770541D01*
X181279978Y-92650642D01*
X181402974Y-92504060D01*
X181495157Y-92336380D01*
X181553015Y-92153989D01*
X181574344Y-91963833D01*
X181574440Y-91950144D01*
X181574440Y-91916250D01*
X184150000Y-91916250D01*
X184150000Y-92581155D01*
X184164642Y-92654764D01*
X184193362Y-92724101D01*
X184235058Y-92786504D01*
X184288127Y-92839572D01*
X184350529Y-92881268D01*
X184419867Y-92909988D01*
X184493475Y-92924630D01*
X184908190Y-92924630D01*
X185003440Y-92829380D01*
X185003440Y-91821000D01*
X185257440Y-91821000D01*
X185257440Y-92829380D01*
X185352690Y-92924630D01*
X185767405Y-92924630D01*
X185841013Y-92909988D01*
X185910351Y-92881268D01*
X185972753Y-92839572D01*
X186025822Y-92786504D01*
X186067518Y-92724101D01*
X186096238Y-92654764D01*
X186110880Y-92581155D01*
X186110880Y-91916250D01*
X186015630Y-91821000D01*
X185257440Y-91821000D01*
X185003440Y-91821000D01*
X184245250Y-91821000D01*
X184150000Y-91916250D01*
X181574440Y-91916250D01*
X181574440Y-91437856D01*
X181555768Y-91247421D01*
X181500462Y-91064239D01*
X181410629Y-90895289D01*
X181338497Y-90806845D01*
X184150000Y-90806845D01*
X184150000Y-91471750D01*
X184245250Y-91567000D01*
X185003440Y-91567000D01*
X185003440Y-90558620D01*
X185257440Y-90558620D01*
X185257440Y-91567000D01*
X186015630Y-91567000D01*
X186110880Y-91471750D01*
X186110880Y-91437856D01*
X186151520Y-91437856D01*
X186151520Y-91950144D01*
X186170192Y-92140579D01*
X186225498Y-92323761D01*
X186315331Y-92492711D01*
X186436268Y-92640996D01*
X186583705Y-92762966D01*
X186752024Y-92853976D01*
X186934815Y-92910559D01*
X187125115Y-92930560D01*
X187315676Y-92913218D01*
X187499239Y-92859192D01*
X187668813Y-92770541D01*
X187817938Y-92650642D01*
X187940934Y-92504060D01*
X188033117Y-92336380D01*
X188090975Y-92153989D01*
X188112304Y-91963833D01*
X188112400Y-91950144D01*
X188112400Y-91437856D01*
X188153040Y-91437856D01*
X188153040Y-91950144D01*
X188171712Y-92140579D01*
X188227018Y-92323761D01*
X188316851Y-92492711D01*
X188437788Y-92640996D01*
X188585225Y-92762966D01*
X188753544Y-92853976D01*
X188936335Y-92910559D01*
X189126635Y-92930560D01*
X189317196Y-92913218D01*
X189500759Y-92859192D01*
X189670333Y-92770541D01*
X189819458Y-92650642D01*
X189942454Y-92504060D01*
X190034637Y-92336380D01*
X190092495Y-92153989D01*
X190113824Y-91963833D01*
X190113920Y-91950144D01*
X190113920Y-91437856D01*
X190152020Y-91437856D01*
X190152020Y-91950144D01*
X190170692Y-92140579D01*
X190225998Y-92323761D01*
X190315831Y-92492711D01*
X190436768Y-92640996D01*
X190584205Y-92762966D01*
X190752524Y-92853976D01*
X190935315Y-92910559D01*
X191125615Y-92930560D01*
X191316176Y-92913218D01*
X191499739Y-92859192D01*
X191669313Y-92770541D01*
X191818438Y-92650642D01*
X191941434Y-92504060D01*
X192033617Y-92336380D01*
X192091475Y-92153989D01*
X192112804Y-91963833D01*
X192112900Y-91950144D01*
X192112900Y-91437856D01*
X192156080Y-91437856D01*
X192156080Y-91950144D01*
X192174752Y-92140579D01*
X192230058Y-92323761D01*
X192319891Y-92492711D01*
X192440828Y-92640996D01*
X192588265Y-92762966D01*
X192756584Y-92853976D01*
X192939375Y-92910559D01*
X193129675Y-92930560D01*
X193320236Y-92913218D01*
X193503799Y-92859192D01*
X193673373Y-92770541D01*
X193822498Y-92650642D01*
X193945494Y-92504060D01*
X194037677Y-92336380D01*
X194095535Y-92153989D01*
X194116864Y-91963833D01*
X194116960Y-91950144D01*
X194116960Y-91437856D01*
X194157600Y-91437856D01*
X194157600Y-91950144D01*
X194176272Y-92140579D01*
X194231578Y-92323761D01*
X194321411Y-92492711D01*
X194442348Y-92640996D01*
X194589785Y-92762966D01*
X194758104Y-92853976D01*
X194940895Y-92910559D01*
X195131195Y-92930560D01*
X195321756Y-92913218D01*
X195505319Y-92859192D01*
X195674893Y-92770541D01*
X195824018Y-92650642D01*
X195947014Y-92504060D01*
X196039197Y-92336380D01*
X196097055Y-92153989D01*
X196118384Y-91963833D01*
X196118480Y-91950144D01*
X196118480Y-91437856D01*
X196156580Y-91437856D01*
X196156580Y-91950144D01*
X196175252Y-92140579D01*
X196230558Y-92323761D01*
X196320391Y-92492711D01*
X196441328Y-92640996D01*
X196588765Y-92762966D01*
X196757084Y-92853976D01*
X196939875Y-92910559D01*
X197130175Y-92930560D01*
X197320736Y-92913218D01*
X197504299Y-92859192D01*
X197673873Y-92770541D01*
X197822998Y-92650642D01*
X197945994Y-92504060D01*
X198038177Y-92336380D01*
X198096035Y-92153989D01*
X198117364Y-91963833D01*
X198117460Y-91950144D01*
X198117460Y-91437856D01*
X198155560Y-91437856D01*
X198155560Y-91950144D01*
X198174232Y-92140579D01*
X198229538Y-92323761D01*
X198319371Y-92492711D01*
X198440308Y-92640996D01*
X198587745Y-92762966D01*
X198756064Y-92853976D01*
X198938855Y-92910559D01*
X199129155Y-92930560D01*
X199319716Y-92913218D01*
X199503279Y-92859192D01*
X199672853Y-92770541D01*
X199821978Y-92650642D01*
X199944974Y-92504060D01*
X200037157Y-92336380D01*
X200095015Y-92153989D01*
X200116344Y-91963833D01*
X200116440Y-91950144D01*
X200116440Y-91437856D01*
X200097768Y-91247421D01*
X200042462Y-91064239D01*
X199952629Y-90895289D01*
X199911101Y-90844370D01*
X214216677Y-90844370D01*
X214216677Y-92543630D01*
X214221515Y-92604303D01*
X214253384Y-92707210D01*
X214312660Y-92797165D01*
X214394650Y-92867045D01*
X214492862Y-92911316D01*
X214599520Y-92926473D01*
X215798400Y-92926473D01*
X215859073Y-92921635D01*
X215961980Y-92889766D01*
X216051935Y-92830490D01*
X216121815Y-92748500D01*
X216166086Y-92650288D01*
X216181243Y-92543630D01*
X216181243Y-91437856D01*
X216220040Y-91437856D01*
X216220040Y-91950144D01*
X216238712Y-92140579D01*
X216294018Y-92323761D01*
X216383851Y-92492711D01*
X216504788Y-92640996D01*
X216652225Y-92762966D01*
X216820544Y-92853976D01*
X217003335Y-92910559D01*
X217193635Y-92930560D01*
X217384196Y-92913218D01*
X217567759Y-92859192D01*
X217737333Y-92770541D01*
X217886458Y-92650642D01*
X218009454Y-92504060D01*
X218101637Y-92336380D01*
X218159495Y-92153989D01*
X218180824Y-91963833D01*
X218180920Y-91950144D01*
X218180920Y-91437856D01*
X218221560Y-91437856D01*
X218221560Y-91950144D01*
X218240232Y-92140579D01*
X218295538Y-92323761D01*
X218385371Y-92492711D01*
X218506308Y-92640996D01*
X218653745Y-92762966D01*
X218822064Y-92853976D01*
X219004855Y-92910559D01*
X219195155Y-92930560D01*
X219385716Y-92913218D01*
X219569279Y-92859192D01*
X219738853Y-92770541D01*
X219887978Y-92650642D01*
X220010974Y-92504060D01*
X220103157Y-92336380D01*
X220161015Y-92153989D01*
X220180852Y-91977133D01*
X220205498Y-91977133D01*
X220231053Y-92170709D01*
X220293882Y-92355580D01*
X220391570Y-92524641D01*
X220520363Y-92671396D01*
X220675312Y-92790205D01*
X220850462Y-92876502D01*
X220923461Y-92884534D01*
X221073980Y-92820222D01*
X221073980Y-91821000D01*
X221327980Y-91821000D01*
X221327980Y-92820222D01*
X221478499Y-92884534D01*
X221551498Y-92876502D01*
X221726648Y-92790205D01*
X221881597Y-92671396D01*
X222010390Y-92524641D01*
X222108078Y-92355580D01*
X222170907Y-92170709D01*
X222196462Y-91977133D01*
X222094109Y-91821000D01*
X221327980Y-91821000D01*
X221073980Y-91821000D01*
X220307851Y-91821000D01*
X220205498Y-91977133D01*
X220180852Y-91977133D01*
X220182344Y-91963833D01*
X220182440Y-91950144D01*
X220182440Y-91437856D01*
X220179794Y-91410867D01*
X220205498Y-91410867D01*
X220307851Y-91567000D01*
X221073980Y-91567000D01*
X221073980Y-90567778D01*
X221327980Y-90567778D01*
X221327980Y-91567000D01*
X222094109Y-91567000D01*
X222178769Y-91437856D01*
X222222060Y-91437856D01*
X222222060Y-91950144D01*
X222240732Y-92140579D01*
X222296038Y-92323761D01*
X222385871Y-92492711D01*
X222506808Y-92640996D01*
X222654245Y-92762966D01*
X222822564Y-92853976D01*
X223005355Y-92910559D01*
X223195655Y-92930560D01*
X223386216Y-92913218D01*
X223569779Y-92859192D01*
X223739353Y-92770541D01*
X223888478Y-92650642D01*
X224011474Y-92504060D01*
X224103657Y-92336380D01*
X224161515Y-92153989D01*
X224182844Y-91963833D01*
X224182940Y-91950144D01*
X224182940Y-91437856D01*
X224223580Y-91437856D01*
X224223580Y-91950144D01*
X224242252Y-92140579D01*
X224297558Y-92323761D01*
X224387391Y-92492711D01*
X224508328Y-92640996D01*
X224655765Y-92762966D01*
X224824084Y-92853976D01*
X225006875Y-92910559D01*
X225197175Y-92930560D01*
X225387736Y-92913218D01*
X225571299Y-92859192D01*
X225740873Y-92770541D01*
X225889998Y-92650642D01*
X226012994Y-92504060D01*
X226105177Y-92336380D01*
X226127898Y-92264753D01*
X227343310Y-92264753D01*
X227387020Y-92583044D01*
X227491986Y-92886693D01*
X227584446Y-93059675D01*
X227803378Y-93200017D01*
X228801395Y-92202000D01*
X229160605Y-92202000D01*
X230158622Y-93200017D01*
X230377554Y-93059675D01*
X230518043Y-92770741D01*
X230599465Y-92459950D01*
X230611166Y-92264753D01*
X232423310Y-92264753D01*
X232467020Y-92583044D01*
X232571986Y-92886693D01*
X232664446Y-93059675D01*
X232883378Y-93200017D01*
X233881395Y-92202000D01*
X232883378Y-91203983D01*
X232664446Y-91344325D01*
X232523957Y-91633259D01*
X232442535Y-91944050D01*
X232423310Y-92264753D01*
X230611166Y-92264753D01*
X230618690Y-92139247D01*
X230574980Y-91820956D01*
X230470014Y-91517307D01*
X230377554Y-91344325D01*
X230158622Y-91203983D01*
X229160605Y-92202000D01*
X228801395Y-92202000D01*
X227803378Y-91203983D01*
X227584446Y-91344325D01*
X227443957Y-91633259D01*
X227362535Y-91944050D01*
X227343310Y-92264753D01*
X226127898Y-92264753D01*
X226163035Y-92153989D01*
X226184364Y-91963833D01*
X226184460Y-91950144D01*
X226184460Y-91437856D01*
X226165788Y-91247421D01*
X226110482Y-91064239D01*
X226089288Y-91024378D01*
X227982983Y-91024378D01*
X228981000Y-92022395D01*
X229979017Y-91024378D01*
X233062983Y-91024378D01*
X234061000Y-92022395D01*
X235059017Y-91024378D01*
X234918675Y-90805446D01*
X234629741Y-90664957D01*
X234318950Y-90583535D01*
X233998247Y-90564310D01*
X233679956Y-90608020D01*
X233376307Y-90712986D01*
X233203325Y-90805446D01*
X233062983Y-91024378D01*
X229979017Y-91024378D01*
X229838675Y-90805446D01*
X229549741Y-90664957D01*
X229238950Y-90583535D01*
X228918247Y-90564310D01*
X228599956Y-90608020D01*
X228296307Y-90712986D01*
X228123325Y-90805446D01*
X227982983Y-91024378D01*
X226089288Y-91024378D01*
X226020649Y-90895289D01*
X225899712Y-90747004D01*
X225752275Y-90625034D01*
X225583956Y-90534024D01*
X225401165Y-90477441D01*
X225210865Y-90457440D01*
X225020304Y-90474782D01*
X224836741Y-90528808D01*
X224667167Y-90617459D01*
X224518042Y-90737358D01*
X224395046Y-90883940D01*
X224302863Y-91051620D01*
X224245005Y-91234011D01*
X224223676Y-91424167D01*
X224223580Y-91437856D01*
X224182940Y-91437856D01*
X224164268Y-91247421D01*
X224108962Y-91064239D01*
X224019129Y-90895289D01*
X223898192Y-90747004D01*
X223750755Y-90625034D01*
X223582436Y-90534024D01*
X223399645Y-90477441D01*
X223209345Y-90457440D01*
X223018784Y-90474782D01*
X222835221Y-90528808D01*
X222665647Y-90617459D01*
X222516522Y-90737358D01*
X222393526Y-90883940D01*
X222301343Y-91051620D01*
X222243485Y-91234011D01*
X222222156Y-91424167D01*
X222222060Y-91437856D01*
X222178769Y-91437856D01*
X222196462Y-91410867D01*
X222170907Y-91217291D01*
X222108078Y-91032420D01*
X222010390Y-90863359D01*
X221881597Y-90716604D01*
X221726648Y-90597795D01*
X221551498Y-90511498D01*
X221478499Y-90503466D01*
X221327980Y-90567778D01*
X221073980Y-90567778D01*
X220923461Y-90503466D01*
X220850462Y-90511498D01*
X220675312Y-90597795D01*
X220520363Y-90716604D01*
X220391570Y-90863359D01*
X220293882Y-91032420D01*
X220231053Y-91217291D01*
X220205498Y-91410867D01*
X220179794Y-91410867D01*
X220163768Y-91247421D01*
X220108462Y-91064239D01*
X220018629Y-90895289D01*
X219897692Y-90747004D01*
X219750255Y-90625034D01*
X219581936Y-90534024D01*
X219399145Y-90477441D01*
X219208845Y-90457440D01*
X219018284Y-90474782D01*
X218834721Y-90528808D01*
X218665147Y-90617459D01*
X218516022Y-90737358D01*
X218393026Y-90883940D01*
X218300843Y-91051620D01*
X218242985Y-91234011D01*
X218221656Y-91424167D01*
X218221560Y-91437856D01*
X218180920Y-91437856D01*
X218162248Y-91247421D01*
X218106942Y-91064239D01*
X218017109Y-90895289D01*
X217896172Y-90747004D01*
X217748735Y-90625034D01*
X217580416Y-90534024D01*
X217397625Y-90477441D01*
X217207325Y-90457440D01*
X217016764Y-90474782D01*
X216833201Y-90528808D01*
X216663627Y-90617459D01*
X216514502Y-90737358D01*
X216391506Y-90883940D01*
X216299323Y-91051620D01*
X216241465Y-91234011D01*
X216220136Y-91424167D01*
X216220040Y-91437856D01*
X216181243Y-91437856D01*
X216181243Y-90844370D01*
X216176405Y-90783697D01*
X216144536Y-90680790D01*
X216085260Y-90590835D01*
X216003270Y-90520955D01*
X215905058Y-90476684D01*
X215798400Y-90461527D01*
X214599520Y-90461527D01*
X214538847Y-90466365D01*
X214435940Y-90498234D01*
X214345985Y-90557510D01*
X214276105Y-90639500D01*
X214231834Y-90737712D01*
X214216677Y-90844370D01*
X199911101Y-90844370D01*
X199831692Y-90747004D01*
X199684255Y-90625034D01*
X199515936Y-90534024D01*
X199333145Y-90477441D01*
X199142845Y-90457440D01*
X198952284Y-90474782D01*
X198768721Y-90528808D01*
X198599147Y-90617459D01*
X198450022Y-90737358D01*
X198327026Y-90883940D01*
X198234843Y-91051620D01*
X198176985Y-91234011D01*
X198155656Y-91424167D01*
X198155560Y-91437856D01*
X198117460Y-91437856D01*
X198098788Y-91247421D01*
X198043482Y-91064239D01*
X197953649Y-90895289D01*
X197832712Y-90747004D01*
X197685275Y-90625034D01*
X197516956Y-90534024D01*
X197334165Y-90477441D01*
X197143865Y-90457440D01*
X196953304Y-90474782D01*
X196769741Y-90528808D01*
X196600167Y-90617459D01*
X196451042Y-90737358D01*
X196328046Y-90883940D01*
X196235863Y-91051620D01*
X196178005Y-91234011D01*
X196156676Y-91424167D01*
X196156580Y-91437856D01*
X196118480Y-91437856D01*
X196099808Y-91247421D01*
X196044502Y-91064239D01*
X195954669Y-90895289D01*
X195833732Y-90747004D01*
X195686295Y-90625034D01*
X195517976Y-90534024D01*
X195335185Y-90477441D01*
X195144885Y-90457440D01*
X194954324Y-90474782D01*
X194770761Y-90528808D01*
X194601187Y-90617459D01*
X194452062Y-90737358D01*
X194329066Y-90883940D01*
X194236883Y-91051620D01*
X194179025Y-91234011D01*
X194157696Y-91424167D01*
X194157600Y-91437856D01*
X194116960Y-91437856D01*
X194098288Y-91247421D01*
X194042982Y-91064239D01*
X193953149Y-90895289D01*
X193832212Y-90747004D01*
X193684775Y-90625034D01*
X193516456Y-90534024D01*
X193333665Y-90477441D01*
X193143365Y-90457440D01*
X192952804Y-90474782D01*
X192769241Y-90528808D01*
X192599667Y-90617459D01*
X192450542Y-90737358D01*
X192327546Y-90883940D01*
X192235363Y-91051620D01*
X192177505Y-91234011D01*
X192156176Y-91424167D01*
X192156080Y-91437856D01*
X192112900Y-91437856D01*
X192094228Y-91247421D01*
X192038922Y-91064239D01*
X191949089Y-90895289D01*
X191828152Y-90747004D01*
X191680715Y-90625034D01*
X191512396Y-90534024D01*
X191329605Y-90477441D01*
X191139305Y-90457440D01*
X190948744Y-90474782D01*
X190765181Y-90528808D01*
X190595607Y-90617459D01*
X190446482Y-90737358D01*
X190323486Y-90883940D01*
X190231303Y-91051620D01*
X190173445Y-91234011D01*
X190152116Y-91424167D01*
X190152020Y-91437856D01*
X190113920Y-91437856D01*
X190095248Y-91247421D01*
X190039942Y-91064239D01*
X189950109Y-90895289D01*
X189829172Y-90747004D01*
X189681735Y-90625034D01*
X189513416Y-90534024D01*
X189330625Y-90477441D01*
X189140325Y-90457440D01*
X188949764Y-90474782D01*
X188766201Y-90528808D01*
X188596627Y-90617459D01*
X188447502Y-90737358D01*
X188324506Y-90883940D01*
X188232323Y-91051620D01*
X188174465Y-91234011D01*
X188153136Y-91424167D01*
X188153040Y-91437856D01*
X188112400Y-91437856D01*
X188093728Y-91247421D01*
X188038422Y-91064239D01*
X187948589Y-90895289D01*
X187827652Y-90747004D01*
X187680215Y-90625034D01*
X187511896Y-90534024D01*
X187329105Y-90477441D01*
X187138805Y-90457440D01*
X186948244Y-90474782D01*
X186764681Y-90528808D01*
X186595107Y-90617459D01*
X186445982Y-90737358D01*
X186322986Y-90883940D01*
X186230803Y-91051620D01*
X186172945Y-91234011D01*
X186151616Y-91424167D01*
X186151520Y-91437856D01*
X186110880Y-91437856D01*
X186110880Y-90806845D01*
X186096238Y-90733236D01*
X186067518Y-90663899D01*
X186025822Y-90601496D01*
X185972753Y-90548428D01*
X185910351Y-90506732D01*
X185841013Y-90478012D01*
X185767405Y-90463370D01*
X185352690Y-90463370D01*
X185257440Y-90558620D01*
X185003440Y-90558620D01*
X184908190Y-90463370D01*
X184493475Y-90463370D01*
X184419867Y-90478012D01*
X184350529Y-90506732D01*
X184288127Y-90548428D01*
X184235058Y-90601496D01*
X184193362Y-90663899D01*
X184164642Y-90733236D01*
X184150000Y-90806845D01*
X181338497Y-90806845D01*
X181289692Y-90747004D01*
X181142255Y-90625034D01*
X180973936Y-90534024D01*
X180791145Y-90477441D01*
X180600845Y-90457440D01*
X180410284Y-90474782D01*
X180226721Y-90528808D01*
X180057147Y-90617459D01*
X179908022Y-90737358D01*
X179785026Y-90883940D01*
X179692843Y-91051620D01*
X179634985Y-91234011D01*
X179613656Y-91424167D01*
X179613560Y-91437856D01*
X179575460Y-91437856D01*
X179556788Y-91247421D01*
X179501482Y-91064239D01*
X179411649Y-90895289D01*
X179290712Y-90747004D01*
X179143275Y-90625034D01*
X178974956Y-90534024D01*
X178792165Y-90477441D01*
X178601865Y-90457440D01*
X178411304Y-90474782D01*
X178227741Y-90528808D01*
X178058167Y-90617459D01*
X177909042Y-90737358D01*
X177786046Y-90883940D01*
X177693863Y-91051620D01*
X177636005Y-91234011D01*
X177614676Y-91424167D01*
X177614580Y-91437856D01*
X177573940Y-91437856D01*
X177555268Y-91247421D01*
X177499962Y-91064239D01*
X177410129Y-90895289D01*
X177289192Y-90747004D01*
X177141755Y-90625034D01*
X176973436Y-90534024D01*
X176790645Y-90477441D01*
X176600345Y-90457440D01*
X176409784Y-90474782D01*
X176226221Y-90528808D01*
X176056647Y-90617459D01*
X175907522Y-90737358D01*
X175784526Y-90883940D01*
X175692343Y-91051620D01*
X175634485Y-91234011D01*
X175613156Y-91424167D01*
X175613060Y-91437856D01*
X175572420Y-91437856D01*
X175572420Y-90806845D01*
X175557778Y-90733236D01*
X175529058Y-90663899D01*
X175487362Y-90601496D01*
X175434293Y-90548428D01*
X175371891Y-90506732D01*
X175302553Y-90478012D01*
X175228945Y-90463370D01*
X174814230Y-90463370D01*
X174718980Y-90558620D01*
X174464980Y-90558620D01*
X174369730Y-90463370D01*
X173955015Y-90463370D01*
X173881407Y-90478012D01*
X173812069Y-90506732D01*
X173749667Y-90548428D01*
X173696598Y-90601496D01*
X173654902Y-90663899D01*
X173626182Y-90733236D01*
X173611540Y-90806845D01*
X172456000Y-90806845D01*
X172456000Y-89956000D01*
X235544000Y-89956000D01*
X235544000Y-91506055D01*
M02*
