G04 #@! TF.FileFunction,Copper,L4,Bot,Signal*
%FSLAX46Y46*%
G04 Gerber Fmt 4.6, Leading zero omitted, Abs format (unit mm)*
G04 Created by KiCad (PCBNEW (2015-09-15 BZR 6201)-product) date tor 18 feb 2016 12:46:51*
%MOMM*%
G01*
G04 APERTURE LIST*
%ADD10C,0.100000*%
%ADD11C,6.000000*%
%ADD12C,2.500000*%
%ADD13R,1.699260X1.198880*%
%ADD14O,1.699260X1.198880*%
%ADD15O,1.198880X1.699260*%
%ADD16R,1.198880X1.699260*%
%ADD17C,0.500000*%
%ADD18C,0.406400*%
%ADD19C,0.350520*%
%ADD20C,0.254000*%
%ADD21C,0.203200*%
%ADD22C,0.304800*%
G04 APERTURE END LIST*
D10*
D11*
X230000000Y-112500000D03*
D12*
X231521000Y-94742000D03*
X228981000Y-92202000D03*
X228981000Y-97282000D03*
X234061000Y-97282000D03*
X234061000Y-92202000D03*
D13*
X174244000Y-101031040D03*
D14*
X174244000Y-97028000D03*
X174244000Y-99029520D03*
D15*
X197137020Y-91694000D03*
X195138040Y-91694000D03*
X193136520Y-91694000D03*
D16*
X185130440Y-91694000D03*
D15*
X189133480Y-91694000D03*
X187131960Y-91694000D03*
X191132460Y-91694000D03*
X199136000Y-91694000D03*
D16*
X215198960Y-91694000D03*
D15*
X219202000Y-91694000D03*
X217200480Y-91694000D03*
X221200980Y-91694000D03*
X223202500Y-91694000D03*
X225204020Y-91694000D03*
D16*
X174591980Y-91694000D03*
D15*
X178595020Y-91694000D03*
X176593500Y-91694000D03*
X180594000Y-91694000D03*
D11*
X181000000Y-112500000D03*
D16*
X207678019Y-114300000D03*
D15*
X203674979Y-114300000D03*
X205676499Y-114300000D03*
X201675999Y-114300000D03*
D17*
X176836183Y-109653183D03*
X173228000Y-109093000D03*
X199898000Y-94996000D03*
X225044000Y-109728000D03*
X224028000Y-110871000D03*
X223012000Y-111506000D03*
X222250000Y-112395000D03*
X220853000Y-112776000D03*
X221234000Y-106045000D03*
X219329000Y-107823000D03*
X225171000Y-107696000D03*
X223393000Y-107696000D03*
X224155000Y-108839000D03*
X214757000Y-109220000D03*
X214376004Y-107188000D03*
X214799000Y-108067148D03*
X214131303Y-101070697D03*
X220472000Y-102870000D03*
X220291000Y-102007816D03*
X223254000Y-100715124D03*
X223393000Y-102616000D03*
X222885000Y-102108000D03*
X223012003Y-103123997D03*
X224238196Y-105014000D03*
X225298000Y-105156000D03*
X227826000Y-99523200D03*
X227826000Y-100991375D03*
X227457000Y-104521000D03*
X227584000Y-103378000D03*
X227626000Y-102232475D03*
X228045200Y-105241000D03*
X229105543Y-105241000D03*
X229870000Y-104267000D03*
X230886000Y-104648000D03*
X231394000Y-107442000D03*
X232663996Y-107441996D03*
X221742000Y-97155000D03*
X223012000Y-98044000D03*
X223012000Y-96774000D03*
X224790000Y-96647000D03*
X224917000Y-98298000D03*
X226441000Y-98552000D03*
X226314000Y-97155000D03*
X235458000Y-98806000D03*
X235331000Y-95758000D03*
X234696000Y-94869000D03*
X235204000Y-93599000D03*
X235204000Y-90424000D03*
X233807000Y-90170000D03*
X231394000Y-90170000D03*
X232410000Y-91186000D03*
X231267000Y-91948000D03*
X230886000Y-91059000D03*
X230124000Y-90170000D03*
X228600000Y-90170000D03*
X226949000Y-91567000D03*
X227965000Y-94107000D03*
X228092000Y-94996000D03*
X196723000Y-105283000D03*
X194310000Y-105283000D03*
X194310000Y-106299000D03*
X193167000Y-108077000D03*
X191897000Y-101346000D03*
X193675000Y-100203000D03*
X194056000Y-102743000D03*
X190627000Y-105156000D03*
X191389000Y-102616000D03*
X215138000Y-103124000D03*
X215773000Y-101981000D03*
X216916000Y-101981000D03*
X216916000Y-103378000D03*
X217932000Y-103378000D03*
X218186000Y-102108000D03*
X219329000Y-102616000D03*
X219075000Y-103886000D03*
X217805000Y-104521000D03*
X216408000Y-104394000D03*
X215138000Y-104521000D03*
X213868000Y-104394000D03*
X213614000Y-103632000D03*
X218313000Y-109982000D03*
X216662000Y-109601000D03*
X215392000Y-109347000D03*
X216662000Y-108458000D03*
X217805000Y-108585000D03*
X218821000Y-108839000D03*
X217551000Y-107569000D03*
X216154000Y-107569000D03*
X223774000Y-103886000D03*
X225298000Y-103886000D03*
X224663000Y-103124000D03*
X225298000Y-102362000D03*
X225171000Y-101092000D03*
X222758000Y-101473000D03*
X223901000Y-101473000D03*
X224282000Y-100330000D03*
X225171000Y-100203000D03*
X231902000Y-104648000D03*
X230632000Y-103378000D03*
X228854000Y-103632000D03*
X228981000Y-102235000D03*
X230505000Y-102489000D03*
X230759000Y-101473000D03*
X228854000Y-100838000D03*
X228981000Y-99314000D03*
X229489000Y-100203000D03*
X230505000Y-100330000D03*
X230505000Y-99187000D03*
X227076000Y-107569000D03*
X227838000Y-108458000D03*
X228854000Y-107442000D03*
X229616000Y-108204000D03*
X230251000Y-107442000D03*
X232156000Y-108458000D03*
X233045000Y-108585000D03*
X234188000Y-107442000D03*
X235077000Y-106934000D03*
X234569000Y-105918000D03*
X234950000Y-105029000D03*
X234442000Y-104013000D03*
X235077000Y-103124000D03*
X234696000Y-101600000D03*
X233680000Y-102743000D03*
X232791000Y-101854000D03*
X233045000Y-100711000D03*
X234823000Y-100584000D03*
X234696000Y-99441000D03*
X232664000Y-99568000D03*
X231013000Y-108331000D03*
X212217000Y-99695000D03*
X194183000Y-97028000D03*
X194644180Y-110460758D03*
X179578000Y-107315000D03*
X183896000Y-99187000D03*
X189865000Y-103759000D03*
X185166000Y-107823000D03*
X185928000Y-109728000D03*
X193548000Y-109220000D03*
X212979000Y-112649000D03*
X216154000Y-112903000D03*
X220641000Y-106614000D03*
X221891000Y-106614000D03*
X221891000Y-105364000D03*
X220641000Y-105364000D03*
X209931000Y-106045000D03*
X202438000Y-103632000D03*
X202819000Y-105537000D03*
X213741000Y-102743000D03*
X210731500Y-106882500D03*
X209056500Y-106882500D03*
X209056500Y-105207500D03*
X210731500Y-105207500D03*
X212217000Y-100838000D03*
X212979000Y-99060000D03*
X209804000Y-98933000D03*
X201422000Y-105410000D03*
X186055000Y-98171000D03*
X193675000Y-110363000D03*
X189103000Y-105664000D03*
X180721000Y-107188000D03*
X177927000Y-105791000D03*
X213614000Y-109474000D03*
X210439000Y-110363000D03*
X194818000Y-100965000D03*
X226187000Y-99314000D03*
X221996000Y-98933000D03*
X209677000Y-96774000D03*
X201295000Y-94742000D03*
X179324000Y-94615000D03*
X211328000Y-102240427D03*
X211201000Y-100457000D03*
X201549000Y-110617000D03*
X220218000Y-112141000D03*
X196781459Y-108785922D03*
X204724000Y-109855000D03*
X220853000Y-109347000D03*
X206554509Y-106980820D03*
X199498177Y-106476763D03*
X196261820Y-109221127D03*
X221488000Y-109982000D03*
X207010000Y-109855000D03*
X192913000Y-106299000D03*
X196079098Y-99409464D03*
X195319770Y-100439005D03*
X196820351Y-108082929D03*
X209640098Y-110046915D03*
X197586302Y-107984241D03*
X209042000Y-109728000D03*
X197993000Y-107441998D03*
X207264000Y-108712000D03*
X199246662Y-105710820D03*
X209804000Y-102235000D03*
X200794356Y-104640644D03*
X205232000Y-105283000D03*
X199723266Y-104474180D03*
X207899000Y-103043820D03*
X198882018Y-104058368D03*
X205867000Y-104902000D03*
X199243478Y-103199976D03*
X206375000Y-104394000D03*
X182372000Y-100584000D03*
X182118000Y-102616000D03*
X199136000Y-113792000D03*
X197993000Y-101981000D03*
X197358000Y-101473000D03*
X195580000Y-113157000D03*
X185039000Y-115189000D03*
X176784000Y-115062000D03*
X176479179Y-113529428D03*
X186055000Y-112776000D03*
X192405000Y-112268000D03*
X188595000Y-113919000D03*
X188595000Y-114935000D03*
X193167000Y-112522000D03*
D18*
X176776684Y-109593684D02*
X176836183Y-109653183D01*
X175500030Y-108317030D02*
X176776684Y-109593684D01*
X174494190Y-97028000D02*
X175500030Y-98033840D01*
X175500030Y-98033840D02*
X175500030Y-108317030D01*
X174244000Y-97028000D02*
X174494190Y-97028000D01*
X176276000Y-109093000D02*
X176776684Y-109593684D01*
X173228000Y-109093000D02*
X176276000Y-109093000D01*
X180213000Y-96012000D02*
X180594000Y-95631000D01*
X180594000Y-95631000D02*
X180594000Y-91694000D01*
X176516030Y-96012000D02*
X180213000Y-96012000D01*
X174244000Y-97028000D02*
X175500030Y-97028000D01*
X175500030Y-97028000D02*
X176516030Y-96012000D01*
D19*
X225044000Y-109728000D02*
X224155000Y-108839000D01*
X223012000Y-111506000D02*
X223393000Y-111506000D01*
X223393000Y-111506000D02*
X224028000Y-110871000D01*
X220853000Y-112776000D02*
X221869000Y-112776000D01*
X221869000Y-112776000D02*
X222250000Y-112395000D01*
D20*
X219079001Y-108072999D02*
X219329000Y-107823000D01*
X218821000Y-108331000D02*
X219079001Y-108072999D01*
X218821000Y-108839000D02*
X218821000Y-108331000D01*
X225298000Y-107569000D02*
X225171000Y-107696000D01*
X227076000Y-107569000D02*
X225298000Y-107569000D01*
X224155000Y-108458000D02*
X223642999Y-107945999D01*
X224155000Y-108839000D02*
X224155000Y-108458000D01*
X223642999Y-107945999D02*
X223393000Y-107696000D01*
D21*
X215392000Y-109347000D02*
X214884000Y-109347000D01*
X214884000Y-109347000D02*
X214757000Y-109220000D01*
X214799000Y-108067148D02*
X214376004Y-107644152D01*
X214376004Y-107541553D02*
X214376004Y-107188000D01*
X214376004Y-107644152D02*
X214376004Y-107541553D01*
X215773000Y-101981000D02*
X215041606Y-101981000D01*
X215041606Y-101981000D02*
X214131303Y-101070697D01*
X220291000Y-102007816D02*
X220291000Y-102689000D01*
X220291000Y-102689000D02*
X220472000Y-102870000D01*
X223901000Y-101473000D02*
X223901000Y-101362124D01*
X223901000Y-101362124D02*
X223254000Y-100715124D01*
X223393000Y-102616000D02*
X223003998Y-102616000D01*
X222885000Y-102616000D02*
X223003998Y-102616000D01*
D20*
X223138997Y-103123997D02*
X223012003Y-103123997D01*
X223393000Y-103378000D02*
X223138997Y-103123997D01*
D21*
X225298000Y-103886000D02*
X225298000Y-105156000D01*
X228981000Y-99314000D02*
X228035200Y-99314000D01*
X228035200Y-99314000D02*
X227826000Y-99523200D01*
X228854000Y-100838000D02*
X227979375Y-100838000D01*
X227979375Y-100838000D02*
X227826000Y-100991375D01*
X227842001Y-104271001D02*
X227965000Y-104394000D01*
X227457000Y-104521000D02*
X227706999Y-104271001D01*
X227706999Y-104271001D02*
X227842001Y-104271001D01*
X229870000Y-104267000D02*
X229870000Y-104476543D01*
X229870000Y-104476543D02*
X229105543Y-105241000D01*
D20*
X229870000Y-104140000D02*
X229870000Y-104267000D01*
X230632000Y-103378000D02*
X229870000Y-104140000D01*
D21*
X231394000Y-107442000D02*
X231643999Y-107192001D01*
X231643999Y-107192001D02*
X231779001Y-107192001D01*
D20*
X232663996Y-107795549D02*
X232663996Y-107441996D01*
X232156000Y-108458000D02*
X232663996Y-107950004D01*
X232663996Y-107950004D02*
X232663996Y-107795549D01*
X223012000Y-96774000D02*
X223012000Y-98044000D01*
X224917000Y-98298000D02*
X224917000Y-96774000D01*
X224917000Y-96774000D02*
X224790000Y-96647000D01*
X226314000Y-97155000D02*
X226314000Y-98425000D01*
X226314000Y-98425000D02*
X226441000Y-98552000D01*
X235331000Y-95758000D02*
X235331000Y-98679000D01*
X235331000Y-98679000D02*
X235458000Y-98806000D01*
X235204000Y-93599000D02*
X235204000Y-94361000D01*
X235204000Y-94361000D02*
X234696000Y-94869000D01*
X233807000Y-90170000D02*
X234950000Y-90170000D01*
X234950000Y-90170000D02*
X235204000Y-90424000D01*
X232410000Y-91186000D02*
X231394000Y-90170000D01*
X230886000Y-91059000D02*
X230886000Y-91567000D01*
X230886000Y-91567000D02*
X231267000Y-91948000D01*
X228600000Y-90170000D02*
X230124000Y-90170000D01*
X228981000Y-92202000D02*
X227731001Y-90952001D01*
X227731001Y-90952001D02*
X227563999Y-90952001D01*
X227563999Y-90952001D02*
X226949000Y-91567000D01*
X227965000Y-94107000D02*
X227965000Y-93218000D01*
X227965000Y-93218000D02*
X228981000Y-92202000D01*
X228981000Y-97282000D02*
X228981000Y-95514234D01*
X228981000Y-95514234D02*
X228462766Y-94996000D01*
X228462766Y-94996000D02*
X228092000Y-94996000D01*
X196723000Y-105283000D02*
X196723000Y-105156000D01*
X196723000Y-105156000D02*
X196850000Y-105029000D01*
X194310000Y-106299000D02*
X194310000Y-105283000D01*
X190627000Y-105156000D02*
X190627000Y-105537000D01*
X190627000Y-105537000D02*
X193167000Y-108077000D01*
X191897000Y-101346000D02*
X191897000Y-102108000D01*
X191897000Y-102108000D02*
X191389000Y-102616000D01*
X194056000Y-102743000D02*
X194056000Y-100584000D01*
X194056000Y-100584000D02*
X193675000Y-100203000D01*
X191389000Y-102616000D02*
X191389000Y-104394000D01*
X191389000Y-104394000D02*
X190627000Y-105156000D01*
X215138000Y-103124000D02*
X214122000Y-103124000D01*
X214122000Y-103124000D02*
X213741000Y-102743000D01*
X216916000Y-101981000D02*
X215773000Y-101981000D01*
X217932000Y-103378000D02*
X216916000Y-103378000D01*
X219329000Y-102616000D02*
X218694000Y-102616000D01*
X218694000Y-102616000D02*
X218186000Y-102108000D01*
X217805000Y-104521000D02*
X218440000Y-104521000D01*
X218440000Y-104521000D02*
X219075000Y-103886000D01*
X215138000Y-104521000D02*
X216281000Y-104521000D01*
X216281000Y-104521000D02*
X216408000Y-104394000D01*
X213614000Y-103632000D02*
X213614000Y-104140000D01*
X213614000Y-104140000D02*
X213868000Y-104394000D01*
X218313000Y-109982000D02*
X218313000Y-109347000D01*
X218313000Y-109347000D02*
X218821000Y-108839000D01*
X215392000Y-109347000D02*
X216408000Y-109347000D01*
X216408000Y-109347000D02*
X216662000Y-109601000D01*
X217805000Y-108585000D02*
X216789000Y-108585000D01*
X216789000Y-108585000D02*
X216662000Y-108458000D01*
X224663000Y-103124000D02*
X224663000Y-103251000D01*
X224663000Y-103251000D02*
X225298000Y-103886000D01*
X225171000Y-101092000D02*
X225171000Y-102235000D01*
X225171000Y-102235000D02*
X225298000Y-102362000D01*
X223901000Y-101473000D02*
X222758000Y-101473000D01*
X225171000Y-100203000D02*
X224409000Y-100203000D01*
X224409000Y-100203000D02*
X224282000Y-100330000D01*
X228981000Y-102235000D02*
X228981000Y-103505000D01*
X228981000Y-103505000D02*
X228854000Y-103632000D01*
X230759000Y-101473000D02*
X230759000Y-102235000D01*
X230759000Y-102235000D02*
X230505000Y-102489000D01*
X228981000Y-99314000D02*
X228981000Y-100711000D01*
X228981000Y-100711000D02*
X228854000Y-100838000D01*
X230505000Y-100330000D02*
X229616000Y-100330000D01*
X229616000Y-100330000D02*
X229489000Y-100203000D01*
X228981000Y-97282000D02*
X228981000Y-99049766D01*
X228981000Y-99049766D02*
X229118234Y-99187000D01*
X229118234Y-99187000D02*
X230505000Y-99187000D01*
X228854000Y-107442000D02*
X227838000Y-108458000D01*
X230251000Y-107442000D02*
X230251000Y-107569000D01*
X230251000Y-107569000D02*
X229616000Y-108204000D01*
X234188000Y-107442000D02*
X233045000Y-108585000D01*
X234569000Y-105918000D02*
X234569000Y-106426000D01*
X234569000Y-106426000D02*
X235077000Y-106934000D01*
X234442000Y-104013000D02*
X234442000Y-104521000D01*
X234442000Y-104521000D02*
X234950000Y-105029000D01*
X234696000Y-101600000D02*
X234696000Y-102743000D01*
X234696000Y-102743000D02*
X235077000Y-103124000D01*
X232791000Y-101854000D02*
X233680000Y-102743000D01*
X234823000Y-100584000D02*
X233172000Y-100584000D01*
X233172000Y-100584000D02*
X233045000Y-100711000D01*
X232664000Y-99568000D02*
X234569000Y-99568000D01*
X234569000Y-99568000D02*
X234696000Y-99441000D01*
D22*
X207136528Y-106426000D02*
X207136528Y-105410472D01*
X211636798Y-102942202D02*
X212217000Y-102362000D01*
X207136528Y-105410472D02*
X209604798Y-102942202D01*
X209604798Y-102942202D02*
X211636798Y-102942202D01*
X212217000Y-102362000D02*
X212217000Y-101191553D01*
X212217000Y-101191553D02*
X212217000Y-100838000D01*
D20*
X207136528Y-106426000D02*
X202438000Y-106426000D01*
X207264000Y-106426000D02*
X207136528Y-106426000D01*
D22*
X209804000Y-98933000D02*
X212852000Y-98933000D01*
X212852000Y-98933000D02*
X212979000Y-99060000D01*
D20*
X202438000Y-106426000D02*
X201422000Y-105410000D01*
X210439000Y-109601000D02*
X207264000Y-106426000D01*
X210439000Y-110363000D02*
X210439000Y-109601000D01*
D18*
X180721000Y-105537000D02*
X186055000Y-100203000D01*
X186055000Y-100203000D02*
X186055000Y-98171000D01*
X180721000Y-107188000D02*
X180721000Y-105537000D01*
X180721000Y-107188000D02*
X187579000Y-107188000D01*
X187579000Y-107188000D02*
X189103000Y-105664000D01*
D20*
X189103000Y-105664000D02*
X189103000Y-106017553D01*
X193615892Y-110363000D02*
X193675000Y-110363000D01*
X189103000Y-106017553D02*
X193448447Y-110363000D01*
X193448447Y-110363000D02*
X193615892Y-110363000D01*
D18*
X177927000Y-105791000D02*
X179324000Y-105791000D01*
X179324000Y-105791000D02*
X180721000Y-107188000D01*
D20*
X210439000Y-110363000D02*
X211328000Y-109474000D01*
X211328000Y-109474000D02*
X213614000Y-109474000D01*
X216296239Y-92848431D02*
X217200480Y-91944190D01*
X194568001Y-97790991D02*
X199510561Y-92848431D01*
X199510561Y-92848431D02*
X216296239Y-92848431D01*
X194568001Y-100715001D02*
X194568001Y-97790991D01*
X217200480Y-91944190D02*
X217200480Y-91694000D01*
X194818000Y-100965000D02*
X194568001Y-100715001D01*
D22*
X225171000Y-99314000D02*
X226187000Y-99314000D01*
X222377000Y-99314000D02*
X225171000Y-99314000D01*
X221996000Y-98933000D02*
X222377000Y-99314000D01*
D18*
X201295000Y-94742000D02*
X203327000Y-96774000D01*
X203327000Y-96774000D02*
X209677000Y-96774000D01*
D22*
X179324000Y-94615000D02*
X179324000Y-92422980D01*
X179324000Y-92422980D02*
X178595020Y-91694000D01*
D20*
X211201000Y-102113427D02*
X211328000Y-102240427D01*
X211201000Y-100457000D02*
X211201000Y-102113427D01*
X220218000Y-112141000D02*
X220091000Y-112014000D01*
X220091000Y-112014000D02*
X208534000Y-112014000D01*
X208534000Y-112014000D02*
X207645000Y-111125000D01*
X207645000Y-111125000D02*
X202057000Y-111125000D01*
X202057000Y-111125000D02*
X201549000Y-110617000D01*
X197031458Y-109035921D02*
X196781459Y-108785922D01*
X197139348Y-109143811D02*
X197031458Y-109035921D01*
X204724000Y-109855000D02*
X204012811Y-109143811D01*
X204012811Y-109143811D02*
X197139348Y-109143811D01*
X204973999Y-109605001D02*
X204724000Y-109855000D01*
X205312199Y-109266801D02*
X204973999Y-109605001D01*
X220853000Y-109347000D02*
X219202000Y-110998000D01*
X219202000Y-110998000D02*
X209042000Y-110998000D01*
X207310801Y-109266801D02*
X205312199Y-109266801D01*
X209042000Y-110998000D02*
X207310801Y-109266801D01*
X206200956Y-106980820D02*
X206554509Y-106980820D01*
X200002234Y-106980820D02*
X206200956Y-106980820D01*
X199498177Y-106476763D02*
X200002234Y-106980820D01*
X206429812Y-110435188D02*
X203751578Y-110435188D01*
X203040389Y-109723999D02*
X196764692Y-109723999D01*
X207010000Y-109855000D02*
X206429812Y-110435188D01*
X196764692Y-109723999D02*
X196511819Y-109471126D01*
X196511819Y-109471126D02*
X196261820Y-109221127D01*
X203751578Y-110435188D02*
X203040389Y-109723999D01*
X207010000Y-109855000D02*
X208661000Y-111506000D01*
X208661000Y-111506000D02*
X219964000Y-111506000D01*
X219964000Y-111506000D02*
X221488000Y-109982000D01*
X192913000Y-106299000D02*
X192913000Y-99187000D01*
X192913000Y-99187000D02*
X187985400Y-94259400D01*
X187985400Y-94259400D02*
X187985400Y-92797630D01*
X187985400Y-92797630D02*
X187131960Y-91944190D01*
X187131960Y-91944190D02*
X187131960Y-91694000D01*
X219202000Y-91694000D02*
X219202000Y-91944190D01*
X196079098Y-99055911D02*
X196079098Y-99409464D01*
X196079098Y-96890566D02*
X196079098Y-99055911D01*
X199689422Y-93280242D02*
X196079098Y-96890566D01*
X217865948Y-93280242D02*
X199689422Y-93280242D01*
X219202000Y-91944190D02*
X217865948Y-93280242D01*
X199868283Y-93712053D02*
X196633899Y-96946437D01*
X195673323Y-100439005D02*
X195319770Y-100439005D01*
X221434637Y-93712053D02*
X199868283Y-93712053D01*
X195870663Y-100439005D02*
X195673323Y-100439005D01*
X196633899Y-96946437D02*
X196633899Y-99675769D01*
X223202500Y-91694000D02*
X223202500Y-91944190D01*
X223202500Y-91944190D02*
X221434637Y-93712053D01*
X196633899Y-99675769D02*
X195870663Y-100439005D01*
X199763376Y-107526596D02*
X198565167Y-106328387D01*
X196820351Y-107729376D02*
X196820351Y-108082929D01*
X206279179Y-107526596D02*
X199763376Y-107526596D01*
X196820351Y-106709649D02*
X196820351Y-107729376D01*
X197201613Y-106328387D02*
X196820351Y-106709649D01*
X198565167Y-106328387D02*
X197201613Y-106328387D01*
X207670727Y-107535621D02*
X206288204Y-107535621D01*
X209640098Y-109504992D02*
X207670727Y-107535621D01*
X209640098Y-110046915D02*
X209640098Y-109504992D01*
X206288204Y-107535621D02*
X206279179Y-107526596D01*
X209042000Y-109728000D02*
X208792001Y-109478001D01*
X197336303Y-107082697D02*
X197336303Y-107734242D01*
X206100318Y-107958407D02*
X199584515Y-107958407D01*
X197658802Y-106760198D02*
X197336303Y-107082697D01*
X197336303Y-107734242D02*
X197586302Y-107984241D01*
X206109343Y-107967432D02*
X206100318Y-107958407D01*
X207340540Y-107967432D02*
X206109343Y-107967432D01*
X198386306Y-106760198D02*
X197658802Y-106760198D01*
X199584515Y-107958407D02*
X198386306Y-106760198D01*
X208792001Y-109478001D02*
X208792001Y-109418893D01*
X208792001Y-109418893D02*
X207340540Y-107967432D01*
X199263002Y-108712000D02*
X198242999Y-107691997D01*
X198242999Y-107691997D02*
X197993000Y-107441998D01*
X207264000Y-108712000D02*
X199263002Y-108712000D01*
X209554001Y-101985001D02*
X199026675Y-101985001D01*
X197895387Y-103116289D02*
X197895387Y-104713098D01*
X199026675Y-101985001D02*
X197895387Y-103116289D01*
X198893109Y-105710820D02*
X199246662Y-105710820D01*
X197895387Y-104713098D02*
X198893109Y-105710820D01*
X209804000Y-102235000D02*
X209554001Y-101985001D01*
X205232000Y-105283000D02*
X204589644Y-104640644D01*
X204589644Y-104640644D02*
X201147909Y-104640644D01*
X201147909Y-104640644D02*
X200794356Y-104640644D01*
X198327198Y-103295150D02*
X198327198Y-104406306D01*
X198645071Y-104724179D02*
X199473267Y-104724179D01*
X207899000Y-103043820D02*
X207500355Y-102645175D01*
X198977173Y-102645175D02*
X198327198Y-103295150D01*
X207500355Y-102645175D02*
X198977173Y-102645175D01*
X198327198Y-104406306D02*
X198645071Y-104724179D01*
X199473267Y-104724179D02*
X199723266Y-104474180D01*
X205867000Y-104902000D02*
X205151801Y-104186801D01*
X202171695Y-104186801D02*
X201793263Y-103808369D01*
X199132017Y-103808369D02*
X198882018Y-104058368D01*
X205151801Y-104186801D02*
X202171695Y-104186801D01*
X201793263Y-103808369D02*
X199132017Y-103808369D01*
X199597031Y-103199976D02*
X199243478Y-103199976D01*
X202048918Y-103199976D02*
X199597031Y-103199976D01*
X202171695Y-103077199D02*
X202048918Y-103199976D01*
X205058199Y-103077199D02*
X202171695Y-103077199D01*
X206375000Y-104394000D02*
X205058199Y-103077199D01*
X182122001Y-100833999D02*
X182372000Y-100584000D01*
X182118000Y-100838000D02*
X182122001Y-100833999D01*
X182118000Y-102616000D02*
X182118000Y-100838000D01*
X197993000Y-101981000D02*
X197739000Y-101981000D01*
X197739000Y-101981000D02*
X195326000Y-104394000D01*
X195326000Y-104394000D02*
X195326000Y-109474000D01*
X195326000Y-109474000D02*
X196342000Y-110490000D01*
X196342000Y-110490000D02*
X196342000Y-112522000D01*
X196342000Y-112522000D02*
X197612000Y-113792000D01*
X197612000Y-113792000D02*
X199136000Y-113792000D01*
X197108001Y-101722999D02*
X197358000Y-101473000D01*
X194894189Y-109652861D02*
X194894189Y-103936811D01*
X195580000Y-113157000D02*
X195580000Y-110338672D01*
X194894189Y-103936811D02*
X197108001Y-101722999D01*
X195580000Y-110338672D02*
X194894189Y-109652861D01*
X182753000Y-108712000D02*
X185039000Y-110998000D01*
X185039000Y-110998000D02*
X185039000Y-115189000D01*
X179324000Y-108712000D02*
X182753000Y-108712000D01*
X177033999Y-111002001D02*
X179324000Y-108712000D01*
X177033999Y-114812001D02*
X177033999Y-111002001D01*
X176784000Y-115062000D02*
X177033999Y-114812001D01*
X176479179Y-113175875D02*
X176479179Y-113529428D01*
X176479179Y-110794821D02*
X176479179Y-113175875D01*
X178993811Y-108280189D02*
X176479179Y-110794821D01*
X182931861Y-108280189D02*
X178993811Y-108280189D01*
X186055000Y-111403328D02*
X182931861Y-108280189D01*
X186055000Y-112776000D02*
X186055000Y-111403328D01*
X188595000Y-113919000D02*
X190754000Y-113919000D01*
X190754000Y-113919000D02*
X192405000Y-112268000D01*
X193167000Y-112522000D02*
X190754000Y-114935000D01*
X190754000Y-114935000D02*
X188595000Y-114935000D01*
G36*
X235544000Y-91506055D02*
X235457554Y-91344325D01*
X235238622Y-91203983D01*
X234240605Y-92202000D01*
X235238622Y-93200017D01*
X235457554Y-93059675D01*
X235544000Y-92881887D01*
X235544000Y-96586055D01*
X235457554Y-96424325D01*
X235238622Y-96283983D01*
X234240605Y-97282000D01*
X235238622Y-98280017D01*
X235457554Y-98139675D01*
X235544000Y-97961887D01*
X235544000Y-116044000D01*
X172456000Y-116044000D01*
X172456000Y-109146056D01*
X172596171Y-109146056D01*
X172618509Y-109267769D01*
X172664063Y-109382824D01*
X172731097Y-109486841D01*
X172817058Y-109575856D01*
X172918671Y-109646479D01*
X173032067Y-109696020D01*
X173152926Y-109722593D01*
X173276644Y-109725184D01*
X173398509Y-109703696D01*
X173466820Y-109677200D01*
X176034016Y-109677200D01*
X176254171Y-109897355D01*
X176272246Y-109943007D01*
X176339280Y-110047024D01*
X176422441Y-110133139D01*
X176119969Y-110435611D01*
X176090203Y-110471849D01*
X176060021Y-110507818D01*
X176058733Y-110510160D01*
X176057039Y-110512223D01*
X176034869Y-110553570D01*
X176012258Y-110594699D01*
X176011451Y-110597244D01*
X176010188Y-110599599D01*
X175996463Y-110644491D01*
X175982280Y-110689202D01*
X175981982Y-110691855D01*
X175981201Y-110694411D01*
X175976455Y-110741134D01*
X175971229Y-110787728D01*
X175971192Y-110792948D01*
X175971182Y-110793048D01*
X175971191Y-110793142D01*
X175971179Y-110794821D01*
X175971179Y-113154416D01*
X175923554Y-113223971D01*
X175874806Y-113337709D01*
X175849077Y-113458751D01*
X175847350Y-113582484D01*
X175869688Y-113704197D01*
X175915242Y-113819252D01*
X175982276Y-113923269D01*
X176068237Y-114012284D01*
X176169850Y-114082907D01*
X176283246Y-114132448D01*
X176404105Y-114159021D01*
X176525999Y-114161574D01*
X176525999Y-114485655D01*
X176490246Y-114500100D01*
X176386700Y-114567858D01*
X176298287Y-114654439D01*
X176228375Y-114756543D01*
X176179627Y-114870281D01*
X176153898Y-114991323D01*
X176152171Y-115115056D01*
X176174509Y-115236769D01*
X176220063Y-115351824D01*
X176287097Y-115455841D01*
X176373058Y-115544856D01*
X176474671Y-115615479D01*
X176588067Y-115665020D01*
X176708926Y-115691593D01*
X176832644Y-115694184D01*
X176954509Y-115672696D01*
X177069880Y-115627947D01*
X177174362Y-115561641D01*
X177263975Y-115476303D01*
X177335306Y-115375185D01*
X177385638Y-115262138D01*
X177411299Y-115149188D01*
X177422975Y-115134973D01*
X177453157Y-115099004D01*
X177454445Y-115096662D01*
X177456139Y-115094599D01*
X177478309Y-115053252D01*
X177500920Y-115012123D01*
X177501727Y-115009578D01*
X177502990Y-115007223D01*
X177516715Y-114962331D01*
X177530898Y-114917620D01*
X177531196Y-114914967D01*
X177531977Y-114912411D01*
X177536723Y-114865688D01*
X177541949Y-114819094D01*
X177541986Y-114813874D01*
X177541996Y-114813774D01*
X177541987Y-114813680D01*
X177541999Y-114812001D01*
X177541999Y-111212421D01*
X178309021Y-110445399D01*
X178022872Y-110863310D01*
X177761669Y-111472741D01*
X177623814Y-112121300D01*
X177614556Y-112784284D01*
X177734249Y-113436439D01*
X177978333Y-114052926D01*
X178337512Y-114610262D01*
X178798104Y-115087219D01*
X179342566Y-115465630D01*
X179950158Y-115731080D01*
X180597739Y-115873460D01*
X181260642Y-115887346D01*
X181913617Y-115772209D01*
X182531793Y-115532434D01*
X183091623Y-115177155D01*
X183571784Y-114719904D01*
X183953986Y-114178098D01*
X184223672Y-113572373D01*
X184370570Y-112925802D01*
X184381145Y-112168476D01*
X184252358Y-111518055D01*
X183999690Y-110905037D01*
X183632765Y-110352770D01*
X183165558Y-109882290D01*
X182615866Y-109511518D01*
X182004626Y-109254576D01*
X181836185Y-109220000D01*
X182542580Y-109220000D01*
X184531000Y-111208420D01*
X184531000Y-114813988D01*
X184483375Y-114883543D01*
X184434627Y-114997281D01*
X184408898Y-115118323D01*
X184407171Y-115242056D01*
X184429509Y-115363769D01*
X184475063Y-115478824D01*
X184542097Y-115582841D01*
X184628058Y-115671856D01*
X184729671Y-115742479D01*
X184843067Y-115792020D01*
X184963926Y-115818593D01*
X185087644Y-115821184D01*
X185209509Y-115799696D01*
X185324880Y-115754947D01*
X185429362Y-115688641D01*
X185518975Y-115603303D01*
X185590306Y-115502185D01*
X185640638Y-115389138D01*
X185668053Y-115268468D01*
X185670027Y-115127127D01*
X185645991Y-115005739D01*
X185598836Y-114891330D01*
X185547000Y-114813311D01*
X185547000Y-113972056D01*
X187963171Y-113972056D01*
X187985509Y-114093769D01*
X188031063Y-114208824D01*
X188098097Y-114312841D01*
X188184058Y-114401856D01*
X188219577Y-114426542D01*
X188197700Y-114440858D01*
X188109287Y-114527439D01*
X188039375Y-114629543D01*
X187990627Y-114743281D01*
X187964898Y-114864323D01*
X187963171Y-114988056D01*
X187985509Y-115109769D01*
X188031063Y-115224824D01*
X188098097Y-115328841D01*
X188184058Y-115417856D01*
X188285671Y-115488479D01*
X188399067Y-115538020D01*
X188519926Y-115564593D01*
X188643644Y-115567184D01*
X188765509Y-115545696D01*
X188880880Y-115500947D01*
X188972190Y-115443000D01*
X190754000Y-115443000D01*
X190800704Y-115438421D01*
X190847448Y-115434331D01*
X190850014Y-115433586D01*
X190852671Y-115433325D01*
X190897556Y-115419773D01*
X190942655Y-115406671D01*
X190945029Y-115405440D01*
X190947584Y-115404669D01*
X190988977Y-115382660D01*
X191030677Y-115361045D01*
X191032766Y-115359377D01*
X191035123Y-115358124D01*
X191071509Y-115328448D01*
X191108159Y-115299190D01*
X191111874Y-115295527D01*
X191111954Y-115295462D01*
X191112015Y-115295388D01*
X191113210Y-115294210D01*
X193261283Y-113146137D01*
X193337509Y-113132696D01*
X193452880Y-113087947D01*
X193557362Y-113021641D01*
X193646975Y-112936303D01*
X193718306Y-112835185D01*
X193768638Y-112722138D01*
X193796053Y-112601468D01*
X193798027Y-112460127D01*
X193773991Y-112338739D01*
X193726836Y-112224330D01*
X193658356Y-112121260D01*
X193571161Y-112033454D01*
X193468571Y-111964256D01*
X193354495Y-111916303D01*
X193233277Y-111891420D01*
X193109534Y-111890557D01*
X192987981Y-111913744D01*
X192940095Y-111933091D01*
X192896356Y-111867260D01*
X192809161Y-111779454D01*
X192706571Y-111710256D01*
X192592495Y-111662303D01*
X192471277Y-111637420D01*
X192347534Y-111636557D01*
X192225981Y-111659744D01*
X192111246Y-111706100D01*
X192007700Y-111773858D01*
X191919287Y-111860439D01*
X191849375Y-111962543D01*
X191800627Y-112076281D01*
X191779660Y-112174919D01*
X190543580Y-113411000D01*
X188970319Y-113411000D01*
X188896571Y-113361256D01*
X188782495Y-113313303D01*
X188661277Y-113288420D01*
X188537534Y-113287557D01*
X188415981Y-113310744D01*
X188301246Y-113357100D01*
X188197700Y-113424858D01*
X188109287Y-113511439D01*
X188039375Y-113613543D01*
X187990627Y-113727281D01*
X187964898Y-113848323D01*
X187963171Y-113972056D01*
X185547000Y-113972056D01*
X185547000Y-113152622D01*
X185558097Y-113169841D01*
X185644058Y-113258856D01*
X185745671Y-113329479D01*
X185859067Y-113379020D01*
X185979926Y-113405593D01*
X186103644Y-113408184D01*
X186225509Y-113386696D01*
X186340880Y-113341947D01*
X186445362Y-113275641D01*
X186534975Y-113190303D01*
X186606306Y-113089185D01*
X186656638Y-112976138D01*
X186684053Y-112855468D01*
X186686027Y-112714127D01*
X186661991Y-112592739D01*
X186614836Y-112478330D01*
X186563000Y-112400311D01*
X186563000Y-111403328D01*
X186558425Y-111356670D01*
X186554332Y-111309881D01*
X186553585Y-111307310D01*
X186553325Y-111304657D01*
X186539782Y-111259801D01*
X186526671Y-111214673D01*
X186525440Y-111212299D01*
X186524669Y-111209744D01*
X186502649Y-111168331D01*
X186481045Y-111126652D01*
X186479379Y-111124564D01*
X186478124Y-111122205D01*
X186448455Y-111085828D01*
X186419191Y-111049169D01*
X186415523Y-111045448D01*
X186415462Y-111045374D01*
X186415393Y-111045317D01*
X186414211Y-111044118D01*
X183291071Y-107920979D01*
X183254830Y-107891210D01*
X183218864Y-107861031D01*
X183216522Y-107859743D01*
X183214459Y-107858049D01*
X183173112Y-107835879D01*
X183131983Y-107813268D01*
X183129438Y-107812461D01*
X183127083Y-107811198D01*
X183082191Y-107797473D01*
X183037480Y-107783290D01*
X183034827Y-107782992D01*
X183032271Y-107782211D01*
X182985548Y-107777465D01*
X182938954Y-107772239D01*
X182933734Y-107772202D01*
X182933713Y-107772200D01*
X187579000Y-107772200D01*
X187632701Y-107766935D01*
X187686464Y-107762231D01*
X187689415Y-107761374D01*
X187692472Y-107761074D01*
X187744113Y-107745483D01*
X187795953Y-107730422D01*
X187798682Y-107729007D01*
X187801621Y-107728120D01*
X187849275Y-107702782D01*
X187897178Y-107677951D01*
X187899576Y-107676036D01*
X187902291Y-107674593D01*
X187944115Y-107640482D01*
X187986284Y-107606819D01*
X187990564Y-107602599D01*
X187990647Y-107602531D01*
X187990711Y-107602454D01*
X187992092Y-107601092D01*
X188980105Y-106613078D01*
X193089237Y-110722210D01*
X193125475Y-110751976D01*
X193161444Y-110782158D01*
X193163786Y-110783446D01*
X193165849Y-110785140D01*
X193207196Y-110807310D01*
X193248325Y-110829921D01*
X193248822Y-110830079D01*
X193264058Y-110845856D01*
X193365671Y-110916479D01*
X193479067Y-110966020D01*
X193599926Y-110992593D01*
X193723644Y-110995184D01*
X193845509Y-110973696D01*
X193960880Y-110928947D01*
X194065362Y-110862641D01*
X194154975Y-110777303D01*
X194226306Y-110676185D01*
X194276638Y-110563138D01*
X194304053Y-110442468D01*
X194306027Y-110301127D01*
X194281991Y-110179739D01*
X194234836Y-110065330D01*
X194166356Y-109962260D01*
X194079161Y-109874454D01*
X193976571Y-109805256D01*
X193862495Y-109757303D01*
X193741277Y-109732420D01*
X193617534Y-109731557D01*
X193548578Y-109744711D01*
X189693353Y-105889486D01*
X189704638Y-105864138D01*
X189732053Y-105743468D01*
X189734027Y-105602127D01*
X189709991Y-105480739D01*
X189662836Y-105366330D01*
X189594356Y-105263260D01*
X189507161Y-105175454D01*
X189404571Y-105106256D01*
X189290495Y-105058303D01*
X189169277Y-105033420D01*
X189045534Y-105032557D01*
X188923981Y-105055744D01*
X188809246Y-105102100D01*
X188705700Y-105169858D01*
X188617287Y-105256439D01*
X188547375Y-105358543D01*
X188521198Y-105419619D01*
X187337016Y-106603800D01*
X181305200Y-106603800D01*
X181305200Y-105778984D01*
X186468092Y-100616092D01*
X186502361Y-100574372D01*
X186537031Y-100533054D01*
X186538511Y-100530362D01*
X186540461Y-100527988D01*
X186565958Y-100480437D01*
X186591959Y-100433141D01*
X186592888Y-100430212D01*
X186594339Y-100427506D01*
X186610106Y-100375934D01*
X186626434Y-100324462D01*
X186626777Y-100321407D01*
X186627674Y-100318472D01*
X186633123Y-100264829D01*
X186639143Y-100211157D01*
X186639185Y-100205147D01*
X186639196Y-100205039D01*
X186639186Y-100204938D01*
X186639200Y-100203000D01*
X186639200Y-98410304D01*
X186656638Y-98371138D01*
X186684053Y-98250468D01*
X186686027Y-98109127D01*
X186661991Y-97987739D01*
X186614836Y-97873330D01*
X186546356Y-97770260D01*
X186459161Y-97682454D01*
X186356571Y-97613256D01*
X186242495Y-97565303D01*
X186121277Y-97540420D01*
X185997534Y-97539557D01*
X185875981Y-97562744D01*
X185761246Y-97609100D01*
X185657700Y-97676858D01*
X185569287Y-97763439D01*
X185499375Y-97865543D01*
X185450627Y-97979281D01*
X185424898Y-98100323D01*
X185423171Y-98224056D01*
X185445509Y-98345769D01*
X185470800Y-98409646D01*
X185470800Y-99961016D01*
X182747205Y-102684611D01*
X182749027Y-102554127D01*
X182724991Y-102432739D01*
X182677836Y-102318330D01*
X182626000Y-102240311D01*
X182626000Y-101162312D01*
X182657880Y-101149947D01*
X182762362Y-101083641D01*
X182851975Y-100998303D01*
X182923306Y-100897185D01*
X182973638Y-100784138D01*
X183001053Y-100663468D01*
X183003027Y-100522127D01*
X182978991Y-100400739D01*
X182931836Y-100286330D01*
X182863356Y-100183260D01*
X182776161Y-100095454D01*
X182673571Y-100026256D01*
X182559495Y-99978303D01*
X182438277Y-99953420D01*
X182314534Y-99952557D01*
X182192981Y-99975744D01*
X182078246Y-100022100D01*
X181974700Y-100089858D01*
X181886287Y-100176439D01*
X181816375Y-100278543D01*
X181767627Y-100392281D01*
X181745904Y-100494478D01*
X181729024Y-100515028D01*
X181698842Y-100550997D01*
X181697554Y-100553339D01*
X181695860Y-100555402D01*
X181673690Y-100596749D01*
X181651079Y-100637878D01*
X181650272Y-100640423D01*
X181649009Y-100642778D01*
X181635284Y-100687670D01*
X181621101Y-100732381D01*
X181620803Y-100735034D01*
X181620022Y-100737590D01*
X181615276Y-100784313D01*
X181610050Y-100830907D01*
X181610013Y-100836127D01*
X181610003Y-100836227D01*
X181610012Y-100836321D01*
X181610000Y-100838000D01*
X181610000Y-102240988D01*
X181562375Y-102310543D01*
X181513627Y-102424281D01*
X181487898Y-102545323D01*
X181486171Y-102669056D01*
X181508509Y-102790769D01*
X181554063Y-102905824D01*
X181621097Y-103009841D01*
X181707058Y-103098856D01*
X181808671Y-103169479D01*
X181922067Y-103219020D01*
X182042926Y-103245593D01*
X182166644Y-103248184D01*
X182187269Y-103244547D01*
X180307908Y-105123908D01*
X180273639Y-105165628D01*
X180238969Y-105206946D01*
X180237489Y-105209638D01*
X180235539Y-105212012D01*
X180210042Y-105259563D01*
X180184041Y-105306859D01*
X180183112Y-105309788D01*
X180181661Y-105312494D01*
X180165894Y-105364066D01*
X180149566Y-105415538D01*
X180149223Y-105418593D01*
X180148326Y-105421528D01*
X180142877Y-105475171D01*
X180136857Y-105528843D01*
X180136815Y-105534853D01*
X180136804Y-105534961D01*
X180136814Y-105535062D01*
X180136800Y-105537000D01*
X180136800Y-105777616D01*
X179737092Y-105377908D01*
X179695372Y-105343639D01*
X179654054Y-105308969D01*
X179651362Y-105307489D01*
X179648988Y-105305539D01*
X179601437Y-105280042D01*
X179554141Y-105254041D01*
X179551212Y-105253112D01*
X179548506Y-105251661D01*
X179496934Y-105235894D01*
X179445462Y-105219566D01*
X179442407Y-105219223D01*
X179439472Y-105218326D01*
X179385829Y-105212877D01*
X179332157Y-105206857D01*
X179326147Y-105206815D01*
X179326039Y-105206804D01*
X179325938Y-105206814D01*
X179324000Y-105206800D01*
X178165634Y-105206800D01*
X178114495Y-105185303D01*
X177993277Y-105160420D01*
X177869534Y-105159557D01*
X177747981Y-105182744D01*
X177633246Y-105229100D01*
X177529700Y-105296858D01*
X177441287Y-105383439D01*
X177371375Y-105485543D01*
X177322627Y-105599281D01*
X177296898Y-105720323D01*
X177295171Y-105844056D01*
X177317509Y-105965769D01*
X177363063Y-106080824D01*
X177430097Y-106184841D01*
X177516058Y-106273856D01*
X177617671Y-106344479D01*
X177731067Y-106394020D01*
X177851926Y-106420593D01*
X177975644Y-106423184D01*
X178097509Y-106401696D01*
X178165820Y-106375200D01*
X179082016Y-106375200D01*
X180138988Y-107432172D01*
X180157063Y-107477824D01*
X180224097Y-107581841D01*
X180310058Y-107670856D01*
X180411671Y-107741479D01*
X180481964Y-107772189D01*
X178993811Y-107772189D01*
X178947103Y-107776769D01*
X178900364Y-107780858D01*
X178897799Y-107781603D01*
X178895140Y-107781864D01*
X178850243Y-107795419D01*
X178805156Y-107808518D01*
X178802782Y-107809749D01*
X178800227Y-107810520D01*
X178758834Y-107832529D01*
X178717134Y-107854144D01*
X178715045Y-107855812D01*
X178712688Y-107857065D01*
X178676333Y-107886716D01*
X178639652Y-107915998D01*
X178635936Y-107919663D01*
X178635857Y-107919727D01*
X178635797Y-107919800D01*
X178634601Y-107920979D01*
X177315381Y-109240199D01*
X177240344Y-109164637D01*
X177137754Y-109095439D01*
X177080596Y-109071412D01*
X176084230Y-108075046D01*
X176084230Y-98033840D01*
X176078965Y-97980139D01*
X176074261Y-97926376D01*
X176073404Y-97923425D01*
X176073104Y-97920368D01*
X176057513Y-97868727D01*
X176042452Y-97816887D01*
X176041037Y-97814158D01*
X176040150Y-97811219D01*
X176014833Y-97763604D01*
X175989982Y-97715662D01*
X175988064Y-97713260D01*
X175986623Y-97710549D01*
X175952539Y-97668758D01*
X175918850Y-97626557D01*
X175914632Y-97622280D01*
X175914561Y-97622193D01*
X175914480Y-97622126D01*
X175913122Y-97620749D01*
X175813016Y-97520643D01*
X175818208Y-97517951D01*
X175820606Y-97516036D01*
X175823321Y-97514593D01*
X175865145Y-97480482D01*
X175907314Y-97446819D01*
X175911594Y-97442599D01*
X175911677Y-97442531D01*
X175911741Y-97442454D01*
X175913122Y-97441092D01*
X176758014Y-96596200D01*
X180213000Y-96596200D01*
X180266701Y-96590935D01*
X180320464Y-96586231D01*
X180323415Y-96585374D01*
X180326472Y-96585074D01*
X180378113Y-96569483D01*
X180429953Y-96554422D01*
X180432682Y-96553007D01*
X180435621Y-96552120D01*
X180483275Y-96526782D01*
X180531178Y-96501951D01*
X180533576Y-96500036D01*
X180536291Y-96498593D01*
X180578115Y-96464482D01*
X180620284Y-96430819D01*
X180624564Y-96426599D01*
X180624647Y-96426531D01*
X180624711Y-96426454D01*
X180626092Y-96425092D01*
X181007092Y-96044092D01*
X181041361Y-96002372D01*
X181076031Y-95961054D01*
X181077511Y-95958362D01*
X181079461Y-95955988D01*
X181104958Y-95908437D01*
X181130959Y-95861141D01*
X181131888Y-95858212D01*
X181133339Y-95855506D01*
X181149106Y-95803934D01*
X181165434Y-95752462D01*
X181165777Y-95749407D01*
X181166674Y-95746472D01*
X181172123Y-95692825D01*
X181178143Y-95639157D01*
X181178185Y-95633148D01*
X181178196Y-95633040D01*
X181178186Y-95632939D01*
X181178200Y-95631000D01*
X181178200Y-92732473D01*
X181279978Y-92650642D01*
X181402974Y-92504060D01*
X181495157Y-92336380D01*
X181553015Y-92153989D01*
X181574344Y-91963833D01*
X181574440Y-91950144D01*
X181574440Y-91916250D01*
X184150000Y-91916250D01*
X184150000Y-92581155D01*
X184164642Y-92654764D01*
X184193362Y-92724101D01*
X184235058Y-92786504D01*
X184288127Y-92839572D01*
X184350529Y-92881268D01*
X184419867Y-92909988D01*
X184493475Y-92924630D01*
X184908190Y-92924630D01*
X185003440Y-92829380D01*
X185003440Y-91821000D01*
X185257440Y-91821000D01*
X185257440Y-92829380D01*
X185352690Y-92924630D01*
X185767405Y-92924630D01*
X185841013Y-92909988D01*
X185910351Y-92881268D01*
X185972753Y-92839572D01*
X186025822Y-92786504D01*
X186067518Y-92724101D01*
X186096238Y-92654764D01*
X186110880Y-92581155D01*
X186110880Y-91916250D01*
X186015630Y-91821000D01*
X185257440Y-91821000D01*
X185003440Y-91821000D01*
X184245250Y-91821000D01*
X184150000Y-91916250D01*
X181574440Y-91916250D01*
X181574440Y-91437856D01*
X181555768Y-91247421D01*
X181500462Y-91064239D01*
X181410629Y-90895289D01*
X181338497Y-90806845D01*
X184150000Y-90806845D01*
X184150000Y-91471750D01*
X184245250Y-91567000D01*
X185003440Y-91567000D01*
X185003440Y-90558620D01*
X185257440Y-90558620D01*
X185257440Y-91567000D01*
X186015630Y-91567000D01*
X186110880Y-91471750D01*
X186110880Y-91437856D01*
X186151520Y-91437856D01*
X186151520Y-91950144D01*
X186170192Y-92140579D01*
X186225498Y-92323761D01*
X186315331Y-92492711D01*
X186436268Y-92640996D01*
X186583705Y-92762966D01*
X186752024Y-92853976D01*
X186934815Y-92910559D01*
X187125115Y-92930560D01*
X187315676Y-92913218D01*
X187367357Y-92898007D01*
X187477400Y-93008051D01*
X187477400Y-94259400D01*
X187481979Y-94306104D01*
X187486069Y-94352848D01*
X187486814Y-94355414D01*
X187487075Y-94358071D01*
X187500627Y-94402956D01*
X187513729Y-94448055D01*
X187514960Y-94450429D01*
X187515731Y-94452984D01*
X187537740Y-94494377D01*
X187559355Y-94536077D01*
X187561023Y-94538166D01*
X187562276Y-94540523D01*
X187591952Y-94576909D01*
X187621210Y-94613559D01*
X187624873Y-94617274D01*
X187624938Y-94617354D01*
X187625012Y-94617415D01*
X187626190Y-94618610D01*
X192405000Y-99397420D01*
X192405000Y-105923988D01*
X192357375Y-105993543D01*
X192308627Y-106107281D01*
X192282898Y-106228323D01*
X192281171Y-106352056D01*
X192303509Y-106473769D01*
X192349063Y-106588824D01*
X192416097Y-106692841D01*
X192502058Y-106781856D01*
X192603671Y-106852479D01*
X192717067Y-106902020D01*
X192837926Y-106928593D01*
X192961644Y-106931184D01*
X193083509Y-106909696D01*
X193198880Y-106864947D01*
X193303362Y-106798641D01*
X193392975Y-106713303D01*
X193464306Y-106612185D01*
X193514638Y-106499138D01*
X193542053Y-106378468D01*
X193544027Y-106237127D01*
X193519991Y-106115739D01*
X193472836Y-106001330D01*
X193421000Y-105923311D01*
X193421000Y-103936811D01*
X194386189Y-103936811D01*
X194386189Y-109652861D01*
X194390768Y-109699565D01*
X194394858Y-109746309D01*
X194395603Y-109748875D01*
X194395864Y-109751532D01*
X194409416Y-109796417D01*
X194422518Y-109841516D01*
X194423749Y-109843890D01*
X194424520Y-109846445D01*
X194446529Y-109887838D01*
X194468144Y-109929538D01*
X194469812Y-109931627D01*
X194471065Y-109933984D01*
X194500741Y-109970370D01*
X194529999Y-110007020D01*
X194533662Y-110010735D01*
X194533727Y-110010815D01*
X194533801Y-110010876D01*
X194534979Y-110012071D01*
X195072000Y-110549092D01*
X195072000Y-112781988D01*
X195024375Y-112851543D01*
X194975627Y-112965281D01*
X194949898Y-113086323D01*
X194948171Y-113210056D01*
X194970509Y-113331769D01*
X195016063Y-113446824D01*
X195083097Y-113550841D01*
X195169058Y-113639856D01*
X195270671Y-113710479D01*
X195384067Y-113760020D01*
X195504926Y-113786593D01*
X195628644Y-113789184D01*
X195750509Y-113767696D01*
X195865880Y-113722947D01*
X195970362Y-113656641D01*
X196059975Y-113571303D01*
X196131306Y-113470185D01*
X196181638Y-113357138D01*
X196209053Y-113236468D01*
X196210830Y-113109250D01*
X197252790Y-114151210D01*
X197289028Y-114180976D01*
X197324997Y-114211158D01*
X197327339Y-114212446D01*
X197329402Y-114214140D01*
X197370749Y-114236310D01*
X197411878Y-114258921D01*
X197414423Y-114259728D01*
X197416778Y-114260991D01*
X197461670Y-114274716D01*
X197506381Y-114288899D01*
X197509034Y-114289197D01*
X197511590Y-114289978D01*
X197558318Y-114294724D01*
X197604907Y-114299950D01*
X197610125Y-114299987D01*
X197610226Y-114299997D01*
X197610320Y-114299988D01*
X197612000Y-114300000D01*
X198761235Y-114300000D01*
X198826671Y-114345479D01*
X198940067Y-114395020D01*
X199060926Y-114421593D01*
X199184644Y-114424184D01*
X199306509Y-114402696D01*
X199421880Y-114357947D01*
X199526362Y-114291641D01*
X199615975Y-114206303D01*
X199687306Y-114105185D01*
X199714611Y-114043856D01*
X200695559Y-114043856D01*
X200695559Y-114556144D01*
X200714231Y-114746579D01*
X200769537Y-114929761D01*
X200859370Y-115098711D01*
X200980307Y-115246996D01*
X201127744Y-115368966D01*
X201296063Y-115459976D01*
X201478854Y-115516559D01*
X201669154Y-115536560D01*
X201859715Y-115519218D01*
X202043278Y-115465192D01*
X202212852Y-115376541D01*
X202361977Y-115256642D01*
X202484973Y-115110060D01*
X202577156Y-114942380D01*
X202635014Y-114759989D01*
X202656343Y-114569833D01*
X202656439Y-114556144D01*
X202656439Y-114043856D01*
X202694539Y-114043856D01*
X202694539Y-114556144D01*
X202713211Y-114746579D01*
X202768517Y-114929761D01*
X202858350Y-115098711D01*
X202979287Y-115246996D01*
X203126724Y-115368966D01*
X203295043Y-115459976D01*
X203477834Y-115516559D01*
X203668134Y-115536560D01*
X203858695Y-115519218D01*
X204042258Y-115465192D01*
X204211832Y-115376541D01*
X204360957Y-115256642D01*
X204483953Y-115110060D01*
X204576136Y-114942380D01*
X204633994Y-114759989D01*
X204655323Y-114569833D01*
X204655419Y-114556144D01*
X204655419Y-114043856D01*
X204696059Y-114043856D01*
X204696059Y-114556144D01*
X204714731Y-114746579D01*
X204770037Y-114929761D01*
X204859870Y-115098711D01*
X204980807Y-115246996D01*
X205128244Y-115368966D01*
X205296563Y-115459976D01*
X205479354Y-115516559D01*
X205669654Y-115536560D01*
X205860215Y-115519218D01*
X206043778Y-115465192D01*
X206213352Y-115376541D01*
X206362477Y-115256642D01*
X206485473Y-115110060D01*
X206577656Y-114942380D01*
X206635514Y-114759989D01*
X206656843Y-114569833D01*
X206656939Y-114556144D01*
X206656939Y-114522250D01*
X206697579Y-114522250D01*
X206697579Y-115187155D01*
X206712221Y-115260764D01*
X206740941Y-115330101D01*
X206782637Y-115392504D01*
X206835706Y-115445572D01*
X206898108Y-115487268D01*
X206967446Y-115515988D01*
X207041054Y-115530630D01*
X207455769Y-115530630D01*
X207551019Y-115435380D01*
X207551019Y-114427000D01*
X207805019Y-114427000D01*
X207805019Y-115435380D01*
X207900269Y-115530630D01*
X208314984Y-115530630D01*
X208388592Y-115515988D01*
X208457930Y-115487268D01*
X208520332Y-115445572D01*
X208573401Y-115392504D01*
X208615097Y-115330101D01*
X208643817Y-115260764D01*
X208658459Y-115187155D01*
X208658459Y-114522250D01*
X208563209Y-114427000D01*
X207805019Y-114427000D01*
X207551019Y-114427000D01*
X206792829Y-114427000D01*
X206697579Y-114522250D01*
X206656939Y-114522250D01*
X206656939Y-114043856D01*
X206638267Y-113853421D01*
X206582961Y-113670239D01*
X206493128Y-113501289D01*
X206420996Y-113412845D01*
X206697579Y-113412845D01*
X206697579Y-114077750D01*
X206792829Y-114173000D01*
X207551019Y-114173000D01*
X207551019Y-113164620D01*
X207805019Y-113164620D01*
X207805019Y-114173000D01*
X208563209Y-114173000D01*
X208658459Y-114077750D01*
X208658459Y-113412845D01*
X208643817Y-113339236D01*
X208615097Y-113269899D01*
X208573401Y-113207496D01*
X208520332Y-113154428D01*
X208457930Y-113112732D01*
X208388592Y-113084012D01*
X208314984Y-113069370D01*
X207900269Y-113069370D01*
X207805019Y-113164620D01*
X207551019Y-113164620D01*
X207455769Y-113069370D01*
X207041054Y-113069370D01*
X206967446Y-113084012D01*
X206898108Y-113112732D01*
X206835706Y-113154428D01*
X206782637Y-113207496D01*
X206740941Y-113269899D01*
X206712221Y-113339236D01*
X206697579Y-113412845D01*
X206420996Y-113412845D01*
X206372191Y-113353004D01*
X206224754Y-113231034D01*
X206056435Y-113140024D01*
X205873644Y-113083441D01*
X205683344Y-113063440D01*
X205492783Y-113080782D01*
X205309220Y-113134808D01*
X205139646Y-113223459D01*
X204990521Y-113343358D01*
X204867525Y-113489940D01*
X204775342Y-113657620D01*
X204717484Y-113840011D01*
X204696155Y-114030167D01*
X204696059Y-114043856D01*
X204655419Y-114043856D01*
X204636747Y-113853421D01*
X204581441Y-113670239D01*
X204491608Y-113501289D01*
X204370671Y-113353004D01*
X204223234Y-113231034D01*
X204054915Y-113140024D01*
X203872124Y-113083441D01*
X203681824Y-113063440D01*
X203491263Y-113080782D01*
X203307700Y-113134808D01*
X203138126Y-113223459D01*
X202989001Y-113343358D01*
X202866005Y-113489940D01*
X202773822Y-113657620D01*
X202715964Y-113840011D01*
X202694635Y-114030167D01*
X202694539Y-114043856D01*
X202656439Y-114043856D01*
X202637767Y-113853421D01*
X202582461Y-113670239D01*
X202492628Y-113501289D01*
X202371691Y-113353004D01*
X202224254Y-113231034D01*
X202055935Y-113140024D01*
X201873144Y-113083441D01*
X201682844Y-113063440D01*
X201492283Y-113080782D01*
X201308720Y-113134808D01*
X201139146Y-113223459D01*
X200990021Y-113343358D01*
X200867025Y-113489940D01*
X200774842Y-113657620D01*
X200716984Y-113840011D01*
X200695655Y-114030167D01*
X200695559Y-114043856D01*
X199714611Y-114043856D01*
X199737638Y-113992138D01*
X199765053Y-113871468D01*
X199767027Y-113730127D01*
X199742991Y-113608739D01*
X199695836Y-113494330D01*
X199627356Y-113391260D01*
X199540161Y-113303454D01*
X199437571Y-113234256D01*
X199323495Y-113186303D01*
X199202277Y-113161420D01*
X199078534Y-113160557D01*
X198956981Y-113183744D01*
X198842246Y-113230100D01*
X198759877Y-113284000D01*
X197822420Y-113284000D01*
X197322704Y-112784284D01*
X226614556Y-112784284D01*
X226734249Y-113436439D01*
X226978333Y-114052926D01*
X227337512Y-114610262D01*
X227798104Y-115087219D01*
X228342566Y-115465630D01*
X228950158Y-115731080D01*
X229597739Y-115873460D01*
X230260642Y-115887346D01*
X230913617Y-115772209D01*
X231531793Y-115532434D01*
X232091623Y-115177155D01*
X232571784Y-114719904D01*
X232953986Y-114178098D01*
X233223672Y-113572373D01*
X233370570Y-112925802D01*
X233381145Y-112168476D01*
X233252358Y-111518055D01*
X232999690Y-110905037D01*
X232632765Y-110352770D01*
X232165558Y-109882290D01*
X231615866Y-109511518D01*
X231004626Y-109254576D01*
X230355121Y-109121252D01*
X229692089Y-109116623D01*
X229040785Y-109240866D01*
X228426017Y-109489248D01*
X227871202Y-109852309D01*
X227397472Y-110316220D01*
X227022872Y-110863310D01*
X226761669Y-111472741D01*
X226623814Y-112121300D01*
X226614556Y-112784284D01*
X197322704Y-112784284D01*
X196850000Y-112311580D01*
X196850000Y-110490000D01*
X196845421Y-110443296D01*
X196841331Y-110396552D01*
X196840586Y-110393986D01*
X196840325Y-110391329D01*
X196826773Y-110346444D01*
X196813671Y-110301345D01*
X196812440Y-110298971D01*
X196811669Y-110296416D01*
X196789660Y-110255023D01*
X196777726Y-110231999D01*
X201047840Y-110231999D01*
X200993375Y-110311543D01*
X200944627Y-110425281D01*
X200918898Y-110546323D01*
X200917171Y-110670056D01*
X200939509Y-110791769D01*
X200985063Y-110906824D01*
X201052097Y-111010841D01*
X201138058Y-111099856D01*
X201239671Y-111170479D01*
X201353067Y-111220020D01*
X201456296Y-111242717D01*
X201697789Y-111484210D01*
X201734052Y-111513997D01*
X201769997Y-111544158D01*
X201772339Y-111545446D01*
X201774402Y-111547140D01*
X201815714Y-111569291D01*
X201856878Y-111591921D01*
X201859428Y-111592730D01*
X201861778Y-111593990D01*
X201906583Y-111607688D01*
X201951381Y-111621899D01*
X201954039Y-111622197D01*
X201956590Y-111622977D01*
X202003223Y-111627714D01*
X202049907Y-111632950D01*
X202055136Y-111632987D01*
X202055226Y-111632996D01*
X202055310Y-111632988D01*
X202057000Y-111633000D01*
X207434580Y-111633000D01*
X208174790Y-112373210D01*
X208211028Y-112402976D01*
X208246997Y-112433158D01*
X208249339Y-112434446D01*
X208251402Y-112436140D01*
X208292731Y-112458300D01*
X208333878Y-112480921D01*
X208336426Y-112481729D01*
X208338779Y-112482991D01*
X208383656Y-112496711D01*
X208428381Y-112510899D01*
X208431034Y-112511197D01*
X208433590Y-112511978D01*
X208480313Y-112516724D01*
X208526907Y-112521950D01*
X208532127Y-112521987D01*
X208532227Y-112521997D01*
X208532321Y-112521988D01*
X208534000Y-112522000D01*
X219712822Y-112522000D01*
X219721097Y-112534841D01*
X219807058Y-112623856D01*
X219908671Y-112694479D01*
X220022067Y-112744020D01*
X220142926Y-112770593D01*
X220266644Y-112773184D01*
X220388509Y-112751696D01*
X220503880Y-112706947D01*
X220608362Y-112640641D01*
X220697975Y-112555303D01*
X220769306Y-112454185D01*
X220819638Y-112341138D01*
X220847053Y-112220468D01*
X220849027Y-112079127D01*
X220824991Y-111957739D01*
X220777836Y-111843330D01*
X220709356Y-111740260D01*
X220622161Y-111652454D01*
X220570686Y-111617734D01*
X221582284Y-110606136D01*
X221658509Y-110592696D01*
X221773880Y-110547947D01*
X221878362Y-110481641D01*
X221967975Y-110396303D01*
X222039306Y-110295185D01*
X222089638Y-110182138D01*
X222117053Y-110061468D01*
X222119027Y-109920127D01*
X222094991Y-109798739D01*
X222047836Y-109684330D01*
X221979356Y-109581260D01*
X221892161Y-109493454D01*
X221789571Y-109424256D01*
X221675495Y-109376303D01*
X221554277Y-109351420D01*
X221483108Y-109350924D01*
X221484027Y-109285127D01*
X221459991Y-109163739D01*
X221412836Y-109049330D01*
X221344356Y-108946260D01*
X221257161Y-108858454D01*
X221154571Y-108789256D01*
X221040495Y-108741303D01*
X220919277Y-108716420D01*
X220795534Y-108715557D01*
X220673981Y-108738744D01*
X220559246Y-108785100D01*
X220455700Y-108852858D01*
X220367287Y-108939439D01*
X220297375Y-109041543D01*
X220248627Y-109155281D01*
X220227660Y-109253919D01*
X218991580Y-110490000D01*
X211057254Y-110490000D01*
X211065143Y-110455277D01*
X211538420Y-109982000D01*
X213239235Y-109982000D01*
X213304671Y-110027479D01*
X213418067Y-110077020D01*
X213538926Y-110103593D01*
X213662644Y-110106184D01*
X213784509Y-110084696D01*
X213899880Y-110039947D01*
X214004362Y-109973641D01*
X214093975Y-109888303D01*
X214165306Y-109787185D01*
X214215638Y-109674138D01*
X214243053Y-109553468D01*
X214245027Y-109412127D01*
X214220991Y-109290739D01*
X214173836Y-109176330D01*
X214105356Y-109073260D01*
X214018161Y-108985454D01*
X213915571Y-108916256D01*
X213801495Y-108868303D01*
X213680277Y-108843420D01*
X213556534Y-108842557D01*
X213434981Y-108865744D01*
X213320246Y-108912100D01*
X213237877Y-108966000D01*
X211328000Y-108966000D01*
X211281296Y-108970579D01*
X211234552Y-108974669D01*
X211231986Y-108975414D01*
X211229329Y-108975675D01*
X211184444Y-108989227D01*
X211139345Y-109002329D01*
X211136971Y-109003560D01*
X211134416Y-109004331D01*
X211093023Y-109026340D01*
X211051323Y-109047955D01*
X211049234Y-109049623D01*
X211046877Y-109050876D01*
X211010491Y-109080552D01*
X210973841Y-109109810D01*
X210970126Y-109113473D01*
X210970046Y-109113538D01*
X210969985Y-109113612D01*
X210968790Y-109114790D01*
X210818083Y-109265497D01*
X210803190Y-109246841D01*
X210799527Y-109243126D01*
X210799462Y-109243046D01*
X210799388Y-109242985D01*
X210798210Y-109241790D01*
X207669928Y-106113508D01*
X207669928Y-105631414D01*
X209825740Y-103475602D01*
X211636798Y-103475602D01*
X211685789Y-103470798D01*
X211734918Y-103466500D01*
X211737615Y-103465716D01*
X211740403Y-103465443D01*
X211787523Y-103451217D01*
X211834885Y-103437457D01*
X211837377Y-103436165D01*
X211840061Y-103435355D01*
X211883536Y-103412239D01*
X211927309Y-103389549D01*
X211929503Y-103387797D01*
X211931977Y-103386482D01*
X211970139Y-103355358D01*
X212008666Y-103324602D01*
X212012571Y-103320751D01*
X212012650Y-103320687D01*
X212012710Y-103320614D01*
X212013969Y-103319373D01*
X212594171Y-102739170D01*
X212625414Y-102701134D01*
X212657116Y-102663353D01*
X212658470Y-102660891D01*
X212660247Y-102658727D01*
X212683514Y-102615336D01*
X212707267Y-102572129D01*
X212708115Y-102569456D01*
X212709441Y-102566983D01*
X212723853Y-102519842D01*
X212738744Y-102472900D01*
X212739057Y-102470114D01*
X212739877Y-102467430D01*
X212744858Y-102418389D01*
X212750348Y-102369447D01*
X212750386Y-102363967D01*
X212750397Y-102363861D01*
X212750388Y-102363763D01*
X212750400Y-102362000D01*
X212750400Y-101176568D01*
X212768306Y-101151185D01*
X212818638Y-101038138D01*
X212846053Y-100917468D01*
X212848027Y-100776127D01*
X212823991Y-100654739D01*
X212776836Y-100540330D01*
X212708356Y-100437260D01*
X212621161Y-100349454D01*
X212518571Y-100280256D01*
X212404495Y-100232303D01*
X212283277Y-100207420D01*
X212159534Y-100206557D01*
X212037981Y-100229744D01*
X211923246Y-100276100D01*
X211821626Y-100342598D01*
X211807991Y-100273739D01*
X211760836Y-100159330D01*
X211692356Y-100056260D01*
X211605161Y-99968454D01*
X211502571Y-99899256D01*
X211388495Y-99851303D01*
X211267277Y-99826420D01*
X211143534Y-99825557D01*
X211021981Y-99848744D01*
X210907246Y-99895100D01*
X210803700Y-99962858D01*
X210715287Y-100049439D01*
X210645375Y-100151543D01*
X210596627Y-100265281D01*
X210570898Y-100386323D01*
X210569171Y-100510056D01*
X210591509Y-100631769D01*
X210637063Y-100746824D01*
X210693000Y-100833622D01*
X210693000Y-102113427D01*
X210697579Y-102160131D01*
X210698269Y-102168007D01*
X210697898Y-102169750D01*
X210696171Y-102293483D01*
X210717336Y-102408802D01*
X210411621Y-102408802D01*
X210433053Y-102314468D01*
X210435027Y-102173127D01*
X210410991Y-102051739D01*
X210363836Y-101937330D01*
X210295356Y-101834260D01*
X210208161Y-101746454D01*
X210105571Y-101677256D01*
X209991495Y-101629303D01*
X209892830Y-101609049D01*
X209876973Y-101596025D01*
X209841004Y-101565843D01*
X209838662Y-101564555D01*
X209836599Y-101562861D01*
X209795252Y-101540691D01*
X209754123Y-101518080D01*
X209751578Y-101517273D01*
X209749223Y-101516010D01*
X209704331Y-101502285D01*
X209659620Y-101488102D01*
X209656967Y-101487804D01*
X209654411Y-101487023D01*
X209607688Y-101482277D01*
X209561094Y-101477051D01*
X209555874Y-101477014D01*
X209555774Y-101477004D01*
X209555680Y-101477013D01*
X209554001Y-101477001D01*
X199026675Y-101477001D01*
X198979971Y-101481580D01*
X198933227Y-101485670D01*
X198930661Y-101486415D01*
X198928004Y-101486676D01*
X198883119Y-101500228D01*
X198838020Y-101513330D01*
X198835646Y-101514561D01*
X198833091Y-101515332D01*
X198791698Y-101537341D01*
X198749998Y-101558956D01*
X198747909Y-101560624D01*
X198745552Y-101561877D01*
X198709197Y-101591528D01*
X198672516Y-101620810D01*
X198668800Y-101624475D01*
X198668721Y-101624539D01*
X198668661Y-101624612D01*
X198667465Y-101625791D01*
X198569499Y-101723757D01*
X198552836Y-101683330D01*
X198484356Y-101580260D01*
X198397161Y-101492454D01*
X198294571Y-101423256D01*
X198180495Y-101375303D01*
X198059277Y-101350420D01*
X197976893Y-101349845D01*
X197964991Y-101289739D01*
X197917836Y-101175330D01*
X197849356Y-101072260D01*
X197762161Y-100984454D01*
X197659571Y-100915256D01*
X197545495Y-100867303D01*
X197424277Y-100842420D01*
X197300534Y-100841557D01*
X197178981Y-100864744D01*
X197064246Y-100911100D01*
X196960700Y-100978858D01*
X196872287Y-101065439D01*
X196802375Y-101167543D01*
X196753627Y-101281281D01*
X196732660Y-101379920D01*
X194534979Y-103577601D01*
X194505213Y-103613839D01*
X194475031Y-103649808D01*
X194473743Y-103652150D01*
X194472049Y-103654213D01*
X194449879Y-103695560D01*
X194427268Y-103736689D01*
X194426461Y-103739234D01*
X194425198Y-103741589D01*
X194411473Y-103786481D01*
X194397290Y-103831192D01*
X194396992Y-103833845D01*
X194396211Y-103836401D01*
X194391465Y-103883124D01*
X194386239Y-103929718D01*
X194386202Y-103934938D01*
X194386192Y-103935038D01*
X194386201Y-103935132D01*
X194386189Y-103936811D01*
X193421000Y-103936811D01*
X193421000Y-99187000D01*
X193416421Y-99140296D01*
X193412331Y-99093552D01*
X193411586Y-99090986D01*
X193411325Y-99088329D01*
X193397773Y-99043444D01*
X193384671Y-98998345D01*
X193383440Y-98995971D01*
X193382669Y-98993416D01*
X193360660Y-98952023D01*
X193339045Y-98910323D01*
X193337377Y-98908234D01*
X193336124Y-98905877D01*
X193306473Y-98869522D01*
X193277191Y-98832841D01*
X193273526Y-98829125D01*
X193273462Y-98829046D01*
X193273389Y-98828986D01*
X193272210Y-98827790D01*
X192235411Y-97790991D01*
X194060001Y-97790991D01*
X194060001Y-100715001D01*
X194064580Y-100761705D01*
X194068670Y-100808449D01*
X194069415Y-100811015D01*
X194069676Y-100813672D01*
X194083228Y-100858557D01*
X194096330Y-100903656D01*
X194097561Y-100906030D01*
X194098332Y-100908585D01*
X194120341Y-100949978D01*
X194141956Y-100991678D01*
X194143624Y-100993767D01*
X194144877Y-100996124D01*
X194174553Y-101032510D01*
X194193084Y-101055723D01*
X194208509Y-101139769D01*
X194254063Y-101254824D01*
X194321097Y-101358841D01*
X194407058Y-101447856D01*
X194508671Y-101518479D01*
X194622067Y-101568020D01*
X194742926Y-101594593D01*
X194866644Y-101597184D01*
X194988509Y-101575696D01*
X195103880Y-101530947D01*
X195208362Y-101464641D01*
X195297975Y-101379303D01*
X195369306Y-101278185D01*
X195419638Y-101165138D01*
X195444011Y-101057859D01*
X195490279Y-101049701D01*
X195605650Y-101004952D01*
X195696960Y-100947005D01*
X195870663Y-100947005D01*
X195917367Y-100942426D01*
X195964111Y-100938336D01*
X195966677Y-100937591D01*
X195969334Y-100937330D01*
X196014219Y-100923778D01*
X196059318Y-100910676D01*
X196061692Y-100909445D01*
X196064247Y-100908674D01*
X196105640Y-100886665D01*
X196147340Y-100865050D01*
X196149429Y-100863382D01*
X196151786Y-100862129D01*
X196188172Y-100832453D01*
X196224822Y-100803195D01*
X196228537Y-100799532D01*
X196228617Y-100799467D01*
X196228678Y-100799393D01*
X196229873Y-100798215D01*
X196993109Y-100034979D01*
X197022875Y-99998741D01*
X197053057Y-99962772D01*
X197054345Y-99960430D01*
X197056039Y-99958367D01*
X197078209Y-99917020D01*
X197100820Y-99875891D01*
X197101628Y-99873343D01*
X197102890Y-99870990D01*
X197116610Y-99826113D01*
X197130798Y-99781388D01*
X197131096Y-99778735D01*
X197131877Y-99776179D01*
X197136623Y-99729456D01*
X197141849Y-99682862D01*
X197141886Y-99677642D01*
X197141896Y-99677542D01*
X197141887Y-99677448D01*
X197141899Y-99675769D01*
X197141899Y-98986056D01*
X209172171Y-98986056D01*
X209194509Y-99107769D01*
X209240063Y-99222824D01*
X209307097Y-99326841D01*
X209393058Y-99415856D01*
X209494671Y-99486479D01*
X209608067Y-99536020D01*
X209728926Y-99562593D01*
X209852644Y-99565184D01*
X209974509Y-99543696D01*
X210089880Y-99498947D01*
X210141166Y-99466400D01*
X212494225Y-99466400D01*
X212568058Y-99542856D01*
X212669671Y-99613479D01*
X212783067Y-99663020D01*
X212903926Y-99689593D01*
X213027644Y-99692184D01*
X213149509Y-99670696D01*
X213264880Y-99625947D01*
X213369362Y-99559641D01*
X213458975Y-99474303D01*
X213530306Y-99373185D01*
X213580638Y-99260138D01*
X213608053Y-99139468D01*
X213610027Y-98998127D01*
X213607637Y-98986056D01*
X221364171Y-98986056D01*
X221386509Y-99107769D01*
X221432063Y-99222824D01*
X221499097Y-99326841D01*
X221585058Y-99415856D01*
X221686671Y-99486479D01*
X221800067Y-99536020D01*
X221857252Y-99548593D01*
X221999829Y-99691170D01*
X222037883Y-99722428D01*
X222075647Y-99754116D01*
X222078106Y-99755468D01*
X222080272Y-99757247D01*
X222123650Y-99780506D01*
X222166871Y-99804267D01*
X222169548Y-99805116D01*
X222172017Y-99806440D01*
X222219083Y-99820830D01*
X222266100Y-99835744D01*
X222268890Y-99836057D01*
X222271569Y-99836876D01*
X222320571Y-99841854D01*
X222369553Y-99847348D01*
X222375032Y-99847386D01*
X222375138Y-99847397D01*
X222375237Y-99847388D01*
X222377000Y-99847400D01*
X225848781Y-99847400D01*
X225877671Y-99867479D01*
X225991067Y-99917020D01*
X226111926Y-99943593D01*
X226235644Y-99946184D01*
X226357509Y-99924696D01*
X226472880Y-99879947D01*
X226577362Y-99813641D01*
X226666975Y-99728303D01*
X226738306Y-99627185D01*
X226788638Y-99514138D01*
X226816053Y-99393468D01*
X226818027Y-99252127D01*
X226793991Y-99130739D01*
X226746836Y-99016330D01*
X226678356Y-98913260D01*
X226591161Y-98825454D01*
X226488571Y-98756256D01*
X226374495Y-98708303D01*
X226253277Y-98683420D01*
X226129534Y-98682557D01*
X226007981Y-98705744D01*
X225893246Y-98752100D01*
X225849693Y-98780600D01*
X222609102Y-98780600D01*
X222602991Y-98749739D01*
X222555836Y-98635330D01*
X222487356Y-98532260D01*
X222415224Y-98459622D01*
X227982983Y-98459622D01*
X228123325Y-98678554D01*
X228412259Y-98819043D01*
X228723050Y-98900465D01*
X229043753Y-98919690D01*
X229362044Y-98875980D01*
X229665693Y-98771014D01*
X229838675Y-98678554D01*
X229979017Y-98459622D01*
X233062983Y-98459622D01*
X233203325Y-98678554D01*
X233492259Y-98819043D01*
X233803050Y-98900465D01*
X234123753Y-98919690D01*
X234442044Y-98875980D01*
X234745693Y-98771014D01*
X234918675Y-98678554D01*
X235059017Y-98459622D01*
X234061000Y-97461605D01*
X233062983Y-98459622D01*
X229979017Y-98459622D01*
X228981000Y-97461605D01*
X227982983Y-98459622D01*
X222415224Y-98459622D01*
X222400161Y-98444454D01*
X222297571Y-98375256D01*
X222183495Y-98327303D01*
X222062277Y-98302420D01*
X221938534Y-98301557D01*
X221816981Y-98324744D01*
X221702246Y-98371100D01*
X221598700Y-98438858D01*
X221510287Y-98525439D01*
X221440375Y-98627543D01*
X221391627Y-98741281D01*
X221365898Y-98862323D01*
X221364171Y-98986056D01*
X213607637Y-98986056D01*
X213585991Y-98876739D01*
X213538836Y-98762330D01*
X213470356Y-98659260D01*
X213383161Y-98571454D01*
X213280571Y-98502256D01*
X213166495Y-98454303D01*
X213045277Y-98429420D01*
X213019968Y-98429243D01*
X213009929Y-98426174D01*
X212962900Y-98411256D01*
X212960108Y-98410943D01*
X212957430Y-98410124D01*
X212908434Y-98405147D01*
X212859447Y-98399652D01*
X212853968Y-98399614D01*
X212853862Y-98399603D01*
X212853763Y-98399612D01*
X212852000Y-98399600D01*
X210141662Y-98399600D01*
X210105571Y-98375256D01*
X209991495Y-98327303D01*
X209870277Y-98302420D01*
X209746534Y-98301557D01*
X209624981Y-98324744D01*
X209510246Y-98371100D01*
X209406700Y-98438858D01*
X209318287Y-98525439D01*
X209248375Y-98627543D01*
X209199627Y-98741281D01*
X209173898Y-98862323D01*
X209172171Y-98986056D01*
X197141899Y-98986056D01*
X197141899Y-97156857D01*
X199266404Y-95032352D01*
X199266171Y-95049056D01*
X199288509Y-95170769D01*
X199334063Y-95285824D01*
X199401097Y-95389841D01*
X199487058Y-95478856D01*
X199588671Y-95549479D01*
X199702067Y-95599020D01*
X199822926Y-95625593D01*
X199946644Y-95628184D01*
X200068509Y-95606696D01*
X200183880Y-95561947D01*
X200288362Y-95495641D01*
X200377975Y-95410303D01*
X200449306Y-95309185D01*
X200499638Y-95196138D01*
X200527053Y-95075468D01*
X200529027Y-94934127D01*
X200504991Y-94812739D01*
X200457836Y-94698330D01*
X200389356Y-94595260D01*
X200302161Y-94507454D01*
X200199571Y-94438256D01*
X200085495Y-94390303D01*
X199964277Y-94365420D01*
X199933550Y-94365206D01*
X200078703Y-94220053D01*
X200940191Y-94220053D01*
X200897700Y-94247858D01*
X200809287Y-94334439D01*
X200739375Y-94436543D01*
X200690627Y-94550281D01*
X200664898Y-94671323D01*
X200663171Y-94795056D01*
X200685509Y-94916769D01*
X200731063Y-95031824D01*
X200798097Y-95135841D01*
X200884058Y-95224856D01*
X200985671Y-95295479D01*
X201050709Y-95323893D01*
X202913908Y-97187092D01*
X202955628Y-97221361D01*
X202996946Y-97256031D01*
X202999638Y-97257511D01*
X203002012Y-97259461D01*
X203049563Y-97284958D01*
X203096859Y-97310959D01*
X203099788Y-97311888D01*
X203102494Y-97313339D01*
X203154066Y-97329106D01*
X203205538Y-97345434D01*
X203208593Y-97345777D01*
X203211528Y-97346674D01*
X203265171Y-97352123D01*
X203318843Y-97358143D01*
X203324853Y-97358185D01*
X203324961Y-97358196D01*
X203325062Y-97358186D01*
X203327000Y-97358200D01*
X209437989Y-97358200D01*
X209481067Y-97377020D01*
X209601926Y-97403593D01*
X209725644Y-97406184D01*
X209847509Y-97384696D01*
X209950489Y-97344753D01*
X227343310Y-97344753D01*
X227387020Y-97663044D01*
X227491986Y-97966693D01*
X227584446Y-98139675D01*
X227803378Y-98280017D01*
X228801395Y-97282000D01*
X229160605Y-97282000D01*
X230158622Y-98280017D01*
X230377554Y-98139675D01*
X230518043Y-97850741D01*
X230599465Y-97539950D01*
X230611166Y-97344753D01*
X232423310Y-97344753D01*
X232467020Y-97663044D01*
X232571986Y-97966693D01*
X232664446Y-98139675D01*
X232883378Y-98280017D01*
X233881395Y-97282000D01*
X232883378Y-96283983D01*
X232664446Y-96424325D01*
X232523957Y-96713259D01*
X232442535Y-97024050D01*
X232423310Y-97344753D01*
X230611166Y-97344753D01*
X230618690Y-97219247D01*
X230574980Y-96900956D01*
X230470014Y-96597307D01*
X230377554Y-96424325D01*
X230158622Y-96283983D01*
X229160605Y-97282000D01*
X228801395Y-97282000D01*
X227803378Y-96283983D01*
X227584446Y-96424325D01*
X227443957Y-96713259D01*
X227362535Y-97024050D01*
X227343310Y-97344753D01*
X209950489Y-97344753D01*
X209962880Y-97339947D01*
X210067362Y-97273641D01*
X210156975Y-97188303D01*
X210228306Y-97087185D01*
X210278638Y-96974138D01*
X210306053Y-96853468D01*
X210308027Y-96712127D01*
X210283991Y-96590739D01*
X210236836Y-96476330D01*
X210168356Y-96373260D01*
X210081161Y-96285454D01*
X209978571Y-96216256D01*
X209864495Y-96168303D01*
X209743277Y-96143420D01*
X209619534Y-96142557D01*
X209497981Y-96165744D01*
X209438440Y-96189800D01*
X203568984Y-96189800D01*
X203483562Y-96104378D01*
X227982983Y-96104378D01*
X228981000Y-97102395D01*
X229979017Y-96104378D01*
X229838675Y-95885446D01*
X229549741Y-95744957D01*
X229238950Y-95663535D01*
X228918247Y-95644310D01*
X228599956Y-95688020D01*
X228296307Y-95792986D01*
X228123325Y-95885446D01*
X227982983Y-96104378D01*
X203483562Y-96104378D01*
X201876797Y-94497613D01*
X201854836Y-94444330D01*
X201786356Y-94341260D01*
X201699161Y-94253454D01*
X201649642Y-94220053D01*
X204249952Y-94220053D01*
X204200915Y-94291669D01*
X204136748Y-94441382D01*
X204102882Y-94600708D01*
X204100608Y-94763577D01*
X204130012Y-94923787D01*
X204189974Y-95075233D01*
X204278210Y-95212149D01*
X204391360Y-95329319D01*
X204525113Y-95422280D01*
X204674375Y-95487491D01*
X204833460Y-95522468D01*
X204996310Y-95525879D01*
X205156720Y-95497595D01*
X205308582Y-95438691D01*
X205446110Y-95351413D01*
X205564067Y-95239084D01*
X205657960Y-95105983D01*
X205724211Y-94957180D01*
X205760298Y-94798343D01*
X205762896Y-94612297D01*
X205731258Y-94452514D01*
X205669187Y-94301920D01*
X205614795Y-94220053D01*
X208649232Y-94220053D01*
X208600195Y-94291669D01*
X208536028Y-94441382D01*
X208502162Y-94600708D01*
X208499888Y-94763577D01*
X208529292Y-94923787D01*
X208589254Y-95075233D01*
X208677490Y-95212149D01*
X208790640Y-95329319D01*
X208924393Y-95422280D01*
X209073655Y-95487491D01*
X209232740Y-95522468D01*
X209395590Y-95525879D01*
X209556000Y-95497595D01*
X209707862Y-95438691D01*
X209845390Y-95351413D01*
X209963347Y-95239084D01*
X210057240Y-95105983D01*
X210123491Y-94957180D01*
X210141221Y-94879139D01*
X229887856Y-94879139D01*
X229945596Y-95193740D01*
X230063343Y-95491134D01*
X230236611Y-95759994D01*
X230458801Y-95990079D01*
X230721451Y-96172625D01*
X231014555Y-96300679D01*
X231326949Y-96369363D01*
X231646734Y-96376062D01*
X231961731Y-96320519D01*
X232259940Y-96204852D01*
X232418261Y-96104378D01*
X233062983Y-96104378D01*
X234061000Y-97102395D01*
X235059017Y-96104378D01*
X234918675Y-95885446D01*
X234629741Y-95744957D01*
X234318950Y-95663535D01*
X233998247Y-95644310D01*
X233679956Y-95688020D01*
X233376307Y-95792986D01*
X233203325Y-95885446D01*
X233062983Y-96104378D01*
X232418261Y-96104378D01*
X232530003Y-96033465D01*
X232761633Y-95812886D01*
X232946008Y-95551517D01*
X233076105Y-95259315D01*
X233146969Y-94947408D01*
X233152070Y-94582072D01*
X233089943Y-94268308D01*
X232968056Y-93972587D01*
X232791050Y-93706172D01*
X232565669Y-93479212D01*
X232418021Y-93379622D01*
X233062983Y-93379622D01*
X233203325Y-93598554D01*
X233492259Y-93739043D01*
X233803050Y-93820465D01*
X234123753Y-93839690D01*
X234442044Y-93795980D01*
X234745693Y-93691014D01*
X234918675Y-93598554D01*
X235059017Y-93379622D01*
X234061000Y-92381605D01*
X233062983Y-93379622D01*
X232418021Y-93379622D01*
X232300497Y-93300351D01*
X232005634Y-93176402D01*
X231692311Y-93112086D01*
X231372463Y-93109853D01*
X231058273Y-93169788D01*
X230761708Y-93289608D01*
X230494064Y-93464749D01*
X230265536Y-93688541D01*
X230084828Y-93952458D01*
X229958823Y-94246448D01*
X229892322Y-94559314D01*
X229887856Y-94879139D01*
X210141221Y-94879139D01*
X210159578Y-94798343D01*
X210162176Y-94612297D01*
X210130538Y-94452514D01*
X210068467Y-94301920D01*
X210014075Y-94220053D01*
X221434637Y-94220053D01*
X221481341Y-94215474D01*
X221528085Y-94211384D01*
X221530651Y-94210639D01*
X221533308Y-94210378D01*
X221578193Y-94196826D01*
X221623292Y-94183724D01*
X221625666Y-94182493D01*
X221628221Y-94181722D01*
X221669614Y-94159713D01*
X221711314Y-94138098D01*
X221713403Y-94136430D01*
X221715760Y-94135177D01*
X221752146Y-94105501D01*
X221788796Y-94076243D01*
X221792511Y-94072580D01*
X221792591Y-94072515D01*
X221792652Y-94072441D01*
X221793847Y-94071263D01*
X222485488Y-93379622D01*
X227982983Y-93379622D01*
X228123325Y-93598554D01*
X228412259Y-93739043D01*
X228723050Y-93820465D01*
X229043753Y-93839690D01*
X229362044Y-93795980D01*
X229665693Y-93691014D01*
X229838675Y-93598554D01*
X229979017Y-93379622D01*
X228981000Y-92381605D01*
X227982983Y-93379622D01*
X222485488Y-93379622D01*
X222966560Y-92898550D01*
X223005355Y-92910559D01*
X223195655Y-92930560D01*
X223386216Y-92913218D01*
X223569779Y-92859192D01*
X223739353Y-92770541D01*
X223888478Y-92650642D01*
X224011474Y-92504060D01*
X224103657Y-92336380D01*
X224161515Y-92153989D01*
X224182844Y-91963833D01*
X224182940Y-91950144D01*
X224182940Y-91437856D01*
X224223580Y-91437856D01*
X224223580Y-91950144D01*
X224242252Y-92140579D01*
X224297558Y-92323761D01*
X224387391Y-92492711D01*
X224508328Y-92640996D01*
X224655765Y-92762966D01*
X224824084Y-92853976D01*
X225006875Y-92910559D01*
X225197175Y-92930560D01*
X225387736Y-92913218D01*
X225571299Y-92859192D01*
X225740873Y-92770541D01*
X225889998Y-92650642D01*
X226012994Y-92504060D01*
X226105177Y-92336380D01*
X226127898Y-92264753D01*
X227343310Y-92264753D01*
X227387020Y-92583044D01*
X227491986Y-92886693D01*
X227584446Y-93059675D01*
X227803378Y-93200017D01*
X228801395Y-92202000D01*
X229160605Y-92202000D01*
X230158622Y-93200017D01*
X230377554Y-93059675D01*
X230518043Y-92770741D01*
X230599465Y-92459950D01*
X230611166Y-92264753D01*
X232423310Y-92264753D01*
X232467020Y-92583044D01*
X232571986Y-92886693D01*
X232664446Y-93059675D01*
X232883378Y-93200017D01*
X233881395Y-92202000D01*
X232883378Y-91203983D01*
X232664446Y-91344325D01*
X232523957Y-91633259D01*
X232442535Y-91944050D01*
X232423310Y-92264753D01*
X230611166Y-92264753D01*
X230618690Y-92139247D01*
X230574980Y-91820956D01*
X230470014Y-91517307D01*
X230377554Y-91344325D01*
X230158622Y-91203983D01*
X229160605Y-92202000D01*
X228801395Y-92202000D01*
X227803378Y-91203983D01*
X227584446Y-91344325D01*
X227443957Y-91633259D01*
X227362535Y-91944050D01*
X227343310Y-92264753D01*
X226127898Y-92264753D01*
X226163035Y-92153989D01*
X226184364Y-91963833D01*
X226184460Y-91950144D01*
X226184460Y-91437856D01*
X226165788Y-91247421D01*
X226110482Y-91064239D01*
X226089288Y-91024378D01*
X227982983Y-91024378D01*
X228981000Y-92022395D01*
X229979017Y-91024378D01*
X233062983Y-91024378D01*
X234061000Y-92022395D01*
X235059017Y-91024378D01*
X234918675Y-90805446D01*
X234629741Y-90664957D01*
X234318950Y-90583535D01*
X233998247Y-90564310D01*
X233679956Y-90608020D01*
X233376307Y-90712986D01*
X233203325Y-90805446D01*
X233062983Y-91024378D01*
X229979017Y-91024378D01*
X229838675Y-90805446D01*
X229549741Y-90664957D01*
X229238950Y-90583535D01*
X228918247Y-90564310D01*
X228599956Y-90608020D01*
X228296307Y-90712986D01*
X228123325Y-90805446D01*
X227982983Y-91024378D01*
X226089288Y-91024378D01*
X226020649Y-90895289D01*
X225899712Y-90747004D01*
X225752275Y-90625034D01*
X225583956Y-90534024D01*
X225401165Y-90477441D01*
X225210865Y-90457440D01*
X225020304Y-90474782D01*
X224836741Y-90528808D01*
X224667167Y-90617459D01*
X224518042Y-90737358D01*
X224395046Y-90883940D01*
X224302863Y-91051620D01*
X224245005Y-91234011D01*
X224223676Y-91424167D01*
X224223580Y-91437856D01*
X224182940Y-91437856D01*
X224164268Y-91247421D01*
X224108962Y-91064239D01*
X224019129Y-90895289D01*
X223898192Y-90747004D01*
X223750755Y-90625034D01*
X223582436Y-90534024D01*
X223399645Y-90477441D01*
X223209345Y-90457440D01*
X223018784Y-90474782D01*
X222835221Y-90528808D01*
X222665647Y-90617459D01*
X222516522Y-90737358D01*
X222393526Y-90883940D01*
X222301343Y-91051620D01*
X222243485Y-91234011D01*
X222222156Y-91424167D01*
X222222060Y-91437856D01*
X222222060Y-91950144D01*
X222240732Y-92140579D01*
X222251622Y-92176648D01*
X222126296Y-92301974D01*
X222170907Y-92170709D01*
X222196462Y-91977133D01*
X222094109Y-91821000D01*
X221327980Y-91821000D01*
X221327980Y-92820222D01*
X221478499Y-92884534D01*
X221551498Y-92876502D01*
X221552030Y-92876240D01*
X221224217Y-93204053D01*
X218660557Y-93204053D01*
X218966060Y-92898550D01*
X219004855Y-92910559D01*
X219195155Y-92930560D01*
X219385716Y-92913218D01*
X219569279Y-92859192D01*
X219738853Y-92770541D01*
X219887978Y-92650642D01*
X220010974Y-92504060D01*
X220103157Y-92336380D01*
X220161015Y-92153989D01*
X220180852Y-91977133D01*
X220205498Y-91977133D01*
X220231053Y-92170709D01*
X220293882Y-92355580D01*
X220391570Y-92524641D01*
X220520363Y-92671396D01*
X220675312Y-92790205D01*
X220850462Y-92876502D01*
X220923461Y-92884534D01*
X221073980Y-92820222D01*
X221073980Y-91821000D01*
X220307851Y-91821000D01*
X220205498Y-91977133D01*
X220180852Y-91977133D01*
X220182344Y-91963833D01*
X220182440Y-91950144D01*
X220182440Y-91437856D01*
X220179794Y-91410867D01*
X220205498Y-91410867D01*
X220307851Y-91567000D01*
X221073980Y-91567000D01*
X221073980Y-90567778D01*
X221327980Y-90567778D01*
X221327980Y-91567000D01*
X222094109Y-91567000D01*
X222196462Y-91410867D01*
X222170907Y-91217291D01*
X222108078Y-91032420D01*
X222010390Y-90863359D01*
X221881597Y-90716604D01*
X221726648Y-90597795D01*
X221551498Y-90511498D01*
X221478499Y-90503466D01*
X221327980Y-90567778D01*
X221073980Y-90567778D01*
X220923461Y-90503466D01*
X220850462Y-90511498D01*
X220675312Y-90597795D01*
X220520363Y-90716604D01*
X220391570Y-90863359D01*
X220293882Y-91032420D01*
X220231053Y-91217291D01*
X220205498Y-91410867D01*
X220179794Y-91410867D01*
X220163768Y-91247421D01*
X220108462Y-91064239D01*
X220018629Y-90895289D01*
X219897692Y-90747004D01*
X219750255Y-90625034D01*
X219581936Y-90534024D01*
X219399145Y-90477441D01*
X219208845Y-90457440D01*
X219018284Y-90474782D01*
X218834721Y-90528808D01*
X218665147Y-90617459D01*
X218516022Y-90737358D01*
X218393026Y-90883940D01*
X218300843Y-91051620D01*
X218242985Y-91234011D01*
X218221656Y-91424167D01*
X218221560Y-91437856D01*
X218221560Y-91950144D01*
X218240232Y-92140579D01*
X218251122Y-92176648D01*
X218106398Y-92321372D01*
X218159495Y-92153989D01*
X218180824Y-91963833D01*
X218180920Y-91950144D01*
X218180920Y-91437856D01*
X218162248Y-91247421D01*
X218106942Y-91064239D01*
X218017109Y-90895289D01*
X217896172Y-90747004D01*
X217748735Y-90625034D01*
X217580416Y-90534024D01*
X217397625Y-90477441D01*
X217207325Y-90457440D01*
X217016764Y-90474782D01*
X216833201Y-90528808D01*
X216663627Y-90617459D01*
X216514502Y-90737358D01*
X216391506Y-90883940D01*
X216299323Y-91051620D01*
X216241465Y-91234011D01*
X216220136Y-91424167D01*
X216220040Y-91437856D01*
X216220040Y-91950144D01*
X216238712Y-92140579D01*
X216249602Y-92176648D01*
X216181243Y-92245007D01*
X216181243Y-90844370D01*
X216176405Y-90783697D01*
X216144536Y-90680790D01*
X216085260Y-90590835D01*
X216003270Y-90520955D01*
X215905058Y-90476684D01*
X215798400Y-90461527D01*
X214599520Y-90461527D01*
X214538847Y-90466365D01*
X214435940Y-90498234D01*
X214345985Y-90557510D01*
X214276105Y-90639500D01*
X214231834Y-90737712D01*
X214216677Y-90844370D01*
X214216677Y-92340431D01*
X200034930Y-92340431D01*
X200037157Y-92336380D01*
X200095015Y-92153989D01*
X200116344Y-91963833D01*
X200116440Y-91950144D01*
X200116440Y-91437856D01*
X200097768Y-91247421D01*
X200042462Y-91064239D01*
X199952629Y-90895289D01*
X199831692Y-90747004D01*
X199684255Y-90625034D01*
X199515936Y-90534024D01*
X199333145Y-90477441D01*
X199142845Y-90457440D01*
X198952284Y-90474782D01*
X198768721Y-90528808D01*
X198599147Y-90617459D01*
X198450022Y-90737358D01*
X198327026Y-90883940D01*
X198234843Y-91051620D01*
X198176985Y-91234011D01*
X198155656Y-91424167D01*
X198155560Y-91437856D01*
X198155560Y-91950144D01*
X198174232Y-92140579D01*
X198229538Y-92323761D01*
X198319371Y-92492711D01*
X198440308Y-92640996D01*
X198587745Y-92762966D01*
X198756064Y-92853976D01*
X198779378Y-92861193D01*
X194208791Y-97431781D01*
X194179025Y-97468019D01*
X194148843Y-97503988D01*
X194147555Y-97506330D01*
X194145861Y-97508393D01*
X194123691Y-97549740D01*
X194101080Y-97590869D01*
X194100273Y-97593414D01*
X194099010Y-97595769D01*
X194085285Y-97640661D01*
X194071102Y-97685372D01*
X194070804Y-97688025D01*
X194070023Y-97690581D01*
X194065277Y-97737304D01*
X194060051Y-97783898D01*
X194060014Y-97789118D01*
X194060004Y-97789218D01*
X194060013Y-97789312D01*
X194060001Y-97790991D01*
X192235411Y-97790991D01*
X188493400Y-94048980D01*
X188493400Y-92797630D01*
X188488821Y-92750930D01*
X188484731Y-92704182D01*
X188483986Y-92701616D01*
X188483725Y-92698959D01*
X188475692Y-92672353D01*
X188585225Y-92762966D01*
X188753544Y-92853976D01*
X188936335Y-92910559D01*
X189126635Y-92930560D01*
X189317196Y-92913218D01*
X189500759Y-92859192D01*
X189670333Y-92770541D01*
X189819458Y-92650642D01*
X189942454Y-92504060D01*
X190034637Y-92336380D01*
X190092495Y-92153989D01*
X190113824Y-91963833D01*
X190113920Y-91950144D01*
X190113920Y-91437856D01*
X190152020Y-91437856D01*
X190152020Y-91950144D01*
X190170692Y-92140579D01*
X190225998Y-92323761D01*
X190315831Y-92492711D01*
X190436768Y-92640996D01*
X190584205Y-92762966D01*
X190752524Y-92853976D01*
X190935315Y-92910559D01*
X191125615Y-92930560D01*
X191316176Y-92913218D01*
X191499739Y-92859192D01*
X191669313Y-92770541D01*
X191818438Y-92650642D01*
X191941434Y-92504060D01*
X192033617Y-92336380D01*
X192091475Y-92153989D01*
X192112804Y-91963833D01*
X192112900Y-91950144D01*
X192112900Y-91437856D01*
X192156080Y-91437856D01*
X192156080Y-91950144D01*
X192174752Y-92140579D01*
X192230058Y-92323761D01*
X192319891Y-92492711D01*
X192440828Y-92640996D01*
X192588265Y-92762966D01*
X192756584Y-92853976D01*
X192939375Y-92910559D01*
X193129675Y-92930560D01*
X193320236Y-92913218D01*
X193503799Y-92859192D01*
X193673373Y-92770541D01*
X193822498Y-92650642D01*
X193945494Y-92504060D01*
X194037677Y-92336380D01*
X194095535Y-92153989D01*
X194116864Y-91963833D01*
X194116960Y-91950144D01*
X194116960Y-91437856D01*
X194157600Y-91437856D01*
X194157600Y-91950144D01*
X194176272Y-92140579D01*
X194231578Y-92323761D01*
X194321411Y-92492711D01*
X194442348Y-92640996D01*
X194589785Y-92762966D01*
X194758104Y-92853976D01*
X194940895Y-92910559D01*
X195131195Y-92930560D01*
X195321756Y-92913218D01*
X195505319Y-92859192D01*
X195674893Y-92770541D01*
X195824018Y-92650642D01*
X195947014Y-92504060D01*
X196039197Y-92336380D01*
X196097055Y-92153989D01*
X196118384Y-91963833D01*
X196118480Y-91950144D01*
X196118480Y-91437856D01*
X196156580Y-91437856D01*
X196156580Y-91950144D01*
X196175252Y-92140579D01*
X196230558Y-92323761D01*
X196320391Y-92492711D01*
X196441328Y-92640996D01*
X196588765Y-92762966D01*
X196757084Y-92853976D01*
X196939875Y-92910559D01*
X197130175Y-92930560D01*
X197320736Y-92913218D01*
X197504299Y-92859192D01*
X197673873Y-92770541D01*
X197822998Y-92650642D01*
X197945994Y-92504060D01*
X198038177Y-92336380D01*
X198096035Y-92153989D01*
X198117364Y-91963833D01*
X198117460Y-91950144D01*
X198117460Y-91437856D01*
X198098788Y-91247421D01*
X198043482Y-91064239D01*
X197953649Y-90895289D01*
X197832712Y-90747004D01*
X197685275Y-90625034D01*
X197516956Y-90534024D01*
X197334165Y-90477441D01*
X197143865Y-90457440D01*
X196953304Y-90474782D01*
X196769741Y-90528808D01*
X196600167Y-90617459D01*
X196451042Y-90737358D01*
X196328046Y-90883940D01*
X196235863Y-91051620D01*
X196178005Y-91234011D01*
X196156676Y-91424167D01*
X196156580Y-91437856D01*
X196118480Y-91437856D01*
X196099808Y-91247421D01*
X196044502Y-91064239D01*
X195954669Y-90895289D01*
X195833732Y-90747004D01*
X195686295Y-90625034D01*
X195517976Y-90534024D01*
X195335185Y-90477441D01*
X195144885Y-90457440D01*
X194954324Y-90474782D01*
X194770761Y-90528808D01*
X194601187Y-90617459D01*
X194452062Y-90737358D01*
X194329066Y-90883940D01*
X194236883Y-91051620D01*
X194179025Y-91234011D01*
X194157696Y-91424167D01*
X194157600Y-91437856D01*
X194116960Y-91437856D01*
X194098288Y-91247421D01*
X194042982Y-91064239D01*
X193953149Y-90895289D01*
X193832212Y-90747004D01*
X193684775Y-90625034D01*
X193516456Y-90534024D01*
X193333665Y-90477441D01*
X193143365Y-90457440D01*
X192952804Y-90474782D01*
X192769241Y-90528808D01*
X192599667Y-90617459D01*
X192450542Y-90737358D01*
X192327546Y-90883940D01*
X192235363Y-91051620D01*
X192177505Y-91234011D01*
X192156176Y-91424167D01*
X192156080Y-91437856D01*
X192112900Y-91437856D01*
X192094228Y-91247421D01*
X192038922Y-91064239D01*
X191949089Y-90895289D01*
X191828152Y-90747004D01*
X191680715Y-90625034D01*
X191512396Y-90534024D01*
X191329605Y-90477441D01*
X191139305Y-90457440D01*
X190948744Y-90474782D01*
X190765181Y-90528808D01*
X190595607Y-90617459D01*
X190446482Y-90737358D01*
X190323486Y-90883940D01*
X190231303Y-91051620D01*
X190173445Y-91234011D01*
X190152116Y-91424167D01*
X190152020Y-91437856D01*
X190113920Y-91437856D01*
X190095248Y-91247421D01*
X190039942Y-91064239D01*
X189950109Y-90895289D01*
X189829172Y-90747004D01*
X189681735Y-90625034D01*
X189513416Y-90534024D01*
X189330625Y-90477441D01*
X189140325Y-90457440D01*
X188949764Y-90474782D01*
X188766201Y-90528808D01*
X188596627Y-90617459D01*
X188447502Y-90737358D01*
X188324506Y-90883940D01*
X188232323Y-91051620D01*
X188174465Y-91234011D01*
X188153136Y-91424167D01*
X188153040Y-91437856D01*
X188153040Y-91950144D01*
X188171712Y-92140579D01*
X188225749Y-92319558D01*
X188083559Y-92177368D01*
X188090975Y-92153989D01*
X188112304Y-91963833D01*
X188112400Y-91950144D01*
X188112400Y-91437856D01*
X188093728Y-91247421D01*
X188038422Y-91064239D01*
X187948589Y-90895289D01*
X187827652Y-90747004D01*
X187680215Y-90625034D01*
X187511896Y-90534024D01*
X187329105Y-90477441D01*
X187138805Y-90457440D01*
X186948244Y-90474782D01*
X186764681Y-90528808D01*
X186595107Y-90617459D01*
X186445982Y-90737358D01*
X186322986Y-90883940D01*
X186230803Y-91051620D01*
X186172945Y-91234011D01*
X186151616Y-91424167D01*
X186151520Y-91437856D01*
X186110880Y-91437856D01*
X186110880Y-90806845D01*
X186096238Y-90733236D01*
X186067518Y-90663899D01*
X186025822Y-90601496D01*
X185972753Y-90548428D01*
X185910351Y-90506732D01*
X185841013Y-90478012D01*
X185767405Y-90463370D01*
X185352690Y-90463370D01*
X185257440Y-90558620D01*
X185003440Y-90558620D01*
X184908190Y-90463370D01*
X184493475Y-90463370D01*
X184419867Y-90478012D01*
X184350529Y-90506732D01*
X184288127Y-90548428D01*
X184235058Y-90601496D01*
X184193362Y-90663899D01*
X184164642Y-90733236D01*
X184150000Y-90806845D01*
X181338497Y-90806845D01*
X181289692Y-90747004D01*
X181142255Y-90625034D01*
X180973936Y-90534024D01*
X180791145Y-90477441D01*
X180600845Y-90457440D01*
X180410284Y-90474782D01*
X180226721Y-90528808D01*
X180057147Y-90617459D01*
X179908022Y-90737358D01*
X179785026Y-90883940D01*
X179692843Y-91051620D01*
X179634985Y-91234011D01*
X179613656Y-91424167D01*
X179613560Y-91437856D01*
X179613560Y-91950144D01*
X179614436Y-91959075D01*
X179575460Y-91920099D01*
X179575460Y-91437856D01*
X179556788Y-91247421D01*
X179501482Y-91064239D01*
X179411649Y-90895289D01*
X179290712Y-90747004D01*
X179143275Y-90625034D01*
X178974956Y-90534024D01*
X178792165Y-90477441D01*
X178601865Y-90457440D01*
X178411304Y-90474782D01*
X178227741Y-90528808D01*
X178058167Y-90617459D01*
X177909042Y-90737358D01*
X177786046Y-90883940D01*
X177693863Y-91051620D01*
X177636005Y-91234011D01*
X177614676Y-91424167D01*
X177614580Y-91437856D01*
X177614580Y-91950144D01*
X177633252Y-92140579D01*
X177688558Y-92323761D01*
X177778391Y-92492711D01*
X177899328Y-92640996D01*
X178046765Y-92762966D01*
X178215084Y-92853976D01*
X178397875Y-92910559D01*
X178588175Y-92930560D01*
X178778736Y-92913218D01*
X178790600Y-92909726D01*
X178790600Y-94277084D01*
X178768375Y-94309543D01*
X178719627Y-94423281D01*
X178693898Y-94544323D01*
X178692171Y-94668056D01*
X178714509Y-94789769D01*
X178760063Y-94904824D01*
X178827097Y-95008841D01*
X178913058Y-95097856D01*
X179014671Y-95168479D01*
X179128067Y-95218020D01*
X179248926Y-95244593D01*
X179372644Y-95247184D01*
X179494509Y-95225696D01*
X179609880Y-95180947D01*
X179714362Y-95114641D01*
X179803975Y-95029303D01*
X179875306Y-94928185D01*
X179925638Y-94815138D01*
X179953053Y-94694468D01*
X179955027Y-94553127D01*
X179930991Y-94431739D01*
X179883836Y-94317330D01*
X179857400Y-94277541D01*
X179857400Y-92590837D01*
X179898308Y-92640996D01*
X180009800Y-92733230D01*
X180009800Y-95389016D01*
X179971016Y-95427800D01*
X176516030Y-95427800D01*
X176462329Y-95433065D01*
X176408566Y-95437769D01*
X176405615Y-95438626D01*
X176402558Y-95438926D01*
X176350917Y-95454517D01*
X176299077Y-95469578D01*
X176296348Y-95470993D01*
X176293409Y-95471880D01*
X176245755Y-95497218D01*
X176197852Y-95522049D01*
X176195454Y-95523964D01*
X176192739Y-95525407D01*
X176150915Y-95559518D01*
X176108746Y-95593181D01*
X176104466Y-95597401D01*
X176104383Y-95597469D01*
X176104319Y-95597546D01*
X176102938Y-95598908D01*
X175271586Y-96430260D01*
X175200642Y-96342022D01*
X175054060Y-96219026D01*
X174886380Y-96126843D01*
X174703989Y-96068985D01*
X174513833Y-96047656D01*
X174500144Y-96047560D01*
X173987856Y-96047560D01*
X173797421Y-96066232D01*
X173614239Y-96121538D01*
X173445289Y-96211371D01*
X173297004Y-96332308D01*
X173175034Y-96479745D01*
X173084024Y-96648064D01*
X173027441Y-96830855D01*
X173007440Y-97021155D01*
X173024782Y-97211716D01*
X173078808Y-97395279D01*
X173167459Y-97564853D01*
X173287358Y-97713978D01*
X173433940Y-97836974D01*
X173601620Y-97929157D01*
X173784011Y-97987015D01*
X173974167Y-98008344D01*
X173987856Y-98008440D01*
X174500144Y-98008440D01*
X174635204Y-97995197D01*
X174713542Y-98073535D01*
X174703989Y-98070505D01*
X174513833Y-98049176D01*
X174500144Y-98049080D01*
X173987856Y-98049080D01*
X173797421Y-98067752D01*
X173614239Y-98123058D01*
X173445289Y-98212891D01*
X173297004Y-98333828D01*
X173175034Y-98481265D01*
X173084024Y-98649584D01*
X173027441Y-98832375D01*
X173007440Y-99022675D01*
X173024782Y-99213236D01*
X173078808Y-99396799D01*
X173167459Y-99566373D01*
X173287358Y-99715498D01*
X173433940Y-99838494D01*
X173601620Y-99930677D01*
X173784011Y-99988535D01*
X173974167Y-100009864D01*
X173987856Y-100009960D01*
X174500144Y-100009960D01*
X174690579Y-99991288D01*
X174873761Y-99935982D01*
X174915830Y-99913613D01*
X174915830Y-100050600D01*
X174466250Y-100050600D01*
X174371000Y-100145850D01*
X174371000Y-100904040D01*
X174391000Y-100904040D01*
X174391000Y-101158040D01*
X174371000Y-101158040D01*
X174371000Y-101916230D01*
X174466250Y-102011480D01*
X174915830Y-102011480D01*
X174915830Y-108317030D01*
X174921095Y-108370731D01*
X174925799Y-108424494D01*
X174926656Y-108427445D01*
X174926956Y-108430502D01*
X174942547Y-108482143D01*
X174950292Y-108508800D01*
X173466634Y-108508800D01*
X173415495Y-108487303D01*
X173294277Y-108462420D01*
X173170534Y-108461557D01*
X173048981Y-108484744D01*
X172934246Y-108531100D01*
X172830700Y-108598858D01*
X172742287Y-108685439D01*
X172672375Y-108787543D01*
X172623627Y-108901281D01*
X172597898Y-109022323D01*
X172596171Y-109146056D01*
X172456000Y-109146056D01*
X172456000Y-101253290D01*
X173013370Y-101253290D01*
X173013370Y-101668005D01*
X173028012Y-101741613D01*
X173056732Y-101810951D01*
X173098428Y-101873353D01*
X173151496Y-101926422D01*
X173213899Y-101968118D01*
X173283236Y-101996838D01*
X173356845Y-102011480D01*
X174021750Y-102011480D01*
X174117000Y-101916230D01*
X174117000Y-101158040D01*
X173108620Y-101158040D01*
X173013370Y-101253290D01*
X172456000Y-101253290D01*
X172456000Y-100394075D01*
X173013370Y-100394075D01*
X173013370Y-100808790D01*
X173108620Y-100904040D01*
X174117000Y-100904040D01*
X174117000Y-100145850D01*
X174021750Y-100050600D01*
X173356845Y-100050600D01*
X173283236Y-100065242D01*
X173213899Y-100093962D01*
X173151496Y-100135658D01*
X173098428Y-100188727D01*
X173056732Y-100251129D01*
X173028012Y-100320467D01*
X173013370Y-100394075D01*
X172456000Y-100394075D01*
X172456000Y-91916250D01*
X173611540Y-91916250D01*
X173611540Y-92581155D01*
X173626182Y-92654764D01*
X173654902Y-92724101D01*
X173696598Y-92786504D01*
X173749667Y-92839572D01*
X173812069Y-92881268D01*
X173881407Y-92909988D01*
X173955015Y-92924630D01*
X174369730Y-92924630D01*
X174464980Y-92829380D01*
X174464980Y-91821000D01*
X174718980Y-91821000D01*
X174718980Y-92829380D01*
X174814230Y-92924630D01*
X175228945Y-92924630D01*
X175302553Y-92909988D01*
X175371891Y-92881268D01*
X175434293Y-92839572D01*
X175487362Y-92786504D01*
X175529058Y-92724101D01*
X175557778Y-92654764D01*
X175572420Y-92581155D01*
X175572420Y-91916250D01*
X175477170Y-91821000D01*
X174718980Y-91821000D01*
X174464980Y-91821000D01*
X173706790Y-91821000D01*
X173611540Y-91916250D01*
X172456000Y-91916250D01*
X172456000Y-90806845D01*
X173611540Y-90806845D01*
X173611540Y-91471750D01*
X173706790Y-91567000D01*
X174464980Y-91567000D01*
X174464980Y-90558620D01*
X174718980Y-90558620D01*
X174718980Y-91567000D01*
X175477170Y-91567000D01*
X175572420Y-91471750D01*
X175572420Y-91437856D01*
X175613060Y-91437856D01*
X175613060Y-91950144D01*
X175631732Y-92140579D01*
X175687038Y-92323761D01*
X175776871Y-92492711D01*
X175897808Y-92640996D01*
X176045245Y-92762966D01*
X176213564Y-92853976D01*
X176396355Y-92910559D01*
X176586655Y-92930560D01*
X176777216Y-92913218D01*
X176960779Y-92859192D01*
X177130353Y-92770541D01*
X177279478Y-92650642D01*
X177402474Y-92504060D01*
X177494657Y-92336380D01*
X177552515Y-92153989D01*
X177573844Y-91963833D01*
X177573940Y-91950144D01*
X177573940Y-91437856D01*
X177555268Y-91247421D01*
X177499962Y-91064239D01*
X177410129Y-90895289D01*
X177289192Y-90747004D01*
X177141755Y-90625034D01*
X176973436Y-90534024D01*
X176790645Y-90477441D01*
X176600345Y-90457440D01*
X176409784Y-90474782D01*
X176226221Y-90528808D01*
X176056647Y-90617459D01*
X175907522Y-90737358D01*
X175784526Y-90883940D01*
X175692343Y-91051620D01*
X175634485Y-91234011D01*
X175613156Y-91424167D01*
X175613060Y-91437856D01*
X175572420Y-91437856D01*
X175572420Y-90806845D01*
X175557778Y-90733236D01*
X175529058Y-90663899D01*
X175487362Y-90601496D01*
X175434293Y-90548428D01*
X175371891Y-90506732D01*
X175302553Y-90478012D01*
X175228945Y-90463370D01*
X174814230Y-90463370D01*
X174718980Y-90558620D01*
X174464980Y-90558620D01*
X174369730Y-90463370D01*
X173955015Y-90463370D01*
X173881407Y-90478012D01*
X173812069Y-90506732D01*
X173749667Y-90548428D01*
X173696598Y-90601496D01*
X173654902Y-90663899D01*
X173626182Y-90733236D01*
X173611540Y-90806845D01*
X172456000Y-90806845D01*
X172456000Y-89956000D01*
X235544000Y-89956000D01*
X235544000Y-91506055D01*
X235544000Y-91506055D01*
G37*
X235544000Y-91506055D02*
X235457554Y-91344325D01*
X235238622Y-91203983D01*
X234240605Y-92202000D01*
X235238622Y-93200017D01*
X235457554Y-93059675D01*
X235544000Y-92881887D01*
X235544000Y-96586055D01*
X235457554Y-96424325D01*
X235238622Y-96283983D01*
X234240605Y-97282000D01*
X235238622Y-98280017D01*
X235457554Y-98139675D01*
X235544000Y-97961887D01*
X235544000Y-116044000D01*
X172456000Y-116044000D01*
X172456000Y-109146056D01*
X172596171Y-109146056D01*
X172618509Y-109267769D01*
X172664063Y-109382824D01*
X172731097Y-109486841D01*
X172817058Y-109575856D01*
X172918671Y-109646479D01*
X173032067Y-109696020D01*
X173152926Y-109722593D01*
X173276644Y-109725184D01*
X173398509Y-109703696D01*
X173466820Y-109677200D01*
X176034016Y-109677200D01*
X176254171Y-109897355D01*
X176272246Y-109943007D01*
X176339280Y-110047024D01*
X176422441Y-110133139D01*
X176119969Y-110435611D01*
X176090203Y-110471849D01*
X176060021Y-110507818D01*
X176058733Y-110510160D01*
X176057039Y-110512223D01*
X176034869Y-110553570D01*
X176012258Y-110594699D01*
X176011451Y-110597244D01*
X176010188Y-110599599D01*
X175996463Y-110644491D01*
X175982280Y-110689202D01*
X175981982Y-110691855D01*
X175981201Y-110694411D01*
X175976455Y-110741134D01*
X175971229Y-110787728D01*
X175971192Y-110792948D01*
X175971182Y-110793048D01*
X175971191Y-110793142D01*
X175971179Y-110794821D01*
X175971179Y-113154416D01*
X175923554Y-113223971D01*
X175874806Y-113337709D01*
X175849077Y-113458751D01*
X175847350Y-113582484D01*
X175869688Y-113704197D01*
X175915242Y-113819252D01*
X175982276Y-113923269D01*
X176068237Y-114012284D01*
X176169850Y-114082907D01*
X176283246Y-114132448D01*
X176404105Y-114159021D01*
X176525999Y-114161574D01*
X176525999Y-114485655D01*
X176490246Y-114500100D01*
X176386700Y-114567858D01*
X176298287Y-114654439D01*
X176228375Y-114756543D01*
X176179627Y-114870281D01*
X176153898Y-114991323D01*
X176152171Y-115115056D01*
X176174509Y-115236769D01*
X176220063Y-115351824D01*
X176287097Y-115455841D01*
X176373058Y-115544856D01*
X176474671Y-115615479D01*
X176588067Y-115665020D01*
X176708926Y-115691593D01*
X176832644Y-115694184D01*
X176954509Y-115672696D01*
X177069880Y-115627947D01*
X177174362Y-115561641D01*
X177263975Y-115476303D01*
X177335306Y-115375185D01*
X177385638Y-115262138D01*
X177411299Y-115149188D01*
X177422975Y-115134973D01*
X177453157Y-115099004D01*
X177454445Y-115096662D01*
X177456139Y-115094599D01*
X177478309Y-115053252D01*
X177500920Y-115012123D01*
X177501727Y-115009578D01*
X177502990Y-115007223D01*
X177516715Y-114962331D01*
X177530898Y-114917620D01*
X177531196Y-114914967D01*
X177531977Y-114912411D01*
X177536723Y-114865688D01*
X177541949Y-114819094D01*
X177541986Y-114813874D01*
X177541996Y-114813774D01*
X177541987Y-114813680D01*
X177541999Y-114812001D01*
X177541999Y-111212421D01*
X178309021Y-110445399D01*
X178022872Y-110863310D01*
X177761669Y-111472741D01*
X177623814Y-112121300D01*
X177614556Y-112784284D01*
X177734249Y-113436439D01*
X177978333Y-114052926D01*
X178337512Y-114610262D01*
X178798104Y-115087219D01*
X179342566Y-115465630D01*
X179950158Y-115731080D01*
X180597739Y-115873460D01*
X181260642Y-115887346D01*
X181913617Y-115772209D01*
X182531793Y-115532434D01*
X183091623Y-115177155D01*
X183571784Y-114719904D01*
X183953986Y-114178098D01*
X184223672Y-113572373D01*
X184370570Y-112925802D01*
X184381145Y-112168476D01*
X184252358Y-111518055D01*
X183999690Y-110905037D01*
X183632765Y-110352770D01*
X183165558Y-109882290D01*
X182615866Y-109511518D01*
X182004626Y-109254576D01*
X181836185Y-109220000D01*
X182542580Y-109220000D01*
X184531000Y-111208420D01*
X184531000Y-114813988D01*
X184483375Y-114883543D01*
X184434627Y-114997281D01*
X184408898Y-115118323D01*
X184407171Y-115242056D01*
X184429509Y-115363769D01*
X184475063Y-115478824D01*
X184542097Y-115582841D01*
X184628058Y-115671856D01*
X184729671Y-115742479D01*
X184843067Y-115792020D01*
X184963926Y-115818593D01*
X185087644Y-115821184D01*
X185209509Y-115799696D01*
X185324880Y-115754947D01*
X185429362Y-115688641D01*
X185518975Y-115603303D01*
X185590306Y-115502185D01*
X185640638Y-115389138D01*
X185668053Y-115268468D01*
X185670027Y-115127127D01*
X185645991Y-115005739D01*
X185598836Y-114891330D01*
X185547000Y-114813311D01*
X185547000Y-113972056D01*
X187963171Y-113972056D01*
X187985509Y-114093769D01*
X188031063Y-114208824D01*
X188098097Y-114312841D01*
X188184058Y-114401856D01*
X188219577Y-114426542D01*
X188197700Y-114440858D01*
X188109287Y-114527439D01*
X188039375Y-114629543D01*
X187990627Y-114743281D01*
X187964898Y-114864323D01*
X187963171Y-114988056D01*
X187985509Y-115109769D01*
X188031063Y-115224824D01*
X188098097Y-115328841D01*
X188184058Y-115417856D01*
X188285671Y-115488479D01*
X188399067Y-115538020D01*
X188519926Y-115564593D01*
X188643644Y-115567184D01*
X188765509Y-115545696D01*
X188880880Y-115500947D01*
X188972190Y-115443000D01*
X190754000Y-115443000D01*
X190800704Y-115438421D01*
X190847448Y-115434331D01*
X190850014Y-115433586D01*
X190852671Y-115433325D01*
X190897556Y-115419773D01*
X190942655Y-115406671D01*
X190945029Y-115405440D01*
X190947584Y-115404669D01*
X190988977Y-115382660D01*
X191030677Y-115361045D01*
X191032766Y-115359377D01*
X191035123Y-115358124D01*
X191071509Y-115328448D01*
X191108159Y-115299190D01*
X191111874Y-115295527D01*
X191111954Y-115295462D01*
X191112015Y-115295388D01*
X191113210Y-115294210D01*
X193261283Y-113146137D01*
X193337509Y-113132696D01*
X193452880Y-113087947D01*
X193557362Y-113021641D01*
X193646975Y-112936303D01*
X193718306Y-112835185D01*
X193768638Y-112722138D01*
X193796053Y-112601468D01*
X193798027Y-112460127D01*
X193773991Y-112338739D01*
X193726836Y-112224330D01*
X193658356Y-112121260D01*
X193571161Y-112033454D01*
X193468571Y-111964256D01*
X193354495Y-111916303D01*
X193233277Y-111891420D01*
X193109534Y-111890557D01*
X192987981Y-111913744D01*
X192940095Y-111933091D01*
X192896356Y-111867260D01*
X192809161Y-111779454D01*
X192706571Y-111710256D01*
X192592495Y-111662303D01*
X192471277Y-111637420D01*
X192347534Y-111636557D01*
X192225981Y-111659744D01*
X192111246Y-111706100D01*
X192007700Y-111773858D01*
X191919287Y-111860439D01*
X191849375Y-111962543D01*
X191800627Y-112076281D01*
X191779660Y-112174919D01*
X190543580Y-113411000D01*
X188970319Y-113411000D01*
X188896571Y-113361256D01*
X188782495Y-113313303D01*
X188661277Y-113288420D01*
X188537534Y-113287557D01*
X188415981Y-113310744D01*
X188301246Y-113357100D01*
X188197700Y-113424858D01*
X188109287Y-113511439D01*
X188039375Y-113613543D01*
X187990627Y-113727281D01*
X187964898Y-113848323D01*
X187963171Y-113972056D01*
X185547000Y-113972056D01*
X185547000Y-113152622D01*
X185558097Y-113169841D01*
X185644058Y-113258856D01*
X185745671Y-113329479D01*
X185859067Y-113379020D01*
X185979926Y-113405593D01*
X186103644Y-113408184D01*
X186225509Y-113386696D01*
X186340880Y-113341947D01*
X186445362Y-113275641D01*
X186534975Y-113190303D01*
X186606306Y-113089185D01*
X186656638Y-112976138D01*
X186684053Y-112855468D01*
X186686027Y-112714127D01*
X186661991Y-112592739D01*
X186614836Y-112478330D01*
X186563000Y-112400311D01*
X186563000Y-111403328D01*
X186558425Y-111356670D01*
X186554332Y-111309881D01*
X186553585Y-111307310D01*
X186553325Y-111304657D01*
X186539782Y-111259801D01*
X186526671Y-111214673D01*
X186525440Y-111212299D01*
X186524669Y-111209744D01*
X186502649Y-111168331D01*
X186481045Y-111126652D01*
X186479379Y-111124564D01*
X186478124Y-111122205D01*
X186448455Y-111085828D01*
X186419191Y-111049169D01*
X186415523Y-111045448D01*
X186415462Y-111045374D01*
X186415393Y-111045317D01*
X186414211Y-111044118D01*
X183291071Y-107920979D01*
X183254830Y-107891210D01*
X183218864Y-107861031D01*
X183216522Y-107859743D01*
X183214459Y-107858049D01*
X183173112Y-107835879D01*
X183131983Y-107813268D01*
X183129438Y-107812461D01*
X183127083Y-107811198D01*
X183082191Y-107797473D01*
X183037480Y-107783290D01*
X183034827Y-107782992D01*
X183032271Y-107782211D01*
X182985548Y-107777465D01*
X182938954Y-107772239D01*
X182933734Y-107772202D01*
X182933713Y-107772200D01*
X187579000Y-107772200D01*
X187632701Y-107766935D01*
X187686464Y-107762231D01*
X187689415Y-107761374D01*
X187692472Y-107761074D01*
X187744113Y-107745483D01*
X187795953Y-107730422D01*
X187798682Y-107729007D01*
X187801621Y-107728120D01*
X187849275Y-107702782D01*
X187897178Y-107677951D01*
X187899576Y-107676036D01*
X187902291Y-107674593D01*
X187944115Y-107640482D01*
X187986284Y-107606819D01*
X187990564Y-107602599D01*
X187990647Y-107602531D01*
X187990711Y-107602454D01*
X187992092Y-107601092D01*
X188980105Y-106613078D01*
X193089237Y-110722210D01*
X193125475Y-110751976D01*
X193161444Y-110782158D01*
X193163786Y-110783446D01*
X193165849Y-110785140D01*
X193207196Y-110807310D01*
X193248325Y-110829921D01*
X193248822Y-110830079D01*
X193264058Y-110845856D01*
X193365671Y-110916479D01*
X193479067Y-110966020D01*
X193599926Y-110992593D01*
X193723644Y-110995184D01*
X193845509Y-110973696D01*
X193960880Y-110928947D01*
X194065362Y-110862641D01*
X194154975Y-110777303D01*
X194226306Y-110676185D01*
X194276638Y-110563138D01*
X194304053Y-110442468D01*
X194306027Y-110301127D01*
X194281991Y-110179739D01*
X194234836Y-110065330D01*
X194166356Y-109962260D01*
X194079161Y-109874454D01*
X193976571Y-109805256D01*
X193862495Y-109757303D01*
X193741277Y-109732420D01*
X193617534Y-109731557D01*
X193548578Y-109744711D01*
X189693353Y-105889486D01*
X189704638Y-105864138D01*
X189732053Y-105743468D01*
X189734027Y-105602127D01*
X189709991Y-105480739D01*
X189662836Y-105366330D01*
X189594356Y-105263260D01*
X189507161Y-105175454D01*
X189404571Y-105106256D01*
X189290495Y-105058303D01*
X189169277Y-105033420D01*
X189045534Y-105032557D01*
X188923981Y-105055744D01*
X188809246Y-105102100D01*
X188705700Y-105169858D01*
X188617287Y-105256439D01*
X188547375Y-105358543D01*
X188521198Y-105419619D01*
X187337016Y-106603800D01*
X181305200Y-106603800D01*
X181305200Y-105778984D01*
X186468092Y-100616092D01*
X186502361Y-100574372D01*
X186537031Y-100533054D01*
X186538511Y-100530362D01*
X186540461Y-100527988D01*
X186565958Y-100480437D01*
X186591959Y-100433141D01*
X186592888Y-100430212D01*
X186594339Y-100427506D01*
X186610106Y-100375934D01*
X186626434Y-100324462D01*
X186626777Y-100321407D01*
X186627674Y-100318472D01*
X186633123Y-100264829D01*
X186639143Y-100211157D01*
X186639185Y-100205147D01*
X186639196Y-100205039D01*
X186639186Y-100204938D01*
X186639200Y-100203000D01*
X186639200Y-98410304D01*
X186656638Y-98371138D01*
X186684053Y-98250468D01*
X186686027Y-98109127D01*
X186661991Y-97987739D01*
X186614836Y-97873330D01*
X186546356Y-97770260D01*
X186459161Y-97682454D01*
X186356571Y-97613256D01*
X186242495Y-97565303D01*
X186121277Y-97540420D01*
X185997534Y-97539557D01*
X185875981Y-97562744D01*
X185761246Y-97609100D01*
X185657700Y-97676858D01*
X185569287Y-97763439D01*
X185499375Y-97865543D01*
X185450627Y-97979281D01*
X185424898Y-98100323D01*
X185423171Y-98224056D01*
X185445509Y-98345769D01*
X185470800Y-98409646D01*
X185470800Y-99961016D01*
X182747205Y-102684611D01*
X182749027Y-102554127D01*
X182724991Y-102432739D01*
X182677836Y-102318330D01*
X182626000Y-102240311D01*
X182626000Y-101162312D01*
X182657880Y-101149947D01*
X182762362Y-101083641D01*
X182851975Y-100998303D01*
X182923306Y-100897185D01*
X182973638Y-100784138D01*
X183001053Y-100663468D01*
X183003027Y-100522127D01*
X182978991Y-100400739D01*
X182931836Y-100286330D01*
X182863356Y-100183260D01*
X182776161Y-100095454D01*
X182673571Y-100026256D01*
X182559495Y-99978303D01*
X182438277Y-99953420D01*
X182314534Y-99952557D01*
X182192981Y-99975744D01*
X182078246Y-100022100D01*
X181974700Y-100089858D01*
X181886287Y-100176439D01*
X181816375Y-100278543D01*
X181767627Y-100392281D01*
X181745904Y-100494478D01*
X181729024Y-100515028D01*
X181698842Y-100550997D01*
X181697554Y-100553339D01*
X181695860Y-100555402D01*
X181673690Y-100596749D01*
X181651079Y-100637878D01*
X181650272Y-100640423D01*
X181649009Y-100642778D01*
X181635284Y-100687670D01*
X181621101Y-100732381D01*
X181620803Y-100735034D01*
X181620022Y-100737590D01*
X181615276Y-100784313D01*
X181610050Y-100830907D01*
X181610013Y-100836127D01*
X181610003Y-100836227D01*
X181610012Y-100836321D01*
X181610000Y-100838000D01*
X181610000Y-102240988D01*
X181562375Y-102310543D01*
X181513627Y-102424281D01*
X181487898Y-102545323D01*
X181486171Y-102669056D01*
X181508509Y-102790769D01*
X181554063Y-102905824D01*
X181621097Y-103009841D01*
X181707058Y-103098856D01*
X181808671Y-103169479D01*
X181922067Y-103219020D01*
X182042926Y-103245593D01*
X182166644Y-103248184D01*
X182187269Y-103244547D01*
X180307908Y-105123908D01*
X180273639Y-105165628D01*
X180238969Y-105206946D01*
X180237489Y-105209638D01*
X180235539Y-105212012D01*
X180210042Y-105259563D01*
X180184041Y-105306859D01*
X180183112Y-105309788D01*
X180181661Y-105312494D01*
X180165894Y-105364066D01*
X180149566Y-105415538D01*
X180149223Y-105418593D01*
X180148326Y-105421528D01*
X180142877Y-105475171D01*
X180136857Y-105528843D01*
X180136815Y-105534853D01*
X180136804Y-105534961D01*
X180136814Y-105535062D01*
X180136800Y-105537000D01*
X180136800Y-105777616D01*
X179737092Y-105377908D01*
X179695372Y-105343639D01*
X179654054Y-105308969D01*
X179651362Y-105307489D01*
X179648988Y-105305539D01*
X179601437Y-105280042D01*
X179554141Y-105254041D01*
X179551212Y-105253112D01*
X179548506Y-105251661D01*
X179496934Y-105235894D01*
X179445462Y-105219566D01*
X179442407Y-105219223D01*
X179439472Y-105218326D01*
X179385829Y-105212877D01*
X179332157Y-105206857D01*
X179326147Y-105206815D01*
X179326039Y-105206804D01*
X179325938Y-105206814D01*
X179324000Y-105206800D01*
X178165634Y-105206800D01*
X178114495Y-105185303D01*
X177993277Y-105160420D01*
X177869534Y-105159557D01*
X177747981Y-105182744D01*
X177633246Y-105229100D01*
X177529700Y-105296858D01*
X177441287Y-105383439D01*
X177371375Y-105485543D01*
X177322627Y-105599281D01*
X177296898Y-105720323D01*
X177295171Y-105844056D01*
X177317509Y-105965769D01*
X177363063Y-106080824D01*
X177430097Y-106184841D01*
X177516058Y-106273856D01*
X177617671Y-106344479D01*
X177731067Y-106394020D01*
X177851926Y-106420593D01*
X177975644Y-106423184D01*
X178097509Y-106401696D01*
X178165820Y-106375200D01*
X179082016Y-106375200D01*
X180138988Y-107432172D01*
X180157063Y-107477824D01*
X180224097Y-107581841D01*
X180310058Y-107670856D01*
X180411671Y-107741479D01*
X180481964Y-107772189D01*
X178993811Y-107772189D01*
X178947103Y-107776769D01*
X178900364Y-107780858D01*
X178897799Y-107781603D01*
X178895140Y-107781864D01*
X178850243Y-107795419D01*
X178805156Y-107808518D01*
X178802782Y-107809749D01*
X178800227Y-107810520D01*
X178758834Y-107832529D01*
X178717134Y-107854144D01*
X178715045Y-107855812D01*
X178712688Y-107857065D01*
X178676333Y-107886716D01*
X178639652Y-107915998D01*
X178635936Y-107919663D01*
X178635857Y-107919727D01*
X178635797Y-107919800D01*
X178634601Y-107920979D01*
X177315381Y-109240199D01*
X177240344Y-109164637D01*
X177137754Y-109095439D01*
X177080596Y-109071412D01*
X176084230Y-108075046D01*
X176084230Y-98033840D01*
X176078965Y-97980139D01*
X176074261Y-97926376D01*
X176073404Y-97923425D01*
X176073104Y-97920368D01*
X176057513Y-97868727D01*
X176042452Y-97816887D01*
X176041037Y-97814158D01*
X176040150Y-97811219D01*
X176014833Y-97763604D01*
X175989982Y-97715662D01*
X175988064Y-97713260D01*
X175986623Y-97710549D01*
X175952539Y-97668758D01*
X175918850Y-97626557D01*
X175914632Y-97622280D01*
X175914561Y-97622193D01*
X175914480Y-97622126D01*
X175913122Y-97620749D01*
X175813016Y-97520643D01*
X175818208Y-97517951D01*
X175820606Y-97516036D01*
X175823321Y-97514593D01*
X175865145Y-97480482D01*
X175907314Y-97446819D01*
X175911594Y-97442599D01*
X175911677Y-97442531D01*
X175911741Y-97442454D01*
X175913122Y-97441092D01*
X176758014Y-96596200D01*
X180213000Y-96596200D01*
X180266701Y-96590935D01*
X180320464Y-96586231D01*
X180323415Y-96585374D01*
X180326472Y-96585074D01*
X180378113Y-96569483D01*
X180429953Y-96554422D01*
X180432682Y-96553007D01*
X180435621Y-96552120D01*
X180483275Y-96526782D01*
X180531178Y-96501951D01*
X180533576Y-96500036D01*
X180536291Y-96498593D01*
X180578115Y-96464482D01*
X180620284Y-96430819D01*
X180624564Y-96426599D01*
X180624647Y-96426531D01*
X180624711Y-96426454D01*
X180626092Y-96425092D01*
X181007092Y-96044092D01*
X181041361Y-96002372D01*
X181076031Y-95961054D01*
X181077511Y-95958362D01*
X181079461Y-95955988D01*
X181104958Y-95908437D01*
X181130959Y-95861141D01*
X181131888Y-95858212D01*
X181133339Y-95855506D01*
X181149106Y-95803934D01*
X181165434Y-95752462D01*
X181165777Y-95749407D01*
X181166674Y-95746472D01*
X181172123Y-95692825D01*
X181178143Y-95639157D01*
X181178185Y-95633148D01*
X181178196Y-95633040D01*
X181178186Y-95632939D01*
X181178200Y-95631000D01*
X181178200Y-92732473D01*
X181279978Y-92650642D01*
X181402974Y-92504060D01*
X181495157Y-92336380D01*
X181553015Y-92153989D01*
X181574344Y-91963833D01*
X181574440Y-91950144D01*
X181574440Y-91916250D01*
X184150000Y-91916250D01*
X184150000Y-92581155D01*
X184164642Y-92654764D01*
X184193362Y-92724101D01*
X184235058Y-92786504D01*
X184288127Y-92839572D01*
X184350529Y-92881268D01*
X184419867Y-92909988D01*
X184493475Y-92924630D01*
X184908190Y-92924630D01*
X185003440Y-92829380D01*
X185003440Y-91821000D01*
X185257440Y-91821000D01*
X185257440Y-92829380D01*
X185352690Y-92924630D01*
X185767405Y-92924630D01*
X185841013Y-92909988D01*
X185910351Y-92881268D01*
X185972753Y-92839572D01*
X186025822Y-92786504D01*
X186067518Y-92724101D01*
X186096238Y-92654764D01*
X186110880Y-92581155D01*
X186110880Y-91916250D01*
X186015630Y-91821000D01*
X185257440Y-91821000D01*
X185003440Y-91821000D01*
X184245250Y-91821000D01*
X184150000Y-91916250D01*
X181574440Y-91916250D01*
X181574440Y-91437856D01*
X181555768Y-91247421D01*
X181500462Y-91064239D01*
X181410629Y-90895289D01*
X181338497Y-90806845D01*
X184150000Y-90806845D01*
X184150000Y-91471750D01*
X184245250Y-91567000D01*
X185003440Y-91567000D01*
X185003440Y-90558620D01*
X185257440Y-90558620D01*
X185257440Y-91567000D01*
X186015630Y-91567000D01*
X186110880Y-91471750D01*
X186110880Y-91437856D01*
X186151520Y-91437856D01*
X186151520Y-91950144D01*
X186170192Y-92140579D01*
X186225498Y-92323761D01*
X186315331Y-92492711D01*
X186436268Y-92640996D01*
X186583705Y-92762966D01*
X186752024Y-92853976D01*
X186934815Y-92910559D01*
X187125115Y-92930560D01*
X187315676Y-92913218D01*
X187367357Y-92898007D01*
X187477400Y-93008051D01*
X187477400Y-94259400D01*
X187481979Y-94306104D01*
X187486069Y-94352848D01*
X187486814Y-94355414D01*
X187487075Y-94358071D01*
X187500627Y-94402956D01*
X187513729Y-94448055D01*
X187514960Y-94450429D01*
X187515731Y-94452984D01*
X187537740Y-94494377D01*
X187559355Y-94536077D01*
X187561023Y-94538166D01*
X187562276Y-94540523D01*
X187591952Y-94576909D01*
X187621210Y-94613559D01*
X187624873Y-94617274D01*
X187624938Y-94617354D01*
X187625012Y-94617415D01*
X187626190Y-94618610D01*
X192405000Y-99397420D01*
X192405000Y-105923988D01*
X192357375Y-105993543D01*
X192308627Y-106107281D01*
X192282898Y-106228323D01*
X192281171Y-106352056D01*
X192303509Y-106473769D01*
X192349063Y-106588824D01*
X192416097Y-106692841D01*
X192502058Y-106781856D01*
X192603671Y-106852479D01*
X192717067Y-106902020D01*
X192837926Y-106928593D01*
X192961644Y-106931184D01*
X193083509Y-106909696D01*
X193198880Y-106864947D01*
X193303362Y-106798641D01*
X193392975Y-106713303D01*
X193464306Y-106612185D01*
X193514638Y-106499138D01*
X193542053Y-106378468D01*
X193544027Y-106237127D01*
X193519991Y-106115739D01*
X193472836Y-106001330D01*
X193421000Y-105923311D01*
X193421000Y-103936811D01*
X194386189Y-103936811D01*
X194386189Y-109652861D01*
X194390768Y-109699565D01*
X194394858Y-109746309D01*
X194395603Y-109748875D01*
X194395864Y-109751532D01*
X194409416Y-109796417D01*
X194422518Y-109841516D01*
X194423749Y-109843890D01*
X194424520Y-109846445D01*
X194446529Y-109887838D01*
X194468144Y-109929538D01*
X194469812Y-109931627D01*
X194471065Y-109933984D01*
X194500741Y-109970370D01*
X194529999Y-110007020D01*
X194533662Y-110010735D01*
X194533727Y-110010815D01*
X194533801Y-110010876D01*
X194534979Y-110012071D01*
X195072000Y-110549092D01*
X195072000Y-112781988D01*
X195024375Y-112851543D01*
X194975627Y-112965281D01*
X194949898Y-113086323D01*
X194948171Y-113210056D01*
X194970509Y-113331769D01*
X195016063Y-113446824D01*
X195083097Y-113550841D01*
X195169058Y-113639856D01*
X195270671Y-113710479D01*
X195384067Y-113760020D01*
X195504926Y-113786593D01*
X195628644Y-113789184D01*
X195750509Y-113767696D01*
X195865880Y-113722947D01*
X195970362Y-113656641D01*
X196059975Y-113571303D01*
X196131306Y-113470185D01*
X196181638Y-113357138D01*
X196209053Y-113236468D01*
X196210830Y-113109250D01*
X197252790Y-114151210D01*
X197289028Y-114180976D01*
X197324997Y-114211158D01*
X197327339Y-114212446D01*
X197329402Y-114214140D01*
X197370749Y-114236310D01*
X197411878Y-114258921D01*
X197414423Y-114259728D01*
X197416778Y-114260991D01*
X197461670Y-114274716D01*
X197506381Y-114288899D01*
X197509034Y-114289197D01*
X197511590Y-114289978D01*
X197558318Y-114294724D01*
X197604907Y-114299950D01*
X197610125Y-114299987D01*
X197610226Y-114299997D01*
X197610320Y-114299988D01*
X197612000Y-114300000D01*
X198761235Y-114300000D01*
X198826671Y-114345479D01*
X198940067Y-114395020D01*
X199060926Y-114421593D01*
X199184644Y-114424184D01*
X199306509Y-114402696D01*
X199421880Y-114357947D01*
X199526362Y-114291641D01*
X199615975Y-114206303D01*
X199687306Y-114105185D01*
X199714611Y-114043856D01*
X200695559Y-114043856D01*
X200695559Y-114556144D01*
X200714231Y-114746579D01*
X200769537Y-114929761D01*
X200859370Y-115098711D01*
X200980307Y-115246996D01*
X201127744Y-115368966D01*
X201296063Y-115459976D01*
X201478854Y-115516559D01*
X201669154Y-115536560D01*
X201859715Y-115519218D01*
X202043278Y-115465192D01*
X202212852Y-115376541D01*
X202361977Y-115256642D01*
X202484973Y-115110060D01*
X202577156Y-114942380D01*
X202635014Y-114759989D01*
X202656343Y-114569833D01*
X202656439Y-114556144D01*
X202656439Y-114043856D01*
X202694539Y-114043856D01*
X202694539Y-114556144D01*
X202713211Y-114746579D01*
X202768517Y-114929761D01*
X202858350Y-115098711D01*
X202979287Y-115246996D01*
X203126724Y-115368966D01*
X203295043Y-115459976D01*
X203477834Y-115516559D01*
X203668134Y-115536560D01*
X203858695Y-115519218D01*
X204042258Y-115465192D01*
X204211832Y-115376541D01*
X204360957Y-115256642D01*
X204483953Y-115110060D01*
X204576136Y-114942380D01*
X204633994Y-114759989D01*
X204655323Y-114569833D01*
X204655419Y-114556144D01*
X204655419Y-114043856D01*
X204696059Y-114043856D01*
X204696059Y-114556144D01*
X204714731Y-114746579D01*
X204770037Y-114929761D01*
X204859870Y-115098711D01*
X204980807Y-115246996D01*
X205128244Y-115368966D01*
X205296563Y-115459976D01*
X205479354Y-115516559D01*
X205669654Y-115536560D01*
X205860215Y-115519218D01*
X206043778Y-115465192D01*
X206213352Y-115376541D01*
X206362477Y-115256642D01*
X206485473Y-115110060D01*
X206577656Y-114942380D01*
X206635514Y-114759989D01*
X206656843Y-114569833D01*
X206656939Y-114556144D01*
X206656939Y-114522250D01*
X206697579Y-114522250D01*
X206697579Y-115187155D01*
X206712221Y-115260764D01*
X206740941Y-115330101D01*
X206782637Y-115392504D01*
X206835706Y-115445572D01*
X206898108Y-115487268D01*
X206967446Y-115515988D01*
X207041054Y-115530630D01*
X207455769Y-115530630D01*
X207551019Y-115435380D01*
X207551019Y-114427000D01*
X207805019Y-114427000D01*
X207805019Y-115435380D01*
X207900269Y-115530630D01*
X208314984Y-115530630D01*
X208388592Y-115515988D01*
X208457930Y-115487268D01*
X208520332Y-115445572D01*
X208573401Y-115392504D01*
X208615097Y-115330101D01*
X208643817Y-115260764D01*
X208658459Y-115187155D01*
X208658459Y-114522250D01*
X208563209Y-114427000D01*
X207805019Y-114427000D01*
X207551019Y-114427000D01*
X206792829Y-114427000D01*
X206697579Y-114522250D01*
X206656939Y-114522250D01*
X206656939Y-114043856D01*
X206638267Y-113853421D01*
X206582961Y-113670239D01*
X206493128Y-113501289D01*
X206420996Y-113412845D01*
X206697579Y-113412845D01*
X206697579Y-114077750D01*
X206792829Y-114173000D01*
X207551019Y-114173000D01*
X207551019Y-113164620D01*
X207805019Y-113164620D01*
X207805019Y-114173000D01*
X208563209Y-114173000D01*
X208658459Y-114077750D01*
X208658459Y-113412845D01*
X208643817Y-113339236D01*
X208615097Y-113269899D01*
X208573401Y-113207496D01*
X208520332Y-113154428D01*
X208457930Y-113112732D01*
X208388592Y-113084012D01*
X208314984Y-113069370D01*
X207900269Y-113069370D01*
X207805019Y-113164620D01*
X207551019Y-113164620D01*
X207455769Y-113069370D01*
X207041054Y-113069370D01*
X206967446Y-113084012D01*
X206898108Y-113112732D01*
X206835706Y-113154428D01*
X206782637Y-113207496D01*
X206740941Y-113269899D01*
X206712221Y-113339236D01*
X206697579Y-113412845D01*
X206420996Y-113412845D01*
X206372191Y-113353004D01*
X206224754Y-113231034D01*
X206056435Y-113140024D01*
X205873644Y-113083441D01*
X205683344Y-113063440D01*
X205492783Y-113080782D01*
X205309220Y-113134808D01*
X205139646Y-113223459D01*
X204990521Y-113343358D01*
X204867525Y-113489940D01*
X204775342Y-113657620D01*
X204717484Y-113840011D01*
X204696155Y-114030167D01*
X204696059Y-114043856D01*
X204655419Y-114043856D01*
X204636747Y-113853421D01*
X204581441Y-113670239D01*
X204491608Y-113501289D01*
X204370671Y-113353004D01*
X204223234Y-113231034D01*
X204054915Y-113140024D01*
X203872124Y-113083441D01*
X203681824Y-113063440D01*
X203491263Y-113080782D01*
X203307700Y-113134808D01*
X203138126Y-113223459D01*
X202989001Y-113343358D01*
X202866005Y-113489940D01*
X202773822Y-113657620D01*
X202715964Y-113840011D01*
X202694635Y-114030167D01*
X202694539Y-114043856D01*
X202656439Y-114043856D01*
X202637767Y-113853421D01*
X202582461Y-113670239D01*
X202492628Y-113501289D01*
X202371691Y-113353004D01*
X202224254Y-113231034D01*
X202055935Y-113140024D01*
X201873144Y-113083441D01*
X201682844Y-113063440D01*
X201492283Y-113080782D01*
X201308720Y-113134808D01*
X201139146Y-113223459D01*
X200990021Y-113343358D01*
X200867025Y-113489940D01*
X200774842Y-113657620D01*
X200716984Y-113840011D01*
X200695655Y-114030167D01*
X200695559Y-114043856D01*
X199714611Y-114043856D01*
X199737638Y-113992138D01*
X199765053Y-113871468D01*
X199767027Y-113730127D01*
X199742991Y-113608739D01*
X199695836Y-113494330D01*
X199627356Y-113391260D01*
X199540161Y-113303454D01*
X199437571Y-113234256D01*
X199323495Y-113186303D01*
X199202277Y-113161420D01*
X199078534Y-113160557D01*
X198956981Y-113183744D01*
X198842246Y-113230100D01*
X198759877Y-113284000D01*
X197822420Y-113284000D01*
X197322704Y-112784284D01*
X226614556Y-112784284D01*
X226734249Y-113436439D01*
X226978333Y-114052926D01*
X227337512Y-114610262D01*
X227798104Y-115087219D01*
X228342566Y-115465630D01*
X228950158Y-115731080D01*
X229597739Y-115873460D01*
X230260642Y-115887346D01*
X230913617Y-115772209D01*
X231531793Y-115532434D01*
X232091623Y-115177155D01*
X232571784Y-114719904D01*
X232953986Y-114178098D01*
X233223672Y-113572373D01*
X233370570Y-112925802D01*
X233381145Y-112168476D01*
X233252358Y-111518055D01*
X232999690Y-110905037D01*
X232632765Y-110352770D01*
X232165558Y-109882290D01*
X231615866Y-109511518D01*
X231004626Y-109254576D01*
X230355121Y-109121252D01*
X229692089Y-109116623D01*
X229040785Y-109240866D01*
X228426017Y-109489248D01*
X227871202Y-109852309D01*
X227397472Y-110316220D01*
X227022872Y-110863310D01*
X226761669Y-111472741D01*
X226623814Y-112121300D01*
X226614556Y-112784284D01*
X197322704Y-112784284D01*
X196850000Y-112311580D01*
X196850000Y-110490000D01*
X196845421Y-110443296D01*
X196841331Y-110396552D01*
X196840586Y-110393986D01*
X196840325Y-110391329D01*
X196826773Y-110346444D01*
X196813671Y-110301345D01*
X196812440Y-110298971D01*
X196811669Y-110296416D01*
X196789660Y-110255023D01*
X196777726Y-110231999D01*
X201047840Y-110231999D01*
X200993375Y-110311543D01*
X200944627Y-110425281D01*
X200918898Y-110546323D01*
X200917171Y-110670056D01*
X200939509Y-110791769D01*
X200985063Y-110906824D01*
X201052097Y-111010841D01*
X201138058Y-111099856D01*
X201239671Y-111170479D01*
X201353067Y-111220020D01*
X201456296Y-111242717D01*
X201697789Y-111484210D01*
X201734052Y-111513997D01*
X201769997Y-111544158D01*
X201772339Y-111545446D01*
X201774402Y-111547140D01*
X201815714Y-111569291D01*
X201856878Y-111591921D01*
X201859428Y-111592730D01*
X201861778Y-111593990D01*
X201906583Y-111607688D01*
X201951381Y-111621899D01*
X201954039Y-111622197D01*
X201956590Y-111622977D01*
X202003223Y-111627714D01*
X202049907Y-111632950D01*
X202055136Y-111632987D01*
X202055226Y-111632996D01*
X202055310Y-111632988D01*
X202057000Y-111633000D01*
X207434580Y-111633000D01*
X208174790Y-112373210D01*
X208211028Y-112402976D01*
X208246997Y-112433158D01*
X208249339Y-112434446D01*
X208251402Y-112436140D01*
X208292731Y-112458300D01*
X208333878Y-112480921D01*
X208336426Y-112481729D01*
X208338779Y-112482991D01*
X208383656Y-112496711D01*
X208428381Y-112510899D01*
X208431034Y-112511197D01*
X208433590Y-112511978D01*
X208480313Y-112516724D01*
X208526907Y-112521950D01*
X208532127Y-112521987D01*
X208532227Y-112521997D01*
X208532321Y-112521988D01*
X208534000Y-112522000D01*
X219712822Y-112522000D01*
X219721097Y-112534841D01*
X219807058Y-112623856D01*
X219908671Y-112694479D01*
X220022067Y-112744020D01*
X220142926Y-112770593D01*
X220266644Y-112773184D01*
X220388509Y-112751696D01*
X220503880Y-112706947D01*
X220608362Y-112640641D01*
X220697975Y-112555303D01*
X220769306Y-112454185D01*
X220819638Y-112341138D01*
X220847053Y-112220468D01*
X220849027Y-112079127D01*
X220824991Y-111957739D01*
X220777836Y-111843330D01*
X220709356Y-111740260D01*
X220622161Y-111652454D01*
X220570686Y-111617734D01*
X221582284Y-110606136D01*
X221658509Y-110592696D01*
X221773880Y-110547947D01*
X221878362Y-110481641D01*
X221967975Y-110396303D01*
X222039306Y-110295185D01*
X222089638Y-110182138D01*
X222117053Y-110061468D01*
X222119027Y-109920127D01*
X222094991Y-109798739D01*
X222047836Y-109684330D01*
X221979356Y-109581260D01*
X221892161Y-109493454D01*
X221789571Y-109424256D01*
X221675495Y-109376303D01*
X221554277Y-109351420D01*
X221483108Y-109350924D01*
X221484027Y-109285127D01*
X221459991Y-109163739D01*
X221412836Y-109049330D01*
X221344356Y-108946260D01*
X221257161Y-108858454D01*
X221154571Y-108789256D01*
X221040495Y-108741303D01*
X220919277Y-108716420D01*
X220795534Y-108715557D01*
X220673981Y-108738744D01*
X220559246Y-108785100D01*
X220455700Y-108852858D01*
X220367287Y-108939439D01*
X220297375Y-109041543D01*
X220248627Y-109155281D01*
X220227660Y-109253919D01*
X218991580Y-110490000D01*
X211057254Y-110490000D01*
X211065143Y-110455277D01*
X211538420Y-109982000D01*
X213239235Y-109982000D01*
X213304671Y-110027479D01*
X213418067Y-110077020D01*
X213538926Y-110103593D01*
X213662644Y-110106184D01*
X213784509Y-110084696D01*
X213899880Y-110039947D01*
X214004362Y-109973641D01*
X214093975Y-109888303D01*
X214165306Y-109787185D01*
X214215638Y-109674138D01*
X214243053Y-109553468D01*
X214245027Y-109412127D01*
X214220991Y-109290739D01*
X214173836Y-109176330D01*
X214105356Y-109073260D01*
X214018161Y-108985454D01*
X213915571Y-108916256D01*
X213801495Y-108868303D01*
X213680277Y-108843420D01*
X213556534Y-108842557D01*
X213434981Y-108865744D01*
X213320246Y-108912100D01*
X213237877Y-108966000D01*
X211328000Y-108966000D01*
X211281296Y-108970579D01*
X211234552Y-108974669D01*
X211231986Y-108975414D01*
X211229329Y-108975675D01*
X211184444Y-108989227D01*
X211139345Y-109002329D01*
X211136971Y-109003560D01*
X211134416Y-109004331D01*
X211093023Y-109026340D01*
X211051323Y-109047955D01*
X211049234Y-109049623D01*
X211046877Y-109050876D01*
X211010491Y-109080552D01*
X210973841Y-109109810D01*
X210970126Y-109113473D01*
X210970046Y-109113538D01*
X210969985Y-109113612D01*
X210968790Y-109114790D01*
X210818083Y-109265497D01*
X210803190Y-109246841D01*
X210799527Y-109243126D01*
X210799462Y-109243046D01*
X210799388Y-109242985D01*
X210798210Y-109241790D01*
X207669928Y-106113508D01*
X207669928Y-105631414D01*
X209825740Y-103475602D01*
X211636798Y-103475602D01*
X211685789Y-103470798D01*
X211734918Y-103466500D01*
X211737615Y-103465716D01*
X211740403Y-103465443D01*
X211787523Y-103451217D01*
X211834885Y-103437457D01*
X211837377Y-103436165D01*
X211840061Y-103435355D01*
X211883536Y-103412239D01*
X211927309Y-103389549D01*
X211929503Y-103387797D01*
X211931977Y-103386482D01*
X211970139Y-103355358D01*
X212008666Y-103324602D01*
X212012571Y-103320751D01*
X212012650Y-103320687D01*
X212012710Y-103320614D01*
X212013969Y-103319373D01*
X212594171Y-102739170D01*
X212625414Y-102701134D01*
X212657116Y-102663353D01*
X212658470Y-102660891D01*
X212660247Y-102658727D01*
X212683514Y-102615336D01*
X212707267Y-102572129D01*
X212708115Y-102569456D01*
X212709441Y-102566983D01*
X212723853Y-102519842D01*
X212738744Y-102472900D01*
X212739057Y-102470114D01*
X212739877Y-102467430D01*
X212744858Y-102418389D01*
X212750348Y-102369447D01*
X212750386Y-102363967D01*
X212750397Y-102363861D01*
X212750388Y-102363763D01*
X212750400Y-102362000D01*
X212750400Y-101176568D01*
X212768306Y-101151185D01*
X212818638Y-101038138D01*
X212846053Y-100917468D01*
X212848027Y-100776127D01*
X212823991Y-100654739D01*
X212776836Y-100540330D01*
X212708356Y-100437260D01*
X212621161Y-100349454D01*
X212518571Y-100280256D01*
X212404495Y-100232303D01*
X212283277Y-100207420D01*
X212159534Y-100206557D01*
X212037981Y-100229744D01*
X211923246Y-100276100D01*
X211821626Y-100342598D01*
X211807991Y-100273739D01*
X211760836Y-100159330D01*
X211692356Y-100056260D01*
X211605161Y-99968454D01*
X211502571Y-99899256D01*
X211388495Y-99851303D01*
X211267277Y-99826420D01*
X211143534Y-99825557D01*
X211021981Y-99848744D01*
X210907246Y-99895100D01*
X210803700Y-99962858D01*
X210715287Y-100049439D01*
X210645375Y-100151543D01*
X210596627Y-100265281D01*
X210570898Y-100386323D01*
X210569171Y-100510056D01*
X210591509Y-100631769D01*
X210637063Y-100746824D01*
X210693000Y-100833622D01*
X210693000Y-102113427D01*
X210697579Y-102160131D01*
X210698269Y-102168007D01*
X210697898Y-102169750D01*
X210696171Y-102293483D01*
X210717336Y-102408802D01*
X210411621Y-102408802D01*
X210433053Y-102314468D01*
X210435027Y-102173127D01*
X210410991Y-102051739D01*
X210363836Y-101937330D01*
X210295356Y-101834260D01*
X210208161Y-101746454D01*
X210105571Y-101677256D01*
X209991495Y-101629303D01*
X209892830Y-101609049D01*
X209876973Y-101596025D01*
X209841004Y-101565843D01*
X209838662Y-101564555D01*
X209836599Y-101562861D01*
X209795252Y-101540691D01*
X209754123Y-101518080D01*
X209751578Y-101517273D01*
X209749223Y-101516010D01*
X209704331Y-101502285D01*
X209659620Y-101488102D01*
X209656967Y-101487804D01*
X209654411Y-101487023D01*
X209607688Y-101482277D01*
X209561094Y-101477051D01*
X209555874Y-101477014D01*
X209555774Y-101477004D01*
X209555680Y-101477013D01*
X209554001Y-101477001D01*
X199026675Y-101477001D01*
X198979971Y-101481580D01*
X198933227Y-101485670D01*
X198930661Y-101486415D01*
X198928004Y-101486676D01*
X198883119Y-101500228D01*
X198838020Y-101513330D01*
X198835646Y-101514561D01*
X198833091Y-101515332D01*
X198791698Y-101537341D01*
X198749998Y-101558956D01*
X198747909Y-101560624D01*
X198745552Y-101561877D01*
X198709197Y-101591528D01*
X198672516Y-101620810D01*
X198668800Y-101624475D01*
X198668721Y-101624539D01*
X198668661Y-101624612D01*
X198667465Y-101625791D01*
X198569499Y-101723757D01*
X198552836Y-101683330D01*
X198484356Y-101580260D01*
X198397161Y-101492454D01*
X198294571Y-101423256D01*
X198180495Y-101375303D01*
X198059277Y-101350420D01*
X197976893Y-101349845D01*
X197964991Y-101289739D01*
X197917836Y-101175330D01*
X197849356Y-101072260D01*
X197762161Y-100984454D01*
X197659571Y-100915256D01*
X197545495Y-100867303D01*
X197424277Y-100842420D01*
X197300534Y-100841557D01*
X197178981Y-100864744D01*
X197064246Y-100911100D01*
X196960700Y-100978858D01*
X196872287Y-101065439D01*
X196802375Y-101167543D01*
X196753627Y-101281281D01*
X196732660Y-101379920D01*
X194534979Y-103577601D01*
X194505213Y-103613839D01*
X194475031Y-103649808D01*
X194473743Y-103652150D01*
X194472049Y-103654213D01*
X194449879Y-103695560D01*
X194427268Y-103736689D01*
X194426461Y-103739234D01*
X194425198Y-103741589D01*
X194411473Y-103786481D01*
X194397290Y-103831192D01*
X194396992Y-103833845D01*
X194396211Y-103836401D01*
X194391465Y-103883124D01*
X194386239Y-103929718D01*
X194386202Y-103934938D01*
X194386192Y-103935038D01*
X194386201Y-103935132D01*
X194386189Y-103936811D01*
X193421000Y-103936811D01*
X193421000Y-99187000D01*
X193416421Y-99140296D01*
X193412331Y-99093552D01*
X193411586Y-99090986D01*
X193411325Y-99088329D01*
X193397773Y-99043444D01*
X193384671Y-98998345D01*
X193383440Y-98995971D01*
X193382669Y-98993416D01*
X193360660Y-98952023D01*
X193339045Y-98910323D01*
X193337377Y-98908234D01*
X193336124Y-98905877D01*
X193306473Y-98869522D01*
X193277191Y-98832841D01*
X193273526Y-98829125D01*
X193273462Y-98829046D01*
X193273389Y-98828986D01*
X193272210Y-98827790D01*
X192235411Y-97790991D01*
X194060001Y-97790991D01*
X194060001Y-100715001D01*
X194064580Y-100761705D01*
X194068670Y-100808449D01*
X194069415Y-100811015D01*
X194069676Y-100813672D01*
X194083228Y-100858557D01*
X194096330Y-100903656D01*
X194097561Y-100906030D01*
X194098332Y-100908585D01*
X194120341Y-100949978D01*
X194141956Y-100991678D01*
X194143624Y-100993767D01*
X194144877Y-100996124D01*
X194174553Y-101032510D01*
X194193084Y-101055723D01*
X194208509Y-101139769D01*
X194254063Y-101254824D01*
X194321097Y-101358841D01*
X194407058Y-101447856D01*
X194508671Y-101518479D01*
X194622067Y-101568020D01*
X194742926Y-101594593D01*
X194866644Y-101597184D01*
X194988509Y-101575696D01*
X195103880Y-101530947D01*
X195208362Y-101464641D01*
X195297975Y-101379303D01*
X195369306Y-101278185D01*
X195419638Y-101165138D01*
X195444011Y-101057859D01*
X195490279Y-101049701D01*
X195605650Y-101004952D01*
X195696960Y-100947005D01*
X195870663Y-100947005D01*
X195917367Y-100942426D01*
X195964111Y-100938336D01*
X195966677Y-100937591D01*
X195969334Y-100937330D01*
X196014219Y-100923778D01*
X196059318Y-100910676D01*
X196061692Y-100909445D01*
X196064247Y-100908674D01*
X196105640Y-100886665D01*
X196147340Y-100865050D01*
X196149429Y-100863382D01*
X196151786Y-100862129D01*
X196188172Y-100832453D01*
X196224822Y-100803195D01*
X196228537Y-100799532D01*
X196228617Y-100799467D01*
X196228678Y-100799393D01*
X196229873Y-100798215D01*
X196993109Y-100034979D01*
X197022875Y-99998741D01*
X197053057Y-99962772D01*
X197054345Y-99960430D01*
X197056039Y-99958367D01*
X197078209Y-99917020D01*
X197100820Y-99875891D01*
X197101628Y-99873343D01*
X197102890Y-99870990D01*
X197116610Y-99826113D01*
X197130798Y-99781388D01*
X197131096Y-99778735D01*
X197131877Y-99776179D01*
X197136623Y-99729456D01*
X197141849Y-99682862D01*
X197141886Y-99677642D01*
X197141896Y-99677542D01*
X197141887Y-99677448D01*
X197141899Y-99675769D01*
X197141899Y-98986056D01*
X209172171Y-98986056D01*
X209194509Y-99107769D01*
X209240063Y-99222824D01*
X209307097Y-99326841D01*
X209393058Y-99415856D01*
X209494671Y-99486479D01*
X209608067Y-99536020D01*
X209728926Y-99562593D01*
X209852644Y-99565184D01*
X209974509Y-99543696D01*
X210089880Y-99498947D01*
X210141166Y-99466400D01*
X212494225Y-99466400D01*
X212568058Y-99542856D01*
X212669671Y-99613479D01*
X212783067Y-99663020D01*
X212903926Y-99689593D01*
X213027644Y-99692184D01*
X213149509Y-99670696D01*
X213264880Y-99625947D01*
X213369362Y-99559641D01*
X213458975Y-99474303D01*
X213530306Y-99373185D01*
X213580638Y-99260138D01*
X213608053Y-99139468D01*
X213610027Y-98998127D01*
X213607637Y-98986056D01*
X221364171Y-98986056D01*
X221386509Y-99107769D01*
X221432063Y-99222824D01*
X221499097Y-99326841D01*
X221585058Y-99415856D01*
X221686671Y-99486479D01*
X221800067Y-99536020D01*
X221857252Y-99548593D01*
X221999829Y-99691170D01*
X222037883Y-99722428D01*
X222075647Y-99754116D01*
X222078106Y-99755468D01*
X222080272Y-99757247D01*
X222123650Y-99780506D01*
X222166871Y-99804267D01*
X222169548Y-99805116D01*
X222172017Y-99806440D01*
X222219083Y-99820830D01*
X222266100Y-99835744D01*
X222268890Y-99836057D01*
X222271569Y-99836876D01*
X222320571Y-99841854D01*
X222369553Y-99847348D01*
X222375032Y-99847386D01*
X222375138Y-99847397D01*
X222375237Y-99847388D01*
X222377000Y-99847400D01*
X225848781Y-99847400D01*
X225877671Y-99867479D01*
X225991067Y-99917020D01*
X226111926Y-99943593D01*
X226235644Y-99946184D01*
X226357509Y-99924696D01*
X226472880Y-99879947D01*
X226577362Y-99813641D01*
X226666975Y-99728303D01*
X226738306Y-99627185D01*
X226788638Y-99514138D01*
X226816053Y-99393468D01*
X226818027Y-99252127D01*
X226793991Y-99130739D01*
X226746836Y-99016330D01*
X226678356Y-98913260D01*
X226591161Y-98825454D01*
X226488571Y-98756256D01*
X226374495Y-98708303D01*
X226253277Y-98683420D01*
X226129534Y-98682557D01*
X226007981Y-98705744D01*
X225893246Y-98752100D01*
X225849693Y-98780600D01*
X222609102Y-98780600D01*
X222602991Y-98749739D01*
X222555836Y-98635330D01*
X222487356Y-98532260D01*
X222415224Y-98459622D01*
X227982983Y-98459622D01*
X228123325Y-98678554D01*
X228412259Y-98819043D01*
X228723050Y-98900465D01*
X229043753Y-98919690D01*
X229362044Y-98875980D01*
X229665693Y-98771014D01*
X229838675Y-98678554D01*
X229979017Y-98459622D01*
X233062983Y-98459622D01*
X233203325Y-98678554D01*
X233492259Y-98819043D01*
X233803050Y-98900465D01*
X234123753Y-98919690D01*
X234442044Y-98875980D01*
X234745693Y-98771014D01*
X234918675Y-98678554D01*
X235059017Y-98459622D01*
X234061000Y-97461605D01*
X233062983Y-98459622D01*
X229979017Y-98459622D01*
X228981000Y-97461605D01*
X227982983Y-98459622D01*
X222415224Y-98459622D01*
X222400161Y-98444454D01*
X222297571Y-98375256D01*
X222183495Y-98327303D01*
X222062277Y-98302420D01*
X221938534Y-98301557D01*
X221816981Y-98324744D01*
X221702246Y-98371100D01*
X221598700Y-98438858D01*
X221510287Y-98525439D01*
X221440375Y-98627543D01*
X221391627Y-98741281D01*
X221365898Y-98862323D01*
X221364171Y-98986056D01*
X213607637Y-98986056D01*
X213585991Y-98876739D01*
X213538836Y-98762330D01*
X213470356Y-98659260D01*
X213383161Y-98571454D01*
X213280571Y-98502256D01*
X213166495Y-98454303D01*
X213045277Y-98429420D01*
X213019968Y-98429243D01*
X213009929Y-98426174D01*
X212962900Y-98411256D01*
X212960108Y-98410943D01*
X212957430Y-98410124D01*
X212908434Y-98405147D01*
X212859447Y-98399652D01*
X212853968Y-98399614D01*
X212853862Y-98399603D01*
X212853763Y-98399612D01*
X212852000Y-98399600D01*
X210141662Y-98399600D01*
X210105571Y-98375256D01*
X209991495Y-98327303D01*
X209870277Y-98302420D01*
X209746534Y-98301557D01*
X209624981Y-98324744D01*
X209510246Y-98371100D01*
X209406700Y-98438858D01*
X209318287Y-98525439D01*
X209248375Y-98627543D01*
X209199627Y-98741281D01*
X209173898Y-98862323D01*
X209172171Y-98986056D01*
X197141899Y-98986056D01*
X197141899Y-97156857D01*
X199266404Y-95032352D01*
X199266171Y-95049056D01*
X199288509Y-95170769D01*
X199334063Y-95285824D01*
X199401097Y-95389841D01*
X199487058Y-95478856D01*
X199588671Y-95549479D01*
X199702067Y-95599020D01*
X199822926Y-95625593D01*
X199946644Y-95628184D01*
X200068509Y-95606696D01*
X200183880Y-95561947D01*
X200288362Y-95495641D01*
X200377975Y-95410303D01*
X200449306Y-95309185D01*
X200499638Y-95196138D01*
X200527053Y-95075468D01*
X200529027Y-94934127D01*
X200504991Y-94812739D01*
X200457836Y-94698330D01*
X200389356Y-94595260D01*
X200302161Y-94507454D01*
X200199571Y-94438256D01*
X200085495Y-94390303D01*
X199964277Y-94365420D01*
X199933550Y-94365206D01*
X200078703Y-94220053D01*
X200940191Y-94220053D01*
X200897700Y-94247858D01*
X200809287Y-94334439D01*
X200739375Y-94436543D01*
X200690627Y-94550281D01*
X200664898Y-94671323D01*
X200663171Y-94795056D01*
X200685509Y-94916769D01*
X200731063Y-95031824D01*
X200798097Y-95135841D01*
X200884058Y-95224856D01*
X200985671Y-95295479D01*
X201050709Y-95323893D01*
X202913908Y-97187092D01*
X202955628Y-97221361D01*
X202996946Y-97256031D01*
X202999638Y-97257511D01*
X203002012Y-97259461D01*
X203049563Y-97284958D01*
X203096859Y-97310959D01*
X203099788Y-97311888D01*
X203102494Y-97313339D01*
X203154066Y-97329106D01*
X203205538Y-97345434D01*
X203208593Y-97345777D01*
X203211528Y-97346674D01*
X203265171Y-97352123D01*
X203318843Y-97358143D01*
X203324853Y-97358185D01*
X203324961Y-97358196D01*
X203325062Y-97358186D01*
X203327000Y-97358200D01*
X209437989Y-97358200D01*
X209481067Y-97377020D01*
X209601926Y-97403593D01*
X209725644Y-97406184D01*
X209847509Y-97384696D01*
X209950489Y-97344753D01*
X227343310Y-97344753D01*
X227387020Y-97663044D01*
X227491986Y-97966693D01*
X227584446Y-98139675D01*
X227803378Y-98280017D01*
X228801395Y-97282000D01*
X229160605Y-97282000D01*
X230158622Y-98280017D01*
X230377554Y-98139675D01*
X230518043Y-97850741D01*
X230599465Y-97539950D01*
X230611166Y-97344753D01*
X232423310Y-97344753D01*
X232467020Y-97663044D01*
X232571986Y-97966693D01*
X232664446Y-98139675D01*
X232883378Y-98280017D01*
X233881395Y-97282000D01*
X232883378Y-96283983D01*
X232664446Y-96424325D01*
X232523957Y-96713259D01*
X232442535Y-97024050D01*
X232423310Y-97344753D01*
X230611166Y-97344753D01*
X230618690Y-97219247D01*
X230574980Y-96900956D01*
X230470014Y-96597307D01*
X230377554Y-96424325D01*
X230158622Y-96283983D01*
X229160605Y-97282000D01*
X228801395Y-97282000D01*
X227803378Y-96283983D01*
X227584446Y-96424325D01*
X227443957Y-96713259D01*
X227362535Y-97024050D01*
X227343310Y-97344753D01*
X209950489Y-97344753D01*
X209962880Y-97339947D01*
X210067362Y-97273641D01*
X210156975Y-97188303D01*
X210228306Y-97087185D01*
X210278638Y-96974138D01*
X210306053Y-96853468D01*
X210308027Y-96712127D01*
X210283991Y-96590739D01*
X210236836Y-96476330D01*
X210168356Y-96373260D01*
X210081161Y-96285454D01*
X209978571Y-96216256D01*
X209864495Y-96168303D01*
X209743277Y-96143420D01*
X209619534Y-96142557D01*
X209497981Y-96165744D01*
X209438440Y-96189800D01*
X203568984Y-96189800D01*
X203483562Y-96104378D01*
X227982983Y-96104378D01*
X228981000Y-97102395D01*
X229979017Y-96104378D01*
X229838675Y-95885446D01*
X229549741Y-95744957D01*
X229238950Y-95663535D01*
X228918247Y-95644310D01*
X228599956Y-95688020D01*
X228296307Y-95792986D01*
X228123325Y-95885446D01*
X227982983Y-96104378D01*
X203483562Y-96104378D01*
X201876797Y-94497613D01*
X201854836Y-94444330D01*
X201786356Y-94341260D01*
X201699161Y-94253454D01*
X201649642Y-94220053D01*
X204249952Y-94220053D01*
X204200915Y-94291669D01*
X204136748Y-94441382D01*
X204102882Y-94600708D01*
X204100608Y-94763577D01*
X204130012Y-94923787D01*
X204189974Y-95075233D01*
X204278210Y-95212149D01*
X204391360Y-95329319D01*
X204525113Y-95422280D01*
X204674375Y-95487491D01*
X204833460Y-95522468D01*
X204996310Y-95525879D01*
X205156720Y-95497595D01*
X205308582Y-95438691D01*
X205446110Y-95351413D01*
X205564067Y-95239084D01*
X205657960Y-95105983D01*
X205724211Y-94957180D01*
X205760298Y-94798343D01*
X205762896Y-94612297D01*
X205731258Y-94452514D01*
X205669187Y-94301920D01*
X205614795Y-94220053D01*
X208649232Y-94220053D01*
X208600195Y-94291669D01*
X208536028Y-94441382D01*
X208502162Y-94600708D01*
X208499888Y-94763577D01*
X208529292Y-94923787D01*
X208589254Y-95075233D01*
X208677490Y-95212149D01*
X208790640Y-95329319D01*
X208924393Y-95422280D01*
X209073655Y-95487491D01*
X209232740Y-95522468D01*
X209395590Y-95525879D01*
X209556000Y-95497595D01*
X209707862Y-95438691D01*
X209845390Y-95351413D01*
X209963347Y-95239084D01*
X210057240Y-95105983D01*
X210123491Y-94957180D01*
X210141221Y-94879139D01*
X229887856Y-94879139D01*
X229945596Y-95193740D01*
X230063343Y-95491134D01*
X230236611Y-95759994D01*
X230458801Y-95990079D01*
X230721451Y-96172625D01*
X231014555Y-96300679D01*
X231326949Y-96369363D01*
X231646734Y-96376062D01*
X231961731Y-96320519D01*
X232259940Y-96204852D01*
X232418261Y-96104378D01*
X233062983Y-96104378D01*
X234061000Y-97102395D01*
X235059017Y-96104378D01*
X234918675Y-95885446D01*
X234629741Y-95744957D01*
X234318950Y-95663535D01*
X233998247Y-95644310D01*
X233679956Y-95688020D01*
X233376307Y-95792986D01*
X233203325Y-95885446D01*
X233062983Y-96104378D01*
X232418261Y-96104378D01*
X232530003Y-96033465D01*
X232761633Y-95812886D01*
X232946008Y-95551517D01*
X233076105Y-95259315D01*
X233146969Y-94947408D01*
X233152070Y-94582072D01*
X233089943Y-94268308D01*
X232968056Y-93972587D01*
X232791050Y-93706172D01*
X232565669Y-93479212D01*
X232418021Y-93379622D01*
X233062983Y-93379622D01*
X233203325Y-93598554D01*
X233492259Y-93739043D01*
X233803050Y-93820465D01*
X234123753Y-93839690D01*
X234442044Y-93795980D01*
X234745693Y-93691014D01*
X234918675Y-93598554D01*
X235059017Y-93379622D01*
X234061000Y-92381605D01*
X233062983Y-93379622D01*
X232418021Y-93379622D01*
X232300497Y-93300351D01*
X232005634Y-93176402D01*
X231692311Y-93112086D01*
X231372463Y-93109853D01*
X231058273Y-93169788D01*
X230761708Y-93289608D01*
X230494064Y-93464749D01*
X230265536Y-93688541D01*
X230084828Y-93952458D01*
X229958823Y-94246448D01*
X229892322Y-94559314D01*
X229887856Y-94879139D01*
X210141221Y-94879139D01*
X210159578Y-94798343D01*
X210162176Y-94612297D01*
X210130538Y-94452514D01*
X210068467Y-94301920D01*
X210014075Y-94220053D01*
X221434637Y-94220053D01*
X221481341Y-94215474D01*
X221528085Y-94211384D01*
X221530651Y-94210639D01*
X221533308Y-94210378D01*
X221578193Y-94196826D01*
X221623292Y-94183724D01*
X221625666Y-94182493D01*
X221628221Y-94181722D01*
X221669614Y-94159713D01*
X221711314Y-94138098D01*
X221713403Y-94136430D01*
X221715760Y-94135177D01*
X221752146Y-94105501D01*
X221788796Y-94076243D01*
X221792511Y-94072580D01*
X221792591Y-94072515D01*
X221792652Y-94072441D01*
X221793847Y-94071263D01*
X222485488Y-93379622D01*
X227982983Y-93379622D01*
X228123325Y-93598554D01*
X228412259Y-93739043D01*
X228723050Y-93820465D01*
X229043753Y-93839690D01*
X229362044Y-93795980D01*
X229665693Y-93691014D01*
X229838675Y-93598554D01*
X229979017Y-93379622D01*
X228981000Y-92381605D01*
X227982983Y-93379622D01*
X222485488Y-93379622D01*
X222966560Y-92898550D01*
X223005355Y-92910559D01*
X223195655Y-92930560D01*
X223386216Y-92913218D01*
X223569779Y-92859192D01*
X223739353Y-92770541D01*
X223888478Y-92650642D01*
X224011474Y-92504060D01*
X224103657Y-92336380D01*
X224161515Y-92153989D01*
X224182844Y-91963833D01*
X224182940Y-91950144D01*
X224182940Y-91437856D01*
X224223580Y-91437856D01*
X224223580Y-91950144D01*
X224242252Y-92140579D01*
X224297558Y-92323761D01*
X224387391Y-92492711D01*
X224508328Y-92640996D01*
X224655765Y-92762966D01*
X224824084Y-92853976D01*
X225006875Y-92910559D01*
X225197175Y-92930560D01*
X225387736Y-92913218D01*
X225571299Y-92859192D01*
X225740873Y-92770541D01*
X225889998Y-92650642D01*
X226012994Y-92504060D01*
X226105177Y-92336380D01*
X226127898Y-92264753D01*
X227343310Y-92264753D01*
X227387020Y-92583044D01*
X227491986Y-92886693D01*
X227584446Y-93059675D01*
X227803378Y-93200017D01*
X228801395Y-92202000D01*
X229160605Y-92202000D01*
X230158622Y-93200017D01*
X230377554Y-93059675D01*
X230518043Y-92770741D01*
X230599465Y-92459950D01*
X230611166Y-92264753D01*
X232423310Y-92264753D01*
X232467020Y-92583044D01*
X232571986Y-92886693D01*
X232664446Y-93059675D01*
X232883378Y-93200017D01*
X233881395Y-92202000D01*
X232883378Y-91203983D01*
X232664446Y-91344325D01*
X232523957Y-91633259D01*
X232442535Y-91944050D01*
X232423310Y-92264753D01*
X230611166Y-92264753D01*
X230618690Y-92139247D01*
X230574980Y-91820956D01*
X230470014Y-91517307D01*
X230377554Y-91344325D01*
X230158622Y-91203983D01*
X229160605Y-92202000D01*
X228801395Y-92202000D01*
X227803378Y-91203983D01*
X227584446Y-91344325D01*
X227443957Y-91633259D01*
X227362535Y-91944050D01*
X227343310Y-92264753D01*
X226127898Y-92264753D01*
X226163035Y-92153989D01*
X226184364Y-91963833D01*
X226184460Y-91950144D01*
X226184460Y-91437856D01*
X226165788Y-91247421D01*
X226110482Y-91064239D01*
X226089288Y-91024378D01*
X227982983Y-91024378D01*
X228981000Y-92022395D01*
X229979017Y-91024378D01*
X233062983Y-91024378D01*
X234061000Y-92022395D01*
X235059017Y-91024378D01*
X234918675Y-90805446D01*
X234629741Y-90664957D01*
X234318950Y-90583535D01*
X233998247Y-90564310D01*
X233679956Y-90608020D01*
X233376307Y-90712986D01*
X233203325Y-90805446D01*
X233062983Y-91024378D01*
X229979017Y-91024378D01*
X229838675Y-90805446D01*
X229549741Y-90664957D01*
X229238950Y-90583535D01*
X228918247Y-90564310D01*
X228599956Y-90608020D01*
X228296307Y-90712986D01*
X228123325Y-90805446D01*
X227982983Y-91024378D01*
X226089288Y-91024378D01*
X226020649Y-90895289D01*
X225899712Y-90747004D01*
X225752275Y-90625034D01*
X225583956Y-90534024D01*
X225401165Y-90477441D01*
X225210865Y-90457440D01*
X225020304Y-90474782D01*
X224836741Y-90528808D01*
X224667167Y-90617459D01*
X224518042Y-90737358D01*
X224395046Y-90883940D01*
X224302863Y-91051620D01*
X224245005Y-91234011D01*
X224223676Y-91424167D01*
X224223580Y-91437856D01*
X224182940Y-91437856D01*
X224164268Y-91247421D01*
X224108962Y-91064239D01*
X224019129Y-90895289D01*
X223898192Y-90747004D01*
X223750755Y-90625034D01*
X223582436Y-90534024D01*
X223399645Y-90477441D01*
X223209345Y-90457440D01*
X223018784Y-90474782D01*
X222835221Y-90528808D01*
X222665647Y-90617459D01*
X222516522Y-90737358D01*
X222393526Y-90883940D01*
X222301343Y-91051620D01*
X222243485Y-91234011D01*
X222222156Y-91424167D01*
X222222060Y-91437856D01*
X222222060Y-91950144D01*
X222240732Y-92140579D01*
X222251622Y-92176648D01*
X222126296Y-92301974D01*
X222170907Y-92170709D01*
X222196462Y-91977133D01*
X222094109Y-91821000D01*
X221327980Y-91821000D01*
X221327980Y-92820222D01*
X221478499Y-92884534D01*
X221551498Y-92876502D01*
X221552030Y-92876240D01*
X221224217Y-93204053D01*
X218660557Y-93204053D01*
X218966060Y-92898550D01*
X219004855Y-92910559D01*
X219195155Y-92930560D01*
X219385716Y-92913218D01*
X219569279Y-92859192D01*
X219738853Y-92770541D01*
X219887978Y-92650642D01*
X220010974Y-92504060D01*
X220103157Y-92336380D01*
X220161015Y-92153989D01*
X220180852Y-91977133D01*
X220205498Y-91977133D01*
X220231053Y-92170709D01*
X220293882Y-92355580D01*
X220391570Y-92524641D01*
X220520363Y-92671396D01*
X220675312Y-92790205D01*
X220850462Y-92876502D01*
X220923461Y-92884534D01*
X221073980Y-92820222D01*
X221073980Y-91821000D01*
X220307851Y-91821000D01*
X220205498Y-91977133D01*
X220180852Y-91977133D01*
X220182344Y-91963833D01*
X220182440Y-91950144D01*
X220182440Y-91437856D01*
X220179794Y-91410867D01*
X220205498Y-91410867D01*
X220307851Y-91567000D01*
X221073980Y-91567000D01*
X221073980Y-90567778D01*
X221327980Y-90567778D01*
X221327980Y-91567000D01*
X222094109Y-91567000D01*
X222196462Y-91410867D01*
X222170907Y-91217291D01*
X222108078Y-91032420D01*
X222010390Y-90863359D01*
X221881597Y-90716604D01*
X221726648Y-90597795D01*
X221551498Y-90511498D01*
X221478499Y-90503466D01*
X221327980Y-90567778D01*
X221073980Y-90567778D01*
X220923461Y-90503466D01*
X220850462Y-90511498D01*
X220675312Y-90597795D01*
X220520363Y-90716604D01*
X220391570Y-90863359D01*
X220293882Y-91032420D01*
X220231053Y-91217291D01*
X220205498Y-91410867D01*
X220179794Y-91410867D01*
X220163768Y-91247421D01*
X220108462Y-91064239D01*
X220018629Y-90895289D01*
X219897692Y-90747004D01*
X219750255Y-90625034D01*
X219581936Y-90534024D01*
X219399145Y-90477441D01*
X219208845Y-90457440D01*
X219018284Y-90474782D01*
X218834721Y-90528808D01*
X218665147Y-90617459D01*
X218516022Y-90737358D01*
X218393026Y-90883940D01*
X218300843Y-91051620D01*
X218242985Y-91234011D01*
X218221656Y-91424167D01*
X218221560Y-91437856D01*
X218221560Y-91950144D01*
X218240232Y-92140579D01*
X218251122Y-92176648D01*
X218106398Y-92321372D01*
X218159495Y-92153989D01*
X218180824Y-91963833D01*
X218180920Y-91950144D01*
X218180920Y-91437856D01*
X218162248Y-91247421D01*
X218106942Y-91064239D01*
X218017109Y-90895289D01*
X217896172Y-90747004D01*
X217748735Y-90625034D01*
X217580416Y-90534024D01*
X217397625Y-90477441D01*
X217207325Y-90457440D01*
X217016764Y-90474782D01*
X216833201Y-90528808D01*
X216663627Y-90617459D01*
X216514502Y-90737358D01*
X216391506Y-90883940D01*
X216299323Y-91051620D01*
X216241465Y-91234011D01*
X216220136Y-91424167D01*
X216220040Y-91437856D01*
X216220040Y-91950144D01*
X216238712Y-92140579D01*
X216249602Y-92176648D01*
X216181243Y-92245007D01*
X216181243Y-90844370D01*
X216176405Y-90783697D01*
X216144536Y-90680790D01*
X216085260Y-90590835D01*
X216003270Y-90520955D01*
X215905058Y-90476684D01*
X215798400Y-90461527D01*
X214599520Y-90461527D01*
X214538847Y-90466365D01*
X214435940Y-90498234D01*
X214345985Y-90557510D01*
X214276105Y-90639500D01*
X214231834Y-90737712D01*
X214216677Y-90844370D01*
X214216677Y-92340431D01*
X200034930Y-92340431D01*
X200037157Y-92336380D01*
X200095015Y-92153989D01*
X200116344Y-91963833D01*
X200116440Y-91950144D01*
X200116440Y-91437856D01*
X200097768Y-91247421D01*
X200042462Y-91064239D01*
X199952629Y-90895289D01*
X199831692Y-90747004D01*
X199684255Y-90625034D01*
X199515936Y-90534024D01*
X199333145Y-90477441D01*
X199142845Y-90457440D01*
X198952284Y-90474782D01*
X198768721Y-90528808D01*
X198599147Y-90617459D01*
X198450022Y-90737358D01*
X198327026Y-90883940D01*
X198234843Y-91051620D01*
X198176985Y-91234011D01*
X198155656Y-91424167D01*
X198155560Y-91437856D01*
X198155560Y-91950144D01*
X198174232Y-92140579D01*
X198229538Y-92323761D01*
X198319371Y-92492711D01*
X198440308Y-92640996D01*
X198587745Y-92762966D01*
X198756064Y-92853976D01*
X198779378Y-92861193D01*
X194208791Y-97431781D01*
X194179025Y-97468019D01*
X194148843Y-97503988D01*
X194147555Y-97506330D01*
X194145861Y-97508393D01*
X194123691Y-97549740D01*
X194101080Y-97590869D01*
X194100273Y-97593414D01*
X194099010Y-97595769D01*
X194085285Y-97640661D01*
X194071102Y-97685372D01*
X194070804Y-97688025D01*
X194070023Y-97690581D01*
X194065277Y-97737304D01*
X194060051Y-97783898D01*
X194060014Y-97789118D01*
X194060004Y-97789218D01*
X194060013Y-97789312D01*
X194060001Y-97790991D01*
X192235411Y-97790991D01*
X188493400Y-94048980D01*
X188493400Y-92797630D01*
X188488821Y-92750930D01*
X188484731Y-92704182D01*
X188483986Y-92701616D01*
X188483725Y-92698959D01*
X188475692Y-92672353D01*
X188585225Y-92762966D01*
X188753544Y-92853976D01*
X188936335Y-92910559D01*
X189126635Y-92930560D01*
X189317196Y-92913218D01*
X189500759Y-92859192D01*
X189670333Y-92770541D01*
X189819458Y-92650642D01*
X189942454Y-92504060D01*
X190034637Y-92336380D01*
X190092495Y-92153989D01*
X190113824Y-91963833D01*
X190113920Y-91950144D01*
X190113920Y-91437856D01*
X190152020Y-91437856D01*
X190152020Y-91950144D01*
X190170692Y-92140579D01*
X190225998Y-92323761D01*
X190315831Y-92492711D01*
X190436768Y-92640996D01*
X190584205Y-92762966D01*
X190752524Y-92853976D01*
X190935315Y-92910559D01*
X191125615Y-92930560D01*
X191316176Y-92913218D01*
X191499739Y-92859192D01*
X191669313Y-92770541D01*
X191818438Y-92650642D01*
X191941434Y-92504060D01*
X192033617Y-92336380D01*
X192091475Y-92153989D01*
X192112804Y-91963833D01*
X192112900Y-91950144D01*
X192112900Y-91437856D01*
X192156080Y-91437856D01*
X192156080Y-91950144D01*
X192174752Y-92140579D01*
X192230058Y-92323761D01*
X192319891Y-92492711D01*
X192440828Y-92640996D01*
X192588265Y-92762966D01*
X192756584Y-92853976D01*
X192939375Y-92910559D01*
X193129675Y-92930560D01*
X193320236Y-92913218D01*
X193503799Y-92859192D01*
X193673373Y-92770541D01*
X193822498Y-92650642D01*
X193945494Y-92504060D01*
X194037677Y-92336380D01*
X194095535Y-92153989D01*
X194116864Y-91963833D01*
X194116960Y-91950144D01*
X194116960Y-91437856D01*
X194157600Y-91437856D01*
X194157600Y-91950144D01*
X194176272Y-92140579D01*
X194231578Y-92323761D01*
X194321411Y-92492711D01*
X194442348Y-92640996D01*
X194589785Y-92762966D01*
X194758104Y-92853976D01*
X194940895Y-92910559D01*
X195131195Y-92930560D01*
X195321756Y-92913218D01*
X195505319Y-92859192D01*
X195674893Y-92770541D01*
X195824018Y-92650642D01*
X195947014Y-92504060D01*
X196039197Y-92336380D01*
X196097055Y-92153989D01*
X196118384Y-91963833D01*
X196118480Y-91950144D01*
X196118480Y-91437856D01*
X196156580Y-91437856D01*
X196156580Y-91950144D01*
X196175252Y-92140579D01*
X196230558Y-92323761D01*
X196320391Y-92492711D01*
X196441328Y-92640996D01*
X196588765Y-92762966D01*
X196757084Y-92853976D01*
X196939875Y-92910559D01*
X197130175Y-92930560D01*
X197320736Y-92913218D01*
X197504299Y-92859192D01*
X197673873Y-92770541D01*
X197822998Y-92650642D01*
X197945994Y-92504060D01*
X198038177Y-92336380D01*
X198096035Y-92153989D01*
X198117364Y-91963833D01*
X198117460Y-91950144D01*
X198117460Y-91437856D01*
X198098788Y-91247421D01*
X198043482Y-91064239D01*
X197953649Y-90895289D01*
X197832712Y-90747004D01*
X197685275Y-90625034D01*
X197516956Y-90534024D01*
X197334165Y-90477441D01*
X197143865Y-90457440D01*
X196953304Y-90474782D01*
X196769741Y-90528808D01*
X196600167Y-90617459D01*
X196451042Y-90737358D01*
X196328046Y-90883940D01*
X196235863Y-91051620D01*
X196178005Y-91234011D01*
X196156676Y-91424167D01*
X196156580Y-91437856D01*
X196118480Y-91437856D01*
X196099808Y-91247421D01*
X196044502Y-91064239D01*
X195954669Y-90895289D01*
X195833732Y-90747004D01*
X195686295Y-90625034D01*
X195517976Y-90534024D01*
X195335185Y-90477441D01*
X195144885Y-90457440D01*
X194954324Y-90474782D01*
X194770761Y-90528808D01*
X194601187Y-90617459D01*
X194452062Y-90737358D01*
X194329066Y-90883940D01*
X194236883Y-91051620D01*
X194179025Y-91234011D01*
X194157696Y-91424167D01*
X194157600Y-91437856D01*
X194116960Y-91437856D01*
X194098288Y-91247421D01*
X194042982Y-91064239D01*
X193953149Y-90895289D01*
X193832212Y-90747004D01*
X193684775Y-90625034D01*
X193516456Y-90534024D01*
X193333665Y-90477441D01*
X193143365Y-90457440D01*
X192952804Y-90474782D01*
X192769241Y-90528808D01*
X192599667Y-90617459D01*
X192450542Y-90737358D01*
X192327546Y-90883940D01*
X192235363Y-91051620D01*
X192177505Y-91234011D01*
X192156176Y-91424167D01*
X192156080Y-91437856D01*
X192112900Y-91437856D01*
X192094228Y-91247421D01*
X192038922Y-91064239D01*
X191949089Y-90895289D01*
X191828152Y-90747004D01*
X191680715Y-90625034D01*
X191512396Y-90534024D01*
X191329605Y-90477441D01*
X191139305Y-90457440D01*
X190948744Y-90474782D01*
X190765181Y-90528808D01*
X190595607Y-90617459D01*
X190446482Y-90737358D01*
X190323486Y-90883940D01*
X190231303Y-91051620D01*
X190173445Y-91234011D01*
X190152116Y-91424167D01*
X190152020Y-91437856D01*
X190113920Y-91437856D01*
X190095248Y-91247421D01*
X190039942Y-91064239D01*
X189950109Y-90895289D01*
X189829172Y-90747004D01*
X189681735Y-90625034D01*
X189513416Y-90534024D01*
X189330625Y-90477441D01*
X189140325Y-90457440D01*
X188949764Y-90474782D01*
X188766201Y-90528808D01*
X188596627Y-90617459D01*
X188447502Y-90737358D01*
X188324506Y-90883940D01*
X188232323Y-91051620D01*
X188174465Y-91234011D01*
X188153136Y-91424167D01*
X188153040Y-91437856D01*
X188153040Y-91950144D01*
X188171712Y-92140579D01*
X188225749Y-92319558D01*
X188083559Y-92177368D01*
X188090975Y-92153989D01*
X188112304Y-91963833D01*
X188112400Y-91950144D01*
X188112400Y-91437856D01*
X188093728Y-91247421D01*
X188038422Y-91064239D01*
X187948589Y-90895289D01*
X187827652Y-90747004D01*
X187680215Y-90625034D01*
X187511896Y-90534024D01*
X187329105Y-90477441D01*
X187138805Y-90457440D01*
X186948244Y-90474782D01*
X186764681Y-90528808D01*
X186595107Y-90617459D01*
X186445982Y-90737358D01*
X186322986Y-90883940D01*
X186230803Y-91051620D01*
X186172945Y-91234011D01*
X186151616Y-91424167D01*
X186151520Y-91437856D01*
X186110880Y-91437856D01*
X186110880Y-90806845D01*
X186096238Y-90733236D01*
X186067518Y-90663899D01*
X186025822Y-90601496D01*
X185972753Y-90548428D01*
X185910351Y-90506732D01*
X185841013Y-90478012D01*
X185767405Y-90463370D01*
X185352690Y-90463370D01*
X185257440Y-90558620D01*
X185003440Y-90558620D01*
X184908190Y-90463370D01*
X184493475Y-90463370D01*
X184419867Y-90478012D01*
X184350529Y-90506732D01*
X184288127Y-90548428D01*
X184235058Y-90601496D01*
X184193362Y-90663899D01*
X184164642Y-90733236D01*
X184150000Y-90806845D01*
X181338497Y-90806845D01*
X181289692Y-90747004D01*
X181142255Y-90625034D01*
X180973936Y-90534024D01*
X180791145Y-90477441D01*
X180600845Y-90457440D01*
X180410284Y-90474782D01*
X180226721Y-90528808D01*
X180057147Y-90617459D01*
X179908022Y-90737358D01*
X179785026Y-90883940D01*
X179692843Y-91051620D01*
X179634985Y-91234011D01*
X179613656Y-91424167D01*
X179613560Y-91437856D01*
X179613560Y-91950144D01*
X179614436Y-91959075D01*
X179575460Y-91920099D01*
X179575460Y-91437856D01*
X179556788Y-91247421D01*
X179501482Y-91064239D01*
X179411649Y-90895289D01*
X179290712Y-90747004D01*
X179143275Y-90625034D01*
X178974956Y-90534024D01*
X178792165Y-90477441D01*
X178601865Y-90457440D01*
X178411304Y-90474782D01*
X178227741Y-90528808D01*
X178058167Y-90617459D01*
X177909042Y-90737358D01*
X177786046Y-90883940D01*
X177693863Y-91051620D01*
X177636005Y-91234011D01*
X177614676Y-91424167D01*
X177614580Y-91437856D01*
X177614580Y-91950144D01*
X177633252Y-92140579D01*
X177688558Y-92323761D01*
X177778391Y-92492711D01*
X177899328Y-92640996D01*
X178046765Y-92762966D01*
X178215084Y-92853976D01*
X178397875Y-92910559D01*
X178588175Y-92930560D01*
X178778736Y-92913218D01*
X178790600Y-92909726D01*
X178790600Y-94277084D01*
X178768375Y-94309543D01*
X178719627Y-94423281D01*
X178693898Y-94544323D01*
X178692171Y-94668056D01*
X178714509Y-94789769D01*
X178760063Y-94904824D01*
X178827097Y-95008841D01*
X178913058Y-95097856D01*
X179014671Y-95168479D01*
X179128067Y-95218020D01*
X179248926Y-95244593D01*
X179372644Y-95247184D01*
X179494509Y-95225696D01*
X179609880Y-95180947D01*
X179714362Y-95114641D01*
X179803975Y-95029303D01*
X179875306Y-94928185D01*
X179925638Y-94815138D01*
X179953053Y-94694468D01*
X179955027Y-94553127D01*
X179930991Y-94431739D01*
X179883836Y-94317330D01*
X179857400Y-94277541D01*
X179857400Y-92590837D01*
X179898308Y-92640996D01*
X180009800Y-92733230D01*
X180009800Y-95389016D01*
X179971016Y-95427800D01*
X176516030Y-95427800D01*
X176462329Y-95433065D01*
X176408566Y-95437769D01*
X176405615Y-95438626D01*
X176402558Y-95438926D01*
X176350917Y-95454517D01*
X176299077Y-95469578D01*
X176296348Y-95470993D01*
X176293409Y-95471880D01*
X176245755Y-95497218D01*
X176197852Y-95522049D01*
X176195454Y-95523964D01*
X176192739Y-95525407D01*
X176150915Y-95559518D01*
X176108746Y-95593181D01*
X176104466Y-95597401D01*
X176104383Y-95597469D01*
X176104319Y-95597546D01*
X176102938Y-95598908D01*
X175271586Y-96430260D01*
X175200642Y-96342022D01*
X175054060Y-96219026D01*
X174886380Y-96126843D01*
X174703989Y-96068985D01*
X174513833Y-96047656D01*
X174500144Y-96047560D01*
X173987856Y-96047560D01*
X173797421Y-96066232D01*
X173614239Y-96121538D01*
X173445289Y-96211371D01*
X173297004Y-96332308D01*
X173175034Y-96479745D01*
X173084024Y-96648064D01*
X173027441Y-96830855D01*
X173007440Y-97021155D01*
X173024782Y-97211716D01*
X173078808Y-97395279D01*
X173167459Y-97564853D01*
X173287358Y-97713978D01*
X173433940Y-97836974D01*
X173601620Y-97929157D01*
X173784011Y-97987015D01*
X173974167Y-98008344D01*
X173987856Y-98008440D01*
X174500144Y-98008440D01*
X174635204Y-97995197D01*
X174713542Y-98073535D01*
X174703989Y-98070505D01*
X174513833Y-98049176D01*
X174500144Y-98049080D01*
X173987856Y-98049080D01*
X173797421Y-98067752D01*
X173614239Y-98123058D01*
X173445289Y-98212891D01*
X173297004Y-98333828D01*
X173175034Y-98481265D01*
X173084024Y-98649584D01*
X173027441Y-98832375D01*
X173007440Y-99022675D01*
X173024782Y-99213236D01*
X173078808Y-99396799D01*
X173167459Y-99566373D01*
X173287358Y-99715498D01*
X173433940Y-99838494D01*
X173601620Y-99930677D01*
X173784011Y-99988535D01*
X173974167Y-100009864D01*
X173987856Y-100009960D01*
X174500144Y-100009960D01*
X174690579Y-99991288D01*
X174873761Y-99935982D01*
X174915830Y-99913613D01*
X174915830Y-100050600D01*
X174466250Y-100050600D01*
X174371000Y-100145850D01*
X174371000Y-100904040D01*
X174391000Y-100904040D01*
X174391000Y-101158040D01*
X174371000Y-101158040D01*
X174371000Y-101916230D01*
X174466250Y-102011480D01*
X174915830Y-102011480D01*
X174915830Y-108317030D01*
X174921095Y-108370731D01*
X174925799Y-108424494D01*
X174926656Y-108427445D01*
X174926956Y-108430502D01*
X174942547Y-108482143D01*
X174950292Y-108508800D01*
X173466634Y-108508800D01*
X173415495Y-108487303D01*
X173294277Y-108462420D01*
X173170534Y-108461557D01*
X173048981Y-108484744D01*
X172934246Y-108531100D01*
X172830700Y-108598858D01*
X172742287Y-108685439D01*
X172672375Y-108787543D01*
X172623627Y-108901281D01*
X172597898Y-109022323D01*
X172596171Y-109146056D01*
X172456000Y-109146056D01*
X172456000Y-101253290D01*
X173013370Y-101253290D01*
X173013370Y-101668005D01*
X173028012Y-101741613D01*
X173056732Y-101810951D01*
X173098428Y-101873353D01*
X173151496Y-101926422D01*
X173213899Y-101968118D01*
X173283236Y-101996838D01*
X173356845Y-102011480D01*
X174021750Y-102011480D01*
X174117000Y-101916230D01*
X174117000Y-101158040D01*
X173108620Y-101158040D01*
X173013370Y-101253290D01*
X172456000Y-101253290D01*
X172456000Y-100394075D01*
X173013370Y-100394075D01*
X173013370Y-100808790D01*
X173108620Y-100904040D01*
X174117000Y-100904040D01*
X174117000Y-100145850D01*
X174021750Y-100050600D01*
X173356845Y-100050600D01*
X173283236Y-100065242D01*
X173213899Y-100093962D01*
X173151496Y-100135658D01*
X173098428Y-100188727D01*
X173056732Y-100251129D01*
X173028012Y-100320467D01*
X173013370Y-100394075D01*
X172456000Y-100394075D01*
X172456000Y-91916250D01*
X173611540Y-91916250D01*
X173611540Y-92581155D01*
X173626182Y-92654764D01*
X173654902Y-92724101D01*
X173696598Y-92786504D01*
X173749667Y-92839572D01*
X173812069Y-92881268D01*
X173881407Y-92909988D01*
X173955015Y-92924630D01*
X174369730Y-92924630D01*
X174464980Y-92829380D01*
X174464980Y-91821000D01*
X174718980Y-91821000D01*
X174718980Y-92829380D01*
X174814230Y-92924630D01*
X175228945Y-92924630D01*
X175302553Y-92909988D01*
X175371891Y-92881268D01*
X175434293Y-92839572D01*
X175487362Y-92786504D01*
X175529058Y-92724101D01*
X175557778Y-92654764D01*
X175572420Y-92581155D01*
X175572420Y-91916250D01*
X175477170Y-91821000D01*
X174718980Y-91821000D01*
X174464980Y-91821000D01*
X173706790Y-91821000D01*
X173611540Y-91916250D01*
X172456000Y-91916250D01*
X172456000Y-90806845D01*
X173611540Y-90806845D01*
X173611540Y-91471750D01*
X173706790Y-91567000D01*
X174464980Y-91567000D01*
X174464980Y-90558620D01*
X174718980Y-90558620D01*
X174718980Y-91567000D01*
X175477170Y-91567000D01*
X175572420Y-91471750D01*
X175572420Y-91437856D01*
X175613060Y-91437856D01*
X175613060Y-91950144D01*
X175631732Y-92140579D01*
X175687038Y-92323761D01*
X175776871Y-92492711D01*
X175897808Y-92640996D01*
X176045245Y-92762966D01*
X176213564Y-92853976D01*
X176396355Y-92910559D01*
X176586655Y-92930560D01*
X176777216Y-92913218D01*
X176960779Y-92859192D01*
X177130353Y-92770541D01*
X177279478Y-92650642D01*
X177402474Y-92504060D01*
X177494657Y-92336380D01*
X177552515Y-92153989D01*
X177573844Y-91963833D01*
X177573940Y-91950144D01*
X177573940Y-91437856D01*
X177555268Y-91247421D01*
X177499962Y-91064239D01*
X177410129Y-90895289D01*
X177289192Y-90747004D01*
X177141755Y-90625034D01*
X176973436Y-90534024D01*
X176790645Y-90477441D01*
X176600345Y-90457440D01*
X176409784Y-90474782D01*
X176226221Y-90528808D01*
X176056647Y-90617459D01*
X175907522Y-90737358D01*
X175784526Y-90883940D01*
X175692343Y-91051620D01*
X175634485Y-91234011D01*
X175613156Y-91424167D01*
X175613060Y-91437856D01*
X175572420Y-91437856D01*
X175572420Y-90806845D01*
X175557778Y-90733236D01*
X175529058Y-90663899D01*
X175487362Y-90601496D01*
X175434293Y-90548428D01*
X175371891Y-90506732D01*
X175302553Y-90478012D01*
X175228945Y-90463370D01*
X174814230Y-90463370D01*
X174718980Y-90558620D01*
X174464980Y-90558620D01*
X174369730Y-90463370D01*
X173955015Y-90463370D01*
X173881407Y-90478012D01*
X173812069Y-90506732D01*
X173749667Y-90548428D01*
X173696598Y-90601496D01*
X173654902Y-90663899D01*
X173626182Y-90733236D01*
X173611540Y-90806845D01*
X172456000Y-90806845D01*
X172456000Y-89956000D01*
X235544000Y-89956000D01*
X235544000Y-91506055D01*
G36*
X197392663Y-103062602D02*
X197387437Y-103109196D01*
X197387400Y-103114416D01*
X197387390Y-103114516D01*
X197387399Y-103114610D01*
X197387387Y-103116289D01*
X197387387Y-104713098D01*
X197391966Y-104759802D01*
X197396056Y-104806546D01*
X197396801Y-104809112D01*
X197397062Y-104811769D01*
X197410614Y-104856654D01*
X197423716Y-104901753D01*
X197424947Y-104904127D01*
X197425718Y-104906682D01*
X197447727Y-104948075D01*
X197469342Y-104989775D01*
X197471010Y-104991864D01*
X197472263Y-104994221D01*
X197501939Y-105030607D01*
X197531197Y-105067257D01*
X197534860Y-105070972D01*
X197534925Y-105071052D01*
X197534999Y-105071113D01*
X197536177Y-105072308D01*
X198284256Y-105820387D01*
X197201613Y-105820387D01*
X197154909Y-105824966D01*
X197108165Y-105829056D01*
X197105599Y-105829801D01*
X197102942Y-105830062D01*
X197058057Y-105843614D01*
X197012958Y-105856716D01*
X197010584Y-105857947D01*
X197008029Y-105858718D01*
X196966636Y-105880727D01*
X196924936Y-105902342D01*
X196922847Y-105904010D01*
X196920490Y-105905263D01*
X196884104Y-105934939D01*
X196847454Y-105964197D01*
X196843739Y-105967860D01*
X196843659Y-105967925D01*
X196843598Y-105967999D01*
X196842403Y-105969177D01*
X196461141Y-106350439D01*
X196431375Y-106386677D01*
X196401193Y-106422646D01*
X196399905Y-106424988D01*
X196398211Y-106427051D01*
X196376041Y-106468398D01*
X196353430Y-106509527D01*
X196352623Y-106512072D01*
X196351360Y-106514427D01*
X196337635Y-106559319D01*
X196323452Y-106604030D01*
X196323154Y-106606683D01*
X196322373Y-106609239D01*
X196317627Y-106655962D01*
X196312401Y-106702556D01*
X196312364Y-106707776D01*
X196312354Y-106707876D01*
X196312363Y-106707970D01*
X196312351Y-106709649D01*
X196312351Y-107707917D01*
X196264726Y-107777472D01*
X196215978Y-107891210D01*
X196190249Y-108012252D01*
X196188522Y-108135985D01*
X196210860Y-108257698D01*
X196256414Y-108372753D01*
X196277346Y-108405233D01*
X196225834Y-108480465D01*
X196177086Y-108594203D01*
X196176935Y-108594914D01*
X196082801Y-108612871D01*
X195968066Y-108659227D01*
X195864520Y-108726985D01*
X195834000Y-108756873D01*
X195834000Y-104604420D01*
X197394568Y-103043852D01*
X197392663Y-103062602D01*
X197392663Y-103062602D01*
G37*
X197392663Y-103062602D02*
X197387437Y-103109196D01*
X197387400Y-103114416D01*
X197387390Y-103114516D01*
X197387399Y-103114610D01*
X197387387Y-103116289D01*
X197387387Y-104713098D01*
X197391966Y-104759802D01*
X197396056Y-104806546D01*
X197396801Y-104809112D01*
X197397062Y-104811769D01*
X197410614Y-104856654D01*
X197423716Y-104901753D01*
X197424947Y-104904127D01*
X197425718Y-104906682D01*
X197447727Y-104948075D01*
X197469342Y-104989775D01*
X197471010Y-104991864D01*
X197472263Y-104994221D01*
X197501939Y-105030607D01*
X197531197Y-105067257D01*
X197534860Y-105070972D01*
X197534925Y-105071052D01*
X197534999Y-105071113D01*
X197536177Y-105072308D01*
X198284256Y-105820387D01*
X197201613Y-105820387D01*
X197154909Y-105824966D01*
X197108165Y-105829056D01*
X197105599Y-105829801D01*
X197102942Y-105830062D01*
X197058057Y-105843614D01*
X197012958Y-105856716D01*
X197010584Y-105857947D01*
X197008029Y-105858718D01*
X196966636Y-105880727D01*
X196924936Y-105902342D01*
X196922847Y-105904010D01*
X196920490Y-105905263D01*
X196884104Y-105934939D01*
X196847454Y-105964197D01*
X196843739Y-105967860D01*
X196843659Y-105967925D01*
X196843598Y-105967999D01*
X196842403Y-105969177D01*
X196461141Y-106350439D01*
X196431375Y-106386677D01*
X196401193Y-106422646D01*
X196399905Y-106424988D01*
X196398211Y-106427051D01*
X196376041Y-106468398D01*
X196353430Y-106509527D01*
X196352623Y-106512072D01*
X196351360Y-106514427D01*
X196337635Y-106559319D01*
X196323452Y-106604030D01*
X196323154Y-106606683D01*
X196322373Y-106609239D01*
X196317627Y-106655962D01*
X196312401Y-106702556D01*
X196312364Y-106707776D01*
X196312354Y-106707876D01*
X196312363Y-106707970D01*
X196312351Y-106709649D01*
X196312351Y-107707917D01*
X196264726Y-107777472D01*
X196215978Y-107891210D01*
X196190249Y-108012252D01*
X196188522Y-108135985D01*
X196210860Y-108257698D01*
X196256414Y-108372753D01*
X196277346Y-108405233D01*
X196225834Y-108480465D01*
X196177086Y-108594203D01*
X196176935Y-108594914D01*
X196082801Y-108612871D01*
X195968066Y-108659227D01*
X195864520Y-108726985D01*
X195834000Y-108756873D01*
X195834000Y-104604420D01*
X197394568Y-103043852D01*
X197392663Y-103062602D01*
G36*
X207289509Y-103218589D02*
X207335063Y-103333644D01*
X207402097Y-103437661D01*
X207488058Y-103526676D01*
X207589671Y-103597299D01*
X207703067Y-103646840D01*
X207823926Y-103673413D01*
X207947644Y-103676004D01*
X208069509Y-103654516D01*
X208181631Y-103611027D01*
X206759357Y-105033301D01*
X206728094Y-105071363D01*
X206696412Y-105109119D01*
X206695059Y-105111581D01*
X206693281Y-105113745D01*
X206670034Y-105157101D01*
X206646261Y-105200343D01*
X206645412Y-105203020D01*
X206644088Y-105205489D01*
X206629702Y-105252543D01*
X206614784Y-105299572D01*
X206614471Y-105302364D01*
X206613652Y-105305042D01*
X206608675Y-105354038D01*
X206603180Y-105403025D01*
X206603142Y-105408504D01*
X206603131Y-105408610D01*
X206603140Y-105408709D01*
X206603128Y-105410472D01*
X206603128Y-105918000D01*
X202648420Y-105918000D01*
X202046726Y-105316306D01*
X202028991Y-105226739D01*
X201996803Y-105148644D01*
X204379224Y-105148644D01*
X204607709Y-105377130D01*
X204622509Y-105457769D01*
X204668063Y-105572824D01*
X204735097Y-105676841D01*
X204821058Y-105765856D01*
X204922671Y-105836479D01*
X205036067Y-105886020D01*
X205156926Y-105912593D01*
X205280644Y-105915184D01*
X205402509Y-105893696D01*
X205517880Y-105848947D01*
X205622362Y-105782641D01*
X205711975Y-105697303D01*
X205783306Y-105596185D01*
X205811878Y-105532011D01*
X205915644Y-105534184D01*
X206037509Y-105512696D01*
X206152880Y-105467947D01*
X206257362Y-105401641D01*
X206346975Y-105316303D01*
X206418306Y-105215185D01*
X206468638Y-105102138D01*
X206488492Y-105014750D01*
X206545509Y-105004696D01*
X206660880Y-104959947D01*
X206765362Y-104893641D01*
X206854975Y-104808303D01*
X206926306Y-104707185D01*
X206976638Y-104594138D01*
X207004053Y-104473468D01*
X207006027Y-104332127D01*
X206981991Y-104210739D01*
X206934836Y-104096330D01*
X206866356Y-103993260D01*
X206779161Y-103905454D01*
X206676571Y-103836256D01*
X206562495Y-103788303D01*
X206468410Y-103768990D01*
X205852595Y-103153175D01*
X207277504Y-103153175D01*
X207289509Y-103218589D01*
X207289509Y-103218589D01*
G37*
X207289509Y-103218589D02*
X207335063Y-103333644D01*
X207402097Y-103437661D01*
X207488058Y-103526676D01*
X207589671Y-103597299D01*
X207703067Y-103646840D01*
X207823926Y-103673413D01*
X207947644Y-103676004D01*
X208069509Y-103654516D01*
X208181631Y-103611027D01*
X206759357Y-105033301D01*
X206728094Y-105071363D01*
X206696412Y-105109119D01*
X206695059Y-105111581D01*
X206693281Y-105113745D01*
X206670034Y-105157101D01*
X206646261Y-105200343D01*
X206645412Y-105203020D01*
X206644088Y-105205489D01*
X206629702Y-105252543D01*
X206614784Y-105299572D01*
X206614471Y-105302364D01*
X206613652Y-105305042D01*
X206608675Y-105354038D01*
X206603180Y-105403025D01*
X206603142Y-105408504D01*
X206603131Y-105408610D01*
X206603140Y-105408709D01*
X206603128Y-105410472D01*
X206603128Y-105918000D01*
X202648420Y-105918000D01*
X202046726Y-105316306D01*
X202028991Y-105226739D01*
X201996803Y-105148644D01*
X204379224Y-105148644D01*
X204607709Y-105377130D01*
X204622509Y-105457769D01*
X204668063Y-105572824D01*
X204735097Y-105676841D01*
X204821058Y-105765856D01*
X204922671Y-105836479D01*
X205036067Y-105886020D01*
X205156926Y-105912593D01*
X205280644Y-105915184D01*
X205402509Y-105893696D01*
X205517880Y-105848947D01*
X205622362Y-105782641D01*
X205711975Y-105697303D01*
X205783306Y-105596185D01*
X205811878Y-105532011D01*
X205915644Y-105534184D01*
X206037509Y-105512696D01*
X206152880Y-105467947D01*
X206257362Y-105401641D01*
X206346975Y-105316303D01*
X206418306Y-105215185D01*
X206468638Y-105102138D01*
X206488492Y-105014750D01*
X206545509Y-105004696D01*
X206660880Y-104959947D01*
X206765362Y-104893641D01*
X206854975Y-104808303D01*
X206926306Y-104707185D01*
X206976638Y-104594138D01*
X207004053Y-104473468D01*
X207006027Y-104332127D01*
X206981991Y-104210739D01*
X206934836Y-104096330D01*
X206866356Y-103993260D01*
X206779161Y-103905454D01*
X206676571Y-103836256D01*
X206562495Y-103788303D01*
X206468410Y-103768990D01*
X205852595Y-103153175D01*
X207277504Y-103153175D01*
X207289509Y-103218589D01*
G36*
X204941381Y-103678801D02*
X202382115Y-103678801D01*
X202327675Y-103624361D01*
X202327684Y-103624353D01*
X202330041Y-103623100D01*
X202366427Y-103593424D01*
X202376730Y-103585199D01*
X204847779Y-103585199D01*
X204941381Y-103678801D01*
X204941381Y-103678801D01*
G37*
X204941381Y-103678801D02*
X202382115Y-103678801D01*
X202327675Y-103624361D01*
X202327684Y-103624353D01*
X202330041Y-103623100D01*
X202366427Y-103593424D01*
X202376730Y-103585199D01*
X204847779Y-103585199D01*
X204941381Y-103678801D01*
M02*
